<svg width="29" height="29" viewBox="0 0 29 29" fill="none" xmlns="http://www.w3.org/2000/svg">
<path d="M11.2597 8.67024C11.018 9.96412 9.82672 11.3108 8.59587 11.0771C7.32097 10.8349 6.55217 9.00132 6.74899 7.61613C6.94431 6.2415 8.15806 4.83361 9.38933 5.04802C10.6793 5.27266 11.5345 7.19896 11.2597 8.67024Z" fill="#8AD83F"/>
<path d="M20.7712 15.4941C22.0664 15.2031 23.8631 15.7381 24.2375 16.9272C24.6253 18.1588 23.3203 19.5622 21.9633 19.929C20.6166 20.293 18.7534 19.7619 18.3611 18.58C17.9501 17.3418 19.2984 15.8251 20.7712 15.4941Z" fill="#8AD83F"/>
<path d="M18.9828 9.22921C20.0658 8.22208 22.102 7.73094 23.1391 8.66849C24.2134 9.6396 23.7535 11.7257 22.6539 12.8406C21.5627 13.947 19.4647 14.4792 18.4144 13.5586C17.3141 12.5941 17.7513 10.3744 18.9828 9.22921Z" fill="#8AD83F"/>
<path d="M13.4945 5.64399C14.2885 4.39728 16.1223 3.43068 17.3452 4.1049C18.6118 4.80325 18.678 6.96148 17.8943 8.318C17.1166 9.66417 15.2334 10.6858 14.0021 10.0314C12.712 9.34574 12.5916 7.06163 13.4945 5.64399Z" fill="#8AD83F"/>
<path d="M15.5199 12.4284C14.6311 11.71 13.6177 11.6448 12.9557 11.6111C11.7975 11.5522 11.5018 11.8682 9.59997 12.3043C7.09049 12.8799 6.76797 12.5217 5.78834 13.1222C5.51859 13.2875 4.1589 14.1209 3.87203 15.7335C3.57805 17.3861 4.53777 19.1428 5.77581 19.9631C6.89346 20.7036 7.56943 20.238 8.63744 21.1133C9.62268 21.9208 9.33136 22.5497 10.1874 23.4105C11.4642 24.6944 14.0125 25.2057 15.6359 24.1328C16.642 23.4678 16.9788 22.4019 17.0951 22.0338C17.4695 20.849 17.0306 20.4583 16.9577 18.0865C16.8977 16.1355 17.1777 15.8513 16.8421 14.6909C16.6544 14.0418 16.3741 13.1189 15.5199 12.4284Z" fill="#8AD83F"/>
</svg>
