<svg width="33" height="36" viewBox="0 0 33 36" fill="none" xmlns="http://www.w3.org/2000/svg">
<path d="M3.41667 34.1667C2.47708 34.1667 1.67274 33.8321 1.00365 33.163C0.334549 32.4939 0 31.6896 0 30.75V6.83333C0 5.89375 0.334549 5.08941 1.00365 4.42031C1.67274 3.75122 2.47708 3.41667 3.41667 3.41667H5.125V0H8.54167V3.41667H22.2083V0H25.625V3.41667H27.3333C28.2729 3.41667 29.0773 3.75122 29.7464 4.42031C30.4154 5.08941 30.75 5.89375 30.75 6.83333V17.724L27.3333 21.1406V13.6667H3.41667V30.75H14.0083L17.425 34.1667H3.41667ZM3.41667 10.25H27.3333V6.83333H3.41667V10.25ZM23.1479 35.0208L17.0833 28.9562L19.475 26.5646L23.1052 30.1948L30.3656 22.9344L32.7573 25.3687L23.1479 35.0208Z" fill="#333333"/>
</svg>
