<svg width="472" height="643" viewBox="0 0 472 643" fill="none" xmlns="http://www.w3.org/2000/svg">
<path d="M193.169 369.222C221.815 378.858 249.922 409.85 242.428 436.54C234.666 464.185 192.05 475.321 161.269 466.387C130.723 457.522 101.282 425.828 108.341 399.065C115.737 371.025 160.595 358.265 193.169 369.222Z" fill="#FCA11D"/>
<path d="M363.858 179.466C359.672 149.618 374.967 111.293 402.378 106.841C430.769 102.229 459.944 135.943 465.721 167.419C471.454 198.655 456.126 238.476 428.845 243.35C400.262 248.457 368.619 213.405 363.858 179.466Z" fill="#FCA11D"/>
<path d="M219.776 198.809C199.106 171.346 191.769 124.312 214.731 104.252C238.515 83.4738 284.572 100.575 307.635 128.76C330.522 156.731 338.67 205.28 316.065 225.688C292.383 247.07 243.28 230.038 219.776 198.809Z" fill="#FCA11D"/>
<path d="M129.184 309.479C102.602 287.677 84.2091 243.598 101.589 218.531C119.592 192.566 168.228 198.17 197.296 220.101C226.143 241.865 245.684 287.226 228.733 312.547C210.974 339.075 159.409 334.27 129.184 309.479Z" fill="#FCA11D"/>
<path d="M285.387 286.537C267.622 304.007 264.311 326.399 262.35 341.057C258.92 366.699 265.485 374.333 271.831 418.188C280.204 476.056 271.567 482.076 283.282 505.899C286.508 512.459 302.769 545.523 338.498 557.212C375.113 569.191 416.349 553.543 437.04 528.616C455.719 506.113 446.482 489.507 468.101 468.553C488.045 449.223 501.653 457.785 522.559 441.513C553.745 417.241 569.871 362.072 548.706 322.339C535.588 297.713 512.24 286.704 504.176 282.902C478.223 270.665 468.643 279.174 415.192 273.022C371.227 267.961 365.346 260.782 338.652 264.462C323.719 266.521 302.462 269.746 285.387 286.537Z" fill="#FCA11D"/>
</svg>
