<svg width="398" height="447" viewBox="0 0 398 447" fill="none" xmlns="http://www.w3.org/2000/svg">
<path d="M116.93 138.501C114.585 159.234 97.0382 181.397 76.9733 178.444C56.1903 175.385 41.648 146.695 43.1626 124.537C44.6657 102.549 62.501 79.3981 82.5497 82.0433C103.555 84.8147 119.596 114.926 116.93 138.501Z" fill="#FCA11D"/>
<path d="M277.928 241.136C298.403 235.701 327.923 243.095 335.358 261.777C343.058 281.128 323.751 304.264 302.372 310.943C281.157 317.57 250.572 310.28 242.859 291.723C234.778 272.282 254.646 247.316 277.928 241.136Z" fill="#FCA11D"/>
<path d="M241.723 142.589C257.934 125.895 290.082 116.816 307.871 131.085C326.296 145.865 321.387 179.336 305.038 197.755C288.814 216.033 255.72 225.804 237.741 211.813C218.905 197.154 223.289 161.572 241.723 142.589Z" fill="#FCA11D"/>
<path d="M149.223 88.9613C160.503 68.6355 188.832 52.1192 209.293 62.0841C230.486 72.4055 234.119 106.696 223.136 128.763C212.237 150.66 183.18 168.083 162.607 158.438C141.052 148.333 136.396 112.074 149.223 88.9613Z" fill="#FCA11D"/>
<path d="M189.873 195.631C174.73 184.756 158.362 184.348 147.679 184.224C128.991 184.007 124.613 189.217 94.5596 197.338C54.9035 208.053 49.2924 202.557 34.2593 212.717C30.1198 215.515 9.25442 229.617 6.56303 255.448C3.80488 281.92 21.3247 309.268 42.2035 321.547C61.0522 332.631 71.3643 324.805 89.5754 338.065C106.375 350.297 102.441 360.483 117.226 373.643C139.281 393.274 180.855 399.822 205.675 381.746C221.057 370.542 225.202 353.377 226.633 347.449C231.241 328.369 223.72 322.428 219.723 284.742C216.436 253.745 220.599 249.049 213.823 230.8C210.032 220.59 204.427 206.083 189.873 195.631Z" fill="#FCA11D"/>
</svg>
