<svg width="22" height="22" viewBox="0 0 22 22" fill="none" xmlns="http://www.w3.org/2000/svg">
<path d="M21.9928 11.0004C21.9928 16.5561 17.8758 21.1491 12.5274 21.8944C12.0274 21.9638 11.5157 22 10.9964 22C10.3969 22 9.8082 21.9522 9.23492 21.8597C3.9991 21.0165 0 16.4751 0 11.0004C0 4.9252 4.92375 0 10.9971 0C17.0705 0 21.9943 4.9252 21.9943 11.0004H21.9928Z" fill="black"/>
<path d="M12.5256 8.83092V11.2272H15.4891L15.0199 14.4552H12.5256V21.8923C12.0255 21.9617 11.5139 21.9979 10.9946 21.9979C10.3951 21.9979 9.80639 21.9501 9.23311 21.8577V14.4552H6.5V11.2272H9.23311V8.29524C9.23311 6.47623 10.7071 5.00098 12.5264 5.00098V5.00252C12.5318 5.00252 12.5364 5.00098 12.5418 5.00098H15.4899V7.7927H13.5635C12.991 7.7927 12.5264 8.25747 12.5264 8.83015L12.5256 8.83092Z" fill="#FBFBFB"/>
</svg>
