<svg width="22" height="22" viewBox="0 0 22 22" fill="none" xmlns="http://www.w3.org/2000/svg">
<path d="M11.0218 0H10.9717C4.91221 0 0 4.91365 0 10.975V11.025C0 17.0863 4.91221 22 10.9717 22H11.0218C17.0813 22 21.9935 17.0863 21.9935 11.025V10.975C21.9935 4.91365 17.0813 0 11.0218 0Z" fill="black"/>
<path d="M14.3986 4.47754H7.59323C5.71312 4.47754 4.18359 6.00751 4.18359 7.88818V14.116C4.18359 15.9966 5.71312 17.5266 7.59323 17.5266H14.3986C16.2788 17.5266 17.8083 15.9966 17.8083 14.116V7.88818C17.8083 6.00751 16.2788 4.47754 14.3986 4.47754ZM5.38641 7.88818C5.38641 6.67114 6.37655 5.6807 7.59323 5.6807H14.3986C15.6153 5.6807 16.6055 6.67114 16.6055 7.88818V14.116C16.6055 15.333 15.6153 16.3235 14.3986 16.3235H7.59323C6.37655 16.3235 5.38641 15.333 5.38641 14.116V7.88818Z" fill="#FBFBFB"/>
<path d="M10.9958 14.175C12.7441 14.175 14.1673 12.7522 14.1673 11.0026C14.1673 9.25291 12.7449 7.83008 10.9958 7.83008C9.24664 7.83008 7.82422 9.25291 7.82422 11.0026C7.82422 12.7522 9.24664 14.175 10.9958 14.175ZM10.9958 9.03402C12.0815 9.03402 12.9645 9.91731 12.9645 11.0033C12.9645 12.0893 12.0815 12.9726 10.9958 12.9726C9.91007 12.9726 9.02703 12.0893 9.02703 11.0033C9.02703 9.91731 9.91007 9.03402 10.9958 9.03402Z" fill="#FBFBFB"/>
<path d="M14.46 8.34042C14.9308 8.34042 15.3145 7.95735 15.3145 7.48564C15.3145 7.01393 14.9316 6.63086 14.46 6.63086C13.9884 6.63086 13.6055 7.01393 13.6055 7.48564C13.6055 7.95735 13.9884 8.34042 14.46 8.34042Z" fill="#FBFBFB"/>
</svg>
