<svg width="107" height="102" viewBox="0 0 107 102" fill="none" xmlns="http://www.w3.org/2000/svg">
<path d="M23.9806 38.2685C27.1156 44.2368 26.5907 53.463 20.8867 56.4729C14.9786 59.5905 6.05615 54.6975 2.45021 48.5067C-1.12819 42.3631 -0.707067 32.8193 4.9371 29.7304C10.8505 26.4941 20.4157 31.482 23.9806 38.2685Z" fill="#FFD833"/>
<path d="M83.8406 35.192C88.1371 29.8696 97.0785 26.2537 102.364 29.825C107.839 33.524 107.036 43.3421 102.73 49.167C98.458 54.9475 89.261 58.7924 83.9264 55.3073C78.3374 51.6561 78.955 41.2443 83.8406 35.192Z" fill="#FFD833"/>
<path d="M56.7623 15.7347C57.9295 8.21762 64.5785 -0.286229 71.7377 0.150042C79.1532 0.601906 83.9256 10.4508 83.0341 18.4536C82.1494 26.3954 75.3815 35.2626 68.2232 34.9365C60.7236 34.5949 55.435 24.2824 56.7623 15.7347Z" fill="#FFD833"/>
<path d="M23.3119 18.931C22.5529 11.3793 26.8758 1.61618 33.9474 0.399533C41.2722 -0.860662 48.3944 7.59046 49.5439 15.5497C50.6847 23.4482 46.3376 33.5907 39.2947 34.9139C31.9159 36.3002 24.175 27.5181 23.3119 18.931Z" fill="#FFD833"/>
<path d="M53.0257 39.7615C47.1633 39.7292 42.8723 42.7169 40.0978 44.7047C35.2437 48.1822 35.0552 50.3984 28.7761 58.2469C20.4908 68.6031 18.0541 68.2004 16.0128 73.7509C15.4507 75.2793 12.6175 82.983 16.5816 90.3732C20.6439 97.9466 30.0889 101.917 37.6821 101.239C44.5371 100.626 45.7828 96.59 52.8657 96.6772C59.3997 96.7576 60.2226 100.215 66.4049 100.924C75.627 101.981 87.5189 95.8607 90.6544 86.3503C92.5977 80.4558 90.5706 75.0993 89.8706 73.2494C87.6173 67.2951 84.6085 67.1351 76.7838 57.8524C70.3478 50.2173 70.5737 48.1786 65.5374 44.5993C62.7199 42.5968 58.6602 39.7926 53.0257 39.7615Z" fill="#FFD833"/>
</svg>
