<svg width="683" height="28" viewBox="0 0 683 28" fill="none" xmlns="http://www.w3.org/2000/svg">
<path d="M589.209 9.40625C588.791 9.52232 588.4 9.6413 588.034 9.76317C587.668 9.88505 587.346 10.004 587.068 10.1201L586.589 7.65647C587.21 7.46496 587.814 7.29665 588.4 7.15156C588.992 7.00647 589.557 6.8817 590.097 6.77723C590.637 6.67277 591.148 6.58572 591.629 6.51607C592.111 6.44643 592.558 6.38839 592.97 6.34197C593.928 6.2375 594.813 6.18237 595.625 6.17656C596.478 6.18817 597.224 6.27232 597.862 6.42902C598.501 6.58572 599.032 6.80625 599.455 7.09063C599.885 7.375 600.207 7.71741 600.422 8.11786C600.636 8.5183 600.744 8.96518 600.744 9.45848C600.744 10.1027 600.593 10.6772 600.291 11.1821C599.995 11.6871 599.601 12.1339 599.107 12.5228C598.614 12.9058 598.048 13.2366 597.41 13.5152C596.777 13.7938 596.124 14.0288 595.451 14.2203C594.778 14.4118 594.11 14.5656 593.449 14.6817C592.787 14.792 592.186 14.8761 591.647 14.9342L591.664 17.3194L594.607 17.3368V19.3391L587.224 19.8004L587.172 17.2846L589.775 17.302L589.209 9.40625ZM595.129 8.28326C594.932 8.28326 594.702 8.29777 594.441 8.32679C594.186 8.35 593.907 8.38482 593.605 8.43125C593.304 8.47188 592.984 8.52411 592.648 8.58795C592.311 8.65179 591.966 8.72143 591.612 8.79688L591.647 13.5065C592.065 13.4194 592.506 13.3121 592.97 13.1844C593.44 13.0509 593.901 12.8971 594.354 12.723C594.813 12.5489 595.248 12.3545 595.66 12.1397C596.072 11.9192 596.429 11.6783 596.731 11.4172C597.032 11.156 597.265 10.8775 597.427 10.5815C597.595 10.2797 597.659 9.96049 597.619 9.62389C597.59 9.38014 597.508 9.17411 597.375 9.0058C597.241 8.8317 597.064 8.69241 596.844 8.58795C596.629 8.47768 596.374 8.39933 596.078 8.3529C595.788 8.30647 595.471 8.28326 595.129 8.28326ZM610.325 16.4837C610.104 17.0583 609.796 17.5574 609.402 17.981C609.013 18.3989 608.572 18.7471 608.079 19.0257C607.585 19.2984 607.063 19.5016 606.512 19.635C605.96 19.7685 605.418 19.8353 604.884 19.8353C604.141 19.8353 603.479 19.7192 602.899 19.4871C602.319 19.2549 601.825 18.9415 601.419 18.5469C601.013 18.1522 600.694 17.6908 600.461 17.1627C600.235 16.6288 600.105 16.0629 600.07 15.4652C600.07 14.554 600.221 13.7763 600.522 13.1321C600.83 12.4821 601.245 11.954 601.767 11.5478C602.295 11.1415 602.911 10.8455 603.613 10.6598C604.315 10.4683 605.061 10.3725 605.85 10.3725C606.14 10.3725 606.439 10.3929 606.747 10.4335C607.06 10.4741 607.365 10.5467 607.661 10.6511C607.957 10.7556 608.238 10.9007 608.505 11.0864C608.778 11.2663 609.022 11.5013 609.236 11.7915C609.457 12.0759 609.643 12.4183 609.794 12.8188C609.944 13.2192 610.049 13.6922 610.107 14.2377L602.96 15.5174C603.006 15.9179 603.088 16.3096 603.204 16.6926C603.326 17.0757 603.488 17.4152 603.691 17.7112C603.894 18.0013 604.144 18.2335 604.44 18.4076C604.742 18.5759 605.099 18.6542 605.511 18.6426C605.957 18.5904 606.352 18.4569 606.694 18.2422C606.84 18.1493 606.979 18.0362 607.112 17.9027C607.246 17.7634 607.362 17.598 607.461 17.4065C607.559 17.215 607.632 16.9915 607.678 16.7362C607.725 16.4808 607.733 16.1877 607.704 15.8569L610.325 16.4837ZM607.025 13.6806C607.002 13.4078 606.953 13.1699 606.877 12.9667C606.802 12.7636 606.706 12.5895 606.59 12.4444C606.48 12.2993 606.355 12.1804 606.216 12.0875C606.082 11.9888 605.946 11.9105 605.807 11.8525C605.482 11.719 605.116 11.658 604.71 11.6696C604.327 11.7161 604.016 11.8263 603.778 12.0004C603.54 12.1688 603.355 12.3806 603.221 12.6359C603.093 12.8855 603.006 13.1641 602.96 13.4717C602.913 13.7792 602.89 14.0926 602.89 14.4118L607.025 13.6806ZM614.36 16.1094C614.36 16.4228 614.404 16.6955 614.491 16.9277C614.584 17.1598 614.708 17.3542 614.865 17.5109C615.022 17.6618 615.204 17.775 615.413 17.8504C615.628 17.9259 615.857 17.9636 616.101 17.9636C616.345 17.9636 616.6 17.9259 616.867 17.8504C617.134 17.775 617.398 17.6618 617.659 17.5109C617.921 17.36 618.176 17.1714 618.425 16.9451C618.675 16.7188 618.907 16.4576 619.122 16.1616C619.18 16.3705 619.241 16.5998 619.305 16.8493C619.363 17.0641 619.427 17.3136 619.496 17.598C619.572 17.8766 619.653 18.1754 619.74 18.4946C619.392 18.7558 619.049 18.9705 618.713 19.1388C618.376 19.3071 618.048 19.4406 617.729 19.5393C617.416 19.6379 617.114 19.7047 616.824 19.7395C616.534 19.7801 616.264 19.8004 616.014 19.8004C615.364 19.8004 614.813 19.7134 614.36 19.5393C613.913 19.371 613.539 19.1388 613.237 18.8429C612.941 18.5411 612.709 18.19 612.541 17.7895C612.378 17.3833 612.256 16.948 612.175 16.4837C612.094 16.0136 612.044 15.5261 612.027 15.0212C612.01 14.5105 612.001 14.0056 612.001 13.5065C612.001 13.3788 612.004 13.2337 612.01 13.0712C612.015 12.9087 612.024 12.7375 612.036 12.5576L609.955 12.6185L610.129 10.7991L612.236 10.6337C612.294 10.1404 612.355 9.65871 612.419 9.18862C612.488 8.71853 612.549 8.29487 612.602 7.91764C612.665 7.47656 612.726 7.05871 612.784 6.66406L615.605 6.87299C615.535 7.18639 615.466 7.5288 615.396 7.90022C615.332 8.21942 615.26 8.59375 615.178 9.02322C615.103 9.44688 615.025 9.90826 614.943 10.4074L618.721 10.1027L618.669 12.3487L614.639 12.4705C614.552 13.1205 614.482 13.756 614.43 14.377C614.383 14.9922 614.36 15.5696 614.36 16.1094ZM630.705 17.0931L630.653 19.3042L623.166 19.5306V16.7884L624.985 16.858L621.434 9.47589L618.944 9.54554V6.80335L626.483 7.10804L626.431 9.3192L624.272 9.38884L626.431 16.327L630.513 9.52813L627.893 9.74576L627.745 6.99487L635.293 6.92522L635.362 9.11897L632.402 9.37143L628.868 17.0147L630.705 17.0931ZM641.313 17.4848L641.026 19.7134L634.531 19.5306L634.253 17.9462L636.891 17.7808L636.873 12.81L634.157 12.723V11.3301L639.633 10.9732L638.971 17.6415L641.313 17.4848ZM639.633 8.92746C639.633 9.06674 639.589 9.20022 639.502 9.3279C639.421 9.44978 639.308 9.55714 639.163 9.65C639.018 9.74286 638.846 9.8183 638.649 9.87634C638.458 9.92857 638.252 9.95469 638.031 9.95469C637.805 9.95469 637.593 9.92857 637.395 9.87634C637.204 9.8183 637.036 9.74286 636.891 9.65C636.745 9.55714 636.629 9.44978 636.542 9.3279C636.461 9.20022 636.42 9.06674 636.42 8.92746C636.42 8.78237 636.461 8.64598 636.542 8.5183C636.629 8.38482 636.745 8.27165 636.891 8.1788C637.036 8.08594 637.204 8.01339 637.395 7.96116C637.593 7.90313 637.805 7.87411 638.031 7.87411C638.252 7.87411 638.458 7.90313 638.649 7.96116C638.846 8.01339 639.018 8.08594 639.163 8.1788C639.308 8.27165 639.421 8.38482 639.502 8.5183C639.589 8.64598 639.633 8.78237 639.633 8.92746ZM645.035 16.1094C645.035 16.4228 645.078 16.6955 645.166 16.9277C645.258 17.1598 645.383 17.3542 645.54 17.5109C645.697 17.6618 645.879 17.775 646.088 17.8504C646.303 17.9259 646.532 17.9636 646.776 17.9636C647.02 17.9636 647.275 17.9259 647.542 17.8504C647.809 17.775 648.073 17.6618 648.334 17.5109C648.595 17.36 648.851 17.1714 649.1 16.9451C649.35 16.7188 649.582 16.4576 649.797 16.1616C649.855 16.3705 649.916 16.5998 649.98 16.8493C650.038 17.0641 650.101 17.3136 650.171 17.598C650.247 17.8766 650.328 18.1754 650.415 18.4946C650.067 18.7558 649.724 18.9705 649.388 19.1388C649.051 19.3071 648.723 19.4406 648.404 19.5393C648.091 19.6379 647.789 19.7047 647.499 19.7395C647.208 19.7801 646.939 19.8004 646.689 19.8004C646.039 19.8004 645.488 19.7134 645.035 19.5393C644.588 19.371 644.214 19.1388 643.912 18.8429C643.616 18.5411 643.384 18.19 643.216 17.7895C643.053 17.3833 642.931 16.948 642.85 16.4837C642.769 16.0136 642.719 15.5261 642.702 15.0212C642.685 14.5105 642.676 14.0056 642.676 13.5065C642.676 13.3788 642.679 13.2337 642.685 13.0712C642.69 12.9087 642.699 12.7375 642.711 12.5576L640.63 12.6185L640.804 10.7991L642.911 10.6337C642.969 10.1404 643.03 9.65871 643.094 9.18862C643.163 8.71853 643.224 8.29487 643.276 7.91764C643.34 7.47656 643.401 7.05871 643.459 6.66406L646.28 6.87299C646.21 7.18639 646.141 7.5288 646.071 7.90022C646.007 8.21942 645.935 8.59375 645.853 9.02322C645.778 9.44688 645.699 9.90826 645.618 10.4074L649.396 10.1027L649.344 12.3487L645.314 12.4705C645.226 13.1205 645.157 13.756 645.105 14.377C645.058 14.9922 645.035 15.5696 645.035 16.1094ZM661.058 18.4598L660.614 20.0703L656.287 19.7482C656.299 19.6612 656.313 19.5654 656.331 19.4609C656.348 19.3565 656.366 19.2578 656.383 19.165C656.406 19.0605 656.426 18.956 656.444 18.8516C655.939 19.1301 655.428 19.3275 654.912 19.4435C654.395 19.5596 653.89 19.6176 653.397 19.6176C653.037 19.6176 652.663 19.5857 652.274 19.5219C651.885 19.458 651.528 19.3478 651.203 19.1911C650.884 19.0286 650.62 18.8167 650.411 18.5556C650.202 18.2886 650.098 17.9549 650.098 17.5545C650.098 17.1308 650.193 16.7652 650.385 16.4576C650.576 16.15 650.829 15.8888 651.142 15.6741C651.456 15.4536 651.81 15.2766 652.204 15.1431C652.605 15.0096 653.008 14.9051 653.414 14.8297C653.826 14.7484 654.227 14.6962 654.616 14.673C655.005 14.644 655.347 14.6295 655.643 14.6295C655.956 14.6295 656.238 14.6382 656.487 14.6556C656.737 14.6672 656.96 14.6875 657.158 14.7165C657.227 14.2929 657.262 13.8895 657.262 13.5065C657.262 13.2279 657.224 12.9754 657.149 12.7491C657.079 12.5228 656.955 12.3342 656.775 12.1833C656.601 12.0324 656.366 11.9192 656.07 11.8438C655.779 11.7683 655.417 11.7393 654.981 11.7567C654.691 11.7857 654.424 11.867 654.18 12.0004C654.076 12.0585 653.969 12.131 653.858 12.2181C653.754 12.3051 653.652 12.4096 653.554 12.5315C653.461 12.6533 653.377 12.7984 653.301 12.9667C653.226 13.1292 653.168 13.315 653.127 13.5239L650.315 13.6632C650.356 13.2627 650.457 12.9087 650.62 12.6011C650.782 12.2877 650.98 12.0179 651.212 11.7915C651.45 11.5594 651.711 11.3621 651.995 11.1996C652.28 11.0371 652.567 10.9007 652.857 10.7904C653.542 10.5408 654.305 10.3871 655.147 10.329C655.901 10.3174 656.54 10.39 657.062 10.5467C657.59 10.6975 658.025 10.9036 658.368 11.1647C658.71 11.4201 658.977 11.7103 659.169 12.0353C659.36 12.3603 659.499 12.6853 659.586 13.0103C659.674 13.3295 659.723 13.6342 659.734 13.9243C659.746 14.2087 659.749 14.4438 659.743 14.6295C659.726 14.8558 659.685 15.1402 659.621 15.4826C659.569 15.7786 659.491 16.15 659.386 16.5969C659.288 17.0438 659.151 17.5777 658.977 18.1987L661.058 18.4598ZM656.957 15.8917C656.824 15.8801 656.679 15.8714 656.522 15.8656C656.366 15.8598 656.203 15.8569 656.035 15.8569C655.89 15.8569 655.71 15.8627 655.495 15.8743C655.286 15.8859 655.066 15.9092 654.833 15.944C654.601 15.973 654.369 16.0165 654.137 16.0746C653.905 16.1326 653.696 16.208 653.51 16.3009C653.33 16.3938 653.182 16.5069 653.066 16.6404C652.95 16.7739 652.892 16.9306 652.892 17.1105C652.892 17.2498 652.933 17.3833 653.014 17.5109C653.101 17.6328 653.217 17.7373 653.362 17.8243C653.507 17.9114 653.676 17.9752 653.867 18.0158C654.064 18.0507 654.27 18.0507 654.485 18.0158C654.92 17.9346 655.33 17.8359 655.713 17.7199C656.101 17.598 656.435 17.4819 656.714 17.3717C656.76 17.1279 656.804 16.8813 656.844 16.6317C656.885 16.3821 656.923 16.1355 656.957 15.8917Z" fill="black"/>
<path d="M364.808 14.9131V18.4609H355.769V17.8369L356.643 17.8191V7.15762L355.769 7.1398V6.5158H364.452V9.97454L363.757 9.95671L363.721 9.06528C362.402 8.24517 361.029 7.5558 359.603 6.99717L359.638 11.9535H362.972V12.6132H359.638L359.674 17.9617C361.195 17.3793 362.663 16.6662 364.077 15.8223L364.113 14.9309L364.808 14.9131ZM373.961 17.2308L371.358 18.6392C371.037 18.4491 370.799 18.1995 370.645 17.8904C370.502 17.5695 370.419 17.1595 370.395 16.6603L368.63 18.7284C367.941 18.7284 367.329 18.5739 366.794 18.2648C366.271 17.9439 365.861 17.5101 365.564 16.9633C365.267 16.4047 365.118 15.7748 365.118 15.0735C365.118 14.4673 365.219 13.8255 365.421 13.148C365.623 12.4705 365.867 11.9416 366.152 11.5613C366.378 11.2404 366.788 10.9313 367.382 10.6342C367.976 10.3252 368.476 10.1707 368.88 10.1707C369.236 10.1707 369.724 10.2301 370.342 10.3489L370.306 7.21111L369.629 7.35374L369.45 6.83671L372.749 5.83831L372.998 6.2662L372.891 15.5014C372.891 15.9293 372.915 16.2502 372.963 16.4641C373.01 16.6662 373.093 16.8445 373.212 16.999L373.747 16.7494L373.961 17.2308ZM367.685 14.0038C367.685 14.5505 367.774 15.026 367.953 15.4301C368.131 15.8342 368.363 16.1432 368.648 16.3572C368.945 16.5711 369.26 16.6781 369.593 16.6781L370.395 15.8758L370.36 12.2744C369.587 11.906 368.844 11.6564 368.131 11.5256C367.834 12.2031 367.685 13.0292 367.685 14.0038ZM382.745 17.2664L380.267 18.6749C379.886 18.4728 379.607 18.1995 379.429 17.8548C379.251 17.4982 379.161 17.0465 379.161 16.4998L377.628 18.7284C376.511 18.7284 375.685 18.4609 375.15 17.9261C374.615 17.3793 374.348 16.5414 374.348 15.4123V11.0086L373.688 10.9551V10.4381H376.862V14.6991C376.862 15.234 376.998 15.65 377.272 15.9471C377.557 16.2324 377.931 16.3809 378.395 16.3928L379.161 15.6797V11.0086L378.52 10.9551V10.4381H381.675V15.4657C381.675 15.9055 381.699 16.2324 381.747 16.4463C381.806 16.6603 381.895 16.8445 382.014 16.999L382.549 16.7316L382.745 17.2664ZM387.353 16.6781C388.09 16.6781 388.809 16.4107 389.51 15.8758L389.795 16.1967C389.356 16.9574 388.803 17.5695 388.137 18.0331C387.484 18.4966 386.776 18.7284 386.016 18.7284C384.946 18.7284 384.09 18.3718 383.448 17.6587C382.819 16.9336 382.504 15.959 382.504 14.7348C382.504 14.0097 382.652 13.2907 382.949 12.5775C383.246 11.8644 383.627 11.2701 384.09 10.7947C384.494 10.5926 384.916 10.4381 385.356 10.3311C385.796 10.2241 386.218 10.1707 386.622 10.1707C387.323 10.1707 387.947 10.3608 388.494 10.7412C389.041 11.1215 389.48 11.6742 389.813 12.3992L387.763 13.5937C387.573 13.0589 387.317 12.5181 386.996 11.9713C386.675 11.4246 386.396 11.0502 386.158 10.8481C385.849 11.1453 385.582 11.5791 385.356 12.1496C385.142 12.7083 385.035 13.2847 385.035 13.879C385.035 14.7942 385.237 15.4895 385.641 15.9649C386.046 16.4404 386.616 16.6781 387.353 16.6781ZM396.763 17.5339L394.143 18.764C393.822 18.5382 393.602 18.2292 393.483 17.8369C393.055 18.0984 392.621 18.3124 392.181 18.4788C391.754 18.6452 391.379 18.7284 391.058 18.7284C390.571 18.7284 390.173 18.556 389.864 18.2113C389.555 17.8667 389.4 17.4269 389.4 16.892C389.4 16.6543 389.424 16.3988 389.471 16.1254C389.531 15.8401 389.602 15.6143 389.685 15.4479L393.465 14.8417L393.501 14.3247C393.525 13.7899 393.412 13.3739 393.162 13.0767C392.912 12.7677 392.508 12.6132 391.95 12.6132C391.7 12.6132 391.439 12.6429 391.165 12.7023C390.892 12.7499 390.66 12.8152 390.47 12.8984L390.185 13.5046L389.703 13.3263L390.523 10.759C391.439 10.3668 392.306 10.1707 393.126 10.1707C393.97 10.1707 394.66 10.3965 395.194 10.8481C395.729 11.2879 395.997 11.9832 395.997 12.9341L395.979 13.2907L395.801 15.6975L395.765 16.3393C395.765 16.5533 395.783 16.7256 395.818 16.8564C395.854 16.9752 395.914 17.1 395.997 17.2308L396.549 17.0168L396.763 17.5339ZM392.716 17.4447C392.906 17.4447 393.126 17.3734 393.376 17.2308L393.358 16.8564L393.376 16.4641L393.429 15.4479L392.057 15.7688C392.009 15.9233 391.985 16.1313 391.985 16.3928C391.985 16.7494 392.057 17.0168 392.199 17.1951C392.342 17.3615 392.514 17.4447 392.716 17.4447ZM396.866 17.8369L397.739 17.8191V7.15762L396.866 7.1398V6.5158L400.307 6.55145L402.838 6.33751C404.609 6.33751 405.976 6.83077 406.939 7.81728C407.913 8.8038 408.401 10.2301 408.401 12.0961C408.401 13.356 408.157 14.4673 407.67 15.4301C407.182 16.3809 406.451 17.1238 405.477 17.6587C404.502 18.1935 403.314 18.4609 401.911 18.4609H396.866V17.8369ZM401.198 17.8369C402.47 17.8369 403.456 17.3972 404.157 16.5176C404.871 15.6381 405.227 14.3128 405.227 12.5419C405.227 11.3652 405.025 10.3787 404.621 9.58231C404.229 8.77408 403.688 8.17385 402.999 7.78162C402.321 7.37751 401.555 7.17545 400.699 7.17545V17.8369H401.198ZM412.769 10.1707C413.958 10.1707 414.915 10.5213 415.64 11.2225C416.365 11.9238 416.727 12.9222 416.727 14.2177C416.727 14.7764 416.626 15.3528 416.424 15.9471C416.234 16.5414 415.949 17.0644 415.568 17.516C415.188 17.8845 414.742 18.1816 414.231 18.4075C413.732 18.6214 413.203 18.7284 412.644 18.7284C411.456 18.7284 410.499 18.3777 409.774 17.6765C409.049 16.9752 408.687 15.9768 408.687 14.6813C408.687 14.1345 408.788 13.564 408.99 12.9697C409.192 12.3755 409.483 11.8525 409.863 11.4008C410.244 11.0324 410.683 10.7352 411.183 10.5094C411.694 10.2836 412.223 10.1707 412.769 10.1707ZM411.254 13.8255C411.254 14.9547 411.474 15.7985 411.913 16.3572C412.365 16.9158 413.025 17.2486 413.892 17.3556C413.976 16.999 414.041 16.6008 414.089 16.1611C414.136 15.7213 414.16 15.3588 414.16 15.0735C414.16 13.9325 413.934 13.0886 413.482 12.5419C413.043 11.9832 412.395 11.6504 411.539 11.5435C411.456 11.9119 411.385 12.316 411.325 12.7558C411.278 13.1956 411.254 13.5521 411.254 13.8255ZM422.153 17.4625C422.819 17.5101 423.384 17.6468 423.847 17.8726C424.322 18.0984 424.691 18.3956 424.952 18.764C424.727 19.4415 424.364 20.1071 423.865 20.7608C423.378 21.4145 422.783 21.9494 422.082 22.3654C421.393 22.7933 420.65 23.0072 419.853 23.0072C419.081 23.0072 418.457 22.8111 417.981 22.4189C417.518 22.0385 417.286 21.5512 417.286 20.9569C417.286 20.4577 417.411 19.8932 417.661 19.2632C417.233 19.0612 416.876 18.6987 416.591 18.1757L418.392 16.1611C417.94 15.9115 417.583 15.5787 417.322 15.1627C417.072 14.7348 416.947 14.2593 416.947 13.7364C416.947 13.2491 417.048 12.7677 417.25 12.2923C417.453 11.8168 417.708 11.4127 418.017 11.0799C418.314 10.8303 418.712 10.6164 419.212 10.4381C419.723 10.2598 420.258 10.1707 420.816 10.1707C421.22 10.1707 421.571 10.2123 421.868 10.2955L423.348 7.78162C423.586 7.73408 423.835 7.71031 424.097 7.71031C424.596 7.71031 425.077 7.81134 425.541 8.0134L424.293 10.3311C423.912 10.1766 423.538 10.0993 423.17 10.0993C423.051 10.0993 422.896 10.1112 422.706 10.135L422.439 10.4916C422.973 10.7293 423.395 11.074 423.704 11.5256C424.013 11.9773 424.168 12.5003 424.168 13.0945C424.168 13.5581 424.061 14.0216 423.847 14.4852C423.645 14.9368 423.395 15.3469 423.098 15.7153C422.801 15.9768 422.397 16.1967 421.886 16.375C421.387 16.5414 420.864 16.6246 420.317 16.6246C419.794 16.6246 419.313 16.5414 418.873 16.375L418.463 16.8742C418.534 16.9812 418.689 17.0763 418.926 17.1595C419.164 17.2427 419.449 17.2902 419.782 17.3021L422.153 17.4625ZM421.815 13.7542C421.815 13.0173 421.624 12.4408 421.244 12.0248C420.864 11.6088 420.329 11.3533 419.64 11.2582C419.414 11.9119 419.301 12.5181 419.301 13.0767C419.301 13.7899 419.491 14.3544 419.871 14.7704C420.252 15.1864 420.792 15.442 421.494 15.5371C421.708 14.9784 421.815 14.3841 421.815 13.7542ZM420.834 21.1352C421.191 21.1352 421.541 21.0936 421.886 21.0104C422.231 20.9391 422.522 20.85 422.76 20.743C422.997 20.636 423.14 20.5409 423.187 20.4577C423.116 20.2913 422.902 20.1249 422.546 19.9585C422.201 19.804 421.714 19.7089 421.084 19.6733L419.105 19.5663C418.879 19.5544 418.605 19.5247 418.285 19.4772C418.344 19.9526 418.6 20.3448 419.051 20.6539C419.515 20.9748 420.109 21.1352 420.834 21.1352Z" fill="black"/>
<path d="M469.63 13.4609V3.06688L468.649 0.624367H473.784C474.854 0.624367 475.739 0.772938 476.44 1.07008C477.142 1.35534 477.665 1.84265 478.009 2.53202C478.354 3.2214 478.526 4.16037 478.526 5.34894C478.526 6.98917 478.134 8.1718 477.35 8.89682C476.565 9.62185 475.377 9.98437 473.784 9.98437H473.106V13.4609H469.63ZM473.106 7.43488C473.677 7.43488 474.099 7.28037 474.372 6.97134C474.657 6.66231 474.8 6.10962 474.8 5.31328C474.8 4.70711 474.747 4.24951 474.64 3.94048C474.545 3.63145 474.372 3.42345 474.123 3.31648C473.885 3.19762 473.546 3.13819 473.106 3.13819V7.43488ZM481.732 13.6392C481.256 13.6392 480.811 13.5204 480.395 13.2827C479.979 13.0331 479.64 12.6765 479.379 12.2129C479.117 11.7494 478.986 11.1908 478.986 10.5371C478.986 9.51488 479.343 8.74231 480.056 8.21934C480.781 7.69637 481.714 7.43488 482.855 7.43488H483.622V6.45431C483.622 6.10962 483.503 5.87785 483.265 5.759C483.027 5.62825 482.724 5.56288 482.356 5.56288C481.904 5.56288 481.47 5.60448 481.054 5.68768C480.638 5.77088 480.222 5.88974 479.806 6.04425V3.54825C480.341 3.42939 480.894 3.32242 481.464 3.22734C482.047 3.12037 482.629 3.06688 483.212 3.06688C483.865 3.06688 484.466 3.15008 485.012 3.31648C485.559 3.471 485.999 3.75625 486.332 4.17225C486.664 4.58825 486.831 5.18254 486.831 5.95511V13.4609H484.05L483.836 12.6943C483.539 13.0152 483.206 13.2529 482.837 13.4075C482.469 13.562 482.1 13.6392 481.732 13.6392ZM482.98 11.2859C483.218 11.2859 483.432 11.1789 483.622 10.9649V9.19991H483.39C483.033 9.19991 482.73 9.28905 482.481 9.46734C482.231 9.63374 482.106 9.88928 482.106 10.234C482.106 10.5668 482.195 10.8283 482.374 11.0184C482.552 11.1967 482.754 11.2859 482.98 11.2859ZM492.36 3.20951H494.303V5.61637H492.36V10.0557C492.36 10.3885 492.443 10.6321 492.609 10.7867C492.788 10.9412 493.067 11.0184 493.447 11.0184C493.638 11.0184 493.804 11.0125 493.947 11.0006C494.089 10.9768 494.208 10.9531 494.303 10.9293V13.3005C494.018 13.3956 493.715 13.4728 493.394 13.5323C493.085 13.6036 492.77 13.6392 492.449 13.6392C491.355 13.6392 490.529 13.4075 489.971 12.9439C489.424 12.4685 489.151 11.6246 489.151 10.4123V5.61637H487.814V3.20951H489.151V0.96311H492.36V3.20951ZM495.543 3.20951H498.752V13.4609H495.543V3.20951ZM495.454 0.000366616H498.841V2.42505H495.454V0.000366616ZM503.312 3.90482C504.014 3.3462 504.774 3.06688 505.594 3.06688C506.414 3.06688 507.092 3.32242 507.627 3.83351C508.174 4.3446 508.447 5.11122 508.447 6.1334V13.4609H505.238V6.65042C505.238 5.9254 504.911 5.56288 504.257 5.56288C503.996 5.56288 503.764 5.62825 503.562 5.759V13.4609H500.353V3.20951H503.08L503.312 3.90482ZM513.177 3.72654C513.819 3.28677 514.496 3.06688 515.209 3.06688C516.029 3.06688 516.707 3.32242 517.242 3.83351C517.788 4.3446 518.062 5.11122 518.062 6.1334V13.4609H514.853V6.65042C514.853 5.9254 514.526 5.56288 513.872 5.56288C513.611 5.56288 513.379 5.62825 513.177 5.759V13.4609H509.968V0.46391L513.177 0.000366616V3.72654ZM521.972 13.6392C521.496 13.6392 521.05 13.5204 520.634 13.2827C520.218 13.0331 519.88 12.6765 519.618 12.2129C519.357 11.7494 519.226 11.1908 519.226 10.5371C519.226 9.51488 519.582 8.74231 520.296 8.21934C521.021 7.69637 521.954 7.43488 523.095 7.43488H523.861V6.45431C523.861 6.10962 523.742 5.87785 523.505 5.759C523.267 5.62825 522.964 5.56288 522.596 5.56288C522.144 5.56288 521.71 5.60448 521.294 5.68768C520.878 5.77088 520.462 5.88974 520.046 6.04425V3.54825C520.581 3.42939 521.134 3.32242 521.704 3.22734C522.286 3.12037 522.869 3.06688 523.451 3.06688C524.105 3.06688 524.705 3.15008 525.252 3.31648C525.799 3.471 526.238 3.75625 526.571 4.17225C526.904 4.58825 527.07 5.18254 527.07 5.95511V13.4609H524.289L524.075 12.6943C523.778 13.0152 523.445 13.2529 523.077 13.4075C522.708 13.562 522.34 13.6392 521.972 13.6392ZM523.22 11.2859C523.457 11.2859 523.671 11.1789 523.861 10.9649V9.19991H523.63C523.273 9.19991 522.97 9.28905 522.72 9.46734C522.471 9.63374 522.346 9.88928 522.346 10.234C522.346 10.5668 522.435 10.8283 522.613 11.0184C522.792 11.1967 522.994 11.2859 523.22 11.2859ZM531.886 10.4657C531.886 10.2637 531.738 10.0676 531.441 9.87739L529.907 8.879C529.349 8.51054 528.945 8.11237 528.695 7.68448C528.445 7.2566 528.321 6.69797 528.321 6.0086C528.321 5.02208 528.612 4.29111 529.194 3.81568C529.777 3.32837 530.733 3.07877 532.065 3.06688C532.564 3.06688 533.021 3.09065 533.437 3.13819C533.865 3.17385 534.204 3.21545 534.454 3.263C534.715 3.31054 534.846 3.33431 534.846 3.33431L534.578 5.70551C534.578 5.70551 534.489 5.69362 534.311 5.66985C534.133 5.64608 533.901 5.62231 533.616 5.59854C533.342 5.56288 533.057 5.54505 532.76 5.54505C532.332 5.54505 532.023 5.58071 531.833 5.65202C531.643 5.72334 531.548 5.86002 531.548 6.06208C531.548 6.18094 531.583 6.28197 531.655 6.36517C531.726 6.43648 531.839 6.51968 531.993 6.61477L533.562 7.63099C534.133 7.99945 534.543 8.39762 534.792 8.82551C535.042 9.24151 535.167 9.78231 535.167 10.4479C535.167 11.5057 534.864 12.3021 534.257 12.8369C533.651 13.3599 532.659 13.6273 531.28 13.6392C530.674 13.6392 530.115 13.6036 529.604 13.5323C529.105 13.4728 528.647 13.3896 528.231 13.2827L528.499 10.858C528.499 10.858 528.719 10.8936 529.159 10.9649C529.598 11.0244 530.181 11.0541 530.906 11.0541C531.559 11.0541 531.886 10.858 531.886 10.4657ZM490.015 22.1124C490.146 21.6251 490.229 21.1377 490.265 20.6504C490.312 20.1631 490.336 19.7531 490.336 19.4203H493.652C493.652 19.8719 493.61 20.4008 493.527 21.007C493.444 21.6013 493.295 22.2075 493.082 22.8255C492.868 23.4436 492.57 24.026 492.19 24.5727L494.74 27.4431H490.193L489.623 26.7835C489.29 27.0568 488.862 27.2708 488.339 27.4253C487.816 27.5679 487.24 27.6392 486.61 27.6392C485.766 27.6392 485.035 27.4491 484.417 27.0687C483.799 26.6765 483.323 26.1773 482.991 25.5711C482.67 24.9649 482.509 24.3291 482.509 23.6635C482.509 23.2475 482.569 22.8315 482.687 22.4155C482.806 21.9876 483.008 21.5953 483.294 21.2388C483.591 20.8822 483.989 20.5969 484.488 20.383C484.274 19.9789 484.108 19.5867 483.989 19.2063C483.882 18.826 483.828 18.4516 483.828 18.0831C483.828 17.2392 484.013 16.5558 484.381 16.0328C484.75 15.498 485.243 15.1117 485.861 14.874C486.491 14.6244 487.198 14.4996 487.983 14.4996C488.422 14.4996 488.874 14.5352 489.338 14.6065C489.801 14.666 490.271 14.7611 490.746 14.8918L490.496 17.6731C490.247 17.578 489.985 17.5007 489.712 17.4413C489.45 17.3819 489.195 17.3521 488.945 17.3521C488.47 17.3521 488.09 17.4472 487.804 17.6374C487.531 17.8157 487.394 18.1069 487.394 18.511C487.394 18.9151 487.656 19.4203 488.179 20.0264L490.015 22.1124ZM487.804 25.0184C487.864 25.0184 487.923 25.0184 487.983 25.0184C488.054 25.0184 488.125 25.0125 488.196 25.0006L485.897 22.2907C485.837 22.5284 485.807 22.7661 485.807 23.0038C485.807 23.5505 485.968 24.026 486.289 24.4301C486.61 24.8223 487.115 25.0184 487.804 25.0184ZM500.179 21.1318C500.179 19.444 500.375 18.1188 500.767 17.156C501.16 16.1814 501.748 15.492 502.532 15.0879C503.329 14.6838 504.315 14.4817 505.492 14.4817C505.872 14.4817 506.306 14.5055 506.793 14.5531C507.293 14.5887 507.774 14.66 508.237 14.767V19.4737H506.08L505.795 17.3165C505.474 17.3165 505.195 17.3581 504.957 17.4413C504.731 17.5126 504.541 17.6731 504.386 17.9227C504.232 18.1723 504.113 18.5526 504.03 19.0637C503.959 19.5748 503.923 20.2582 503.923 21.114C503.923 22.0411 504.024 22.772 504.226 23.3069C504.428 23.8299 504.731 24.2043 505.135 24.4301C505.551 24.644 506.08 24.751 506.722 24.751C507.007 24.751 507.281 24.7332 507.542 24.6975C507.804 24.6619 508.083 24.6203 508.38 24.5727V27.3896C508.035 27.4728 507.619 27.5323 507.132 27.5679C506.645 27.6155 506.211 27.6392 505.831 27.6392C503.798 27.6392 502.348 27.0925 501.48 25.999C500.613 24.9055 500.179 23.2831 500.179 21.1318ZM509.715 17.2095H512.924V27.4609H509.715V17.2095ZM509.626 14.0004H513.013V16.4251H509.626V14.0004ZM516.914 27.6392C516.438 27.6392 515.993 27.5204 515.577 27.2827C515.161 27.0331 514.822 26.6765 514.56 26.2129C514.299 25.7494 514.168 25.1908 514.168 24.5371C514.168 23.5149 514.525 22.7423 515.238 22.2193C515.963 21.6964 516.896 21.4349 518.037 21.4349H518.804V20.4543C518.804 20.1096 518.685 19.8779 518.447 19.759C518.209 19.6283 517.906 19.5629 517.538 19.5629C517.086 19.5629 516.652 19.6045 516.236 19.6877C515.82 19.7709 515.404 19.8897 514.988 20.0443V17.5483C515.523 17.4294 516.076 17.3224 516.646 17.2273C517.229 17.1204 517.811 17.0669 518.393 17.0669C519.047 17.0669 519.647 17.1501 520.194 17.3165C520.741 17.471 521.181 17.7563 521.513 18.1723C521.846 18.5883 522.013 19.1825 522.013 19.9551V27.4609H519.231L519.017 26.6943C518.72 27.0152 518.388 27.2529 518.019 27.4075C517.651 27.562 517.282 27.6392 516.914 27.6392ZM518.162 25.2859C518.399 25.2859 518.613 25.1789 518.804 24.9649V23.1999H518.572C518.215 23.1999 517.912 23.2891 517.663 23.4673C517.413 23.6337 517.288 23.8893 517.288 24.234C517.288 24.5668 517.377 24.8283 517.556 25.0184C517.734 25.1967 517.936 25.2859 518.162 25.2859Z" fill="#444444"/>
<g clip-path="url(#clip0_873_86)">
<path opacity="0.8" fill-rule="evenodd" clip-rule="evenodd" d="M123.228 17.9211C123.228 18.2089 123.12 18.4008 122.904 18.4968C122.688 18.5927 122.364 18.6886 122.04 18.5927H119.988V17.1536H122.148C122.472 17.1536 122.688 17.1536 123.012 17.2495C123.12 17.4414 123.228 17.6333 123.228 17.9211ZM114.48 17.1536H112.32V18.7846H114.588C115.236 18.7846 115.668 18.4968 115.668 17.9211C115.56 17.4414 115.128 17.1536 114.48 17.1536ZM146.341 18.2089C146.989 18.7846 147.205 19.5521 147.205 20.3196C147.205 22.2385 145.801 23.3898 143.317 23.3898H139.969C139.536 23.3898 139.105 23.1019 138.889 22.7182C138.133 23.1979 137.268 23.3898 136.296 23.3898H132.948C132.732 23.3898 132.624 23.3898 132.408 23.2938C132.3 23.3898 132.084 23.3898 131.868 23.3898H126.144C125.928 23.3898 125.82 23.3898 125.604 23.2938C125.388 23.3898 125.28 23.3898 125.064 23.3898H123.336C122.688 23.3898 122.148 22.9101 122.148 22.3344V20.9912H121.176V22.2385C121.176 22.8141 120.636 23.2938 119.988 23.2938H118.26C117.612 23.2938 117.072 22.8141 117.072 22.2385V20.6075C116.316 20.9912 115.344 21.1831 114.48 21.1831H113.508V22.2385C113.508 22.8141 112.968 23.2938 112.32 23.2938H108.972C108.648 23.2938 108.324 23.1979 108.108 22.9101L106.812 21.6628L105.516 22.9101C105.3 23.1019 104.976 23.2938 104.652 23.2938H97.8484C97.2003 23.2938 96.6603 22.8141 96.6603 22.2385V15.8104C96.6603 15.2348 97.2003 14.7551 97.8484 14.7551H104.76C105.084 14.7551 105.408 14.851 105.624 15.1388L106.92 16.3861L108.216 15.1388C108.432 14.947 108.756 14.7551 109.08 14.7551H114.588C115.56 14.7551 116.424 14.9469 117.288 15.3307C117.504 14.9469 117.936 14.7551 118.368 14.7551H122.364C123.228 14.6591 124.2 14.851 124.956 15.1388C125.064 15.1388 125.064 15.2348 125.172 15.3307C125.388 14.9469 125.82 14.7551 126.252 14.7551H131.976C132.408 14.7551 132.84 14.9469 132.948 15.3307C133.596 14.9469 134.46 14.7551 135.216 14.7551H138.672C139.212 14.7551 139.644 15.0429 139.752 15.4267C140.508 14.947 141.372 14.6591 142.237 14.7551H145.693C146.341 14.7551 146.881 15.2348 146.881 15.8104V17.1536C146.881 17.6333 146.665 17.9211 146.341 18.2089C146.341 18.113 146.341 18.113 146.341 18.2089ZM117.396 18.0171C117.396 16.1942 115.884 15.9064 114.48 15.9064H108.972L106.812 18.0171L104.652 15.9064H97.7403V22.3344H104.544L106.704 20.2237L108.864 22.3344H112.212V20.2237H114.372C115.884 20.1278 117.396 19.744 117.396 18.0171ZM123.984 19.2643C124.74 18.9765 125.28 18.3049 125.172 17.5374C125.172 16.9617 124.848 16.3861 124.308 16.0982C123.66 15.8104 122.904 15.7145 122.256 15.8104H118.26V22.2385H119.988V19.9359H121.824C122.472 19.9359 122.796 20.0318 123.12 20.2237C123.444 20.5115 123.444 21.0872 123.444 21.4709V22.2385H125.172V20.9912C125.172 20.6075 125.172 20.1278 124.848 19.8399C124.524 19.5521 124.308 19.4562 123.984 19.2643ZM131.868 15.9064H126.144V22.3344H131.868V20.9912H127.872V19.6481H131.76V18.3049H127.872V17.1536H131.868V15.9064ZM138.996 20.2237C138.996 19.744 138.888 19.2643 138.456 18.8805C137.916 18.4968 137.16 18.3049 136.512 18.4008H135.54C135.324 18.4008 135.108 18.4008 134.892 18.3049C134.568 18.2089 134.46 17.9211 134.568 17.6333C134.568 17.5374 134.676 17.4414 134.784 17.4414C135 17.3455 135.216 17.3455 135.432 17.3455H138.564V16.0023H135.108C133.272 16.0023 132.624 16.9617 132.624 17.9211C132.624 19.9359 134.676 19.8399 136.296 19.9359C136.512 19.9359 136.728 19.9359 136.944 20.0318C137.052 20.1278 137.16 20.3196 137.16 20.4156C137.16 20.6075 137.052 20.7034 136.944 20.7994C136.728 20.8953 136.512 20.9912 136.296 20.9912H132.948V22.3344H136.296C138.024 22.3344 138.996 21.6628 138.996 20.2237ZM146.017 20.2237C146.017 19.744 145.909 19.2643 145.477 18.8805C144.937 18.4968 144.181 18.3049 143.533 18.4008H142.561C142.345 18.4008 142.128 18.4008 141.913 18.3049C141.589 18.2089 141.481 17.9211 141.589 17.6333C141.589 17.5374 141.697 17.4414 141.805 17.4414C142.021 17.3455 142.236 17.3455 142.452 17.3455H145.585V16.0023H142.129C140.293 16.0023 139.645 16.9617 139.645 17.9211C139.645 19.9359 141.697 19.8399 143.317 19.9359C143.533 19.9359 143.749 19.9359 143.965 20.0318C144.073 20.1278 144.181 20.3196 144.181 20.4156C144.181 20.6075 144.073 20.7034 143.965 20.7994C143.749 20.8953 143.533 20.9912 143.317 20.9912H139.969V22.3344H143.317C145.045 22.3344 146.017 21.6628 146.017 20.2237ZM129.276 5.9285L128.088 8.51891H130.464L129.276 5.9285ZM115.56 7.46356C115.776 7.36761 115.884 7.07979 115.884 6.88791C115.884 6.69603 115.776 6.4082 115.56 6.31226C115.344 6.21632 115.02 6.21632 114.696 6.21632H112.536V7.65544H114.588C115.02 7.65544 115.236 7.5595 115.56 7.46356ZM110.592 21.6628V16.482L107.892 18.9765L110.592 21.6628ZM96.8763 12.3565C96.4443 12.3565 96.0123 12.0687 95.7963 11.685L95.5803 11.2053C95.5803 11.7809 95.0403 12.2606 94.3923 12.2606H90.9363C90.5043 12.2606 90.0723 11.9728 89.8563 11.589L89.5323 10.8215H87.5883L87.2643 11.589C87.0483 11.9728 86.6163 12.2606 86.1843 12.2606H84.3483C83.7003 12.2606 83.1603 11.7809 83.1603 11.2053C83.1603 11.1093 83.1603 10.9174 83.2683 10.8215L86.4003 4.39344C86.6163 4.00968 87.0483 3.72186 87.4803 3.72186H89.6403C90.0723 3.72186 90.5043 4.00968 90.7203 4.39344L91.3683 5.73662V4.77721C91.3683 4.20156 91.9083 3.72186 92.5563 3.72186H95.3643C95.7963 3.72186 96.2283 4.00968 96.4444 4.2975L97.5244 6.50415L98.4963 4.39344C98.7123 4.00968 99.1443 3.72186 99.5764 3.72186H102.6C102.816 3.72186 103.032 3.8178 103.248 3.91374C103.464 3.8178 103.68 3.72186 103.896 3.72186H109.62C109.836 3.72186 110.052 3.8178 110.268 3.91374C110.484 3.8178 110.7 3.72186 110.916 3.72186H114.912C115.884 3.62592 116.748 3.8178 117.612 4.20156C117.72 4.20156 117.72 4.2975 117.828 4.39344C118.044 4.00968 118.476 3.8178 118.908 3.8178H120.636C121.176 3.8178 121.716 4.20156 121.824 4.68127C122.688 4.00968 123.876 3.72186 125.064 3.8178H126.684C126.9 3.8178 127.224 3.91374 127.44 4.00968C127.656 3.91374 127.872 3.8178 128.196 3.8178H130.788C131.22 3.8178 131.652 4.10562 131.868 4.48939L132.516 5.83256V4.87315C132.516 4.2975 133.056 3.8178 133.704 3.8178H136.296C136.728 3.8178 137.052 4.00968 137.268 4.2975L138.132 5.54474V4.87315C138.132 4.2975 138.673 3.8178 139.32 3.8178H141.049C141.697 3.8178 142.237 4.2975 142.237 4.87315V11.3012C142.237 11.8768 141.697 12.3565 141.049 12.3565H138.564C138.132 12.3565 137.808 12.1647 137.592 11.8768L136.512 10.3418V11.3971C136.512 11.9728 135.972 12.4525 135.324 12.4525H131.76C131.328 12.4525 130.896 12.1647 130.68 11.7809L130.356 11.0134H128.412L128.088 11.7809C127.872 12.1647 127.44 12.4525 127.008 12.4525H124.956C123.876 12.4525 122.688 12.1647 121.824 11.589C121.716 12.0687 121.284 12.4525 120.636 12.4525H118.8C118.584 12.4525 118.476 12.4525 118.26 12.3565C118.044 12.4525 117.936 12.4525 117.72 12.4525H115.992C115.344 12.4525 114.804 11.9728 114.804 11.3971V10.2458H113.832V11.4931C113.832 12.0687 113.292 12.5484 112.644 12.5484H110.916C110.7 12.5484 110.484 12.4525 110.268 12.3565C110.052 12.4525 109.836 12.5484 109.62 12.5484H103.896C103.68 12.5484 103.464 12.4525 103.248 12.3565C103.032 12.4525 102.816 12.5484 102.6 12.5484H100.872C100.224 12.5484 99.6844 12.0687 99.6844 11.4931L99.4684 11.9728C99.2523 12.3565 98.8204 12.6444 98.3884 12.6444L96.8763 12.3565ZM121.392 8.13514C121.284 8.99861 121.608 9.95802 122.364 10.5337C123.12 11.0134 123.984 11.3012 124.848 11.2053H126.9L127.548 9.76614H131.112L131.76 11.2053H135.216V6.4082L138.456 11.2053H140.941V4.87315H139.212V9.28643L136.188 4.87315H133.596V10.9174L130.68 4.87315H128.088L125.604 9.86208H124.848C124.416 9.86208 123.984 9.76614 123.66 9.57426C123.336 9.09455 123.12 8.61485 123.228 8.0392C123.228 7.5595 123.336 6.98385 123.768 6.60009C124.092 6.31226 124.632 6.12038 125.064 6.21632H126.684V4.87315H125.064C124.092 4.77721 123.12 5.06503 122.472 5.64068C121.608 6.31226 121.284 7.17573 121.392 8.13514ZM124.956 7.27167C124.524 7.27167 124.524 7.27167 124.416 7.36761C124.308 7.5595 124.308 7.84732 124.308 8.0392C124.308 8.32702 124.308 8.51891 124.416 8.80673H124.74L125.496 7.27167H124.956ZM118.8 4.87315V11.3012H120.528V4.87315H118.8ZM110.808 11.3012H112.536V8.90267H114.372C114.804 8.80673 115.236 8.90267 115.668 9.19049C115.884 9.57426 115.992 10.054 115.992 10.4377V11.2053H117.72V9.95802C117.828 9.57426 117.72 9.09455 117.396 8.80673C117.18 8.51891 116.856 8.42297 116.532 8.23108C117.288 7.94326 117.72 7.27167 117.72 6.50415C117.72 5.9285 117.396 5.35285 116.856 5.06503C116.208 4.77721 115.452 4.68127 114.804 4.77721H110.808V11.3012ZM103.896 4.87315V11.3012H109.62V9.95802H105.624V8.61485H109.512V7.36761H105.624V6.21632H109.62V4.87315H103.896ZM96.8763 11.3012H98.3884L100.872 6.21632V11.2053H102.6V4.87315H99.6844L97.6323 9.19049L95.3643 4.87315H92.5563V10.9174L89.6403 4.87315H87.0483L83.9163 11.3012H85.7523L86.4003 9.86208H89.9643L90.6123 11.3012H94.0683V6.21632L96.8763 11.3012ZM99.4684 17.2495V18.4008H103.248V19.6481H99.4684V20.8953H103.68L105.624 18.9765L103.788 17.1536H99.4684V17.2495ZM87.1563 8.51891H89.5323L88.3443 5.9285L87.1563 8.51891ZM196.561 18.2089C195.157 17.1536 194.077 15.9064 193.321 14.4672C192.997 13.7957 192.673 13.0281 192.457 12.2606C192.241 11.4931 192.133 10.6296 192.241 9.86208C192.349 7.07979 193.645 4.48939 195.805 2.57057L196.345 2.09086L196.453 1.99492C194.941 1.03551 193.105 0.555806 191.269 0.459865C185.221 0.076101 180.037 4.10562 179.497 9.38237V10.1499C179.497 12.0687 180.145 13.8916 181.333 15.5226C184.789 19.9359 191.485 21.1831 196.561 18.2089ZM198.613 25.0208V25.3086H196.453C196.453 25.6923 196.885 25.9802 197.317 25.9802C197.641 25.9802 197.965 25.8842 198.181 25.6923L198.505 26.0761C198.181 26.3639 197.749 26.4599 197.317 26.4599C196.453 26.4599 195.805 25.8842 195.805 25.1167C195.805 24.3492 196.453 23.7735 197.317 23.7735C197.965 23.7735 198.613 24.3492 198.613 25.0208ZM197.965 24.9248C197.965 24.541 197.641 24.2532 197.209 24.3492C196.777 24.3492 196.453 24.637 196.453 24.9248H197.965ZM202.825 24.2532C203.149 24.2532 203.365 24.3492 203.581 24.4451L203.905 23.9654C203.581 23.7735 203.257 23.6776 202.825 23.6776H202.717C201.961 23.6776 201.313 24.3492 201.313 25.0208V25.1167C201.313 25.7883 202.069 26.3639 202.825 26.3639C203.149 26.3639 203.581 26.268 203.905 26.0761L203.581 25.5964C203.365 25.7883 203.149 25.7883 202.825 25.7883C202.393 25.7883 201.961 25.4045 201.961 25.0208C201.853 24.7329 202.285 24.3492 202.825 24.2532ZM200.665 23.7735C200.341 23.7735 200.017 23.8695 199.909 24.1573V23.8695H199.261V26.3639H199.909V24.9248C199.909 24.541 200.125 24.2532 200.557 24.2532C200.665 24.2532 200.773 24.2532 200.989 24.3492L201.205 23.8695C200.989 23.7735 200.773 23.7735 200.665 23.7735ZM208.549 24.1573V23.8695H207.901V26.3639H208.549V24.9248C208.549 24.541 208.765 24.2532 209.197 24.2532C209.305 24.2532 209.413 24.2532 209.629 24.3492L209.845 23.8695C209.737 23.8695 209.521 23.7735 209.413 23.7735C208.981 23.7735 208.765 23.8695 208.549 24.1573ZM212.329 22.8141H212.977V26.3639H212.329V26.0761C212.113 26.3639 211.789 26.4599 211.465 26.4599C210.601 26.4599 209.953 25.8842 209.953 25.1167C209.953 24.3492 210.601 23.7735 211.465 23.7735C211.789 23.7735 212.113 23.8695 212.329 24.1573V22.8141ZM212.329 25.2126C212.329 24.8289 212.005 24.4451 211.465 24.3492C211.033 24.3492 210.601 24.637 210.601 25.1167C210.601 25.5005 210.925 25.8842 211.465 25.9802C211.897 25.9802 212.329 25.5964 212.329 25.2126ZM206.497 23.8695H207.145V26.3639H206.497V26.0761C206.281 26.3639 205.957 26.4599 205.633 26.4599C204.769 26.4599 204.121 25.8842 204.121 25.1167C204.121 24.3492 204.769 23.7735 205.633 23.7735C205.957 23.7735 206.281 23.8695 206.497 24.1573V23.8695ZM206.497 25.2126C206.497 24.8289 206.173 24.4451 205.633 24.3492C205.201 24.3492 204.769 24.637 204.769 25.1167C204.769 25.5005 205.093 25.8842 205.633 25.9802C206.065 25.9802 206.497 25.5964 206.497 25.2126ZM197.965 2.09086C197.965 2.09086 197.965 2.1868 198.073 2.28274C199.369 3.24215 200.449 4.48939 201.205 5.9285C202.069 7.65544 202.393 9.57426 202.177 11.3971C202.069 12.2606 201.853 13.1241 201.529 13.8916C200.989 15.1388 200.233 16.1942 199.261 17.1536C198.937 17.5374 198.505 17.8252 198.073 18.2089L197.965 18.3049C201.637 20.4156 206.389 20.4156 209.953 18.3049C215.029 15.3307 216.325 9.38237 213.085 4.87315C209.737 0.363924 202.933 -0.883309 197.965 2.09086ZM194.725 25.8842C194.401 25.8842 194.293 25.6923 194.293 25.5005V24.3492H195.265V23.8695H194.293V23.1019H193.645V23.8695H193.105V24.3492H193.645V25.5005C193.645 26.0761 193.861 26.4599 194.617 26.4599C194.941 26.4599 195.157 26.3639 195.373 26.268L195.157 25.7883C195.049 25.8842 194.833 25.8842 194.725 25.8842ZM192.997 10.1499C192.997 13.1241 194.509 16.0023 197.209 17.8252C197.209 17.8252 197.317 17.8252 197.317 17.7292C199.801 15.9064 201.313 13.22 201.421 10.3418C201.421 9.76614 201.421 9.09455 201.205 8.51891C200.989 7.65544 200.773 6.79197 200.233 5.9285C199.585 4.68127 198.505 3.52998 197.317 2.57057C197.317 2.57057 197.209 2.47463 197.101 2.47463C194.617 4.39344 192.997 7.17573 192.997 10.1499ZM188.785 23.8695H189.433V26.3639H188.785V26.0761C188.569 26.3639 188.245 26.4599 187.921 26.4599C187.057 26.4599 186.409 25.8842 186.409 25.1167C186.409 24.3492 187.057 23.7735 187.921 23.7735C188.245 23.7735 188.569 23.8695 188.785 24.1573V23.8695ZM188.893 25.2126C188.893 24.8289 188.569 24.4451 188.029 24.3492C187.597 24.3492 187.165 24.637 187.165 25.1167C187.165 25.5005 187.489 25.8842 188.029 25.9802C188.461 25.9802 188.893 25.5964 188.893 25.2126ZM185.977 24.637C185.977 24.1573 185.437 23.6776 184.897 23.7735C184.465 23.7735 184.141 23.9654 183.925 24.2532C183.709 23.9654 183.385 23.7735 182.953 23.7735C182.629 23.7735 182.305 23.8695 182.089 24.1573V23.8695H181.441V26.3639H182.089V24.8289C182.089 24.541 182.413 24.2532 182.845 24.2532C183.277 24.2532 183.493 24.4451 183.493 24.9248V26.3639H184.141V24.8289C184.141 24.541 184.465 24.2532 184.897 24.2532C185.329 24.2532 185.545 24.4451 185.545 24.9248V26.3639H186.193V24.7329C185.977 24.7329 185.977 24.7329 185.977 24.637ZM191.593 24.8289H191.269C190.945 24.8289 190.729 24.7329 190.729 24.541C190.729 24.3492 190.945 24.2532 191.269 24.2532C191.593 24.2532 191.917 24.3492 192.133 24.4451L192.457 23.9654C192.133 23.7735 191.701 23.6776 191.269 23.6776C190.513 23.6776 190.081 23.9654 190.081 24.541C190.081 24.9248 190.405 25.2126 191.053 25.3086H191.377C191.701 25.3086 191.917 25.4045 191.917 25.5964C191.917 25.7883 191.701 25.8842 191.269 25.8842C190.945 25.8842 190.621 25.7883 190.297 25.5964L189.973 26.0761C190.297 26.268 190.729 26.4599 191.269 26.3639C192.133 26.3639 192.565 25.9802 192.565 25.5005C192.673 25.2126 192.241 24.9248 191.593 24.8289ZM308.017 7.07979H308.557V8.42297H308.881V7.07979H309.421V6.88791H308.017V7.07979ZM310.933 6.79197L310.501 7.84732C310.393 8.0392 310.393 8.0392 310.393 8.13514C310.285 8.0392 310.285 8.0392 310.285 7.94326L309.853 6.88791H309.529V8.32702H309.637V6.98385L310.177 8.32702H310.501L311.041 6.98385V8.32702H311.257V6.79197H310.933ZM277.561 9.19049L274.213 14.3713L273.673 9.19049H270.325L271.729 18.3049L269.353 22.2385H273.133L281.125 9.19049H277.561ZM268.921 12.4525L267.409 18.4968H264.061L264.277 17.4414C262.549 19.0724 258.013 18.9765 258.769 15.3307C259.309 13.1241 261.793 12.4525 265.465 12.4525C265.681 11.3971 264.925 11.2053 263.737 11.2053C262.657 11.3012 261.577 11.4931 260.497 11.8768L260.821 9.76614C262.009 9.47832 263.305 9.28643 264.601 9.19049C266.869 9.09455 269.461 9.95802 268.921 12.4525ZM265.033 14.851H264.169C263.521 14.851 262.549 14.851 262.225 15.4267C261.685 16.1942 262.333 16.5779 263.089 16.5779C263.953 16.482 264.601 16.1942 264.817 15.4267C264.817 15.1388 264.925 14.7551 265.033 14.851ZM259.633 11.1093C259.201 13.316 257.041 14.851 254.557 14.7551H251.965L250.993 18.4968H247.321L250.021 6.4082H256.285C258.013 6.4082 260.281 8.42297 259.633 11.1093ZM256.177 10.6296C256.393 10.054 256.069 9.47832 255.421 9.28643C255.205 9.19049 255.097 9.19049 254.881 9.19049H253.153L252.397 11.9728H254.125C255.097 11.9728 255.961 11.3971 256.177 10.6296ZM301.537 12.4525L300.025 18.4968H296.677L296.893 17.4414C295.165 19.0724 290.521 18.9765 291.277 15.3307C291.817 13.1241 294.301 12.4525 298.081 12.4525C298.297 11.3971 297.541 11.2053 296.353 11.2053C295.273 11.3012 294.193 11.4931 293.113 11.8768L293.437 9.76614C294.733 9.47832 296.029 9.28643 297.325 9.19049C299.485 9.09455 301.969 9.95802 301.537 12.4525ZM297.649 14.851H296.785C296.029 14.851 295.057 14.851 294.733 15.4267C294.301 16.1942 294.949 16.5779 295.705 16.5779C296.569 16.482 297.325 16.1942 297.433 15.4267C297.433 15.1388 297.541 14.7551 297.649 14.851ZM292.141 11.1093C291.709 13.316 289.549 14.851 287.065 14.7551H284.473L283.501 18.4968H279.829L282.529 6.4082H288.685C290.521 6.4082 292.681 8.42297 292.141 11.1093ZM288.577 10.6296C288.793 10.054 288.469 9.47832 287.821 9.28643C287.605 9.19049 287.497 9.19049 287.281 9.19049H285.553L284.797 11.9728H286.417C287.497 11.9728 288.361 11.3971 288.577 10.6296ZM301.645 18.4968H304.993L307.801 6.4082H304.345L301.645 18.4968ZM50.4362 18.0171C50.2202 18.113 50.2202 18.113 50.1122 18.113H46.6562C46.5482 17.4414 46.3322 16.7698 46.2242 16.1942C46.2242 16.0982 46.2242 16.0982 46.1162 16.0982H41.0401C40.9321 16.0982 40.9321 16.0982 40.9321 16.1942C40.9321 16.2901 40.8241 16.482 40.8241 16.5779C40.7161 16.8658 40.6081 17.1536 40.5001 17.3455C40.3921 17.6333 40.2841 17.8252 40.1761 18.113C40.1761 18.2089 40.0681 18.2089 40.0681 18.2089H35.8561V18.113C36.0721 17.5374 36.3961 16.9617 36.6121 16.3861C36.8281 15.9064 37.0441 15.4267 37.2601 15.0429L37.8001 13.8916C37.8001 13.7957 37.9081 13.6997 37.9081 13.6997L38.4481 12.5484C38.5561 12.3565 38.6641 12.1647 38.6641 11.9728L39.0961 11.1093C39.0961 11.0134 39.0961 11.0134 39.2041 10.9174L39.7441 9.6702C39.7441 9.6702 39.7441 9.57426 39.8521 9.57426L40.3921 8.51891C40.3921 8.42296 40.5001 8.32702 40.5001 8.23108L41.0401 7.07979C41.0401 6.98385 41.1481 6.98385 41.1481 6.88791L41.9041 5.25691C42.0121 4.87315 42.3362 4.58533 42.6602 4.39344H42.7682C42.9842 4.2975 43.3082 4.20156 43.6322 4.20156H47.3042C47.4122 4.20156 47.4122 4.20156 47.4122 4.2975C47.8442 5.9285 48.1682 7.65544 48.6002 9.28643L49.8962 15.0429C50.0042 15.5226 50.1122 15.9064 50.2202 16.3861C50.2202 16.7698 50.3282 17.3455 50.4362 18.0171ZM45.4682 13.1241C45.3602 12.9322 45.3602 12.6444 45.2522 12.4525C44.9282 11.2053 44.6042 9.86208 44.3882 8.61485V8.32702C44.3882 8.13514 44.2802 8.0392 44.2802 7.94326C44.0642 8.42297 43.9562 8.80673 43.7402 9.28643V9.47832L43.0922 11.2053V11.3971C42.9842 11.685 42.7682 12.0687 42.6602 12.3565V12.5484C42.5522 12.7403 42.5522 12.9322 42.4441 13.1241C42.4441 13.22 42.4442 13.22 42.5522 13.22H45.4682C45.3602 13.0281 45.4682 13.0281 45.4682 13.1241ZM17.7121 6.98385C17.8201 6.79197 17.9281 6.60009 17.9281 6.50415C18.1441 6.21632 18.2521 5.9285 18.3601 5.64068C18.4681 5.54474 18.4681 5.4488 18.5761 5.25691C18.5761 5.16097 18.6841 5.06503 18.6841 4.96909L19.1161 4.00968H14.7961L14.6881 4.2975L14.3641 4.87315C14.3641 5.25691 14.1481 5.54474 14.0401 5.83256C13.932 6.12038 13.716 6.40821 13.608 6.69603C13.5 6.98385 13.392 7.27167 13.284 7.46356L12.636 8.90267C12.636 8.99861 12.528 9.09455 12.528 9.19049L12.096 10.2458L11.448 11.685C11.448 11.7809 11.34 11.7809 11.34 11.8768L10.8 13.22L10.692 13.5078V13.4119C10.584 13.1241 10.584 12.7403 10.476 12.4525C10.368 12.1647 10.368 11.9728 10.26 11.685V11.589L10.044 10.4377L9.39603 7.5595C9.18003 6.98385 9.07203 6.21632 8.85603 5.44879C8.74803 4.58533 7.99203 4.00968 7.02003 4.00968H0.108C0.108 4.20156 0 4.2975 0 4.39344V4.48939L0.648002 4.58533C1.188 4.68127 1.72801 4.87315 2.26801 4.96909L2.70001 5.16097C3.24001 5.35285 3.78001 5.54474 4.21202 5.73662C4.32002 5.83256 4.53602 5.9285 4.64402 6.12038C4.75202 6.31226 4.96802 6.60009 4.96802 6.88791C5.18402 7.65544 5.40002 8.42296 5.72402 9.28643L7.45203 15.0429C7.77603 16.0023 7.99203 16.9617 8.31603 17.9211C8.31603 17.9211 8.31603 18.0171 8.42403 18.0171H12.744C12.744 17.9211 12.852 17.8252 12.852 17.6333C12.96 17.4414 12.96 17.3455 13.068 17.1536C13.176 16.8658 13.392 16.5779 13.5 16.1942L14.1481 14.851V14.7551L14.7961 13.5078L15.1201 12.9322C15.2281 12.6444 15.3361 12.3565 15.5521 12.0687C15.6601 11.8768 15.7681 11.685 15.7681 11.589C15.8761 11.3012 16.0921 11.0134 16.2001 10.7255V10.6296L16.3081 10.5337V10.4377L16.7401 9.09455C16.8481 8.80673 17.0641 8.51891 17.1721 8.23108C17.3881 7.84732 17.6041 7.36761 17.7121 6.98385ZM24.9481 4.00968H20.8441V4.20156L20.5201 5.64068C20.4121 5.9285 20.4121 6.12038 20.3041 6.4082L19.9801 7.84732C19.9801 7.94326 19.8721 8.13514 19.8721 8.23108C19.8721 8.42297 19.7641 8.51891 19.7641 8.71079L19.4401 10.2458C19.4401 10.3418 19.3321 10.5337 19.3321 10.6296L19.1161 11.685C19.0081 12.0687 18.9001 12.5484 18.7921 12.9322L18.5761 13.8916C18.5761 14.0835 18.4681 14.2754 18.4681 14.4672L18.1441 15.8104C18.1441 15.9064 18.0361 16.0023 18.0361 16.0982L17.6041 17.8252V17.9211H21.7081V17.7292C21.8161 17.4414 21.8161 17.1536 21.9241 16.7698C21.9241 16.5779 22.0321 16.3861 22.0321 16.1942L22.3561 14.7551L22.4641 14.3713L22.5721 13.9875V13.7957L22.8961 12.5484C23.0041 12.0687 23.1121 11.4931 23.2201 11.0134C23.3281 10.8215 23.3281 10.5337 23.4361 10.3418C23.5441 9.6702 23.7601 9.09455 23.8681 8.42297C23.9761 8.13514 23.9761 7.75138 24.0841 7.46356C24.3001 6.60009 24.5161 5.64068 24.7321 4.77721C24.8401 4.58533 24.9481 4.2975 24.9481 4.00968ZM34.9921 11.1093C34.3441 10.5337 33.5881 10.054 32.8321 9.76614C32.2921 9.47832 31.7521 9.28643 31.2121 8.99861H31.1041C30.8881 8.90267 30.6721 8.71079 30.5641 8.51891C30.3481 8.32702 30.3481 8.13514 30.3481 7.84732C30.3481 7.75138 30.4561 7.5595 30.5641 7.46356C30.7801 7.17573 31.2121 6.98385 31.5361 6.88791C31.7521 6.79197 32.0761 6.79197 32.2921 6.79197H33.9121C34.2361 6.79197 34.5601 6.88791 34.8841 6.98385C35.2081 7.07979 35.6401 7.17573 35.9641 7.36761H36.0721L36.2881 6.60009C36.3961 6.31226 36.3961 6.12038 36.5041 5.83256C36.6121 5.35285 36.7201 4.87315 36.7201 4.48939C36.7201 4.39344 36.7201 4.39344 36.6121 4.39344C36.5041 4.39344 36.5041 4.2975 36.3961 4.2975L35.1001 4.00968H34.9921C34.3441 3.91374 33.6961 3.8178 33.0481 3.8178H31.9681C31.7521 3.8178 31.6441 3.8178 31.4281 3.91374C30.9961 3.91374 30.6721 4.00968 30.3481 4.10562C30.0241 4.20156 29.5921 4.2975 29.1601 4.48939C28.8361 4.58533 28.5121 4.77721 28.1881 4.96909C27.8641 5.16097 27.5401 5.4488 27.2161 5.73662C27.1081 5.83256 27.1081 5.9285 27.0001 5.9285C26.7841 6.21632 26.5681 6.50415 26.4601 6.79197V6.88791C26.2441 7.27167 26.1361 7.75138 26.1361 8.13514C26.0281 8.61485 26.1361 9.19049 26.3521 9.6702C26.5681 10.2458 27.0001 10.6296 27.4321 11.0134C27.7561 11.3012 28.1881 11.589 28.6201 11.7809C28.9441 11.9728 29.2681 12.0687 29.5921 12.2606C29.7001 12.3565 29.9161 12.3565 30.0241 12.4525C30.2401 12.5484 30.3481 12.6444 30.5641 12.7403C30.7801 12.8362 31.1041 13.0281 31.3201 13.22C31.5361 13.4119 31.6441 13.6038 31.7521 13.8916V14.0835C31.7521 14.2754 31.6441 14.5632 31.4281 14.7551C31.2121 14.9469 30.9961 15.0429 30.7801 15.1388C30.6721 15.2348 30.4561 15.2348 30.3481 15.2348C29.9161 15.3307 29.4841 15.3307 29.1601 15.3307H28.6201C28.1881 15.3307 27.7561 15.2348 27.2161 15.1388C27.0001 15.1388 26.7841 15.0429 26.5681 15.0429C26.3521 14.9469 26.1361 14.9469 25.9201 14.851C25.5961 14.7551 25.3801 14.6591 25.0561 14.5632C25.0561 14.5632 24.9481 14.4672 24.9481 14.5632C24.8401 14.851 24.8401 15.1388 24.7321 15.4267C24.5161 16.0982 24.4081 16.8658 24.1921 17.5374V17.6333C24.5161 17.7292 24.9481 17.9211 25.3801 18.0171C25.4881 18.0171 25.7041 18.113 25.8121 18.113C25.9201 18.113 26.0281 18.2089 26.1361 18.2089C26.4601 18.3049 26.7841 18.3049 27.1081 18.3049H29.7001C30.0241 18.3049 30.4561 18.2089 30.7801 18.2089C30.9961 18.2089 31.2121 18.113 31.3201 18.113C31.7521 18.0171 32.0761 17.9211 32.5081 17.8252C32.7241 17.7292 33.0481 17.6333 33.2641 17.4414H33.3721C33.6961 17.2495 34.0201 17.0577 34.2361 16.8658C34.5601 16.5779 34.8841 16.2901 35.1001 15.9064C35.6401 15.1388 35.8561 14.2754 35.7481 13.4119C35.9641 12.4525 35.6401 11.685 34.9921 11.1093Z" fill="black"/>
</g>
<defs>
<clipPath id="clip0_873_86">
<rect width="311.257" height="26" fill="white" transform="translate(0 0.460938)"/>
</clipPath>
</defs>
</svg>
