<svg width="22" height="22" viewBox="0 0 22 22" fill="none" xmlns="http://www.w3.org/2000/svg">
<path d="M21.9935 11C21.9935 4.92487 17.0701 0 10.9968 0C4.92342 0 0 4.92487 0 11C0 17.0751 4.92342 22 10.9968 22C17.0701 22 21.9935 17.0751 21.9935 11Z" fill="black"/>
<path d="M17.9209 8.72314C17.8344 7.88757 17.6481 6.96389 16.9627 6.47847C16.4319 6.10204 15.7341 6.08812 15.0827 6.08889C13.7056 6.08889 12.3279 6.09122 10.9509 6.09199C9.62639 6.09353 8.30192 6.09431 6.97746 6.09585C6.42418 6.09585 5.88636 6.05334 5.37249 6.29296C4.93126 6.49856 4.58585 6.88968 4.37798 7.32486C4.08975 7.93009 4.02948 8.6157 3.99471 9.28509C3.93057 10.504 3.93753 11.7261 4.01403 12.9443C4.07044 13.8332 4.21339 14.8156 4.90035 15.3822C5.50927 15.8839 6.36854 15.9086 7.15828 15.9094C9.66502 15.9117 12.1725 15.914 14.6801 15.9155C15.0015 15.9163 15.3369 15.9101 15.6645 15.8746C16.309 15.805 16.9233 15.6203 17.3375 15.1426C17.7555 14.661 17.863 13.9909 17.9263 13.3563C18.0809 11.8165 18.0793 10.2621 17.9209 8.72314ZM9.50121 13.1607V8.84373L13.2382 11.0018L9.50121 13.1607Z" fill="#FBFBFB"/>
</svg>
