<svg width="1077" height="279" viewBox="0 0 1077 279" fill="none" xmlns="http://www.w3.org/2000/svg">
<path d="M18.6928 277.457C5.54397 277.457 -3.11429 270.656 1.05554 256.693L71.2842 17.5422C83.79 12.1717 104.635 9.6665 113.935 9.6665C128.365 9.6665 134.778 14.3204 142.795 42.9621L206.29 264.569C199.876 269.223 183.201 277.457 167.808 277.457C158.187 277.457 149.208 275.31 145.04 257.767L134.137 214.449H50.4399L34.0853 274.594C29.2749 276.384 23.1815 277.457 18.6928 277.457ZM125.799 180.794L94.3727 54.4182L59.7396 180.794H125.799Z" fill="#FCA11D"/>
<path d="M229.066 182.943C229.066 113.846 264.02 81.9845 306.029 81.9845C324.307 81.9845 339.38 88.4285 351.245 98.8114C350.924 61.9355 350.283 29.715 349.32 10.383C357.659 4.65392 371.768 0 383.954 0C399.988 0 405.118 7.16086 405.118 24.7029C405.118 45.8253 403.836 88.4285 403.836 147.859V223.041C403.836 237.361 407.363 250.249 419.549 252.754C414.739 268.866 400.309 278.532 384.274 278.532C365.034 278.532 355.413 264.21 353.81 246.31L353.49 243.805C341.944 266 322.063 278.532 298.332 278.532C257.927 278.532 229.066 245.595 229.066 182.943ZM318.215 243.088C338.418 243.088 351.566 224.831 351.566 202.275V126.378C344.511 120.649 333.607 115.995 321.742 115.995C301.218 115.995 283.902 129.6 283.902 179.006C283.902 220.534 296.408 243.088 318.215 243.088Z" fill="#43BCFF"/>
<path d="M444.567 180.437C444.567 122.797 479.843 81.9839 535.641 81.9839C592.401 81.9839 626.392 122.797 626.392 180.437C626.392 238.077 592.401 278.531 535.641 278.531C479.843 278.531 444.567 238.075 444.567 180.437ZM571.878 180.437C571.878 131.389 557.127 113.131 535.642 113.131C515.118 113.131 499.405 131.389 499.405 180.437C499.405 229.484 515.118 247.385 535.642 247.385C557.127 247.385 571.878 229.484 571.878 180.437Z" fill="#8AD83F"/>
<path d="M666.486 213.016V118.5L648.528 119.217C645.962 104.18 647.246 96.6631 652.696 93.4409C655.903 91.2922 661.675 92.3655 665.844 92.0091C674.184 75.5407 690.859 50.1208 699.516 38.6645C705.931 37.5911 714.268 37.9496 719.72 38.6645C720.04 46.5402 720.362 61.9356 719.72 91.2922C737.678 91.6507 752.749 91.2922 763.654 90.5773C764.936 92.724 765.897 96.663 765.897 99.5264C765.897 111.7 759.805 118.858 748.903 118.858L719.078 118.5V193.684C719.078 231.99 726.454 242.731 744.412 242.731C753.391 242.731 759.163 240.583 763.012 237.361C761.409 252.754 748.261 278.174 718.758 278.174C672.9 278.174 666.486 239.509 666.486 213.016Z" fill="#FCA11D"/>
<path d="M783.222 183.301C783.222 120.29 823.307 81.9839 876.54 81.9839C920.152 81.9839 943.241 108.477 943.241 139.98C943.241 186.881 893.214 199.769 839.342 192.967C843.51 223.755 859.543 238.433 884.877 238.433C906.043 238.433 919.832 228.409 931.055 211.584C936.827 215.521 939.392 222.323 939.392 229.126C939.392 252.753 910.531 278.531 868.202 278.531C818.176 278.531 783.222 242.372 783.222 183.301ZM895.46 136.759C895.46 122.08 887.765 113.131 873.975 113.131C853.13 113.131 838.378 133.536 838.058 173.993C877.822 172.203 895.46 158.239 895.46 136.759Z" fill="#43BCFF"/>
<path d="M993.987 194.392L948.772 194.751C944.923 174.702 945.245 157.877 960.316 157.16L993.987 156.443L994.629 118.852C995.591 100.595 1011.95 100.951 1029.58 104.532L1029.26 156.801L1075.76 157.159C1078.97 180.072 1076.72 194.75 1059.73 194.75L1029.26 194.392L1029.58 230.551C1029.9 248.81 1015.15 251.674 994.629 247.378L993.987 194.392Z" fill="#8AD83F"/>
</svg>
