<svg width="68" height="60" viewBox="0 0 68 60" fill="none" xmlns="http://www.w3.org/2000/svg">
<rect width="68" height="60" rx="10" fill="#FCA11D"/>
<path fill-rule="evenodd" clip-rule="evenodd" d="M40.27 10.8704C42.1079 9.03252 44.6006 8 47.1998 8C49.799 8 52.2917 9.03252 54.1296 10.8704C55.9675 12.7083 57 15.201 57 17.8002C57 20.3994 55.9675 22.8921 54.1296 24.73L34.2757 44.5839C33.1413 45.7183 32.4758 46.3838 31.7307 46.9636C30.8544 47.6501 29.9126 48.2326 28.9052 48.7112C28.0554 49.1152 27.1596 49.4145 25.6401 49.921L18.6664 52.2441L16.9878 52.8051C16.3202 53.0279 15.6037 53.0604 14.9187 52.8989C14.2337 52.7373 13.6072 52.3881 13.1096 51.8904C12.6119 51.3928 12.2627 50.7663 12.1011 50.0813C11.9396 49.3963 11.9721 48.6798 12.1949 48.0122L15.079 39.3619C15.5855 37.8404 15.8848 36.9446 16.2888 36.0927C16.7688 35.0881 17.3513 34.1463 18.0364 33.2672C18.6141 32.5263 19.2817 31.8587 20.4161 30.7243L40.27 10.8704ZM18.5931 48.9624L24.5392 46.9782C26.1948 46.4257 26.898 46.1892 27.5531 45.8773C28.3512 45.495 29.0998 45.0325 29.7989 44.4897C30.3702 44.0418 30.8977 43.5207 32.1325 42.2858L47.9763 26.4421C45.804 25.6723 43.8321 24.425 42.206 22.7919C40.5744 21.1654 39.3285 19.1935 38.56 17.0216L22.7163 32.8654C21.4814 34.0981 20.9582 34.6235 20.5124 35.1969C19.9682 35.8946 19.5057 36.6432 19.1247 37.4427C18.8129 38.0978 18.5764 38.801 18.0238 40.4566L16.0397 46.4069L18.5931 48.9624ZM41.103 14.4745C41.1762 14.8408 41.2955 15.3389 41.4985 15.9187C42.1108 17.6706 43.1127 19.2607 44.4287 20.5692C45.7366 21.8849 47.326 22.8868 49.0772 23.4994C49.659 23.7024 50.1571 23.8217 50.5234 23.8949L51.9089 22.5094C53.1507 21.2589 53.8462 19.5673 53.8431 17.8051C53.84 16.0428 53.1386 14.3536 51.8925 13.1075C50.6464 11.8614 48.9572 11.16 47.1949 11.1569C45.4327 11.1538 43.7411 11.8493 42.4906 13.0911L41.103 14.4745Z" fill="#FBFBFB"/>
</svg>
