<svg width="45" height="45" viewBox="0 0 45 45" fill="none" xmlns="http://www.w3.org/2000/svg">
<path fill-rule="evenodd" clip-rule="evenodd" d="M28.27 2.87042C30.1079 1.03252 32.6006 0 35.1998 0C37.799 0 40.2917 1.03252 42.1296 2.87042C43.9675 4.70832 45 7.20104 45 9.80023C45 12.3994 43.9675 14.8921 42.1296 16.73L22.2757 36.5839C21.1413 37.7183 20.4758 38.3838 19.7307 38.9636C18.8544 39.6501 17.9126 40.2326 16.9052 40.7112C16.0554 41.1152 15.1596 41.4145 13.6401 41.921L6.66638 44.2441L4.98783 44.8051C4.32023 45.0279 3.60375 45.0604 2.91872 44.8989C2.2337 44.7373 1.60723 44.3881 1.10956 43.8904C0.611886 43.3928 0.262696 42.7663 0.101146 42.0813C-0.0604043 41.3963 -0.0279265 40.6798 0.194937 40.0122L3.07904 31.3619C3.58554 29.8404 3.88483 28.9446 4.28878 28.0927C4.76876 27.0881 5.3513 26.1463 6.0364 25.2672C6.61406 24.5263 7.28172 23.8587 8.4161 22.7243L28.27 2.87042ZM6.59313 40.9624L12.5392 38.9782C14.1948 38.4257 14.898 38.1892 15.5531 37.8773C16.3512 37.495 17.0998 37.0325 17.7989 36.4897C18.3702 36.0418 18.8977 35.5207 20.1325 34.2858L35.9763 18.4421C33.804 17.6723 31.8321 16.425 30.206 14.7919C28.5744 13.1654 27.3285 11.1935 26.56 9.02164L10.7163 24.8654C9.48142 26.0981 8.95818 26.6235 8.51238 27.1969C7.96821 27.8946 7.50566 28.6432 7.12474 29.4427C6.81289 30.0978 6.57639 30.801 6.02384 32.4566L4.03971 38.4069L6.59313 40.9624ZM29.103 6.4745C29.1762 6.84077 29.2955 7.3389 29.4985 7.91865C30.1108 9.67056 31.1127 11.2607 32.4287 12.5692C33.7366 13.8849 35.326 14.8868 37.0772 15.4994C37.659 15.7024 38.1571 15.8217 38.5234 15.8949L39.9089 14.5094C41.1507 13.2589 41.8462 11.5673 41.8431 9.80505C41.84 8.0428 41.1386 6.35361 39.8925 5.10751C38.6464 3.8614 36.9572 3.15999 35.1949 3.1569C33.4327 3.15382 31.7411 3.84932 30.4906 5.09105L29.103 6.4745Z" fill="#FBFBFB"/>
</svg>
