<svg width="55" height="51" viewBox="0 0 55 51" fill="none" xmlns="http://www.w3.org/2000/svg">
<path d="M1.82031 50.3594L5.36016 37.4275C3.17582 33.6422 2.02805 29.3511 2.03014 24.951C2.03644 11.1945 13.2309 0 26.9853 0C33.6601 0.00209831 39.9256 2.6019 44.6384 7.3189C49.3491 12.0359 51.9426 18.3057 51.9405 24.9741C51.9343 38.7327 40.7398 49.9272 26.9853 49.9272C22.8097 49.9251 18.6949 48.878 15.0502 46.8888L1.82031 50.3594ZM15.6629 42.3712C19.1796 44.459 22.5369 45.7096 26.9769 45.7117C38.4085 45.7117 47.7208 36.4078 47.7271 24.9699C47.7313 13.5089 38.4631 4.2176 26.9937 4.2134C15.5538 4.2134 6.24775 13.5173 6.24355 24.9531C6.24145 29.6218 7.60955 33.1176 9.9072 36.775L7.81099 44.4296L15.6629 42.3712ZM39.5563 30.906C39.401 30.6458 38.9856 30.4905 38.3603 30.1779C37.7371 29.8652 34.6715 28.3566 34.0986 28.1488C33.5279 27.9411 33.1124 27.8362 32.6948 28.4615C32.2794 29.0847 31.0833 30.4905 30.7203 30.906C30.3573 31.3215 29.9922 31.3739 29.369 31.0613C28.7458 30.7486 26.7356 30.0919 24.3541 27.9663C22.5013 26.3128 21.2486 24.2711 20.8856 23.6458C20.5225 23.0226 20.8478 22.6848 21.1583 22.3743C21.4395 22.0952 21.7815 21.6462 22.0942 21.2811C22.411 20.9201 22.5138 20.66 22.7237 20.2424C22.9314 19.8269 22.8286 19.4618 22.6712 19.1492C22.5138 18.8386 21.2674 15.7688 20.7492 14.5203C20.2414 13.3054 19.7273 13.469 19.3454 13.4502L18.1494 13.4292C17.7339 13.4292 17.0582 13.5845 16.4875 14.2098C15.9168 14.835 14.3053 16.3416 14.3053 19.4115C14.3053 22.4813 16.54 25.4462 16.8505 25.8617C17.1632 26.2771 21.2465 32.5763 27.5015 35.2768C28.9892 35.9189 30.1517 36.3028 31.0561 36.5903C32.5501 37.0645 33.9098 36.9974 34.9841 36.8379C36.1822 36.6596 38.6729 35.3292 39.1933 33.873C39.7137 32.4147 39.7137 31.1662 39.5563 30.906Z" fill="#8AD83F"/>
</svg>
