<svg width="2755" height="2170" viewBox="0 0 2755 2170" fill="none" xmlns="http://www.w3.org/2000/svg">
<path d="M75.7816 230.515C75.7816 230.515 345.967 64.1173 504.209 197.292C662.451 330.468 549.303 629.027 707.545 762.202C865.787 895.377 1140.64 732.905 1298.88 866.08C1457.12 999.255 1343.97 1297.81 1502.21 1430.99C1660.46 1564.16 1831.31 1314.17 2093.55 1534.87C2355.79 1755.57 2451.8 2085.07 2451.8 2085.07" stroke="#43BCFF" stroke-width="10.7331" stroke-linecap="round"/>
<path d="M74.2554 516.868C74.2554 516.868 295.352 693.255 605.583 603.915C915.814 514.575 739.576 1000.76 907.526 1069.37C1075.48 1137.98 1235.54 991.257 1403.49 1059.87C1571.44 1128.47 1583 1345.3 1750.95 1413.91C1918.89 1482.52 2014.09 1179.3 2292.42 1293C2570.75 1406.69 2411.86 1586.99 2625.43 1747.06" stroke="#FFD833" stroke-width="16.0997" stroke-dasharray="48.3 48.3"/>
</svg>
