<svg width="920" height="183" viewBox="0 0 920 183" fill="none" xmlns="http://www.w3.org/2000/svg">
<path d="M882.354 63.3678C886.964 64.6329 892.344 60.9224 893.997 54.9815C895.256 50.4563 893.633 42.9772 888.942 42.0115C886.377 41.484 879.119 44.5009 877.299 50.3983C875.48 56.2952 877.743 62.1016 882.354 63.3678Z" fill="#FBFBFB"/>
<path d="M867.336 60.5748C867.415 57.2756 863.699 51.4395 859.808 51.5314C857.127 51.5941 852.972 55.6882 853.236 60.7251C853.5 65.7609 856.87 69.8098 860.764 69.7684C864.658 69.7271 867.215 65.6034 867.336 60.5748Z" fill="#FBFBFB"/>
<path d="M897.147 104.385C900.103 99.2762 897.971 96.1673 896.155 93.0723C894.457 90.1773 894.005 86.8882 894.773 83.7649C896.132 78.2346 893.257 72.6425 887.895 69.6673C882.532 66.6921 875.747 66.9252 870.958 70.5528C868.254 72.6009 864.83 73.7397 861.221 73.6898C857.362 73.6377 853.346 73.3356 849.7 78.0605C845.199 83.8928 847.948 92.1981 854.904 96.0576C856.864 97.1447 858.982 97.7822 861.104 98.0014C863.402 98.2396 865.603 98.9202 867.542 99.9831C869.469 101.065 871.142 102.533 872.424 104.283C873.61 105.898 875.202 107.319 877.162 108.406C884.117 112.266 893.499 110.69 897.147 104.385Z" fill="#FBFBFB"/>
<path d="M896.723 71.3108C900.084 74.4474 906.794 73.5972 911.712 69.4098C916.629 65.2241 916.227 57.9757 914.53 56.1494C911.425 52.8103 903.377 54.9484 899.541 58.0504C894.504 62.1229 893.362 68.1731 896.723 71.3108Z" fill="#FBFBFB"/>
<path d="M900.417 91.6733C902.172 94.8337 907.677 95.6871 912.714 93.579C917.751 91.4699 919.832 86.2305 918.657 84.0378C916.953 80.8565 909.544 80.5485 906.361 82.1332C901.508 84.548 898.662 88.5128 900.417 91.6733Z" fill="#FBFBFB"/>
<path d="M888.234 150.234C891.324 151.044 894.931 148.645 896.041 144.812C896.887 141.893 895.801 137.072 892.658 136.455C890.939 136.118 886.072 138.073 884.851 141.878C883.629 145.683 885.144 149.424 888.234 150.234Z" fill="#FBFBFB"/>
<path d="M878.169 148.449C878.223 146.322 875.734 142.563 873.126 142.628C871.329 142.672 868.543 145.317 868.718 148.564C868.894 151.811 871.151 154.417 873.761 154.386C876.371 154.354 878.086 151.692 878.169 148.449Z" fill="#FBFBFB"/>
<path d="M898.135 176.662C900.118 173.364 898.69 171.363 897.474 169.369C896.337 167.505 896.035 165.385 896.551 163.37C897.464 159.802 895.539 156.2 891.945 154.288C888.352 152.377 883.804 152.536 880.593 154.881C878.78 156.205 876.484 156.944 874.066 156.916C871.479 156.887 868.787 156.698 866.342 159.749C863.323 163.515 865.163 168.867 869.824 171.347C871.137 172.045 872.556 172.454 873.979 172.592C875.519 172.743 876.994 173.179 878.294 173.862C879.585 174.557 880.705 175.501 881.564 176.628C882.358 177.668 883.425 178.582 884.738 179.281C889.399 181.76 895.688 180.733 898.135 176.662Z" fill="#FBFBFB"/>
<path d="M897.862 155.337C900.114 157.355 904.612 156.799 907.909 154.092C911.207 151.387 910.94 146.714 909.803 145.538C907.723 143.389 902.328 144.778 899.756 146.783C896.378 149.416 895.611 153.318 897.862 155.337Z" fill="#FBFBFB"/>
<path d="M900.331 168.461C901.506 170.497 905.196 171.04 908.573 169.674C911.949 168.308 913.346 164.927 912.559 163.515C911.418 161.466 906.452 161.276 904.318 162.302C901.065 163.866 899.156 166.426 900.331 168.461Z" fill="#FBFBFB"/>
<path d="M45.517 60.4306C46.9439 58.2275 45.0049 55.1878 41.0733 53.8192C38.0786 52.7768 32.6889 52.916 31.4605 55.1864C30.7893 56.4277 32.0231 60.3493 35.9047 61.7974C39.7859 63.2456 44.0894 62.6336 45.517 60.4306Z" fill="#FBFBFB"/>
<path d="M41.79 67.7267C39.507 67.3885 35.0102 68.7283 34.6118 70.6923C34.3368 72.0454 36.6879 74.5044 40.2192 74.8276C43.7497 75.1504 46.9634 73.8228 47.3973 71.862C47.8312 69.9012 45.2698 68.2426 41.79 67.7267Z" fill="#FBFBFB"/>
<path d="M75.774 56.7071C72.5754 54.7592 70.1618 55.5496 67.7956 56.182C65.5823 56.7735 63.2431 56.7032 61.1642 56.0346C57.4829 54.8511 53.2557 55.79 50.5513 58.2161C47.8468 60.6422 47.2026 64.0737 49.1542 66.8091C50.2559 68.354 50.6404 70.178 50.1769 71.9873C49.6823 73.9221 48.9951 75.9137 51.845 78.174C55.3627 80.9638 61.4602 80.334 64.9685 77.1867C65.9567 76.2999 66.6513 75.2933 67.0559 74.2461C67.4944 73.1126 68.2288 72.0679 69.1978 71.1894C70.1785 70.3189 71.397 69.6109 72.7654 69.1246C74.0286 68.6751 75.2051 68.0034 76.1933 67.1166C79.7015 63.9699 79.7216 59.1114 75.774 56.7071Z" fill="#FBFBFB"/>
<path d="M52.7424 53.9283C55.3212 52.5228 55.5277 49.0731 53.2025 46.2223C50.8783 43.372 45.7941 42.9181 44.3234 43.6061C41.6343 44.8643 42.1637 49.1029 43.8634 51.3118C46.0946 54.2121 50.1628 55.3338 52.7424 53.9283Z" fill="#FBFBFB"/>
<path d="M67.329 53.914C69.7336 53.3181 70.9806 50.6282 70.1144 47.9055C69.2473 45.183 65.854 43.6629 64.1909 44.0548C61.7779 44.6235 60.6835 48.3198 61.4064 50.0631C62.5077 52.721 64.9245 54.51 67.329 53.914Z" fill="#FBFBFB"/>
<path d="M36.6182 132.198C39.6492 127.9 36.3917 121.787 29.1022 118.891C23.5499 116.685 13.2691 116.707 10.6063 121.148C9.15122 123.575 10.9402 131.403 18.1232 134.455C25.3055 137.506 33.5857 136.496 36.6182 132.198Z" fill="#FBFBFB"/>
<path d="M28.4813 146.477C24.1832 145.7 15.431 148.143 14.3921 152.015C13.6754 154.683 17.8002 159.666 24.4768 160.472C31.152 161.278 37.4599 158.798 38.5659 154.934C39.6719 151.069 35.0322 147.663 28.4813 146.477Z" fill="#FBFBFB"/>
<path d="M94.7546 126.241C88.9433 122.231 84.2356 123.684 79.6404 124.826C75.3423 125.894 70.8992 125.645 67.0367 124.222C60.1973 121.704 52.0156 123.366 46.5205 128.045C41.0255 132.725 39.309 139.494 42.6339 145.005C44.5108 148.118 44.9823 151.75 43.8416 155.313C42.6236 159.123 41.0311 163.036 46.1339 167.649C52.4326 173.341 64.1308 172.38 71.2593 166.309C73.2672 164.599 74.7333 162.637 75.653 160.581C76.6497 158.356 78.197 156.321 80.1671 154.626C82.1586 152.947 84.5793 151.602 87.2539 150.702C89.7231 149.871 92.0588 148.596 94.0667 146.885C101.195 140.815 101.927 131.19 94.7546 126.241Z" fill="#FBFBFB"/>
<path d="M51.3031 119.653C56.4132 116.989 57.299 110.164 53.2792 104.407C49.2614 98.65 39.647 97.5117 36.7488 98.8057C31.4498 101.172 31.8525 109.595 34.7729 114.051C38.6067 119.903 46.1915 122.316 51.3031 119.653Z" fill="#FBFBFB"/>
<path d="M79.0755 120.309C83.7382 119.242 86.4964 113.971 85.236 108.536C83.974 103.101 77.7309 99.9297 74.5087 100.628C69.8337 101.641 67.2224 108.913 68.3499 112.401C70.067 117.719 74.4127 121.377 79.0755 120.309Z" fill="#FBFBFB"/>
<ellipse cx="450.506" cy="58.601" rx="59.7106" ry="58.601" fill="#FBFBFB"/>
<ellipse cx="450.992" cy="58.6005" rx="51.4579" ry="50.2294" fill="#FCA11D"/>
<path d="M451.894 94.4128C451.894 94.4128 419.337 72.591 417.128 48.2994C414.919 24.0079 444.103 27.2394 449.684 47.7426L451.08 52.4227L451.894 47.7426C457.475 17.5447 487.007 30.9173 483.752 47.7426C480.496 64.568 451.894 94.4128 451.894 94.4128Z" fill="#FBFBFB"/>
</svg>
