<svg width="97" height="73" viewBox="0 0 97 73" fill="none" xmlns="http://www.w3.org/2000/svg">
<path d="M61.0993 22.5081C62.0569 24.9751 61.336 28.4566 58.8335 29.2501C56.2415 30.072 52.8535 27.6565 51.7151 25.0756C50.5855 22.5144 51.2813 18.9056 53.7635 18.0782C56.3642 17.2115 60.0105 19.7029 61.0993 22.5081Z" fill="#FBFBFB"/>
<path d="M85.864 25.0333C87.9165 23.2718 91.7789 22.4478 93.7491 24.135C95.7899 25.8825 94.9226 29.5723 92.839 31.5246C90.7713 33.4619 86.7915 34.3574 84.7964 32.7C82.7062 30.9636 83.53 27.0362 85.864 25.0333Z" fill="#FBFBFB"/>
<path d="M75.8126 15.9636C76.7028 13.1732 79.8932 10.3461 82.8027 10.955C85.8163 11.5857 87.2318 15.6314 86.4278 18.6238C85.6301 21.5934 82.371 24.5515 79.4559 23.9846C76.4018 23.3907 74.8002 19.1366 75.8126 15.9636Z" fill="#FBFBFB"/>
<path d="M61.9101 15.1154C62.013 12.1927 64.3194 8.7422 67.2836 8.71626C70.3538 8.68938 72.8087 12.3481 72.8435 15.4502C72.8779 18.5285 70.5408 22.122 67.5826 22.1903C64.4833 22.2619 61.793 18.4388 61.9101 15.1154Z" fill="#FBFBFB"/>
<path d="M72.9491 24.8501C70.5478 24.475 68.625 25.3477 67.3787 25.9333C65.1982 26.9578 64.9994 27.7905 61.9952 30.3921C58.031 33.8249 57.0543 33.5207 55.9131 35.509C55.5989 36.0565 54.0151 38.8162 55.2348 41.877C56.4847 45.0136 60.1386 47.1109 63.2885 47.3221C66.132 47.5128 66.8639 46.0524 69.7626 46.5238C72.4365 46.9588 72.5842 48.327 75.0796 48.9795C78.8019 49.9529 84.0122 48.3571 85.819 44.9278C86.9388 42.8024 86.4016 40.6362 86.2161 39.8881C85.619 37.4802 84.3944 37.2331 81.6959 33.2124C79.4764 29.9053 79.6808 29.1426 77.8126 27.4673C76.7674 26.5301 75.257 25.2106 72.9491 24.8501Z" fill="#FBFBFB"/>
<path d="M20.4412 37.639C23.3639 39.6207 25.2137 43.9894 23.0687 46.7589C20.8469 49.6275 15.2951 49.5463 12.0876 47.5767C8.90453 45.6221 6.93045 41.1327 9.02772 38.3413C11.225 35.4169 17.1178 35.3856 20.4412 37.639Z" fill="#FFD833"/>
<path d="M49.5386 21.626C50.4554 18.1353 54.0702 14.3006 57.513 14.6579C61.079 15.0281 62.9261 19.7365 62.1199 23.4603C61.3198 27.1556 57.6304 31.1578 54.1829 30.852C50.5711 30.5316 48.496 25.5953 49.5386 21.626Z" fill="#FFD833"/>
<path d="M31.6307 19.289C30.4911 15.5504 31.8485 10.0266 35.5043 8.48785C39.2909 6.894 43.914 10.2613 45.3017 14.1561C46.6787 18.0211 45.3453 23.7409 41.7152 25.33C37.912 26.995 32.9265 23.5401 31.6307 19.289Z" fill="#FFD833"/>
<path d="M15.7166 28.9107C13.6123 25.6243 13.5265 20.0867 16.7607 17.8095C20.1106 15.4508 25.5811 17.6048 27.9726 20.9837C30.3457 24.3368 30.5064 30.0545 27.3109 32.3737C23.9629 34.8035 18.1093 32.6478 15.7166 28.9107Z" fill="#FFD833"/>
<path d="M35.222 31.2227C32.3014 32.6327 30.8528 35.0494 29.9289 36.6378C28.3126 39.4166 28.726 40.4815 27.4018 45.6165C25.6544 52.3922 24.3515 52.7993 24.6072 55.8476C24.6776 56.687 25.0326 60.9179 28.6935 63.3526C32.4452 65.8476 38.0473 65.3778 41.6653 63.2201C44.9314 61.2722 44.6269 59.1138 48.1666 57.4324C51.4319 55.8813 52.632 57.2711 55.8663 56.0944C60.6909 54.339 65.1998 48.6344 64.5816 43.4993C64.1984 40.3166 61.9654 38.3463 61.1942 37.6658C58.712 35.4755 57.1802 36.1333 51.1678 33.7668C46.2224 31.8202 45.8682 30.8279 42.5465 30.4062C40.6881 30.1702 38.029 29.8675 35.222 31.2227Z" fill="#FFD833"/>
</svg>
