<svg width="1727" height="1715" viewBox="0 0 1727 1715" fill="none" xmlns="http://www.w3.org/2000/svg">
<path d="M-134.359 188.741C-134.359 188.741 70.7214 61.1263 189.49 161.081C308.259 261.036 221.043 487.844 339.812 587.799C458.58 687.754 667.163 563.086 785.932 663.041C904.7 762.996 817.484 989.804 936.253 1089.76C1055.02 1189.71 1185.55 999.354 1382.37 1165C1579.2 1330.65 1649.81 1579.68 1649.81 1579.68" stroke="#8AD83F" stroke-width="8.05577" stroke-linecap="round"/>
<path d="M28.1116 29.2701C396.72 43.9003 -11.3484 707.836 160.086 839.085C331.521 970.333 639.893 658.633 811.327 789.881C982.762 921.13 943.57 1153.79 1115 1285.04C1286.44 1416.29 1565.9 1110.67 1756.27 1408.86" stroke="#43BCFF" stroke-width="7" stroke-linecap="round" stroke-dasharray="30 30"/>
</svg>
