<svg width="1055" height="320" viewBox="0 0 1055 320" fill="none" xmlns="http://www.w3.org/2000/svg">
<path d="M874.111 181.123C848.439 181.123 835.604 165.406 835.604 133.973V72.906C835.604 58.5048 839.003 47.0808 845.802 38.6339C852.718 30.0485 862.155 25.7559 874.111 25.7559C886.068 25.7559 895.446 30.0485 902.245 38.6339C909.161 47.0808 912.619 58.5048 912.619 72.906V133.973C912.619 165.406 899.783 181.123 874.111 181.123ZM874.111 153.082C876.573 153.082 878.39 152.044 879.562 149.966C880.734 147.889 881.321 145.051 881.321 141.45V67.0902C881.321 58.2279 878.917 53.7967 874.111 53.7967C869.305 53.7967 866.902 58.2279 866.902 67.0902V141.45C866.902 145.051 867.488 147.889 868.66 149.966C869.833 152.044 871.65 153.082 874.111 153.082Z" fill="#36781C"/>
<path d="M763.909 27.4192H794.68V44.2437C796.204 38.2894 798.842 33.7197 802.593 30.5349C806.461 27.2115 811.209 25.5498 816.835 25.5498V55.8755C812.498 55.8755 807.692 56.6371 802.417 58.1603C797.259 59.545 794.68 61.2067 794.68 63.1453V179.463H763.909V27.4192Z" fill="#36781C"/>
<path d="M713.273 181.123C704.833 181.123 698.796 175.169 695.162 163.26V179.461H663.512V0H695.162V34.6876C700.085 28.7332 705.829 25.756 712.394 25.756C722.358 25.756 729.508 29.2871 733.845 36.3493C738.183 43.2729 740.351 53.3122 740.351 66.4672V139.789C740.351 152.251 738.124 162.291 733.67 169.907C729.215 177.384 722.416 181.123 713.273 181.123ZM702.899 152.875C705.009 152.875 706.474 152.113 707.294 150.59C708.232 148.928 708.76 146.92 708.877 144.566C709.111 142.074 709.229 138.266 709.229 133.142V69.7906C709.229 64.3901 708.818 60.3744 707.998 57.7434C707.177 55.1124 705.419 53.7969 702.723 53.7969C699.792 53.7969 697.799 55.1124 696.744 57.7434C695.689 60.3744 695.162 64.2516 695.162 69.3751V133.142C695.162 139.789 695.631 144.774 696.569 148.097C697.506 151.282 699.616 152.875 702.899 152.875Z" fill="#36781C"/>
<path d="M517.952 27.4175H548.02V45.0729C549.427 38.5647 551.83 33.7181 555.229 30.5332C558.629 27.3483 563.435 25.7559 569.648 25.7559C574.688 25.7559 579.025 27.1406 582.659 29.9101C586.41 32.541 589.048 36.2106 590.572 40.9187C593.151 35.6567 596.023 31.8487 599.188 29.4946C602.353 27.0021 606.749 25.7559 612.375 25.7559C622.456 25.7559 629.431 29.4254 633.3 36.7645C637.285 43.9651 639.278 54.4891 639.278 68.3364L638.926 179.461H607.979V67.7133C607.979 57.8817 605.869 52.9659 601.649 52.9659C598.719 52.9659 596.609 54.6968 595.319 58.1586C594.03 61.482 593.385 65.4977 593.385 70.2058V179.461H562.614V67.7133C562.614 63.4206 562.204 59.9588 561.383 57.3278C560.68 54.6968 559.097 53.3813 556.636 53.3813C553.471 53.3813 551.243 55.2507 549.954 58.9895C548.665 62.5898 548.02 66.9517 548.02 72.0752V179.461H517.952V27.4175Z" fill="#36781C"/>
<path d="M455.833 181.123C442.587 181.123 433.092 176.83 427.348 168.245C421.604 159.66 418.732 146.851 418.732 129.819V68.7518C418.732 54.766 422.132 44.1036 428.931 36.7645C435.73 29.4254 445.225 25.7559 457.416 25.7559C482.15 25.7559 494.517 40.0878 494.517 68.7518V79.7605C494.517 90.8383 494.4 99.8391 494.165 106.763H449.503V136.258C449.503 141.52 449.972 145.674 450.91 148.72C451.848 151.628 453.841 153.082 456.889 153.082C459.233 153.082 460.874 152.251 461.812 150.59C462.867 148.928 463.453 147.059 463.57 144.981C463.805 142.766 463.922 139.581 463.922 135.427V120.679H494.517V129.403C494.517 147.128 491.587 160.214 485.725 168.66C479.981 176.969 470.017 181.123 455.833 181.123ZM463.922 88.692V69.1673C463.922 58.2279 461.636 52.7582 457.064 52.7582C451.907 52.7582 449.328 58.2279 449.328 69.1673V88.692H463.922Z" fill="#36781C"/>
<path d="M335.961 179.462V157.237L367.963 56.082H337.368V27.418H399.789V52.1355L369.545 152.252H400.141V179.462H335.961Z" fill="#36781C"/>
<path d="M277.536 181.123C264.289 181.123 254.794 176.83 249.05 168.245C243.307 159.66 240.435 146.851 240.435 129.819V68.7518C240.435 54.766 243.834 44.1036 250.633 36.7645C257.432 29.4254 266.927 25.7559 279.118 25.7559C303.852 25.7559 316.219 40.0878 316.219 68.7518V79.7605C316.219 90.8383 316.102 99.8391 315.868 106.763H271.206V136.258C271.206 141.52 271.674 145.674 272.612 148.72C273.55 151.628 275.543 153.082 278.591 153.082C280.935 153.082 282.576 152.251 283.514 150.59C284.569 148.928 285.155 147.059 285.272 144.981C285.507 142.766 285.624 139.581 285.624 135.427V120.679H316.219V129.403C316.219 147.128 313.289 160.214 307.428 168.66C301.684 176.969 291.72 181.123 277.536 181.123ZM285.624 88.692V69.1673C285.624 58.2279 283.338 52.7582 278.766 52.7582C273.609 52.7582 271.03 58.2279 271.03 69.1673V88.692H285.624Z" fill="#36781C"/>
<path d="M142.992 1.03809H184.665C195.449 1.03809 203.538 4.56915 208.93 11.6313C214.322 18.6934 217.077 29.1482 217.194 42.9955L217.546 126.495C217.663 144.081 215.084 157.305 209.809 166.168C204.534 175.03 195.801 179.461 183.61 179.461H142.992V1.03809ZM178.687 147.889C184.196 147.889 186.951 144.704 186.951 138.334V46.3189C186.951 42.3031 186.658 39.326 186.072 37.3873C185.603 35.3102 184.665 33.9255 183.258 33.2331C181.852 32.5408 179.683 32.1946 176.752 32.1946H173.412V147.889H178.687Z" fill="#36781C"/>
<path d="M97.7621 227.297H105.053C108.355 227.297 111.162 227.834 113.471 228.908C115.78 229.955 117.539 231.486 118.747 233.5C119.983 235.514 120.6 237.957 120.6 240.831C120.6 243.811 119.969 246.403 118.707 248.605C117.472 250.78 115.686 252.471 113.35 253.68C111.041 254.888 108.275 255.492 105.053 255.492H97.7621C96.8491 255.492 95.8287 255.492 94.7009 255.492C93.5999 255.492 92.5795 255.519 91.6397 255.573C91.5323 255.063 91.5323 254.566 91.6397 254.082H94.3384C94.4726 252.981 94.5666 251.84 94.6203 250.659C94.7009 249.45 94.7412 248.242 94.7412 247.034V235.756C94.7412 234.547 94.7009 233.352 94.6203 232.171C94.5666 230.962 94.4726 229.808 94.3384 228.707H91.6397C91.5323 228.197 91.5323 227.7 91.6397 227.216C92.5795 227.243 93.5999 227.27 94.7009 227.297C95.8287 227.297 96.8491 227.297 97.7621 227.297ZM101.186 253.881H105.455C107.55 253.881 109.201 253.357 110.41 252.31C111.618 251.236 112.477 249.786 112.987 247.96C113.498 246.134 113.753 244.093 113.753 241.838C113.753 240.119 113.592 238.481 113.269 236.924C112.974 235.366 112.477 233.997 111.779 232.815C111.081 231.607 110.141 230.654 108.96 229.955C107.805 229.257 106.368 228.908 104.65 228.908H101.186C101.052 230.117 100.944 231.258 100.864 232.332C100.81 233.406 100.783 234.547 100.783 235.756V247.034C100.783 248.242 100.81 249.383 100.864 250.457C100.944 251.531 101.052 252.673 101.186 253.881ZM137.983 254.082C138.091 254.566 138.091 255.063 137.983 255.573C137.07 255.519 136.131 255.492 135.164 255.492C134.224 255.492 133.392 255.492 132.667 255.492C131.942 255.492 131.109 255.492 130.169 255.492C129.229 255.492 128.29 255.519 127.35 255.573C127.242 255.063 127.242 254.566 127.35 254.082H129.646C129.78 253.169 129.874 252.203 129.928 251.182C130.008 250.162 130.048 249.048 130.048 247.839V244.617C130.048 242.227 129.914 240.173 129.646 238.454H127.551C127.444 237.944 127.444 237.447 127.551 236.964C129.109 236.964 130.572 236.924 131.942 236.843C133.311 236.736 134.627 236.575 135.889 236.36C135.728 236.95 135.607 237.743 135.526 238.736C135.446 239.73 135.379 240.764 135.325 241.838C135.298 242.885 135.285 243.811 135.285 244.617V247.839C135.285 249.048 135.312 250.162 135.365 251.182C135.446 252.203 135.553 253.169 135.687 254.082H137.983ZM132.667 227.74L135.486 229.23V232.493L132.667 233.983L129.847 232.493V229.23L132.667 227.74ZM153.465 249.732C154.62 249.732 155.492 249.236 156.083 248.242C156.701 247.248 157.009 245.785 157.009 243.852C157.009 241.918 156.701 240.441 156.083 239.421C155.492 238.374 154.62 237.85 153.465 237.85C152.31 237.85 151.424 238.374 150.806 239.421C150.216 240.441 149.92 241.918 149.92 243.852C149.92 245.785 150.216 247.248 150.806 248.242C151.424 249.236 152.31 249.732 153.465 249.732ZM143.476 258.714C143.476 258.231 143.503 257.815 143.556 257.466C143.637 257.117 143.731 256.848 143.838 256.66H150.968C151.075 257.144 151.075 257.64 150.968 258.151C150.645 258.124 150.35 258.11 150.081 258.11C149.84 258.11 149.585 258.11 149.316 258.11C149.262 258.218 149.209 258.406 149.155 258.674C149.101 258.943 149.074 259.265 149.074 259.641C149.074 260.93 149.477 261.803 150.283 262.259C151.115 262.716 152.337 262.944 153.948 262.944C155.559 262.944 156.808 262.648 157.694 262.058C158.58 261.467 159.023 260.473 159.023 259.077C159.023 258.218 158.862 257.546 158.54 257.063C158.218 256.58 157.681 256.204 156.929 255.935C156.204 255.667 155.197 255.452 153.908 255.291C152.646 255.13 151.438 254.901 150.283 254.606C149.128 254.311 148.094 253.827 147.181 253.156C146.295 252.485 145.584 251.518 145.047 250.256C144.536 248.994 144.281 247.329 144.281 245.261C144.281 242.2 145.127 239.958 146.819 238.535C148.537 237.085 150.78 236.36 153.545 236.36C154.673 236.36 155.908 236.467 157.251 236.682C158.594 236.87 159.802 236.964 160.876 236.964C161.682 236.964 162.393 236.924 163.011 236.843C163.655 236.763 164.139 236.669 164.461 236.561C164.568 237.635 164.568 238.803 164.461 240.065C163.87 239.528 163.293 239.152 162.729 238.938C162.165 238.723 161.413 238.562 160.473 238.454C161.172 239.099 161.709 239.891 162.085 240.831C162.46 241.771 162.648 242.791 162.648 243.892C162.648 245.369 162.273 246.658 161.521 247.759C160.769 248.86 159.748 249.719 158.459 250.336C157.171 250.927 155.72 251.223 154.109 251.223C152.74 251.223 151.693 251.021 150.968 250.618C150.243 250.216 149.571 249.517 148.954 248.524C148.954 249.652 149.088 250.565 149.356 251.263C149.625 251.961 150.149 252.485 150.927 252.834C151.706 253.183 152.847 253.451 154.351 253.639C155.72 253.8 157.023 253.948 158.258 254.082C159.52 254.217 160.648 254.445 161.641 254.767C162.635 255.063 163.414 255.506 163.978 256.096C164.568 256.714 164.864 257.573 164.864 258.674C164.864 259.909 164.434 260.957 163.575 261.816C162.742 262.702 161.521 263.373 159.909 263.83C158.298 264.313 156.352 264.555 154.069 264.555C150.659 264.555 148.041 264.098 146.215 263.185C144.389 262.272 143.476 260.782 143.476 258.714ZM176.964 256.096C175.004 256.096 173.419 255.626 172.211 254.687C171.003 253.747 170.398 252.391 170.398 250.618C170.398 249.303 170.747 248.229 171.446 247.396C172.144 246.537 173.097 245.892 174.305 245.463C175.514 245.033 176.87 244.818 178.374 244.818C179.26 244.818 180.038 244.885 180.71 245.02C181.381 245.154 182.012 245.328 182.603 245.543V247.235C181.77 246.832 180.804 246.631 179.703 246.631C178.575 246.631 177.608 246.967 176.803 247.638C176.024 248.309 175.635 249.276 175.635 250.538C175.635 251.666 175.903 252.538 176.44 253.156C177.004 253.774 177.743 254.082 178.656 254.082C179.381 254.082 180.092 253.908 180.79 253.559C181.488 253.183 182.093 252.686 182.603 252.068L183.006 253.881C182.307 254.525 181.448 255.063 180.428 255.492C179.407 255.895 178.253 256.096 176.964 256.096ZM187.839 243.046V251.666C187.839 252.659 188.027 253.317 188.403 253.639C188.806 253.935 189.423 254.082 190.256 254.082C190.336 254.566 190.336 255.063 190.256 255.573C189.638 255.68 189.047 255.761 188.484 255.814C187.946 255.868 187.45 255.895 186.993 255.895C185.839 255.895 184.926 255.734 184.254 255.412C183.61 255.063 183.194 254.552 183.006 253.881L182.603 252.068V242.845C182.603 241.475 182.388 240.307 181.958 239.34C181.529 238.347 180.75 237.85 179.622 237.85C178.494 237.85 177.662 238.293 177.125 239.179C176.615 240.065 176.454 241.207 176.642 242.603H171.405C171.405 241.368 171.701 240.294 172.291 239.381C172.909 238.441 173.835 237.702 175.071 237.165C176.333 236.628 177.917 236.36 179.824 236.36C182.804 236.36 184.885 236.964 186.067 238.172C187.248 239.354 187.839 240.978 187.839 243.046ZM207.62 255.573C207.512 255.063 207.512 254.566 207.62 254.082H209.714C209.849 253.169 209.943 252.203 209.996 251.182C210.077 250.162 210.117 249.048 210.117 247.839V244.617C210.117 242.227 209.983 240.173 209.714 238.454H207.821C207.714 237.944 207.714 237.447 207.821 236.964C209.379 236.964 210.708 236.924 211.809 236.843C212.91 236.736 214.091 236.575 215.353 236.36C215.246 236.709 215.165 237.192 215.112 237.81C215.058 238.401 215.004 238.991 214.951 239.582L215.353 241.395V247.839C215.353 249.048 215.38 250.162 215.434 251.182C215.514 252.203 215.622 253.169 215.756 254.082H217.851C217.958 254.566 217.958 255.063 217.851 255.573C216.938 255.519 216.038 255.492 215.152 255.492C214.266 255.492 213.46 255.492 212.735 255.492C212.01 255.492 211.205 255.492 210.318 255.492C209.459 255.492 208.56 255.519 207.62 255.573ZM220.106 255.573C219.999 255.063 219.999 254.566 220.106 254.082H222.201C222.335 253.169 222.429 252.203 222.483 251.182C222.563 250.162 222.603 249.048 222.603 247.839V242.684C222.603 241.583 222.389 240.656 221.959 239.904C221.529 239.152 220.764 238.776 219.663 238.776C218.723 238.776 217.918 239.018 217.246 239.501C216.602 239.958 215.971 240.589 215.353 241.395L214.951 239.582C215.541 238.75 216.414 238.011 217.569 237.367C218.723 236.695 220.187 236.36 221.959 236.36C223.624 236.36 224.94 236.695 225.906 237.367C226.873 238.038 227.585 239.032 228.041 240.347C227.961 240.75 227.907 241.22 227.88 241.757C227.853 242.294 227.84 242.764 227.84 243.167V247.839C227.84 249.048 227.867 250.162 227.92 251.182C228.001 252.203 228.108 253.169 228.243 254.082H230.337C230.444 254.566 230.444 255.063 230.337 255.573C229.424 255.519 228.524 255.492 227.638 255.492C226.752 255.492 225.947 255.492 225.222 255.492C224.497 255.492 223.691 255.492 222.805 255.492C221.946 255.492 221.046 255.519 220.106 255.573ZM242.947 256.096C240.987 256.096 239.403 255.626 238.194 254.687C236.986 253.747 236.382 252.391 236.382 250.618C236.382 249.303 236.731 248.229 237.429 247.396C238.127 246.537 239.08 245.892 240.289 245.463C241.497 245.033 242.853 244.818 244.357 244.818C245.243 244.818 246.022 244.885 246.693 245.02C247.364 245.154 247.995 245.328 248.586 245.543V247.235C247.754 246.832 246.787 246.631 245.686 246.631C244.558 246.631 243.592 246.967 242.786 247.638C242.007 248.309 241.618 249.276 241.618 250.538C241.618 251.666 241.886 252.538 242.424 253.156C242.987 253.774 243.726 254.082 244.639 254.082C245.364 254.082 246.075 253.908 246.774 253.559C247.472 253.183 248.076 252.686 248.586 252.068L248.989 253.881C248.291 254.525 247.432 255.063 246.411 255.492C245.391 255.895 244.236 256.096 242.947 256.096ZM253.822 243.046V251.666C253.822 252.659 254.01 253.317 254.386 253.639C254.789 253.935 255.407 254.082 256.239 254.082C256.32 254.566 256.32 255.063 256.239 255.573C255.622 255.68 255.031 255.761 254.467 255.814C253.93 255.868 253.433 255.895 252.977 255.895C251.822 255.895 250.909 255.734 250.238 255.412C249.593 255.063 249.177 254.552 248.989 253.881L248.586 252.068V242.845C248.586 241.475 248.371 240.307 247.942 239.34C247.512 238.347 246.733 237.85 245.606 237.85C244.478 237.85 243.645 238.293 243.108 239.179C242.598 240.065 242.437 241.207 242.625 242.603H237.389C237.389 241.368 237.684 240.294 238.275 239.381C238.892 238.441 239.819 237.702 241.054 237.165C242.316 236.628 243.9 236.36 245.807 236.36C248.788 236.36 250.869 236.964 252.05 238.172C253.232 239.354 253.822 240.978 253.822 243.046ZM251.285 228.103C251.688 228.103 252.064 228.237 252.413 228.505C252.359 229.794 252.131 230.842 251.728 231.647C251.325 232.453 250.802 233.043 250.157 233.419C249.539 233.795 248.855 233.983 248.103 233.983C247.432 233.983 246.868 233.876 246.411 233.661C245.955 233.419 245.552 233.151 245.203 232.855C244.854 232.56 244.505 232.305 244.156 232.09C243.833 231.849 243.471 231.728 243.068 231.728C242.477 231.728 241.967 231.875 241.537 232.171C241.135 232.466 240.786 233.003 240.49 233.782C240.087 233.782 239.711 233.648 239.362 233.379C239.47 231.311 239.926 229.888 240.732 229.11C241.564 228.304 242.517 227.901 243.592 227.901C244.451 227.901 245.162 228.089 245.726 228.465C246.29 228.841 246.8 229.217 247.257 229.593C247.713 229.969 248.224 230.157 248.788 230.157C249.325 230.157 249.795 229.996 250.197 229.673C250.6 229.351 250.963 228.828 251.285 228.103ZM271.904 237.971C270.91 237.971 270.131 238.307 269.567 238.978C269.03 239.622 268.641 240.522 268.399 241.677C268.184 242.804 268.077 244.12 268.077 245.624C268.077 247.154 268.198 248.605 268.44 249.974C268.681 251.317 269.097 252.404 269.688 253.237C270.306 254.069 271.179 254.485 272.306 254.485L272.105 256.096C270.225 256.096 268.534 255.72 267.03 254.969C265.553 254.217 264.385 253.102 263.526 251.625C262.666 250.149 262.237 248.349 262.237 246.228C262.237 244.16 262.666 242.402 263.526 240.952C264.385 239.475 265.553 238.347 267.03 237.568C268.534 236.763 270.225 236.36 272.105 236.36L271.904 237.971ZM272.306 254.485C273.3 254.485 274.065 254.163 274.602 253.519C275.166 252.847 275.555 251.934 275.77 250.78C276.012 249.625 276.133 248.309 276.133 246.832C276.133 245.275 276.012 243.825 275.77 242.482C275.529 241.139 275.099 240.052 274.481 239.22C273.891 238.387 273.031 237.971 271.904 237.971L272.105 236.36C273.985 236.36 275.663 236.736 277.14 237.488C278.644 238.239 279.825 239.354 280.684 240.831C281.544 242.281 281.973 244.08 281.973 246.228C281.973 248.269 281.544 250.028 280.684 251.505C279.825 252.981 278.644 254.123 277.14 254.928C275.663 255.707 273.985 256.096 272.105 256.096L272.306 254.485ZM306.846 256.096C304.885 256.096 303.301 255.626 302.093 254.687C300.884 253.747 300.28 252.391 300.28 250.618C300.28 249.303 300.629 248.229 301.328 247.396C302.026 246.537 302.979 245.892 304.187 245.463C305.396 245.033 306.752 244.818 308.255 244.818C309.142 244.818 309.92 244.885 310.592 245.02C311.263 245.154 311.894 245.328 312.485 245.543V247.235C311.652 246.832 310.686 246.631 309.585 246.631C308.457 246.631 307.49 246.967 306.685 247.638C305.906 248.309 305.517 249.276 305.517 250.538C305.517 251.666 305.785 252.538 306.322 253.156C306.886 253.774 307.624 254.082 308.537 254.082C309.262 254.082 309.974 253.908 310.672 253.559C311.37 253.183 311.975 252.686 312.485 252.068L312.888 253.881C312.189 254.525 311.33 255.063 310.31 255.492C309.289 255.895 308.135 256.096 306.846 256.096ZM317.721 243.046V251.666C317.721 252.659 317.909 253.317 318.285 253.639C318.688 253.935 319.305 254.082 320.138 254.082C320.218 254.566 320.218 255.063 320.138 255.573C319.52 255.68 318.929 255.761 318.365 255.814C317.828 255.868 317.332 255.895 316.875 255.895C315.72 255.895 314.808 255.734 314.136 255.412C313.492 255.063 313.076 254.552 312.888 253.881L312.485 252.068V242.845C312.485 241.475 312.27 240.307 311.84 239.34C311.411 238.347 310.632 237.85 309.504 237.85C308.376 237.85 307.544 238.293 307.007 239.179C306.497 240.065 306.336 241.207 306.523 242.603H301.287C301.287 241.368 301.583 240.294 302.173 239.381C302.791 238.441 303.717 237.702 304.953 237.165C306.215 236.628 307.799 236.36 309.706 236.36C312.686 236.36 314.767 236.964 315.949 238.172C317.13 239.354 317.721 240.978 317.721 243.046ZM335.802 237.971C334.809 237.971 334.03 238.307 333.466 238.978C332.929 239.622 332.54 240.522 332.298 241.677C332.083 242.804 331.976 244.12 331.976 245.624C331.976 247.154 332.096 248.605 332.338 249.974C332.58 251.317 332.996 252.404 333.587 253.237C334.204 254.069 335.077 254.485 336.205 254.485L336.004 256.096C334.124 256.096 332.432 255.72 330.928 254.969C329.451 254.217 328.283 253.102 327.424 251.625C326.565 250.149 326.135 248.349 326.135 246.228C326.135 244.16 326.565 242.402 327.424 240.952C328.283 239.475 329.451 238.347 330.928 237.568C332.432 236.763 334.124 236.36 336.004 236.36L335.802 237.971ZM336.205 254.485C337.198 254.485 337.964 254.163 338.501 253.519C339.065 252.847 339.454 251.934 339.669 250.78C339.911 249.625 340.031 248.309 340.031 246.832C340.031 245.275 339.911 243.825 339.669 242.482C339.427 241.139 338.998 240.052 338.38 239.22C337.789 238.387 336.93 237.971 335.802 237.971L336.004 236.36C337.883 236.36 339.561 236.736 341.038 237.488C342.542 238.239 343.724 239.354 344.583 240.831C345.442 242.281 345.872 244.08 345.872 246.228C345.872 248.269 345.442 250.028 344.583 251.505C343.724 252.981 342.542 254.123 341.038 254.928C339.561 255.707 337.883 256.096 336.004 256.096L336.205 254.485ZM370.744 256.096C368.784 256.096 367.2 255.626 365.991 254.687C364.783 253.747 364.179 252.391 364.179 250.618C364.179 249.303 364.528 248.229 365.226 247.396C365.924 246.537 366.878 245.892 368.086 245.463C369.294 245.033 370.65 244.818 372.154 244.818C373.04 244.818 373.819 244.885 374.49 245.02C375.162 245.154 375.793 245.328 376.383 245.543V247.235C375.551 246.832 374.584 246.631 373.483 246.631C372.355 246.631 371.389 246.967 370.583 247.638C369.804 248.309 369.415 249.276 369.415 250.538C369.415 251.666 369.684 252.538 370.221 253.156C370.785 253.774 371.523 254.082 372.436 254.082C373.161 254.082 373.873 253.908 374.571 253.559C375.269 253.183 375.873 252.686 376.383 252.068L376.786 253.881C376.088 254.525 375.229 255.063 374.208 255.492C373.188 255.895 372.033 256.096 370.744 256.096ZM381.62 243.046V251.666C381.62 252.659 381.808 253.317 382.184 253.639C382.586 253.935 383.204 254.082 384.036 254.082C384.117 254.566 384.117 255.063 384.036 255.573C383.419 255.68 382.828 255.761 382.264 255.814C381.727 255.868 381.23 255.895 380.774 255.895C379.619 255.895 378.706 255.734 378.035 255.412C377.39 255.063 376.974 254.552 376.786 253.881L376.383 252.068V242.845C376.383 241.475 376.169 240.307 375.739 239.34C375.309 238.347 374.531 237.85 373.403 237.85C372.275 237.85 371.442 238.293 370.905 239.179C370.395 240.065 370.234 241.207 370.422 242.603H365.186C365.186 241.368 365.481 240.294 366.072 239.381C366.69 238.441 367.616 237.702 368.851 237.165C370.113 236.628 371.698 236.36 373.604 236.36C376.585 236.36 378.666 236.964 379.847 238.172C381.029 239.354 381.62 240.978 381.62 243.046ZM388.906 227.297C390.463 227.297 391.927 227.257 393.296 227.176C394.666 227.069 395.982 226.908 397.244 226.693C397.083 227.284 396.962 228.076 396.881 229.069C396.801 230.063 396.734 231.097 396.68 232.171C396.653 233.218 396.64 234.144 396.64 234.95V252.35V253.156L392.289 255.694C392.075 255.694 391.86 255.68 391.645 255.653C391.43 255.626 391.215 255.573 391 255.492C391.108 254.875 391.188 254.123 391.242 253.237C391.296 252.35 391.336 251.437 391.363 250.498C391.39 249.531 391.403 248.645 391.403 247.839V234.95C391.403 232.56 391.269 230.506 391 228.787H388.906C388.799 228.277 388.799 227.78 388.906 227.297ZM402.279 236.36C403.863 236.36 405.273 236.709 406.508 237.407C407.743 238.078 408.723 239.126 409.448 240.549C410.173 241.972 410.536 243.771 410.536 245.946C410.536 248.175 410.106 250.041 409.247 251.545C408.414 253.049 407.26 254.19 405.783 254.969C404.306 255.72 402.587 256.096 400.627 256.096C398.694 256.096 397.136 255.814 395.955 255.251C394.773 254.66 393.699 253.908 392.732 252.995L396.64 249.37C396.64 250.766 396.854 251.84 397.284 252.592C397.714 253.317 398.224 253.814 398.815 254.082C399.405 254.351 399.916 254.485 400.345 254.485C401.634 254.485 402.681 253.8 403.487 252.431C404.292 251.035 404.695 248.94 404.695 246.147C404.695 243.623 404.36 241.703 403.688 240.388C403.044 239.045 402.091 238.374 400.829 238.374C400.077 238.374 399.352 238.629 398.653 239.139C397.982 239.649 397.311 240.414 396.64 241.435L396.237 239.582C396.827 238.642 397.633 237.877 398.653 237.286C399.674 236.669 400.882 236.36 402.279 236.36ZM423.741 256.096C421.781 256.096 420.196 255.626 418.988 254.687C417.78 253.747 417.175 252.391 417.175 250.618C417.175 249.303 417.525 248.229 418.223 247.396C418.921 246.537 419.874 245.892 421.082 245.463C422.291 245.033 423.647 244.818 425.151 244.818C426.037 244.818 426.815 244.885 427.487 245.02C428.158 245.154 428.789 245.328 429.38 245.543V247.235C428.547 246.832 427.581 246.631 426.48 246.631C425.352 246.631 424.385 246.967 423.58 247.638C422.801 248.309 422.412 249.276 422.412 250.538C422.412 251.666 422.68 252.538 423.217 253.156C423.781 253.774 424.52 254.082 425.433 254.082C426.158 254.082 426.869 253.908 427.567 253.559C428.266 253.183 428.87 252.686 429.38 252.068L429.783 253.881C429.085 254.525 428.225 255.063 427.205 255.492C426.184 255.895 425.03 256.096 423.741 256.096ZM434.616 243.046V251.666C434.616 252.659 434.804 253.317 435.18 253.639C435.583 253.935 436.2 254.082 437.033 254.082C437.113 254.566 437.113 255.063 437.033 255.573C436.415 255.68 435.825 255.761 435.261 255.814C434.724 255.868 434.227 255.895 433.77 255.895C432.616 255.895 431.703 255.734 431.031 255.412C430.387 255.063 429.971 254.552 429.783 253.881L429.38 252.068V242.845C429.38 241.475 429.165 240.307 428.735 239.34C428.306 238.347 427.527 237.85 426.399 237.85C425.271 237.85 424.439 238.293 423.902 239.179C423.392 240.065 423.231 241.207 423.419 242.603H418.182C418.182 241.368 418.478 240.294 419.069 239.381C419.686 238.441 420.613 237.702 421.848 237.165C423.11 236.628 424.694 236.36 426.601 236.36C429.581 236.36 431.662 236.964 432.844 238.172C434.025 239.354 434.616 240.978 434.616 243.046ZM442.708 255.573C442.601 255.063 442.601 254.566 442.708 254.082H444.803C444.937 253.169 445.031 252.203 445.085 251.182C445.165 250.162 445.205 249.048 445.205 247.839V244.617C445.205 242.227 445.071 240.173 444.803 238.454H442.91C442.802 237.944 442.802 237.447 442.91 236.964C444.467 236.964 445.796 236.924 446.897 236.843C447.998 236.736 449.18 236.575 450.442 236.36C450.334 236.709 450.254 237.192 450.2 237.81C450.146 238.401 450.093 238.991 450.039 239.582L450.442 241.395V247.839C450.442 249.048 450.469 250.162 450.522 251.182C450.603 252.203 450.71 253.169 450.844 254.082H452.939C453.046 254.566 453.046 255.063 452.939 255.573C452.026 255.519 451.126 255.492 450.24 255.492C449.354 255.492 448.549 255.492 447.824 255.492C447.099 255.492 446.293 255.492 445.407 255.492C444.548 255.492 443.648 255.519 442.708 255.573ZM455.195 255.573C455.087 255.063 455.087 254.566 455.195 254.082H457.289C457.423 253.169 457.517 252.203 457.571 251.182C457.652 250.162 457.692 249.048 457.692 247.839V242.684C457.692 241.583 457.477 240.656 457.047 239.904C456.618 239.152 455.852 238.776 454.751 238.776C453.812 238.776 453.006 239.018 452.335 239.501C451.69 239.958 451.059 240.589 450.442 241.395L450.039 239.582C450.63 238.75 451.502 238.011 452.657 237.367C453.812 236.695 455.275 236.36 457.047 236.36C458.712 236.36 460.028 236.695 460.995 237.367C461.961 238.038 462.673 239.032 463.129 240.347C463.049 240.75 462.995 241.22 462.968 241.757C462.942 242.294 462.928 242.764 462.928 243.167V247.839C462.928 249.048 462.955 250.162 463.009 251.182C463.089 252.203 463.197 253.169 463.331 254.082H465.425C465.533 254.566 465.533 255.063 465.425 255.573C464.512 255.519 463.613 255.492 462.727 255.492C461.841 255.492 461.035 255.492 460.31 255.492C459.585 255.492 458.779 255.492 457.893 255.492C457.034 255.492 456.134 255.519 455.195 255.573ZM485.85 255.694C485.876 255.452 485.903 255.076 485.93 254.566C485.984 254.029 486.024 253.465 486.051 252.874L485.648 251.062V234.95C485.648 232.56 485.514 230.506 485.245 228.787H483.151C483.043 228.277 483.043 227.78 483.151 227.297C484.708 227.297 486.172 227.257 487.541 227.176C488.911 227.069 490.227 226.908 491.489 226.693C491.328 227.284 491.207 228.076 491.126 229.069C491.046 230.063 490.978 231.097 490.925 232.171C490.898 233.218 490.884 234.144 490.884 234.95V247.839C490.884 250.229 491.019 252.283 491.287 254.002H493.18C493.288 254.485 493.288 254.982 493.18 255.492C491.623 255.492 490.307 255.506 489.233 255.532C488.159 255.559 487.031 255.613 485.85 255.694ZM480.009 256.096C478.452 256.096 477.042 255.747 475.78 255.049C474.545 254.351 473.565 253.304 472.84 251.907C472.114 250.484 471.752 248.685 471.752 246.51C471.752 244.281 472.168 242.415 473.001 240.911C473.86 239.408 475.028 238.28 476.505 237.528C478.009 236.749 479.727 236.36 481.661 236.36C483.594 236.36 485.151 236.642 486.333 237.206C487.514 237.77 488.589 238.521 489.555 239.461L485.648 243.086C485.648 241.69 485.433 240.629 485.004 239.904C484.574 239.152 484.064 238.642 483.473 238.374C482.909 238.105 482.399 237.971 481.943 237.971C480.654 237.971 479.606 238.669 478.801 240.065C477.995 241.435 477.592 243.516 477.592 246.309C477.592 248.833 477.928 250.766 478.599 252.109C479.271 253.425 480.224 254.082 481.459 254.082C482.211 254.082 482.923 253.827 483.594 253.317C484.292 252.807 484.977 252.042 485.648 251.021L486.051 252.874C485.46 253.814 484.655 254.593 483.634 255.21C482.614 255.801 481.405 256.096 480.009 256.096ZM509.116 237.971C508.122 237.971 507.344 238.307 506.78 238.978C506.243 239.622 505.853 240.522 505.612 241.677C505.397 242.804 505.289 244.12 505.289 245.624C505.289 247.154 505.41 248.605 505.652 249.974C505.894 251.317 506.31 252.404 506.901 253.237C507.518 254.069 508.391 254.485 509.519 254.485L509.317 256.096C507.438 256.096 505.746 255.72 504.242 254.969C502.765 254.217 501.597 253.102 500.738 251.625C499.879 250.149 499.449 248.349 499.449 246.228C499.449 244.16 499.879 242.402 500.738 240.952C501.597 239.475 502.765 238.347 504.242 237.568C505.746 236.763 507.438 236.36 509.317 236.36L509.116 237.971ZM509.519 254.485C510.512 254.485 511.278 254.163 511.815 253.519C512.379 252.847 512.768 251.934 512.983 250.78C513.224 249.625 513.345 248.309 513.345 246.832C513.345 245.275 513.224 243.825 512.983 242.482C512.741 241.139 512.311 240.052 511.694 239.22C511.103 238.387 510.244 237.971 509.116 237.971L509.317 236.36C511.197 236.36 512.875 236.736 514.352 237.488C515.856 238.239 517.037 239.354 517.897 240.831C518.756 242.281 519.186 244.08 519.186 246.228C519.186 248.269 518.756 250.028 517.897 251.505C517.037 252.981 515.856 254.123 514.352 254.928C512.875 255.707 511.197 256.096 509.317 256.096L509.519 254.485ZM525.723 255.573C525.616 255.063 525.616 254.566 525.723 254.082H527.818C527.952 253.169 528.046 252.203 528.1 251.182C528.18 250.162 528.221 249.048 528.221 247.839V244.617C528.221 242.227 528.086 240.173 527.818 238.454H525.925C525.817 237.944 525.817 237.447 525.925 236.964C527.482 236.964 528.811 236.924 529.912 236.843C531.013 236.736 532.195 236.575 533.457 236.36C533.35 236.709 533.269 237.192 533.215 237.81C533.162 238.401 533.108 238.991 533.054 239.582L533.457 241.395V247.839C533.457 249.048 533.484 250.162 533.538 251.182C533.618 252.203 533.725 253.169 533.86 254.082H535.954C536.062 254.566 536.062 255.063 535.954 255.573C535.041 255.519 534.142 255.492 533.256 255.492C532.369 255.492 531.564 255.492 530.839 255.492C530.114 255.492 529.308 255.492 528.422 255.492C527.563 255.492 526.663 255.519 525.723 255.573ZM538.21 255.573C538.102 255.063 538.102 254.566 538.21 254.082H540.304C540.439 253.169 540.533 252.203 540.586 251.182C540.667 250.162 540.707 249.048 540.707 247.839V242.684C540.707 241.583 540.492 240.656 540.063 239.904C539.633 239.152 538.868 238.776 537.767 238.776C536.827 238.776 536.021 239.018 535.35 239.501C534.706 239.958 534.075 240.589 533.457 241.395L533.054 239.582C533.645 238.75 534.518 238.011 535.672 237.367C536.827 236.695 538.29 236.36 540.063 236.36C541.728 236.36 543.043 236.695 544.01 237.367C544.977 238.038 545.688 239.032 546.145 240.347C546.064 240.75 546.011 241.22 545.984 241.757C545.957 242.294 545.943 242.764 545.943 243.167V247.839C545.943 249.048 545.97 250.162 546.024 251.182C546.105 252.203 546.212 253.169 546.346 254.082H548.441C548.548 254.566 548.548 255.063 548.441 255.573C547.528 255.519 546.628 255.492 545.742 255.492C544.856 255.492 544.05 255.492 543.325 255.492C542.6 255.492 541.795 255.492 540.909 255.492C540.049 255.492 539.15 255.519 538.21 255.573ZM564.394 237.971C563.4 237.971 562.622 238.307 562.058 238.978C561.521 239.622 561.131 240.522 560.89 241.677C560.675 242.804 560.567 244.12 560.567 245.624C560.567 247.154 560.688 248.605 560.93 249.974C561.172 251.317 561.588 252.404 562.179 253.237C562.796 254.069 563.669 254.485 564.797 254.485L564.595 256.096C562.716 256.096 561.024 255.72 559.52 254.969C558.043 254.217 556.875 253.102 556.016 251.625C555.157 250.149 554.727 248.349 554.727 246.228C554.727 244.16 555.157 242.402 556.016 240.952C556.875 239.475 558.043 238.347 559.52 237.568C561.024 236.763 562.716 236.36 564.595 236.36L564.394 237.971ZM564.797 254.485C565.79 254.485 566.556 254.163 567.093 253.519C567.657 252.847 568.046 251.934 568.261 250.78C568.502 249.625 568.623 248.309 568.623 246.832C568.623 245.275 568.502 243.825 568.261 242.482C568.019 241.139 567.589 240.052 566.972 239.22C566.381 238.387 565.522 237.971 564.394 237.971L564.595 236.36C566.475 236.36 568.153 236.736 569.63 237.488C571.134 238.239 572.315 239.354 573.175 240.831C574.034 242.281 574.464 244.08 574.464 246.228C574.464 248.269 574.034 250.028 573.175 251.505C572.315 252.981 571.134 254.123 569.63 254.928C568.153 255.707 566.475 256.096 564.595 256.096L564.797 254.485ZM603.122 256.096C601.135 256.096 599.376 255.72 597.846 254.969C596.342 254.217 595.161 253.102 594.301 251.625C593.442 250.149 593.012 248.349 593.012 246.228C593.012 244.16 593.429 242.402 594.261 240.952C595.093 239.475 596.235 238.347 597.685 237.568C599.135 236.763 600.8 236.36 602.679 236.36C604.29 236.36 605.767 236.682 607.11 237.326C608.453 237.944 609.527 238.951 610.332 240.347C611.138 241.717 611.541 243.543 611.541 245.825C610.654 245.637 609.755 245.53 608.842 245.503C607.956 245.449 606.922 245.422 605.74 245.422H597.322V244.013H605.66C605.66 242.16 605.432 240.656 604.975 239.501C604.546 238.347 603.713 237.77 602.478 237.77C601.484 237.77 600.706 238.145 600.142 238.897C599.605 239.622 599.215 240.616 598.974 241.878C598.759 243.14 598.651 244.59 598.651 246.228C598.651 248.537 599.081 250.39 599.94 251.787C600.826 253.183 602.182 253.881 604.008 253.881C605.19 253.881 606.278 253.639 607.271 253.156C608.265 252.646 609.258 251.679 610.252 250.256C610.547 250.39 610.789 250.551 610.977 250.739C611.165 250.9 611.353 251.088 611.541 251.303C610.386 252.968 609.178 254.19 607.916 254.969C606.68 255.72 605.083 256.096 603.122 256.096ZM629.756 255.573C629.649 255.063 629.649 254.566 629.756 254.082H631.851C631.985 253.169 632.079 252.203 632.133 251.182C632.213 250.162 632.253 249.048 632.253 247.839V244.617C632.253 242.227 632.119 240.173 631.851 238.454H629.957C629.85 237.944 629.85 237.447 629.957 236.964C631.515 236.964 632.844 236.924 633.945 236.843C635.046 236.736 636.228 236.575 637.49 236.36C637.382 236.709 637.302 237.192 637.248 237.81C637.194 238.401 637.141 238.991 637.087 239.582L637.49 241.395V247.839C637.49 249.048 637.516 250.162 637.57 251.182C637.651 252.203 637.758 253.169 637.892 254.082H639.584C639.692 254.566 639.692 255.063 639.584 255.573C638.671 255.519 637.839 255.492 637.087 255.492C636.335 255.492 635.597 255.492 634.871 255.492C634.146 255.492 633.341 255.492 632.455 255.492C631.595 255.492 630.696 255.519 629.756 255.573ZM642.243 255.573C642.135 255.063 642.135 254.566 642.243 254.082H643.934C644.068 253.169 644.162 252.203 644.216 251.182C644.297 250.162 644.337 249.048 644.337 247.839V242.684C644.337 241.583 644.162 240.656 643.813 239.904C643.464 239.152 642.793 238.776 641.799 238.776C640.752 238.776 639.92 239.018 639.302 239.501C638.711 239.958 638.107 240.589 637.49 241.395L637.087 239.582C637.678 238.75 638.523 238.011 639.624 237.367C640.725 236.695 642.216 236.36 644.095 236.36C645.76 236.36 647.009 236.695 647.841 237.367C648.674 238.038 649.318 239.032 649.775 240.347C649.694 240.75 649.64 241.22 649.614 241.757C649.587 242.294 649.573 242.764 649.573 243.167V247.839C649.573 249.048 649.6 250.162 649.654 251.182C649.734 252.203 649.842 253.169 649.976 254.082H651.668C651.775 254.566 651.775 255.063 651.668 255.573C650.755 255.519 649.922 255.492 649.17 255.492C648.419 255.492 647.68 255.492 646.955 255.492C646.23 255.492 645.492 255.492 644.74 255.492C644.015 255.492 643.182 255.519 642.243 255.573ZM654.326 255.573C654.219 255.063 654.219 254.566 654.326 254.082H656.018C656.152 253.169 656.246 252.203 656.3 251.182C656.38 250.162 656.421 249.048 656.421 247.839V242.684C656.421 241.583 656.246 240.656 655.897 239.904C655.548 239.152 654.877 238.776 653.883 238.776C652.836 238.776 652.003 239.018 651.386 239.501C650.795 239.958 650.191 240.589 649.573 241.395L649.17 239.582C649.761 238.75 650.607 238.011 651.708 237.367C652.809 236.695 654.299 236.36 656.179 236.36C657.844 236.36 659.093 236.695 659.925 237.367C660.757 238.038 661.402 239.032 661.858 240.347C661.778 240.75 661.724 241.22 661.697 241.757C661.67 242.294 661.657 242.764 661.657 243.167V247.839C661.657 249.048 661.684 250.162 661.737 251.182C661.818 252.203 661.925 253.169 662.06 254.082H664.154C664.262 254.566 664.262 255.063 664.154 255.573C663.241 255.519 662.342 255.492 661.456 255.492C660.569 255.492 659.764 255.492 659.039 255.492C658.314 255.492 657.575 255.492 656.823 255.492C656.098 255.492 655.266 255.519 654.326 255.573ZM676.766 256.096C674.806 256.096 673.221 255.626 672.013 254.687C670.805 253.747 670.2 252.391 670.2 250.618C670.2 249.303 670.549 248.229 671.248 247.396C671.946 246.537 672.899 245.892 674.107 245.463C675.316 245.033 676.672 244.818 678.176 244.818C679.062 244.818 679.84 244.885 680.512 245.02C681.183 245.154 681.814 245.328 682.405 245.543V247.235C681.572 246.832 680.606 246.631 679.505 246.631C678.377 246.631 677.41 246.967 676.605 247.638C675.826 248.309 675.437 249.276 675.437 250.538C675.437 251.666 675.705 252.538 676.242 253.156C676.806 253.774 677.545 254.082 678.458 254.082C679.183 254.082 679.894 253.908 680.592 253.559C681.291 253.183 681.895 252.686 682.405 252.068L682.808 253.881C682.11 254.525 681.25 255.063 680.23 255.492C679.209 255.895 678.055 256.096 676.766 256.096ZM687.641 243.046V251.666C687.641 252.659 687.829 253.317 688.205 253.639C688.608 253.935 689.225 254.082 690.058 254.082C690.138 254.566 690.138 255.063 690.058 255.573C689.44 255.68 688.85 255.761 688.286 255.814C687.749 255.868 687.252 255.895 686.795 255.895C685.641 255.895 684.728 255.734 684.056 255.412C683.412 255.063 682.996 254.552 682.808 253.881L682.405 252.068V242.845C682.405 241.475 682.19 240.307 681.76 239.34C681.331 238.347 680.552 237.85 679.424 237.85C678.296 237.85 677.464 238.293 676.927 239.179C676.417 240.065 676.256 241.207 676.444 242.603H671.207C671.207 241.368 671.503 240.294 672.094 239.381C672.711 238.441 673.638 237.702 674.873 237.165C676.135 236.628 677.719 236.36 679.626 236.36C682.606 236.36 684.687 236.964 685.869 238.172C687.05 239.354 687.641 240.978 687.641 243.046ZM709.831 251.062L710.234 252.874C709.643 253.706 708.837 254.458 707.817 255.13C706.796 255.774 705.4 256.096 703.628 256.096C701.963 256.096 700.647 255.761 699.68 255.089C698.714 254.418 698.002 253.425 697.546 252.109C697.626 251.706 697.68 251.236 697.707 250.699C697.734 250.162 697.747 249.692 697.747 249.289V244.617C697.747 242.227 697.613 240.173 697.344 238.454H695.653C695.545 237.944 695.545 237.447 695.653 236.964C697.21 236.964 698.606 236.924 699.842 236.843C701.077 236.736 702.325 236.575 703.588 236.36C703.426 236.95 703.306 237.743 703.225 238.736C703.144 239.73 703.077 240.764 703.024 241.838C702.997 242.885 702.983 243.811 702.983 244.617V249.773C702.983 250.847 703.185 251.773 703.588 252.552C704.017 253.304 704.729 253.68 705.722 253.68C706.582 253.68 707.333 253.451 707.978 252.995C708.622 252.512 709.24 251.867 709.831 251.062ZM717.363 254.002C717.47 254.485 717.47 254.982 717.363 255.492C715.805 255.492 714.476 255.532 713.375 255.613C712.274 255.72 711.093 255.882 709.831 256.096C709.938 255.747 710.019 255.277 710.072 254.687C710.153 254.069 710.207 253.465 710.234 252.874L709.831 251.062V244.617C709.831 242.227 709.696 240.173 709.428 238.454H707.736C707.629 237.944 707.629 237.447 707.736 236.964C709.294 236.964 710.69 236.924 711.925 236.843C713.16 236.736 714.409 236.575 715.671 236.36C715.51 236.95 715.389 237.743 715.309 238.736C715.228 239.73 715.161 240.764 715.107 241.838C715.08 242.885 715.067 243.811 715.067 244.617V247.839C715.067 250.229 715.201 252.283 715.47 254.002H717.363ZM731.325 256.096C730.304 256.096 729.123 255.976 727.78 255.734C726.465 255.519 725.27 255.237 724.195 254.888V248.927C724.625 248.846 725.055 248.846 725.484 248.927C725.86 250.592 726.518 251.934 727.458 252.955C728.398 253.975 729.727 254.485 731.446 254.485C732.547 254.485 733.446 254.284 734.144 253.881C734.869 253.478 735.232 252.82 735.232 251.907C735.232 251.155 734.963 250.565 734.426 250.135C733.916 249.705 733.245 249.356 732.412 249.088C731.607 248.819 730.734 248.537 729.794 248.242C728.881 247.947 728.009 247.584 727.176 247.154C726.371 246.698 725.699 246.094 725.162 245.342C724.652 244.563 724.397 243.543 724.397 242.281C724.397 240.401 725.095 238.951 726.491 237.931C727.888 236.883 729.808 236.36 732.251 236.36C733.513 236.36 734.641 236.481 735.635 236.722C736.655 236.964 737.595 237.286 738.454 237.689V243.207C738.025 243.288 737.595 243.288 737.165 243.207C736.816 241.435 736.199 240.119 735.312 239.26C734.426 238.401 733.352 237.971 732.09 237.971C730.989 237.971 730.17 238.186 729.633 238.615C729.096 239.045 728.828 239.649 728.828 240.428C728.828 241.18 729.096 241.771 729.633 242.2C730.17 242.63 730.868 242.992 731.728 243.288C732.587 243.583 733.486 243.878 734.426 244.174C735.393 244.442 736.306 244.805 737.165 245.261C738.025 245.718 738.723 246.322 739.26 247.074C739.797 247.826 740.065 248.819 740.065 250.055C740.065 251.934 739.3 253.411 737.769 254.485C736.266 255.559 734.117 256.096 731.325 256.096ZM759.86 246.429H747.777C747.75 246.188 747.723 245.866 747.696 245.463C747.696 245.033 747.696 244.603 747.696 244.174C747.723 243.744 747.75 243.422 747.777 243.207H759.86C759.914 243.422 759.941 243.744 759.941 244.174C759.968 244.603 759.968 245.033 759.941 245.463C759.941 245.866 759.914 246.188 759.86 246.429ZM775.236 256.096C773.437 256.096 772.041 255.774 771.047 255.13C770.053 254.458 769.557 253.183 769.557 251.303V243.006C769.557 242.066 769.543 241.126 769.516 240.186C769.516 239.246 769.49 238.307 769.436 237.367C769.382 236.427 769.288 235.487 769.154 234.547C769.745 234.413 770.362 234.185 771.007 233.862C771.651 233.513 772.229 233.111 772.739 232.654C773.249 232.171 773.571 231.661 773.705 231.123C774.135 231.043 774.565 231.043 774.994 231.123C774.887 233.084 774.82 235.057 774.793 237.044C774.793 239.032 774.793 241.019 774.793 243.006V251.303C774.793 252.297 774.954 252.981 775.276 253.357C775.599 253.706 776.055 253.881 776.646 253.881C777.022 253.881 777.411 253.787 777.814 253.599C778.217 253.411 778.593 253.129 778.942 252.753C779.156 252.887 779.344 253.062 779.506 253.277C779.694 253.465 779.855 253.666 779.989 253.881C779.506 254.472 778.888 254.995 778.136 255.452C777.384 255.882 776.418 256.096 775.236 256.096ZM766.737 238.776C766.63 238.159 766.63 237.555 766.737 236.964H779.425C779.532 237.555 779.532 238.159 779.425 238.776H766.737ZM785.52 255.573C785.413 255.063 785.413 254.566 785.52 254.082H787.615C787.749 253.169 787.843 252.203 787.897 251.182C787.977 250.162 788.018 249.048 788.018 247.839V244.617C788.018 242.227 787.883 240.173 787.615 238.454H785.722C785.614 237.944 785.614 237.447 785.722 236.964C787.279 236.964 788.608 236.924 789.709 236.843C790.81 236.736 791.992 236.575 793.254 236.36C793.146 236.709 793.066 237.219 793.012 237.89C792.958 238.535 792.905 239.3 792.851 240.186L793.254 242.402V247.839C793.254 249.048 793.281 250.162 793.334 251.182C793.415 252.203 793.522 253.169 793.657 254.082H796.959C797.067 254.566 797.067 255.063 796.959 255.573C795.429 255.519 794.167 255.492 793.173 255.492C792.207 255.492 791.361 255.492 790.636 255.492C789.911 255.492 789.105 255.492 788.219 255.492C787.36 255.492 786.46 255.519 785.52 255.573ZM797.644 242.603C797.752 241.502 797.698 240.656 797.483 240.065C797.295 239.475 796.906 239.179 796.315 239.179C795.805 239.179 795.295 239.421 794.784 239.904C794.301 240.361 793.791 241.193 793.254 242.402L792.851 240.186C793.496 238.951 794.261 238.011 795.147 237.367C796.06 236.695 797.215 236.36 798.611 236.36C799.954 236.36 800.947 236.669 801.592 237.286C802.236 237.877 802.639 238.642 802.8 239.582C802.961 240.522 802.988 241.529 802.88 242.603H797.644ZM814.633 256.096C812.673 256.096 811.088 255.626 809.88 254.687C808.672 253.747 808.067 252.391 808.067 250.618C808.067 249.303 808.416 248.229 809.115 247.396C809.813 246.537 810.766 245.892 811.974 245.463C813.183 245.033 814.539 244.818 816.043 244.818C816.929 244.818 817.707 244.885 818.379 245.02C819.05 245.154 819.681 245.328 820.272 245.543V247.235C819.439 246.832 818.473 246.631 817.372 246.631C816.244 246.631 815.277 246.967 814.472 247.638C813.693 248.309 813.304 249.276 813.304 250.538C813.304 251.666 813.572 252.538 814.109 253.156C814.673 253.774 815.412 254.082 816.325 254.082C817.05 254.082 817.761 253.908 818.459 253.559C819.157 253.183 819.762 252.686 820.272 252.068L820.675 253.881C819.976 254.525 819.117 255.063 818.097 255.492C817.076 255.895 815.922 256.096 814.633 256.096ZM825.508 243.046V251.666C825.508 252.659 825.696 253.317 826.072 253.639C826.475 253.935 827.092 254.082 827.925 254.082C828.005 254.566 828.005 255.063 827.925 255.573C827.307 255.68 826.716 255.761 826.153 255.814C825.616 255.868 825.119 255.895 824.662 255.895C823.508 255.895 822.595 255.734 821.923 255.412C821.279 255.063 820.863 254.552 820.675 253.881L820.272 252.068V242.845C820.272 241.475 820.057 240.307 819.627 239.34C819.198 238.347 818.419 237.85 817.291 237.85C816.163 237.85 815.331 238.293 814.794 239.179C814.284 240.065 814.123 241.207 814.311 242.603H809.074C809.074 241.368 809.37 240.294 809.96 239.381C810.578 238.441 811.504 237.702 812.74 237.165C814.002 236.628 815.586 236.36 817.493 236.36C820.473 236.36 822.554 236.964 823.736 238.172C824.917 239.354 825.508 240.978 825.508 243.046ZM841.495 256.096C839.696 256.096 838.299 255.774 837.306 255.13C836.312 254.458 835.815 253.183 835.815 251.303V243.006C835.815 242.066 835.802 241.126 835.775 240.186C835.775 239.246 835.748 238.307 835.695 237.367C835.641 236.427 835.547 235.487 835.413 234.547C836.003 234.413 836.621 234.185 837.265 233.862C837.91 233.513 838.487 233.111 838.997 232.654C839.508 232.171 839.83 231.661 839.964 231.123C840.394 231.043 840.823 231.043 841.253 231.123C841.146 233.084 841.078 235.057 841.052 237.044C841.052 239.032 841.052 241.019 841.052 243.006V251.303C841.052 252.297 841.213 252.981 841.535 253.357C841.857 253.706 842.314 253.881 842.904 253.881C843.28 253.881 843.67 253.787 844.073 253.599C844.475 253.411 844.851 253.129 845.2 252.753C845.415 252.887 845.603 253.062 845.764 253.277C845.952 253.465 846.113 253.666 846.248 253.881C845.764 254.472 845.147 254.995 844.395 255.452C843.643 255.882 842.676 256.096 841.495 256.096ZM832.996 238.776C832.888 238.159 832.888 237.555 832.996 236.964H845.684C845.791 237.555 845.791 238.159 845.684 238.776H832.996ZM861.375 237.971C860.381 237.971 859.603 238.307 859.039 238.978C858.502 239.622 858.112 240.522 857.871 241.677C857.656 242.804 857.548 244.12 857.548 245.624C857.548 247.154 857.669 248.605 857.911 249.974C858.153 251.317 858.569 252.404 859.159 253.237C859.777 254.069 860.65 254.485 861.778 254.485L861.576 256.096C859.697 256.096 858.005 255.72 856.501 254.969C855.024 254.217 853.856 253.102 852.997 251.625C852.138 250.149 851.708 248.349 851.708 246.228C851.708 244.16 852.138 242.402 852.997 240.952C853.856 239.475 855.024 238.347 856.501 237.568C858.005 236.763 859.697 236.36 861.576 236.36L861.375 237.971ZM861.778 254.485C862.771 254.485 863.536 254.163 864.073 253.519C864.637 252.847 865.027 251.934 865.242 250.78C865.483 249.625 865.604 248.309 865.604 246.832C865.604 245.275 865.483 243.825 865.242 242.482C865 241.139 864.57 240.052 863.953 239.22C863.362 238.387 862.503 237.971 861.375 237.971L861.576 236.36C863.456 236.36 865.134 236.736 866.611 237.488C868.115 238.239 869.296 239.354 870.156 240.831C871.015 242.281 871.445 244.08 871.445 246.228C871.445 248.269 871.015 250.028 870.156 251.505C869.296 252.981 868.115 254.123 866.611 254.928C865.134 255.707 863.456 256.096 861.576 256.096L861.778 254.485ZM885.837 256.096C884.816 256.096 883.635 255.976 882.292 255.734C880.976 255.519 879.781 255.237 878.707 254.888V248.927C879.137 248.846 879.567 248.846 879.996 248.927C880.372 250.592 881.03 251.934 881.97 252.955C882.91 253.975 884.239 254.485 885.957 254.485C887.058 254.485 887.958 254.284 888.656 253.881C889.381 253.478 889.744 252.82 889.744 251.907C889.744 251.155 889.475 250.565 888.938 250.135C888.428 249.705 887.757 249.356 886.924 249.088C886.119 248.819 885.246 248.537 884.306 248.242C883.393 247.947 882.52 247.584 881.688 247.154C880.882 246.698 880.211 246.094 879.674 245.342C879.164 244.563 878.909 243.543 878.909 242.281C878.909 240.401 879.607 238.951 881.003 237.931C882.4 236.883 884.319 236.36 886.763 236.36C888.025 236.36 889.153 236.481 890.146 236.722C891.167 236.964 892.107 237.286 892.966 237.689V243.207C892.536 243.288 892.107 243.288 891.677 243.207C891.328 241.435 890.71 240.119 889.824 239.26C888.938 238.401 887.864 237.971 886.602 237.971C885.501 237.971 884.682 238.186 884.145 238.615C883.608 239.045 883.339 239.649 883.339 240.428C883.339 241.18 883.608 241.771 884.145 242.2C884.682 242.63 885.38 242.992 886.239 243.288C887.099 243.583 887.998 243.878 888.938 244.174C889.905 244.442 890.818 244.805 891.677 245.261C892.536 245.718 893.235 246.322 893.772 247.074C894.309 247.826 894.577 248.819 894.577 250.055C894.577 251.934 893.812 253.411 892.281 254.485C890.778 255.559 888.629 256.096 885.837 256.096ZM927.148 255.694C927.175 255.452 927.202 255.076 927.229 254.566C927.283 254.029 927.323 253.465 927.35 252.874L926.947 251.062V234.95C926.947 232.56 926.813 230.506 926.544 228.787H924.45C924.342 228.277 924.342 227.78 924.45 227.297C926.007 227.297 927.47 227.257 928.84 227.176C930.209 227.069 931.525 226.908 932.787 226.693C932.626 227.284 932.505 228.076 932.425 229.069C932.344 230.063 932.277 231.097 932.223 232.171C932.197 233.218 932.183 234.144 932.183 234.95V247.839C932.183 250.229 932.317 252.283 932.586 254.002H934.479C934.586 254.485 934.586 254.982 934.479 255.492C932.922 255.492 931.606 255.506 930.532 255.532C929.458 255.559 928.33 255.613 927.148 255.694ZM921.308 256.096C919.75 256.096 918.341 255.747 917.079 255.049C915.843 254.351 914.863 253.304 914.138 251.907C913.413 250.484 913.051 248.685 913.051 246.51C913.051 244.281 913.467 242.415 914.299 240.911C915.159 239.408 916.327 238.28 917.804 237.528C919.307 236.749 921.026 236.36 922.959 236.36C924.893 236.36 926.45 236.642 927.632 237.206C928.813 237.77 929.887 238.521 930.854 239.461L926.947 243.086C926.947 241.69 926.732 240.629 926.302 239.904C925.873 239.152 925.363 238.642 924.772 238.374C924.208 238.105 923.698 237.971 923.241 237.971C921.952 237.971 920.905 238.669 920.099 240.065C919.294 241.435 918.891 243.516 918.891 246.309C918.891 248.833 919.227 250.766 919.898 252.109C920.569 253.425 921.523 254.082 922.758 254.082C923.51 254.082 924.221 253.827 924.893 253.317C925.591 252.807 926.276 252.042 926.947 251.021L927.35 252.874C926.759 253.814 925.953 254.593 924.933 255.21C923.913 255.801 922.704 256.096 921.308 256.096ZM950.858 256.096C948.871 256.096 947.112 255.72 945.581 254.969C944.077 254.217 942.896 253.102 942.037 251.625C941.177 250.149 940.748 248.349 940.748 246.228C940.748 244.16 941.164 242.402 941.996 240.952C942.829 239.475 943.97 238.347 945.42 237.568C946.87 236.763 948.535 236.36 950.415 236.36C952.026 236.36 953.503 236.682 954.845 237.326C956.188 237.944 957.262 238.951 958.068 240.347C958.873 241.717 959.276 243.543 959.276 245.825C958.39 245.637 957.49 245.53 956.577 245.503C955.691 245.449 954.657 245.422 953.476 245.422H945.058V244.013H953.395C953.395 242.16 953.167 240.656 952.711 239.501C952.281 238.347 951.448 237.77 950.213 237.77C949.22 237.77 948.441 238.145 947.877 238.897C947.34 239.622 946.951 240.616 946.709 241.878C946.494 243.14 946.387 244.59 946.387 246.228C946.387 248.537 946.816 250.39 947.676 251.787C948.562 253.183 949.918 253.881 951.744 253.881C952.925 253.881 954.013 253.639 955.006 253.156C956 252.646 956.993 251.679 957.987 250.256C958.282 250.39 958.524 250.551 958.712 250.739C958.9 250.9 959.088 251.088 959.276 251.303C958.121 252.968 956.913 254.19 955.651 254.969C954.416 255.72 952.818 256.096 950.858 256.096ZM448.866 308.096C446.905 308.096 445.321 307.626 444.113 306.687C442.904 305.747 442.3 304.391 442.3 302.618C442.3 301.303 442.649 300.229 443.347 299.396C444.046 298.537 444.999 297.892 446.207 297.463C447.416 297.033 448.772 296.818 450.275 296.818C451.161 296.818 451.94 296.885 452.612 297.02C453.283 297.154 453.914 297.328 454.505 297.543V299.235C453.672 298.832 452.706 298.631 451.605 298.631C450.477 298.631 449.51 298.967 448.704 299.638C447.926 300.309 447.536 301.276 447.536 302.538C447.536 303.666 447.805 304.538 448.342 305.156C448.906 305.774 449.644 306.082 450.557 306.082C451.282 306.082 451.994 305.908 452.692 305.559C453.39 305.183 453.994 304.686 454.505 304.068L454.907 305.881C454.209 306.525 453.35 307.063 452.33 307.492C451.309 307.895 450.155 308.096 448.866 308.096ZM459.741 295.046V303.666C459.741 304.659 459.929 305.317 460.305 305.639C460.708 305.935 461.325 306.082 462.158 306.082C462.238 306.566 462.238 307.063 462.158 307.573C461.54 307.68 460.949 307.761 460.385 307.814C459.848 307.868 459.352 307.895 458.895 307.895C457.74 307.895 456.827 307.734 456.156 307.412C455.512 307.063 455.095 306.552 454.907 305.881L454.505 304.068V294.845C454.505 293.475 454.29 292.307 453.86 291.34C453.431 290.347 452.652 289.85 451.524 289.85C450.396 289.85 449.564 290.293 449.027 291.179C448.517 292.065 448.355 293.207 448.543 294.603H443.307C443.307 293.368 443.602 292.294 444.193 291.381C444.811 290.441 445.737 289.702 446.972 289.165C448.235 288.628 449.819 288.36 451.725 288.36C454.706 288.36 456.787 288.964 457.969 290.172C459.15 291.354 459.741 292.978 459.741 295.046ZM467.833 307.573C467.725 307.063 467.725 306.566 467.833 306.082H469.927C470.062 305.169 470.156 304.203 470.209 303.182C470.29 302.162 470.33 301.048 470.33 299.839V296.617C470.33 294.227 470.196 292.173 469.927 290.454H468.034C467.927 289.944 467.927 289.447 468.034 288.964C469.592 288.964 470.921 288.924 472.022 288.843C473.123 288.736 474.304 288.575 475.566 288.36C475.459 288.709 475.378 289.192 475.325 289.81C475.271 290.401 475.217 290.991 475.164 291.582L475.566 293.395V299.839C475.566 301.048 475.593 302.162 475.647 303.182C475.727 304.203 475.835 305.169 475.969 306.082H478.064C478.171 306.566 478.171 307.063 478.064 307.573C477.151 307.519 476.251 307.492 475.365 307.492C474.479 307.492 473.673 307.492 472.948 307.492C472.223 307.492 471.418 307.492 470.532 307.492C469.672 307.492 468.773 307.519 467.833 307.573ZM480.319 307.573C480.212 307.063 480.212 306.566 480.319 306.082H482.414C482.548 305.169 482.642 304.203 482.696 303.182C482.776 302.162 482.817 301.048 482.817 299.839V294.684C482.817 293.583 482.602 292.656 482.172 291.904C481.742 291.152 480.977 290.776 479.876 290.776C478.936 290.776 478.131 291.018 477.459 291.501C476.815 291.958 476.184 292.589 475.566 293.395L475.164 291.582C475.754 290.75 476.627 290.011 477.782 289.367C478.936 288.695 480.4 288.36 482.172 288.36C483.837 288.36 485.153 288.695 486.119 289.367C487.086 290.038 487.798 291.032 488.254 292.347C488.174 292.75 488.12 293.22 488.093 293.757C488.066 294.294 488.053 294.764 488.053 295.167V299.839C488.053 301.048 488.08 302.162 488.133 303.182C488.214 304.203 488.321 305.169 488.456 306.082H490.55C490.658 306.566 490.658 307.063 490.55 307.573C489.637 307.519 488.738 307.492 487.851 307.492C486.965 307.492 486.16 307.492 485.435 307.492C484.71 307.492 483.904 307.492 483.018 307.492C482.159 307.492 481.259 307.519 480.319 307.573ZM507.067 306.082C507.175 306.566 507.175 307.063 507.067 307.573C506.154 307.519 505.214 307.492 504.248 307.492C503.308 307.492 502.475 307.492 501.75 307.492C501.025 307.492 500.193 307.492 499.253 307.492C498.313 307.492 497.373 307.519 496.434 307.573C496.326 307.063 496.326 306.566 496.434 306.082H498.73C498.864 305.169 498.958 304.203 499.011 303.182C499.092 302.162 499.132 301.048 499.132 299.839V296.617C499.132 294.227 498.998 292.173 498.73 290.454H496.635C496.528 289.944 496.528 289.447 496.635 288.964C498.192 288.964 499.656 288.924 501.025 288.843C502.395 288.736 503.711 288.575 504.973 288.36C504.812 288.95 504.691 289.743 504.61 290.736C504.53 291.73 504.463 292.764 504.409 293.838C504.382 294.885 504.369 295.811 504.369 296.617V299.839C504.369 301.048 504.395 302.162 504.449 303.182C504.53 304.203 504.637 305.169 504.771 306.082H507.067ZM501.75 279.74L504.57 281.23V284.493L501.75 285.983L498.931 284.493V281.23L501.75 279.74ZM512.962 307.573C512.855 307.063 512.855 306.566 512.962 306.082H515.057C515.191 305.169 515.285 304.203 515.339 303.182C515.419 302.162 515.46 301.048 515.46 299.839V296.617C515.46 294.227 515.325 292.173 515.057 290.454H513.164C513.056 289.944 513.056 289.447 513.164 288.964C514.721 288.964 516.05 288.924 517.151 288.843C518.252 288.736 519.434 288.575 520.696 288.36C520.589 288.709 520.508 289.192 520.454 289.81C520.401 290.401 520.347 290.991 520.293 291.582L520.696 293.395V299.839C520.696 301.048 520.723 302.162 520.777 303.182C520.857 304.203 520.965 305.169 521.099 306.082H522.79C522.898 306.566 522.898 307.063 522.79 307.573C521.877 307.519 521.045 307.492 520.293 307.492C519.541 307.492 518.803 307.492 518.078 307.492C517.353 307.492 516.547 307.492 515.661 307.492C514.802 307.492 513.902 307.519 512.962 307.573ZM525.449 307.573C525.341 307.063 525.341 306.566 525.449 306.082H527.141C527.275 305.169 527.369 304.203 527.423 303.182C527.503 302.162 527.543 301.048 527.543 299.839V294.684C527.543 293.583 527.369 292.656 527.02 291.904C526.671 291.152 525.999 290.776 525.006 290.776C523.959 290.776 523.126 291.018 522.509 291.501C521.918 291.958 521.314 292.589 520.696 293.395L520.293 291.582C520.884 290.75 521.73 290.011 522.831 289.367C523.932 288.695 525.422 288.36 527.302 288.36C528.967 288.36 530.215 288.695 531.048 289.367C531.88 290.038 532.525 291.032 532.981 292.347C532.9 292.75 532.847 293.22 532.82 293.757C532.793 294.294 532.78 294.764 532.78 295.167V299.839C532.78 301.048 532.806 302.162 532.86 303.182C532.941 304.203 533.048 305.169 533.182 306.082H534.874C534.982 306.566 534.982 307.063 534.874 307.573C533.961 307.519 533.129 307.492 532.377 307.492C531.625 307.492 530.887 307.492 530.162 307.492C529.436 307.492 528.698 307.492 527.946 307.492C527.221 307.492 526.389 307.519 525.449 307.573ZM537.533 307.573C537.425 307.063 537.425 306.566 537.533 306.082H539.224C539.359 305.169 539.452 304.203 539.506 303.182C539.587 302.162 539.627 301.048 539.627 299.839V294.684C539.627 293.583 539.452 292.656 539.103 291.904C538.754 291.152 538.083 290.776 537.089 290.776C536.042 290.776 535.21 291.018 534.592 291.501C534.001 291.958 533.397 292.589 532.78 293.395L532.377 291.582C532.968 290.75 533.813 290.011 534.914 289.367C536.015 288.695 537.506 288.36 539.385 288.36C541.05 288.36 542.299 288.695 543.131 289.367C543.964 290.038 544.608 291.032 545.065 292.347C544.984 292.75 544.93 293.22 544.904 293.757C544.877 294.294 544.863 294.764 544.863 295.167V299.839C544.863 301.048 544.89 302.162 544.944 303.182C545.024 304.203 545.132 305.169 545.266 306.082H547.361C547.468 306.566 547.468 307.063 547.361 307.573C546.448 307.519 545.548 307.492 544.662 307.492C543.776 307.492 542.97 307.492 542.245 307.492C541.52 307.492 540.782 307.492 540.03 307.492C539.305 307.492 538.472 307.519 537.533 307.573ZM559.972 308.096C558.012 308.096 556.428 307.626 555.219 306.687C554.011 305.747 553.407 304.391 553.407 302.618C553.407 301.303 553.756 300.229 554.454 299.396C555.152 298.537 556.105 297.892 557.314 297.463C558.522 297.033 559.878 296.818 561.382 296.818C562.268 296.818 563.047 296.885 563.718 297.02C564.389 297.154 565.021 297.328 565.611 297.543V299.235C564.779 298.832 563.812 298.631 562.711 298.631C561.583 298.631 560.617 298.967 559.811 299.638C559.032 300.309 558.643 301.276 558.643 302.538C558.643 303.666 558.912 304.538 559.449 305.156C560.013 305.774 560.751 306.082 561.664 306.082C562.389 306.082 563.101 305.908 563.799 305.559C564.497 305.183 565.101 304.686 565.611 304.068L566.014 305.881C565.316 306.525 564.457 307.063 563.436 307.492C562.416 307.895 561.261 308.096 559.972 308.096ZM570.848 295.046V303.666C570.848 304.659 571.035 305.317 571.411 305.639C571.814 305.935 572.432 306.082 573.264 306.082C573.345 306.566 573.345 307.063 573.264 307.573C572.647 307.68 572.056 307.761 571.492 307.814C570.955 307.868 570.458 307.895 570.002 307.895C568.847 307.895 567.934 307.734 567.263 307.412C566.618 307.063 566.202 306.552 566.014 305.881L565.611 304.068V294.845C565.611 293.475 565.396 292.307 564.967 291.34C564.537 290.347 563.758 289.85 562.631 289.85C561.503 289.85 560.67 290.293 560.133 291.179C559.623 292.065 559.462 293.207 559.65 294.603H554.414C554.414 293.368 554.709 292.294 555.3 291.381C555.917 290.441 556.844 289.702 558.079 289.165C559.341 288.628 560.925 288.36 562.832 288.36C565.813 288.36 567.894 288.964 569.075 290.172C570.257 291.354 570.848 292.978 570.848 295.046ZM589.493 306.082C589.6 306.566 589.6 307.063 589.493 307.573C588.58 307.519 587.64 307.492 586.673 307.492C585.733 307.492 584.901 307.492 584.176 307.492C583.451 307.492 582.618 307.492 581.678 307.492C580.739 307.492 579.799 307.519 578.859 307.573C578.752 307.063 578.752 306.566 578.859 306.082H581.155C581.289 305.169 581.383 304.203 581.437 303.182C581.517 302.162 581.558 301.048 581.558 299.839V296.617C581.558 294.227 581.423 292.173 581.155 290.454H579.06C578.953 289.944 578.953 289.447 579.06 288.964C580.618 288.964 582.081 288.924 583.451 288.843C584.82 288.736 586.136 288.575 587.398 288.36C587.237 288.95 587.116 289.743 587.036 290.736C586.955 291.73 586.888 292.764 586.834 293.838C586.807 294.885 586.794 295.811 586.794 296.617V299.839C586.794 301.048 586.821 302.162 586.874 303.182C586.955 304.203 587.062 305.169 587.197 306.082H589.493ZM584.176 279.74L586.995 281.23V284.493L584.176 285.983L581.356 284.493V281.23L584.176 279.74ZM603.242 308.096C602.222 308.096 601.04 307.976 599.698 307.734C598.382 307.519 597.187 307.237 596.113 306.888V300.927C596.542 300.846 596.972 300.846 597.402 300.927C597.778 302.592 598.435 303.934 599.375 304.955C600.315 305.975 601.644 306.485 603.363 306.485C604.464 306.485 605.363 306.284 606.062 305.881C606.787 305.478 607.149 304.82 607.149 303.907C607.149 303.155 606.881 302.565 606.344 302.135C605.833 301.705 605.162 301.356 604.33 301.088C603.524 300.819 602.651 300.537 601.711 300.242C600.798 299.947 599.926 299.584 599.093 299.154C598.288 298.698 597.616 298.094 597.079 297.342C596.569 296.563 596.314 295.543 596.314 294.281C596.314 292.401 597.012 290.951 598.409 289.931C599.805 288.883 601.725 288.36 604.168 288.36C605.431 288.36 606.558 288.481 607.552 288.722C608.572 288.964 609.512 289.286 610.371 289.689V295.207C609.942 295.288 609.512 295.288 609.082 295.207C608.733 293.435 608.116 292.119 607.23 291.26C606.344 290.401 605.269 289.971 604.007 289.971C602.906 289.971 602.087 290.186 601.55 290.615C601.013 291.045 600.745 291.649 600.745 292.428C600.745 293.18 601.013 293.771 601.55 294.2C602.087 294.63 602.786 294.992 603.645 295.288C604.504 295.583 605.404 295.878 606.344 296.174C607.31 296.442 608.223 296.805 609.082 297.261C609.942 297.718 610.64 298.322 611.177 299.074C611.714 299.826 611.983 300.819 611.983 302.055C611.983 303.934 611.217 305.411 609.687 306.485C608.183 307.559 606.035 308.096 603.242 308.096Z" fill="white"/>
<path d="M684.886 124.117C677.153 141.879 682.953 154.042 695.76 154.621C715.816 155.393 733.455 139.948 743.846 127.206C745.054 125.662 746.987 125.662 747.954 127.399C748.92 128.944 748.195 134.35 743.846 139.369C733.697 151.146 715.091 160.026 696.485 160.219C665.796 160.606 655.164 136.473 670.871 111.569C686.577 86.664 711.225 76.6249 723.307 82.2236C729.348 85.1195 733.697 88.0154 737.563 92.2627C741.913 96.8961 739.98 108.673 729.831 118.519C717.991 130.102 701.801 135.122 684.886 124.117ZM687.061 119.87C698.901 125.855 708.808 117.553 715.816 110.217C723.548 102.109 728.864 92.0696 725.481 89.946C720.407 86.664 700.351 98.2475 688.994 116.588C688.269 117.746 687.544 118.905 687.061 119.87Z" fill="white"/>
<path d="M632.545 136.28C626.021 147.478 625.779 155.393 633.995 155.007C643.902 154.621 656.951 141.686 665.408 128.365C666.616 126.627 668.308 126.627 669.274 128.172C670.241 129.909 670.482 134.929 667.341 140.141C660.817 150.76 645.835 160.992 632.545 160.413C619.496 159.833 612.972 154.042 612.972 144.968C605.24 152.69 594.366 159.833 583.009 159.833C560.536 159.833 556.187 135.315 576.001 112.148C595.091 89.7531 614.422 81.0654 626.504 81.0654C636.411 81.0654 641.244 87.0503 641.002 94.1934C654.051 74.3084 672.416 48.0524 681.115 38.2064C683.531 35.5035 685.706 35.6966 686.914 38.2064C690.297 44.5773 689.572 52.8788 679.423 67.3583C667.824 83.9613 644.627 115.816 632.545 136.28ZM630.37 90.9114C622.879 90.7184 605.24 102.881 591.95 119.87C578.901 136.473 576.243 153.269 585.667 153.463C595.332 153.656 608.381 142.265 619.738 124.697C633.753 103.267 637.378 91.1045 630.37 90.9114Z" fill="white"/>
<path d="M568.624 140.141C562.583 151.724 548.085 160.605 534.794 160.026C516.43 159.254 509.181 146.126 515.222 130.488C520.296 117.553 534.794 103.267 545.185 93.9998C534.553 99.4055 523.679 101.336 516.188 101.336C496.132 134.928 470.035 159.254 441.28 159.64C410.592 160.026 400.201 136.087 415.908 111.375C431.131 87.4358 455.778 76.6246 467.86 82.2233C473.901 85.1191 478.251 87.822 482.117 92.0693C486.225 96.7027 483.808 108.093 474.143 117.939C462.786 129.716 446.596 134.542 429.681 123.731C421.949 141.299 427.99 153.848 440.313 154.234C466.894 155.2 493.474 124.696 506.764 100.178C488.158 93.9998 511.839 68.323 521.988 67.9369C529.478 67.7438 527.062 79.5204 521.021 92.0693C529.478 91.104 537.936 88.015 547.36 82.9955C550.259 81.451 552.434 80.4857 554.126 82.4163C558.958 86.6636 564.999 95.9304 557.75 102.301C546.393 112.34 534.07 125.468 529.962 135.894C525.854 146.512 528.753 154.234 536.003 154.427C546.151 154.813 558.475 142.072 566.208 127.785C567.174 126.241 568.866 125.855 569.832 127.592C571.04 129.716 571.524 134.735 568.624 140.141ZM431.856 119.484C443.696 125.275 453.12 117.36 460.369 110.024C468.102 102.108 473.176 92.0693 470.035 89.9456C464.719 86.2775 444.904 98.4402 433.789 116.202C433.064 117.167 432.581 118.518 431.856 119.484Z" fill="white"/>
<path d="M350.201 151.531C367.358 128.944 399.496 94.9652 415.927 81.4511C418.585 79.3274 420.035 79.7136 420.518 82.2233C421.243 86.2776 418.344 91.2971 410.611 99.0194C398.529 111.182 376.54 129.716 353.342 159.061C352.134 160.605 350.926 161.957 348.51 160.991C339.086 157.323 335.703 153.462 336.428 143.23C337.394 129.716 343.918 102.108 352.134 82.0303C353.101 79.9066 355.034 79.1344 356.967 80.4858C364.941 85.8914 366.149 93.0346 362.766 104.811C358.417 119.677 353.584 130.488 350.201 151.531Z" fill="white"/>
</svg>
