<svg width="70" height="18" viewBox="0 0 70 18" fill="none" xmlns="http://www.w3.org/2000/svg">
<path d="M9.03892 9.07516V12.623H-0.000169753V11.999L0.87343 11.9812V1.31973L-0.000169753 1.3019V0.677905H8.68234V4.13665L7.98703 4.11882L7.95137 3.22739C6.63206 2.40728 5.25926 1.71791 3.83297 1.15928L3.86863 6.11562H7.20257V6.77528H3.86863L3.90429 12.1238C5.42566 11.5414 6.89354 10.8283 8.30794 9.98442L8.3436 9.09299L9.03892 9.07516ZM18.1914 11.3929L15.5884 12.8013C15.2675 12.6112 15.0298 12.3616 14.8753 12.0525C14.7326 11.7316 14.6494 11.3216 14.6257 10.8224L12.8606 12.8905C12.1713 12.8905 11.5592 12.736 11.0243 12.4269C10.5013 12.106 10.0913 11.6722 9.79412 11.1254C9.49698 10.5668 9.34841 9.93688 9.34841 9.23562C9.34841 8.62945 9.44944 7.98762 9.65149 7.31013C9.85355 6.63265 10.0972 6.10373 10.3825 5.72339C10.6083 5.40248 11.0184 5.09345 11.6126 4.7963C12.2069 4.48728 12.7061 4.33276 13.1102 4.33276C13.4668 4.33276 13.9541 4.39219 14.5722 4.51105L14.5365 1.37322L13.859 1.51585L13.6808 0.998819L16.979 0.000419655L17.2286 0.428305L17.1217 9.6635C17.1217 10.0914 17.1454 10.4123 17.193 10.6262C17.2405 10.8283 17.3237 11.0066 17.4426 11.1611L17.9774 10.9115L18.1914 11.3929ZM11.9157 8.1659C11.9157 8.71265 12.0049 9.18808 12.1832 9.59219C12.3614 9.9963 12.5932 10.3053 12.8785 10.5193C13.1756 10.7332 13.4906 10.8402 13.8234 10.8402L14.6257 10.0379L14.59 6.43653C13.8174 6.06808 13.0746 5.81848 12.3614 5.68773C12.0643 6.36522 11.9157 7.19128 11.9157 8.1659ZM26.9754 11.4285L24.4973 12.837C24.1169 12.6349 23.8376 12.3616 23.6593 12.0169C23.481 11.6603 23.3919 11.2086 23.3919 10.6619L21.8586 12.8905C20.7414 12.8905 19.9153 12.623 19.3805 12.0882C18.8456 11.5414 18.5782 10.7035 18.5782 9.57436V5.1707L17.9185 5.11722V4.60019H21.092V8.86122C21.092 9.39608 21.2287 9.81208 21.5021 10.1092C21.7873 10.3945 22.1617 10.543 22.6253 10.5549L23.3919 9.84179V5.1707L22.7501 5.11722V4.60019H25.9057V9.62785C25.9057 10.0676 25.9295 10.3945 25.977 10.6084C26.0365 10.8224 26.1256 11.0066 26.2445 11.1611L26.7793 10.8937L26.9754 11.4285ZM31.5834 10.8402C32.3203 10.8402 33.0394 10.5728 33.7407 10.0379L34.0259 10.3588C33.5862 11.1195 33.0335 11.7316 32.3679 12.1952C31.7142 12.6587 31.007 12.8905 30.2463 12.8905C29.1766 12.8905 28.3208 12.5339 27.679 11.8208C27.049 11.0957 26.734 10.1211 26.734 8.89688C26.734 8.17185 26.8826 7.45276 27.1798 6.73962C27.4769 6.02648 27.8572 5.43219 28.3208 4.95676C28.7249 4.7547 29.1468 4.60019 29.5866 4.49322C30.0264 4.38625 30.4483 4.33276 30.8524 4.33276C31.5537 4.33276 32.1777 4.52293 32.7244 4.90328C33.2712 5.28362 33.711 5.8363 34.0438 6.56133L31.9935 7.75585C31.8033 7.22099 31.5478 6.68019 31.2268 6.13345C30.9059 5.5867 30.6266 5.2123 30.3889 5.01025C30.0799 5.30739 29.8124 5.74122 29.5866 6.31173C29.3727 6.87036 29.2657 7.44682 29.2657 8.0411C29.2657 8.9563 29.4678 9.65162 29.8719 10.127C30.276 10.6025 30.8465 10.8402 31.5834 10.8402ZM40.9938 11.696L38.373 12.9261C38.0521 12.7003 37.8322 12.3913 37.7134 11.999C37.2855 12.2605 36.8517 12.4745 36.4119 12.6409C35.984 12.8073 35.6096 12.8905 35.2887 12.8905C34.8014 12.8905 34.4032 12.7181 34.0942 12.3734C33.7852 12.0288 33.6306 11.589 33.6306 11.0541C33.6306 10.8164 33.6544 10.5609 33.702 10.2875C33.7614 10.0022 33.8327 9.77642 33.9159 9.61002L37.6956 9.00385L37.7312 8.48682C37.755 7.95196 37.6421 7.53596 37.3925 7.23882C37.1429 6.92979 36.7388 6.77528 36.1801 6.77528C35.9305 6.77528 35.669 6.80499 35.3957 6.86442C35.1223 6.91196 34.8905 6.97733 34.7004 7.06053L34.4151 7.6667L33.9337 7.48842L34.7538 4.9211C35.669 4.52888 36.5367 4.33276 37.3568 4.33276C38.2007 4.33276 38.8901 4.55859 39.4249 5.01025C39.9598 5.45002 40.2272 6.14533 40.2272 7.09619L40.2094 7.45276L40.0311 9.85962L39.9954 10.5014C39.9954 10.7154 40.0133 10.8877 40.0489 11.0185C40.0846 11.1373 40.144 11.2621 40.2272 11.3929L40.7799 11.1789L40.9938 11.696ZM36.9468 11.6068C37.1369 11.6068 37.3568 11.5355 37.6064 11.3929L37.5886 11.0185L37.6064 10.6262L37.6599 9.61002L36.2871 9.93093C36.2396 10.0854 36.2158 10.2934 36.2158 10.5549C36.2158 10.9115 36.2871 11.1789 36.4297 11.3572C36.5724 11.5236 36.7447 11.6068 36.9468 11.6068ZM41.0961 11.999L41.9697 11.9812V1.31973L41.0961 1.3019V0.677905L44.537 0.713562L47.0686 0.49962C48.8396 0.49962 50.2065 0.992877 51.1692 1.97939C52.1438 2.96591 52.6312 4.39219 52.6312 6.25825C52.6312 7.51813 52.3875 8.62945 51.9002 9.59219C51.4129 10.543 50.6819 11.2859 49.7073 11.8208C48.7326 12.3556 47.5441 12.623 46.1416 12.623H41.0961V11.999ZM45.4284 11.999C46.7002 11.999 47.6867 11.5593 48.388 10.6797C49.1011 9.80019 49.4577 8.47493 49.4577 6.70396C49.4577 5.52728 49.2556 4.54076 48.8515 3.74442C48.4593 2.93619 47.9185 2.33596 47.2291 1.94373C46.5516 1.53962 45.785 1.33756 44.9292 1.33756V11.999H45.4284ZM56.9997 4.33276C58.1883 4.33276 59.1451 4.68339 59.8701 5.38465C60.5951 6.0859 60.9577 7.0843 60.9577 8.37985C60.9577 8.93848 60.8566 9.51493 60.6546 10.1092C60.4644 10.7035 60.1791 11.2265 59.7988 11.6781C59.4185 12.0466 58.9727 12.3437 58.4617 12.5696C57.9625 12.7835 57.4335 12.8905 56.8749 12.8905C55.6863 12.8905 54.7295 12.5398 54.0045 11.8386C53.2795 11.1373 52.917 10.1389 52.917 8.84339C52.917 8.29665 53.018 7.72613 53.2201 7.13185C53.4221 6.53756 53.7133 6.01459 54.0937 5.56293C54.474 5.19448 54.9138 4.89733 55.413 4.6715C55.9241 4.44568 56.453 4.33276 56.9997 4.33276ZM55.4843 7.98762C55.4843 9.11676 55.7042 9.96065 56.1439 10.5193C56.5956 11.0779 57.2553 11.4107 58.1229 11.5177C58.2061 11.1611 58.2715 10.7629 58.319 10.3232C58.3666 9.88339 58.3903 9.52088 58.3903 9.23562C58.3903 8.09459 58.1645 7.2507 57.7129 6.70396C57.2731 6.14533 56.6253 5.81253 55.7695 5.70556C55.6863 6.07402 55.615 6.47813 55.5556 6.9179C55.5081 7.35768 55.4843 7.71425 55.4843 7.98762ZM66.3838 11.6246C67.0494 11.6722 67.614 11.8089 68.0775 12.0347C68.553 12.2605 68.9214 12.5577 69.1829 12.9261C68.9571 13.6036 68.5946 14.2692 68.0954 14.9229C67.608 15.5766 67.0138 16.1115 66.3125 16.5275C65.6231 16.9554 64.8803 17.1693 64.0839 17.1693C63.3114 17.1693 62.6874 16.9732 62.2119 16.581C61.7484 16.2006 61.5166 15.7133 61.5166 15.119C61.5166 14.6198 61.6414 14.0553 61.891 13.4253C61.4631 13.2233 61.1066 12.8608 60.8213 12.3378L62.622 10.3232C62.1703 10.0736 61.8138 9.74076 61.5523 9.32476C61.3027 8.89688 61.1779 8.42145 61.1779 7.89848C61.1779 7.41116 61.2789 6.92979 61.481 6.45436C61.683 5.97893 61.9386 5.57482 62.2476 5.24202C62.5447 4.99242 62.9429 4.77848 63.4421 4.60019C63.9532 4.4219 64.488 4.33276 65.0467 4.33276C65.4508 4.33276 65.8014 4.37436 66.0986 4.45756L67.5783 1.94373C67.816 1.89619 68.0656 1.87242 68.3271 1.87242C68.8263 1.87242 69.3077 1.97345 69.7712 2.1755L68.5232 4.49322C68.1429 4.3387 67.7685 4.26145 67.4 4.26145C67.2812 4.26145 67.1267 4.27333 66.9365 4.2971L66.6691 4.65368C67.2039 4.89139 67.6259 5.23608 67.9349 5.68773C68.2439 6.13939 68.3984 6.66236 68.3984 7.25665C68.3984 7.72019 68.2915 8.18373 68.0775 8.64728C67.8755 9.09893 67.6259 9.50899 67.3287 9.87745C67.0316 10.1389 66.6275 10.3588 66.1164 10.5371C65.6172 10.7035 65.0942 10.7867 64.5475 10.7867C64.0245 10.7867 63.5431 10.7035 63.1034 10.5371L62.6933 11.0363C62.7646 11.1433 62.9191 11.2384 63.1568 11.3216C63.3946 11.4048 63.6798 11.4523 64.0126 11.4642L66.3838 11.6246ZM66.0451 7.9163C66.0451 7.17939 65.8549 6.60293 65.4746 6.18693C65.0942 5.77093 64.5594 5.51539 63.87 5.4203C63.6442 6.07402 63.5312 6.68019 63.5312 7.23882C63.5312 7.95196 63.7214 8.51653 64.1018 8.93253C64.4821 9.34853 65.0229 9.60408 65.7242 9.69916C65.9381 9.14053 66.0451 8.54625 66.0451 7.9163ZM65.0645 15.2973C65.4211 15.2973 65.7717 15.2557 66.1164 15.1725C66.4611 15.1012 66.7523 15.0121 66.99 14.9051C67.2277 14.7981 67.3703 14.703 67.4179 14.6198C67.3466 14.4534 67.1326 14.287 66.776 14.1206C66.4314 13.9661 65.944 13.871 65.3141 13.8354L63.3351 13.7284C63.1093 13.7165 62.8359 13.6868 62.515 13.6393C62.5744 14.1147 62.83 14.5069 63.2816 14.816C63.7452 15.1369 64.3395 15.2973 65.0645 15.2973Z" fill="black"/>
</svg>
