<svg width="54" height="38" viewBox="0 0 54 38" fill="none" xmlns="http://www.w3.org/2000/svg">
<path fill-rule="evenodd" clip-rule="evenodd" d="M48.68 0C50.286 0 51.7121 0.700294 52.6095 1.78347L26.5476 21.6656L0.717813 2.14451C1.58144 0.85843 3.13909 0 4.91717 0H48.68ZM0 33.0971V5.67251L18.5335 19.6794L0.0382053 33.6574C0.0129952 33.4739 0 33.2869 0 33.0971ZM1.69501 36.4757C2.55797 37.1572 3.68461 37.5697 4.91717 37.5697H48.68C49.7394 37.5697 50.7206 37.265 51.5233 36.7466L31.8292 21.7225L28.2877 24.4243C27.2861 25.1884 25.8269 25.1914 24.8214 24.4315L21.2265 21.7146L1.69501 36.4757ZM34.5074 19.6794L53.4628 34.14C53.5507 33.8054 53.5972 33.4562 53.5972 33.0971V5.1162L34.5074 19.6794Z" fill="#43BCFF"/>
</svg>
