<svg width="22" height="22" viewBox="0 0 22 22" fill="none" xmlns="http://www.w3.org/2000/svg">
<path d="M21.9928 11.0004C21.9928 16.5561 17.8758 21.1491 12.5274 21.8944C12.0274 21.9638 11.5157 22 10.9964 22C10.3969 22 9.8082 21.9522 9.23492 21.8597C3.9991 21.0165 0 16.4751 0 11.0004C0 4.9252 4.92375 0 10.9971 0C17.0705 0 21.9943 4.9252 21.9943 11.0004H21.9928Z" fill="#333333"/>
<path d="M12.5264 8.83189V11.2282H15.4899L15.0206 14.4562H12.5264V21.8933C12.0263 21.9627 11.5146 21.9989 10.9953 21.9989C10.3958 21.9989 9.80712 21.9511 9.23384 21.8586V14.4562H6.50073V11.2282H9.23384V8.29622C9.23384 6.47721 10.7079 5.00195 12.5271 5.00195V5.0035C12.5325 5.0035 12.5371 5.00195 12.5425 5.00195H15.4906V7.79367H13.5643C12.9918 7.79367 12.5271 8.25845 12.5271 8.83113L12.5264 8.83189Z" fill="white"/>
</svg>
