<svg width="838" height="744" viewBox="0 0 838 744" fill="none" xmlns="http://www.w3.org/2000/svg">
<path d="M311.043 352.539C445.043 199.04 321.883 82.2749 467.543 52.5391C589.837 27.5733 761.582 179.649 786.99 304.108C812.398 428.566 634.355 593.698 512.061 618.664C472.043 618.664 -117.457 688.538 311.043 352.539Z" fill="#FCA11D"/>
<path d="M419.58 645.748C419.551 645.415 419.523 645.083 419.494 644.751C403.329 646.139 388.032 647.238 373.569 648.058C306.665 650.016 234.746 657.563 174.887 624.394C142.93 605.397 152.701 561.861 169.298 534.128C185.681 504.545 207.221 477.929 228.9 452.124C308.656 347.408 446.065 261.293 445.44 119.79C441.201 105.191 432.252 92.9625 419.853 82.8617C419.642 83.12 419.432 83.3784 419.221 83.6367C431.499 93.6419 440.302 105.69 444.48 120.069C445.224 260.036 307.976 346.874 228.137 451.478C206.439 477.307 184.873 503.944 168.42 533.649C151.767 561.351 141.741 605.857 174.317 625.215C234.843 658.704 306.622 650.977 373.626 649.056C388.099 648.236 403.406 647.137 419.58 645.748Z" fill="black"/>
</svg>
