<svg width="1400" height="952" viewBox="0 0 1400 952" fill="none" xmlns="http://www.w3.org/2000/svg">
<path d="M721.639 759.484C735.342 766.985 746.156 785.466 739.005 798.588C731.597 812.18 708.102 814.173 693.206 806.846C678.423 799.575 667.001 780.614 673.936 767.416C681.201 753.589 706.058 750.954 721.639 759.484Z" fill="#FBFBFB"/>
<path d="M833.235 676.805C834.705 661.023 847.329 642.582 862.109 642.699C877.418 642.821 888.454 662.801 887.612 679.564C886.775 696.198 873.952 715.41 859.187 715.522C843.719 715.639 831.563 694.75 833.235 676.805Z" fill="#FBFBFB"/>
<path d="M756.025 673.961C748.641 657.955 750.574 633.017 764.952 624.682C779.845 616.048 801.682 628.94 810.221 645.53C818.694 661.994 816.997 687.786 802.762 696.333C787.849 705.287 764.42 692.162 756.025 673.961Z" fill="#FBFBFB"/>
<path d="M695.555 723.013C684.409 709.41 680.237 685.023 692.328 673.609C704.85 661.787 729.432 668.969 741.854 682.858C754.181 696.642 758.793 721.792 746.895 733.375C734.429 745.51 708.229 738.482 695.555 723.013Z" fill="#FBFBFB"/>
<path d="M779.615 725.128C768.258 732.58 763.805 743.848 760.998 751.242C756.087 764.177 758.564 768.696 756.505 791.895C753.789 822.506 748.569 824.853 751.745 838.183C752.619 841.854 757.026 860.356 774.151 869.539C791.701 878.949 815.022 874.506 828.809 863.461C841.255 853.491 838.486 844.104 852.269 835.192C864.984 826.971 871.005 832.591 883.847 826.033C903.003 816.252 918.111 789.193 911.971 766.816C908.166 752.948 897.386 745.207 893.663 742.534C881.681 733.929 875.668 737.477 848.665 729.59C826.454 723.103 824.277 718.879 809.967 718.426C801.962 718.173 790.531 717.964 779.615 725.128Z" fill="#FBFBFB"/>
<path d="M1065.32 165.388C1064.15 190.307 1045.21 218.775 1021.36 217.705C996.669 216.596 977.348 184.275 977.427 157.763C977.506 131.454 996.716 101.778 1020.51 102.484C1045.45 103.224 1066.64 137.052 1065.32 165.388Z" fill="#FBFBFB"/>
<path d="M1262.15 267.619C1285.83 258.673 1321.14 263.869 1331.33 285.163C1341.88 307.219 1320.93 337.055 1296.29 347.589C1271.83 358.043 1235.27 353.099 1224.77 331.988C1213.77 309.871 1235.23 277.792 1262.15 267.619Z" fill="#FBFBFB"/>
<path d="M1212.14 154.819C1229.94 133.01 1267.08 118.312 1289.12 133.107C1311.94 148.431 1308.74 188.803 1290.91 212.679C1273.22 236.373 1235.02 252.008 1212.78 237.567C1189.48 222.437 1191.91 179.619 1212.14 154.819Z" fill="#FBFBFB"/>
<path d="M1099.38 102.406C1111.09 76.8798 1143.17 53.8082 1168.02 63.1628C1193.76 72.8522 1200.67 113.161 1189.44 140.719C1178.3 168.067 1145.44 192.304 1120.48 183.343C1094.33 173.955 1086.06 131.431 1099.38 102.406Z" fill="#FBFBFB"/>
<path d="M1155.24 224.521C1136.59 213.444 1117.3 214.948 1104.72 216.099C1082.71 218.112 1077.96 224.834 1043.23 238.132C997.395 255.679 990.371 249.832 973.464 263.728C968.809 267.554 945.344 286.841 944.163 317.851C942.952 349.63 965.668 379.986 991.176 392.034C1014.2 402.91 1025.74 392.36 1048.18 405.898C1068.89 418.386 1065.04 430.964 1083.45 444.799C1110.91 465.437 1160.32 468.162 1188.14 443.675C1205.37 428.497 1208.93 407.605 1210.16 400.389C1214.11 377.165 1204.81 371.022 1197.21 326.743C1190.96 290.324 1195.5 284.239 1186.12 263.386C1180.87 251.719 1173.17 235.168 1155.24 224.521Z" fill="#FBFBFB"/>
<path d="M178.175 263.538C187.732 264.339 202.39 265.368 216.536 256.743C230.132 248.453 235.953 235.698 239.913 226.709C244.189 216.999 244.619 211.462 245.319 202.423C245.778 196.503 246.353 189.082 248.201 178.003C250.543 163.963 253.12 154.902 255.124 147.851C257.98 137.809 259.675 131.846 257.881 121.387C256.932 115.856 254.186 99.8423 241.058 88.3047C219.877 69.6892 182.342 72.1037 161.527 88.1249C155.021 93.1322 152.19 97.8979 149.429 102.544C146.268 107.864 143.2 113.027 134.818 118.216C125.793 123.803 119.084 124.173 112.168 124.554C106.04 124.891 99.7497 125.237 91.5421 129.23C72.1893 138.644 54.998 162.094 55.9855 186.48C56.9491 210.276 74.8164 224.927 78.3612 227.834C85.554 233.732 90.3898 234.92 99.3372 237.116C106.403 238.851 116.034 241.215 131.415 247.027C140.961 250.633 147.53 253.607 152.817 255.999C162.16 260.227 167.496 262.642 178.175 263.538ZM209.81 245.526C197.534 253.007 184.895 252.248 176.654 251.642C167.447 250.965 162.862 248.946 154.834 245.411C150.291 243.411 144.646 240.925 136.438 237.923C123.213 233.085 114.922 231.145 108.839 229.721C101.136 227.918 96.9725 226.944 90.8135 221.965C87.7782 219.512 72.4789 207.145 71.8394 186.83C71.1842 166.012 86.2078 145.845 102.983 137.647C110.098 134.17 115.528 133.823 120.819 133.485C126.789 133.103 132.582 132.733 140.415 127.887C147.69 123.387 150.379 118.953 153.149 114.384C155.569 110.393 158.051 106.3 163.705 101.971C181.795 88.1184 214.204 85.75 232.33 101.475C243.565 111.221 245.806 124.876 246.58 129.591C248.043 138.509 246.532 143.615 243.987 152.214C242.2 158.252 239.904 166.012 237.77 178.021C236.085 187.498 235.529 193.841 235.086 198.9C234.408 206.626 233.993 211.358 230.225 219.685C226.735 227.395 221.609 238.335 209.81 245.526Z" fill="#FBFBFB"/>
<path d="M350.178 209.045C342.486 225.456 315.672 229.676 297.665 222.963C277.189 215.33 260.816 190.846 269.129 173.797C277.064 157.524 304.823 153.49 323.426 161.355C342.172 169.28 358.146 192.045 350.178 209.045ZM299.925 217.57C314.843 223.131 337.055 219.635 343.428 206.04C350.029 191.957 336.796 173.098 321.266 166.532C305.855 160.017 282.859 163.359 276.285 176.84C269.399 190.964 282.963 211.246 299.925 217.57Z" fill="#FBFBFB"/>
<path d="M318.435 326.042C301.726 337.543 273.478 326.503 259.911 309.878C244.483 290.974 242.55 258.122 260.218 246.356C277.081 235.126 306.137 246.878 319.627 264.95C333.221 283.162 335.741 314.13 318.435 326.042ZM265.186 305.361C276.285 318.961 299.393 327.992 313.062 318.584C327.22 308.839 325.158 283.505 314.038 268.607C303.002 253.823 279.233 244.209 265.437 253.396C250.984 263.021 252.565 289.896 265.186 305.361Z" fill="#FBFBFB"/>
<path d="M114.846 262.851C132.956 261.874 147.41 283.602 148.349 302.723C149.417 324.465 133.387 350.57 114.447 351.301C96.3692 351.998 81.712 329.344 81.596 309.149C81.4793 288.8 96.0879 263.863 114.846 262.851ZM142.026 303.365C141.263 287.831 129.52 270.178 114.807 270.972C99.5671 271.794 87.6986 292.053 87.7934 308.586C87.8876 324.993 99.7957 343.398 114.483 342.831C129.87 342.238 142.893 321.029 142.026 303.365Z" fill="#FBFBFB"/>
<path d="M226.591 380.523C207.733 387.865 183.317 370.365 174.363 350.847C164.182 328.654 170.373 295.958 190.217 288.581C209.158 281.54 234.175 299.931 242.7 320.85C251.291 341.93 246.125 372.917 226.591 380.523ZM180.182 348.25C187.603 364.427 207.841 378.932 223.471 372.846C239.662 366.542 243.943 340.859 236.823 323.386C229.757 306.047 209.022 290.804 193.322 296.64C176.874 302.755 171.743 329.855 180.182 348.25Z" fill="#FBFBFB"/>
<path d="M363.621 573.251C347.739 562.031 336.986 537.642 347.691 522.429C358.78 506.671 388.118 507.538 405.501 518.711C422.751 529.8 434.187 554.869 423.739 570.207C412.793 586.276 381.679 586.009 363.621 573.251Z" fill="#FBFBFB"/>
<path d="M213.892 659.67C209.836 678.978 191.61 699.994 173.348 697.753C154.433 695.431 143.618 669.156 147.038 648.546C150.431 628.093 169.014 606.154 187.289 608.11C206.435 610.159 218.505 637.715 213.892 659.67Z" fill="#FBFBFB"/>
<path d="M308.971 674.138C315.832 694.979 309.906 725.545 290.942 733.815C271.3 742.38 246.123 723.339 237.917 701.612C229.773 680.05 235.529 648.395 254.345 639.844C274.058 630.885 301.17 650.44 308.971 674.138Z" fill="#FBFBFB"/>
<path d="M390.706 622.049C402.561 640.453 404.261 671.203 387.691 683.604C370.528 696.448 341.147 684.08 327.755 665.141C314.465 646.347 312.329 614.591 328.686 601.955C345.823 588.715 377.227 601.123 390.706 622.049Z" fill="#FBFBFB"/>
<path d="M287.053 607.514C302.155 599.908 309.259 586.605 313.78 577.86C321.688 562.56 319.265 556.62 325.101 528.223C332.802 490.752 339.59 488.591 337.553 471.655C336.993 466.991 334.167 443.486 314.291 429.7C293.922 415.574 264.451 417.761 245.835 429.465C229.03 440.03 231.123 452.031 212.814 461.097C195.923 469.46 189.274 461.657 172.463 467.945C147.387 477.325 124.866 508.645 129.285 537.188C132.024 554.879 144.257 565.98 148.481 569.814C162.079 582.155 170.018 578.62 202.294 592.203C228.841 603.375 230.935 608.908 248.567 611.497C258.431 612.946 272.538 614.825 287.053 607.514Z" fill="#FBFBFB"/>
<path d="M565.058 308.579C564.247 302.245 562.873 292.559 555.285 284.552C547.992 276.856 538.877 274.844 532.472 273.52C525.554 272.089 521.889 272.582 515.907 273.386C511.989 273.913 507.077 274.573 499.606 274.915C490.139 275.348 483.88 274.934 479.01 274.612C472.074 274.153 467.956 273.88 461.397 276.507C457.928 277.895 447.885 281.917 442.204 292.072C433.038 308.458 439.843 332.558 453.176 343.876C457.343 347.413 460.841 348.593 464.251 349.742C468.155 351.058 471.944 352.336 476.491 357.069C481.387 362.166 482.563 366.483 483.775 370.932C484.85 374.875 485.952 378.922 489.696 383.709C498.524 394.996 516.188 402.918 531.926 398.875C547.285 394.93 554.332 381.254 555.73 378.541C558.567 373.036 558.666 369.722 558.849 363.591C558.993 358.748 559.189 352.149 560.828 341.325C561.845 334.607 562.865 329.915 563.686 326.14C565.136 319.467 565.964 315.656 565.058 308.579ZM548.92 290.494C555.503 297.444 556.771 305.778 557.525 311.228C558.368 317.317 557.693 320.583 556.511 326.303C555.842 329.539 555.011 333.561 554.201 339.323C552.895 348.608 552.788 354.277 552.709 358.436C552.609 363.702 552.555 366.549 550.173 371.253C548.999 373.571 543.081 385.256 529.944 388.505C516.482 391.834 501.257 384.865 493.581 375.086C490.325 370.939 489.342 367.452 488.384 364.055C487.303 360.221 486.254 356.501 482.007 352.077C478.063 347.968 474.801 346.836 471.44 345.669C468.505 344.65 465.494 343.605 461.887 340.528C450.346 330.681 444.285 309.912 451.995 295.918C456.774 287.245 465.351 283.882 468.314 282.721C473.915 280.524 477.45 280.796 483.404 281.254C487.584 281.575 492.956 281.989 501.073 281.704C507.477 281.479 511.684 280.956 515.04 280.54C520.164 279.904 523.303 279.514 529.25 280.807C534.756 282.003 542.593 283.815 548.92 290.494Z" fill="#FBFBFB"/>
<path d="M505.581 204.227C517.338 206.947 523.824 223.816 521.964 236.475C519.85 250.871 506.193 264.944 493.934 261.909C482.232 259.012 475.736 241.502 478.262 228.294C480.808 214.984 493.402 201.41 505.581 204.227ZM518.138 235.756C519.678 225.269 514.306 211.294 504.565 209.041C494.477 206.707 484.043 217.952 481.934 228.978C479.841 239.92 485.223 254.426 494.917 256.826C505.072 259.34 516.386 247.681 518.138 235.756Z" fill="#FBFBFB"/>
<path d="M586.176 208.579C595.993 217.854 592.744 237.784 583.812 248.935C573.656 261.615 552.537 267.454 542.414 257.592C532.751 248.179 536.351 227.624 546.236 216.321C556.197 204.932 576.007 198.973 586.176 208.579ZM580.136 246.131C587.443 237.008 590.1 220.704 582.069 213.117C573.751 205.258 557.544 210.133 549.395 219.45C541.309 228.697 538.364 245.512 546.269 253.213C554.551 261.281 571.827 256.504 580.136 246.131Z" fill="#FBFBFB"/>
<path d="M573.425 349.936C570.264 338.282 582.395 325.842 594.712 322.564C608.719 318.838 627.949 325.634 631.066 337.863C634.041 349.536 621.335 362.237 608.204 365.128C594.971 368.042 576.699 362.008 573.425 349.936ZM596.012 326.592C586.005 329.254 576.149 339.361 578.718 348.83C581.378 358.637 596.222 363.539 606.973 361.172C617.642 358.823 627.964 348.504 625.547 339.021C623.015 329.085 607.391 323.564 596.012 326.592Z" fill="#FBFBFB"/>
<path d="M634.452 260.78C641.862 272.034 633.873 290.371 622.414 298.921C609.385 308.644 587.235 309.173 579.665 297.281C572.44 285.932 580.925 267.08 593.356 258.613C605.883 250.081 626.777 249.123 634.452 260.78ZM619.912 295.495C629.409 288.408 636.031 273.21 629.889 263.882C623.527 254.22 606.209 255.014 595.827 262.085C585.523 269.103 578.491 284.729 584.479 294.136C590.753 303.992 609.112 303.554 619.912 295.495Z" fill="#FBFBFB"/>
<path d="M544.646 754.47C543.835 748.136 542.461 738.45 534.873 730.442C527.58 722.746 518.465 720.735 512.06 719.41C505.142 717.98 501.477 718.473 495.494 719.277C491.577 719.804 486.665 720.464 479.194 720.806C469.727 721.238 463.468 720.824 458.598 720.502C451.662 720.043 447.544 719.771 440.984 722.397C437.516 723.786 427.473 727.807 421.792 737.963C412.625 754.348 419.431 778.449 432.764 789.767C436.931 793.304 440.429 794.483 443.839 795.633C447.743 796.949 451.532 798.226 456.079 802.96C460.975 808.057 462.151 812.373 463.363 816.823C464.437 820.765 465.54 824.812 469.284 829.599C478.112 840.886 495.776 848.809 511.514 844.766C526.873 840.821 533.92 827.145 535.318 824.432C538.155 818.927 538.254 815.613 538.436 809.481C538.581 804.639 538.777 798.039 540.416 787.215C541.433 780.497 542.453 775.806 543.273 772.03C544.723 765.358 545.552 761.547 544.646 754.47ZM528.508 736.385C535.091 743.334 536.359 751.669 537.113 757.119C537.956 763.207 537.281 766.474 536.099 772.194C535.43 775.43 534.599 779.452 533.789 785.214C532.483 794.499 532.376 800.167 532.297 804.326C532.197 809.593 532.143 812.439 529.761 817.143C528.587 819.461 522.669 831.146 509.532 834.395C496.069 837.725 480.845 830.755 473.168 820.977C469.913 816.83 468.93 813.343 467.972 809.945C466.891 806.111 465.842 802.392 461.595 797.968C457.651 793.859 454.389 792.727 451.028 791.56C448.093 790.541 445.082 789.496 441.475 786.418C429.934 776.572 423.873 755.803 431.583 741.809C436.362 733.136 444.939 729.773 447.901 728.611C453.503 726.415 457.038 726.687 462.992 727.145C467.172 727.466 472.544 727.879 480.66 727.594C487.065 727.369 491.272 726.847 494.628 726.43C499.752 725.794 502.891 725.405 508.838 726.697C514.344 727.894 522.181 729.706 528.508 736.385Z" fill="#FBFBFB"/>
<path d="M485.169 650.116C496.926 652.836 503.412 669.704 501.552 682.364C499.438 696.759 485.781 710.833 473.521 707.798C461.82 704.901 455.324 687.391 457.85 674.183C460.396 660.873 472.99 647.299 485.169 650.116ZM497.726 681.645C499.266 671.157 493.894 657.183 484.153 654.93C474.065 652.596 463.631 663.841 461.522 674.867C459.429 685.809 464.811 700.315 474.505 702.715C484.66 705.229 495.974 693.57 497.726 681.645Z" fill="#FBFBFB"/>
<path d="M565.764 654.47C575.581 663.744 572.332 683.675 563.4 694.826C553.244 707.506 532.125 713.345 522.001 703.483C512.339 694.07 515.938 673.514 525.823 662.212C535.785 650.822 555.595 644.863 565.764 654.47ZM559.724 692.021C567.031 682.899 569.688 666.595 561.657 659.008C553.339 651.149 537.132 656.024 528.983 665.341C520.897 674.587 517.952 691.403 525.857 699.103C534.139 707.171 551.415 702.395 559.724 692.021Z" fill="#FBFBFB"/>
<path d="M553.009 795.827C549.848 784.173 561.979 771.732 574.296 768.455C588.303 764.729 607.533 771.525 610.65 783.754C613.625 795.426 600.919 808.128 587.788 811.019C574.555 813.932 556.283 807.898 553.009 795.827ZM575.596 772.482C565.589 775.145 555.733 785.252 558.302 794.72C560.962 804.527 575.806 809.43 586.557 807.063C597.226 804.714 607.548 794.395 605.131 784.912C602.599 774.976 586.975 769.455 575.596 772.482Z" fill="#FBFBFB"/>
<path d="M614.038 706.67C621.448 717.924 613.459 736.26 602 744.811C588.971 754.534 566.821 755.062 559.251 743.171C552.026 731.821 560.511 712.969 572.942 704.502C585.468 695.97 606.363 695.013 614.038 706.67ZM599.498 741.385C608.995 734.298 615.617 719.099 609.475 709.771C603.113 700.11 585.795 700.903 575.413 707.975C565.109 714.993 558.077 730.618 564.065 740.026C570.339 749.882 588.698 749.444 599.498 741.385Z" fill="#FBFBFB"/>
<path d="M737.972 248.892C744.179 253.492 748.231 263.277 743.841 269.223C739.294 275.383 727.648 274.774 720.844 270.178C714.092 265.618 709.775 255.557 714.064 249.558C718.557 243.274 730.914 243.661 737.972 248.892Z" fill="#FBFBFB"/>
<path d="M798.209 215.916C799.995 208.283 807.424 200.099 814.658 201.154C822.151 202.247 826.21 212.782 824.665 220.938C823.133 229.032 815.553 237.579 808.312 236.637C800.725 235.651 796.179 224.595 798.209 215.916Z" fill="#FBFBFB"/>
<path d="M760.592 209.31C758.055 200.97 760.685 188.881 768.292 185.768C776.172 182.543 786.001 190.333 789.065 199.038C792.105 207.676 789.533 220.199 781.982 223.426C774.07 226.807 763.477 218.794 760.592 209.31Z" fill="#FBFBFB"/>
<path d="M727.653 229.264C723.11 221.846 722.712 209.616 729.406 204.84C736.339 199.893 747.899 205.071 753.047 212.715C758.157 220.3 758.719 232.934 752.108 237.806C745.181 242.91 732.818 237.698 727.653 229.264Z" fill="#FBFBFB"/>
<path d="M768.696 235.972C762.628 238.857 759.686 244.077 757.811 247.51C754.532 253.516 755.441 255.898 752.866 267.125C749.469 281.94 746.754 282.737 747.41 289.483C747.59 291.341 748.501 300.703 756.272 306.358C764.235 312.154 775.961 311.551 783.462 307.07C790.233 303.025 789.509 298.239 796.864 294.803C803.649 291.633 806.22 294.792 812.954 292.446C823 288.947 832.229 276.709 830.731 265.331C829.802 258.279 825.043 253.759 823.4 252.198C818.11 247.173 814.924 248.506 802.226 242.819C791.781 238.141 791 235.925 784.019 234.737C780.114 234.072 774.527 233.199 768.696 235.972Z" fill="#FBFBFB"/>
<path d="M1131.02 737.211C1131.27 746.396 1131.84 760.462 1141.55 773.02C1150.88 785.09 1163.64 789.284 1172.62 792.104C1182.32 795.15 1187.63 794.974 1196.32 794.685C1202 794.496 1209.13 794.259 1219.87 794.848C1233.49 795.594 1242.39 797.089 1249.31 798.253C1259.18 799.91 1265.04 800.894 1274.8 798.08C1279.97 796.592 1294.93 792.283 1304.53 778.564C1320.01 756.428 1313.75 720.942 1296.29 702.816C1290.84 697.15 1286 694.958 1281.28 692.82C1275.88 690.373 1270.64 687.998 1264.82 680.565C1258.54 672.561 1257.48 666.212 1256.39 659.667C1255.42 653.868 1254.42 647.915 1249.75 640.522C1238.74 623.089 1214.6 609.199 1191.48 612.717C1168.92 616.15 1156.86 634.712 1154.47 638.395C1149.61 645.867 1148.99 650.597 1147.85 659.349C1146.94 666.261 1145.71 675.681 1141.8 690.941C1139.38 700.412 1137.24 706.982 1135.52 712.269C1132.48 721.612 1130.75 726.949 1131.02 737.211ZM1151.52 765.43C1143.1 754.532 1142.48 742.416 1142.19 734.505C1141.86 725.667 1143.3 721.087 1145.82 713.07C1147.24 708.533 1149.01 702.895 1151 694.762C1154.21 681.658 1155.18 673.558 1155.89 667.615C1156.8 660.089 1157.28 656.022 1161.37 649.631C1163.39 646.482 1173.55 630.606 1192.82 627.85C1212.58 625.025 1233.37 637.199 1242.95 652.306C1247.01 658.713 1247.91 663.847 1248.8 668.848C1249.79 674.493 1250.76 679.97 1256.2 686.916C1261.25 693.368 1265.76 695.459 1270.4 697.614C1274.46 699.496 1278.62 701.427 1283.34 706.353C1298.44 722.114 1304.12 752.723 1291.06 771.645C1282.97 783.373 1270.21 786.951 1265.8 788.186C1257.46 790.522 1252.44 789.623 1243.98 788.109C1238.04 787.046 1230.41 785.68 1218.75 784.917C1209.55 784.315 1203.45 784.456 1198.59 784.568C1191.16 784.74 1186.61 784.845 1178.28 782.137C1170.57 779.629 1159.61 775.905 1151.52 765.43Z" fill="#FBFBFB"/>
<path d="M1201.09 895.243C1184.65 889.653 1177.79 864.567 1182.28 846.712C1187.39 826.407 1208.97 808.229 1226.08 814.342C1242.42 820.177 1249.19 846.183 1243.67 864.728C1238.1 883.416 1218.12 901.033 1201.09 895.243ZM1187.66 848.293C1183.94 863.086 1189.61 883.867 1203.23 888.498C1217.34 893.294 1233.9 878.7 1238.51 863.218C1243.08 847.855 1237.47 826.312 1223.94 821.478C1209.76 816.413 1191.88 831.473 1187.66 848.293Z" fill="#FBFBFB"/>
<path d="M1086.33 877.389C1073.61 862.695 1081.14 834.63 1095.53 819.954C1111.9 803.265 1142.98 797.952 1156.05 813.531C1168.53 828.401 1160.41 857.31 1144.62 872.066C1128.72 886.935 1099.5 892.609 1086.33 877.389ZM1100.39 824.499C1088.61 836.505 1082.46 859.464 1092.86 871.485C1103.64 883.936 1127.54 879.294 1140.55 867.13C1153.46 855.059 1160.1 831.41 1149.9 819.245C1139.21 806.5 1113.78 810.847 1100.39 824.499Z" fill="#FBFBFB"/>
<path d="M1124.98 676.85C1127.82 693.991 1108.66 710.052 1090.55 712.967C1069.96 716.282 1043.41 703.778 1040.71 685.821C1038.14 668.681 1058.16 652.329 1077.38 650.084C1096.74 647.822 1122.03 659.096 1124.98 676.85ZM1089.27 707.014C1103.98 704.645 1119.55 691.597 1117.24 677.671C1114.85 663.247 1094.3 654.088 1078.57 655.926C1062.95 657.75 1046.69 671.034 1048.78 684.959C1050.97 699.549 1072.54 709.707 1089.27 707.014Z" fill="#FBFBFB"/>
<path d="M1024.74 795.691C1015.76 778.51 1029.84 753.411 1047.48 742.822C1067.54 730.781 1099.32 733.22 1108.44 751.336C1117.15 768.627 1102.29 794.393 1083.27 804.722C1064.1 815.13 1034.05 813.487 1024.74 795.691ZM1050.57 748.088C1035.95 756.865 1024.28 777.668 1031.72 791.908C1039.44 806.658 1064.35 808.02 1080.23 799.393C1095.99 790.832 1108.32 769.477 1101.1 755.145C1093.54 740.129 1067.19 738.108 1050.57 748.088Z" fill="#FBFBFB"/>
<path d="M167.972 865.407C169.653 859.126 176.059 852.928 182.071 854.525C188.299 856.179 191.423 865.484 189.931 872.231C188.449 878.926 181.908 885.417 175.887 883.915C169.578 882.341 166.06 872.549 167.972 865.407Z" fill="#FBFBFB"/>
<path d="M123.524 828.44C116.997 829.403 108.294 826.118 106.883 820.129C105.421 813.926 112.412 807.492 119.274 806.178C126.083 804.875 135.117 808.164 136.62 814.124C138.194 820.368 130.946 827.345 123.524 828.44Z" fill="#FBFBFB"/>
<path d="M129.993 859.94C124.249 864.505 113.974 866.185 109.184 861.193C104.223 856.023 107.281 845.92 113.147 840.829C118.969 835.778 129.566 833.919 134.427 838.832C139.52 843.979 136.524 854.749 129.993 859.94Z" fill="#FBFBFB"/>
<path d="M155.798 879.553C151.397 885.403 141.947 889.496 136.139 885.734C130.122 881.836 130.6 871.187 134.991 864.793C139.349 858.448 149.064 854.101 154.922 857.769C161.059 861.612 160.803 872.901 155.798 879.553Z" fill="#FBFBFB"/>
<path d="M148.358 845.353C152.492 849.21 157.488 849.898 160.755 850.304C166.471 851.013 168.054 849.566 177.638 848.109C190.285 846.186 191.749 848.065 196.827 845.466C198.225 844.75 205.272 841.142 207.295 833.31C209.369 825.285 205.27 816.292 199.443 811.807C194.183 807.758 190.661 809.804 185.697 805.11C181.117 800.78 182.795 797.79 178.876 793.244C173.03 786.463 160.597 783.024 152.154 787.715C146.921 790.623 144.855 795.746 144.141 797.515C141.844 803.21 143.873 805.291 143.348 816.989C142.917 826.611 141.423 827.909 142.652 833.74C143.34 837.002 144.384 841.645 148.358 845.353Z" fill="#FBFBFB"/>
<path d="M1002.63 515.023C996.544 513.645 987.187 511.659 977.289 515.944C967.775 520.062 962.871 527.76 959.508 533.199C955.874 539.073 955.098 542.604 953.831 548.369C953.002 552.144 951.961 556.877 949.77 563.853C946.994 572.694 944.515 578.303 942.587 582.668C939.84 588.885 938.209 592.576 938.422 599.481C938.535 603.133 938.861 613.705 946.284 622.328C958.261 636.24 982.678 638.07 997.544 629.618C1002.19 626.977 1004.45 624.159 1006.64 621.413C1009.16 618.268 1011.61 615.216 1017.48 612.627C1023.8 609.839 1028.16 610.206 1032.65 610.584C1036.63 610.919 1040.72 611.263 1046.37 609.43C1059.7 605.106 1072.9 591.538 1074.46 575.727C1075.99 560.298 1065.79 549.24 1063.77 547.046C1059.66 542.595 1056.65 541.393 1051.08 539.17C1046.68 537.414 1040.68 535.021 1031.29 529.887C1025.46 526.7 1021.5 524.191 1018.3 522.171C1012.66 518.602 1009.44 516.564 1002.63 515.023ZM980.613 523.782C989.202 520.066 997.283 521.696 1002.54 522.83C1008.42 524.097 1011.19 525.813 1016.05 528.816C1018.8 530.515 1022.21 532.627 1027.23 535.303C1035.32 539.615 1040.49 541.614 1044.29 543.08C1049.09 544.938 1051.69 545.942 1055.21 549.707C1056.94 551.562 1065.69 560.916 1064.27 574.071C1062.82 587.552 1051.31 599.199 1039.76 602.971C1034.85 604.571 1031.32 604.305 1027.88 604.046C1024 603.753 1020.23 603.469 1014.74 605.887C1009.65 608.132 1007.51 610.748 1005.31 613.444C1003.39 615.798 1001.42 618.213 997.389 620.495C984.475 627.794 963.367 626.397 953.099 614.624C946.735 607.327 946.522 598.321 946.449 595.211C946.309 589.33 947.744 586.174 950.161 580.859C951.857 577.128 954.038 572.332 956.497 564.782C958.438 558.824 959.369 554.785 960.111 551.563C961.245 546.643 961.939 543.63 965.12 538.601C968.065 533.945 972.357 527.354 980.613 523.782Z" fill="#FBFBFB"/>
<path d="M886.844 534.669C893.284 524.781 910.952 524.48 921.956 530.432C934.469 537.2 942.816 554.463 935.919 564.705C929.335 574.481 911.074 574.577 899.79 567.829C888.418 561.028 880.173 544.91 886.844 534.669ZM920.012 533.705C910.896 528.774 896.26 529.024 890.925 537.215C885.399 545.699 892.229 559.052 901.649 564.685C910.998 570.276 926.125 570.196 931.579 562.097C937.293 553.613 930.378 539.312 920.012 533.705Z" fill="#FBFBFB"/>
<path d="M917.862 462.102C929.672 456.195 946.889 465.86 954.136 477.803C962.377 491.382 960.66 512.737 948.208 518.729C936.323 524.448 918.65 514.25 911.583 501.382C904.461 488.414 905.63 468.221 917.862 462.102ZM950.328 480.239C944.399 470.47 930.315 462.563 920.653 467.395C910.646 472.401 909.69 488.92 915.516 499.529C921.298 510.056 935.755 518.398 945.478 513.72C955.665 508.818 957.069 491.348 950.328 480.239Z" fill="#FBFBFB"/>
<path d="M1043.42 521.208C1031.66 520.204 1024.3 504.892 1025.42 492.479C1026.69 478.365 1039.38 462.981 1051.66 464.219C1063.37 465.4 1070.78 481.327 1069.03 494.358C1067.27 507.488 1055.61 522.248 1043.42 521.208ZM1029.55 492.636C1028.64 502.72 1034.62 515.161 1044.18 515.976C1054.08 516.821 1063.56 504.83 1064.99 494.162C1066.41 483.576 1060.39 470.635 1050.87 469.676C1040.9 468.67 1030.59 481.169 1029.55 492.636Z" fill="#FBFBFB"/>
<path d="M981.99 435.262C994.811 432.229 1008.97 445.715 1012.99 459.106C1017.55 474.333 1010.61 494.854 997.148 497.82C984.301 500.651 969.831 486.538 966.222 472.282C962.585 457.916 968.711 438.404 981.99 435.262ZM1009 460.256C1005.68 449.157 993.936 437.979 983.309 440.493C972.303 443.097 967.225 459.269 970.24 471.177C973.231 482.993 985.225 494.691 995.873 492.344C1007.03 489.886 1012.78 472.877 1009 460.256Z" fill="#FBFBFB"/>
<path d="M679.59 453.855C672.174 461.901 657.782 466.127 650.071 459.046C642.085 451.713 644.703 435.405 652.203 426.518C659.645 417.699 674.466 413.141 682.265 420.087C690.435 427.364 688.022 444.706 679.59 453.855Z" fill="#FBFBFB"/>
<path d="M716.916 543.696C727.395 547.364 737.797 559.063 735.217 569.09C732.546 579.476 717.097 583.599 705.846 580.192C694.68 576.811 683.789 564.845 686.21 554.79C688.746 544.255 705.001 539.525 716.916 543.696Z" fill="#FBFBFB"/>
<path d="M731.912 491.691C744.041 489.379 760.666 494.91 763.901 506.093C767.251 517.677 754.795 530.34 742.074 533.339C729.45 536.315 712.204 530.8 708.802 519.679C705.236 508.026 718.121 494.321 731.912 491.691Z" fill="#FBFBFB"/>
<path d="M708.793 442.293C719.924 437.017 737.207 438.305 742.921 448.454C748.84 458.965 739.801 474.46 728.259 480.555C716.805 486.604 698.929 485.486 693.068 475.439C686.927 464.914 696.134 448.292 708.793 442.293Z" fill="#FBFBFB"/>
<path d="M693.137 499.075C689.992 490.094 683.085 485.163 678.534 482.004C670.572 476.478 667.081 477.398 651.66 472.075C631.311 465.052 630.599 461.107 621 461.012C618.357 460.985 605.035 460.852 595.897 470.94C586.532 481.279 585.609 497.883 590.785 509.122C595.458 519.268 602.307 518.973 606.034 529.849C609.472 539.883 604.634 543.025 606.92 552.863C610.33 567.539 626.168 582.384 642.417 581.995C652.488 581.753 659.573 575.735 662.02 573.657C669.895 566.966 668.5 562.279 678.427 545.257C686.593 531.256 689.833 530.491 692.56 520.84C694.086 515.441 696.161 507.706 693.137 499.075Z" fill="#FBFBFB"/>
</svg>
