<svg width="1201" height="188" viewBox="0 0 1201 188" fill="none" xmlns="http://www.w3.org/2000/svg">
<path d="M91.8983 95.5356C92.4652 96.2586 93.8755 96.2403 95.0022 95.437C95.8604 94.8252 96.6766 93.4019 96.0534 92.7198C95.7127 92.347 94.0969 92.0411 92.9495 92.8186C91.8021 93.5961 91.3315 94.8125 91.8983 95.5356Z" fill="#FBFBFB"/>
<path d="M89.8629 93.4018C90.3522 92.8624 90.5908 91.4794 89.945 91.062C89.5001 90.7743 88.2334 90.9925 87.5489 91.8588C86.8646 92.7249 86.8278 93.7724 87.4668 94.1985C88.1058 94.6246 89.117 94.2238 89.8629 93.4018Z" fill="#FBFBFB"/>
<path d="M88.3805 103.999C89.5987 103.479 89.701 102.725 89.8528 102.009C89.9949 101.339 90.3963 100.742 90.9722 100.309C91.9917 99.5409 92.3319 98.2921 91.8898 97.2015C91.4477 96.1108 90.3109 95.395 89.0085 95.4652C88.273 95.5047 87.5519 95.3132 86.9725 94.9036C86.3527 94.4658 85.7433 93.969 84.4682 94.3486C82.8943 94.8172 82.1417 96.5028 82.7153 97.9176C82.877 98.3162 83.1292 98.6576 83.4426 98.9301C83.7818 99.2252 84.0413 99.583 84.2031 99.9753C84.3601 100.369 84.4201 100.799 84.3759 101.233C84.3353 101.633 84.389 102.046 84.5506 102.445C85.124 103.859 86.8768 104.641 88.3805 103.999Z" fill="#FBFBFB"/>
<path d="M93.0881 98.4552C93.1816 99.3502 94.3952 99.9551 95.7994 99.8062C97.2033 99.6575 98.1847 98.4085 98.1724 97.9163C98.15 97.0162 96.5328 96.4765 95.4612 96.5654C94.0542 96.6819 92.9948 97.5601 93.0881 98.4552Z" fill="#FBFBFB"/>
<path d="M90.748 102.25C90.5768 102.97 91.3486 103.724 92.472 103.934C93.5954 104.144 94.6903 103.504 94.816 103.009C94.9984 102.291 93.8383 101.416 93.092 101.326C91.9543 101.187 90.9191 101.53 90.748 102.25Z" fill="#FBFBFB"/>
<path d="M761.244 40.0247C761.671 40.8245 763.065 41.023 764.322 40.404C765.28 39.9326 766.343 38.6547 765.853 37.8865C765.585 37.4666 764.048 36.9169 762.775 37.5073C761.502 38.0977 760.817 39.2248 761.244 40.0247Z" fill="#FBFBFB"/>
<path d="M759.622 37.6076C760.203 37.1509 760.69 35.8241 760.129 35.3134C759.743 34.9614 758.454 34.9821 757.621 35.7311C756.789 36.48 756.562 37.5071 757.115 38.0253C757.667 38.5435 758.737 38.3036 759.622 37.6076Z" fill="#FBFBFB"/>
<path d="M756.234 47.8266C757.53 47.5008 757.768 46.7734 758.048 46.0907C758.31 45.4521 758.815 44.9253 759.461 44.5863C760.606 43.9858 761.169 42.8068 760.931 41.6636C760.694 40.5204 759.704 39.6402 758.407 39.5094C757.674 39.4355 756.998 39.1359 756.501 38.6431C755.97 38.1164 755.46 37.5329 754.133 37.7114C752.496 37.9318 751.448 39.4781 751.756 40.9611C751.843 41.3789 752.029 41.7542 752.289 42.071C752.569 42.4141 752.76 42.8067 752.848 43.2183C752.931 43.6309 752.912 44.0639 752.79 44.4844C752.677 44.8727 752.655 45.2883 752.741 45.7061C753.049 47.189 754.635 48.2287 756.234 47.8266Z" fill="#FBFBFB"/>
<path d="M761.885 43.0848C761.815 43.9814 762.901 44.7642 764.313 44.833C765.724 44.9019 766.919 43.8211 766.996 43.334C767.138 42.4431 765.642 41.6628 764.569 41.5858C763.161 41.4847 761.956 42.1879 761.885 43.0848Z" fill="#FBFBFB"/>
<path d="M758.887 46.4661C758.587 47.15 759.211 48.0118 760.28 48.3913C761.35 48.7704 762.545 48.3084 762.759 47.8397C763.07 47.1597 762.085 46.1188 761.366 45.9149C760.27 45.6037 759.187 45.7823 758.887 46.4661Z" fill="#FBFBFB"/>
<path d="M802.651 18.2538C802.648 19.1448 803.801 19.8905 805.227 19.8478C806.312 19.8153 807.883 19.1032 807.814 18.2151C807.777 17.7295 806.664 16.6105 805.238 16.6212C803.813 16.6319 802.654 17.3628 802.651 18.2538Z" fill="#FBFBFB"/>
<path d="M802.364 15.4262C803.105 15.2534 804.182 14.2625 803.926 13.5764C803.75 13.1036 802.585 12.5971 801.477 12.9293C800.37 13.2614 799.67 14.0896 799.915 14.7791C800.16 15.4686 801.235 15.6895 802.364 15.4262Z" fill="#FBFBFB"/>
<path d="M794.393 23.205C795.712 23.4408 796.276 22.8859 796.857 22.388C797.4 21.9224 798.107 21.6557 798.85 21.6153C800.166 21.5436 801.24 20.7161 801.579 19.5948C801.918 18.4734 801.456 17.281 800.356 16.6355C799.736 16.2709 799.274 15.727 799.067 15.0829C798.845 14.3943 798.669 13.6635 797.395 13.2832C795.821 12.8138 794.134 13.7725 793.694 15.2272C793.57 15.637 793.556 16.0494 793.636 16.439C793.722 16.8608 793.703 17.2904 793.583 17.6952C793.459 18.0988 793.232 18.4792 792.92 18.8062C792.631 19.1082 792.41 19.4716 792.286 19.8814C791.846 21.3359 792.766 22.9138 794.393 23.205Z" fill="#FBFBFB"/>
<path d="M801.748 21.2581C801.251 22.0329 801.847 23.1771 803.079 23.8138C804.31 24.4504 805.903 23.9686 806.208 23.5635C806.765 22.8228 805.801 21.5138 804.877 21.0079C803.663 20.3435 802.244 20.4831 801.748 21.2581Z" fill="#FBFBFB"/>
<path d="M797.429 23.0668C796.83 23.5575 796.973 24.5841 797.748 25.3598C798.523 26.1353 799.818 26.2083 800.236 25.8755C800.843 25.3925 800.463 24.0585 799.917 23.5827C799.085 22.8571 798.028 22.576 797.429 23.0668Z" fill="#FBFBFB"/>
<path d="M123.607 77.8667C123.998 78.6817 125.382 78.9315 126.666 78.3596C127.643 77.9239 128.762 76.6863 128.306 75.9007C128.056 75.4712 126.544 74.8651 125.247 75.408C123.949 75.9508 123.215 77.0516 123.607 77.8667Z" fill="#FBFBFB"/>
<path d="M122.091 75.3907C122.691 74.9558 123.236 73.648 122.698 73.117C122.327 72.7511 121.039 72.724 120.174 73.4416C119.31 74.1591 119.038 75.177 119.567 75.7152C120.096 76.2535 121.176 76.0533 122.091 75.3907Z" fill="#FBFBFB"/>
<path d="M118.259 85.4787C119.568 85.2011 119.838 84.4831 120.147 83.8112C120.437 83.1828 120.964 82.6752 121.625 82.3603C122.796 81.8027 123.41 80.6455 123.222 79.4944C123.035 78.3434 122.084 77.4272 120.794 77.2486C120.066 77.1476 119.403 76.8233 118.928 76.3125C118.421 75.7665 117.936 75.1647 116.603 75.294C114.958 75.4536 113.842 76.9599 114.085 78.4531C114.153 78.8738 114.323 79.2557 114.569 79.5818C114.834 79.935 115.007 80.3343 115.077 80.7488C115.142 81.1642 115.104 81.5961 114.964 82.0118C114.834 82.3956 114.793 82.81 114.862 83.2307C115.104 84.7237 116.643 85.8212 118.259 85.4787Z" fill="#FBFBFB"/>
<path d="M124.111 80.9486C124.001 81.8419 125.053 82.6642 126.46 82.7852C127.867 82.9062 129.108 81.8705 129.207 81.3866C129.388 80.5018 127.927 79.6667 126.859 79.5501C125.456 79.397 124.222 80.0551 124.111 80.9486Z" fill="#FBFBFB"/>
<path d="M120.968 84.2156C120.638 84.8878 121.224 85.772 122.276 86.1907C123.328 86.6091 124.543 86.1917 124.777 85.7313C125.117 85.0633 124.179 83.9869 123.469 83.7565C122.387 83.405 121.297 83.5434 120.968 84.2156Z" fill="#FBFBFB"/>
<path d="M455.544 94.8684C456.367 95.3408 457.665 94.834 458.377 93.6991C458.92 92.8346 459.089 91.2336 458.232 90.8186C457.763 90.5918 456.141 90.8697 455.399 91.988C454.657 93.1062 454.722 94.3958 455.544 94.8684Z" fill="#FBFBFB"/>
<path d="M452.781 93.5997C453.012 92.9305 452.663 91.5673 451.894 91.4052C451.363 91.2933 450.28 91.9353 450.003 92.9749C449.726 94.0144 450.124 94.9969 450.89 95.1695C451.657 95.342 452.429 94.6198 452.781 93.5997Z" fill="#FBFBFB"/>
<path d="M455.77 103.923C456.684 103.018 456.469 102.285 456.314 101.569C456.17 100.9 456.296 100.208 456.651 99.6066C457.278 98.5417 457.079 97.2675 456.221 96.4113C455.363 95.5552 454.016 95.2873 452.839 95.8046C452.174 96.0966 451.428 96.1697 450.723 95.9918C449.969 95.8018 449.2 95.5534 448.176 96.3476C446.912 97.328 446.909 99.1499 448.022 100.26C448.336 100.573 448.71 100.802 449.113 100.945C449.548 101.101 449.936 101.342 450.247 101.649C450.554 101.959 450.787 102.336 450.924 102.753C451.052 103.137 451.271 103.501 451.585 103.814C452.698 104.925 454.643 105.039 455.77 103.923Z" fill="#FBFBFB"/>
<path d="M457.847 97.1577C458.302 97.9537 459.675 98.0922 460.914 97.4667C462.152 96.8416 462.546 95.3444 462.332 94.893C461.941 94.0676 460.222 94.1296 459.266 94.5839C458.012 95.1805 457.393 96.3614 457.847 97.1577Z" fill="#FBFBFB"/>
<path d="M457.242 101.482C457.381 102.208 458.405 102.638 459.532 102.442C460.658 102.246 461.409 101.274 461.321 100.772C461.194 100.044 459.76 99.6367 459.032 99.812C457.922 100.079 457.104 100.755 457.242 101.482Z" fill="#FBFBFB"/>
<path d="M502.814 94.5422C503.636 95.0146 504.934 94.5078 505.647 93.3729C506.189 92.5085 506.359 90.9075 505.501 90.4924C505.032 90.2656 503.411 90.5435 502.668 91.6618C501.926 92.78 501.991 94.0696 502.814 94.5422Z" fill="#FBFBFB"/>
<path d="M500.048 93.2746C500.279 92.6053 499.931 91.2421 499.161 91.08C498.631 90.9681 497.548 91.6101 497.271 92.6497C496.994 93.6892 497.391 94.6717 498.158 94.8443C498.925 95.0168 499.696 94.2946 500.048 93.2746Z" fill="#FBFBFB"/>
<path d="M503.04 103.597C503.954 102.692 503.738 101.959 503.584 101.243C503.44 100.574 503.566 99.8818 503.92 99.2804C504.548 98.2156 504.349 96.9413 503.491 96.0852C502.632 95.229 501.285 94.9611 500.108 95.4784C499.444 95.7704 498.697 95.8435 497.992 95.6656C497.238 95.4756 496.47 95.2272 495.445 96.0215C494.181 97.0019 494.179 98.8237 495.292 99.9343C495.606 100.247 495.98 100.476 496.382 100.619C496.818 100.774 497.205 101.016 497.516 101.323C497.824 101.633 498.056 102.01 498.194 102.426C498.321 102.811 498.541 103.175 498.855 103.488C499.968 104.598 501.912 104.713 503.04 103.597Z" fill="#FBFBFB"/>
<path d="M505.115 96.8305C505.57 97.6265 506.942 97.7651 508.181 97.1396C509.42 96.5144 509.814 95.0173 509.6 94.5658C509.209 93.7404 507.489 93.8024 506.534 94.2568C505.279 94.8533 504.66 96.0343 505.115 96.8305Z" fill="#FBFBFB"/>
<path d="M504.512 101.155C504.65 101.882 505.675 102.312 506.801 102.116C507.928 101.92 508.678 100.948 508.591 100.446C508.464 99.7178 507.03 99.3105 506.302 99.4858C505.191 99.7527 504.374 100.429 504.512 101.155Z" fill="#FBFBFB"/>
<path d="M501.003 53.4016C501.826 53.874 503.124 53.3672 503.836 52.2323C504.379 51.3678 504.548 49.7668 503.691 49.3518C503.222 49.125 501.6 49.4029 500.858 50.5212C500.116 51.6394 500.181 52.929 501.003 53.4016Z" fill="#FBFBFB"/>
<path d="M498.238 52.1359C498.469 51.4666 498.12 50.1034 497.351 49.9413C496.82 49.8295 495.737 50.4714 495.46 51.511C495.183 52.5505 495.581 53.533 496.348 53.7056C497.114 53.8782 497.886 53.1559 498.238 52.1359Z" fill="#FBFBFB"/>
<path d="M501.227 62.458C502.141 61.5534 501.926 60.8201 501.771 60.1044C501.627 59.435 501.753 58.7431 502.108 58.1417C502.736 57.0769 502.536 55.8026 501.678 54.9465C500.82 54.0903 499.473 53.8224 498.296 54.3397C497.631 54.6318 496.885 54.7049 496.18 54.5269C495.426 54.3369 494.657 54.0886 493.633 54.8828C492.369 55.8632 492.366 57.685 493.479 58.7957C493.793 59.1085 494.167 59.337 494.57 59.4804C495.005 59.6358 495.393 59.8769 495.704 60.1839C496.011 60.4941 496.244 60.8712 496.381 61.2878C496.509 61.6724 496.728 62.0363 497.042 62.3491C498.155 63.4597 500.1 63.5745 501.227 62.458Z" fill="#FBFBFB"/>
<path d="M503.304 55.6928C503.759 56.4889 505.132 56.6274 506.371 56.0019C507.609 55.3767 508.003 53.8796 507.789 53.4281C507.398 52.6027 505.679 52.6647 504.723 53.1191C503.469 53.7156 502.85 54.8966 503.304 55.6928Z" fill="#FBFBFB"/>
<path d="M502.699 60.0167C502.838 60.7429 503.862 61.1729 504.989 60.9771C506.115 60.781 506.866 59.8091 506.778 59.3073C506.651 58.5791 505.217 58.1719 504.489 58.3471C503.379 58.6141 502.561 59.2905 502.699 60.0167Z" fill="#FBFBFB"/>
<path d="M543.617 62.8802C544.044 63.68 545.438 63.8785 546.695 63.2595C547.653 62.788 548.716 61.5101 548.226 60.742C547.958 60.3221 546.421 59.7724 545.148 60.3628C543.875 60.9532 543.19 62.0802 543.617 62.8802Z" fill="#FBFBFB"/>
<path d="M541.995 60.4641C542.576 60.0074 543.063 58.6805 542.502 58.1699C542.116 57.8179 540.827 57.8385 539.995 58.5875C539.162 59.3364 538.935 60.3635 539.488 60.8817C540.04 61.4 541.11 61.1601 541.995 60.4641Z" fill="#FBFBFB"/>
<path d="M538.607 70.684C539.903 70.3582 540.141 69.6309 540.421 68.9481C540.683 68.3095 541.188 67.7828 541.834 67.4437C542.979 66.8433 543.542 65.6642 543.305 64.521C543.067 63.3778 542.077 62.4976 540.78 62.3668C540.047 62.2929 539.371 61.9933 538.875 61.5005C538.343 60.9738 537.833 60.3904 536.506 60.5688C534.869 60.7892 533.821 62.3355 534.129 63.8186C534.216 64.2363 534.402 64.6117 534.662 64.9284C534.942 65.2715 535.133 65.6641 535.221 66.0757C535.304 66.4883 535.285 66.9213 535.163 67.3418C535.05 67.7302 535.028 68.1457 535.114 68.5635C535.422 70.0464 537.008 71.0861 538.607 70.684Z" fill="#FBFBFB"/>
<path d="M544.258 65.9402C544.188 66.8369 545.274 67.6197 546.686 67.6884C548.097 67.7574 549.292 66.6766 549.369 66.1894C549.511 65.2986 548.015 64.5182 546.942 64.4413C545.534 64.3402 544.329 65.0434 544.258 65.9402Z" fill="#FBFBFB"/>
<path d="M541.26 69.3216C540.96 70.0054 541.584 70.8673 542.653 71.2467C543.723 71.6259 544.919 71.1639 545.133 70.6952C545.443 70.0152 544.459 68.9743 543.739 68.7703C542.643 68.4591 541.56 68.6378 541.26 69.3216Z" fill="#FBFBFB"/>
<path d="M559.455 27.9739C559.882 28.7737 561.276 28.9722 562.533 28.3533C563.491 27.8818 564.554 26.6039 564.064 25.8357C563.796 25.4158 562.259 24.8661 560.986 25.4566C559.713 26.0469 559.028 27.174 559.455 27.9739Z" fill="#FBFBFB"/>
<path d="M557.835 25.5569C558.416 25.1002 558.903 23.7733 558.342 23.2626C557.956 22.9107 556.667 22.9313 555.834 23.6803C555.002 24.4292 554.775 25.4563 555.328 25.9745C555.88 26.4927 556.95 26.2528 557.835 25.5569Z" fill="#FBFBFB"/>
<path d="M554.445 35.7758C555.741 35.45 555.979 34.7227 556.259 34.0399C556.521 33.4013 557.026 32.8745 557.672 32.5355C558.817 31.9351 559.38 30.756 559.142 29.6128C558.905 28.4696 557.914 27.5894 556.618 27.4586C555.885 27.3847 555.209 27.0851 554.712 26.5923C554.181 26.0656 553.671 25.4822 552.344 25.6606C550.707 25.881 549.659 27.4273 549.967 28.9104C550.053 29.3281 550.24 29.7035 550.499 30.0202C550.78 30.3633 550.971 30.7559 551.059 31.1675C551.142 31.5801 551.123 32.0131 551.001 32.4336C550.888 32.822 550.865 33.2375 550.952 33.6553C551.26 35.1382 552.846 36.1779 554.445 35.7758Z" fill="#FBFBFB"/>
<path d="M560.094 31.034C560.024 31.9307 561.11 32.7134 562.522 32.7822C563.933 32.8512 565.128 31.7704 565.205 31.2832C565.347 30.3924 563.851 29.612 562.778 29.535C561.37 29.4339 560.165 30.1371 560.094 31.034Z" fill="#FBFBFB"/>
<path d="M557.098 34.4154C556.798 35.0992 557.422 35.961 558.491 36.3405C559.561 36.7197 560.756 36.2576 560.97 35.789C561.281 35.109 560.296 34.068 559.577 33.8641C558.481 33.5529 557.398 33.7315 557.098 34.4154Z" fill="#FBFBFB"/>
<path d="M592.48 52.9075C592.908 53.7073 594.302 53.9058 595.559 53.2868C596.516 52.8154 597.58 51.5375 597.09 50.7693C596.821 50.3494 595.284 49.7997 594.011 50.3902C592.739 50.9805 592.053 52.1076 592.48 52.9075Z" fill="#FBFBFB"/>
<path d="M590.86 50.4875C591.441 50.0308 591.928 48.704 591.367 48.1933C590.981 47.8413 589.692 47.862 588.86 48.6109C588.028 49.3598 587.801 50.387 588.353 50.9052C588.905 51.4234 589.975 51.1835 590.86 50.4875Z" fill="#FBFBFB"/>
<path d="M587.471 60.7094C588.767 60.3836 589.005 59.6563 589.285 58.9735C589.547 58.3349 590.051 57.8081 590.698 57.4691C591.843 56.8687 592.405 55.6896 592.168 54.5464C591.93 53.4032 590.94 52.523 589.643 52.3922C588.911 52.3183 588.235 52.0187 587.738 51.5259C587.206 50.9992 586.696 50.4158 585.37 50.5942C583.733 50.8146 582.684 52.3609 582.992 53.844C583.079 54.2617 583.265 54.6371 583.525 54.9538C583.806 55.2969 583.996 55.6895 584.084 56.1011C584.168 56.5137 584.148 56.9467 584.026 57.3672C583.913 57.7556 583.891 58.1711 583.978 58.5889C584.286 60.0718 585.871 61.1115 587.471 60.7094Z" fill="#FBFBFB"/>
<path d="M593.122 55.9656C593.051 56.8623 594.137 57.645 595.549 57.7138C596.96 57.7828 598.155 56.702 598.233 56.2148C598.374 55.324 596.878 54.5436 595.805 54.4667C594.397 54.3656 593.193 55.0688 593.122 55.9656Z" fill="#FBFBFB"/>
<path d="M590.123 59.347C589.823 60.0308 590.447 60.8927 591.517 61.2721C592.586 61.6513 593.782 61.1893 593.996 60.7206C594.306 60.0406 593.322 58.9997 592.602 58.7957C591.506 58.4845 590.423 58.6632 590.123 59.347Z" fill="#FBFBFB"/>
<path d="M622.797 16.3343C623.224 17.1341 624.618 17.3326 625.875 16.7136C626.833 16.2421 627.896 14.9642 627.406 14.1961C627.138 13.7762 625.6 13.2265 624.328 13.8169C623.055 14.4073 622.37 15.5343 622.797 16.3343Z" fill="#FBFBFB"/>
<path d="M621.177 13.9182C621.757 13.4615 622.244 12.1346 621.684 11.624C621.297 11.272 620.009 11.2926 619.176 12.0416C618.344 12.7905 618.117 13.8176 618.669 14.3358C619.222 14.8541 620.292 14.6142 621.177 13.9182Z" fill="#FBFBFB"/>
<path d="M617.789 24.1371C619.085 23.8114 619.323 23.084 619.603 22.4012C619.865 21.7626 620.369 21.2359 621.016 20.8968C622.161 20.2964 622.724 19.1174 622.486 17.9742C622.249 16.831 621.258 15.9507 619.961 15.82C619.229 15.746 618.553 15.4464 618.056 14.9537C617.525 14.4269 617.014 13.8435 615.688 14.022C614.051 14.2423 613.002 15.7887 613.31 17.2717C613.397 17.6895 613.584 18.0648 613.843 18.3816C614.124 18.7246 614.315 19.1173 614.403 19.5288C614.486 19.9414 614.467 20.3744 614.344 20.795C614.231 21.1833 614.209 21.5989 614.296 22.0167C614.604 23.4995 616.19 24.5392 617.789 24.1371Z" fill="#FBFBFB"/>
<path d="M623.438 19.3943C623.367 20.291 624.454 21.0738 625.865 21.1425C627.277 21.2115 628.471 20.1307 628.549 19.6435C628.691 18.7527 627.194 17.9723 626.122 17.8954C624.713 17.7943 623.509 18.4975 623.438 19.3943Z" fill="#FBFBFB"/>
<path d="M620.44 22.7777C620.14 23.4615 620.764 24.3234 621.833 24.7028C622.902 25.082 624.098 24.6199 624.312 24.1513C624.623 23.4713 623.638 22.4303 622.919 22.2264C621.822 21.9152 620.739 22.0938 620.44 22.7777Z" fill="#FBFBFB"/>
<path d="M657.637 38.3626C658.064 39.1624 659.458 39.3609 660.715 38.7419C661.672 38.2704 662.736 36.9925 662.246 36.2244C661.978 35.8045 660.44 35.2548 659.168 35.8452C657.895 36.4356 657.209 37.5626 657.637 38.3626Z" fill="#FBFBFB"/>
<path d="M656.015 35.9446C656.595 35.4879 657.082 34.161 656.521 33.6503C656.135 33.2984 654.847 33.319 654.014 34.068C653.182 34.8169 652.955 35.844 653.507 36.3622C654.06 36.8804 655.13 36.6405 656.015 35.9446Z" fill="#FBFBFB"/>
<path d="M652.627 46.1655C653.923 45.8397 654.161 45.1123 654.441 44.4296C654.703 43.791 655.207 43.2642 655.854 42.9251C656.999 42.3247 657.561 41.1457 657.324 40.0025C657.087 38.8593 656.096 37.979 654.799 37.8483C654.067 37.7743 653.391 37.4748 652.894 36.982C652.363 36.4552 651.852 35.8718 650.526 36.0503C648.889 36.2707 647.84 37.817 648.148 39.3C648.235 39.7178 648.422 40.0931 648.681 40.4099C648.962 40.7529 649.153 41.1456 649.241 41.5572C649.324 41.9698 649.305 42.4028 649.182 42.8233C649.069 43.2116 649.047 43.6272 649.134 44.045C649.442 45.5278 651.028 46.5675 652.627 46.1655Z" fill="#FBFBFB"/>
<path d="M658.276 41.4217C658.205 42.3183 659.292 43.1011 660.703 43.1699C662.114 43.2388 663.309 42.1581 663.387 41.6709C663.528 40.7801 662.032 39.9997 660.96 39.9227C659.551 39.8216 658.347 40.5248 658.276 41.4217Z" fill="#FBFBFB"/>
<path d="M655.28 44.804C654.98 45.4879 655.603 46.3497 656.673 46.7292C657.742 47.1083 658.938 46.6463 659.152 46.1776C659.463 45.4976 658.478 44.4567 657.759 44.2528C656.662 43.9416 655.579 44.1202 655.28 44.804Z" fill="#FBFBFB"/>
<path d="M682.521 14.262C682.949 15.0618 684.343 15.2603 685.6 14.6413C686.557 14.1699 687.621 12.892 687.131 12.1238C686.862 11.7039 685.325 11.1542 684.052 11.7446C682.78 12.335 682.094 13.4621 682.521 14.262Z" fill="#FBFBFB"/>
<path d="M680.899 11.8449C681.48 11.3883 681.967 10.0614 681.406 9.55071C681.02 9.19875 679.731 9.2194 678.899 9.96837C678.067 10.7173 677.84 11.7444 678.392 12.2626C678.945 12.7808 680.015 12.5409 680.899 11.8449Z" fill="#FBFBFB"/>
<path d="M677.512 22.0639C678.808 21.7381 679.046 21.0108 679.326 20.328C679.588 19.6894 680.092 19.1626 680.739 18.8236C681.884 18.2232 682.446 17.0441 682.209 15.9009C681.971 14.7577 680.981 13.8775 679.684 13.7467C678.952 13.6728 678.276 13.3732 677.779 12.8804C677.247 12.3537 676.737 11.7702 675.411 11.9487C673.774 12.1691 672.725 13.7154 673.033 15.1984C673.12 15.6162 673.306 15.9916 673.566 16.3083C673.847 16.6514 674.037 17.044 674.125 17.4556C674.209 17.8682 674.189 18.3012 674.067 18.7217C673.954 19.1101 673.932 19.5256 674.019 19.9434C674.327 21.4263 675.912 22.466 677.512 22.0639Z" fill="#FBFBFB"/>
<path d="M683.161 17.323C683.09 18.2197 684.177 19.0025 685.588 19.0713C686.999 19.1402 688.194 18.0594 688.272 17.5722C688.413 16.6814 686.917 15.901 685.844 15.8241C684.436 15.723 683.232 16.4262 683.161 17.323Z" fill="#FBFBFB"/>
<path d="M680.164 20.7034C679.864 21.3873 680.488 22.2491 681.558 22.6286C682.627 23.0078 683.823 22.5457 684.037 22.077C684.347 21.397 683.363 20.3561 682.643 20.1522C681.547 19.841 680.464 20.0196 680.164 20.7034Z" fill="#FBFBFB"/>
<path d="M706.951 35.8704C707.378 36.6702 708.772 36.8687 710.029 36.2497C710.987 35.7783 712.05 34.5004 711.56 33.7322C711.292 33.3123 709.755 32.7626 708.482 33.353C707.209 33.9434 706.524 35.0705 706.951 35.8704Z" fill="#FBFBFB"/>
<path d="M705.327 33.4533C705.908 32.9967 706.395 31.6698 705.834 31.1591C705.448 30.8072 704.159 30.8278 703.327 31.5768C702.494 32.3257 702.267 33.3528 702.82 33.871C703.372 34.3892 704.442 34.1493 705.327 33.4533Z" fill="#FBFBFB"/>
<path d="M701.941 43.6723C703.237 43.3465 703.475 42.6191 703.755 41.9364C704.017 41.2978 704.522 40.771 705.168 40.432C706.313 39.8316 706.876 38.6525 706.638 37.5093C706.401 36.3661 705.411 35.4859 704.114 35.3551C703.381 35.2812 702.705 34.9816 702.209 34.4888C701.677 33.9621 701.167 33.3786 699.84 33.5571C698.203 33.7775 697.155 35.3238 697.463 36.8068C697.55 37.2246 697.736 37.6 697.996 37.9167C698.276 38.2598 698.467 38.6524 698.555 39.064C698.638 39.4766 698.619 39.9096 698.497 40.3301C698.384 40.7185 698.362 41.134 698.448 41.5518C698.756 43.0347 700.342 44.0744 701.941 43.6723Z" fill="#FBFBFB"/>
<path d="M707.59 38.9285C707.52 39.8252 708.606 40.6079 710.018 40.6767C711.429 40.7457 712.624 39.6649 712.701 39.1777C712.843 38.2869 711.347 37.5065 710.274 37.4296C708.866 37.3284 707.661 38.0317 707.59 38.9285Z" fill="#FBFBFB"/>
<path d="M704.594 42.3128C704.294 42.9967 704.918 43.8585 705.987 44.2379C707.057 44.6171 708.252 44.1551 708.467 43.6864C708.777 43.0064 707.793 41.9655 707.073 41.7615C705.977 41.4504 704.894 41.629 704.594 42.3128Z" fill="#FBFBFB"/>
<path d="M742.24 13.4271C742.668 14.2269 744.061 14.4254 745.318 13.8064C746.276 13.3349 747.34 12.057 746.849 11.2888C746.581 10.8689 745.044 10.3192 743.771 10.9097C742.498 11.5001 741.813 12.6271 742.24 13.4271Z" fill="#FBFBFB"/>
<path d="M740.618 11.01C741.199 10.5533 741.686 9.22641 741.125 8.71575C740.739 8.36379 739.45 8.38444 738.618 9.13341C737.785 9.8823 737.558 10.9094 738.111 11.4276C738.663 11.9459 739.733 11.706 740.618 11.01Z" fill="#FBFBFB"/>
<path d="M737.231 21.228C738.526 20.9022 738.764 20.1748 739.044 19.4921C739.306 18.8535 739.811 18.3267 740.457 17.9876C741.602 17.3872 742.165 16.2082 741.928 15.065C741.69 13.9218 740.7 13.0415 739.403 12.9108C738.67 12.8368 737.994 12.5373 737.498 12.0445C736.966 11.5177 736.456 10.9343 735.13 11.1128C733.493 11.3332 732.444 12.8795 732.752 14.3625C732.839 14.7803 733.025 15.1556 733.285 15.4724C733.565 15.8154 733.756 16.2081 733.844 16.6197C733.927 17.0323 733.908 17.4653 733.786 17.8858C733.673 18.2741 733.651 18.6897 733.737 19.1075C734.045 20.5903 735.631 21.63 737.231 21.228Z" fill="#FBFBFB"/>
<path d="M742.879 16.4871C742.809 17.3838 743.895 18.1665 745.307 18.2353C746.718 18.3043 747.913 17.2235 747.99 16.7363C748.132 15.8455 746.636 15.0651 745.563 14.9882C744.155 14.887 742.95 15.5903 742.879 16.4871Z" fill="#FBFBFB"/>
<path d="M739.883 19.8685C739.583 20.5523 740.207 21.4142 741.276 21.7936C742.346 22.1728 743.542 21.7107 743.756 21.2421C744.066 20.5621 743.082 19.5212 742.362 19.3172C741.266 19.006 740.183 19.1846 739.883 19.8685Z" fill="#FBFBFB"/>
<path d="M143.401 97.9031C143.439 98.7934 144.626 99.4935 146.048 99.3953C147.131 99.3205 148.667 98.548 148.558 97.6633C148.498 97.1796 147.335 96.105 145.911 96.1712C144.487 96.2374 143.363 97.0128 143.401 97.9031Z" fill="#FBFBFB"/>
<path d="M142.984 95.0899C143.716 94.8884 144.747 93.8564 144.459 93.1809C144.261 92.7154 143.074 92.2548 141.983 92.6298C140.892 93.0048 140.231 93.8594 140.508 94.5387C140.784 95.2181 141.868 95.3969 142.984 95.0899Z" fill="#FBFBFB"/>
<path d="M135.378 103.172C136.706 103.357 137.245 102.78 137.802 102.26C138.323 101.774 139.016 101.48 139.757 101.41C141.069 101.288 142.103 100.419 142.39 99.2855C142.678 98.1519 142.16 96.9786 141.032 96.3765C140.395 96.0364 139.909 95.5109 139.673 94.8755C139.419 94.1962 139.21 93.4729 137.919 93.1426C136.325 92.7349 134.684 93.7584 134.311 95.2289C134.206 95.6432 134.211 96.0557 134.309 96.4419C134.414 96.86 134.415 97.2899 134.314 97.699C134.208 98.1072 134 98.496 133.703 98.8349C133.428 99.1479 133.224 99.5195 133.12 99.9338C132.747 101.404 133.738 102.945 135.378 103.172Z" fill="#FBFBFB"/>
<path d="M142.638 100.939C142.177 101.732 142.826 102.852 144.086 103.44C145.345 104.028 146.915 103.485 147.2 103.068C147.723 102.306 146.699 101.036 145.752 100.567C144.509 99.9502 143.098 100.145 142.638 100.939Z" fill="#FBFBFB"/>
<path d="M138.403 102.916C137.828 103.43 138.018 104.45 138.828 105.195C139.639 105.939 140.936 105.962 141.338 105.613C141.922 105.107 141.481 103.789 140.913 103.335C140.048 102.642 138.979 102.403 138.403 102.916Z" fill="#FBFBFB"/>
<path d="M167.983 84.0057C168.021 84.8959 169.208 85.596 170.63 85.4979C171.713 85.4231 173.249 84.6505 173.14 83.7658C173.08 83.2822 171.917 82.2075 170.493 82.2737C169.069 82.3399 167.945 83.1153 167.983 84.0057Z" fill="#FBFBFB"/>
<path d="M167.568 81.1924C168.3 80.9909 169.331 79.959 169.043 79.2835C168.845 78.8179 167.658 78.3573 166.567 78.7323C165.476 79.1073 164.815 79.9619 165.092 80.6413C165.368 81.3206 166.452 81.4995 167.568 81.1924Z" fill="#FBFBFB"/>
<path d="M159.962 89.2778C161.29 89.4621 161.829 88.8856 162.386 88.3656C162.907 87.8792 163.6 87.5853 164.341 87.516C165.653 87.393 166.687 86.5245 166.974 85.3909C167.262 84.2574 166.744 83.0841 165.616 82.4819C164.979 82.1418 164.493 81.6164 164.257 80.981C164.003 80.3017 163.794 79.5784 162.502 79.248C160.909 78.8404 159.268 79.8639 158.895 81.3344C158.79 81.7487 158.795 82.1612 158.893 82.5474C158.998 82.9654 158.999 83.3954 158.898 83.8045C158.792 84.2126 158.584 84.6014 158.287 84.9403C158.012 85.2534 157.808 85.625 157.704 86.0393C157.331 87.5096 158.322 89.0502 159.962 89.2778Z" fill="#FBFBFB"/>
<path d="M167.22 87.0431C166.76 87.8366 167.408 88.9565 168.668 89.5446C169.928 90.1328 171.497 89.5893 171.782 89.1727C172.305 88.411 171.281 87.1408 170.334 86.6713C169.091 86.0547 167.68 86.2495 167.22 87.0431Z" fill="#FBFBFB"/>
<path d="M162.987 89.0198C162.412 89.5335 162.602 90.5535 163.412 91.2983C164.223 92.0429 165.52 92.0655 165.922 91.7166C166.506 91.2104 166.065 89.8925 165.497 89.4383C164.632 88.7458 163.563 88.5062 162.987 89.0198Z" fill="#FBFBFB"/>
<path d="M182.461 109.771C182.499 110.662 183.686 111.362 185.108 111.263C186.192 111.189 187.728 110.416 187.618 109.531C187.559 109.048 186.395 107.973 184.971 108.039C183.547 108.106 182.424 108.881 182.461 109.771Z" fill="#FBFBFB"/>
<path d="M182.047 106.956C182.779 106.755 183.809 105.723 183.522 105.047C183.324 104.582 182.137 104.121 181.045 104.496C179.954 104.871 179.294 105.726 179.57 106.405C179.847 107.084 180.931 107.263 182.047 106.956Z" fill="#FBFBFB"/>
<path d="M174.44 115.04C175.769 115.225 176.307 114.648 176.864 114.128C177.385 113.642 178.079 113.348 178.82 113.279C180.131 113.156 181.166 112.287 181.453 111.154C181.74 110.02 181.223 108.847 180.095 108.245C179.458 107.905 178.972 107.379 178.735 106.744C178.482 106.064 178.272 105.341 176.981 105.011C175.387 104.603 173.746 105.627 173.374 107.097C173.269 107.511 173.274 107.924 173.371 108.31C173.477 108.728 173.478 109.158 173.377 109.567C173.271 109.975 173.063 110.364 172.765 110.703C172.491 111.016 172.287 111.388 172.182 111.802C171.809 113.272 172.801 114.813 174.44 115.04Z" fill="#FBFBFB"/>
<path d="M181.698 112.807C181.238 113.6 181.886 114.72 183.146 115.308C184.406 115.896 185.975 115.353 186.261 114.936C186.783 114.175 185.76 112.904 184.813 112.435C183.57 111.818 182.159 112.013 181.698 112.807Z" fill="#FBFBFB"/>
<path d="M177.464 114.783C176.888 115.296 177.078 116.316 177.889 117.061C178.699 117.806 179.996 117.828 180.399 117.479C180.982 116.973 180.541 115.655 179.974 115.201C179.108 114.509 178.04 114.269 177.464 114.783Z" fill="#FBFBFB"/>
<path d="M213.682 98.5496C213.72 99.4399 214.907 100.14 216.329 100.042C217.412 99.967 218.949 99.1945 218.839 98.3097C218.779 97.8261 217.616 96.7515 216.192 96.8177C214.768 96.8839 213.644 97.6593 213.682 98.5496Z" fill="#FBFBFB"/>
<path d="M213.265 95.7364C213.998 95.5349 215.028 94.5029 214.741 93.8274C214.543 93.3619 213.355 92.9013 212.264 93.2762C211.173 93.6513 210.512 94.5059 210.789 95.1852C211.065 95.8646 212.149 96.0434 213.265 95.7364Z" fill="#FBFBFB"/>
<path d="M205.659 103.819C206.988 104.003 207.526 103.427 208.083 102.907C208.604 102.42 209.298 102.126 210.038 102.057C211.35 101.934 212.385 101.065 212.672 99.932C212.959 98.7984 212.442 97.6251 211.314 97.023C210.677 96.6829 210.191 96.1574 209.954 95.522C209.7 94.8427 209.491 94.1194 208.2 93.789C206.606 93.3814 204.965 94.4049 204.593 95.8754C204.488 96.2897 204.493 96.7022 204.59 97.0884C204.695 97.5065 204.697 97.9364 204.596 98.3455C204.49 98.7536 204.281 99.1424 203.984 99.4813C203.709 99.7944 203.506 100.166 203.401 100.58C203.028 102.051 204.02 103.591 205.659 103.819Z" fill="#FBFBFB"/>
<path d="M212.919 101.584C212.459 102.378 213.107 103.498 214.367 104.086C215.627 104.674 217.196 104.13 217.482 103.714C218.004 102.952 216.98 101.682 216.034 101.212C214.791 100.596 213.379 100.791 212.919 101.584Z" fill="#FBFBFB"/>
<path d="M208.685 103.562C208.109 104.075 208.299 105.095 209.109 105.84C209.92 106.585 211.217 106.607 211.619 106.259C212.203 105.752 211.762 104.434 211.194 103.98C210.329 103.288 209.26 103.048 208.685 103.562Z" fill="#FBFBFB"/>
<path d="M214.133 125.98C214.171 126.871 215.358 127.571 216.78 127.472C217.864 127.398 219.4 126.625 219.29 125.74C219.23 125.257 218.067 124.182 216.643 124.248C215.219 124.315 214.096 125.09 214.133 125.98Z" fill="#FBFBFB"/>
<path d="M213.719 123.167C214.451 122.966 215.481 121.934 215.194 121.258C214.996 120.793 213.809 120.332 212.717 120.707C211.626 121.082 210.965 121.937 211.242 122.616C211.518 123.295 212.602 123.474 213.719 123.167Z" fill="#FBFBFB"/>
<path d="M206.114 131.249C207.443 131.434 207.981 130.857 208.538 130.337C209.059 129.851 209.753 129.557 210.494 129.488C211.805 129.365 212.84 128.496 213.127 127.363C213.414 126.229 212.897 125.056 211.769 124.454C211.132 124.114 210.646 123.588 210.409 122.953C210.155 122.273 209.946 121.55 208.655 121.22C207.061 120.812 205.42 121.836 205.048 123.306C204.943 123.72 204.948 124.133 205.045 124.519C205.151 124.937 205.152 125.367 205.051 125.776C204.945 126.184 204.736 126.573 204.439 126.912C204.164 127.225 203.961 127.597 203.856 128.011C203.483 129.481 204.475 131.022 206.114 131.249Z" fill="#FBFBFB"/>
<path d="M213.37 129.017C212.91 129.81 213.558 130.93 214.818 131.518C216.078 132.106 217.647 131.563 217.933 131.146C218.455 130.385 217.432 129.114 216.485 128.645C215.242 128.028 213.83 128.223 213.37 129.017Z" fill="#FBFBFB"/>
<path d="M209.14 130.991C208.564 131.505 208.754 132.525 209.564 133.27C210.375 134.015 211.672 134.037 212.074 133.688C212.658 133.182 212.217 131.864 211.649 131.41C210.784 130.717 209.715 130.478 209.14 130.991Z" fill="#FBFBFB"/>
<path d="M389.594 145.596C390.169 146.313 391.579 146.281 392.696 145.466C393.547 144.846 394.346 143.415 393.715 142.739C393.37 142.369 391.751 142.079 390.613 142.868C389.475 143.657 389.018 144.878 389.594 145.596Z" fill="#FBFBFB"/>
<path d="M387.53 143.482C388.013 142.938 388.235 141.553 387.585 141.142C387.136 140.859 385.872 141.089 385.198 141.962C384.524 142.835 384.499 143.883 385.143 144.303C385.787 144.723 386.794 144.312 387.53 143.482Z" fill="#FBFBFB"/>
<path d="M386.174 154.094C387.387 153.562 387.48 152.807 387.623 152.089C387.757 151.418 388.152 150.817 388.723 150.378C389.733 149.6 390.059 148.348 389.604 147.262C389.149 146.176 388.004 145.471 386.702 145.554C385.967 145.601 385.244 145.417 384.659 145.013C384.035 144.582 383.419 144.091 382.149 144.483C380.581 144.967 379.848 146.66 380.438 148.069C380.604 148.466 380.861 148.805 381.177 149.074C381.52 149.366 381.784 149.721 381.95 150.112C382.112 150.504 382.177 150.934 382.138 151.368C382.102 151.768 382.16 152.181 382.327 152.578C382.917 153.987 384.678 154.751 386.174 154.094Z" fill="#FBFBFB"/>
<path d="M390.818 148.502C390.922 149.396 392.143 149.989 393.545 149.826C394.947 149.663 395.914 148.404 395.896 147.912C395.863 147.013 394.239 146.489 393.169 146.588C391.763 146.719 390.714 147.608 390.818 148.502Z" fill="#FBFBFB"/>
<path d="M388.52 152.321C388.358 153.043 389.138 153.789 390.264 153.988C391.39 154.186 392.477 153.536 392.597 153.04C392.771 152.32 391.601 151.457 390.853 151.374C389.714 151.246 388.683 151.599 388.52 152.321Z" fill="#FBFBFB"/>
<path d="M424.883 119.002C425.458 119.719 426.868 119.687 427.985 118.872C428.836 118.252 429.635 116.821 429.004 116.145C428.659 115.776 427.04 115.486 425.902 116.275C424.764 117.063 424.307 118.284 424.883 119.002Z" fill="#FBFBFB"/>
<path d="M422.819 116.888C423.302 116.343 423.524 114.958 422.874 114.547C422.425 114.264 421.161 114.495 420.487 115.368C419.813 116.241 419.789 117.288 420.432 117.708C421.076 118.128 422.083 117.717 422.819 116.888Z" fill="#FBFBFB"/>
<path d="M421.464 127.498C422.676 126.966 422.769 126.211 422.912 125.494C423.047 124.823 423.441 124.222 424.012 123.783C425.022 123.005 425.348 121.753 424.893 120.666C424.438 119.58 423.293 118.876 421.991 118.959C421.256 119.006 420.533 118.821 419.949 118.417C419.324 117.986 418.708 117.495 417.438 117.887C415.87 118.372 415.137 120.064 415.727 121.474C415.893 121.87 416.15 122.209 416.466 122.479C416.809 122.77 417.073 123.126 417.239 123.516C417.401 123.909 417.466 124.338 417.427 124.772C417.391 125.172 417.449 125.585 417.616 125.982C418.206 127.391 419.968 128.155 421.464 127.498Z" fill="#FBFBFB"/>
<path d="M426.105 121.909C426.209 122.803 427.43 123.396 428.832 123.233C430.234 123.07 431.201 121.812 431.183 121.32C431.15 120.42 429.526 119.896 428.456 119.996C427.05 120.126 426.001 121.015 426.105 121.909Z" fill="#FBFBFB"/>
<path d="M423.809 125.725C423.647 126.447 424.427 127.193 425.553 127.392C426.679 127.591 427.766 126.941 427.886 126.444C428.06 125.725 426.89 124.861 426.142 124.778C425.003 124.651 423.972 125.003 423.809 125.725Z" fill="#FBFBFB"/>
<path d="M421.26 145.182C421.835 145.899 423.245 145.867 424.362 145.052C425.213 144.432 426.012 143.001 425.381 142.325C425.036 141.955 423.417 141.665 422.279 142.454C421.141 143.243 420.684 144.464 421.26 145.182Z" fill="#FBFBFB"/>
<path d="M419.196 143.068C419.679 142.524 419.901 141.139 419.251 140.728C418.802 140.445 417.538 140.675 416.864 141.548C416.19 142.421 416.165 143.469 416.809 143.889C417.453 144.308 418.46 143.898 419.196 143.068Z" fill="#FBFBFB"/>
<path d="M417.84 153.677C419.053 153.145 419.146 152.39 419.289 151.672C419.423 151.001 419.818 150.4 420.389 149.961C421.399 149.183 421.725 147.931 421.27 146.845C420.815 145.759 419.67 145.054 418.368 145.137C417.633 145.184 416.91 145 416.326 144.596C415.701 144.165 415.085 143.674 413.815 144.066C412.247 144.55 411.514 146.243 412.104 147.652C412.27 148.049 412.527 148.388 412.843 148.657C413.186 148.949 413.45 149.304 413.616 149.695C413.778 150.087 413.843 150.517 413.804 150.951C413.768 151.351 413.826 151.764 413.993 152.161C414.583 153.57 416.344 154.334 417.84 153.677Z" fill="#FBFBFB"/>
<path d="M422.484 148.087C422.588 148.981 423.809 149.573 425.211 149.411C426.613 149.248 427.58 147.989 427.562 147.497C427.529 146.598 425.905 146.074 424.835 146.173C423.429 146.304 422.38 147.193 422.484 148.087Z" fill="#FBFBFB"/>
<path d="M420.186 151.906C420.024 152.628 420.804 153.374 421.93 153.573C423.056 153.771 424.143 153.121 424.263 152.625C424.437 151.905 423.267 151.042 422.519 150.958C421.38 150.831 420.349 151.184 420.186 151.906Z" fill="#FBFBFB"/>
<path d="M466.961 125.235C467.536 125.953 468.946 125.92 470.063 125.106C470.914 124.486 471.714 123.054 471.082 122.378C470.737 122.009 469.118 121.719 467.98 122.508C466.842 123.297 466.385 124.518 466.961 125.235Z" fill="#FBFBFB"/>
<path d="M464.897 123.122C465.38 122.578 465.602 121.192 464.952 120.782C464.503 120.498 463.239 120.729 462.565 121.602C461.891 122.475 461.867 123.523 462.511 123.942C463.155 124.362 464.161 123.951 464.897 123.122Z" fill="#FBFBFB"/>
<path d="M463.542 133.732C464.754 133.199 464.847 132.445 464.991 131.727C465.125 131.056 465.519 130.455 466.09 130.016C467.1 129.238 467.426 127.986 466.971 126.9C466.516 125.814 465.371 125.109 464.069 125.192C463.334 125.239 462.611 125.055 462.027 124.651C461.402 124.219 460.787 123.728 459.516 124.121C457.948 124.605 457.215 126.298 457.805 127.707C457.972 128.104 458.228 128.443 458.544 128.712C458.887 129.004 459.151 129.359 459.317 129.75C459.479 130.142 459.544 130.571 459.505 131.005C459.469 131.406 459.527 131.818 459.694 132.215C460.284 133.624 462.046 134.388 463.542 133.732Z" fill="#FBFBFB"/>
<path d="M468.185 128.144C468.289 129.038 469.51 129.631 470.912 129.468C472.314 129.306 473.281 128.047 473.263 127.555C473.23 126.655 471.606 126.132 470.536 126.231C469.13 126.361 468.081 127.25 468.185 128.144Z" fill="#FBFBFB"/>
<path d="M465.888 131.961C465.725 132.682 466.506 133.429 467.631 133.627C468.757 133.826 469.844 133.176 469.964 132.68C470.138 131.96 468.968 131.096 468.221 131.013C467.081 130.886 466.05 131.239 465.888 131.961Z" fill="#FBFBFB"/>
<path d="M359.73 140.609C360.306 141.327 361.716 141.294 362.833 140.48C363.684 139.86 364.483 138.428 363.852 137.752C363.507 137.383 361.888 137.093 360.749 137.882C359.611 138.671 359.155 139.892 359.73 140.609Z" fill="#FBFBFB"/>
<path d="M357.667 138.493C358.15 137.949 358.372 136.564 357.721 136.153C357.273 135.869 356.009 136.1 355.335 136.973C354.661 137.846 354.636 138.894 355.28 139.314C355.924 139.733 356.931 139.322 357.667 138.493Z" fill="#FBFBFB"/>
<path d="M356.311 149.105C357.523 148.572 357.617 147.818 357.76 147.1C357.894 146.429 358.289 145.828 358.859 145.389C359.87 144.611 360.195 143.359 359.74 142.273C359.285 141.187 358.14 140.482 356.839 140.565C356.104 140.612 355.38 140.428 354.796 140.024C354.171 139.592 353.556 139.102 352.286 139.494C350.717 139.978 349.985 141.671 350.575 143.08C350.741 143.477 350.997 143.816 351.314 144.085C351.657 144.377 351.92 144.732 352.087 145.123C352.248 145.515 352.313 145.944 352.274 146.378C352.238 146.779 352.297 147.191 352.463 147.588C353.053 148.997 354.815 149.761 356.311 149.105Z" fill="#FBFBFB"/>
<path d="M360.953 143.514C361.057 144.408 362.277 145.001 363.68 144.838C365.082 144.676 366.048 143.417 366.03 142.925C365.997 142.025 364.374 141.502 363.303 141.601C361.898 141.732 360.849 142.62 360.953 143.514Z" fill="#FBFBFB"/>
<path d="M358.657 147.334C358.494 148.055 359.275 148.802 360.401 149C361.527 149.199 362.614 148.549 362.734 148.053C362.908 147.333 361.737 146.469 360.99 146.386C359.851 146.259 358.82 146.612 358.657 147.334Z" fill="#FBFBFB"/>
<path d="M46.5324 121.463C47.3548 121.935 48.653 121.429 49.3654 120.294C49.9079 119.429 50.0776 117.828 49.22 117.413C48.751 117.186 47.1293 117.464 46.3871 118.583C45.645 119.701 45.71 120.99 46.5324 121.463Z" fill="#FBFBFB"/>
<path d="M43.769 120.193C43.9999 119.524 43.6515 118.161 42.8818 117.999C42.3515 117.887 41.2686 118.529 40.9916 119.569C40.7147 120.608 41.1118 121.591 41.8788 121.763C42.6457 121.936 43.4169 121.214 43.769 120.193Z" fill="#FBFBFB"/>
<path d="M46.7606 130.518C47.6743 129.613 47.4588 128.88 47.3045 128.164C47.1603 127.495 47.2862 126.803 47.6409 126.201C48.2687 125.136 48.0696 123.862 47.2113 123.006C46.353 122.15 45.006 121.882 43.8291 122.399C43.1645 122.691 42.4181 122.764 41.713 122.586C40.959 122.396 40.1904 122.148 39.1662 122.942C37.9021 123.923 37.8992 125.745 39.0127 126.855C39.3264 127.168 39.7004 127.397 40.1028 127.54C40.5383 127.695 40.9258 127.936 41.2371 128.243C41.5446 128.554 41.7771 128.931 41.9146 129.347C42.0418 129.732 42.2615 130.096 42.5753 130.409C43.6885 131.519 45.6329 131.634 46.7606 130.518Z" fill="#FBFBFB"/>
<path d="M48.8357 123.751C49.2906 124.547 50.6632 124.686 51.9018 124.06C53.1403 123.435 53.5346 121.938 53.3207 121.487C52.9294 120.661 51.2101 120.723 50.2546 121.178C49 121.774 48.3808 122.955 48.8357 123.751Z" fill="#FBFBFB"/>
<path d="M48.2307 128.076C48.3688 128.802 49.3937 129.232 50.52 129.037C51.6464 128.841 52.3969 127.869 52.3095 127.367C52.1827 126.639 50.7486 126.231 50.0203 126.407C48.9101 126.674 48.0927 127.35 48.2307 128.076Z" fill="#FBFBFB"/>
<path d="M93.8019 121.139C94.6244 121.611 95.9225 121.105 96.6349 119.97C97.1775 119.105 97.3471 117.504 96.4895 117.089C96.0206 116.862 94.3988 117.14 93.6566 118.259C92.9145 119.377 92.9796 120.666 93.8019 121.139Z" fill="#FBFBFB"/>
<path d="M91.0385 119.869C91.2694 119.2 90.921 117.837 90.1513 117.675C89.621 117.563 88.5382 118.205 88.2611 119.244C87.9842 120.284 88.3813 121.266 89.1483 121.439C89.9152 121.612 90.6864 120.889 91.0385 119.869Z" fill="#FBFBFB"/>
<path d="M94.0302 130.194C94.9439 129.29 94.7283 128.556 94.5741 127.841C94.4298 127.171 94.5558 126.479 94.9104 125.878C95.5382 124.813 95.3391 123.539 94.4808 122.683C93.6225 121.827 92.2755 121.559 91.0986 122.076C90.434 122.368 89.6876 122.441 88.9826 122.263C88.2286 122.073 87.4599 121.825 86.4357 122.619C85.1716 123.6 85.1688 125.421 86.2822 126.532C86.5959 126.845 86.97 127.073 87.3723 127.217C87.8078 127.372 88.1954 127.613 88.5066 127.92C88.8142 128.23 89.0467 128.608 89.1842 129.024C89.3113 129.409 89.5311 129.773 89.8448 130.085C90.958 131.196 92.9024 131.311 94.0302 130.194Z" fill="#FBFBFB"/>
<path d="M96.1052 123.427C96.5601 124.223 97.9327 124.362 99.1714 123.736C100.41 123.111 100.804 121.614 100.59 121.163C100.199 120.337 98.4797 120.399 97.5242 120.853C96.2696 121.45 95.6503 122.631 96.1052 123.427Z" fill="#FBFBFB"/>
<path d="M95.5003 127.753C95.6383 128.479 96.6632 128.909 97.7896 128.713C98.9159 128.517 99.6664 127.545 99.5791 127.044C99.4523 126.315 98.0181 125.908 97.2898 126.083C96.1796 126.35 95.3622 127.027 95.5003 127.753Z" fill="#FBFBFB"/>
<path d="M332.131 37.1347C332.706 37.852 334.116 37.8197 335.233 37.0053C336.084 36.3849 336.884 34.9537 336.252 34.2778C335.907 33.9084 334.288 33.6185 333.15 34.4074C332.012 35.1962 331.555 36.4172 332.131 37.1347Z" fill="#FBFBFB"/>
<path d="M330.067 35.0214C330.55 34.4772 330.772 33.0919 330.122 32.6809C329.673 32.3977 328.409 32.6284 327.735 33.5014C327.061 34.3743 327.037 35.4221 327.681 35.8419C328.324 36.2616 329.331 35.8508 330.067 35.0214Z" fill="#FBFBFB"/>
<path d="M328.712 45.63C329.924 45.0978 330.017 44.3432 330.16 43.6256C330.295 42.9544 330.689 42.3536 331.26 41.9144C332.27 41.1365 332.596 39.8844 332.141 38.7982C331.686 37.712 330.541 37.0075 329.239 37.0906C328.504 37.1374 327.781 36.9531 327.197 36.5493C326.572 36.1177 325.956 35.6269 324.686 36.0191C323.118 36.5033 322.385 38.1963 322.975 39.6054C323.142 40.0023 323.398 40.3412 323.714 40.6106C324.057 40.9023 324.321 41.2575 324.487 41.6482C324.649 42.0406 324.714 42.4698 324.675 42.9037C324.639 43.3042 324.697 43.7168 324.864 44.1138C325.454 45.5227 327.216 46.2869 328.712 45.63Z" fill="#FBFBFB"/>
<path d="M333.353 40.0398C333.457 40.9338 334.678 41.5266 336.08 41.3638C337.482 41.2012 338.449 39.9425 338.431 39.4504C338.398 38.5506 336.774 38.027 335.704 38.1265C334.298 38.257 333.249 39.1457 333.353 40.0398Z" fill="#FBFBFB"/>
<path d="M331.058 43.857C330.895 44.5789 331.675 45.3252 332.801 45.5239C333.927 45.7224 335.014 45.0724 335.134 44.5763C335.308 43.8564 334.138 42.9929 333.39 42.9096C332.251 42.7825 331.22 43.1351 331.058 43.857Z" fill="#FBFBFB"/>
<path d="M15.8728 145.594C16.4482 146.311 17.8583 146.279 18.9755 145.464C19.8264 144.844 20.6257 143.413 19.9946 142.737C19.6495 142.367 18.0302 142.077 16.892 142.866C15.7539 143.655 15.2976 144.876 15.8728 145.594Z" fill="#FBFBFB"/>
<path d="M13.8093 143.481C14.2922 142.937 14.5145 141.552 13.8638 141.141C13.4156 140.858 12.1515 141.088 11.4772 141.961C10.8032 142.834 10.7788 143.882 11.4227 144.302C12.0667 144.722 13.0732 144.311 13.8093 143.481Z" fill="#FBFBFB"/>
<path d="M12.4518 154.091C13.6639 153.559 13.7573 152.804 13.9007 152.086C14.0348 151.415 14.4292 150.815 14.9999 150.375C16.0104 149.597 16.3359 148.345 15.8809 147.259C15.426 146.173 14.2809 145.468 12.9794 145.552C12.2444 145.598 11.5211 145.414 10.9368 145.01C10.3119 144.579 9.69673 144.088 8.42615 144.48C6.85791 144.964 6.1252 146.657 6.71541 148.066C6.88175 148.463 7.13795 148.802 7.45458 149.072C7.79723 149.363 8.06096 149.718 8.22735 150.109C8.38897 150.502 8.45403 150.931 8.41493 151.365C8.37903 151.765 8.43755 152.178 8.6039 152.575C9.1939 153.984 10.9558 154.748 12.4518 154.091Z" fill="#FBFBFB"/>
<path d="M17.0952 148.502C17.1992 149.396 18.4199 149.989 19.8223 149.826C21.2243 149.663 22.191 148.404 22.1729 147.912C22.1399 147.013 20.5165 146.489 19.446 146.588C18.0404 146.719 16.9914 147.608 17.0952 148.502Z" fill="#FBFBFB"/>
<path d="M14.7997 152.319C14.637 153.041 15.4176 153.787 16.5434 153.986C17.6692 154.184 18.7565 153.534 18.8764 153.038C19.0503 152.318 17.88 151.455 17.1327 151.372C15.9934 151.244 14.9624 151.597 14.7997 152.319Z" fill="#FBFBFB"/>
<path d="M12.2517 171.778C12.8271 172.496 14.2372 172.463 15.3544 171.649C16.2053 171.028 17.0046 169.597 16.3735 168.921C16.0284 168.552 14.4091 168.262 13.2709 169.051C12.1328 169.84 11.6765 171.061 12.2517 171.778Z" fill="#FBFBFB"/>
<path d="M10.1902 169.664C10.673 169.12 10.8954 167.734 10.2447 167.324C9.79646 167.04 8.53236 167.271 7.85811 168.144C7.1841 169.017 7.15963 170.065 7.80359 170.484C8.44755 170.904 9.45402 170.493 10.1902 169.664Z" fill="#FBFBFB"/>
<path d="M8.83266 180.274C10.0447 179.741 10.1382 178.987 10.2815 178.269C10.4157 177.598 10.8101 176.997 11.3808 176.558C12.3913 175.78 12.7167 174.528 12.2618 173.442C11.8068 172.356 10.6618 171.651 9.36022 171.734C8.62524 171.781 7.90194 171.597 7.3177 171.193C6.69277 170.761 6.07759 170.27 4.80701 170.663C3.23877 171.147 2.50606 172.84 3.09627 174.249C3.26261 174.646 3.51881 174.985 3.83544 175.254C4.17809 175.546 4.44182 175.901 4.60821 176.292C4.76983 176.684 4.83489 177.113 4.79579 177.547C4.75989 177.948 4.81841 178.36 4.98476 178.757C5.57476 180.166 7.33667 180.93 8.83266 180.274Z" fill="#FBFBFB"/>
<path d="M13.4761 174.683C13.5801 175.577 14.8008 176.17 16.2032 176.007C17.6052 175.845 18.5718 174.586 18.5538 174.094C18.5207 173.194 16.8973 172.671 15.8268 172.77C14.4213 172.901 13.3723 173.789 13.4761 174.683Z" fill="#FBFBFB"/>
<path d="M11.1806 178.5C11.0179 179.221 11.7985 179.968 12.9243 180.167C14.0501 180.365 15.1374 179.715 15.2573 179.219C15.4312 178.499 14.2609 177.635 13.5135 177.552C12.3743 177.425 11.3432 177.778 11.1806 178.5Z" fill="#FBFBFB"/>
<path d="M57.949 151.83C58.5244 152.547 59.9345 152.515 61.0516 151.701C61.9026 151.08 62.7019 149.649 62.0708 148.973C61.7257 148.604 60.1064 148.314 58.9682 149.103C57.83 149.892 57.3738 151.113 57.949 151.83Z" fill="#FBFBFB"/>
<path d="M55.8855 149.717C56.3684 149.172 56.5907 147.787 55.94 147.376C55.4918 147.093 54.2277 147.324 53.5534 148.197C52.8794 149.07 52.8549 150.117 53.4989 150.537C54.1429 150.957 55.1493 150.546 55.8855 149.717Z" fill="#FBFBFB"/>
<path d="M54.5299 160.327C55.742 159.795 55.8354 159.04 55.9788 158.323C56.1129 157.652 56.5073 157.051 57.078 156.612C58.0885 155.834 58.414 154.582 57.9591 153.495C57.5041 152.409 56.359 151.705 55.0575 151.788C54.3225 151.835 53.5992 151.65 53.015 151.247C52.39 150.815 51.7749 150.324 50.5043 150.716C48.936 151.201 48.2033 152.894 48.7935 154.303C48.9599 154.7 49.2161 155.038 49.5327 155.308C49.8754 155.6 50.1391 155.955 50.3055 156.345C50.4671 156.738 50.5322 157.167 50.4931 157.601C50.4572 158.002 50.5157 158.414 50.682 158.811C51.272 160.22 53.0339 160.984 54.5299 160.327Z" fill="#FBFBFB"/>
<path d="M59.1734 154.738C59.2774 155.632 60.4981 156.225 61.9004 156.062C63.3024 155.899 64.2691 154.641 64.251 154.149C64.218 153.249 62.5946 152.725 61.5241 152.825C60.1185 152.955 59.0695 153.844 59.1734 154.738Z" fill="#FBFBFB"/>
<path d="M56.8759 158.555C56.7132 159.277 57.4938 160.023 58.6196 160.222C59.7454 160.421 60.8327 159.771 60.9526 159.275C61.1265 158.555 59.9562 157.691 59.2089 157.608C58.0696 157.481 57.0385 157.833 56.8759 158.555Z" fill="#FBFBFB"/>
<path d="M352.941 175.102C353.517 175.819 354.927 175.786 356.044 174.972C356.895 174.352 357.694 172.92 357.063 172.245C356.718 171.875 355.099 171.585 353.96 172.374C352.822 173.163 352.366 174.384 352.941 175.102Z" fill="#FBFBFB"/>
<path d="M350.878 172.988C351.361 172.444 351.583 171.059 350.932 170.648C350.484 170.364 349.22 170.595 348.546 171.468C347.872 172.341 347.847 173.389 348.491 173.809C349.135 174.228 350.142 173.818 350.878 172.988Z" fill="#FBFBFB"/>
<path d="M349.522 183.599C350.734 183.067 350.828 182.312 350.971 181.594C351.105 180.923 351.5 180.322 352.07 179.883C353.081 179.105 353.406 177.853 352.951 176.767C352.496 175.681 351.351 174.976 350.05 175.059C349.315 175.106 348.591 174.922 348.007 174.518C347.382 174.086 346.767 173.596 345.496 173.988C343.928 174.472 343.196 176.165 343.786 177.574C343.952 177.971 344.208 178.31 344.525 178.579C344.868 178.871 345.131 179.226 345.298 179.617C345.459 180.009 345.524 180.439 345.485 180.872C345.449 181.273 345.508 181.686 345.674 182.083C346.264 183.491 348.026 184.256 349.522 183.599Z" fill="#FBFBFB"/>
<path d="M354.164 178.01C354.268 178.903 355.488 179.496 356.891 179.334C358.293 179.171 359.259 177.912 359.241 177.42C359.208 176.52 357.585 175.997 356.514 176.096C355.109 176.227 354.06 177.115 354.164 178.01Z" fill="#FBFBFB"/>
<path d="M351.868 181.827C351.705 182.549 352.486 183.295 353.612 183.494C354.738 183.692 355.825 183.042 355.945 182.546C356.119 181.826 354.948 180.963 354.201 180.879C353.062 180.752 352.031 181.105 351.868 181.827Z" fill="#FBFBFB"/>
<path d="M889.498 32.3896C889.495 33.2805 890.649 34.0262 892.074 33.9835C893.16 33.951 894.73 33.239 894.662 32.3508C894.624 31.8652 893.512 30.7463 892.086 30.757C890.66 30.7676 889.502 31.4986 889.498 32.3896Z" fill="#FBFBFB"/>
<path d="M889.214 29.5649C889.955 29.392 891.032 28.4012 890.776 27.7151C890.6 27.2423 889.435 26.7358 888.327 27.0679C887.219 27.4001 886.52 28.2282 886.765 28.9177C887.01 29.6073 888.085 29.8281 889.214 29.5649Z" fill="#FBFBFB"/>
<path d="M881.241 37.3417C882.56 37.5775 883.124 37.0226 883.705 36.5247C884.248 36.0591 884.954 35.7925 885.698 35.752C887.014 35.6803 888.087 34.8528 888.427 33.7315C888.766 32.6102 888.303 31.4177 887.204 30.7722C886.583 30.4076 886.122 29.8637 885.915 29.2197C885.693 28.5311 885.517 27.8003 884.242 27.4199C882.669 26.9506 880.982 27.9092 880.542 29.3639C880.418 29.7737 880.404 30.1861 880.484 30.5757C880.57 30.9975 880.551 31.4271 880.431 31.8319C880.306 32.2355 880.08 32.6159 879.767 32.9429C879.479 33.2449 879.258 33.6083 879.134 34.0182C878.694 35.4726 879.613 37.0505 881.241 37.3417Z" fill="#FBFBFB"/>
<path d="M888.597 35.3948C888.101 36.1696 888.697 37.3138 889.929 37.9505C891.16 38.5872 892.753 38.1053 893.058 37.7002C893.615 36.9595 892.651 35.6506 891.726 35.1446C890.513 34.4802 889.094 34.6199 888.597 35.3948Z" fill="#FBFBFB"/>
<path d="M884.277 37.2045C883.678 37.6952 883.821 38.7218 884.596 39.4975C885.371 40.273 886.666 40.346 887.084 40.0132C887.691 39.5302 887.311 38.1962 886.765 37.7204C885.932 36.9948 884.876 36.7137 884.277 37.2045Z" fill="#FBFBFB"/>
<path d="M845.164 53.5839C845.161 54.4748 846.315 55.2206 847.74 55.1779C848.826 55.1453 850.396 54.4333 850.328 53.5451C850.29 53.0596 849.178 51.9406 847.752 51.9513C846.326 51.962 845.168 52.6929 845.164 53.5839Z" fill="#FBFBFB"/>
<path d="M844.88 50.7572C845.621 50.5844 846.698 49.5936 846.442 48.9074C846.266 48.4346 845.101 47.9282 843.993 48.2603C842.885 48.5925 842.186 49.4206 842.431 50.1101C842.676 50.7996 843.751 51.0205 844.88 50.7572Z" fill="#FBFBFB"/>
<path d="M836.909 58.536C838.228 58.7719 838.792 58.2169 839.373 57.7191C839.916 57.2534 840.622 56.9868 841.366 56.9464C842.682 56.8746 843.755 56.0471 844.095 54.9258C844.434 53.8045 843.971 52.6121 842.872 51.9665C842.251 51.6019 841.79 51.058 841.583 50.414C841.361 49.7254 841.185 48.9946 839.91 48.6143C838.337 48.1449 836.65 49.1036 836.21 50.5582C836.086 50.9681 836.072 51.3804 836.152 51.77C836.237 52.1918 836.219 52.6215 836.099 53.0262C835.974 53.4299 835.748 53.8102 835.435 54.1372C835.147 54.4393 834.926 54.8027 834.802 55.2125C834.362 56.6669 835.281 58.2448 836.909 58.536Z" fill="#FBFBFB"/>
<path d="M844.263 56.5891C843.767 57.364 844.363 58.5081 845.595 59.1448C846.826 59.7815 848.419 59.2996 848.724 58.8945C849.281 58.1538 848.317 56.8449 847.392 56.3389C846.179 55.6746 844.76 55.8142 844.263 56.5891Z" fill="#FBFBFB"/>
<path d="M839.941 58.3978C839.342 58.8886 839.485 59.9151 840.26 60.6908C841.035 61.4663 842.33 61.5394 842.748 61.2065C843.355 60.7235 842.975 59.3896 842.429 58.9137C841.596 58.1881 840.54 57.9071 839.941 58.3978Z" fill="#FBFBFB"/>
<path d="M937.006 92.6464C937.003 93.5373 938.156 94.2831 939.582 94.2404C940.668 94.2078 942.238 93.4958 942.17 92.6076C942.132 92.1221 941.02 91.0031 939.594 91.0138C938.168 91.0245 937.01 91.7554 937.006 92.6464Z" fill="#FBFBFB"/>
<path d="M936.72 89.8188C937.461 89.6459 938.538 88.6551 938.282 87.969C938.105 87.4962 936.941 86.9897 935.833 87.3218C934.725 87.654 934.026 88.4821 934.271 89.1716C934.516 89.8612 935.59 90.082 936.72 89.8188Z" fill="#FBFBFB"/>
<path d="M928.747 97.5975C930.065 97.8334 930.63 97.2785 931.211 96.7806C931.754 96.315 932.46 96.0483 933.203 96.0079C934.52 95.9362 935.593 95.1087 935.932 93.9873C936.272 92.866 935.809 91.6736 934.71 91.0281C934.089 90.6635 933.628 90.1196 933.421 89.4755C933.199 88.7869 933.023 88.0561 931.748 87.6758C930.175 87.2064 928.488 88.1651 928.048 89.6198C927.924 90.0296 927.91 90.442 927.989 90.8315C928.075 91.2534 928.057 91.683 927.937 92.0878C927.812 92.4914 927.586 92.8717 927.273 93.1987C926.985 93.5008 926.764 93.8642 926.64 94.274C926.2 95.7285 927.119 97.3064 928.747 97.5975Z" fill="#FBFBFB"/>
<path d="M936.101 95.6487C935.605 96.4235 936.201 97.5677 937.432 98.2044C938.664 98.8411 940.257 98.3592 940.561 97.9541C941.119 97.2134 940.154 95.9045 939.23 95.3985C938.017 94.7341 936.598 94.8738 936.101 95.6487Z" fill="#FBFBFB"/>
<path d="M931.784 97.4594C931.186 97.9501 931.328 98.9767 932.104 99.7524C932.879 100.528 934.174 100.601 934.592 100.268C935.199 99.7851 934.819 98.4511 934.273 97.9753C933.44 97.2497 932.383 96.9686 931.784 97.4594Z" fill="#FBFBFB"/>
<path d="M971.842 70.2069C971.839 71.0979 972.992 71.8436 974.418 71.8009C975.504 71.7684 977.074 71.0564 977.006 70.1682C976.968 69.6826 975.856 68.5637 974.43 68.5744C973.004 68.585 971.846 69.3159 971.842 70.2069Z" fill="#FBFBFB"/>
<path d="M971.56 67.3822C972.3 67.2094 973.378 66.2186 973.122 65.5324C972.945 65.0596 971.78 64.5532 970.673 64.8853C969.565 65.2175 968.866 66.0456 969.111 66.7351C969.356 67.4246 970.43 67.6455 971.56 67.3822Z" fill="#FBFBFB"/>
<path d="M963.589 75.161C964.907 75.3969 965.472 74.8419 966.052 74.3441C966.596 73.8784 967.302 73.6118 968.045 73.5714C969.361 73.4996 970.435 72.6721 970.774 71.5508C971.114 70.4295 970.651 69.2371 969.552 68.5915C968.931 68.2269 968.47 67.683 968.262 67.039C968.04 66.3504 967.865 65.6196 966.59 65.2393C965.016 64.7699 963.33 65.7286 962.89 67.1832C962.766 67.5931 962.752 68.0054 962.831 68.395C962.917 68.8168 962.899 69.2465 962.779 69.6512C962.654 70.0549 962.428 70.4352 962.115 70.7622C961.826 71.0643 961.606 71.4277 961.482 71.8375C961.042 73.2919 961.961 74.8698 963.589 75.161Z" fill="#FBFBFB"/>
<path d="M970.943 73.2122C970.447 73.987 971.042 75.1312 972.274 75.7679C973.506 76.4045 975.099 75.9227 975.403 75.5176C975.96 74.7769 974.996 73.4679 974.072 72.962C972.858 72.2976 971.44 72.4372 970.943 73.2122Z" fill="#FBFBFB"/>
<path d="M966.622 75.0209C966.023 75.5116 966.166 76.5382 966.941 77.3139C967.717 78.0894 969.012 78.1624 969.43 77.8296C970.036 77.3466 969.657 76.0126 969.111 75.5368C968.278 74.8112 967.221 74.5301 966.622 75.0209Z" fill="#FBFBFB"/>
<path d="M984.199 103.26C984.12 104.148 985.206 104.975 986.631 105.034C987.716 105.08 989.342 104.483 989.35 103.592C989.354 103.106 988.34 101.91 986.917 101.819C985.495 101.727 984.278 102.372 984.199 103.26Z" fill="#FBFBFB"/>
<path d="M984.156 100.424C984.91 100.304 986.068 99.3939 985.871 98.6915C985.735 98.2075 984.617 97.619 983.484 97.8705C982.352 98.1222 981.584 98.8976 981.77 99.6025C981.955 100.308 983.008 100.605 984.156 100.424Z" fill="#FBFBFB"/>
<path d="M975.546 107.607C976.841 107.937 977.451 107.424 978.072 106.969C978.653 106.544 979.38 106.329 980.124 106.342C981.443 106.365 982.583 105.617 983.017 104.524C983.451 103.43 983.091 102.208 982.05 101.486C981.462 101.078 981.049 100.502 980.897 99.8453C980.734 99.1429 980.621 98.4017 979.383 97.931C977.854 97.3501 976.091 98.1847 975.528 99.6033C975.37 100.003 975.321 100.413 975.367 100.807C975.417 101.234 975.361 101.661 975.208 102.056C975.049 102.449 974.791 102.812 974.451 103.116C974.138 103.396 973.887 103.743 973.729 104.142C973.166 105.561 973.948 107.2 975.546 107.607Z" fill="#FBFBFB"/>
<path d="M983.045 106.191C982.484 106.928 982.98 108.112 984.154 108.835C985.328 109.558 986.957 109.192 987.295 108.81C987.914 108.111 987.064 106.737 986.185 106.167C985.032 105.417 983.606 105.454 983.045 106.191Z" fill="#FBFBFB"/>
<path d="M978.585 107.684C977.946 108.13 978.001 109.164 978.708 109.993C979.415 110.822 980.7 110.988 981.145 110.686C981.791 110.248 981.526 108.891 981.022 108.377C980.254 107.594 979.224 107.238 978.585 107.684Z" fill="#FBFBFB"/>
<path d="M1014.39 78.3946C1014.62 79.2609 1015.93 79.7347 1017.31 79.3832C1018.35 79.1156 1019.7 78.0823 1019.4 77.2343C1019.24 76.7707 1017.87 75.9254 1016.49 76.2458C1015.1 76.5662 1014.17 77.5282 1014.39 78.3946Z" fill="#FBFBFB"/>
<path d="M1013.39 75.7103C1014.06 75.3813 1014.85 74.1844 1014.43 73.5734C1014.13 73.1524 1012.87 72.9136 1011.88 73.4771C1010.89 74.0407 1010.42 74.9973 1010.84 75.614C1011.26 76.2307 1012.36 76.2116 1013.39 75.7103Z" fill="#FBFBFB"/>
<path d="M1007.65 85.0017C1008.99 84.9441 1009.39 84.2822 1009.83 83.6722C1010.24 83.1017 1010.85 82.6891 1011.57 82.4882C1012.83 82.1323 1013.66 81.0949 1013.7 79.9317C1013.74 78.7685 1012.98 77.7106 1011.75 77.3224C1011.05 77.1031 1010.46 76.6749 1010.09 76.0943C1009.7 75.4735 1009.34 74.8017 1008.01 74.7093C1006.36 74.5955 1004.96 75.8936 1004.91 77.4026C1004.9 77.8277 1004.99 78.2314 1005.17 78.5926C1005.36 78.9838 1005.45 79.4052 1005.44 79.8246C1005.42 80.2439 1005.3 80.6626 1005.08 81.0483C1004.88 81.4045 1004.76 81.8056 1004.74 82.2307C1004.69 83.7395 1005.99 85.0726 1007.65 85.0017Z" fill="#FBFBFB"/>
<path d="M1014.29 81.5099C1014.01 82.3706 1014.88 83.3527 1016.24 83.7035C1017.6 84.0543 1019.03 83.2398 1019.22 82.78C1019.57 81.9392 1018.29 80.8771 1017.26 80.5865C1015.91 80.2048 1014.57 80.649 1014.29 81.5099Z" fill="#FBFBFB"/>
<path d="M1010.56 84.2056C1010.1 84.8126 1010.5 85.7789 1011.46 86.364C1012.41 86.9489 1013.69 86.7383 1014.01 86.324C1014.47 85.7228 1013.76 84.5093 1013.11 84.1658C1012.11 83.6418 1011.01 83.5985 1010.56 84.2056Z" fill="#FBFBFB"/>
<path d="M1032.94 98.7598C1033.17 99.6262 1034.48 100.1 1035.85 99.7485C1036.9 99.4808 1038.24 98.4476 1037.95 97.5995C1037.79 97.1359 1036.42 96.2906 1035.03 96.611C1033.65 96.9314 1032.71 97.8934 1032.94 98.7598Z" fill="#FBFBFB"/>
<path d="M1031.93 96.0735C1032.61 95.7445 1033.4 94.5476 1032.97 93.9367C1032.68 93.5156 1031.42 93.2769 1030.43 93.8404C1029.44 94.4039 1028.97 95.3606 1029.39 95.9773C1029.8 96.5939 1030.9 96.5748 1031.93 96.0735Z" fill="#FBFBFB"/>
<path d="M1026.19 105.366C1027.54 105.308 1027.94 104.646 1028.38 104.037C1028.78 103.466 1029.4 103.053 1030.11 102.852C1031.37 102.497 1032.2 101.459 1032.24 100.296C1032.28 99.1328 1031.53 98.0748 1030.29 97.6866C1029.6 97.4673 1029.01 97.0392 1028.64 96.4585C1028.25 95.8378 1027.89 95.1659 1026.55 95.0736C1024.9 94.9597 1023.51 96.2579 1023.46 97.7668C1023.44 98.192 1023.54 98.5957 1023.71 98.9569C1023.91 99.348 1024 99.7695 1023.99 100.189C1023.97 100.608 1023.85 101.027 1023.63 101.413C1023.43 101.769 1023.3 102.17 1023.29 102.595C1023.24 104.104 1024.54 105.437 1026.19 105.366Z" fill="#FBFBFB"/>
<path d="M1032.84 101.874C1032.55 102.735 1033.43 103.717 1034.79 104.068C1036.15 104.419 1037.57 103.604 1037.76 103.144C1038.11 102.303 1036.84 101.241 1035.81 100.951C1034.46 100.569 1033.12 101.013 1032.84 101.874Z" fill="#FBFBFB"/>
<path d="M1029.11 104.57C1028.65 105.177 1029.05 106.143 1030.01 106.728C1030.96 107.313 1032.24 107.103 1032.56 106.688C1033.02 106.087 1032.31 104.874 1031.66 104.53C1030.66 104.006 1029.56 103.963 1029.11 104.57Z" fill="#FBFBFB"/>
<path d="M1052.2 69.9259C1052.87 70.5745 1054.26 70.387 1055.27 69.4553C1056.03 68.7457 1056.64 67.2366 1055.92 66.6352C1055.53 66.3065 1053.89 66.1973 1052.86 67.106C1051.83 68.0146 1051.54 69.277 1052.2 69.9259Z" fill="#FBFBFB"/>
<path d="M1049.88 68.0533C1050.29 67.4598 1050.33 66.0601 1049.63 65.7238C1049.15 65.492 1047.92 65.8605 1047.37 66.8015C1046.81 67.7423 1046.92 68.7853 1047.62 69.131C1048.31 69.4767 1049.26 68.9579 1049.88 68.0533Z" fill="#FBFBFB"/>
<path d="M1049.92 78.7379C1051.05 78.0759 1051.04 77.3164 1051.09 76.5882C1051.14 75.9071 1051.45 75.2672 1051.96 74.7682C1052.86 73.8845 1053.02 72.6056 1052.43 71.5774C1051.83 70.5492 1050.61 69.976 1049.32 70.2021C1048.6 70.3296 1047.86 70.2263 1047.23 69.8898C1046.55 69.5302 1045.87 69.1108 1044.66 69.6403C1043.17 70.2939 1042.66 72.0554 1043.43 73.3892C1043.65 73.765 1043.95 74.0732 1044.3 74.3057C1044.68 74.5575 1044.99 74.8811 1045.2 75.2506C1045.41 75.6224 1045.53 76.0413 1045.55 76.4763C1045.57 76.8779 1045.68 77.2811 1045.9 77.6568C1046.67 78.9906 1048.52 79.5549 1049.92 78.7379Z" fill="#FBFBFB"/>
<path d="M1053.8 72.6786C1054.02 73.5546 1055.31 74.0086 1056.68 73.6923C1058.05 73.3763 1058.84 72.0201 1058.76 71.5336C1058.61 70.644 1056.93 70.3032 1055.88 70.5199C1054.5 70.8044 1053.58 71.8024 1053.8 72.6786Z" fill="#FBFBFB"/>
<path d="M1052.02 76.72C1051.95 77.4546 1052.82 78.1095 1053.96 78.1827C1055.11 78.2556 1056.1 77.4904 1056.16 76.9847C1056.23 76.2508 1054.96 75.5225 1054.21 75.5223C1053.06 75.5217 1052.08 75.9854 1052.02 76.72Z" fill="#FBFBFB"/>
<path d="M1082.08 85.7667C1082.75 86.4154 1084.14 86.2278 1085.15 85.2961C1085.91 84.5865 1086.52 83.0775 1085.8 82.4761C1085.41 82.1474 1083.77 82.0381 1082.74 82.9468C1081.71 83.8554 1081.42 85.1179 1082.08 85.7667Z" fill="#FBFBFB"/>
<path d="M1079.76 83.8942C1080.17 83.3006 1080.21 81.9009 1079.51 81.5646C1079.03 81.3328 1077.8 81.7013 1077.25 82.6423C1076.69 83.5832 1076.8 84.6261 1077.5 84.9718C1078.19 85.3175 1079.14 84.7987 1079.76 83.8942Z" fill="#FBFBFB"/>
<path d="M1079.8 94.5768C1080.93 93.9148 1080.93 93.1553 1080.98 92.4271C1081.02 91.7459 1081.34 91.106 1081.84 90.607C1082.75 89.7234 1082.91 88.4445 1082.31 87.4163C1081.72 86.3881 1080.49 85.8149 1079.21 86.0409C1078.49 86.1684 1077.74 86.0651 1077.11 85.7287C1076.43 85.3691 1075.76 84.9497 1074.55 85.4792C1073.05 86.1328 1072.55 87.8943 1073.32 89.2281C1073.54 89.6038 1073.83 89.912 1074.18 90.1445C1074.56 90.3964 1074.87 90.72 1075.09 91.0894C1075.3 91.4612 1075.42 91.8802 1075.44 92.3152C1075.45 92.7168 1075.57 93.12 1075.78 93.4957C1076.55 94.8294 1078.4 95.3938 1079.8 94.5768Z" fill="#FBFBFB"/>
<path d="M1083.68 88.5165C1083.9 89.3925 1085.19 89.8465 1086.56 89.5302C1087.93 89.2142 1088.72 87.858 1088.64 87.3715C1088.49 86.4819 1086.81 86.141 1085.76 86.3578C1084.38 86.6423 1083.46 87.6402 1083.68 88.5165Z" fill="#FBFBFB"/>
<path d="M1081.9 92.5599C1081.83 93.2945 1082.71 93.9493 1083.85 94.0225C1084.99 94.0954 1085.99 93.3303 1086.04 92.8245C1086.12 92.0907 1084.84 91.3624 1084.09 91.3622C1082.94 91.3615 1081.97 91.8253 1081.9 92.5599Z" fill="#FBFBFB"/>
<path d="M1084.8 55.4298C1085.46 56.0784 1086.86 55.8909 1087.86 54.9592C1088.62 54.2496 1089.23 52.7406 1088.52 52.1391C1088.12 51.8104 1086.48 51.7012 1085.45 52.6099C1084.43 53.5185 1084.13 54.7809 1084.8 55.4298Z" fill="#FBFBFB"/>
<path d="M1082.47 53.5582C1082.88 52.9647 1082.92 51.5649 1082.22 51.2287C1081.74 50.9969 1080.51 51.3653 1079.96 52.3064C1079.4 53.2472 1079.52 54.2902 1080.21 54.6359C1080.91 54.9816 1081.85 54.4628 1082.47 53.5582Z" fill="#FBFBFB"/>
<path d="M1082.51 64.2428C1083.65 63.5808 1083.64 62.8213 1083.69 62.0931C1083.74 61.4119 1084.05 60.7721 1084.56 60.2731C1085.46 59.3894 1085.62 58.1105 1085.03 57.0823C1084.43 56.0541 1083.2 55.4809 1081.92 55.7069C1081.2 55.8345 1080.46 55.7312 1079.82 55.3947C1079.15 55.0351 1078.47 54.6157 1077.26 55.1452C1075.77 55.7988 1075.26 57.5603 1076.03 58.8941C1076.25 59.2699 1076.55 59.578 1076.9 59.8105C1077.27 60.0624 1077.58 60.386 1077.8 60.7554C1078.01 61.1272 1078.13 61.5462 1078.15 61.9812C1078.17 62.3828 1078.28 62.786 1078.5 63.1617C1079.27 64.4954 1081.11 65.0598 1082.51 64.2428Z" fill="#FBFBFB"/>
<path d="M1086.39 58.1815C1086.61 59.0575 1087.9 59.5115 1089.27 59.1952C1090.64 58.8792 1091.44 57.5231 1091.36 57.0365C1091.2 56.1469 1089.52 55.8061 1088.48 56.0229C1087.1 56.3074 1086.17 57.3053 1086.39 58.1815Z" fill="#FBFBFB"/>
<path d="M1084.61 62.223C1084.55 62.9576 1085.42 63.6124 1086.56 63.6856C1087.71 63.7585 1088.7 62.9934 1088.76 62.4876C1088.83 61.7538 1087.56 61.0255 1086.81 61.0252C1085.66 61.0246 1084.68 61.4883 1084.61 62.223Z" fill="#FBFBFB"/>
<path d="M1111.49 38.8068C1112.15 39.4554 1113.55 39.2679 1114.55 38.3362C1115.32 37.6265 1115.92 36.1175 1115.21 35.5161C1114.82 35.1874 1113.17 35.0781 1112.14 35.9868C1111.12 36.8954 1110.82 38.1579 1111.49 38.8068Z" fill="#FBFBFB"/>
<path d="M1109.16 36.9361C1109.57 36.3426 1109.61 34.9429 1108.91 34.6066C1108.43 34.3748 1107.2 34.7433 1106.65 35.6843C1106.09 36.6252 1106.21 37.6681 1106.9 38.0138C1107.59 38.3595 1108.54 37.8407 1109.16 36.9361Z" fill="#FBFBFB"/>
<path d="M1109.2 47.6178C1110.34 46.9558 1110.33 46.1963 1110.38 45.4681C1110.42 44.7869 1110.74 44.1471 1111.25 43.6481C1112.15 42.7644 1112.31 41.4855 1111.71 40.4573C1111.12 39.4291 1109.89 38.8559 1108.61 39.0819C1107.89 39.2095 1107.15 39.1062 1106.51 38.7697C1105.84 38.4101 1105.16 37.9907 1103.95 38.5202C1102.46 39.1738 1101.95 40.9353 1102.72 42.2691C1102.94 42.6449 1103.24 42.953 1103.59 43.1855C1103.96 43.4374 1104.27 43.761 1104.49 44.1304C1104.7 44.5022 1104.82 44.9212 1104.84 45.3562C1104.86 45.7578 1104.97 46.161 1105.18 46.5367C1105.95 47.8704 1107.8 48.4348 1109.2 47.6178Z" fill="#FBFBFB"/>
<path d="M1113.08 41.5565C1113.3 42.4325 1114.59 42.8865 1115.96 42.5702C1117.33 42.2542 1118.13 40.8981 1118.04 40.4115C1117.89 39.5219 1116.21 39.1811 1115.16 39.3979C1113.79 39.6824 1112.86 40.6803 1113.08 41.5565Z" fill="#FBFBFB"/>
<path d="M1111.31 45.5999C1111.24 46.3345 1112.11 46.9893 1113.25 47.0625C1114.4 47.1355 1115.39 46.3703 1115.45 45.8646C1115.53 45.1307 1114.25 44.4024 1113.5 44.4022C1112.35 44.4016 1111.37 44.8653 1111.31 45.5999Z" fill="#FBFBFB"/>
<path d="M1142.26 48.7833C1142.93 49.432 1144.32 49.2444 1145.33 48.3127C1146.09 47.6031 1146.7 46.0941 1145.98 45.4927C1145.59 45.164 1143.94 45.0547 1142.92 45.9634C1141.89 46.872 1141.6 48.1345 1142.26 48.7833Z" fill="#FBFBFB"/>
<path d="M1139.93 46.9137C1140.34 46.3202 1140.38 44.9204 1139.68 44.5842C1139.2 44.3524 1137.97 44.7208 1137.42 45.6618C1136.86 46.6027 1136.98 47.6456 1137.67 47.9913C1138.36 48.3371 1139.31 47.8183 1139.93 46.9137Z" fill="#FBFBFB"/>
<path d="M1139.98 57.5963C1141.11 56.9343 1141.1 56.1748 1141.15 55.4466C1141.2 54.7655 1141.51 54.1256 1142.02 53.6266C1142.92 52.7429 1143.08 51.464 1142.49 50.4358C1141.89 49.4076 1140.67 48.8344 1139.38 49.0605C1138.66 49.188 1137.92 49.0847 1137.29 48.7482C1136.61 48.3886 1135.93 47.9692 1134.72 48.4987C1133.23 49.1523 1132.72 50.9138 1133.49 52.2476C1133.71 52.6234 1134.01 52.9316 1134.36 53.1641C1134.74 53.4159 1135.05 53.7395 1135.26 54.109C1135.47 54.4808 1135.59 54.8997 1135.61 55.3347C1135.63 55.7363 1135.74 56.1395 1135.96 56.5152C1136.73 57.849 1138.58 58.4133 1139.98 57.5963Z" fill="#FBFBFB"/>
<path d="M1143.85 51.535C1144.07 52.411 1145.36 52.865 1146.73 52.5488C1148.11 52.2328 1148.9 50.8766 1148.82 50.3901C1148.67 49.5004 1146.99 49.1596 1145.94 49.3764C1144.56 49.6609 1143.63 50.6588 1143.85 51.535Z" fill="#FBFBFB"/>
<path d="M1142.08 55.5774C1142.01 56.3121 1142.88 56.9669 1144.02 57.0401C1145.17 57.113 1146.16 56.3479 1146.22 55.8421C1146.3 55.1083 1145.02 54.38 1144.27 54.3797C1143.12 54.3791 1142.14 54.8428 1142.08 55.5774Z" fill="#FBFBFB"/>
<path d="M1158.25 19.1239C1159.03 19.6543 1160.37 19.243 1161.18 18.1631C1161.79 17.3406 1162.1 15.7568 1161.28 15.281C1160.83 15.021 1159.19 15.1808 1158.36 16.242C1157.52 17.303 1157.48 18.5933 1158.25 19.1239Z" fill="#FBFBFB"/>
<path d="M1155.61 17.6597C1155.89 17.0092 1155.66 15.625 1154.91 15.4078C1154.39 15.2579 1153.26 15.8195 1152.89 16.8359C1152.53 17.8521 1152.84 18.8603 1153.59 19.0878C1154.34 19.3153 1155.17 18.6511 1155.61 17.6597Z" fill="#FBFBFB"/>
<path d="M1157.71 28.169C1158.69 27.3332 1158.54 26.5867 1158.45 25.862C1158.36 25.1842 1158.55 24.5036 1158.95 23.9298C1159.67 22.9136 1159.58 21.6289 1158.8 20.7133C1158.02 19.7978 1156.7 19.4333 1155.48 19.8639C1154.79 20.1069 1154.04 20.1258 1153.35 19.8975C1152.62 19.6535 1151.87 19.3504 1150.78 20.0681C1149.44 20.954 1149.28 22.77 1150.3 23.9577C1150.58 24.2922 1150.94 24.547 1151.32 24.7191C1151.75 24.9055 1152.11 25.1739 1152.4 25.5024C1152.68 25.834 1152.87 26.2267 1152.98 26.652C1153.07 27.0445 1153.26 27.4232 1153.54 27.7577C1154.56 28.9453 1156.49 29.2004 1157.71 28.169Z" fill="#FBFBFB"/>
<path d="M1160.36 21.5738C1160.74 22.4003 1162.1 22.6376 1163.39 22.1037C1164.67 21.57 1165.19 20.106 1165.02 19.6405C1164.7 18.7894 1162.98 18.7268 1161.99 19.1107C1160.69 19.6146 1159.97 20.7471 1160.36 21.5738Z" fill="#FBFBFB"/>
<path d="M1159.38 25.8414C1159.46 26.5754 1160.44 27.0781 1161.58 26.9644C1162.72 26.8504 1163.55 25.9358 1163.51 25.4292C1163.44 24.6941 1162.05 24.1844 1161.31 24.3065C1160.18 24.4923 1159.31 25.1075 1159.38 25.8414Z" fill="#FBFBFB"/>
<path d="M1192.11 6.43932C1192.89 6.96972 1194.23 6.55843 1195.04 5.47854C1195.65 4.656 1195.96 3.07224 1195.14 2.59645C1194.69 2.33643 1193.05 2.49619 1192.22 3.55738C1191.38 4.61846 1191.33 5.9087 1192.11 6.43932Z" fill="#FBFBFB"/>
<path d="M1189.46 4.97509C1189.75 4.3246 1189.52 2.94046 1188.77 2.72318C1188.25 2.57334 1187.11 3.13496 1186.75 4.15135C1186.38 5.16755 1186.69 6.17574 1187.44 6.40324C1188.19 6.63075 1189.02 5.96653 1189.46 4.97509Z" fill="#FBFBFB"/>
<path d="M1191.56 15.4844C1192.55 14.6487 1192.4 13.9021 1192.31 13.1775C1192.22 12.4997 1192.4 11.819 1192.81 11.2452C1193.53 10.229 1193.44 8.94432 1192.66 8.02876C1191.87 7.1132 1190.55 6.74873 1189.34 7.17932C1188.65 7.42237 1187.9 7.44127 1187.21 7.21289C1186.47 6.96895 1185.73 6.66579 1184.64 7.38349C1183.3 8.26943 1183.14 10.0854 1184.15 11.2731C1184.44 11.6077 1184.79 11.8625 1185.18 12.0345C1185.6 12.2209 1185.97 12.4894 1186.25 12.8179C1186.53 13.1494 1186.73 13.5422 1186.83 13.9674C1186.93 14.36 1187.11 14.7386 1187.4 15.0731C1188.41 16.2608 1190.34 16.5159 1191.56 15.4844Z" fill="#FBFBFB"/>
<path d="M1194.21 8.88925C1194.6 9.7157 1195.95 9.95307 1197.24 9.41909C1198.53 8.88541 1199.05 7.42144 1198.88 6.95594C1198.56 6.10479 1196.84 6.04225 1195.85 6.42613C1194.54 6.93007 1193.83 8.06257 1194.21 8.88925Z" fill="#FBFBFB"/>
<path d="M1193.24 13.1569C1193.31 13.8908 1194.3 14.3936 1195.44 14.2798C1196.58 14.1658 1197.41 13.2512 1197.36 12.7446C1197.3 12.0096 1195.91 11.4998 1195.16 11.6219C1194.03 11.8077 1193.16 12.4229 1193.24 13.1569Z" fill="#FBFBFB"/>
<path d="M934.746 57.3241C934.743 58.2151 935.897 58.9608 937.322 58.9181C938.408 58.8856 939.978 58.1736 939.91 57.2854C939.872 56.7998 938.76 55.6808 937.334 55.6915C935.908 55.7022 934.75 56.4331 934.746 57.3241Z" fill="#FBFBFB"/>
<path d="M934.462 54.4975C935.203 54.3247 936.28 53.3338 936.024 52.6477C935.848 52.1749 934.683 51.6684 933.575 52.0006C932.467 52.3327 931.768 53.1608 932.013 53.8504C932.258 54.5399 933.333 54.7607 934.462 54.4975Z" fill="#FBFBFB"/>
<path d="M926.487 62.2762C927.806 62.5121 928.37 61.9572 928.951 61.4593C929.494 60.9937 930.2 60.727 930.944 60.6866C932.26 60.6149 933.333 59.7874 933.673 58.6661C934.012 57.5447 933.549 56.3523 932.45 55.7068C931.829 55.3422 931.368 54.7983 931.161 54.1542C930.939 53.4656 930.763 52.7348 929.488 52.3545C927.915 51.8851 926.228 52.8438 925.788 54.2985C925.664 54.7083 925.65 55.1207 925.73 55.5103C925.816 55.9321 925.797 56.3617 925.677 56.7665C925.552 57.1701 925.326 57.5504 925.013 57.8775C924.725 58.1795 924.504 58.5429 924.38 58.9527C923.94 60.4072 924.859 61.9851 926.487 62.2762Z" fill="#FBFBFB"/>
<path d="M933.841 60.3274C933.345 61.1023 933.941 62.2464 935.173 62.8831C936.404 63.5198 937.997 63.0379 938.302 62.6328C938.859 61.8921 937.895 60.5832 936.97 60.0772C935.757 59.4128 934.338 59.5525 933.841 60.3274Z" fill="#FBFBFB"/>
<path d="M929.523 62.1371C928.924 62.6279 929.067 63.6544 929.842 64.4301C930.617 65.2056 931.912 65.2786 932.33 64.9458C932.937 64.4628 932.557 63.1288 932.011 62.653C931.178 61.9274 930.122 61.6463 929.523 62.1371Z" fill="#FBFBFB"/>
<path d="M897.647 71.8681C897.644 72.759 898.797 73.5047 900.223 73.4621C901.308 73.4295 902.879 72.7175 902.81 71.8293C902.773 71.3438 901.66 70.2248 900.235 70.2355C898.809 70.2462 897.65 70.9771 897.647 71.8681Z" fill="#FBFBFB"/>
<path d="M897.362 69.0424C898.103 68.8696 899.18 67.8787 898.924 67.1926C898.748 66.7198 897.583 66.2133 896.475 66.5455C895.368 66.8776 894.668 67.7058 894.913 68.3953C895.158 69.0848 896.233 69.3057 897.362 69.0424Z" fill="#FBFBFB"/>
<path d="M889.391 76.8212C890.71 77.057 891.274 76.5021 891.855 76.0042C892.398 75.5386 893.105 75.272 893.848 75.2315C895.164 75.1598 896.238 74.3323 896.577 73.211C896.916 72.0897 896.454 70.8972 895.354 70.2517C894.734 69.8871 894.272 69.3432 894.065 68.6992C893.843 68.0106 893.668 67.2797 892.393 66.8994C890.819 66.4301 889.132 67.3887 888.692 68.8434C888.568 69.2532 888.554 69.6656 888.634 70.0552C888.72 70.477 888.701 70.9066 888.581 71.3114C888.457 71.715 888.231 72.0954 887.918 72.4224C887.629 72.7244 887.408 73.0878 887.284 73.4977C886.844 74.9521 887.764 76.53 889.391 76.8212Z" fill="#FBFBFB"/>
<path d="M896.746 74.8714C896.249 75.6462 896.845 76.7904 898.077 77.427C899.308 78.0637 900.901 77.5818 901.206 77.1768C901.763 76.4361 900.799 75.1271 899.875 74.6212C898.661 73.9568 897.242 74.0964 896.746 74.8714Z" fill="#FBFBFB"/>
<path d="M892.425 76.681C891.826 77.1718 891.969 78.1983 892.744 78.974C893.52 79.7496 894.814 79.8226 895.233 79.4897C895.839 79.0068 895.46 77.6728 894.913 77.1969C894.081 76.4713 893.024 76.1903 892.425 76.681Z" fill="#FBFBFB"/>
<path d="M298.615 153.596C298.791 154.472 300.074 155.009 301.467 154.725C302.527 154.509 303.927 153.543 303.681 152.682C303.547 152.211 302.228 151.3 300.829 151.552C299.43 151.805 298.439 152.72 298.615 153.596Z" fill="#FBFBFB"/>
<path d="M297.764 150.865C298.457 150.57 299.317 149.413 298.927 148.782C298.659 148.348 297.412 148.048 296.39 148.562C295.368 149.076 294.848 150.009 295.227 150.645C295.607 151.281 296.707 151.316 297.764 150.865Z" fill="#FBFBFB"/>
<path d="M291.494 159.864C292.837 159.872 293.28 159.231 293.751 158.643C294.191 158.093 294.832 157.711 295.554 157.545C296.833 157.251 297.722 156.256 297.829 155.096C297.937 153.936 297.242 152.843 296.032 152.395C295.349 152.142 294.786 151.686 294.453 151.088C294.096 150.449 293.776 149.761 292.447 149.603C290.806 149.409 289.341 150.638 289.202 152.142C289.162 152.566 289.231 152.974 289.388 153.343C289.557 153.743 289.626 154.168 289.589 154.586C289.548 155.004 289.402 155.416 289.161 155.791C288.938 156.137 288.794 156.531 288.755 156.955C288.615 158.459 289.836 159.854 291.494 159.864Z" fill="#FBFBFB"/>
<path d="M298.332 156.701C298 157.547 298.816 158.57 300.154 158.987C301.493 159.403 302.961 158.659 303.179 158.209C303.578 157.387 302.367 156.264 301.357 155.924C300.03 155.477 298.664 155.855 298.332 156.701Z" fill="#FBFBFB"/>
<path d="M294.449 159.213C293.959 159.797 294.306 160.781 295.224 161.412C296.142 162.042 297.429 161.894 297.773 161.496C298.272 160.919 297.631 159.672 296.998 159.297C296.034 158.725 294.939 158.629 294.449 159.213Z" fill="#FBFBFB"/>
<path d="M284.558 129.066C284.734 129.942 286.018 130.479 287.41 130.195C288.471 129.979 289.871 129.013 289.625 128.151C289.49 127.68 288.172 126.77 286.772 127.022C285.373 127.275 284.382 128.19 284.558 129.066Z" fill="#FBFBFB"/>
<path d="M283.709 126.337C284.403 126.041 285.262 124.885 284.872 124.254C284.604 123.819 283.357 123.519 282.335 124.034C281.314 124.548 280.793 125.481 281.173 126.117C281.552 126.753 282.653 126.788 283.709 126.337Z" fill="#FBFBFB"/>
<path d="M277.439 135.334C278.783 135.342 279.226 134.701 279.696 134.113C280.136 133.564 280.777 133.182 281.499 133.016C282.778 132.722 283.667 131.726 283.775 130.567C283.882 129.407 283.188 128.314 281.978 127.866C281.294 127.613 280.731 127.157 280.398 126.559C280.042 125.92 279.722 125.232 278.392 125.074C276.751 124.88 275.287 126.108 275.147 127.613C275.108 128.037 275.177 128.444 275.333 128.814C275.503 129.214 275.571 129.639 275.535 130.057C275.493 130.475 275.347 130.887 275.106 131.262C274.883 131.607 274.739 132.002 274.7 132.426C274.56 133.93 275.781 135.325 277.439 135.334Z" fill="#FBFBFB"/>
<path d="M284.275 132.171C283.943 133.016 284.759 134.04 286.098 134.456C287.436 134.873 288.905 134.129 289.123 133.679C289.521 132.857 288.31 131.734 287.3 131.394C285.974 130.947 284.607 131.325 284.275 132.171Z" fill="#FBFBFB"/>
<path d="M280.394 134.683C279.905 135.267 280.251 136.252 281.169 136.883C282.087 137.513 283.375 137.365 283.719 136.967C284.218 136.389 283.576 135.143 282.944 134.768C281.979 134.196 280.884 134.099 280.394 134.683Z" fill="#FBFBFB"/>
<path d="M252.882 115.768C253.058 116.644 254.342 117.181 255.734 116.897C256.795 116.681 258.195 115.715 257.949 114.853C257.814 114.383 256.496 113.472 255.097 113.724C253.698 113.977 252.706 114.892 252.882 115.768Z" fill="#FBFBFB"/>
<path d="M252.032 113.038C252.725 112.743 253.584 111.586 253.195 110.955C252.926 110.52 251.68 110.22 250.658 110.735C249.636 111.249 249.115 112.182 249.495 112.818C249.874 113.454 250.975 113.489 252.032 113.038Z" fill="#FBFBFB"/>
<path d="M245.763 122.038C247.107 122.046 247.55 121.404 248.02 120.816C248.46 120.267 249.101 119.885 249.823 119.719C251.102 119.425 251.991 118.429 252.099 117.27C252.207 116.11 251.512 115.017 250.302 114.569C249.618 114.316 249.056 113.86 248.722 113.262C248.366 112.623 248.046 111.935 246.717 111.777C245.076 111.583 243.611 112.812 243.471 114.316C243.432 114.74 243.501 115.147 243.658 115.517C243.827 115.917 243.895 116.342 243.859 116.76C243.817 117.178 243.672 117.59 243.43 117.965C243.207 118.311 243.063 118.705 243.024 119.129C242.884 120.633 244.105 122.028 245.763 122.038Z" fill="#FBFBFB"/>
<path d="M252.597 118.874C252.266 119.719 253.081 120.743 254.42 121.159C255.758 121.576 257.227 120.832 257.445 120.382C257.843 119.56 256.632 118.437 255.622 118.097C254.296 117.65 252.93 118.028 252.597 118.874Z" fill="#FBFBFB"/>
<path d="M248.719 121.385C248.229 121.969 248.576 122.954 249.494 123.585C250.412 124.215 251.699 124.067 252.043 123.669C252.542 123.091 251.9 121.845 251.268 121.47C250.304 120.898 249.208 120.801 248.719 121.385Z" fill="#FBFBFB"/>
<path d="M252.429 140.705C252.605 141.581 253.889 142.118 255.281 141.834C256.342 141.618 257.742 140.651 257.496 139.79C257.361 139.319 256.043 138.408 254.644 138.661C253.245 138.913 252.253 139.828 252.429 140.705Z" fill="#FBFBFB"/>
<path d="M251.579 137.976C252.272 137.68 253.131 136.523 252.742 135.893C252.473 135.458 251.226 135.158 250.205 135.672C249.183 136.187 248.662 137.119 249.042 137.755C249.421 138.392 250.522 138.426 251.579 137.976Z" fill="#FBFBFB"/>
<path d="M245.31 146.973C246.654 146.981 247.097 146.34 247.567 145.752C248.007 145.202 248.648 144.82 249.37 144.654C250.649 144.36 251.538 143.365 251.646 142.205C251.753 141.046 251.059 139.952 249.849 139.505C249.165 139.252 248.603 138.795 248.269 138.198C247.913 137.559 247.593 136.87 246.263 136.713C244.623 136.519 243.158 137.747 243.018 139.251C242.979 139.675 243.048 140.083 243.204 140.452C243.374 140.852 243.442 141.278 243.406 141.696C243.364 142.114 243.219 142.526 242.977 142.9C242.754 143.246 242.61 143.641 242.571 144.065C242.431 145.569 243.652 146.963 245.31 146.973Z" fill="#FBFBFB"/>
<path d="M252.146 143.809C251.814 144.655 252.63 145.678 253.969 146.095C255.307 146.512 256.776 145.768 256.994 145.318C257.392 144.495 256.181 143.373 255.171 143.032C253.845 142.585 252.478 142.963 252.146 143.809Z" fill="#FBFBFB"/>
<path d="M248.265 146.322C247.776 146.906 248.123 147.89 249.04 148.521C249.959 149.152 251.246 149.004 251.59 148.606C252.089 148.028 251.447 146.781 250.815 146.407C249.85 145.835 248.755 145.738 248.265 146.322Z" fill="#FBFBFB"/>
</svg>
