<svg width="1396" height="558" viewBox="0 0 1396 558" fill="none" xmlns="http://www.w3.org/2000/svg">
<path d="M1019.59 309.3C1043.59 317.372 1067.13 343.334 1060.85 365.693C1054.35 388.852 1018.65 398.181 992.865 390.697C967.276 383.269 942.613 356.719 948.527 334.299C954.723 310.81 992.301 300.121 1019.59 309.3Z" fill="#FCA11D"/>
<path d="M1162.57 150.338C1159.07 125.334 1171.88 93.2287 1194.84 89.4991C1218.63 85.6361 1243.07 113.879 1247.91 140.246C1252.71 166.413 1239.87 199.772 1217.01 203.855C1193.07 208.132 1166.56 178.77 1162.57 150.338Z" fill="#FCA11D"/>
<path d="M1041.88 166.542C1024.56 143.536 1018.42 104.135 1037.65 87.3306C1057.58 69.9245 1096.16 84.25 1115.48 107.861C1134.65 131.293 1141.48 171.963 1122.54 189.059C1102.7 206.971 1061.57 192.703 1041.88 166.542Z" fill="#FCA11D"/>
<path d="M965.988 259.253C943.721 240.989 928.313 204.063 942.872 183.064C957.953 161.313 998.696 166.007 1023.05 184.379C1047.21 202.611 1063.58 240.611 1049.38 261.822C1034.51 284.046 991.309 280.02 965.988 259.253Z" fill="#FCA11D"/>
<path d="M1096.84 240.033C1081.96 254.667 1079.19 273.426 1077.54 285.704C1074.67 307.185 1080.17 313.58 1085.48 350.319C1092.5 398.795 1085.26 403.838 1095.08 423.795C1097.78 429.29 1111.4 456.988 1141.33 466.78C1172.01 476.815 1206.55 463.707 1223.88 442.825C1239.53 423.974 1231.79 410.063 1249.9 392.51C1266.61 376.317 1278.01 383.489 1295.52 369.858C1321.65 349.525 1335.16 303.309 1317.43 270.024C1306.44 249.395 1286.88 240.173 1280.12 236.988C1258.38 226.736 1250.36 233.864 1205.58 228.711C1168.75 224.472 1163.82 218.457 1141.46 221.54C1128.95 223.265 1111.15 225.967 1096.84 240.033Z" fill="#FCA11D"/>
<path d="M144.919 298.641C142.955 316.009 128.256 334.576 111.447 332.102C94.0369 329.539 81.8547 305.505 83.1235 286.944C84.3827 268.524 99.3235 249.13 116.119 251.346C133.715 253.668 147.153 278.892 144.919 298.641Z" fill="#FCA11D"/>
<path d="M279.789 384.619C296.941 380.066 321.67 386.26 327.899 401.911C334.35 418.122 318.176 437.503 300.267 443.098C282.494 448.65 256.873 442.543 250.412 426.997C243.642 410.711 260.286 389.796 279.789 384.619Z" fill="#FCA11D"/>
<path d="M249.461 302.065C263.041 288.081 289.973 280.475 304.874 292.429C320.309 304.81 316.197 332.848 302.501 348.278C288.911 363.59 261.187 371.775 246.126 360.055C230.346 347.775 234.019 317.968 249.461 302.065Z" fill="#FCA11D"/>
<path d="M171.972 257.141C181.422 240.114 205.153 226.278 222.294 234.626C240.047 243.272 243.091 271.998 233.89 290.483C224.76 308.827 200.419 323.423 183.184 315.343C165.128 306.878 161.227 276.503 171.972 257.141Z" fill="#FCA11D"/>
<path d="M206.025 346.499C193.34 337.389 179.628 337.047 170.679 336.943C155.024 336.761 151.356 341.126 126.18 347.929C92.9598 356.905 88.2593 352.301 75.6659 360.812C72.1982 363.156 54.719 374.969 52.4644 396.609C50.1539 418.784 64.8304 441.694 82.3209 451.98C98.1106 461.266 106.749 454.709 122.005 465.817C136.078 476.065 132.782 484.597 145.168 495.622C163.644 512.067 198.471 517.552 219.262 502.409C232.149 493.024 235.621 478.645 236.82 473.679C240.68 457.695 234.38 452.718 231.031 421.149C228.277 395.182 231.765 391.248 226.088 375.96C222.913 367.408 218.218 355.255 206.025 346.499Z" fill="#FCA11D"/>
</svg>
