<svg width="554" height="684" viewBox="0 0 554 684" fill="none" xmlns="http://www.w3.org/2000/svg">
<path d="M491.012 624.935C495.018 627.621 497.688 626.808 500.743 624.306C504.964 621.36 508.095 618.521 508.464 612.213C509.14 604.555 519.869 599.537 525.102 604.633C528.877 608.332 532.345 613.382 534.8 618.202C538.222 625.016 530.255 633.503 522.566 631.399C516.827 630.094 513.25 631.767 508.953 635.051C501.263 640.759 493.573 646.468 485.622 651.762C483.136 653.327 482 655.199 481.984 658.392C481.538 665.037 478.514 668.966 472.912 670.178C467.648 671.466 462.967 668.626 461.602 663.7C461.157 662.533 460.789 661.029 459.853 660.461C455.694 658.45 453.944 655.212 455.019 650.485C456.017 646.095 460.131 642.059 464.49 641.63C465.579 641.523 466.669 641.415 467.682 641.646C475.064 645.1 479.485 639.713 484.273 635.831C485.593 634.71 485.532 631.856 486.223 628.817C481.665 631.687 478.81 631.748 476.048 628.279C475.526 627.45 472.932 627.925 471.351 628.631C461.866 632.866 452.304 637.439 442.895 641.336C439.396 642.671 435.375 643.177 431.354 643.683C421.47 644.986 413.52 642.469 408.118 633.428C404.804 627.703 400.998 622.577 396.778 617.711C391.177 611.111 390.947 604.312 393.726 596.776C397.457 586.617 404.072 577.823 411.471 570.273C429.399 552.333 449.675 538.123 474.125 530.544C477.133 529.808 480.141 529.071 483.41 528.75C494.046 527.262 502.825 529.258 508.671 539.465C511.986 545.19 516.467 550.47 520.533 556.011C524.416 560.8 524.952 566.248 523.386 571.574C520.285 583.652 512.84 592.968 504.459 601.715C501.175 605.229 497.215 608.59 493.93 612.104C493.024 612.964 492.149 615.25 492.671 616.079C495.433 619.548 494.481 622.172 491.012 624.935ZM471.788 562.682C471.527 562.268 471.604 561.93 471.343 561.516C472.172 560.994 473.078 560.134 474.244 559.69C483.422 556.805 492.938 553.998 502.117 551.113C503.283 550.668 504.787 550.3 505.355 549.364C509.147 542.059 504.835 532.911 496.655 531.406C491.851 530.669 486.556 530.53 481.369 531.481C465.882 533.997 452.176 541.178 439.176 549.94C423.198 560.866 408.938 573.603 399.313 590.945C396.965 595.027 395.475 600.015 394.738 604.819C393.571 613.076 400.185 619.906 408.565 618.971C409.655 618.863 410.975 617.743 411.543 616.807C423.378 592.866 443.7 576.891 466.186 563.894C467.015 563.372 467.69 563.526 468.857 563.081C445.987 577.766 424.99 593.587 412.509 618.802C442.668 618.913 495.668 579.475 503.083 553.108C492.002 553.43 481.949 558.601 471.788 562.682ZM401.459 620.551C404.666 625.186 407.689 629.069 410.298 633.214C414.472 639.844 420.656 642.316 428.284 641.565C433.395 640.951 438.506 640.338 443.095 638.896C462.127 633.281 478.366 622.769 493.301 610.186C503.446 601.485 512.395 591.801 518.351 579.662C525.29 566.325 521.301 552.635 509.546 544.99C506.168 552.034 502.975 559.831 498.585 566.645C488.745 581.807 475.054 593.608 459.721 603.26C442.392 613.879 424.204 623.592 401.459 620.551ZM463.613 659.541C463.658 665.588 464.886 667.997 469.014 668.581C473.143 669.165 477.548 666.97 479.221 662.735C479.866 661.461 480.173 660.11 480.142 658.683C479.974 654.739 482.016 652.007 485.408 649.582C493.435 643.951 501.048 638.58 508.738 632.871C513.036 629.587 516.95 627.992 522.275 629.558C527.263 631.047 531.975 627.502 533.388 622.852C534.309 618.8 532.406 616.237 526.482 614.18C526.728 609.974 526.145 606.291 521.418 605.216C517.367 604.295 512.547 606.75 511.288 610.725C510.643 611.998 510.26 613.687 510.29 615.114C510.458 619.058 508.494 621.452 505.516 623.616C497.98 628.649 490.704 634.097 483.429 639.545C478.64 643.427 474.081 646.297 467.145 644.009C462.832 642.673 458.043 646.556 457.045 650.945C456.047 655.335 458.026 657.56 463.613 659.541ZM477.076 625.317C479.608 629.799 481.711 629.922 484.581 626.668C485.564 625.471 486.884 624.351 488.388 623.983C492.716 622.126 493.254 619.763 489.325 616.739C485.518 619.424 481.374 622.033 477.076 625.317Z" fill="#43BCFF"/>
<path d="M471.17 604.444C474.332 603.032 476.849 602.894 479.012 605.872C481.176 608.849 480.562 611.551 477.922 613.791C475.282 616.032 471.568 615.187 469.742 612.286C467.916 609.385 468.867 606.761 471.17 604.444ZM478.598 606.133C475.743 606.194 473.38 605.656 472.474 606.516C471.568 607.375 470.878 610.414 471.737 611.319C472.596 612.225 475.297 612.839 476.464 612.394C477.707 611.612 477.907 609.171 478.598 606.133Z" fill="#43BCFF"/>
<path d="M451.368 629.058C448.467 630.884 445.429 630.193 443.526 627.63C441.7 624.729 441.976 621.951 444.954 619.787C447.517 617.885 451.646 618.468 453.211 620.955C454.622 624.116 454.346 626.894 451.368 629.058ZM445.215 620.202C445.276 623.056 444.401 625.343 445.598 626.326C446.457 627.231 449.496 627.922 450.402 627.063C451.307 626.203 451.921 623.502 451.139 622.259C450.279 621.353 448.177 621.23 445.215 620.202Z" fill="#43BCFF"/>
<path d="M501.269 593.888C498.445 595.377 495.667 595.1 493.841 592.199C492.015 589.298 492.368 586.183 495.269 584.357C497.832 582.454 500.948 582.807 503.188 585.447C504.753 587.934 504.17 592.062 501.269 593.888ZM501.008 593.474C500.947 590.619 501.822 588.333 501.039 587.089C500.18 586.184 497.663 586.322 495.975 585.938C495.591 587.626 494.378 589.836 495.161 591.079C496.02 591.985 498.46 592.185 501.008 593.474Z" fill="#43BCFF"/>
<path d="M59.9713 111.075C58.7402 115.738 60.3809 117.997 63.7425 120.067C67.9057 123.095 71.6116 125.127 77.6941 123.416C85.1535 121.554 93.3995 130.056 90.2917 136.667C88.028 141.443 84.3876 146.37 80.634 150.264C75.3103 155.724 64.6876 150.965 64.1649 143.011C63.5242 137.159 60.7756 134.325 56.2682 131.336C48.3615 125.932 40.4548 120.527 32.8546 114.741C30.5633 112.902 28.4227 112.44 25.4002 113.468C18.9734 115.216 14.2726 113.641 11.2979 108.742C8.36076 104.187 9.51641 98.8354 13.7272 95.936C14.6844 95.1346 15.9859 94.2954 16.217 93.2251C16.7596 88.6374 19.2494 85.9264 24.0683 85.3988C28.5429 84.9088 33.701 87.4789 35.5301 91.4586C35.9873 92.4535 36.4446 93.4484 36.5577 94.481C35.7036 102.586 42.2384 105.006 47.4719 108.264C48.9618 109.146 51.64 108.156 54.7378 107.817C50.537 104.445 49.5471 101.767 51.9238 98.0234C52.5368 97.2596 51.2404 94.9632 50.057 93.6995C42.9567 86.1171 35.5123 78.5723 28.7563 70.9522C26.3518 68.0805 24.5604 64.445 22.769 60.8096C18.3093 51.893 18.0931 43.5568 24.8741 35.4993C29.203 30.497 32.8057 25.2258 36.0266 19.6482C40.4358 12.1988 46.7872 9.76163 54.817 9.92735C65.638 10.1357 76.1099 13.5173 85.6622 18.0446C108.473 29.1317 128.525 43.6558 143.672 64.2902C145.351 66.8931 147.029 69.496 148.401 72.4807C153.28 82.048 154.26 90.9973 146.522 99.8562C142.193 104.859 138.666 110.818 134.756 116.471C131.498 121.705 126.523 123.991 120.978 124.25C108.549 125.262 97.3137 121.268 86.3092 116.203C81.9149 114.246 77.4453 111.6 73.051 109.643C71.943 109.068 69.4959 108.987 68.8829 109.751C66.5061 113.495 63.7148 113.452 59.9713 111.075ZM112.533 72.5766C112.84 72.1948 113.184 72.1571 113.491 71.7752C114.254 72.3882 115.362 72.9635 116.164 73.9207C121.887 81.6539 127.648 89.7314 133.372 97.4645C134.173 98.4218 135.012 99.7232 136.083 99.9543C144.226 101.153 151.464 94.0901 150.215 85.8669C149.343 81.0858 147.745 76.0358 145.152 71.4431C137.718 57.6273 126.454 47.0175 113.927 37.591C98.3828 26.0566 81.6875 16.7382 62.1533 13.304C57.5279 12.4171 52.3272 12.6383 47.546 13.5102C39.3605 15.1032 35.0644 23.5852 38.6849 31.2003C39.1422 32.1953 40.6321 33.0771 41.7024 33.3082C68.196 36.6771 89.9313 50.6685 109.559 67.6774C110.322 68.2905 110.398 68.9789 111.199 69.9361C89.8509 53.1156 68.0403 38.4358 40.1321 34.8735C49.8757 63.4146 104.459 100.631 131.802 99.0298C127.88 88.6611 119.709 80.8475 112.533 72.5766ZM34.8709 24.9997C31.537 29.5447 28.8538 33.6702 25.7887 37.4891C20.8845 43.5994 20.568 50.2524 23.7689 57.2168C26.0176 61.8472 28.2663 66.4776 31.128 70.3442C42.6502 86.499 57.8883 98.4152 74.6589 108.422C86.1961 115.17 98.2709 120.466 111.69 122.132C126.561 124.335 138.198 116.094 141.585 102.487C133.824 101.595 125.413 101.123 117.539 99.1983C99.9941 94.8495 84.3692 85.7623 70.2391 74.4213C54.5438 61.5101 39.4238 47.4909 34.8709 24.9997ZM18.3149 96.4787C12.6142 98.4962 10.7375 100.443 11.534 104.536C12.3305 108.629 15.8429 112.076 20.3929 112.274C21.8074 112.468 23.1842 112.317 24.5233 111.822C28.1965 110.375 31.4451 111.412 34.8445 113.827C42.7888 119.575 50.3513 125.017 58.258 130.421C62.7654 133.411 65.5517 136.589 65.8106 142.134C66.0317 147.335 70.921 150.631 75.7775 150.448C79.9079 149.995 81.7093 147.36 81.7193 141.089C85.7743 139.948 89.0656 138.194 88.5379 133.375C88.0856 129.245 84.1913 125.491 80.0232 125.599C78.6087 125.406 76.8877 125.594 75.5486 126.089C71.8754 127.537 68.971 126.461 65.9535 124.353C58.7353 118.874 51.2104 113.776 43.6856 108.679C38.4522 105.42 34.2514 102.049 34.1483 94.7449C34.0025 90.2325 28.769 86.974 24.2944 87.464C19.8198 87.9539 18.3626 90.5518 18.3149 96.4787ZM55.0593 98.0283C51.65 101.885 52.2203 103.913 56.2327 105.563C57.6849 106.101 59.1748 106.983 60.0139 108.284C63.1822 111.769 65.5916 111.505 67.1668 106.804C63.3856 104.083 59.5666 101.018 55.0593 98.0283Z" fill="#43BCFF"/>
<path d="M72.8583 85.629C75.225 88.1565 76.1773 90.4905 74.0694 93.508C71.9615 96.5255 69.2079 96.827 66.2281 95.0633C63.2483 93.2996 62.8337 89.5134 64.9793 86.8401C67.1249 84.1669 69.9162 84.2095 72.8583 85.629ZM73.6875 93.2015C72.6975 90.5232 72.4337 88.1138 71.3257 87.5385C70.2177 86.9632 67.1199 87.3024 66.5446 88.4104C65.9692 89.5184 66.2708 92.272 67.0722 93.2292C68.2179 94.1487 70.5897 93.5407 73.6875 93.2015Z" fill="#43BCFF"/>
<path d="M43.1267 74.9502C40.4534 72.8046 40.1142 69.7068 41.9156 67.0712C44.0611 64.398 46.7771 63.7522 49.7945 65.8601C52.4301 67.6615 53.2266 71.7543 51.3875 74.0456C48.86 76.4124 46.1441 77.0581 43.1267 74.9502ZM49.488 66.242C46.8098 67.232 44.3627 67.1516 43.825 68.6038C43.2497 69.7118 43.5889 72.8096 44.6969 73.3849C45.8049 73.9603 48.5585 73.6587 49.478 72.5131C50.0534 71.4051 49.483 69.3775 49.488 66.242Z" fill="#43BCFF"/>
<path d="M92.6656 110.631C90.3366 108.447 89.6908 105.732 91.8364 103.058C93.982 100.385 97.0421 99.7016 99.7154 101.847C102.351 103.649 103.034 106.709 101.271 109.688C99.4316 111.98 95.3389 112.776 92.6656 110.631ZM92.9721 110.249C95.6504 109.259 98.0975 109.339 99.017 108.194C99.5924 107.086 98.6401 104.752 98.4517 103.031C96.7306 103.219 94.2458 102.794 93.3263 103.94C92.751 105.048 93.359 107.42 92.9721 110.249Z" fill="#43BCFF"/>
<path d="M458.034 51.7092C460.863 53.9032 462.641 58.4776 460.547 61.1883C458.378 63.996 452.989 63.5961 449.883 61.3982C446.801 59.2172 444.903 54.5121 446.95 51.7764C449.095 48.9102 454.816 49.2144 458.034 51.7092Z" fill="#FCA11D"/>
<path d="M486.285 37.04C487.19 33.5217 490.715 29.8052 494.055 30.3672C497.516 30.9493 499.29 35.8711 498.492 39.6342C497.7 43.3686 494.102 47.252 490.756 46.7425C487.251 46.2086 485.257 41.0408 486.285 37.04Z" fill="#FCA11D"/>
<path d="M468.913 33.6017C467.822 29.7118 469.163 24.1379 472.719 22.7722C476.402 21.3576 480.877 25.0665 482.209 29.1304C483.53 33.1633 482.212 38.939 478.681 40.3577C474.981 41.8441 470.154 38.0249 468.913 33.6017Z" fill="#FCA11D"/>
<path d="M453.452 42.5111C451.423 39.0287 451.362 33.3584 454.512 31.2132C457.774 28.9912 463.077 31.5071 465.385 35.1005C467.676 38.6665 467.808 44.5255 464.696 46.7159C461.435 49.0107 455.76 46.4711 453.452 42.5111Z" fill="#FCA11D"/>
<path d="M472.399 46.0357C469.558 47.311 468.143 49.6998 467.239 51.2714C465.659 54.0209 466.056 55.1335 464.75 60.3092C463.026 67.1387 461.76 67.4806 461.996 70.6126C462.061 71.475 462.388 75.822 465.931 78.5206C469.562 81.2861 475.001 81.1253 478.521 79.1251C481.699 77.3194 481.412 75.0947 484.855 73.5771C488.03 72.1772 489.189 73.667 492.333 72.6481C497.023 71.1282 501.422 65.5517 500.843 60.265C500.484 56.9884 498.325 54.8461 497.579 54.1062C495.179 51.7248 493.69 52.31 487.864 49.5469C483.073 47.2743 482.733 46.2393 479.511 45.6185C477.708 45.2712 475.129 44.8099 472.399 46.0357Z" fill="#FCA11D"/>
<path d="M31.923 298.183C32.2968 301.744 30.2247 306.193 26.8189 306.557C23.2912 306.934 19.8506 302.766 19.2881 299.003C18.73 295.269 20.8134 290.643 24.2052 290.228C27.7587 289.793 31.4979 294.134 31.923 298.183Z" fill="#FCA11D"/>
<path d="M62.0612 308.43C65.2271 306.648 70.3492 306.621 72.2552 309.422C74.2293 312.323 71.9036 317.009 68.6347 319.037C65.3908 321.049 60.0975 321.139 58.1504 318.371C56.1104 315.471 58.4613 310.456 62.0612 308.43Z" fill="#FCA11D"/>
<path d="M52.5254 293.508C54.5786 290.029 59.5304 287.14 62.9769 288.762C66.5468 290.442 66.9658 296.239 64.9532 300.013C62.956 303.757 57.8741 306.802 54.4065 305.234C50.7734 303.592 50.1907 297.465 52.5254 293.508Z" fill="#FCA11D"/>
<path d="M35.3932 288.512C36.5028 284.637 40.5544 280.67 44.2825 281.459C48.1441 282.277 49.9973 287.846 49.0002 291.999C48.0108 296.12 43.8728 300.27 40.1378 299.539C36.2248 298.773 34.1314 292.919 35.3932 288.512Z" fill="#FCA11D"/>
<path d="M45.9613 304.629C43.0752 303.461 40.371 304.092 38.6114 304.527C35.533 305.289 35.0045 306.345 30.364 308.984C24.2409 312.465 23.1178 311.787 21.0199 314.125C20.4422 314.768 17.5303 318.012 18.0338 322.438C18.5497 326.973 22.4294 330.788 26.3092 331.945C29.8118 332.99 31.2195 331.244 34.697 332.679C37.9049 334.003 37.6314 335.87 40.5424 337.435C44.8847 339.769 51.9548 339.086 55.3709 335.01C57.4881 332.484 57.5406 329.443 57.5588 328.392C57.6172 325.012 56.1642 324.341 54.1279 318.224C52.453 313.192 52.9651 312.23 51.1837 309.475C50.1871 307.933 48.7352 305.752 45.9613 304.629Z" fill="#FCA11D"/>
<path d="M359.808 658.072C361.9 659.589 363.289 662.847 361.842 664.851C360.343 666.926 356.446 666.764 354.155 665.251C351.881 663.749 350.402 660.4 351.815 658.379C353.296 656.261 357.43 656.347 359.808 658.072Z" fill="#FCA11D"/>
<path d="M379.845 646.833C380.415 644.274 382.871 641.511 385.294 641.839C387.803 642.178 389.198 645.687 388.71 648.42C388.225 651.132 385.721 654.017 383.296 653.727C380.755 653.424 379.196 649.743 379.845 646.833Z" fill="#FCA11D"/>
<path d="M367.234 644.755C366.356 641.974 367.194 637.923 369.727 636.855C372.351 635.749 375.665 638.32 376.72 641.22C377.767 644.098 376.951 648.295 374.437 649.4C371.803 650.559 368.232 647.916 367.234 644.755Z" fill="#FCA11D"/>
<path d="M356.29 651.544C354.744 649.08 354.569 644.991 356.79 643.37C359.092 641.692 362.976 643.383 364.724 645.921C366.459 648.44 366.692 652.663 364.498 654.315C362.199 656.046 358.047 654.347 356.29 651.544Z" fill="#FCA11D"/>
<path d="M370.038 653.644C368.019 654.63 367.054 656.386 366.439 657.541C365.363 659.561 365.675 660.354 364.854 664.118C363.769 669.084 362.864 669.36 363.107 671.614C363.174 672.235 363.511 675.362 366.13 677.226C368.813 679.137 372.733 678.894 375.225 677.369C377.475 675.993 377.217 674.395 379.664 673.22C381.922 672.136 382.793 673.184 385.037 672.376C388.384 671.17 391.427 667.045 390.887 663.245C390.551 660.89 388.944 659.395 388.389 658.879C386.602 657.217 385.542 657.674 381.275 655.817C377.766 654.289 377.497 653.55 375.158 653.178C373.85 652.969 371.979 652.697 370.038 653.644Z" fill="#FCA11D"/>
<path d="M358.29 587.176C358.736 588.621 358.242 590.635 356.86 591.065C355.428 591.51 353.661 590.064 353.119 588.55C352.582 587.048 353.067 584.96 354.439 584.51C355.877 584.039 357.782 585.532 358.29 587.176Z" fill="#FCA11D"/>
<path d="M371.624 588.954C372.791 587.956 374.912 587.525 375.932 588.53C376.988 589.571 376.407 591.705 375.218 592.813C374.038 593.913 371.851 594.383 370.817 593.395C369.734 592.36 370.298 590.089 371.624 588.954Z" fill="#FCA11D"/>
<path d="M366.448 583.548C367.015 581.938 368.831 580.335 370.392 580.725C372.01 581.129 372.658 583.498 372.133 585.227C371.612 586.943 369.754 588.621 368.188 588.255C366.548 587.872 365.804 585.38 366.448 583.548Z" fill="#FCA11D"/>
<path d="M358.937 582.88C359.079 581.183 360.434 579.206 362.044 579.228C363.712 579.251 364.937 581.408 364.863 583.212C364.791 585.001 363.415 587.06 361.807 587.063C360.122 587.066 358.775 584.81 358.937 582.88Z" fill="#FCA11D"/>
<path d="M364.638 588.696C363.346 588.449 362.277 588.931 361.583 589.256C360.369 589.824 360.236 590.305 358.529 591.779C356.276 593.724 355.754 593.535 355.076 594.676C354.889 594.99 353.948 596.573 354.519 598.366C355.104 600.204 357.025 601.468 358.728 601.63C360.266 601.776 360.706 600.937 362.266 601.247C363.704 601.533 363.743 602.33 365.078 602.74C367.07 603.352 369.945 602.49 371.027 600.521C371.698 599.3 371.471 598.035 371.392 597.598C371.139 596.192 370.482 596.033 369.137 593.664C368.031 591.715 368.164 591.274 367.2 590.278C366.661 589.72 365.88 588.935 364.638 588.696Z" fill="#FCA11D"/>
<path d="M510.727 88.0133C512.222 89.1006 513.116 91.4284 511.946 92.854C510.735 94.3307 507.831 94.2042 506.186 93.119C504.553 92.042 503.597 89.6488 504.742 88.2109C505.941 86.7045 509.026 86.7768 510.727 88.0133Z" fill="#FCA11D"/>
<path d="M526.193 80.0499C526.732 78.2262 528.689 76.2619 530.485 76.5019C532.344 76.7505 533.231 79.2571 532.746 81.2052C532.264 83.1385 530.265 85.1898 528.466 84.9768C526.582 84.7537 525.58 82.1238 526.193 80.0499Z" fill="#FCA11D"/>
<path d="M516.863 78.5361C516.33 76.5505 517.135 73.6626 519.075 72.9075C521.084 72.1254 523.446 73.968 524.106 76.0397C524.761 78.0955 523.966 81.0869 522.039 81.8689C520.02 82.6882 517.469 80.7939 516.863 78.5361Z" fill="#FCA11D"/>
<path d="M508.386 83.3475C507.341 81.5853 507.39 78.6684 509.122 77.5182C510.915 76.3268 513.742 77.5434 514.936 79.3585C516.121 81.1598 516.108 84.1727 514.396 85.3456C512.602 86.5745 509.575 85.3512 508.386 83.3475Z" fill="#FCA11D"/>
<path d="M518.565 84.8816C517.013 85.5796 516.214 86.8297 515.704 87.6517C514.811 89.0898 515.009 89.6565 514.229 92.339C513.2 95.8787 512.511 96.0733 512.593 97.6814C512.615 98.1242 512.729 100.356 514.603 101.693C516.523 103.062 519.462 102.9 521.392 101.819C523.133 100.843 523.011 99.7021 524.891 98.8705C526.626 98.1034 527.23 98.853 528.942 98.2824C531.496 97.4313 533.952 94.497 533.716 91.7851C533.57 90.1043 532.435 89.0337 532.044 88.664C530.782 87.4739 529.97 87.7969 526.864 86.4608C524.31 85.3619 524.142 84.8343 522.411 84.5623C521.443 84.4101 520.057 84.2107 518.565 84.8816Z" fill="#FCA11D"/>
</svg>
