<svg width="1727" height="270" viewBox="0 0 1727 270" fill="none" xmlns="http://www.w3.org/2000/svg">
<path d="M132.147 137.374C132.962 138.413 134.991 138.387 136.611 137.232C137.845 136.352 139.018 134.305 138.122 133.324C137.632 132.788 135.309 132.348 133.659 133.467C132.009 134.585 131.332 136.334 132.147 137.374Z" fill="#FBFBFB"/>
<path d="M129.218 134.304C129.921 133.529 130.264 131.54 129.336 130.94C128.696 130.526 126.875 130.84 125.89 132.086C124.906 133.331 124.853 134.837 125.772 135.45C126.691 136.063 128.145 135.487 129.218 134.304Z" fill="#FBFBFB"/>
<path d="M127.088 149.543C128.84 148.795 128.987 147.711 129.205 146.681C129.409 145.718 129.986 144.86 130.814 144.236C132.281 143.132 132.77 141.337 132.134 139.768C131.498 138.2 129.864 137.171 127.991 137.272C126.933 137.329 125.896 137.053 125.063 136.464C124.172 135.835 123.296 135.12 121.462 135.666C119.199 136.34 118.117 138.764 118.942 140.798C119.174 141.371 119.537 141.862 119.987 142.254C120.475 142.678 120.848 143.193 121.081 143.757C121.307 144.324 121.393 144.942 121.329 145.565C121.271 146.14 121.348 146.735 121.581 147.308C122.405 149.342 124.926 150.466 127.088 149.543Z" fill="#FBFBFB"/>
<path d="M133.857 141.572C133.991 142.859 135.736 143.729 137.755 143.514C139.774 143.301 141.185 141.505 141.168 140.797C141.135 139.503 138.81 138.727 137.269 138.854C135.246 139.022 133.722 140.285 133.857 141.572Z" fill="#FBFBFB"/>
<path d="M130.491 147.027C130.245 148.063 131.355 149.147 132.97 149.449C134.586 149.751 136.16 148.832 136.341 148.12C136.603 147.087 134.935 145.829 133.862 145.699C132.226 145.5 130.738 145.992 130.491 147.027Z" fill="#FBFBFB"/>
<path d="M1094.64 57.552C1095.25 58.7021 1097.25 58.9875 1099.06 58.0975C1100.44 57.4195 1101.97 55.5819 1101.26 54.4773C1100.88 53.8735 1098.67 53.0831 1096.84 53.9322C1095.01 54.7811 1094.02 56.4017 1094.64 57.552Z" fill="#FBFBFB"/>
<path d="M1092.31 54.0756C1093.14 53.4189 1093.84 51.5109 1093.03 50.7766C1092.48 50.2705 1090.63 50.3002 1089.43 51.3772C1088.23 52.4541 1087.91 53.931 1088.7 54.6762C1089.49 55.4214 1091.03 55.0764 1092.31 54.0756Z" fill="#FBFBFB"/>
<path d="M1087.44 68.7702C1089.3 68.3018 1089.64 67.2558 1090.04 66.2741C1090.42 65.3558 1091.15 64.5983 1092.08 64.1108C1093.72 63.2474 1094.53 61.552 1094.19 59.9082C1093.85 58.2643 1092.42 56.9985 1090.56 56.8105C1089.51 56.7042 1088.53 56.2734 1087.82 55.5648C1087.05 54.8074 1086.32 53.9684 1084.41 54.2251C1082.06 54.542 1080.55 56.7655 1080.99 58.898C1081.12 59.4988 1081.39 60.0385 1081.76 60.494C1082.16 60.9872 1082.44 61.5519 1082.57 62.1437C1082.69 62.737 1082.66 63.3596 1082.48 63.9643C1082.32 64.5227 1082.29 65.1203 1082.41 65.7211C1082.85 67.8534 1085.14 69.3484 1087.44 68.7702Z" fill="#FBFBFB"/>
<path d="M1095.56 61.9527C1095.45 63.242 1097.02 64.3676 1099.05 64.4665C1101.08 64.5657 1102.79 63.0116 1102.91 62.311C1103.11 61.0301 1100.96 59.9079 1099.42 59.7973C1097.39 59.6518 1095.66 60.663 1095.56 61.9527Z" fill="#FBFBFB"/>
<path d="M1091.25 66.8147C1090.82 67.798 1091.71 69.0373 1093.25 69.5829C1094.79 70.1281 1096.51 69.4637 1096.82 68.7898C1097.26 67.812 1095.85 66.3152 1094.81 66.022C1093.23 65.5745 1091.68 65.8313 1091.25 66.8147Z" fill="#FBFBFB"/>
<path d="M1154.17 26.2459C1154.17 27.527 1155.82 28.5993 1157.87 28.538C1159.44 28.4912 1161.69 27.4673 1161.6 26.1902C1161.54 25.492 1159.94 23.8829 1157.89 23.8983C1155.84 23.9137 1154.18 24.9647 1154.17 26.2459Z" fill="#FBFBFB"/>
<path d="M1153.76 22.1795C1154.82 21.9309 1156.37 20.5061 1156 19.5195C1155.75 18.8397 1154.07 18.1114 1152.48 18.589C1150.89 19.0666 1149.88 20.2574 1150.24 21.2489C1150.59 22.2404 1152.13 22.558 1153.76 22.1795Z" fill="#FBFBFB"/>
<path d="M1142.3 33.3655C1144.19 33.7047 1145 32.9067 1145.84 32.1908C1146.62 31.5212 1147.64 31.1378 1148.7 31.0796C1150.6 30.9765 1152.14 29.7866 1152.63 28.1742C1153.12 26.5618 1152.45 24.8471 1150.87 23.9189C1149.98 23.3946 1149.31 22.6125 1149.02 21.6864C1148.7 20.6962 1148.44 19.6454 1146.61 19.0985C1144.35 18.4236 1141.92 19.8021 1141.29 21.8938C1141.11 22.4831 1141.09 23.0761 1141.21 23.6363C1141.33 24.2429 1141.3 24.8607 1141.13 25.4427C1140.95 26.0231 1140.63 26.57 1140.18 27.0402C1139.76 27.4746 1139.44 27.9971 1139.27 28.5864C1138.63 30.6779 1139.95 32.9468 1142.3 33.3655Z" fill="#FBFBFB"/>
<path d="M1152.87 30.5647C1152.16 31.6789 1153.01 33.3241 1154.78 34.2396C1156.56 35.1552 1158.85 34.4622 1159.28 33.8797C1160.09 32.8146 1158.7 30.9325 1157.37 30.2049C1155.62 29.2496 1153.58 29.4504 1152.87 30.5647Z" fill="#FBFBFB"/>
<path d="M1146.66 33.1657C1145.8 33.8714 1146 35.3475 1147.12 36.4629C1148.23 37.578 1150.1 37.6831 1150.7 37.2044C1151.57 36.5099 1151.02 34.5917 1150.24 33.9075C1149.04 32.8641 1147.52 32.46 1146.66 33.1657Z" fill="#FBFBFB"/>
<path d="M177.741 111.966C178.304 113.138 180.295 113.498 182.14 112.675C183.545 112.049 185.154 110.269 184.498 109.139C184.139 108.522 181.965 107.65 180.099 108.431C178.233 109.211 177.178 110.794 177.741 111.966Z" fill="#FBFBFB"/>
<path d="M175.563 108.406C176.426 107.781 177.21 105.9 176.436 105.137C175.903 104.61 174.05 104.572 172.807 105.603C171.564 106.635 171.173 108.099 171.934 108.873C172.696 109.647 174.248 109.359 175.563 108.406Z" fill="#FBFBFB"/>
<path d="M170.052 122.913C171.934 122.513 172.322 121.481 172.767 120.515C173.184 119.611 173.942 118.881 174.892 118.429C176.575 117.627 177.458 115.963 177.189 114.307C176.92 112.652 175.552 111.335 173.697 111.078C172.649 110.933 171.697 110.466 171.014 109.732C170.284 108.947 169.587 108.082 167.67 108.267C165.305 108.497 163.7 110.663 164.049 112.81C164.148 113.415 164.392 113.964 164.745 114.433C165.127 114.941 165.376 115.515 165.477 116.111C165.57 116.709 165.515 117.33 165.313 117.927C165.126 118.479 165.068 119.075 165.166 119.68C165.515 121.827 167.728 123.405 170.052 122.913Z" fill="#FBFBFB"/>
<path d="M178.468 116.399C178.31 117.683 179.821 118.866 181.845 119.04C183.868 119.214 185.653 117.725 185.795 117.029C186.055 115.756 183.954 114.555 182.418 114.388C180.401 114.168 178.626 115.114 178.468 116.399Z" fill="#FBFBFB"/>
<path d="M173.947 121.097C173.473 122.063 174.315 123.335 175.828 123.937C177.34 124.539 179.087 123.938 179.425 123.276C179.913 122.316 178.565 120.768 177.544 120.437C175.988 119.931 174.421 120.13 173.947 121.097Z" fill="#FBFBFB"/>
<path d="M655.056 136.414C656.239 137.093 658.105 136.364 659.13 134.732C659.91 133.489 660.154 131.187 658.921 130.59C658.246 130.264 655.914 130.664 654.847 132.272C653.78 133.88 653.873 135.734 655.056 136.414Z" fill="#FBFBFB"/>
<path d="M651.08 134.59C651.412 133.628 650.911 131.668 649.804 131.435C649.041 131.274 647.484 132.197 647.086 133.692C646.688 135.187 647.259 136.599 648.362 136.848C649.464 137.096 650.573 136.057 651.08 134.59Z" fill="#FBFBFB"/>
<path d="M655.381 149.433C656.694 148.133 656.384 147.078 656.163 146.049C655.955 145.086 656.136 144.092 656.646 143.227C657.549 141.696 657.263 139.863 656.029 138.632C654.794 137.401 652.857 137.016 651.165 137.76C650.209 138.18 649.136 138.285 648.122 138.029C647.038 137.756 645.933 137.399 644.46 138.541C642.642 139.95 642.638 142.57 644.239 144.167C644.69 144.617 645.228 144.945 645.807 145.152C646.433 145.375 646.99 145.722 647.438 146.163C647.88 146.609 648.215 147.152 648.412 147.751C648.595 148.304 648.911 148.827 649.362 149.277C650.963 150.874 653.759 151.039 655.381 149.433Z" fill="#FBFBFB"/>
<path d="M658.365 139.704C659.02 140.848 660.993 141.048 662.774 140.148C664.555 139.249 665.122 137.096 664.815 136.447C664.252 135.26 661.78 135.349 660.406 136.003C658.602 136.861 657.711 138.559 658.365 139.704Z" fill="#FBFBFB"/>
<path d="M657.495 145.922C657.693 146.967 659.167 147.585 660.787 147.303C662.406 147.021 663.486 145.624 663.36 144.902C663.178 143.855 661.115 143.269 660.068 143.522C658.472 143.905 657.296 144.878 657.495 145.922Z" fill="#FBFBFB"/>
<path d="M723.029 135.946C724.211 136.625 726.078 135.896 727.102 134.265C727.883 133.021 728.127 130.719 726.893 130.122C726.219 129.796 723.887 130.196 722.82 131.804C721.753 133.412 721.846 135.266 723.029 135.946Z" fill="#FBFBFB"/>
<path d="M719.052 134.123C719.384 133.16 718.883 131.2 717.777 130.967C717.014 130.806 715.457 131.729 715.059 133.224C714.66 134.719 715.231 136.132 716.334 136.38C717.437 136.628 718.546 135.589 719.052 134.123Z" fill="#FBFBFB"/>
<path d="M723.353 148.966C724.667 147.665 724.357 146.61 724.135 145.581C723.928 144.619 724.109 143.624 724.619 142.759C725.522 141.228 725.235 139.395 724.001 138.164C722.767 136.933 720.83 136.548 719.138 137.292C718.182 137.712 717.109 137.817 716.095 137.561C715.011 137.288 713.905 136.931 712.433 138.073C710.615 139.483 710.611 142.102 712.212 143.699C712.663 144.149 713.201 144.478 713.779 144.684C714.406 144.907 714.963 145.254 715.411 145.695C715.853 146.142 716.187 146.684 716.385 147.283C716.568 147.836 716.884 148.359 717.335 148.809C718.936 150.406 721.732 150.571 723.353 148.966Z" fill="#FBFBFB"/>
<path d="M726.338 139.236C726.992 140.381 728.966 140.58 730.747 139.68C732.528 138.781 733.095 136.629 732.787 135.98C732.225 134.793 729.752 134.882 728.378 135.535C726.574 136.393 725.684 138.091 726.338 139.236Z" fill="#FBFBFB"/>
<path d="M725.469 145.456C725.668 146.5 727.142 147.118 728.761 146.837C730.381 146.555 731.46 145.157 731.335 144.435C731.152 143.388 729.09 142.803 728.043 143.055C726.446 143.439 725.271 144.411 725.469 145.456Z" fill="#FBFBFB"/>
<path d="M720.425 76.7867C721.608 77.466 723.474 76.7373 724.499 75.1053C725.279 73.8623 725.523 71.5601 724.29 70.9633C723.615 70.6371 721.283 71.0368 720.216 72.6449C719.149 74.2528 719.243 76.1071 720.425 76.7867Z" fill="#FBFBFB"/>
<path d="M716.447 74.9663C716.779 74.0039 716.278 72.0438 715.171 71.8106C714.409 71.6498 712.851 72.5729 712.453 74.0678C712.055 75.5625 712.626 76.9754 713.729 77.2235C714.832 77.4717 715.941 76.4331 716.447 74.9663Z" fill="#FBFBFB"/>
<path d="M720.748 89.8094C722.062 88.5085 721.752 87.4542 721.53 86.425C721.322 85.4624 721.504 84.4675 722.013 83.6028C722.916 82.0715 722.63 80.2392 721.396 79.0081C720.162 77.777 718.225 77.3918 716.532 78.1356C715.577 78.5556 714.503 78.6607 713.49 78.4048C712.405 78.1316 711.3 77.7745 709.827 78.9166C708.01 80.3263 708.005 82.946 709.607 84.543C710.058 84.9929 710.595 85.3214 711.174 85.5276C711.8 85.7511 712.358 86.0979 712.805 86.5392C713.247 86.9854 713.582 87.5276 713.779 88.1267C713.962 88.6797 714.278 89.2029 714.729 89.6527C716.33 91.2497 719.126 91.4148 720.748 89.8094Z" fill="#FBFBFB"/>
<path d="M723.735 80.0807C724.389 81.2254 726.362 81.4246 728.144 80.5252C729.924 79.6262 730.491 77.4734 730.184 76.8242C729.621 75.6373 727.149 75.7264 725.775 76.3798C723.971 77.2376 723.08 78.9358 723.735 80.0807Z" fill="#FBFBFB"/>
<path d="M722.866 86.2983C723.064 87.3425 724.538 87.9608 726.158 87.6793C727.777 87.3974 728.857 85.9998 728.731 85.2781C728.549 84.2311 726.486 83.6455 725.439 83.8975C723.843 84.2813 722.667 85.254 722.866 86.2983Z" fill="#FBFBFB"/>
<path d="M781.698 90.4163C782.313 91.5664 784.317 91.8518 786.125 90.9617C787.501 90.2838 789.031 88.4462 788.326 87.3416C787.94 86.7378 785.73 85.9474 783.9 86.7964C782.07 87.6454 781.084 89.266 781.698 90.4163Z" fill="#FBFBFB"/>
<path d="M779.367 86.9409C780.201 86.2842 780.902 84.3762 780.095 83.6419C779.54 83.1358 777.687 83.1655 776.49 84.2424C775.293 85.3193 774.967 86.7963 775.761 87.5414C776.555 88.2866 778.094 87.9417 779.367 86.9409Z" fill="#FBFBFB"/>
<path d="M774.496 101.637C776.359 101.169 776.701 100.123 777.104 99.1413C777.48 98.223 778.206 97.4655 779.136 96.978C780.782 96.1146 781.591 94.4192 781.25 92.7753C780.908 91.1315 779.484 89.8657 777.619 89.6777C776.566 89.5713 775.594 89.1406 774.88 88.432C774.115 87.6745 773.382 86.8356 771.474 87.0922C769.121 87.4091 767.612 89.6327 768.055 91.7652C768.18 92.366 768.449 92.9057 768.822 93.3612C769.225 93.8544 769.5 94.419 769.626 95.0109C769.746 95.6042 769.718 96.2268 769.542 96.8315C769.38 97.3899 769.348 97.9875 769.473 98.5883C769.915 100.721 772.196 102.216 774.496 101.637Z" fill="#FBFBFB"/>
<path d="M782.619 94.8159C782.517 96.1053 784.079 97.2309 786.109 97.3298C788.138 97.429 789.856 95.8748 789.968 95.1743C790.171 93.8933 788.02 92.7712 786.478 92.6605C784.452 92.5151 782.721 93.5263 782.619 94.8159Z" fill="#FBFBFB"/>
<path d="M778.309 99.6789C777.878 100.662 778.775 101.902 780.312 102.447C781.85 102.992 783.57 102.328 783.878 101.654C784.324 100.676 782.908 99.1795 781.874 98.8862C780.297 98.4387 778.74 98.6956 778.309 99.6789Z" fill="#FBFBFB"/>
<path d="M804.47 40.2229C805.084 41.373 807.089 41.6584 808.896 40.7684C810.273 40.0904 811.802 38.2528 811.097 37.1482C810.712 36.5444 808.501 35.754 806.671 36.6031C804.841 37.452 803.855 39.0726 804.47 40.2229Z" fill="#FBFBFB"/>
<path d="M802.138 36.7465C802.973 36.0898 803.673 34.1818 802.867 33.4475C802.311 32.9414 800.458 32.9711 799.261 34.0481C798.064 35.125 797.738 36.6019 798.533 37.3471C799.327 38.0923 800.865 37.7473 802.138 36.7465Z" fill="#FBFBFB"/>
<path d="M797.267 51.4411C799.13 50.9727 799.473 49.9267 799.875 48.945C800.252 48.0267 800.977 47.2692 801.907 46.7817C803.554 45.9183 804.363 44.2229 804.021 42.5791C803.68 40.9352 802.256 39.6694 800.391 39.4814C799.338 39.3751 798.365 38.9443 797.651 38.2357C796.887 37.4783 796.153 36.6393 794.246 36.896C791.892 37.2129 790.384 39.4364 790.827 41.5689C790.952 42.1697 791.22 42.7094 791.593 43.1649C791.997 43.6581 792.271 44.2228 792.398 44.8146C792.517 45.4079 792.49 46.0305 792.314 46.6352C792.151 47.1936 792.119 47.7912 792.244 48.392C792.687 50.5243 794.967 52.0193 797.267 51.4411Z" fill="#FBFBFB"/>
<path d="M805.39 44.6236C805.288 45.9129 806.851 47.0385 808.88 47.1374C810.91 47.2366 812.628 45.6825 812.739 44.9819C812.943 43.7009 810.792 42.5788 809.249 42.4682C807.224 42.3227 805.492 43.3339 805.39 44.6236Z" fill="#FBFBFB"/>
<path d="M801.08 49.4855C800.649 50.4689 801.546 51.7082 803.084 52.2538C804.622 52.799 806.341 52.1346 806.649 51.4607C807.095 50.4829 805.68 48.9861 804.645 48.6929C803.069 48.2454 801.512 48.5022 801.08 49.4855Z" fill="#FBFBFB"/>
<path d="M851.96 76.0774C852.575 77.2275 854.579 77.5129 856.386 76.6229C857.763 75.9449 859.293 74.1073 858.588 73.0027C858.202 72.3989 855.992 71.6085 854.161 72.4575C852.331 73.3065 851.346 74.9271 851.96 76.0774Z" fill="#FBFBFB"/>
<path d="M849.63 72.5981C850.465 71.9414 851.165 70.0334 850.359 69.2991C849.803 68.793 847.95 68.8227 846.753 69.8997C845.557 70.9765 845.23 72.4535 846.025 73.1987C846.819 73.9439 848.358 73.5989 849.63 72.5981Z" fill="#FBFBFB"/>
<path d="M844.757 87.2956C846.621 86.8271 846.963 85.7812 847.366 84.7995C847.742 83.8812 848.467 83.1237 849.397 82.6362C851.044 81.7728 851.853 80.0774 851.511 78.4335C851.17 76.7897 849.746 75.5239 847.881 75.3359C846.828 75.2295 845.856 74.7988 845.141 74.0902C844.377 73.3327 843.643 72.4938 841.736 72.7504C839.382 73.0673 837.874 75.2909 838.317 77.4234C838.442 78.0242 838.71 78.5639 839.083 79.0194C839.487 79.5126 839.761 80.0772 839.888 80.6691C840.007 81.2624 839.98 81.885 839.804 82.4897C839.642 83.0481 839.61 83.6457 839.734 84.2465C840.177 86.3787 842.458 87.8738 844.757 87.2956Z" fill="#FBFBFB"/>
<path d="M852.882 80.4741C852.781 81.7635 854.343 82.8891 856.373 82.988C858.402 83.0872 860.12 81.533 860.231 80.8325C860.435 79.5515 858.284 78.4294 856.741 78.3187C854.716 78.1733 852.984 79.1845 852.882 80.4741Z" fill="#FBFBFB"/>
<path d="M848.571 85.3371C848.14 86.3204 849.036 87.5598 850.574 88.1054C852.112 88.6506 853.831 87.9862 854.139 87.3123C854.586 86.3345 853.17 84.8377 852.136 84.5444C850.559 84.0969 849.002 84.3538 848.571 85.3371Z" fill="#FBFBFB"/>
<path d="M895.552 23.4847C896.166 24.6347 898.171 24.9202 899.978 24.0301C901.355 23.3521 902.884 21.5146 902.18 20.41C901.794 19.8062 899.583 19.0157 897.753 19.8648C895.923 20.7137 894.938 22.3343 895.552 23.4847Z" fill="#FBFBFB"/>
<path d="M893.222 20.0112C894.057 19.3545 894.757 17.4465 893.951 16.7122C893.395 16.2061 891.542 16.2358 890.345 17.3128C889.148 18.3896 888.822 19.8666 889.617 20.6118C890.411 21.3569 891.949 21.012 893.222 20.0112Z" fill="#FBFBFB"/>
<path d="M888.349 34.7058C890.212 34.2373 890.555 33.1914 890.957 32.2096C891.334 31.2913 892.059 30.5339 892.989 30.0463C894.636 29.183 895.445 27.4876 895.103 25.8437C894.762 24.1998 893.338 22.9341 891.473 22.746C890.42 22.6397 889.447 22.209 888.733 21.5004C887.969 20.7429 887.235 19.904 885.328 20.1606C882.974 20.4775 881.466 22.701 881.909 24.8336C882.034 25.4343 882.302 25.974 882.675 26.4295C883.079 26.9228 883.353 27.4874 883.48 28.0792C883.599 28.6725 883.572 29.2952 883.396 29.8999C883.233 30.4583 883.201 31.0559 883.326 31.6566C883.769 33.7889 886.049 35.2839 888.349 34.7058Z" fill="#FBFBFB"/>
<path d="M896.474 27.8853C896.372 29.1747 897.935 30.3002 899.964 30.3991C901.994 30.4983 903.712 28.9442 903.823 28.2436C904.027 26.9627 901.875 25.8405 900.333 25.7299C898.308 25.5845 896.576 26.5957 896.474 27.8853Z" fill="#FBFBFB"/>
<path d="M892.163 32.7502C891.731 33.7335 892.628 34.9728 894.166 35.5184C895.704 36.0637 897.423 35.3993 897.731 34.7254C898.177 33.7476 896.762 32.2508 895.727 31.9575C894.151 31.51 892.594 31.7669 892.163 32.7502Z" fill="#FBFBFB"/>
<path d="M945.649 55.1595C946.264 56.3095 948.268 56.595 950.076 55.7049C951.453 55.0269 952.982 53.1894 952.277 52.0848C951.892 51.481 949.681 50.6905 947.851 51.5396C946.021 52.3885 945.035 54.0091 945.649 55.1595Z" fill="#FBFBFB"/>
<path d="M943.316 51.6821C944.151 51.0254 944.851 49.1174 944.044 48.3831C943.489 47.877 941.636 47.9067 940.439 48.9837C939.242 50.0605 938.916 51.5375 939.71 52.2827C940.505 53.0278 942.043 52.6829 943.316 51.6821Z" fill="#FBFBFB"/>
<path d="M938.447 66.3796C940.31 65.9111 940.652 64.8652 941.055 63.8835C941.432 62.9652 942.157 62.2077 943.087 61.7202C944.733 60.8568 945.542 59.1614 945.201 57.5175C944.859 55.8737 943.435 54.6079 941.57 54.4199C940.517 54.3135 939.545 53.8828 938.831 53.1742C938.067 52.4167 937.333 51.5778 935.426 51.8344C933.072 52.1513 931.564 54.3749 932.007 56.5074C932.131 57.1082 932.4 57.6478 932.773 58.1033C933.176 58.5966 933.451 59.1612 933.577 59.7531C933.697 60.3464 933.669 60.969 933.493 61.5737C933.331 62.1321 933.299 62.7297 933.424 63.3304C933.867 65.4627 936.147 66.9578 938.447 66.3796Z" fill="#FBFBFB"/>
<path d="M946.57 59.5601C946.468 60.8495 948.03 61.975 950.06 62.0739C952.089 62.1731 953.807 60.619 953.919 59.9184C954.123 58.6375 951.971 57.5153 950.429 57.4047C948.403 57.2593 946.672 58.2705 946.57 59.5601Z" fill="#FBFBFB"/>
<path d="M942.26 64.4221C941.829 65.4054 942.726 66.6447 944.264 67.1903C945.801 67.7356 947.521 67.0712 947.829 66.3973C948.275 65.4194 946.86 63.9227 945.825 63.6294C944.248 63.1819 942.691 63.4387 942.26 64.4221Z" fill="#FBFBFB"/>
<path d="M981.433 20.5052C982.047 21.6552 984.051 21.9407 985.859 21.0506C987.236 20.3726 988.765 18.5351 988.06 17.4305C987.675 16.8267 985.464 16.0362 983.634 16.8853C981.804 17.7342 980.818 19.3548 981.433 20.5052Z" fill="#FBFBFB"/>
<path d="M979.101 17.0297C979.936 16.373 980.636 14.465 979.83 13.7307C979.274 13.2246 977.421 13.2543 976.224 14.3313C975.027 15.4082 974.701 16.8851 975.495 17.6303C976.29 18.3755 977.828 18.0305 979.101 17.0297Z" fill="#FBFBFB"/>
<path d="M974.23 31.7234C976.093 31.2549 976.436 30.209 976.838 29.2272C977.215 28.3089 977.94 27.5515 978.87 27.0639C980.516 26.2005 981.326 24.5051 980.984 22.8613C980.643 21.2174 979.218 19.9516 977.354 19.7636C976.301 19.6573 975.328 19.2265 974.614 18.5179C973.85 17.7605 973.116 16.9216 971.209 17.1782C968.855 17.4951 967.347 19.7186 967.79 21.8511C967.915 22.4519 968.183 22.9916 968.556 23.4471C968.96 23.9404 969.234 24.505 969.361 25.0968C969.48 25.6901 969.453 26.3128 969.277 26.9175C969.114 27.4759 969.082 28.0734 969.207 28.6742C969.65 30.8065 971.93 32.3015 974.23 31.7234Z" fill="#FBFBFB"/>
<path d="M982.353 24.9058C982.251 26.1952 983.814 27.3207 985.843 27.4196C987.872 27.5188 989.591 25.9647 989.702 25.2641C989.906 23.9832 987.754 22.861 986.212 22.7504C984.187 22.605 982.455 23.6162 982.353 24.9058Z" fill="#FBFBFB"/>
<path d="M978.043 29.7678C977.612 30.7511 978.509 31.9904 980.047 32.536C981.585 33.0813 983.304 32.4169 983.612 31.743C984.058 30.7651 982.643 29.2684 981.608 28.9751C980.032 28.5276 978.474 28.7844 978.043 29.7678Z" fill="#FBFBFB"/>
<path d="M1016.56 51.5774C1017.18 52.7275 1019.18 53.0129 1020.99 52.1229C1022.36 51.4449 1023.89 49.6073 1023.19 48.5027C1022.8 47.8989 1020.59 47.1085 1018.76 47.9575C1016.93 48.8065 1015.95 50.4271 1016.56 51.5774Z" fill="#FBFBFB"/>
<path d="M1014.23 48.102C1015.06 47.4453 1015.76 45.5373 1014.96 44.803C1014.4 44.2969 1012.55 44.3266 1011.35 45.4036C1010.15 46.4804 1009.83 47.9574 1010.62 48.7026C1011.42 49.4478 1012.96 49.1028 1014.23 48.102Z" fill="#FBFBFB"/>
<path d="M1009.36 62.7966C1011.22 62.3281 1011.56 61.2822 1011.97 60.3004C1012.34 59.3822 1013.07 58.6247 1014 58.1372C1015.64 57.2738 1016.45 55.5784 1016.11 53.9345C1015.77 52.2907 1014.35 51.0249 1012.48 50.8369C1011.43 50.7305 1010.46 50.2998 1009.74 49.5912C1008.98 48.8337 1008.24 47.9948 1006.34 48.2514C1003.98 48.5683 1002.47 50.7919 1002.92 52.9244C1003.04 53.5251 1003.31 54.0648 1003.68 54.5203C1004.09 55.0136 1004.36 55.5782 1004.49 56.1701C1004.61 56.7634 1004.58 57.386 1004.4 57.9907C1004.24 58.5491 1004.21 59.1467 1004.33 59.7474C1004.78 61.8797 1007.06 63.3747 1009.36 62.7966Z" fill="#FBFBFB"/>
<path d="M1017.48 55.9751C1017.38 57.2645 1018.94 58.3901 1020.97 58.489C1023 58.5881 1024.72 57.034 1024.83 56.3335C1025.03 55.0525 1022.88 53.9304 1021.34 53.8197C1019.32 53.6743 1017.58 54.6855 1017.48 55.9751Z" fill="#FBFBFB"/>
<path d="M1013.17 60.841C1012.74 61.8243 1013.64 63.0637 1015.18 63.6093C1016.71 64.1545 1018.43 63.4901 1018.74 62.8162C1019.19 61.8384 1017.77 60.3416 1016.74 60.0483C1015.16 59.6008 1013.6 59.8577 1013.17 60.841Z" fill="#FBFBFB"/>
<path d="M1067.31 19.3059C1067.92 20.456 1069.93 20.7414 1071.73 19.8514C1073.11 19.1734 1074.64 17.3358 1073.94 16.2312C1073.55 15.6275 1071.34 14.837 1069.51 15.6861C1067.68 16.535 1066.69 18.1556 1067.31 19.3059Z" fill="#FBFBFB"/>
<path d="M1064.98 15.8305C1065.81 15.1738 1066.51 13.2658 1065.71 12.5315C1065.15 12.0254 1063.3 12.0551 1062.1 13.1321C1060.9 14.209 1060.58 15.6859 1061.37 16.4311C1062.17 17.1763 1063.71 16.8313 1064.98 15.8305Z" fill="#FBFBFB"/>
<path d="M1060.11 30.5251C1061.97 30.0566 1062.31 29.0107 1062.72 28.029C1063.09 27.1107 1063.82 26.3532 1064.75 25.8657C1066.39 25.0023 1067.2 23.3069 1066.86 21.663C1066.52 20.0192 1065.1 18.7534 1063.23 18.5654C1062.18 18.459 1061.21 18.0283 1060.49 17.3197C1059.73 16.5622 1058.99 15.7233 1057.09 15.9799C1054.73 16.2968 1053.22 18.5204 1053.67 20.6529C1053.79 21.2537 1054.06 21.7934 1054.43 22.2489C1054.84 22.7421 1055.11 23.3067 1055.24 23.8986C1055.36 24.4919 1055.33 25.1145 1055.15 25.7192C1054.99 26.2776 1054.96 26.8752 1055.08 27.476C1055.53 29.6082 1057.81 31.1033 1060.11 30.5251Z" fill="#FBFBFB"/>
<path d="M1068.23 23.7075C1068.13 24.9969 1069.69 26.1225 1071.72 26.2214C1073.75 26.3206 1075.47 24.7664 1075.58 24.0659C1075.78 22.7849 1073.63 21.6628 1072.09 21.5521C1070.07 21.4067 1068.33 22.4179 1068.23 23.7075Z" fill="#FBFBFB"/>
<path d="M1063.92 28.5686C1063.49 29.5519 1064.38 30.7912 1065.92 31.3368C1067.46 31.8821 1069.18 31.2177 1069.49 30.5437C1069.93 29.5659 1068.52 28.0691 1067.48 27.7759C1065.91 27.3284 1064.35 27.5852 1063.92 28.5686Z" fill="#FBFBFB"/>
<path d="M206.207 140.774C206.261 142.055 207.968 143.061 210.013 142.92C211.571 142.813 213.78 141.702 213.623 140.429C213.536 139.734 211.864 138.189 209.816 138.284C207.768 138.379 206.153 139.494 206.207 140.774Z" fill="#FBFBFB"/>
<path d="M205.609 136.731C206.662 136.441 208.143 134.957 207.73 133.986C207.446 133.316 205.738 132.654 204.169 133.193C202.6 133.732 201.65 134.961 202.048 135.938C202.445 136.915 204.004 137.172 205.609 136.731Z" fill="#FBFBFB"/>
<path d="M194.673 148.352C196.583 148.617 197.357 147.789 198.158 147.041C198.908 146.341 199.905 145.919 200.97 145.819C202.856 145.642 204.344 144.393 204.757 142.763C205.17 141.133 204.426 139.446 202.804 138.58C201.888 138.091 201.189 137.336 200.848 136.422C200.484 135.445 200.183 134.405 198.326 133.93C196.034 133.344 193.675 134.816 193.139 136.93C192.988 137.526 192.995 138.119 193.136 138.674C193.287 139.276 193.289 139.894 193.144 140.482C192.991 141.069 192.692 141.628 192.264 142.115C191.869 142.565 191.576 143.1 191.425 143.696C190.89 145.81 192.315 148.025 194.673 148.352Z" fill="#FBFBFB"/>
<path d="M205.109 145.14C204.447 146.281 205.379 147.892 207.191 148.737C209.003 149.583 211.259 148.802 211.67 148.203C212.421 147.107 210.949 145.281 209.588 144.606C207.8 143.719 205.771 143.999 205.109 145.14Z" fill="#FBFBFB"/>
<path d="M199.022 147.983C198.194 148.721 198.468 150.188 199.633 151.259C200.798 152.33 202.663 152.362 203.242 151.861C204.082 151.133 203.447 149.237 202.631 148.584C201.387 147.589 199.85 147.244 199.022 147.983Z" fill="#FBFBFB"/>
<path d="M241.556 120.794C241.611 122.074 243.318 123.081 245.363 122.94C246.921 122.832 249.129 121.721 248.972 120.449C248.886 119.754 247.213 118.208 245.166 118.304C243.118 118.399 241.502 119.514 241.556 120.794Z" fill="#FBFBFB"/>
<path d="M240.96 116.749C242.013 116.46 243.495 114.976 243.082 114.004C242.797 113.335 241.09 112.673 239.52 113.212C237.951 113.751 237.002 114.98 237.399 115.957C237.797 116.934 239.356 117.191 240.96 116.749Z" fill="#FBFBFB"/>
<path d="M230.024 128.374C231.935 128.639 232.709 127.81 233.51 127.062C234.259 126.363 235.256 125.94 236.322 125.84C238.208 125.664 239.695 124.415 240.108 122.785C240.521 121.155 239.777 119.468 238.155 118.602C237.239 118.113 236.541 117.357 236.2 116.444C235.835 115.467 235.534 114.427 233.678 113.952C231.386 113.365 229.026 114.837 228.491 116.952C228.34 117.547 228.347 118.141 228.487 118.696C228.639 119.297 228.64 119.915 228.495 120.504C228.343 121.09 228.043 121.65 227.615 122.137C227.221 122.587 226.928 123.121 226.777 123.717C226.241 125.831 227.667 128.047 230.024 128.374Z" fill="#FBFBFB"/>
<path d="M240.459 125.161C239.797 126.302 240.729 127.912 242.541 128.758C244.353 129.604 246.609 128.822 247.02 128.223C247.771 127.128 246.299 125.301 244.938 124.626C243.15 123.74 241.121 124.02 240.459 125.161Z" fill="#FBFBFB"/>
<path d="M234.374 128.004C233.546 128.743 233.819 130.21 234.984 131.281C236.15 132.351 238.015 132.384 238.594 131.882C239.433 131.154 238.799 129.259 237.983 128.606C236.739 127.61 235.202 127.266 234.374 128.004Z" fill="#FBFBFB"/>
<path d="M262.377 157.844C262.431 159.124 264.138 160.131 266.183 159.989C267.741 159.882 269.95 158.771 269.792 157.499C269.706 156.803 268.034 155.258 265.986 155.353C263.938 155.448 262.323 156.563 262.377 157.844Z" fill="#FBFBFB"/>
<path d="M261.779 153.797C262.832 153.507 264.313 152.023 263.9 151.052C263.616 150.383 261.908 149.72 260.339 150.26C258.77 150.799 257.82 152.028 258.218 153.005C258.615 153.981 260.174 154.239 261.779 153.797Z" fill="#FBFBFB"/>
<path d="M250.843 165.422C252.753 165.687 253.527 164.858 254.328 164.11C255.078 163.411 256.075 162.988 257.14 162.888C259.026 162.712 260.514 161.463 260.927 159.833C261.339 158.203 260.596 156.515 258.974 155.65C258.058 155.161 257.359 154.405 257.018 153.491C256.654 152.515 256.353 151.474 254.496 150.999C252.204 150.413 249.845 151.885 249.309 154C249.158 154.595 249.165 155.188 249.306 155.744C249.457 156.345 249.459 156.963 249.314 157.551C249.161 158.138 248.861 158.697 248.434 159.185C248.039 159.635 247.746 160.169 247.595 160.765C247.06 162.879 248.485 165.095 250.843 165.422Z" fill="#FBFBFB"/>
<path d="M261.279 162.209C260.617 163.35 261.549 164.96 263.361 165.806C265.173 166.652 267.429 165.87 267.84 165.271C268.591 164.176 267.119 162.349 265.758 161.674C263.97 160.788 261.941 161.068 261.279 162.209Z" fill="#FBFBFB"/>
<path d="M255.194 165.052C254.366 165.791 254.64 167.257 255.805 168.328C256.97 169.399 258.835 169.432 259.414 168.93C260.253 168.202 259.619 166.307 258.803 165.654C257.559 164.658 256.022 164.313 255.194 165.052Z" fill="#FBFBFB"/>
<path d="M307.269 141.709C307.324 142.989 309.03 143.996 311.076 143.855C312.633 143.747 314.842 142.636 314.685 141.364C314.599 140.669 312.926 139.123 310.879 139.219C308.831 139.314 307.215 140.429 307.269 141.709Z" fill="#FBFBFB"/>
<path d="M306.671 137.664C307.724 137.375 309.206 135.891 308.793 134.919C308.508 134.25 306.801 133.588 305.231 134.127C303.662 134.666 302.713 135.895 303.11 136.872C303.508 137.849 305.067 138.106 306.671 137.664Z" fill="#FBFBFB"/>
<path d="M295.735 149.286C297.645 149.551 298.42 148.722 299.221 147.974C299.97 147.275 300.967 146.852 302.033 146.753C303.919 146.576 305.406 145.327 305.819 143.697C306.232 142.067 305.488 140.38 303.866 139.514C302.95 139.025 302.251 138.269 301.911 137.356C301.546 136.379 301.245 135.339 299.389 134.864C297.097 134.278 294.737 135.749 294.202 137.864C294.051 138.459 294.058 139.053 294.198 139.608C294.35 140.209 294.351 140.827 294.206 141.416C294.054 142.003 293.754 142.562 293.326 143.049C292.932 143.499 292.639 144.033 292.488 144.629C291.952 146.743 293.378 148.959 295.735 149.286Z" fill="#FBFBFB"/>
<path d="M306.172 146.074C305.51 147.215 306.442 148.825 308.254 149.671C310.065 150.517 312.322 149.735 312.733 149.136C313.484 148.041 312.012 146.214 310.65 145.539C308.863 144.653 306.834 144.933 306.172 146.074Z" fill="#FBFBFB"/>
<path d="M300.087 148.916C299.259 149.655 299.532 151.122 300.697 152.193C301.863 153.263 303.728 153.296 304.307 152.794C305.146 152.066 304.512 150.171 303.696 149.518C302.451 148.522 300.915 148.178 300.087 148.916Z" fill="#FBFBFB"/>
<path d="M307.92 181.153C307.974 182.433 309.681 183.44 311.726 183.299C313.284 183.191 315.493 182.081 315.335 180.808C315.249 180.113 313.577 178.568 311.529 178.663C309.481 178.758 307.866 179.873 307.92 181.153Z" fill="#FBFBFB"/>
<path d="M307.322 177.107C308.375 176.817 309.856 175.333 309.443 174.362C309.158 173.692 307.451 173.03 305.882 173.569C304.313 174.108 303.363 175.337 303.761 176.314C304.158 177.291 305.717 177.548 307.322 177.107Z" fill="#FBFBFB"/>
<path d="M296.386 188.73C298.296 188.995 299.07 188.166 299.871 187.419C300.621 186.719 301.618 186.297 302.683 186.197C304.569 186.02 306.057 184.771 306.47 183.141C306.882 181.511 306.139 179.824 304.517 178.958C303.601 178.469 302.902 177.714 302.561 176.8C302.197 175.823 301.896 174.783 300.039 174.308C297.747 173.722 295.388 175.194 294.852 177.308C294.701 177.904 294.708 178.497 294.849 179.052C295 179.653 295.002 180.272 294.857 180.86C294.704 181.447 294.404 182.006 293.977 182.493C293.582 182.943 293.289 183.478 293.138 184.074C292.603 186.188 294.028 188.403 296.386 188.73Z" fill="#FBFBFB"/>
<path d="M306.822 185.518C306.16 186.659 307.092 188.27 308.904 189.115C310.716 189.961 312.972 189.18 313.383 188.581C314.134 187.485 312.662 185.659 311.301 184.984C309.513 184.097 307.484 184.377 306.822 185.518Z" fill="#FBFBFB"/>
<path d="M300.737 188.358C299.909 189.096 300.182 190.563 301.348 191.634C302.513 192.705 304.378 192.737 304.957 192.236C305.796 191.508 305.162 189.612 304.346 188.959C303.102 187.964 301.565 187.619 300.737 188.358Z" fill="#FBFBFB"/>
<path d="M560.218 209.358C561.045 210.39 563.073 210.343 564.679 209.172C565.903 208.28 567.052 206.222 566.145 205.25C565.648 204.719 563.32 204.302 561.683 205.437C560.047 206.571 559.391 208.327 560.218 209.358Z" fill="#FBFBFB"/>
<path d="M557.25 206.32C557.945 205.537 558.265 203.546 557.329 202.955C556.684 202.547 554.867 202.879 553.897 204.134C552.928 205.39 552.893 206.896 553.819 207.5C554.745 208.103 556.192 207.513 557.25 206.32Z" fill="#FBFBFB"/>
<path d="M555.301 221.578C557.043 220.812 557.178 219.727 557.384 218.695C557.577 217.73 558.144 216.866 558.965 216.235C560.418 215.116 560.886 213.316 560.231 211.754C559.577 210.192 557.931 209.179 556.059 209.298C555.002 209.366 553.962 209.1 553.122 208.52C552.223 207.899 551.339 207.194 549.512 207.758C547.257 208.454 546.203 210.888 547.052 212.914C547.291 213.485 547.659 213.972 548.115 214.36C548.607 214.779 548.987 215.29 549.226 215.852C549.458 216.416 549.552 217.033 549.496 217.657C549.444 218.233 549.528 218.826 549.767 219.397C550.616 221.423 553.149 222.522 555.301 221.578Z" fill="#FBFBFB"/>
<path d="M561.977 213.538C562.127 214.823 563.882 215.676 565.898 215.441C567.915 215.208 569.304 213.398 569.279 212.69C569.231 211.396 566.897 210.643 565.357 210.786C563.336 210.974 561.828 212.252 561.977 213.538Z" fill="#FBFBFB"/>
<path d="M558.675 219.028C558.441 220.066 559.563 221.14 561.182 221.425C562.801 221.711 564.364 220.776 564.537 220.063C564.787 219.028 563.104 217.786 562.029 217.666C560.391 217.483 558.909 217.99 558.675 219.028Z" fill="#FBFBFB"/>
<path d="M610.962 171.117C611.789 172.149 613.817 172.102 615.423 170.931C616.647 170.039 617.796 167.981 616.889 167.009C616.393 166.478 614.064 166.061 612.427 167.195C610.791 168.33 610.135 170.086 610.962 171.117Z" fill="#FBFBFB"/>
<path d="M607.997 168.077C608.691 167.294 609.011 165.302 608.075 164.711C607.43 164.304 605.613 164.636 604.643 165.891C603.674 167.146 603.639 168.653 604.565 169.257C605.491 169.86 606.938 169.27 607.997 168.077Z" fill="#FBFBFB"/>
<path d="M606.045 183.335C607.788 182.57 607.922 181.485 608.128 180.453C608.321 179.488 608.888 178.624 609.709 177.992C611.162 176.874 611.63 175.073 610.976 173.511C610.321 171.95 608.675 170.937 606.803 171.056C605.746 171.123 604.706 170.858 603.866 170.278C602.968 169.657 602.083 168.951 600.256 169.515C598.001 170.212 596.947 172.646 597.796 174.672C598.035 175.243 598.404 175.73 598.859 176.118C599.352 176.537 599.731 177.048 599.97 177.61C600.203 178.174 600.296 178.791 600.24 179.415C600.188 179.991 600.272 180.584 600.512 181.155C601.36 183.181 603.894 184.28 606.045 183.335Z" fill="#FBFBFB"/>
<path d="M612.721 175.297C612.871 176.583 614.626 177.435 616.643 177.201C618.659 176.967 620.049 175.157 620.023 174.45C619.975 173.156 617.641 172.403 616.101 172.546C614.08 172.734 612.572 174.012 612.721 175.297Z" fill="#FBFBFB"/>
<path d="M609.421 180.786C609.187 181.824 610.309 182.897 611.928 183.183C613.547 183.469 615.11 182.534 615.283 181.82C615.533 180.785 613.85 179.544 612.775 179.424C611.137 179.241 609.655 179.748 609.421 180.786Z" fill="#FBFBFB"/>
<path d="M605.757 208.762C606.584 209.793 608.612 209.747 610.218 208.576C611.442 207.684 612.591 205.625 611.684 204.654C611.188 204.122 608.859 203.706 607.222 204.84C605.586 205.974 604.93 207.73 605.757 208.762Z" fill="#FBFBFB"/>
<path d="M602.79 205.722C603.484 204.94 603.804 202.948 602.868 202.357C602.223 201.95 600.406 202.281 599.436 203.537C598.467 204.792 598.432 206.299 599.358 206.902C600.284 207.506 601.731 206.915 602.79 205.722Z" fill="#FBFBFB"/>
<path d="M600.84 220.977C602.583 220.212 602.717 219.127 602.923 218.095C603.116 217.129 603.683 216.266 604.504 215.634C605.957 214.516 606.425 212.715 605.771 211.153C605.116 209.591 603.47 208.578 601.598 208.698C600.541 208.765 599.501 208.5 598.661 207.919C597.763 207.299 596.878 206.593 595.051 207.157C592.796 207.853 591.742 210.288 592.591 212.314C592.83 212.885 593.199 213.372 593.654 213.759C594.147 214.179 594.526 214.69 594.765 215.251C594.997 215.816 595.091 216.433 595.035 217.057C594.983 217.633 595.067 218.226 595.307 218.797C596.155 220.823 598.688 221.921 600.84 220.977Z" fill="#FBFBFB"/>
<path d="M607.516 212.94C607.666 214.225 609.421 215.078 611.438 214.844C613.454 214.61 614.844 212.8 614.818 212.092C614.77 210.799 612.436 210.046 610.896 210.189C608.875 210.376 607.367 211.654 607.516 212.94Z" fill="#FBFBFB"/>
<path d="M604.216 218.431C603.982 219.469 605.104 220.542 606.723 220.828C608.342 221.113 609.905 220.178 610.078 219.465C610.328 218.43 608.645 217.188 607.57 217.068C605.932 216.886 604.45 217.393 604.216 218.431Z" fill="#FBFBFB"/>
<path d="M671.47 180.078C672.297 181.11 674.325 181.063 675.931 179.892C677.155 179 678.304 176.942 677.397 175.97C676.9 175.439 674.572 175.022 672.935 176.156C671.299 177.291 670.643 179.046 671.47 180.078Z" fill="#FBFBFB"/>
<path d="M668.502 177.04C669.197 176.257 669.516 174.265 668.581 173.674C667.936 173.267 666.119 173.599 665.149 174.854C664.18 176.109 664.145 177.616 665.071 178.22C665.997 178.823 667.444 178.232 668.502 177.04Z" fill="#FBFBFB"/>
<path d="M666.552 192.295C668.295 191.53 668.43 190.445 668.636 189.413C668.829 188.448 669.396 187.584 670.217 186.952C671.67 185.834 672.138 184.033 671.483 182.471C670.829 180.91 669.183 179.897 667.311 180.016C666.254 180.083 665.214 179.818 664.374 179.238C663.475 178.617 662.591 177.911 660.764 178.475C658.509 179.172 657.455 181.606 658.304 183.632C658.543 184.203 658.911 184.69 659.367 185.078C659.859 185.497 660.239 186.008 660.478 186.57C660.71 187.134 660.804 187.751 660.748 188.375C660.696 188.951 660.78 189.544 661.019 190.115C661.868 192.141 664.401 193.24 666.552 192.295Z" fill="#FBFBFB"/>
<path d="M673.229 184.26C673.379 185.546 675.134 186.398 677.15 186.164C679.166 185.93 680.556 184.12 680.53 183.413C680.483 182.119 678.149 181.366 676.609 181.509C674.588 181.697 673.08 182.975 673.229 184.26Z" fill="#FBFBFB"/>
<path d="M669.927 189.749C669.693 190.787 670.815 191.86 672.434 192.146C674.053 192.431 675.616 191.497 675.789 190.783C676.039 189.748 674.356 188.506 673.281 188.387C671.643 188.204 670.16 188.711 669.927 189.749Z" fill="#FBFBFB"/>
<path d="M517.278 202.187C518.106 203.219 520.133 203.172 521.74 202.001C522.963 201.109 524.113 199.051 523.205 198.079C522.709 197.548 520.381 197.131 518.744 198.266C517.107 199.4 516.451 201.156 517.278 202.187Z" fill="#FBFBFB"/>
<path d="M514.311 199.146C515.005 198.364 515.325 196.372 514.389 195.781C513.745 195.373 511.927 195.705 510.958 196.961C509.988 198.216 509.953 199.722 510.879 200.326C511.805 200.93 513.252 200.339 514.311 199.146Z" fill="#FBFBFB"/>
<path d="M512.361 214.404C514.104 213.638 514.238 212.553 514.444 211.521C514.637 210.556 515.204 209.692 516.025 209.061C517.478 207.942 517.946 206.142 517.292 204.58C516.638 203.018 514.991 202.005 513.12 202.124C512.063 202.192 511.023 201.927 510.183 201.346C509.284 200.725 508.399 200.02 506.572 200.584C504.317 201.28 503.264 203.714 504.112 205.741C504.352 206.311 504.72 206.799 505.175 207.186C505.668 207.605 506.047 208.116 506.287 208.678C506.519 209.242 506.612 209.86 506.556 210.483C506.505 211.059 506.589 211.653 506.828 212.223C507.676 214.249 510.21 215.348 512.361 214.404Z" fill="#FBFBFB"/>
<path d="M519.036 206.366C519.185 207.651 520.941 208.504 522.957 208.27C524.973 208.036 526.363 206.226 526.337 205.518C526.29 204.224 523.955 203.471 522.416 203.614C520.395 203.802 518.886 205.08 519.036 206.366Z" fill="#FBFBFB"/>
<path d="M515.737 211.856C515.503 212.895 516.626 213.968 518.244 214.253C519.863 214.539 521.427 213.604 521.599 212.891C521.849 211.856 520.167 210.614 519.092 210.494C517.454 210.311 515.971 210.818 515.737 211.856Z" fill="#FBFBFB"/>
<path d="M66.9134 174.658C68.096 175.337 69.9627 174.608 70.9871 172.976C71.7673 171.733 72.0113 169.431 70.778 168.834C70.1037 168.508 67.7717 168.908 66.7045 170.516C65.6374 172.124 65.7309 173.978 66.9134 174.658Z" fill="#FBFBFB"/>
<path d="M62.9371 172.832C63.2691 171.869 62.7681 169.909 61.6614 169.676C60.8988 169.515 59.3417 170.438 58.9433 171.933C58.5451 173.428 59.1162 174.841 60.219 175.089C61.3219 175.337 62.4308 174.298 62.9371 172.832Z" fill="#FBFBFB"/>
<path d="M67.2399 187.678C68.5538 186.377 68.2439 185.322 68.022 184.293C67.8146 183.331 67.9957 182.336 68.5057 181.471C69.4085 179.94 69.1221 178.107 67.8879 176.876C66.6537 175.645 64.7168 175.26 63.0245 176.004C62.0688 176.424 60.9955 176.529 59.9817 176.273C58.8975 176 57.7922 175.643 56.3194 176.785C54.5017 178.194 54.4976 180.814 56.0987 182.411C56.5499 182.861 57.0877 183.19 57.6662 183.396C58.2924 183.619 58.8498 183.966 59.2973 184.407C59.7396 184.854 60.0739 185.396 60.2716 185.995C60.4544 186.548 60.7704 187.071 61.2216 187.521C62.8223 189.118 65.6183 189.283 67.2399 187.678Z" fill="#FBFBFB"/>
<path d="M70.2248 177.948C70.8789 179.093 72.8526 179.292 74.6338 178.392C76.4146 177.493 76.9817 175.341 76.674 174.691C76.1113 173.505 73.6391 173.594 72.2651 174.247C70.4611 175.105 69.5707 176.803 70.2248 177.948Z" fill="#FBFBFB"/>
<path d="M69.3542 184.167C69.5527 185.212 71.0264 185.83 72.6461 185.548C74.2657 185.267 75.3449 183.869 75.2193 183.147C75.0369 182.1 72.9747 181.515 71.9275 181.767C70.331 182.15 69.1557 183.123 69.3542 184.167Z" fill="#FBFBFB"/>
<path d="M134.888 174.19C136.071 174.869 137.937 174.141 138.962 172.509C139.742 171.266 139.986 168.963 138.753 168.367C138.078 168.04 135.746 168.44 134.679 170.048C133.612 171.656 133.706 173.51 134.888 174.19Z" fill="#FBFBFB"/>
<path d="M130.912 172.366C131.244 171.403 130.743 169.443 129.636 169.21C128.873 169.049 127.316 169.972 126.918 171.467C126.52 172.962 127.091 174.375 128.194 174.623C129.296 174.871 130.405 173.833 130.912 172.366Z" fill="#FBFBFB"/>
<path d="M135.213 187.213C136.526 185.912 136.217 184.857 135.995 183.828C135.787 182.866 135.968 181.871 136.478 181.006C137.381 179.475 137.095 177.643 135.861 176.411C134.626 175.18 132.689 174.795 130.997 175.539C130.042 175.959 128.968 176.064 127.954 175.808C126.87 175.535 125.765 175.178 124.292 176.32C122.474 177.73 122.47 180.349 124.071 181.946C124.523 182.396 125.06 182.725 125.639 182.931C126.265 183.154 126.822 183.501 127.27 183.943C127.712 184.389 128.047 184.931 128.244 185.53C128.427 186.083 128.743 186.606 129.194 187.056C130.795 188.653 133.591 188.818 135.213 187.213Z" fill="#FBFBFB"/>
<path d="M138.197 177.48C138.852 178.625 140.825 178.824 142.606 177.925C144.387 177.026 144.954 174.873 144.647 174.224C144.084 173.037 141.612 173.126 140.238 173.779C138.434 174.637 137.543 176.335 138.197 177.48Z" fill="#FBFBFB"/>
<path d="M137.327 183.702C137.525 184.746 138.999 185.364 140.619 185.083C142.238 184.801 143.318 183.403 143.192 182.681C143.01 181.634 140.947 181.049 139.9 181.301C138.304 181.685 137.128 182.657 137.327 183.702Z" fill="#FBFBFB"/>
<path d="M477.591 53.3955C478.418 54.4269 480.446 54.3805 482.052 53.2094C483.276 52.3173 484.425 50.2593 483.518 49.2874C483.021 48.7562 480.693 48.3394 479.056 49.4738C477.42 50.6081 476.764 52.3638 477.591 53.3955Z" fill="#FBFBFB"/>
<path d="M474.625 50.3552C475.32 49.5726 475.64 47.5807 474.704 46.9897C474.059 46.5824 472.242 46.9143 471.272 48.1696C470.303 49.4247 470.268 50.9314 471.194 51.535C472.12 52.1386 473.567 51.5479 474.625 50.3552Z" fill="#FBFBFB"/>
<path d="M472.676 65.6108C474.418 64.8455 474.553 63.7603 474.759 62.7284C474.952 61.7633 475.519 60.8994 476.34 60.2678C477.793 59.1493 478.261 57.3488 477.606 55.7869C476.952 54.225 475.306 53.2119 473.434 53.3315C472.377 53.3988 471.337 53.1337 470.497 52.553C469.598 51.9325 468.714 51.2268 466.887 51.7907C464.632 52.487 463.578 54.9214 464.427 56.9476C464.666 57.5184 465.034 58.0057 465.49 58.393C465.982 58.8125 466.362 59.3233 466.601 59.885C466.833 60.4494 466.927 61.0666 466.871 61.6904C466.819 62.2664 466.903 62.8597 467.142 63.4305C467.991 65.4565 470.524 66.5553 472.676 65.6108Z" fill="#FBFBFB"/>
<path d="M479.35 57.5727C479.5 58.8582 481.255 59.7107 483.272 59.4765C485.288 59.2427 486.678 57.4328 486.652 56.7252C486.604 55.4314 484.27 54.6784 482.73 54.8215C480.709 55.0091 479.201 56.287 479.35 57.5727Z" fill="#FBFBFB"/>
<path d="M476.05 63.0616C475.816 64.0996 476.938 65.1727 478.557 65.4585C480.176 65.7439 481.739 64.8093 481.912 64.0959C482.162 63.0607 480.479 61.819 479.404 61.6993C477.766 61.5165 476.284 62.0235 476.05 63.0616Z" fill="#FBFBFB"/>
<path d="M22.8232 209.357C23.6506 210.389 25.6782 210.342 27.2847 209.171C28.5083 208.279 29.6577 206.221 28.7502 205.249C28.2539 204.718 25.9255 204.301 24.2888 205.436C22.6522 206.57 21.9961 208.326 22.8232 209.357Z" fill="#FBFBFB"/>
<path d="M19.8559 206.318C20.5503 205.536 20.87 203.544 19.9343 202.953C19.2898 202.545 17.4721 202.877 16.5025 204.132C15.5334 205.388 15.4982 206.894 16.4242 207.498C17.3501 208.101 18.7974 207.511 19.8559 206.318Z" fill="#FBFBFB"/>
<path d="M17.908 221.576C19.6509 220.81 19.7852 219.725 19.9914 218.693C20.1843 217.728 20.7514 216.864 21.572 216.233C23.0251 215.114 23.4931 213.314 22.8389 211.752C22.1847 210.19 20.5381 209.177 18.6666 209.296C17.6097 209.364 16.5696 209.099 15.7295 208.518C14.8309 207.897 13.9463 207.192 12.1193 207.756C9.8642 208.452 8.8106 210.886 9.6593 212.912C9.89849 213.483 10.2669 213.971 10.7222 214.358C11.2149 214.777 11.5941 215.288 11.8334 215.85C12.0658 216.414 12.1594 217.031 12.1031 217.655C12.0515 218.231 12.1357 218.825 12.3749 219.395C13.2233 221.421 15.7568 222.52 17.908 221.576Z" fill="#FBFBFB"/>
<path d="M24.5825 213.539C24.7321 214.824 26.4874 215.676 28.5039 215.442C30.52 215.209 31.91 213.399 31.884 212.691C31.8365 211.397 29.5021 210.644 27.9628 210.787C25.9417 210.975 24.4332 212.253 24.5825 213.539Z" fill="#FBFBFB"/>
<path d="M21.282 219.026C21.0481 220.064 22.1706 221.138 23.7894 221.423C25.4083 221.709 26.9718 220.774 27.1442 220.061C27.3942 219.026 25.7114 217.784 24.6368 217.664C22.9985 217.481 21.5159 217.988 21.282 219.026Z" fill="#FBFBFB"/>
<path d="M17.6201 247.008C18.4475 248.039 20.4751 247.993 22.0816 246.822C23.3052 245.93 24.4546 243.872 23.547 242.9C23.0508 242.369 20.7223 241.952 19.0856 243.086C17.449 244.22 16.7929 245.976 17.6201 247.008Z" fill="#FBFBFB"/>
<path d="M14.6528 243.967C15.3472 243.185 15.6668 241.193 14.7312 240.602C14.0867 240.195 12.269 240.527 11.2994 241.782C10.3302 243.037 10.2951 244.544 11.221 245.147C12.147 245.751 13.5943 245.16 14.6528 243.967Z" fill="#FBFBFB"/>
<path d="M12.7029 259.223C14.4458 258.458 14.5801 257.373 14.7863 256.341C14.9792 255.376 15.5463 254.512 16.367 253.88C17.82 252.762 18.288 250.961 17.6338 249.399C16.9796 247.837 15.333 246.824 13.4615 246.944C12.4046 247.011 11.3645 246.746 10.5244 246.165C9.62582 245.545 8.74122 244.839 6.91419 245.403C4.65912 246.099 3.60553 248.534 4.45422 250.56C4.69342 251.131 5.06182 251.618 5.51711 252.005C6.00983 252.425 6.38907 252.936 6.62833 253.497C6.86072 254.062 6.95428 254.679 6.89805 255.303C6.84643 255.879 6.93059 256.472 7.16978 257.043C8.01818 259.069 10.5517 260.168 12.7029 259.223Z" fill="#FBFBFB"/>
<path d="M19.3775 251.185C19.527 252.47 21.2823 253.323 23.2988 253.089C25.3149 252.855 26.7049 251.045 26.6789 250.337C26.6314 249.044 24.297 248.291 22.7577 248.434C20.7366 248.621 19.2281 249.899 19.3775 251.185Z" fill="#FBFBFB"/>
<path d="M16.077 256.673C15.8431 257.711 16.9655 258.784 18.5843 259.07C20.2032 259.355 21.7667 258.421 21.9391 257.707C22.1892 256.672 20.5064 255.43 19.4317 255.311C17.7935 255.128 16.3109 255.635 16.077 256.673Z" fill="#FBFBFB"/>
<path d="M83.331 218.322C84.1584 219.354 86.186 219.307 87.7925 218.136C89.0161 217.244 90.1655 215.186 89.258 214.214C88.7617 213.683 86.4333 213.266 84.7966 214.401C83.16 215.535 82.5039 217.291 83.331 218.322Z" fill="#FBFBFB"/>
<path d="M80.3637 215.284C81.0581 214.501 81.3778 212.509 80.4422 211.918C79.7976 211.511 77.9799 211.843 77.0104 213.098C76.0412 214.353 76.006 215.86 76.932 216.464C77.8579 217.067 79.3052 216.477 80.3637 215.284Z" fill="#FBFBFB"/>
<path d="M78.4138 230.541C80.1567 229.776 80.2911 228.691 80.4972 227.659C80.6901 226.694 81.2572 225.83 82.0779 225.198C83.5309 224.08 83.999 222.279 83.3448 220.718C82.6906 219.156 81.044 218.143 79.1724 218.262C78.1156 218.329 77.0755 218.064 76.2354 217.484C75.3368 216.863 74.4522 216.157 72.6251 216.721C70.3701 217.418 69.3165 219.852 70.1652 221.878C70.4044 222.449 70.7728 222.936 71.228 223.324C71.7208 223.743 72.1 224.254 72.3393 224.816C72.5717 225.38 72.6652 225.997 72.609 226.621C72.5574 227.197 72.6415 227.79 72.8807 228.361C73.7291 230.387 76.2627 231.486 78.4138 230.541Z" fill="#FBFBFB"/>
<path d="M85.0904 222.504C85.2399 223.79 86.9952 224.642 89.0117 224.408C91.0278 224.174 92.4178 222.364 92.3918 221.657C92.3443 220.363 90.0099 219.61 88.4706 219.753C86.4495 219.941 84.941 221.219 85.0904 222.504Z" fill="#FBFBFB"/>
<path d="M81.7879 227.993C81.554 229.031 82.6765 230.104 84.2953 230.39C85.9141 230.676 87.4777 229.741 87.6501 229.028C87.9001 227.992 86.2173 226.751 85.1426 226.631C83.5044 226.448 82.0218 226.955 81.7879 227.993Z" fill="#FBFBFB"/>
<path d="M507.519 251.785C508.346 252.817 510.374 252.77 511.98 251.599C513.204 250.707 514.353 248.649 513.445 247.677C512.949 247.146 510.621 246.729 508.984 247.863C507.347 248.998 506.691 250.753 507.519 251.785Z" fill="#FBFBFB"/>
<path d="M504.549 248.746C505.244 247.963 505.563 245.971 504.628 245.38C503.983 244.973 502.165 245.305 501.196 246.56C500.227 247.815 500.192 249.322 501.118 249.926C502.043 250.529 503.491 249.938 504.549 248.746Z" fill="#FBFBFB"/>
<path d="M502.601 264.004C504.344 263.239 504.479 262.154 504.685 261.122C504.878 260.157 505.445 259.293 506.265 258.661C507.718 257.543 508.186 255.742 507.532 254.18C506.878 252.619 505.231 251.606 503.36 251.725C502.303 251.792 501.263 251.527 500.423 250.947C499.524 250.326 498.64 249.62 496.813 250.184C494.558 250.881 493.504 253.315 494.353 255.341C494.592 255.912 494.96 256.399 495.416 256.787C495.908 257.206 496.288 257.717 496.527 258.279C496.759 258.843 496.853 259.46 496.796 260.084C496.745 260.66 496.829 261.253 497.068 261.824C497.917 263.85 500.45 264.949 502.601 264.004Z" fill="#FBFBFB"/>
<path d="M509.276 255.966C509.425 257.252 511.181 258.104 513.197 257.87C515.213 257.636 516.603 255.826 516.577 255.119C516.53 253.825 514.195 253.072 512.656 253.215C510.635 253.403 509.127 254.681 509.276 255.966Z" fill="#FBFBFB"/>
<path d="M505.975 261.455C505.742 262.493 506.864 263.566 508.483 263.852C510.102 264.137 511.665 263.203 511.838 262.489C512.088 261.454 510.405 260.213 509.33 260.093C507.692 259.91 506.209 260.417 505.975 261.455Z" fill="#FBFBFB"/>
<path d="M1279.06 46.5711C1279.06 47.8522 1280.72 48.9245 1282.77 48.8632C1284.33 48.8164 1286.58 47.7925 1286.49 46.5154C1286.43 45.8172 1284.83 44.2081 1282.78 44.2235C1280.73 44.2388 1279.07 45.2899 1279.06 46.5711Z" fill="#FBFBFB"/>
<path d="M1278.65 42.5095C1279.72 42.261 1281.27 40.8362 1280.9 39.8496C1280.64 39.1697 1278.97 38.4415 1277.38 38.9191C1275.78 39.3967 1274.78 40.5875 1275.13 41.579C1275.48 42.5705 1277.03 42.8881 1278.65 42.5095Z" fill="#FBFBFB"/>
<path d="M1267.19 53.6926C1269.09 54.0318 1269.9 53.2338 1270.73 52.5179C1271.51 51.8484 1272.53 51.4649 1273.6 51.4068C1275.49 51.3037 1277.03 50.1138 1277.52 48.5014C1278.01 46.8889 1277.35 45.1743 1275.76 44.2461C1274.87 43.7218 1274.21 42.9397 1273.91 42.0136C1273.59 41.0234 1273.34 39.9725 1271.51 39.4256C1269.24 38.7507 1266.82 40.1292 1266.18 42.221C1266.01 42.8103 1265.99 43.4032 1266.1 43.9635C1266.22 44.57 1266.2 45.1878 1266.03 45.7699C1265.85 46.3503 1265.52 46.8972 1265.07 47.3674C1264.66 47.8017 1264.34 48.3243 1264.16 48.9136C1263.53 51.005 1264.85 53.274 1267.19 53.6926Z" fill="#FBFBFB"/>
<path d="M1277.76 50.8928C1277.05 52.007 1277.91 53.6523 1279.68 54.5678C1281.45 55.4833 1283.74 54.7903 1284.18 54.2079C1284.98 53.1428 1283.59 51.2606 1282.26 50.5331C1280.52 49.5777 1278.48 49.7785 1277.76 50.8928Z" fill="#FBFBFB"/>
<path d="M1271.56 53.4957C1270.69 54.2014 1270.9 55.6775 1272.01 56.793C1273.13 57.9081 1274.99 58.0131 1275.59 57.5345C1276.46 56.84 1275.92 54.9218 1275.13 54.2376C1273.94 53.1942 1272.42 52.7901 1271.56 53.4957Z" fill="#FBFBFB"/>
<path d="M1215.3 77.0506C1215.3 78.3317 1216.96 79.404 1219.01 79.3426C1220.57 79.2959 1222.83 78.272 1222.73 76.9948C1222.67 76.2966 1221.07 74.6876 1219.02 74.703C1216.97 74.7183 1215.31 75.7694 1215.3 77.0506Z" fill="#FBFBFB"/>
<path d="M1214.89 72.9861C1215.96 72.7376 1217.51 71.3128 1217.14 70.3262C1216.89 69.6463 1215.21 68.918 1213.62 69.3956C1212.03 69.8733 1211.02 71.0641 1211.37 72.0556C1211.72 73.0471 1213.27 73.3647 1214.89 72.9861Z" fill="#FBFBFB"/>
<path d="M1203.43 84.1721C1205.33 84.5113 1206.14 83.7133 1206.97 82.9974C1207.76 82.3279 1208.77 81.9444 1209.84 81.8863C1211.73 81.7832 1213.28 80.5933 1213.76 78.9809C1214.25 77.3684 1213.59 75.6538 1212.01 74.7255C1211.11 74.2013 1210.45 73.4191 1210.15 72.4931C1209.83 71.5029 1209.58 70.452 1207.75 69.9051C1205.49 69.2302 1203.06 70.6087 1202.43 72.7005C1202.25 73.2898 1202.23 73.8827 1202.34 74.443C1202.47 75.0495 1202.44 75.6673 1202.27 76.2494C1202.09 76.8298 1201.76 77.3767 1201.31 77.8469C1200.9 78.2812 1200.58 78.8038 1200.4 79.3931C1199.77 81.4845 1201.09 83.7534 1203.43 84.1721Z" fill="#FBFBFB"/>
<path d="M1214.01 81.3713C1213.29 82.4855 1214.15 84.1308 1215.92 85.0463C1217.69 85.9618 1219.98 85.2689 1220.42 84.6864C1221.22 83.6213 1219.84 81.7391 1218.51 81.0116C1216.76 80.0562 1214.72 80.257 1214.01 81.3713Z" fill="#FBFBFB"/>
<path d="M1207.8 83.9723C1206.94 84.678 1207.14 86.1541 1208.26 87.2695C1209.37 88.3847 1211.23 88.4897 1211.83 88.0111C1212.71 87.3166 1212.16 85.3984 1211.38 84.7141C1210.18 83.6708 1208.66 83.2666 1207.8 83.9723Z" fill="#FBFBFB"/>
<path d="M1347.38 133.22C1347.37 134.501 1349.03 135.573 1351.08 135.512C1352.64 135.465 1354.9 134.441 1354.8 133.164C1354.75 132.466 1353.15 130.857 1351.1 130.872C1349.05 130.887 1347.38 131.938 1347.38 133.22Z" fill="#FBFBFB"/>
<path d="M1346.97 129.154C1348.03 128.906 1349.58 127.481 1349.21 126.494C1348.96 125.814 1347.29 125.086 1345.69 125.564C1344.1 126.041 1343.09 127.232 1343.45 128.224C1343.8 129.215 1345.34 129.533 1346.97 129.154Z" fill="#FBFBFB"/>
<path d="M1335.5 140.34C1337.4 140.679 1338.21 139.881 1339.05 139.165C1339.83 138.496 1340.84 138.112 1341.91 138.054C1343.8 137.951 1345.35 136.761 1345.84 135.149C1346.32 133.536 1345.66 131.822 1344.08 130.894C1343.18 130.369 1342.52 129.587 1342.22 128.661C1341.9 127.671 1341.65 126.62 1339.82 126.073C1337.56 125.398 1335.13 126.777 1334.5 128.868C1334.32 129.458 1334.3 130.051 1334.41 130.611C1334.54 131.217 1334.51 131.835 1334.34 132.417C1334.16 132.998 1333.83 133.545 1333.38 134.015C1332.97 134.449 1332.65 134.972 1332.47 135.561C1331.84 137.652 1333.16 139.921 1335.5 140.34Z" fill="#FBFBFB"/>
<path d="M1346.08 137.537C1345.36 138.652 1346.22 140.297 1347.99 141.212C1349.76 142.128 1352.05 141.435 1352.49 140.852C1353.29 139.787 1351.91 137.905 1350.58 137.178C1348.83 136.222 1346.79 136.423 1346.08 137.537Z" fill="#FBFBFB"/>
<path d="M1339.87 140.14C1339.01 140.846 1339.21 142.322 1340.33 143.437C1341.44 144.553 1343.3 144.658 1343.9 144.179C1344.78 143.485 1344.23 141.566 1343.45 140.882C1342.25 139.839 1340.73 139.435 1339.87 140.14Z" fill="#FBFBFB"/>
<path d="M1397.47 100.951C1397.47 102.232 1399.13 103.304 1401.18 103.243C1402.74 103.196 1404.99 102.172 1404.9 100.895C1404.84 100.197 1403.24 98.588 1401.19 98.6034C1399.14 98.6187 1397.48 99.6697 1397.47 100.951Z" fill="#FBFBFB"/>
<path d="M1397.06 96.8894C1398.13 96.6409 1399.68 95.2161 1399.31 94.2295C1399.05 93.5496 1397.38 92.8214 1395.79 93.299C1394.19 93.7766 1393.19 94.9674 1393.54 95.9589C1393.89 96.9504 1395.44 97.268 1397.06 96.8894Z" fill="#FBFBFB"/>
<path d="M1385.6 108.075C1387.5 108.415 1388.31 107.617 1389.14 106.901C1389.92 106.231 1390.94 105.848 1392.01 105.79C1393.9 105.686 1395.44 104.497 1395.93 102.884C1396.42 101.272 1395.76 99.5571 1394.17 98.6289C1393.28 98.1046 1392.62 97.3225 1392.32 96.3964C1392 95.4062 1391.75 94.3553 1389.92 93.8084C1387.65 93.1335 1385.23 94.512 1384.59 96.6038C1384.42 97.1931 1384.4 97.7861 1384.51 98.3463C1384.63 98.9528 1384.61 99.5706 1384.44 100.153C1384.26 100.733 1383.93 101.28 1383.48 101.75C1383.07 102.185 1382.75 102.707 1382.57 103.296C1381.94 105.388 1383.26 107.657 1385.6 108.075Z" fill="#FBFBFB"/>
<path d="M1396.17 105.273C1395.46 106.387 1396.32 108.032 1398.09 108.948C1399.86 109.863 1402.15 109.17 1402.59 108.588C1403.39 107.523 1402 105.64 1400.67 104.913C1398.93 103.958 1396.89 104.158 1396.17 105.273Z" fill="#FBFBFB"/>
<path d="M1389.97 107.874C1389.1 108.579 1389.31 110.055 1390.42 111.171C1391.54 112.286 1393.4 112.391 1394 111.912C1394.87 111.218 1394.33 109.3 1393.54 108.616C1392.35 107.572 1390.83 107.168 1389.97 107.874Z" fill="#FBFBFB"/>
<path d="M1415.24 148.481C1415.12 149.758 1416.69 150.946 1418.73 151.032C1420.3 151.098 1422.63 150.239 1422.64 148.959C1422.65 148.259 1421.19 146.54 1419.15 146.408C1417.1 146.276 1415.35 147.204 1415.24 148.481Z" fill="#FBFBFB"/>
<path d="M1415.18 144.401C1416.26 144.23 1417.92 142.92 1417.64 141.91C1417.45 141.214 1415.84 140.368 1414.21 140.73C1412.58 141.092 1411.48 142.207 1411.74 143.22C1412.01 144.234 1413.52 144.662 1415.18 144.401Z" fill="#FBFBFB"/>
<path d="M1402.8 154.729C1404.66 155.203 1405.53 154.466 1406.43 153.812C1407.26 153.201 1408.31 152.892 1409.38 152.91C1411.28 152.943 1412.92 151.868 1413.54 150.296C1414.16 148.723 1413.65 146.966 1412.15 145.927C1411.3 145.34 1410.71 144.513 1410.49 143.568C1410.26 142.558 1410.09 141.492 1408.31 140.816C1406.11 139.98 1403.58 141.18 1402.77 143.22C1402.54 143.795 1402.47 144.385 1402.54 144.952C1402.61 145.565 1402.53 146.179 1402.31 146.747C1402.08 147.313 1401.71 147.835 1401.22 148.271C1400.77 148.674 1400.41 149.172 1400.18 149.747C1399.37 151.787 1400.5 154.144 1402.8 154.729Z" fill="#FBFBFB"/>
<path d="M1413.58 152.694C1412.77 153.754 1413.49 155.456 1415.17 156.496C1416.86 157.535 1419.2 157.009 1419.69 156.46C1420.58 155.456 1419.36 153.48 1418.09 152.659C1416.44 151.581 1414.38 151.635 1413.58 152.694Z" fill="#FBFBFB"/>
<path d="M1407.16 154.842C1406.25 155.484 1406.33 156.97 1407.34 158.162C1408.36 159.354 1410.21 159.593 1410.85 159.159C1411.77 158.529 1411.39 156.577 1410.67 155.839C1409.56 154.713 1408.08 154.201 1407.16 154.842Z" fill="#FBFBFB"/>
<path d="M1458.65 112.726C1458.97 113.971 1460.86 114.653 1462.84 114.147C1464.34 113.762 1466.27 112.277 1465.85 111.057C1465.61 110.391 1463.65 109.175 1461.66 109.636C1459.67 110.097 1458.32 111.48 1458.65 112.726Z" fill="#FBFBFB"/>
<path d="M1457.2 108.865C1458.17 108.392 1459.31 106.671 1458.7 105.792C1458.28 105.187 1456.46 104.844 1455.04 105.654C1453.61 106.464 1452.94 107.84 1453.54 108.727C1454.14 109.613 1455.72 109.586 1457.2 108.865Z" fill="#FBFBFB"/>
<path d="M1448.95 122.226C1450.88 122.143 1451.46 121.192 1452.09 120.315C1452.67 119.494 1453.56 118.901 1454.59 118.612C1456.4 118.1 1457.59 116.609 1457.65 114.936C1457.71 113.263 1456.62 111.742 1454.85 111.184C1453.84 110.868 1453 110.253 1452.47 109.418C1451.9 108.525 1451.39 107.559 1449.47 107.426C1447.09 107.263 1445.09 109.129 1445.02 111.299C1444.99 111.91 1445.13 112.491 1445.38 113.01C1445.66 113.573 1445.79 114.179 1445.78 114.782C1445.75 115.385 1445.58 115.987 1445.26 116.541C1444.97 117.054 1444.8 117.63 1444.77 118.242C1444.7 120.411 1446.57 122.328 1448.95 122.226Z" fill="#FBFBFB"/>
<path d="M1458.5 117.205C1458.09 118.442 1459.35 119.855 1461.31 120.359C1463.26 120.863 1465.31 119.692 1465.59 119.031C1466.09 117.822 1464.26 116.295 1462.78 115.877C1460.84 115.328 1458.91 115.967 1458.5 117.205Z" fill="#FBFBFB"/>
<path d="M1453.14 121.081C1452.48 121.954 1453.06 123.343 1454.43 124.185C1455.8 125.026 1457.64 124.723 1458.1 124.127C1458.77 123.263 1457.74 121.518 1456.8 121.024C1455.37 120.27 1453.79 120.208 1453.14 121.081Z" fill="#FBFBFB"/>
<path d="M1485.32 142.008C1485.65 143.254 1487.54 143.935 1489.51 143.43C1491.02 143.045 1492.95 141.559 1492.52 140.339C1492.29 139.673 1490.32 138.457 1488.33 138.918C1486.35 139.379 1485 140.762 1485.32 142.008Z" fill="#FBFBFB"/>
<path d="M1483.88 138.147C1484.85 137.674 1485.99 135.953 1485.38 135.075C1484.95 134.469 1483.14 134.126 1481.71 134.936C1480.29 135.747 1479.62 137.122 1480.22 138.009C1480.81 138.896 1482.4 138.868 1483.88 138.147Z" fill="#FBFBFB"/>
<path d="M1475.62 151.509C1477.55 151.427 1478.14 150.475 1478.76 149.598C1479.35 148.777 1480.24 148.184 1481.26 147.895C1483.07 147.383 1484.27 145.892 1484.33 144.219C1484.38 142.546 1483.3 141.025 1481.52 140.467C1480.52 140.152 1479.67 139.536 1479.14 138.701C1478.58 137.808 1478.06 136.842 1476.14 136.71C1473.77 136.546 1471.77 138.412 1471.69 140.582C1471.67 141.194 1471.8 141.774 1472.06 142.294C1472.34 142.856 1472.47 143.462 1472.45 144.065C1472.43 144.668 1472.25 145.27 1471.94 145.825C1471.64 146.337 1471.47 146.914 1471.45 147.525C1471.37 149.694 1473.24 151.611 1475.62 151.509Z" fill="#FBFBFB"/>
<path d="M1485.18 146.488C1484.77 147.725 1486.03 149.138 1487.98 149.642C1489.94 150.147 1491.99 148.975 1492.26 148.314C1492.77 147.105 1490.93 145.578 1489.46 145.16C1487.51 144.611 1485.58 145.25 1485.18 146.488Z" fill="#FBFBFB"/>
<path d="M1479.81 150.364C1479.16 151.237 1479.74 152.627 1481.11 153.468C1482.48 154.309 1484.31 154.006 1484.77 153.411C1485.44 152.546 1484.42 150.801 1483.48 150.307C1482.05 149.554 1480.47 149.491 1479.81 150.364Z" fill="#FBFBFB"/>
<path d="M1513.03 100.55C1513.98 101.483 1515.99 101.213 1517.43 99.8733C1518.53 98.8529 1519.4 96.683 1518.37 95.8182C1517.81 95.3455 1515.45 95.1884 1513.97 96.4951C1512.49 97.8016 1512.07 99.617 1513.03 100.55Z" fill="#FBFBFB"/>
<path d="M1509.69 97.8569C1510.27 97.0035 1510.33 94.9907 1509.32 94.5072C1508.63 94.1739 1506.87 94.7037 1506.07 96.0568C1505.27 97.4097 1505.43 98.9094 1506.43 99.4066C1507.43 99.9037 1508.79 99.1577 1509.69 97.8569Z" fill="#FBFBFB"/>
<path d="M1509.74 113.22C1511.37 112.268 1511.36 111.176 1511.43 110.129C1511.5 109.149 1511.95 108.229 1512.68 107.511C1513.98 106.241 1514.21 104.402 1513.35 102.923C1512.5 101.445 1510.73 100.621 1508.89 100.946C1507.85 101.129 1506.78 100.98 1505.87 100.497C1504.9 99.9796 1503.93 99.3765 1502.19 100.138C1500.04 101.078 1499.31 103.611 1500.42 105.529C1500.73 106.069 1501.16 106.512 1501.67 106.846C1502.21 107.209 1502.65 107.674 1502.96 108.205C1503.27 108.74 1503.44 109.342 1503.47 109.968C1503.49 110.545 1503.65 111.125 1503.96 111.665C1505.07 113.583 1507.73 114.395 1509.74 113.22Z" fill="#FBFBFB"/>
<path d="M1515.32 104.507C1515.64 105.767 1517.49 106.419 1519.46 105.965C1521.43 105.51 1522.58 103.56 1522.46 102.861C1522.24 101.581 1519.83 101.091 1518.32 101.403C1516.33 101.812 1515 103.247 1515.32 104.507Z" fill="#FBFBFB"/>
<path d="M1512.76 110.318C1512.67 111.374 1513.92 112.316 1515.56 112.421C1517.21 112.526 1518.64 111.426 1518.72 110.698C1518.83 109.643 1517 108.596 1515.91 108.596C1514.26 108.595 1512.86 109.261 1512.76 110.318Z" fill="#FBFBFB"/>
<path d="M1555.99 123.324C1556.94 124.257 1558.95 123.987 1560.39 122.648C1561.49 121.627 1562.36 119.457 1561.33 118.593C1560.77 118.12 1558.41 117.963 1556.93 119.269C1555.45 120.576 1555.03 122.391 1555.99 123.324Z" fill="#FBFBFB"/>
<path d="M1552.65 120.632C1553.23 119.779 1553.29 117.766 1552.28 117.283C1551.59 116.949 1549.83 117.479 1549.03 118.832C1548.23 120.185 1548.4 121.685 1549.39 122.182C1550.39 122.679 1551.75 121.933 1552.65 120.632Z" fill="#FBFBFB"/>
<path d="M1552.7 135.994C1554.33 135.042 1554.33 133.95 1554.4 132.903C1554.46 131.924 1554.91 131.003 1555.64 130.286C1556.94 129.015 1557.17 127.176 1556.32 125.698C1555.46 124.219 1553.69 123.395 1551.85 123.72C1550.81 123.903 1549.74 123.755 1548.83 123.271C1547.86 122.754 1546.89 122.151 1545.15 122.912C1543 123.852 1542.28 126.385 1543.38 128.303C1543.69 128.843 1544.12 129.286 1544.63 129.621C1545.17 129.983 1545.61 130.448 1545.92 130.98C1546.23 131.514 1546.4 132.117 1546.43 132.742C1546.45 133.32 1546.61 133.899 1546.93 134.44C1548.03 136.357 1550.69 137.169 1552.7 135.994Z" fill="#FBFBFB"/>
<path d="M1558.28 127.279C1558.6 128.539 1560.45 129.192 1562.42 128.737C1564.39 128.283 1565.54 126.333 1565.42 125.633C1565.2 124.354 1562.79 123.864 1561.28 124.175C1559.3 124.585 1557.97 126.02 1558.28 127.279Z" fill="#FBFBFB"/>
<path d="M1555.72 133.093C1555.62 134.15 1556.88 135.091 1558.52 135.196C1560.17 135.301 1561.6 134.201 1561.67 133.474C1561.79 132.419 1559.95 131.371 1558.87 131.371C1557.22 131.37 1555.82 132.037 1555.72 133.093Z" fill="#FBFBFB"/>
<path d="M1559.89 79.7043C1560.85 80.637 1562.85 80.3674 1564.29 79.0276C1565.39 78.0072 1566.26 75.8373 1565.24 74.9725C1564.67 74.4998 1562.31 74.3427 1560.83 75.6494C1559.36 76.9559 1558.93 78.7713 1559.89 79.7043Z" fill="#FBFBFB"/>
<path d="M1556.55 77.0142C1557.14 76.1607 1557.19 74.1479 1556.19 73.6644C1555.49 73.3311 1553.73 73.8609 1552.93 75.214C1552.14 76.567 1552.3 78.0667 1553.3 78.5638C1554.29 79.0609 1555.65 78.3149 1556.55 77.0142Z" fill="#FBFBFB"/>
<path d="M1556.61 92.377C1558.24 91.4251 1558.23 90.3329 1558.3 89.2858C1558.36 88.3064 1558.81 87.3862 1559.55 86.6687C1560.84 85.3981 1561.07 83.559 1560.22 82.0805C1559.36 80.602 1557.6 79.7778 1555.75 80.1028C1554.71 80.2862 1553.65 80.1377 1552.74 79.6538C1551.76 79.1368 1550.79 78.5337 1549.05 79.2951C1546.91 80.2349 1546.18 82.7678 1547.28 84.6858C1547.6 85.2261 1548.03 85.6693 1548.53 86.0036C1549.07 86.3658 1549.52 86.8311 1549.83 87.3623C1550.13 87.897 1550.3 88.4994 1550.33 89.1249C1550.35 89.7024 1550.52 90.2822 1550.83 90.8225C1551.93 92.7403 1554.59 93.5518 1556.61 92.377Z" fill="#FBFBFB"/>
<path d="M1562.18 83.6613C1562.5 84.921 1564.35 85.5738 1566.33 85.119C1568.3 84.6646 1569.44 82.7145 1569.32 82.0149C1569.11 80.7357 1566.69 80.2456 1565.18 80.5573C1563.2 80.9664 1561.87 82.4014 1562.18 83.6613Z" fill="#FBFBFB"/>
<path d="M1559.62 89.4731C1559.52 90.5294 1560.78 91.471 1562.42 91.5763C1564.07 91.6812 1565.5 90.5809 1565.58 89.8536C1565.69 88.7984 1563.86 87.7512 1562.77 87.7508C1561.12 87.7499 1559.72 88.4167 1559.62 89.4731Z" fill="#FBFBFB"/>
<path d="M1598.28 55.8029C1599.23 56.7356 1601.24 56.466 1602.68 55.1263C1603.78 54.1058 1604.65 51.9359 1603.62 51.0711C1603.06 50.5985 1600.7 50.4413 1599.22 51.748C1597.74 53.0545 1597.32 54.8699 1598.28 55.8029Z" fill="#FBFBFB"/>
<path d="M1594.94 53.1138C1595.52 52.2603 1595.58 50.2475 1594.57 49.764C1593.88 49.4307 1592.12 49.9605 1591.32 51.3137C1590.52 52.6666 1590.68 54.1663 1591.68 54.6634C1592.68 55.1605 1594.04 54.4145 1594.94 53.1138Z" fill="#FBFBFB"/>
<path d="M1594.99 68.4717C1596.62 67.5198 1596.61 66.4277 1596.68 65.3805C1596.75 64.4011 1597.2 63.481 1597.93 62.7634C1599.23 61.4928 1599.46 59.6537 1598.6 58.1752C1597.75 56.6967 1595.98 55.8726 1594.14 56.1976C1593.1 56.3809 1592.03 56.2324 1591.12 55.7485C1590.15 55.2315 1589.18 54.6284 1587.44 55.3898C1585.29 56.3296 1584.56 58.8626 1585.67 60.7806C1585.98 61.3209 1586.41 61.764 1586.92 62.0983C1587.46 62.4605 1587.9 62.9258 1588.21 63.4571C1588.52 63.9917 1588.69 64.5941 1588.72 65.2196C1588.74 65.7972 1588.9 66.3769 1589.21 66.9172C1590.32 68.835 1592.98 69.6465 1594.99 68.4717Z" fill="#FBFBFB"/>
<path d="M1600.57 59.758C1600.89 61.0177 1602.74 61.6705 1604.71 61.2157C1606.68 60.7613 1607.83 58.8112 1607.71 58.1116C1607.49 56.8324 1605.08 56.3423 1603.57 56.654C1601.58 57.0631 1600.25 58.498 1600.57 59.758Z" fill="#FBFBFB"/>
<path d="M1598.01 65.5717C1597.91 66.6281 1599.17 67.5697 1600.81 67.6749C1602.46 67.7798 1603.89 66.6796 1603.96 65.9523C1604.08 64.897 1602.24 63.8498 1601.16 63.8495C1599.51 63.8485 1598.1 64.5154 1598.01 65.5717Z" fill="#FBFBFB"/>
<path d="M1642.52 70.1457C1643.47 71.0784 1645.48 70.8088 1646.92 69.469C1648.02 68.4486 1648.89 66.2787 1647.87 65.4139C1647.3 64.9412 1644.94 64.7841 1643.46 66.0908C1641.98 67.3973 1641.56 69.2127 1642.52 70.1457Z" fill="#FBFBFB"/>
<path d="M1639.18 67.4556C1639.76 66.6021 1639.82 64.5893 1638.82 64.1058C1638.12 63.7725 1636.36 64.3023 1635.56 65.6555C1634.76 67.0084 1634.93 68.5081 1635.92 69.0052C1636.92 69.5023 1638.28 68.7563 1639.18 67.4556Z" fill="#FBFBFB"/>
<path d="M1639.23 82.8174C1640.87 81.8655 1640.86 80.7734 1640.93 79.7262C1640.99 78.7468 1641.44 77.8267 1642.17 77.1091C1643.47 75.8385 1643.7 73.9994 1642.85 72.5209C1641.99 71.0424 1640.23 70.2183 1638.38 70.5433C1637.34 70.7266 1636.28 70.5781 1635.37 70.0943C1634.39 69.5772 1633.42 68.9741 1631.68 69.7355C1629.53 70.6753 1628.81 73.2083 1629.91 75.1263C1630.23 75.6666 1630.66 76.1097 1631.16 76.444C1631.7 76.8062 1632.14 77.2715 1632.46 77.8028C1632.76 78.3374 1632.93 78.9398 1632.96 79.5653C1632.98 80.1429 1633.14 80.7226 1633.46 81.2629C1634.56 83.1807 1637.22 83.9922 1639.23 82.8174Z" fill="#FBFBFB"/>
<path d="M1644.81 74.0998C1645.13 75.3595 1646.98 76.0123 1648.95 75.5575C1650.93 75.1031 1652.07 73.153 1651.95 72.4534C1651.73 71.1742 1649.32 70.6841 1647.81 70.9958C1645.83 71.4049 1644.5 72.8398 1644.81 74.0998Z" fill="#FBFBFB"/>
<path d="M1642.25 79.9135C1642.15 80.9699 1643.41 81.9115 1645.05 82.0167C1646.7 82.1216 1648.13 81.0213 1648.21 80.2941C1648.32 79.2388 1646.49 78.1916 1645.4 78.1913C1643.75 78.1903 1642.35 78.8572 1642.25 79.9135Z" fill="#FBFBFB"/>
<path d="M1665.52 27.4953C1666.64 28.258 1668.56 27.6665 1669.72 26.1137C1670.61 24.9309 1671.05 22.6536 1669.87 21.9694C1669.22 21.5955 1666.86 21.8252 1665.66 23.3512C1664.46 24.877 1664.39 26.7323 1665.52 27.4953Z" fill="#FBFBFB"/>
<path d="M1661.71 25.3898C1662.12 24.4545 1661.79 22.4641 1660.7 22.1517C1659.96 21.9362 1658.33 22.7438 1657.8 24.2053C1657.28 25.6666 1657.72 27.1163 1658.8 27.4435C1659.88 27.7706 1661.08 26.8155 1661.71 25.3898Z" fill="#FBFBFB"/>
<path d="M1664.72 40.5025C1666.14 39.3007 1665.93 38.2272 1665.79 37.1852C1665.67 36.2106 1665.93 35.2318 1666.52 34.4067C1667.55 32.9455 1667.42 31.0981 1666.29 29.7816C1665.17 28.4651 1663.27 27.941 1661.52 28.5601C1660.53 28.9096 1659.45 28.9368 1658.46 28.6084C1657.41 28.2576 1656.34 27.8217 1654.77 28.8537C1652.84 30.1277 1652.61 32.7389 1654.07 34.4468C1654.48 34.9279 1654.99 35.2943 1655.55 35.5417C1656.15 35.8098 1656.68 36.1957 1657.09 36.6681C1657.49 37.1449 1657.77 37.7096 1657.92 38.3211C1658.06 38.8856 1658.33 39.43 1658.74 39.9111C1660.2 41.6189 1662.97 41.9857 1664.72 40.5025Z" fill="#FBFBFB"/>
<path d="M1668.53 31.0173C1669.08 32.2057 1671.03 32.5471 1672.89 31.7792C1674.74 31.0118 1675.49 28.9067 1675.24 28.2373C1674.78 27.0134 1672.31 26.9235 1670.88 27.4755C1669.01 28.2001 1667.98 29.8286 1668.53 31.0173Z" fill="#FBFBFB"/>
<path d="M1667.13 37.1535C1667.24 38.2089 1668.66 38.9318 1670.3 38.7683C1671.94 38.6044 1673.13 37.2891 1673.07 36.5607C1672.98 35.5037 1670.97 34.7707 1669.9 34.9463C1668.28 35.2135 1667.03 36.0981 1667.13 37.1535Z" fill="#FBFBFB"/>
<path d="M1714.2 9.25699C1715.32 10.0197 1717.25 9.42826 1718.41 7.87542C1719.29 6.69265 1719.73 4.41528 1718.55 3.73111C1717.91 3.35722 1715.55 3.58695 1714.35 5.11289C1713.15 6.63868 1713.08 8.49398 1714.2 9.25699Z" fill="#FBFBFB"/>
<path d="M1710.4 7.15254C1710.81 6.21715 1710.48 4.22683 1709.4 3.91439C1708.65 3.69892 1707.02 4.5065 1706.49 5.96803C1705.97 7.42928 1706.42 8.87901 1707.49 9.20615C1708.57 9.53329 1709.77 8.57817 1710.4 7.15254Z" fill="#FBFBFB"/>
<path d="M1713.41 22.2642C1714.83 21.0624 1714.61 19.9889 1714.48 18.9469C1714.36 17.9723 1714.62 16.9936 1715.2 16.1684C1716.24 14.7072 1716.11 12.8599 1714.98 11.5433C1713.86 10.2268 1711.96 9.7027 1710.21 10.3219C1709.22 10.6714 1708.14 10.6985 1707.15 10.3701C1706.09 10.0194 1705.02 9.58344 1703.46 10.6155C1701.52 11.8894 1701.3 14.5007 1702.76 16.2085C1703.17 16.6896 1703.67 17.056 1704.23 17.3034C1704.84 17.5715 1705.36 17.9575 1705.77 18.4298C1706.18 18.9066 1706.46 19.4713 1706.61 20.0828C1706.74 20.6473 1707.01 21.1917 1707.42 21.6728C1708.88 23.3806 1711.66 23.7474 1713.41 22.2642Z" fill="#FBFBFB"/>
<path d="M1717.22 12.78C1717.78 13.9684 1719.73 14.3098 1721.58 13.5419C1723.43 12.7745 1724.18 10.6694 1723.93 10C1723.47 8.77612 1721 8.68618 1719.57 9.23819C1717.7 9.96283 1716.67 11.5913 1717.22 12.78Z" fill="#FBFBFB"/>
<path d="M1715.82 18.9172C1715.93 19.9726 1717.35 20.6955 1718.98 20.532C1720.62 20.368 1721.82 19.0528 1721.76 18.3243C1721.66 17.2674 1719.66 16.5344 1718.59 16.7099C1716.97 16.9771 1715.71 17.8618 1715.82 18.9172Z" fill="#FBFBFB"/>
<path d="M1344.12 82.4266C1344.12 83.7077 1345.78 84.78 1347.83 84.7186C1349.39 84.6719 1351.65 83.648 1351.55 82.3708C1351.49 81.6726 1349.89 80.0636 1347.84 80.079C1345.79 80.0943 1344.13 81.1453 1344.12 82.4266Z" fill="#FBFBFB"/>
<path d="M1343.71 78.3621C1344.78 78.1136 1346.33 76.6887 1345.96 75.7021C1345.71 75.0223 1344.03 74.294 1342.44 74.7716C1340.85 75.2492 1339.84 76.4401 1340.19 77.4315C1340.54 78.423 1342.09 78.7406 1343.71 78.3621Z" fill="#FBFBFB"/>
<path d="M1332.25 89.5481C1334.14 89.8873 1334.96 89.0893 1335.79 88.3734C1336.57 87.7038 1337.59 87.3204 1338.66 87.2623C1340.55 87.1591 1342.09 85.9692 1342.58 84.3568C1343.07 82.7444 1342.4 81.0297 1340.82 80.1015C1339.93 79.5772 1339.27 78.7951 1338.97 77.869C1338.65 76.8789 1338.4 75.828 1336.56 75.2811C1334.3 74.6062 1331.88 75.9847 1331.24 78.0764C1331.07 78.6657 1331.05 79.2587 1331.16 79.8189C1331.28 80.4255 1331.26 81.0433 1331.08 81.6253C1330.9 82.2057 1330.58 82.7526 1330.13 83.2229C1329.71 83.6572 1329.4 84.1797 1329.22 84.7691C1328.59 86.8605 1329.91 89.1294 1332.25 89.5481Z" fill="#FBFBFB"/>
<path d="M1342.82 86.7453C1342.11 87.8595 1342.97 89.5048 1344.74 90.4203C1346.51 91.3358 1348.8 90.6429 1349.24 90.0604C1350.04 88.9953 1348.65 87.1131 1347.32 86.3856C1345.58 85.4302 1343.54 85.631 1342.82 86.7453Z" fill="#FBFBFB"/>
<path d="M1336.61 89.3473C1335.75 90.053 1335.96 91.5291 1337.07 92.6445C1338.19 93.7597 1340.05 93.8647 1340.65 93.3861C1341.52 92.6916 1340.98 90.7734 1340.19 90.0891C1338.99 89.0458 1337.47 88.6416 1336.61 89.3473Z" fill="#FBFBFB"/>
<path d="M1290.78 103.342C1290.77 104.623 1292.43 105.695 1294.48 105.634C1296.04 105.587 1298.3 104.563 1298.2 103.286C1298.15 102.588 1296.55 100.979 1294.5 100.994C1292.45 101.009 1290.78 102.06 1290.78 103.342Z" fill="#FBFBFB"/>
<path d="M1290.36 99.2781C1291.43 99.0296 1292.98 97.6048 1292.61 96.6181C1292.36 95.9383 1290.68 95.21 1289.09 95.6876C1287.49 96.1653 1286.49 97.3561 1286.84 98.3476C1287.19 99.3391 1288.74 99.6567 1290.36 99.2781Z" fill="#FBFBFB"/>
<path d="M1278.9 110.463C1280.8 110.802 1281.61 110.004 1282.44 109.288C1283.22 108.619 1284.24 108.235 1285.31 108.177C1287.2 108.074 1288.75 106.884 1289.23 105.272C1289.72 103.659 1289.06 101.945 1287.48 101.017C1286.58 100.492 1285.92 99.7102 1285.62 98.7841C1285.3 97.7939 1285.05 96.743 1283.22 96.1961C1280.95 95.5212 1278.53 96.8997 1277.9 98.9915C1277.72 99.5808 1277.7 100.174 1277.81 100.734C1277.94 101.341 1277.91 101.958 1277.74 102.54C1277.56 103.121 1277.23 103.668 1276.78 104.138C1276.37 104.572 1276.05 105.095 1275.87 105.684C1275.24 107.776 1276.56 110.044 1278.9 110.463Z" fill="#FBFBFB"/>
<path d="M1289.48 107.66C1288.76 108.775 1289.62 110.42 1291.39 111.335C1293.16 112.251 1295.45 111.558 1295.89 110.975C1296.69 109.91 1295.3 108.028 1293.98 107.301C1292.23 106.345 1290.19 106.546 1289.48 107.66Z" fill="#FBFBFB"/>
<path d="M1283.27 110.263C1282.4 110.969 1282.61 112.445 1283.72 113.561C1284.84 114.676 1286.7 114.781 1287.3 114.302C1288.18 113.608 1287.63 111.689 1286.84 111.005C1285.65 109.962 1284.13 109.558 1283.27 110.263Z" fill="#FBFBFB"/>
<path d="M429.398 220.863C429.651 222.123 431.497 222.895 433.499 222.487C435.024 222.176 437.037 220.787 436.684 219.548C436.49 218.871 434.594 217.561 432.582 217.924C430.571 218.288 429.145 219.603 429.398 220.863Z" fill="#FBFBFB"/>
<path d="M428.175 216.937C429.172 216.512 430.408 214.849 429.847 213.942C429.462 213.317 427.669 212.885 426.199 213.625C424.73 214.365 423.982 215.706 424.527 216.621C425.073 217.535 426.656 217.585 428.175 216.937Z" fill="#FBFBFB"/>
<path d="M419.161 229.876C421.093 229.888 421.73 228.966 422.407 228.12C423.04 227.33 423.961 226.78 424.999 226.542C426.839 226.119 428.116 224.688 428.271 223.02C428.426 221.353 427.427 219.781 425.687 219.137C424.705 218.773 423.895 218.117 423.416 217.257C422.903 216.338 422.444 215.349 420.532 215.122C418.172 214.843 416.066 216.61 415.865 218.773C415.809 219.382 415.908 219.968 416.133 220.5C416.377 221.075 416.475 221.686 416.423 222.288C416.363 222.888 416.153 223.481 415.806 224.02C415.485 224.517 415.279 225.084 415.222 225.694C415.021 227.857 416.777 229.862 419.161 229.876Z" fill="#FBFBFB"/>
<path d="M428.991 225.328C428.514 226.545 429.687 228.016 431.612 228.615C433.537 229.214 435.648 228.144 435.962 227.498C436.535 226.315 434.793 224.7 433.341 224.211C431.434 223.568 429.469 224.112 428.991 225.328Z" fill="#FBFBFB"/>
<path d="M423.409 228.94C422.704 229.78 423.203 231.196 424.523 232.103C425.843 233.009 427.694 232.796 428.189 232.224C428.906 231.393 427.984 229.601 427.074 229.062C425.688 228.24 424.113 228.1 423.409 228.94Z" fill="#FBFBFB"/>
<path d="M409.181 185.589C409.434 186.849 411.28 187.621 413.282 187.213C414.807 186.902 416.821 185.512 416.467 184.274C416.273 183.597 414.378 182.287 412.366 182.65C410.354 183.013 408.928 184.329 409.181 185.589Z" fill="#FBFBFB"/>
<path d="M407.958 181.664C408.955 181.239 410.191 179.576 409.631 178.669C409.245 178.043 407.452 177.612 405.983 178.352C404.514 179.092 403.765 180.433 404.31 181.347C404.856 182.262 406.439 182.312 407.958 181.664Z" fill="#FBFBFB"/>
<path d="M398.944 194.604C400.876 194.615 401.513 193.693 402.19 192.848C402.823 192.057 403.744 191.508 404.783 191.269C406.622 190.847 407.9 189.415 408.055 187.748C408.21 186.08 407.211 184.508 405.471 183.864C404.488 183.501 403.679 182.845 403.199 181.985C402.687 181.066 402.227 180.076 400.315 179.85C397.956 179.571 395.849 181.337 395.648 183.5C395.592 184.11 395.691 184.696 395.916 185.227C396.16 185.802 396.258 186.414 396.206 187.015C396.146 187.616 395.937 188.209 395.589 188.747C395.269 189.244 395.062 189.812 395.006 190.421C394.804 192.584 396.56 194.59 398.944 194.604Z" fill="#FBFBFB"/>
<path d="M408.773 190.054C408.295 191.27 409.468 192.742 411.393 193.341C413.318 193.94 415.43 192.87 415.743 192.223C416.316 191.04 414.575 189.426 413.122 188.937C411.215 188.294 409.25 188.838 408.773 190.054Z" fill="#FBFBFB"/>
<path d="M403.194 193.667C402.489 194.506 402.988 195.922 404.308 196.829C405.628 197.736 407.479 197.523 407.974 196.951C408.692 196.12 407.769 194.327 406.859 193.788C405.473 192.966 403.898 192.827 403.194 193.667Z" fill="#FBFBFB"/>
<path d="M363.64 166.47C363.893 167.73 365.739 168.502 367.741 168.094C369.266 167.782 371.28 166.393 370.926 165.154C370.732 164.477 368.837 163.168 366.825 163.531C364.813 163.894 363.387 165.21 363.64 166.47Z" fill="#FBFBFB"/>
<path d="M362.417 162.544C363.414 162.119 364.65 160.456 364.09 159.548C363.704 158.923 361.911 158.492 360.442 159.232C358.973 159.971 358.224 161.312 358.769 162.227C359.315 163.142 360.898 163.192 362.417 162.544Z" fill="#FBFBFB"/>
<path d="M353.403 175.485C355.335 175.496 355.972 174.574 356.649 173.729C357.282 172.938 358.203 172.389 359.242 172.15C361.081 171.728 362.359 170.296 362.514 168.629C362.669 166.961 361.67 165.389 359.93 164.745C358.947 164.381 358.138 163.725 357.658 162.866C357.146 161.947 356.686 160.957 354.774 160.731C352.415 160.452 350.308 162.218 350.107 164.381C350.051 164.991 350.15 165.577 350.375 166.108C350.619 166.683 350.717 167.295 350.665 167.896C350.605 168.497 350.396 169.09 350.048 169.628C349.728 170.125 349.521 170.693 349.464 171.302C349.263 173.465 351.019 175.47 353.403 175.485Z" fill="#FBFBFB"/>
<path d="M363.232 170.934C362.754 172.15 363.927 173.622 365.852 174.221C367.777 174.82 369.888 173.75 370.202 173.103C370.775 171.92 369.034 170.306 367.581 169.817C365.674 169.174 363.709 169.718 363.232 170.934Z" fill="#FBFBFB"/>
<path d="M357.651 174.547C356.946 175.386 357.445 176.802 358.765 177.709C360.085 178.616 361.936 178.403 362.431 177.83C363.149 177 362.226 175.207 361.316 174.668C359.93 173.846 358.355 173.707 357.651 174.547Z" fill="#FBFBFB"/>
<path d="M362.988 202.324C363.241 203.584 365.087 204.356 367.089 203.948C368.614 203.637 370.627 202.247 370.274 201.009C370.08 200.332 368.184 199.022 366.172 199.385C364.16 199.748 362.735 201.064 362.988 202.324Z" fill="#FBFBFB"/>
<path d="M361.765 198.401C362.762 197.976 363.998 196.313 363.437 195.406C363.051 194.781 361.259 194.349 359.789 195.089C358.32 195.829 357.572 197.17 358.117 198.085C358.663 198.999 360.245 199.049 361.765 198.401Z" fill="#FBFBFB"/>
<path d="M352.751 211.338C354.683 211.35 355.32 210.428 355.997 209.582C356.629 208.792 357.551 208.242 358.589 208.004C360.428 207.581 361.706 206.15 361.861 204.482C362.016 202.815 361.017 201.243 359.277 200.599C358.295 200.235 357.485 199.579 357.006 198.719C356.493 197.8 356.033 196.811 354.122 196.584C351.762 196.305 349.656 198.072 349.455 200.235C349.399 200.844 349.498 201.43 349.723 201.961C349.967 202.537 350.065 203.148 350.012 203.749C349.953 204.35 349.743 204.943 349.396 205.482C349.075 205.979 348.869 206.546 348.812 207.156C348.611 209.319 350.367 211.324 352.751 211.338Z" fill="#FBFBFB"/>
<path d="M362.579 206.788C362.102 208.005 363.275 209.476 365.2 210.075C367.125 210.674 369.236 209.604 369.55 208.958C370.123 207.775 368.381 206.16 366.929 205.671C365.022 205.028 363.057 205.572 362.579 206.788Z" fill="#FBFBFB"/>
<path d="M357 210.401C356.296 211.241 356.795 212.657 358.115 213.564C359.435 214.47 361.286 214.257 361.781 213.685C362.498 212.854 361.576 211.062 360.666 210.523C359.28 209.701 357.705 209.561 357 210.401Z" fill="#FBFBFB"/>
</svg>
