<svg width="1566" height="2948" viewBox="0 0 1566 2948" fill="none" xmlns="http://www.w3.org/2000/svg">
<path d="M809.912 846.072C825.176 854.428 837.224 875.017 829.257 889.635C821.005 904.776 794.831 906.997 778.237 898.834C761.768 890.734 749.044 869.611 756.77 854.908C764.863 839.505 792.555 836.57 809.912 846.072Z" fill="#43BCFF"/>
<path d="M934.23 753.966C935.868 736.385 949.931 715.841 966.396 715.972C983.451 716.108 995.745 738.366 994.806 757.04C993.875 775.571 979.589 796.973 963.142 797.097C945.909 797.228 932.368 773.957 934.23 753.966Z" fill="#43BCFF"/>
<path d="M848.218 750.799C839.993 732.968 842.146 705.187 858.163 695.901C874.754 686.283 899.081 700.645 908.593 719.127C918.033 737.467 916.143 766.2 900.285 775.721C883.671 785.697 857.571 771.075 848.218 750.799Z" fill="#43BCFF"/>
<path d="M780.855 805.443C768.439 790.289 763.791 763.122 777.26 750.406C791.211 737.236 818.594 745.237 832.433 760.71C846.166 776.065 851.303 804.083 838.048 816.986C824.161 830.504 794.974 822.675 780.855 805.443Z" fill="#43BCFF"/>
<path d="M874.496 807.8C861.844 816.102 856.884 828.654 853.756 836.891C848.285 851.301 851.045 856.335 848.751 882.179C845.725 916.28 839.91 918.894 843.448 933.745C844.422 937.834 849.331 958.445 868.409 968.675C887.96 979.159 913.94 974.209 929.298 961.905C943.163 950.797 940.078 940.341 955.433 930.413C969.598 921.255 976.305 927.515 990.611 920.209C1011.95 909.313 1028.78 879.169 1021.94 854.241C1017.7 838.791 1005.69 830.168 1001.55 827.19C988.198 817.604 981.5 821.557 951.418 812.771C926.675 805.545 924.25 800.838 908.308 800.334C899.39 800.052 886.656 799.82 874.496 807.8Z" fill="#43BCFF"/>
<path d="M1192.77 184.245C1191.47 212.005 1170.36 243.719 1143.8 242.526C1116.29 241.291 1094.77 205.285 1094.86 175.751C1094.94 146.442 1116.34 113.383 1142.86 114.17C1170.63 114.993 1194.24 152.678 1192.77 184.245Z" fill="#43BCFF"/>
<path d="M1412.04 298.132C1438.42 288.166 1477.75 293.955 1489.1 317.676C1500.86 342.247 1477.52 375.484 1450.07 387.219C1422.82 398.865 1382.1 393.357 1370.4 369.84C1358.14 345.201 1382.05 309.465 1412.04 298.132Z" fill="#43BCFF"/>
<path d="M1356.34 172.471C1376.16 148.175 1417.54 131.802 1442.09 148.284C1467.51 165.355 1463.95 210.329 1444.09 236.928C1424.38 263.323 1381.82 280.741 1357.05 264.653C1331.09 247.798 1333.79 200.099 1356.34 172.471Z" fill="#43BCFF"/>
<path d="M1230.72 114.082C1243.77 85.6459 1279.5 59.9438 1307.18 70.365C1335.86 81.159 1343.56 126.064 1331.05 156.764C1318.63 187.229 1282.02 214.23 1254.22 204.248C1225.09 193.789 1215.88 146.417 1230.72 114.082Z" fill="#43BCFF"/>
<path d="M1292.94 250.12C1272.16 237.779 1250.67 239.455 1236.66 240.737C1212.15 242.98 1206.86 250.467 1168.16 265.282C1117.1 284.829 1109.28 278.316 1090.44 293.796C1085.26 298.059 1059.12 319.544 1057.8 354.09C1056.45 389.492 1081.76 423.309 1110.17 436.73C1135.83 448.847 1148.67 437.094 1173.68 452.175C1196.74 466.087 1192.46 480.098 1212.97 495.511C1243.55 518.503 1298.61 521.538 1329.59 494.259C1348.79 477.351 1352.75 454.076 1354.12 446.038C1358.53 420.166 1348.16 413.323 1339.7 363.996C1332.73 323.424 1337.79 316.646 1327.34 293.415C1321.5 280.418 1312.91 261.981 1292.94 250.12Z" fill="#43BCFF"/>
<path d="M204.481 293.587C215.128 294.48 231.456 295.626 247.215 286.018C262.362 276.783 268.846 262.574 273.257 252.559C278.022 241.743 278.5 235.574 279.28 225.504C279.791 218.91 280.432 210.642 282.491 198.3C285.1 182.66 287.97 172.565 290.203 164.711C293.384 153.524 295.273 146.881 293.275 135.23C292.218 129.069 289.158 111.229 274.533 98.3757C250.938 77.6379 209.123 80.3276 185.935 98.1754C178.688 103.754 175.533 109.063 172.458 114.239C168.937 120.165 165.519 125.916 156.181 131.697C146.126 137.922 138.652 138.333 130.948 138.757C124.122 139.133 117.114 139.519 107.971 143.967C86.4118 154.455 67.2605 180.578 68.3605 207.744C69.434 234.253 89.3385 250.575 93.2874 253.813C101.3 260.384 106.687 261.706 116.655 264.153C124.527 266.086 135.255 268.72 152.39 275.194C163.024 279.212 170.342 282.524 176.232 285.189C186.64 289.899 192.585 292.59 204.481 293.587ZM239.723 273.522C226.047 281.856 211.967 281.011 202.787 280.335C192.53 279.581 187.422 277.331 178.479 273.394C173.418 271.166 167.13 268.397 157.986 265.052C143.253 259.663 134.017 257.501 127.24 255.915C118.659 253.906 114.021 252.821 107.159 247.275C103.778 244.542 86.7344 230.765 86.0221 208.134C85.2921 184.943 102.029 162.476 120.717 153.344C128.642 149.47 134.692 149.084 140.585 148.707C147.237 148.282 153.69 147.869 162.416 142.471C170.52 137.458 173.516 132.518 176.602 127.428C179.297 122.983 182.062 118.423 188.361 113.6C208.514 98.1682 244.617 95.5297 264.811 113.048C277.326 123.905 279.822 139.116 280.685 144.369C282.315 154.303 280.632 159.992 277.797 169.572C275.806 176.298 273.248 184.942 270.87 198.321C268.994 208.878 268.374 215.944 267.88 221.58C267.126 230.187 266.663 235.458 262.465 244.735C258.578 253.324 252.867 265.511 239.723 273.522Z" fill="#43BCFF"/>
<path d="M396.099 232.882C387.53 251.165 357.66 255.866 337.599 248.388C314.789 239.884 296.549 212.609 305.81 193.616C314.649 175.487 345.573 170.994 366.297 179.755C387.181 188.584 404.976 213.945 396.099 232.882ZM340.117 242.379C356.735 248.574 381.48 244.681 388.58 229.535C395.933 213.847 381.191 192.837 363.891 185.523C346.723 178.265 321.105 181.988 313.782 197.006C306.11 212.74 321.22 235.335 340.117 242.379Z" fill="#43BCFF"/>
<path d="M360.739 363.217C342.125 376.028 310.656 363.73 295.542 345.21C278.356 324.15 276.202 287.553 295.885 274.446C314.671 261.935 347.039 275.027 362.067 295.16C377.211 315.447 380.018 349.947 360.739 363.217ZM301.419 340.177C313.783 355.328 339.527 365.389 354.754 354.908C370.526 344.053 368.229 315.83 355.84 299.233C343.546 282.763 317.067 272.053 301.699 282.288C285.598 293.011 287.359 322.949 301.419 340.177Z" fill="#43BCFF"/>
<path d="M133.937 292.822C154.111 291.733 170.214 315.939 171.26 337.24C172.449 361.461 154.592 390.542 133.492 391.355C113.353 392.132 97.025 366.896 96.8959 344.398C96.7658 321.729 113.04 293.949 133.937 292.822ZM164.215 337.955C163.366 320.65 150.283 300.984 133.893 301.868C116.916 302.784 103.694 325.353 103.8 343.771C103.905 362.048 117.17 382.552 133.532 381.92C150.674 381.259 165.181 357.633 164.215 337.955Z" fill="#43BCFF"/>
<path d="M258.418 423.909C237.409 432.089 210.209 412.593 200.235 390.851C188.893 366.127 195.79 329.704 217.897 321.486C238.997 313.642 266.866 334.129 276.363 357.433C285.933 380.917 280.178 415.436 258.418 423.909ZM206.717 387.957C214.984 405.978 237.529 422.137 254.942 415.357C272.978 408.335 277.748 379.723 269.816 360.259C261.945 340.943 238.845 323.962 221.356 330.464C203.033 337.275 197.316 367.465 206.717 387.957Z" fill="#43BCFF"/>
<path d="M411.075 638.609C393.383 626.11 381.404 598.94 393.33 581.993C405.682 564.438 438.365 565.404 457.73 577.852C476.947 590.204 489.686 618.132 478.048 635.218C465.854 653.12 431.193 652.822 411.075 638.609Z" fill="#43BCFF"/>
<path d="M244.275 734.88C239.756 756.389 219.451 779.801 199.108 777.304C178.036 774.718 165.989 745.447 169.798 722.488C173.578 699.703 194.28 675.262 214.638 677.441C235.967 679.723 249.413 710.421 244.275 734.88Z" fill="#43BCFF"/>
<path d="M350.191 750.997C357.834 774.215 351.231 808.265 330.106 817.478C308.225 827.019 280.177 805.808 271.035 781.603C261.963 757.583 268.375 722.319 289.336 712.793C311.297 702.813 341.499 724.597 350.191 750.997Z" fill="#43BCFF"/>
<path d="M441.245 692.971C454.451 713.473 456.345 747.729 437.885 761.543C418.765 775.852 386.035 762.073 371.116 740.976C356.311 720.039 353.931 684.662 372.153 670.585C391.243 655.836 426.228 669.658 441.245 692.971Z" fill="#43BCFF"/>
<path d="M325.775 676.779C342.599 668.306 350.513 653.486 355.549 643.743C364.359 626.699 361.66 620.082 368.161 588.447C376.74 546.704 384.301 544.296 382.033 525.43C381.409 520.235 378.26 494.049 356.118 478.692C333.427 462.955 300.596 465.392 279.858 478.429C261.137 490.199 263.469 503.568 243.072 513.668C224.256 522.984 216.849 514.292 198.121 521.297C170.185 531.746 145.097 566.637 150.02 598.435C153.071 618.142 166.698 630.509 171.405 634.781C186.553 648.528 195.397 644.59 231.353 659.721C260.927 672.167 263.259 678.331 282.901 681.216C293.89 682.829 309.605 684.923 325.775 676.779Z" fill="#43BCFF"/>
<path d="M635.48 343.76C634.577 336.703 633.046 325.913 624.593 316.993C616.469 308.419 606.314 306.179 599.179 304.703C591.472 303.109 587.39 303.658 580.725 304.554C576.36 305.141 570.888 305.877 562.566 306.257C552.019 306.739 545.047 306.278 539.622 305.919C531.895 305.408 527.307 305.105 520 308.031C516.136 309.578 504.948 314.057 498.619 325.371C488.408 343.624 495.989 370.473 510.842 383.081C515.485 387.021 519.381 388.335 523.18 389.616C527.529 391.082 531.75 392.505 536.816 397.778C542.27 403.456 543.58 408.265 544.93 413.222C546.127 417.614 547.355 422.122 551.526 427.455C561.36 440.028 581.038 448.855 598.571 444.35C615.68 439.955 623.531 424.721 625.089 421.698C628.249 415.565 628.359 411.874 628.563 405.043C628.723 399.649 628.942 392.297 630.768 380.238C631.901 372.755 633.037 367.528 633.951 363.322C635.567 355.889 636.489 351.643 635.48 343.76ZM617.502 323.613C624.835 331.354 626.248 340.639 627.088 346.71C628.027 353.493 627.275 357.133 625.958 363.504C625.213 367.109 624.288 371.59 623.385 378.009C621.931 388.352 621.811 394.667 621.723 399.3C621.612 405.167 621.552 408.338 618.898 413.578C617.59 416.161 610.997 429.178 596.363 432.798C581.365 436.506 564.405 428.743 555.853 417.849C552.227 413.229 551.131 409.344 550.064 405.56C548.86 401.289 547.692 397.145 542.961 392.217C538.567 387.639 534.933 386.378 531.189 385.078C527.919 383.943 524.565 382.779 520.546 379.351C507.689 368.382 500.938 345.244 509.527 329.655C514.851 319.993 524.406 316.247 527.706 314.953C533.946 312.506 537.884 312.809 544.517 313.319C549.173 313.677 555.158 314.137 564.2 313.82C571.335 313.57 576.021 312.988 579.76 312.523C585.468 311.815 588.965 311.381 595.59 312.821C601.723 314.154 610.454 316.172 617.502 323.613Z" fill="#43BCFF"/>
<path d="M569.22 227.511C582.318 230.541 589.544 249.333 587.472 263.436C585.116 279.472 569.902 295.15 556.245 291.769C543.21 288.542 535.973 269.036 538.787 254.322C541.623 239.494 555.653 224.373 569.22 227.511ZM583.209 262.634C584.925 250.951 578.94 235.384 568.089 232.874C556.85 230.274 545.227 242.801 542.878 255.084C540.547 267.273 546.542 283.433 557.341 286.106C568.654 288.907 581.258 275.919 583.209 262.634Z" fill="#43BCFF"/>
<path d="M659.001 232.36C669.937 242.692 666.318 264.895 656.368 277.317C645.053 291.443 621.527 297.948 610.249 286.961C599.484 276.475 603.495 253.576 614.507 240.985C625.603 228.297 647.673 221.658 659.001 232.36ZM652.272 274.193C660.412 264.031 663.372 245.867 654.426 237.415C645.159 228.66 627.105 234.091 618.027 244.471C609.018 254.771 605.738 273.504 614.544 282.082C623.77 291.07 643.016 285.749 652.272 274.193Z" fill="#43BCFF"/>
<path d="M644.794 389.834C641.273 376.851 654.786 362.992 668.509 359.342C684.112 355.19 705.535 362.761 709.007 376.384C712.321 389.388 698.167 403.537 683.538 406.758C668.797 410.004 648.442 403.282 644.794 389.834ZM669.957 363.828C658.808 366.794 647.829 378.053 650.69 388.601C653.654 399.527 670.191 404.988 682.167 402.351C694.052 399.734 705.551 388.238 702.859 377.674C700.038 366.606 682.633 360.455 669.957 363.828Z" fill="#43BCFF"/>
<path d="M712.782 290.51C721.037 303.047 712.137 323.474 699.372 333C684.857 343.831 660.182 344.42 651.749 331.173C643.7 318.529 653.153 297.528 667.001 288.095C680.956 278.59 704.232 277.524 712.782 290.51ZM696.584 329.183C707.164 321.288 714.541 304.357 707.699 293.965C700.612 283.202 681.32 284.086 669.753 291.964C658.275 299.782 650.441 317.189 657.112 327.669C664.102 338.648 684.554 338.161 696.584 329.183Z" fill="#43BCFF"/>
<path d="M614.714 843.49C613.811 836.434 612.28 825.643 603.827 816.723C595.703 808.15 585.548 805.909 578.413 804.434C570.707 802.84 566.624 803.389 559.959 804.285C555.595 804.872 550.123 805.607 541.8 805.988C531.254 806.47 524.281 806.009 518.856 805.65C511.129 805.139 506.541 804.835 499.234 807.761C495.371 809.308 484.183 813.788 477.854 825.101C467.642 843.355 475.224 870.203 490.077 882.811C494.719 886.752 498.615 888.065 502.414 889.346C506.763 890.812 510.984 892.235 516.05 897.509C521.504 903.187 522.814 907.995 524.165 912.952C525.361 917.344 526.59 921.852 530.76 927.185C540.594 939.759 560.272 948.585 577.806 944.081C594.915 939.686 602.766 924.451 604.323 921.429C607.484 915.296 607.594 911.604 607.797 904.773C607.958 899.379 608.177 892.027 610.002 879.969C611.136 872.485 612.271 867.259 613.185 863.053C614.801 855.619 615.724 851.374 614.714 843.49ZM596.737 823.343C604.07 831.085 605.483 840.37 606.323 846.441C607.262 853.224 606.51 856.863 605.193 863.235C604.448 866.84 603.522 871.32 602.619 877.74C601.165 888.083 601.045 894.398 600.958 899.031C600.847 904.898 600.786 908.069 598.132 913.309C596.824 915.891 590.231 928.909 575.597 932.528C560.6 936.237 543.639 928.473 535.088 917.58C531.461 912.96 530.366 909.075 529.299 905.291C528.094 901.019 526.926 896.876 522.195 891.947C517.801 887.37 514.167 886.109 510.423 884.809C507.153 883.674 503.799 882.509 499.781 879.081C486.924 868.112 480.172 844.975 488.762 829.386C494.085 819.723 503.64 815.977 506.94 814.683C513.18 812.237 517.118 812.539 523.751 813.05C528.408 813.408 534.392 813.868 543.434 813.55C550.569 813.3 555.256 812.718 558.994 812.254C564.702 811.545 568.199 811.111 574.824 812.551C580.958 813.884 589.689 815.903 596.737 823.343Z" fill="#43BCFF"/>
<path d="M548.455 727.241C561.553 730.272 568.778 749.063 566.706 763.166C564.351 779.203 549.137 794.881 535.48 791.5C522.445 788.273 515.207 768.766 518.022 754.052C520.858 739.225 534.888 724.103 548.455 727.241ZM562.444 762.365C564.16 750.682 558.174 735.114 547.324 732.604C536.085 730.004 524.462 742.531 522.112 754.814C519.781 767.004 525.777 783.164 536.575 785.837C547.889 788.638 560.492 775.65 562.444 762.365Z" fill="#43BCFF"/>
<path d="M638.235 732.091C649.171 742.423 645.552 764.625 635.602 777.048C624.287 791.173 600.761 797.678 589.483 786.692C578.719 776.205 582.729 753.307 593.741 740.715C604.838 728.027 626.907 721.389 638.235 732.091ZM631.506 773.923C639.646 763.761 642.607 745.598 633.66 737.146C624.393 728.391 606.339 733.821 597.261 744.201C588.253 754.502 584.972 773.234 593.778 781.813C603.004 790.801 622.25 785.479 631.506 773.923Z" fill="#43BCFF"/>
<path d="M624.029 889.565C620.507 876.582 634.021 862.723 647.743 859.072C663.346 854.921 684.769 862.491 688.241 876.115C691.555 889.118 677.401 903.268 662.773 906.489C648.031 909.734 627.676 903.012 624.029 889.565ZM649.191 863.558C638.043 866.525 627.063 877.784 629.925 888.332C632.888 899.257 649.425 904.718 661.401 902.081C673.286 899.464 684.785 887.969 682.093 877.405C679.272 866.336 661.868 860.186 649.191 863.558Z" fill="#43BCFF"/>
<path d="M692.017 790.24C700.272 802.777 691.371 823.204 678.607 832.73C664.092 843.562 639.417 844.15 630.984 830.903C622.935 818.259 632.387 797.258 646.235 787.826C660.19 778.321 683.466 777.255 692.017 790.24ZM675.819 828.913C686.399 821.018 693.776 804.087 686.934 793.696C679.847 782.932 660.554 783.816 648.988 791.694C637.51 799.513 629.675 816.919 636.346 827.399C643.336 838.379 663.788 837.891 675.819 828.913Z" fill="#43BCFF"/>
<path d="M828.106 277.268C835.021 282.392 839.534 293.293 834.644 299.917C829.579 306.779 816.605 306.1 809.025 300.981C801.503 295.901 796.695 284.693 801.472 278.01C806.477 271.009 820.243 271.441 828.106 277.268Z" fill="#43BCFF"/>
<path d="M895.209 240.534C897.198 232.03 905.474 222.914 913.533 224.089C921.88 225.307 926.401 237.042 924.681 246.128C922.974 255.145 914.53 264.666 906.463 263.617C898.011 262.518 892.947 250.203 895.209 240.534Z" fill="#43BCFF"/>
<path d="M853.303 233.174C850.476 223.883 853.406 210.416 861.88 206.948C870.658 203.355 881.608 212.034 885.021 221.731C888.408 231.354 885.543 245.304 877.131 248.899C868.317 252.666 856.517 243.74 853.303 233.174Z" fill="#43BCFF"/>
<path d="M816.61 255.403C811.549 247.14 811.106 233.515 818.563 228.194C826.287 222.683 839.164 228.451 844.9 236.967C850.592 245.417 851.218 259.491 843.853 264.918C836.136 270.605 822.364 264.799 816.61 255.403Z" fill="#43BCFF"/>
<path d="M862.333 262.877C855.574 266.091 852.296 271.906 850.208 275.731C846.555 282.422 847.567 285.075 844.699 297.582C840.915 314.086 837.889 314.975 838.62 322.489C838.821 324.559 839.836 334.989 848.492 341.289C857.364 347.745 870.427 347.073 878.783 342.081C886.325 337.575 885.52 332.243 893.713 328.415C901.271 324.884 904.135 328.404 911.638 325.79C922.829 321.892 933.109 308.259 931.441 295.583C930.406 287.727 925.105 282.692 923.274 280.953C917.381 275.355 913.832 276.84 899.686 270.505C888.051 265.294 887.18 262.825 879.404 261.501C875.053 260.761 868.829 259.788 862.333 262.877Z" fill="#43BCFF"/>
<path d="M1265.97 821.265C1266.24 831.497 1266.88 847.167 1277.69 861.156C1288.09 874.603 1302.3 879.275 1312.31 882.417C1323.11 885.81 1329.03 885.613 1338.7 885.291C1345.04 885.081 1352.98 884.817 1364.95 885.473C1380.12 886.304 1390.03 887.97 1397.75 889.266C1408.74 891.112 1415.26 892.208 1426.14 889.074C1431.9 887.416 1448.56 882.616 1459.25 867.332C1476.51 842.672 1469.52 803.141 1450.08 782.948C1444 776.637 1438.61 774.194 1433.36 771.813C1427.34 769.087 1421.51 766.441 1415.01 758.16C1408.02 749.244 1406.84 742.171 1405.62 734.88C1404.54 728.419 1403.44 721.788 1398.23 713.552C1385.97 694.132 1359.07 678.658 1333.32 682.577C1308.19 686.401 1294.75 707.08 1292.09 711.182C1286.68 719.507 1285.99 724.776 1284.71 734.526C1283.7 742.226 1282.33 752.72 1277.98 769.719C1275.27 780.27 1272.89 787.589 1270.98 793.479C1267.59 803.887 1265.66 809.832 1265.97 821.265ZM1288.8 852.701C1279.42 840.56 1278.74 827.064 1278.41 818.251C1278.04 808.405 1279.64 803.303 1282.45 794.371C1284.03 789.317 1286.01 783.036 1288.22 773.976C1291.8 759.378 1292.88 750.354 1293.67 743.734C1294.68 735.35 1295.22 730.82 1299.78 723.7C1302.02 720.191 1313.34 702.506 1334.81 699.435C1356.82 696.289 1379.98 709.85 1390.65 726.679C1395.18 733.817 1396.19 739.536 1397.17 745.108C1398.28 751.397 1399.35 757.497 1405.41 765.236C1411.04 772.423 1416.06 774.753 1421.24 777.153C1425.76 779.25 1430.39 781.401 1435.65 786.889C1452.47 804.447 1458.8 838.545 1444.26 859.625C1435.24 872.69 1421.02 876.675 1416.11 878.052C1406.82 880.654 1401.23 879.653 1391.81 877.966C1385.19 876.782 1376.69 875.259 1363.7 874.41C1353.45 873.739 1346.65 873.896 1341.24 874.021C1332.96 874.213 1327.89 874.33 1318.62 871.313C1310.03 868.519 1297.82 864.37 1288.8 852.701Z" fill="#43BCFF"/>
<path d="M1344.02 997.314C1325.71 991.087 1318.07 963.141 1323.07 943.25C1328.76 920.63 1352.8 900.379 1371.87 907.189C1390.06 913.69 1397.61 942.66 1391.46 963.32C1385.26 984.138 1362.99 1003.76 1344.02 997.314ZM1329.06 945.012C1324.92 961.49 1331.24 984.641 1346.41 989.8C1362.13 995.143 1380.58 978.885 1385.71 961.638C1390.81 944.524 1384.56 920.524 1369.48 915.139C1353.69 909.497 1333.77 926.274 1329.06 945.012Z" fill="#43BCFF"/>
<path d="M1216.18 977.423C1202.01 961.054 1210.39 929.789 1226.43 913.439C1244.67 894.848 1279.29 888.929 1293.85 906.285C1307.75 922.85 1298.7 955.055 1281.12 971.493C1263.4 988.058 1230.85 994.378 1216.18 977.423ZM1231.84 918.503C1218.72 931.878 1211.86 957.454 1223.45 970.846C1235.46 984.716 1262.09 979.546 1276.58 965.995C1290.97 952.547 1298.36 926.202 1286.99 912.65C1275.08 898.452 1246.76 903.294 1231.84 918.503Z" fill="#43BCFF"/>
<path d="M1259.23 754.021C1262.4 773.117 1241.05 791.008 1220.88 794.256C1197.94 797.949 1168.37 784.02 1165.36 764.015C1162.49 744.921 1184.8 726.705 1206.2 724.204C1227.78 721.683 1255.95 734.243 1259.23 754.021ZM1219.46 787.624C1235.84 784.986 1253.19 770.45 1250.61 754.936C1247.95 738.867 1225.06 728.664 1207.53 730.711C1190.14 732.743 1172.02 747.542 1174.35 763.055C1176.79 779.308 1200.82 790.624 1219.46 787.624Z" fill="#43BCFF"/>
<path d="M1147.57 886.412C1137.56 867.273 1153.25 839.312 1172.9 827.516C1195.24 814.102 1230.65 816.819 1240.82 837C1250.52 856.263 1233.95 884.966 1212.77 896.472C1191.42 908.067 1157.94 906.237 1147.57 886.412ZM1176.34 833.382C1160.05 843.159 1147.05 866.335 1155.35 882.198C1163.94 898.63 1191.69 900.147 1209.38 890.537C1226.95 880.999 1240.67 857.209 1232.63 841.243C1224.21 824.516 1194.86 822.264 1176.34 833.382Z" fill="#43BCFF"/>
<path d="M193.119 964.074C194.991 957.077 202.128 950.173 208.826 951.952C215.763 953.795 219.244 964.16 217.581 971.676C215.931 979.135 208.644 986.365 201.936 984.692C194.909 982.939 190.989 972.031 193.119 964.074Z" fill="#43BCFF"/>
<path d="M143.604 922.891C136.333 923.964 126.638 920.305 125.066 913.633C123.437 906.723 131.225 899.555 138.869 898.092C146.455 896.64 156.519 900.304 158.193 906.943C159.946 913.899 151.872 921.671 143.604 922.891Z" fill="#43BCFF"/>
<path d="M150.811 957.987C144.412 963.073 132.966 964.944 127.63 959.383C122.103 953.623 125.51 942.368 132.045 936.698C138.53 931.071 150.336 928.999 155.751 934.472C161.425 940.206 158.087 952.204 150.811 957.987Z" fill="#43BCFF"/>
<path d="M179.558 979.832C174.655 986.349 164.128 990.909 157.656 986.718C150.954 982.376 151.487 970.513 156.378 963.389C161.232 956.321 172.055 951.478 178.581 955.565C185.419 959.846 185.133 972.422 179.558 979.832Z" fill="#43BCFF"/>
<path d="M171.27 941.733C175.876 946.03 181.441 946.797 185.081 947.249C191.448 948.04 193.211 946.427 203.889 944.804C217.977 942.662 219.608 944.755 225.264 941.859C226.822 941.062 234.672 937.043 236.927 928.318C239.237 919.378 234.671 909.36 228.18 904.364C222.32 899.853 218.395 902.132 212.866 896.903C207.764 892.078 209.634 888.748 205.268 883.684C198.755 876.13 184.905 872.299 175.499 877.525C169.67 880.764 167.368 886.471 166.573 888.442C164.014 894.786 166.273 897.104 165.689 910.136C165.208 920.855 163.545 922.3 164.914 928.797C165.68 932.431 166.843 937.603 171.27 941.733Z" fill="#43BCFF"/>
<path d="M1122.95 573.745C1116.16 572.209 1105.74 569.997 1094.71 574.77C1084.11 579.358 1078.65 587.934 1074.9 593.992C1070.85 600.536 1069.99 604.47 1068.58 610.892C1067.65 615.098 1066.5 620.37 1064.05 628.142C1060.96 637.99 1058.2 644.239 1056.05 649.102C1052.99 656.028 1051.18 660.14 1051.41 667.832C1051.54 671.899 1051.9 683.677 1060.17 693.283C1073.51 708.782 1100.71 710.82 1117.27 701.404C1122.45 698.462 1124.96 695.324 1127.41 692.264C1130.22 688.761 1132.94 685.361 1139.48 682.476C1146.53 679.37 1151.38 679.779 1156.39 680.2C1160.82 680.574 1165.37 680.957 1171.67 678.914C1186.52 674.097 1201.22 658.983 1202.96 641.369C1204.66 624.181 1193.3 611.862 1191.05 609.419C1186.47 604.46 1183.12 603.121 1176.91 600.644C1172.01 598.688 1165.33 596.022 1154.87 590.303C1148.38 586.753 1143.96 583.957 1140.4 581.708C1134.11 577.732 1130.52 575.461 1122.95 573.745ZM1098.41 583.502C1107.98 579.363 1116.98 581.178 1122.84 582.441C1129.39 583.853 1132.48 585.764 1137.89 589.11C1140.95 591.003 1144.75 593.355 1150.35 596.336C1159.36 601.14 1165.12 603.367 1169.35 605.001C1174.7 607.07 1177.59 608.188 1181.51 612.383C1183.45 614.45 1193.19 624.869 1191.61 639.524C1189.99 654.542 1177.17 667.517 1164.3 671.719C1158.84 673.502 1154.9 673.205 1151.07 672.916C1146.74 672.591 1142.55 672.274 1136.43 674.967C1130.76 677.468 1128.38 680.383 1125.93 683.386C1123.79 686.009 1121.6 688.7 1117.1 691.241C1102.72 699.372 1079.2 697.817 1067.76 684.701C1060.67 676.572 1060.44 666.54 1060.35 663.075C1060.2 656.523 1061.8 653.008 1064.49 647.087C1066.38 642.93 1068.81 637.588 1071.55 629.177C1073.71 622.539 1074.75 618.039 1075.57 614.45C1076.84 608.97 1077.61 605.613 1081.15 600.01C1084.44 594.824 1089.22 587.481 1098.41 583.502Z" fill="#43BCFF"/>
<path d="M993.956 595.63C1001.13 584.615 1020.81 584.279 1033.07 590.91C1047.01 598.45 1056.31 617.68 1048.63 629.09C1041.29 639.981 1020.95 640.088 1008.38 632.57C995.711 624.995 986.525 607.038 993.956 595.63ZM1030.91 594.557C1020.75 589.064 1004.45 589.342 998.503 598.466C992.347 607.917 999.956 622.793 1010.45 629.069C1020.86 635.297 1037.72 635.208 1043.79 626.186C1050.16 616.734 1042.45 600.803 1030.91 594.557Z" fill="#43BCFF"/>
<path d="M1028.51 514.789C1041.67 508.208 1060.85 518.976 1068.92 532.28C1078.1 547.408 1076.19 571.197 1062.32 577.872C1049.08 584.243 1029.39 572.883 1021.52 558.547C1013.58 544.101 1014.89 521.605 1028.51 514.789ZM1064.68 534.994C1058.08 524.111 1042.39 515.302 1031.62 520.686C1020.48 526.262 1019.41 544.665 1025.9 556.483C1032.34 568.21 1048.45 577.504 1059.28 572.292C1070.63 566.831 1072.19 547.37 1064.68 534.994Z" fill="#43BCFF"/>
<path d="M1168.39 580.634C1155.28 579.516 1147.08 562.458 1148.33 548.63C1149.75 532.907 1163.88 515.769 1177.56 517.147C1190.61 518.463 1198.87 536.207 1196.92 550.723C1194.96 565.351 1181.96 581.792 1168.39 580.634ZM1152.94 548.804C1151.92 560.038 1158.58 573.897 1169.23 574.806C1180.26 575.747 1190.82 562.389 1192.41 550.505C1193.99 538.711 1187.29 524.296 1176.68 523.227C1165.57 522.107 1154.09 536.03 1152.94 548.804Z" fill="#43BCFF"/>
<path d="M1099.95 484.89C1114.23 481.512 1130.01 496.535 1134.48 511.453C1139.56 528.416 1131.83 551.276 1116.84 554.581C1102.52 557.734 1086.4 542.012 1082.38 526.13C1078.33 510.126 1085.16 488.39 1099.95 484.89ZM1130.04 512.734C1126.34 500.369 1113.26 487.917 1101.42 490.718C1089.16 493.618 1083.5 511.634 1086.86 524.899C1090.19 538.063 1103.55 551.094 1115.42 548.48C1127.84 545.742 1134.25 526.793 1130.04 512.734Z" fill="#43BCFF"/>
<path d="M763.067 505.602C754.805 514.565 738.773 519.272 730.183 511.385C721.286 503.215 724.203 485.048 732.558 475.148C740.849 465.323 757.359 460.246 766.047 467.984C775.149 476.09 772.461 495.41 763.067 505.602Z" fill="#43BCFF"/>
<path d="M804.653 605.683C816.326 609.769 827.913 622.802 825.04 633.973C822.064 645.543 804.854 650.136 792.319 646.34C779.88 642.573 767.748 629.243 770.445 618.042C773.27 606.306 791.378 601.036 804.653 605.683Z" fill="#43BCFF"/>
<path d="M821.352 547.751C834.863 545.175 853.383 551.336 856.987 563.795C860.72 576.699 846.843 590.807 832.671 594.147C818.608 597.462 799.397 591.319 795.606 578.929C791.635 565.949 805.988 550.68 821.352 547.751Z" fill="#43BCFF"/>
<path d="M795.599 492.721C807.999 486.843 827.252 488.278 833.618 499.584C840.211 511.294 830.142 528.555 817.284 535.345C804.524 542.084 784.61 540.838 778.081 529.646C771.24 517.92 781.497 499.404 795.599 492.721Z" fill="#43BCFF"/>
<path d="M778.162 555.977C774.658 545.973 766.964 540.479 761.894 536.96C753.025 530.804 749.136 531.829 731.956 525.899C709.287 518.076 708.494 513.681 697.801 513.574C694.857 513.545 680.016 513.397 669.836 524.635C659.403 536.152 658.375 554.649 664.141 567.17C669.347 578.473 676.977 578.144 681.128 590.261C684.958 601.438 679.569 604.939 682.116 615.898C685.914 632.247 703.558 648.785 721.66 648.351C732.879 648.082 740.771 641.378 743.497 639.062C752.27 631.609 750.716 626.388 761.775 607.425C770.871 591.828 774.481 590.975 777.519 580.224C779.219 574.21 781.53 565.593 778.162 555.977Z" fill="#43BCFF"/>
<path d="M755.424 1147.47C740.16 1139.11 728.112 1118.53 736.079 1103.91C744.331 1088.77 770.504 1086.55 787.099 1094.71C803.568 1102.81 816.292 1123.93 808.566 1138.63C800.473 1154.04 772.781 1156.97 755.424 1147.47Z" fill="#43BCFF"/>
<path d="M631.106 1239.57C629.468 1257.16 615.405 1277.7 598.94 1277.57C581.885 1277.43 569.591 1255.17 570.529 1236.5C571.461 1217.97 585.747 1196.57 602.194 1196.44C619.427 1196.31 632.968 1219.58 631.106 1239.57Z" fill="#43BCFF"/>
<path d="M717.118 1242.74C725.343 1260.57 723.19 1288.35 707.173 1297.64C690.582 1307.26 666.255 1292.9 656.743 1274.41C647.303 1256.07 649.193 1227.34 665.051 1217.82C681.665 1207.84 707.765 1222.47 717.118 1242.74Z" fill="#43BCFF"/>
<path d="M784.481 1188.1C796.897 1203.25 801.545 1230.42 788.076 1243.13C774.125 1256.3 746.741 1248.3 732.903 1232.83C719.17 1217.48 714.033 1189.46 727.288 1176.56C741.174 1163.04 770.362 1170.87 784.481 1188.1Z" fill="#43BCFF"/>
<path d="M690.84 1185.74C703.492 1177.44 708.452 1164.89 711.58 1156.65C717.051 1142.24 714.291 1137.21 716.585 1111.36C719.611 1077.26 725.425 1074.65 721.888 1059.8C720.914 1055.71 716.005 1035.1 696.927 1024.87C677.376 1014.38 651.396 1019.33 636.038 1031.64C622.173 1042.75 625.258 1053.2 609.903 1063.13C595.738 1072.29 589.031 1066.03 574.725 1073.33C553.385 1084.23 536.555 1114.37 543.394 1139.3C547.633 1154.75 559.642 1163.37 563.789 1166.35C577.138 1175.94 583.836 1171.99 613.918 1180.77C638.661 1188 641.086 1192.7 657.027 1193.21C665.946 1193.49 678.68 1193.72 690.84 1185.74Z" fill="#43BCFF"/>
<path d="M372.564 1809.3C373.862 1781.54 394.969 1749.82 421.529 1751.02C449.04 1752.25 470.563 1788.26 470.475 1817.79C470.388 1847.1 448.987 1880.16 422.475 1879.37C394.699 1878.55 371.087 1840.87 372.564 1809.3Z" fill="#43BCFF"/>
<path d="M153.291 1695.41C126.913 1705.38 87.5775 1699.59 76.2301 1675.87C64.4765 1651.3 87.8075 1618.06 115.264 1606.32C142.511 1594.68 183.233 1600.19 194.935 1623.7C207.195 1648.34 183.285 1684.08 153.291 1695.41Z" fill="#43BCFF"/>
<path d="M208.996 1821.07C189.169 1845.37 147.792 1861.74 123.244 1845.26C97.817 1828.19 101.386 1783.21 121.245 1756.62C140.953 1730.22 183.512 1712.8 208.286 1728.89C234.242 1745.74 231.542 1793.44 208.996 1821.07Z" fill="#43BCFF"/>
<path d="M334.614 1879.46C321.565 1907.9 285.833 1933.6 258.149 1923.18C229.475 1912.38 221.773 1867.48 234.283 1836.78C246.699 1806.31 283.308 1779.31 311.112 1789.3C340.241 1799.75 349.453 1847.13 334.614 1879.46Z" fill="#43BCFF"/>
<path d="M272.391 1743.42C293.17 1755.76 314.659 1754.09 328.671 1752.8C353.184 1750.56 358.476 1743.07 397.171 1728.26C448.231 1708.71 456.056 1715.23 474.89 1699.74C480.076 1695.48 506.216 1674 507.532 1639.45C508.88 1604.05 483.575 1570.23 455.158 1556.81C429.504 1544.69 416.659 1556.45 391.654 1541.37C368.587 1527.45 372.872 1513.44 352.366 1498.03C321.777 1475.04 266.727 1472 235.744 1499.28C216.541 1516.19 212.578 1539.46 211.21 1547.5C206.805 1573.38 217.17 1580.22 225.636 1629.54C232.6 1670.12 227.545 1676.9 237.989 1700.13C243.832 1713.12 252.42 1731.56 272.391 1743.42Z" fill="#43BCFF"/>
<path d="M1360.85 1699.96C1350.2 1699.06 1333.88 1697.92 1318.12 1707.53C1302.97 1716.76 1296.49 1730.97 1292.07 1740.98C1287.31 1751.8 1286.83 1757.97 1286.05 1768.04C1285.54 1774.63 1284.9 1782.9 1282.84 1795.24C1280.23 1810.88 1277.36 1820.98 1275.13 1828.83C1271.95 1840.02 1270.06 1846.66 1272.06 1858.31C1273.11 1864.47 1276.17 1882.31 1290.8 1895.17C1314.39 1915.91 1356.21 1913.22 1379.4 1895.37C1386.64 1889.79 1389.8 1884.48 1392.87 1879.3C1396.4 1873.38 1399.81 1867.63 1409.15 1861.85C1419.21 1855.62 1426.68 1855.21 1434.38 1854.79C1441.21 1854.41 1448.22 1854.02 1457.36 1849.58C1478.92 1839.09 1498.07 1812.97 1496.97 1785.8C1495.9 1759.29 1475.99 1742.97 1472.04 1739.73C1464.03 1733.16 1458.64 1731.84 1448.68 1729.39C1440.81 1727.46 1430.08 1724.82 1412.94 1718.35C1402.31 1714.33 1394.99 1711.02 1389.1 1708.35C1378.69 1703.64 1372.75 1700.95 1360.85 1699.96ZM1325.61 1720.02C1339.28 1711.69 1353.37 1712.53 1362.55 1713.21C1372.8 1713.96 1377.91 1716.21 1386.85 1720.15C1391.91 1722.38 1398.2 1725.15 1407.35 1728.49C1422.08 1733.88 1431.32 1736.04 1438.09 1737.63C1446.67 1739.64 1451.31 1740.72 1458.17 1746.27C1461.55 1749 1478.6 1762.78 1479.31 1785.41C1480.04 1808.6 1463.3 1831.07 1444.62 1840.2C1436.69 1844.07 1430.64 1844.46 1424.75 1844.84C1418.1 1845.26 1411.64 1845.67 1402.92 1851.07C1394.81 1856.08 1391.82 1861.02 1388.73 1866.11C1386.03 1870.56 1383.27 1875.12 1376.97 1879.94C1356.82 1895.37 1320.71 1898.01 1300.52 1880.5C1288.01 1869.64 1285.51 1854.43 1284.65 1849.17C1283.02 1839.24 1284.7 1833.55 1287.54 1823.97C1289.53 1817.25 1292.08 1808.6 1294.46 1795.22C1296.34 1784.66 1296.96 1777.6 1297.45 1771.96C1298.21 1763.36 1298.67 1758.08 1302.87 1748.81C1306.75 1740.22 1312.46 1728.03 1325.61 1720.02Z" fill="#43BCFF"/>
<path d="M1169.24 1760.66C1177.81 1742.38 1207.68 1737.68 1227.74 1745.16C1250.55 1753.66 1268.79 1780.93 1259.53 1799.93C1250.69 1818.06 1219.76 1822.55 1199.04 1813.79C1178.16 1804.96 1160.36 1779.6 1169.24 1760.66ZM1225.22 1751.16C1208.6 1744.97 1183.86 1748.86 1176.76 1764.01C1169.4 1779.7 1184.14 1800.71 1201.45 1808.02C1218.61 1815.28 1244.23 1811.56 1251.55 1796.54C1259.23 1780.8 1244.12 1758.21 1225.22 1751.16Z" fill="#43BCFF"/>
<path d="M1204.6 1630.33C1223.21 1617.51 1254.68 1629.81 1269.79 1648.33C1286.98 1669.39 1289.13 1705.99 1269.45 1719.1C1250.67 1731.61 1218.3 1718.52 1203.27 1698.38C1188.13 1678.1 1185.32 1643.6 1204.6 1630.33ZM1263.92 1653.37C1251.55 1638.21 1225.81 1628.15 1210.58 1638.63C1194.81 1649.49 1197.11 1677.71 1209.5 1694.31C1221.79 1710.78 1248.27 1721.49 1263.64 1711.26C1279.74 1700.53 1277.98 1670.59 1263.92 1653.37Z" fill="#43BCFF"/>
<path d="M1431.4 1700.72C1411.22 1701.81 1395.12 1677.6 1394.08 1656.3C1392.89 1632.08 1410.74 1603 1431.84 1602.19C1451.98 1601.41 1468.31 1626.65 1468.44 1649.14C1468.57 1671.81 1452.3 1699.59 1431.4 1700.72ZM1401.12 1655.59C1401.97 1672.89 1415.05 1692.56 1431.44 1691.67C1448.42 1690.76 1461.64 1668.19 1461.54 1649.77C1461.43 1631.49 1448.17 1610.99 1431.8 1611.62C1414.66 1612.28 1400.15 1635.91 1401.12 1655.59Z" fill="#43BCFF"/>
<path d="M1306.92 1569.63C1327.93 1561.45 1355.13 1580.95 1365.1 1602.69C1376.44 1627.42 1369.55 1663.84 1347.44 1672.06C1326.34 1679.9 1298.47 1659.41 1288.97 1636.11C1279.4 1612.63 1285.16 1578.11 1306.92 1569.63ZM1358.62 1605.59C1350.35 1587.56 1327.81 1571.41 1310.39 1578.19C1292.36 1585.21 1287.59 1613.82 1295.52 1633.28C1303.39 1652.6 1326.49 1669.58 1343.98 1663.08C1362.3 1656.27 1368.02 1626.08 1358.62 1605.59Z" fill="#43BCFF"/>
<path d="M1154.26 1354.93C1171.95 1367.43 1183.93 1394.6 1172 1411.55C1159.65 1429.1 1126.97 1428.14 1107.6 1415.69C1088.39 1403.34 1075.65 1375.41 1087.28 1358.32C1099.48 1340.42 1134.14 1340.72 1154.26 1354.93Z" fill="#43BCFF"/>
<path d="M1321.06 1258.66C1325.58 1237.15 1345.88 1213.74 1366.22 1216.24C1387.3 1218.83 1399.34 1248.1 1395.53 1271.06C1391.75 1293.84 1371.05 1318.28 1350.69 1316.1C1329.36 1313.82 1315.92 1283.12 1321.06 1258.66Z" fill="#43BCFF"/>
<path d="M1215.14 1242.55C1207.5 1219.33 1214.1 1185.28 1235.23 1176.07C1257.11 1166.52 1285.16 1187.74 1294.3 1211.94C1303.37 1235.96 1296.96 1271.22 1276 1280.75C1254.03 1290.73 1223.83 1268.95 1215.14 1242.55Z" fill="#43BCFF"/>
<path d="M1124.09 1300.57C1110.88 1280.07 1108.99 1245.81 1127.45 1232C1146.57 1217.69 1179.3 1231.47 1194.22 1252.57C1209.02 1273.5 1211.4 1308.88 1193.18 1322.96C1174.09 1337.71 1139.1 1323.88 1124.09 1300.57Z" fill="#43BCFF"/>
<path d="M1239.56 1316.76C1222.73 1325.24 1214.82 1340.06 1209.78 1349.8C1200.97 1366.84 1203.67 1373.46 1197.17 1405.1C1188.59 1446.84 1181.03 1449.25 1183.3 1468.11C1183.92 1473.31 1187.07 1499.49 1209.21 1514.85C1231.9 1530.59 1264.74 1528.15 1285.47 1515.11C1304.2 1503.34 1301.86 1489.97 1322.26 1479.88C1341.08 1470.56 1348.48 1479.25 1367.21 1472.25C1395.15 1461.8 1420.24 1426.91 1415.31 1395.11C1412.26 1375.4 1398.63 1363.03 1393.93 1358.76C1378.78 1345.02 1369.93 1348.95 1333.98 1333.82C1304.41 1321.38 1302.07 1315.21 1282.43 1312.33C1271.44 1310.71 1255.73 1308.62 1239.56 1316.76Z" fill="#43BCFF"/>
<path d="M929.856 1649.78C930.759 1656.84 932.29 1667.63 940.743 1676.55C948.867 1685.12 959.022 1687.36 966.157 1688.84C973.864 1690.43 977.946 1689.88 984.611 1688.99C988.976 1688.4 994.448 1687.66 1002.77 1687.28C1013.32 1686.8 1020.29 1687.26 1025.71 1687.62C1033.44 1688.13 1038.03 1688.44 1045.34 1685.51C1049.2 1683.96 1060.39 1679.48 1066.72 1668.17C1076.93 1649.92 1069.35 1623.07 1054.49 1610.46C1049.85 1606.52 1045.95 1605.21 1042.16 1603.93C1037.81 1602.46 1033.59 1601.04 1028.52 1595.76C1023.07 1590.08 1021.76 1585.28 1020.41 1580.32C1019.21 1575.93 1017.98 1571.42 1013.81 1566.09C1003.98 1553.51 984.298 1544.69 966.765 1549.19C949.656 1553.59 941.805 1568.82 940.247 1571.84C937.086 1577.98 936.977 1581.67 936.773 1588.5C936.613 1593.89 936.394 1601.24 934.568 1613.3C933.435 1620.79 932.299 1626.01 931.385 1630.22C929.769 1637.65 928.847 1641.9 929.856 1649.78ZM947.834 1669.93C940.501 1662.19 939.088 1652.9 938.247 1646.83C937.309 1640.05 938.061 1636.41 939.377 1630.04C940.123 1626.43 941.048 1621.95 941.951 1615.53C943.405 1605.19 943.525 1598.87 943.613 1594.24C943.724 1588.37 943.784 1585.2 946.438 1579.96C947.746 1577.38 954.339 1564.36 968.973 1560.74C983.97 1557.03 1000.93 1564.8 1009.48 1575.69C1013.11 1580.31 1014.2 1584.2 1015.27 1587.98C1016.48 1592.25 1017.64 1596.4 1022.38 1601.32C1026.77 1605.9 1030.4 1607.16 1034.15 1608.46C1037.42 1609.6 1040.77 1610.76 1044.79 1614.19C1057.65 1625.16 1064.4 1648.3 1055.81 1663.89C1050.49 1673.55 1040.93 1677.29 1037.63 1678.59C1031.39 1681.03 1027.45 1680.73 1020.82 1680.22C1016.16 1679.86 1010.18 1679.4 1001.14 1679.72C994.001 1679.97 989.315 1680.55 985.576 1681.02C979.868 1681.73 976.371 1682.16 969.746 1680.72C963.613 1679.39 954.882 1677.37 947.834 1669.93Z" fill="#43BCFF"/>
<path d="M996.116 1766.03C983.018 1763 975.792 1744.21 977.864 1730.11C980.22 1714.07 995.434 1698.39 1009.09 1701.77C1022.13 1705 1029.36 1724.51 1026.55 1739.22C1023.71 1754.05 1009.68 1769.17 996.116 1766.03ZM982.127 1730.91C980.41 1742.59 986.396 1758.16 997.247 1760.67C1008.49 1763.27 1020.11 1750.74 1022.46 1738.46C1024.79 1726.27 1018.79 1710.11 1008 1707.44C996.682 1704.64 984.078 1717.62 982.127 1730.91Z" fill="#43BCFF"/>
<path d="M906.335 1761.18C895.399 1750.85 899.018 1728.65 908.968 1716.23C920.283 1702.1 943.809 1695.6 955.087 1706.58C965.851 1717.07 961.841 1739.97 950.829 1752.56C939.732 1765.25 917.663 1771.88 906.335 1761.18ZM913.064 1719.35C904.924 1729.51 901.964 1747.68 910.91 1756.13C920.177 1764.88 938.231 1759.45 947.309 1749.07C956.318 1738.77 959.598 1720.04 950.792 1711.46C941.566 1702.47 922.32 1707.79 913.064 1719.35Z" fill="#43BCFF"/>
<path d="M920.542 1603.71C924.063 1616.69 910.549 1630.55 896.827 1634.2C881.224 1638.35 859.801 1630.78 856.329 1617.16C853.015 1604.16 867.169 1590.01 881.798 1586.78C896.539 1583.54 916.894 1590.26 920.542 1603.71ZM895.379 1629.71C906.528 1626.75 917.507 1615.49 914.646 1604.94C911.682 1594.02 895.145 1588.56 883.169 1591.19C871.284 1593.81 859.785 1605.3 862.477 1615.87C865.298 1626.94 882.703 1633.09 895.379 1629.71Z" fill="#43BCFF"/>
<path d="M852.554 1703.03C844.299 1690.5 853.199 1670.07 865.964 1660.54C880.479 1649.71 905.154 1649.12 913.587 1662.37C921.636 1675.01 912.183 1696.02 898.335 1705.45C884.38 1714.95 861.104 1716.02 852.554 1703.03ZM868.752 1664.36C858.171 1672.26 850.795 1689.19 857.637 1699.58C864.724 1710.34 884.016 1709.46 895.583 1701.58C907.061 1693.76 914.895 1676.35 908.224 1665.87C901.234 1654.89 880.782 1655.38 868.752 1664.36Z" fill="#43BCFF"/>
<path d="M950.618 1150.05C951.521 1157.11 953.052 1167.9 961.505 1176.82C969.629 1185.4 979.784 1187.64 986.919 1189.11C994.625 1190.71 998.708 1190.16 1005.37 1189.26C1009.74 1188.67 1015.21 1187.94 1023.53 1187.56C1034.08 1187.08 1041.05 1187.54 1046.48 1187.9C1054.2 1188.41 1058.79 1188.71 1066.1 1185.78C1069.96 1184.24 1081.15 1179.76 1087.48 1168.44C1097.69 1150.19 1090.11 1123.34 1075.26 1110.73C1070.61 1106.79 1066.72 1105.48 1062.92 1104.2C1058.57 1102.73 1054.35 1101.31 1049.28 1096.04C1043.83 1090.36 1042.52 1085.55 1041.17 1080.59C1039.97 1076.2 1038.74 1071.69 1034.57 1066.36C1024.74 1053.79 1005.06 1044.96 987.526 1049.46C970.417 1053.86 962.566 1069.09 961.009 1072.12C957.848 1078.25 957.738 1081.94 957.535 1088.77C957.374 1094.17 957.155 1101.52 955.33 1113.58C954.197 1121.06 953.061 1126.29 952.147 1130.49C950.531 1137.93 949.608 1142.17 950.618 1150.05ZM968.595 1170.2C961.262 1162.46 959.849 1153.17 959.009 1147.1C958.07 1140.32 958.822 1136.68 960.139 1130.31C960.884 1126.71 961.81 1122.22 962.713 1115.81C964.167 1105.46 964.287 1099.15 964.374 1094.51C964.486 1088.65 964.546 1085.48 967.2 1080.24C968.508 1077.65 975.101 1064.64 989.735 1061.02C1004.73 1057.31 1021.69 1065.07 1030.24 1075.97C1033.87 1080.59 1034.97 1084.47 1036.03 1088.25C1037.24 1092.53 1038.41 1096.67 1043.14 1101.6C1047.53 1106.18 1051.16 1107.44 1054.91 1108.74C1058.18 1109.87 1061.53 1111.04 1065.55 1114.46C1078.41 1125.43 1085.16 1148.57 1076.57 1164.16C1071.25 1173.82 1061.69 1177.57 1058.39 1178.86C1052.15 1181.31 1048.21 1181.01 1041.58 1180.5C1036.92 1180.14 1030.94 1179.68 1021.9 1179.99C1014.76 1180.24 1010.08 1180.83 1006.34 1181.29C1000.63 1182 997.133 1182.43 990.508 1180.99C984.374 1179.66 975.643 1177.64 968.595 1170.2Z" fill="#43BCFF"/>
<path d="M1016.88 1266.3C1003.78 1263.27 996.554 1244.48 998.626 1230.38C1000.98 1214.34 1016.2 1198.66 1029.85 1202.05C1042.89 1205.27 1050.12 1224.78 1047.31 1239.49C1044.47 1254.32 1030.44 1269.44 1016.88 1266.3ZM1002.89 1231.18C1001.17 1242.86 1007.16 1258.43 1018.01 1260.94C1029.25 1263.54 1040.87 1251.01 1043.22 1238.73C1045.55 1226.54 1039.56 1210.38 1028.76 1207.71C1017.44 1204.91 1004.84 1217.9 1002.89 1231.18Z" fill="#43BCFF"/>
<path d="M927.093 1261.45C916.157 1251.12 919.776 1228.92 929.726 1216.5C941.041 1202.37 964.567 1195.87 975.845 1206.85C986.609 1217.34 982.599 1240.24 971.587 1252.83C960.49 1265.52 938.421 1272.16 927.093 1261.45ZM933.822 1219.62C925.682 1229.78 922.721 1247.95 931.668 1256.4C940.935 1265.15 958.989 1259.72 968.067 1249.34C977.075 1239.04 980.356 1220.31 971.55 1211.73C962.324 1202.74 943.078 1208.07 933.822 1219.62Z" fill="#43BCFF"/>
<path d="M941.299 1103.98C944.821 1116.96 931.307 1130.82 917.585 1134.47C901.982 1138.62 880.559 1131.05 877.087 1117.43C873.773 1104.43 887.927 1090.28 902.556 1087.06C917.297 1083.81 937.652 1090.53 941.299 1103.98ZM916.137 1129.99C927.285 1127.02 938.265 1115.76 935.403 1105.21C932.44 1094.29 915.903 1088.83 903.927 1091.46C892.042 1094.08 880.543 1105.58 883.235 1116.14C886.056 1127.21 903.46 1133.36 916.137 1129.99Z" fill="#43BCFF"/>
<path d="M873.315 1203.3C865.06 1190.77 873.961 1170.34 886.725 1160.81C901.24 1149.98 925.915 1149.39 934.348 1162.64C942.397 1175.29 932.945 1196.29 919.097 1205.72C905.142 1215.22 881.866 1216.29 873.315 1203.3ZM889.513 1164.63C878.933 1172.53 871.556 1189.46 878.398 1199.85C885.485 1210.61 904.778 1209.73 916.344 1201.85C927.822 1194.03 935.657 1176.63 928.986 1166.15C921.996 1155.17 901.544 1155.65 889.513 1164.63Z" fill="#43BCFF"/>
<path d="M737.23 1716.28C730.315 1711.15 725.802 1700.25 730.692 1693.63C735.757 1686.76 748.731 1687.44 756.311 1692.56C763.833 1697.64 768.641 1708.85 763.864 1715.53C758.859 1722.53 745.093 1722.1 737.23 1716.28Z" fill="#43BCFF"/>
<path d="M670.127 1753.01C668.138 1761.51 659.862 1770.63 651.803 1769.45C643.456 1768.24 638.935 1756.5 640.655 1747.41C642.362 1738.4 650.806 1728.88 658.873 1729.93C667.325 1731.02 672.389 1743.34 670.127 1753.01Z" fill="#43BCFF"/>
<path d="M712.033 1760.37C714.86 1769.66 711.93 1783.13 703.455 1786.6C694.678 1790.19 683.728 1781.51 680.315 1771.81C676.928 1762.19 679.793 1748.24 688.205 1744.64C697.019 1740.88 708.819 1749.8 712.033 1760.37Z" fill="#43BCFF"/>
<path d="M748.73 1738.14C753.791 1746.4 754.234 1760.03 746.777 1765.35C739.053 1770.86 726.176 1765.09 720.44 1756.58C714.748 1748.13 714.122 1734.05 721.487 1728.62C729.203 1722.94 742.975 1728.74 748.73 1738.14Z" fill="#43BCFF"/>
<path d="M703.003 1730.67C709.762 1727.45 713.04 1721.64 715.128 1717.81C718.781 1711.12 717.769 1708.47 720.637 1695.96C724.421 1679.46 727.447 1678.57 726.716 1671.05C726.515 1668.98 725.5 1658.55 716.843 1652.25C707.972 1645.8 694.909 1646.47 686.553 1651.46C679.01 1655.97 679.816 1661.3 671.623 1665.13C664.065 1668.66 661.201 1665.14 653.698 1667.75C642.507 1671.65 632.227 1685.28 633.895 1697.96C634.929 1705.82 640.231 1710.85 642.062 1712.59C647.955 1718.19 651.504 1716.7 665.65 1723.04C677.285 1728.25 678.156 1730.72 685.932 1732.04C690.283 1732.78 696.506 1733.75 703.003 1730.67Z" fill="#43BCFF"/>
<path d="M299.363 1172.28C299.088 1162.05 298.453 1146.38 287.638 1132.39C277.243 1118.94 263.028 1114.27 253.026 1111.13C242.223 1107.73 236.299 1107.93 226.628 1108.25C220.295 1108.46 212.354 1108.73 200.385 1108.07C185.216 1107.24 175.301 1105.57 167.586 1104.28C156.597 1102.43 150.072 1101.33 139.189 1104.47C133.434 1106.13 116.771 1110.93 106.078 1126.21C88.826 1150.87 95.8076 1190.4 115.254 1210.6C121.331 1216.91 126.72 1219.35 131.974 1221.73C137.989 1224.46 143.827 1227.1 150.318 1235.38C157.308 1244.3 158.49 1251.37 159.708 1258.66C160.788 1265.12 161.896 1271.76 167.098 1279.99C179.364 1299.41 206.263 1314.89 232.014 1310.97C257.142 1307.14 270.58 1286.46 273.245 1282.36C278.655 1274.04 279.345 1268.77 280.621 1259.02C281.629 1251.32 283.003 1240.82 287.356 1223.82C290.058 1213.27 292.438 1205.95 294.353 1200.06C297.738 1189.66 299.671 1183.71 299.363 1172.28ZM276.532 1140.84C285.913 1152.98 286.597 1166.48 286.924 1175.29C287.29 1185.14 285.688 1190.24 282.884 1199.17C281.297 1204.23 279.326 1210.51 277.107 1219.57C273.533 1234.17 272.451 1243.19 271.658 1249.81C270.652 1258.19 270.109 1262.72 265.553 1269.84C263.308 1273.35 251.992 1291.04 230.518 1294.11C208.512 1297.25 185.351 1283.69 174.679 1266.86C170.153 1259.73 169.145 1254.01 168.164 1248.43C167.056 1242.15 165.981 1236.05 159.918 1228.31C154.288 1221.12 149.268 1218.79 144.095 1216.39C139.577 1214.29 134.943 1212.14 129.684 1206.65C112.86 1189.1 106.531 1155 121.077 1133.92C130.092 1120.85 144.312 1116.87 149.223 1115.49C158.51 1112.89 164.104 1113.89 173.526 1115.58C180.141 1116.76 188.642 1118.28 201.633 1119.13C211.884 1119.8 218.678 1119.65 224.096 1119.52C232.371 1119.33 237.44 1119.21 246.717 1122.23C255.306 1125.02 267.515 1129.17 276.532 1140.84Z" fill="#43BCFF"/>
<path d="M221.31 996.229C239.625 1002.46 247.258 1030.4 242.258 1050.29C236.573 1072.91 212.53 1093.16 193.466 1086.35C175.269 1079.85 167.722 1050.88 173.873 1030.22C180.072 1009.4 202.34 989.779 221.31 996.229ZM236.271 1048.53C240.414 1032.05 234.09 1008.9 218.917 1003.74C203.202 998.4 184.755 1014.66 179.62 1031.9C174.524 1049.02 180.777 1073.02 195.851 1078.4C211.644 1084.05 231.561 1067.27 236.271 1048.53Z" fill="#43BCFF"/>
<path d="M349.157 1016.12C363.324 1032.49 354.94 1063.75 338.903 1080.1C320.666 1098.69 286.047 1104.61 271.485 1087.26C257.587 1070.69 266.631 1038.49 284.213 1022.05C301.929 1005.49 334.483 999.165 349.157 1016.12ZM333.489 1075.04C346.609 1061.66 353.467 1036.09 341.878 1022.7C329.874 1008.83 303.243 1014 288.75 1027.55C274.367 1041 266.968 1067.34 278.338 1080.89C290.25 1095.09 318.571 1090.25 333.489 1075.04Z" fill="#43BCFF"/>
<path d="M306.101 1239.52C302.931 1220.43 324.278 1202.53 344.45 1199.29C367.387 1195.59 396.966 1209.52 399.971 1229.53C402.84 1248.62 380.536 1266.84 359.128 1269.34C337.555 1271.86 309.383 1259.3 306.101 1239.52ZM345.876 1205.92C329.487 1208.56 312.145 1223.09 314.719 1238.61C317.386 1254.68 340.274 1264.88 357.8 1262.83C375.193 1260.8 393.313 1246 390.983 1230.49C388.541 1214.23 364.511 1202.92 345.876 1205.92Z" fill="#43BCFF"/>
<path d="M417.76 1107.13C427.77 1126.27 412.081 1154.23 392.433 1166.03C370.09 1179.44 334.679 1176.72 324.516 1156.54C314.817 1137.28 331.378 1108.58 352.565 1097.07C373.914 1085.48 407.392 1087.31 417.76 1107.13ZM388.992 1160.16C405.278 1150.38 418.281 1127.21 409.984 1111.34C401.391 1094.91 373.643 1093.4 355.947 1103.01C338.387 1112.54 324.66 1136.33 332.699 1152.3C341.122 1169.03 370.473 1171.28 388.992 1160.16Z" fill="#43BCFF"/>
<path d="M1372.21 1029.47C1370.34 1036.47 1363.2 1043.37 1356.51 1041.59C1349.57 1039.75 1346.09 1029.38 1347.75 1021.87C1349.4 1014.41 1356.69 1007.18 1363.4 1008.85C1370.42 1010.6 1374.34 1021.51 1372.21 1029.47Z" fill="#43BCFF"/>
<path d="M1421.73 1070.65C1429 1069.58 1438.69 1073.24 1440.27 1079.91C1441.89 1086.82 1434.11 1093.99 1426.46 1095.45C1418.88 1096.9 1408.81 1093.24 1407.14 1086.6C1405.39 1079.64 1413.46 1071.87 1421.73 1070.65Z" fill="#43BCFF"/>
<path d="M1414.52 1035.56C1420.92 1030.47 1432.37 1028.6 1437.7 1034.16C1443.23 1039.92 1439.82 1051.17 1433.29 1056.85C1426.8 1062.47 1415 1064.54 1409.58 1059.07C1403.91 1053.34 1407.24 1041.34 1414.52 1035.56Z" fill="#43BCFF"/>
<path d="M1385.77 1013.71C1390.68 1007.19 1401.2 1002.63 1407.68 1006.83C1414.38 1011.17 1413.85 1023.03 1408.95 1030.15C1404.1 1037.22 1393.28 1042.06 1386.75 1037.98C1379.91 1033.7 1380.2 1021.12 1385.77 1013.71Z" fill="#43BCFF"/>
<path d="M1394.06 1051.81C1389.46 1047.51 1383.89 1046.75 1380.25 1046.29C1373.88 1045.5 1372.12 1047.12 1361.44 1048.74C1347.35 1050.88 1345.72 1048.79 1340.07 1051.68C1338.51 1052.48 1330.66 1056.5 1328.41 1065.22C1326.1 1074.17 1330.66 1084.18 1337.15 1089.18C1343.01 1093.69 1346.94 1091.41 1352.47 1096.64C1357.57 1101.46 1355.7 1104.79 1360.06 1109.86C1366.58 1117.41 1380.43 1121.24 1389.83 1116.02C1395.66 1112.78 1397.96 1107.07 1398.76 1105.1C1401.32 1098.76 1399.06 1096.44 1399.64 1083.41C1400.12 1072.69 1401.79 1071.24 1400.42 1064.75C1399.65 1061.11 1398.49 1055.94 1394.06 1051.81Z" fill="#43BCFF"/>
<path d="M442.391 1419.8C449.175 1421.33 459.599 1423.55 470.626 1418.77C481.224 1414.19 486.686 1405.61 490.434 1399.55C494.481 1393.01 495.346 1389.07 496.757 1382.65C497.681 1378.45 498.84 1373.17 501.281 1365.4C504.374 1355.55 507.135 1349.3 509.284 1344.44C512.344 1337.52 514.161 1333.4 513.923 1325.71C513.798 1321.64 513.434 1309.87 505.165 1300.26C491.823 1284.76 464.621 1282.72 448.061 1292.14C442.886 1295.08 440.373 1298.22 437.923 1301.28C435.118 1304.78 432.396 1308.18 425.854 1311.07C418.81 1314.17 413.955 1313.76 408.949 1313.34C404.514 1312.97 399.962 1312.59 393.665 1314.63C378.819 1319.45 364.116 1334.56 362.374 1352.17C360.675 1369.36 372.036 1381.68 374.29 1384.12C378.863 1389.08 382.217 1390.42 388.422 1392.9C393.323 1394.85 400.002 1397.52 410.465 1403.24C416.959 1406.79 421.379 1409.59 424.936 1411.84C431.221 1415.81 434.811 1418.08 442.391 1419.8ZM466.922 1410.04C457.353 1414.18 448.352 1412.37 442.494 1411.1C435.949 1409.69 432.859 1407.78 427.448 1404.43C424.386 1402.54 420.582 1400.19 414.988 1397.21C405.976 1392.4 400.216 1390.18 395.99 1388.54C390.638 1386.47 387.746 1385.36 383.823 1381.16C381.889 1379.09 372.144 1368.67 373.726 1354.02C375.347 1339 388.164 1326.03 401.037 1321.82C406.496 1320.04 410.431 1320.34 414.265 1320.63C418.592 1320.95 422.789 1321.27 428.902 1318.58C434.579 1316.07 436.956 1313.16 439.405 1310.16C441.544 1307.53 443.738 1304.84 448.234 1302.3C462.619 1294.17 486.134 1295.73 497.573 1308.84C504.662 1316.97 504.9 1327 504.982 1330.47C505.137 1337.02 503.538 1340.54 500.846 1346.46C498.956 1350.61 496.527 1355.96 493.787 1364.37C491.625 1371 490.588 1375.5 489.761 1379.09C488.499 1384.57 487.725 1387.93 484.181 1393.53C480.9 1398.72 476.119 1406.06 466.922 1410.04Z" fill="#43BCFF"/>
<path d="M571.376 1397.91C564.201 1408.93 544.519 1409.26 532.261 1402.63C518.321 1395.09 509.022 1375.86 516.706 1364.45C524.04 1353.56 544.383 1353.45 556.954 1360.97C569.621 1368.55 578.807 1386.5 571.376 1397.91ZM534.426 1398.99C544.581 1404.48 560.886 1404.2 566.829 1395.08C572.985 1385.63 565.376 1370.75 554.882 1364.47C544.468 1358.25 527.616 1358.34 521.54 1367.36C515.174 1376.81 522.878 1392.74 534.426 1398.99Z" fill="#43BCFF"/>
<path d="M536.822 1478.75C523.666 1485.33 504.486 1474.57 496.413 1461.26C487.232 1446.14 489.145 1422.35 503.017 1415.67C516.257 1409.3 535.945 1420.66 543.818 1435C551.751 1449.44 550.449 1471.94 536.822 1478.75ZM500.655 1458.55C507.26 1469.43 522.95 1478.24 533.713 1472.86C544.861 1467.28 545.926 1448.88 539.436 1437.06C532.995 1425.33 516.889 1416.04 506.058 1421.25C494.71 1426.71 493.145 1446.17 500.655 1458.55Z" fill="#43BCFF"/>
<path d="M396.95 1412.91C410.055 1414.03 418.254 1431.09 417.006 1444.91C415.588 1460.64 401.452 1477.77 387.775 1476.4C374.721 1475.08 366.47 1457.34 368.417 1442.82C370.378 1428.19 383.376 1411.75 396.95 1412.91ZM412.4 1444.74C413.414 1433.5 406.753 1419.65 396.106 1418.74C385.078 1417.8 374.518 1431.15 372.924 1443.04C371.343 1454.83 378.046 1469.25 388.652 1470.32C399.764 1471.44 411.248 1457.51 412.4 1444.74Z" fill="#43BCFF"/>
<path d="M465.382 1508.65C451.099 1512.03 435.321 1497.01 430.852 1482.09C425.769 1465.13 433.502 1442.27 448.496 1438.96C462.807 1435.81 478.927 1451.53 482.948 1467.41C487 1483.42 480.175 1505.15 465.382 1508.65ZM435.292 1480.81C438.996 1493.17 452.074 1505.63 463.912 1502.83C476.174 1499.92 481.83 1481.91 478.472 1468.64C475.139 1455.48 461.778 1442.45 449.916 1445.06C437.488 1447.8 431.08 1466.75 435.292 1480.81Z" fill="#43BCFF"/>
<path d="M802.265 1487.94C810.527 1478.98 826.559 1474.27 835.149 1482.16C844.046 1490.33 841.129 1508.5 832.774 1518.4C824.483 1528.22 807.973 1533.3 799.285 1525.56C790.183 1517.45 792.871 1498.14 802.265 1487.94Z" fill="#43BCFF"/>
<path d="M760.679 1387.86C749.006 1383.78 737.419 1370.74 740.292 1359.57C743.268 1348 760.478 1343.41 773.013 1347.2C785.452 1350.97 797.584 1364.3 794.887 1375.5C792.062 1387.24 773.954 1392.51 760.679 1387.86Z" fill="#43BCFF"/>
<path d="M743.977 1445.79C730.465 1448.37 711.945 1442.21 708.341 1429.75C704.608 1416.85 718.485 1402.74 732.657 1399.4C746.72 1396.08 765.931 1402.23 769.722 1414.62C773.694 1427.6 759.341 1442.86 743.977 1445.79Z" fill="#43BCFF"/>
<path d="M769.734 1500.82C757.333 1506.7 738.08 1505.27 731.714 1493.96C725.121 1482.25 735.19 1464.99 748.048 1458.2C760.808 1451.46 780.722 1452.71 787.251 1463.9C794.092 1475.62 783.835 1494.14 769.734 1500.82Z" fill="#43BCFF"/>
<path d="M787.17 1437.57C790.674 1447.57 798.368 1453.07 803.438 1456.58C812.308 1462.74 816.196 1461.72 833.376 1467.65C856.045 1475.47 856.838 1479.86 867.531 1479.97C870.475 1480 885.316 1480.15 895.496 1468.91C905.929 1457.39 906.957 1438.9 901.191 1426.38C895.985 1415.07 888.355 1415.4 884.204 1403.28C880.374 1392.11 885.763 1388.61 883.216 1377.65C879.418 1361.3 861.774 1344.76 843.672 1345.19C832.453 1345.46 824.561 1352.17 821.835 1354.48C813.062 1361.94 814.616 1367.16 803.557 1386.12C794.461 1401.72 790.851 1402.57 787.813 1413.32C786.113 1419.34 783.802 1427.95 787.17 1437.57Z" fill="#43BCFF"/>
<path d="M840.99 1910.4C848.564 1914.49 854.584 1924.63 850.688 1931.89C846.652 1939.4 833.714 1940.58 825.482 1936.59C817.313 1932.63 810.957 1922.23 814.733 1914.93C818.69 1907.29 832.377 1905.75 840.99 1910.4Z" fill="#43BCFF"/>
<path d="M902.174 1864.48C902.931 1855.78 909.825 1845.58 917.969 1845.59C926.404 1845.61 932.551 1856.58 932.143 1865.82C931.738 1874.99 924.737 1885.61 916.602 1885.73C908.08 1885.84 901.313 1874.37 902.174 1864.48Z" fill="#43BCFF"/>
<path d="M859.649 1863.17C855.528 1854.37 856.509 1840.63 864.403 1835.99C872.58 1831.18 884.654 1838.21 889.414 1847.32C894.138 1856.36 893.289 1870.58 885.475 1875.34C877.288 1880.32 864.336 1873.17 859.649 1863.17Z" fill="#43BCFF"/>
<path d="M826.495 1890.4C820.308 1882.94 817.928 1869.52 824.551 1863.19C831.412 1856.63 844.979 1860.51 851.87 1868.12C858.708 1875.67 861.332 1889.51 854.816 1895.93C847.988 1902.66 833.529 1898.88 826.495 1890.4Z" fill="#43BCFF"/>
<path d="M872.815 1891.28C866.583 1895.42 864.167 1901.65 862.645 1905.73C859.983 1912.87 861.363 1915.36 860.306 1928.14C858.912 1945.02 856.044 1946.33 857.838 1953.66C858.332 1955.68 860.822 1965.86 870.288 1970.86C879.989 1975.99 892.823 1973.46 900.382 1967.33C907.206 1961.8 905.649 1956.63 913.213 1951.68C920.191 1947.11 923.527 1950.18 930.581 1946.53C941.102 1941.07 949.336 1926.11 945.878 1913.81C943.735 1906.18 937.77 1901.95 935.71 1900.49C929.079 1895.79 925.778 1897.76 910.874 1893.51C898.615 1890.01 897.402 1887.69 889.516 1887.49C885.104 1887.37 878.806 1887.3 872.815 1891.28Z" fill="#43BCFF"/>
<path d="M758.42 2101.47C743.156 2093.11 731.108 2072.53 739.075 2057.91C747.327 2042.77 773.501 2040.55 790.095 2048.71C806.564 2056.81 819.288 2077.93 811.562 2092.63C803.469 2108.04 775.777 2110.97 758.42 2101.47Z" fill="#43BCFF"/>
<path d="M634.102 2193.58C632.464 2211.16 618.401 2231.7 601.936 2231.57C584.881 2231.44 572.587 2209.18 573.526 2190.5C574.457 2171.97 588.743 2150.57 605.19 2150.45C622.423 2150.32 635.964 2173.59 634.102 2193.58Z" fill="#43BCFF"/>
<path d="M720.114 2196.74C728.339 2214.57 726.186 2242.36 710.169 2251.64C693.578 2261.26 669.251 2246.9 659.739 2228.42C650.299 2210.08 652.189 2181.34 668.047 2171.82C684.661 2161.85 710.761 2176.47 720.114 2196.74Z" fill="#43BCFF"/>
<path d="M787.477 2142.1C799.893 2157.25 804.541 2184.42 791.072 2197.14C777.121 2210.31 749.738 2202.31 735.899 2186.83C722.166 2171.48 717.029 2143.46 730.284 2130.56C744.171 2117.04 773.358 2124.87 787.477 2142.1Z" fill="#43BCFF"/>
<path d="M693.836 2139.74C706.488 2131.44 711.448 2118.89 714.576 2110.65C720.047 2096.24 717.288 2091.21 719.581 2065.36C722.607 2031.26 728.422 2028.65 724.884 2013.8C723.91 2009.71 719.001 1989.1 699.923 1978.87C680.372 1968.38 654.392 1973.33 639.034 1985.64C625.169 1996.75 628.254 2007.2 612.899 2017.13C598.734 2026.29 592.027 2020.03 577.721 2027.33C556.381 2038.23 539.551 2068.37 546.39 2093.3C550.63 2108.75 562.638 2117.37 566.785 2120.35C580.134 2129.94 586.832 2125.99 616.914 2134.77C641.657 2142 644.082 2146.7 660.024 2147.21C668.942 2147.49 681.676 2147.72 693.836 2139.74Z" fill="#43BCFF"/>
<path d="M375.564 2763.3C376.862 2735.54 397.969 2703.82 424.529 2705.02C452.04 2706.25 473.563 2742.26 473.475 2771.79C473.388 2801.1 451.987 2834.16 425.475 2833.37C397.699 2832.55 374.087 2794.87 375.564 2763.3Z" fill="#43BCFF"/>
<path d="M156.291 2649.41C129.913 2659.38 90.5775 2653.59 79.2301 2629.87C67.4765 2605.3 90.8075 2572.06 118.264 2560.32C145.511 2548.68 186.233 2554.19 197.935 2577.7C210.195 2602.34 186.285 2638.08 156.291 2649.41Z" fill="#43BCFF"/>
<path d="M211.996 2775.07C192.169 2799.37 150.792 2815.74 126.244 2799.26C100.817 2782.19 104.386 2737.21 124.245 2710.62C143.953 2684.22 186.512 2666.8 211.286 2682.89C237.242 2699.74 234.542 2747.44 211.996 2775.07Z" fill="#43BCFF"/>
<path d="M337.614 2833.46C324.565 2861.9 288.833 2887.6 261.149 2877.18C232.475 2866.38 224.773 2821.48 237.283 2790.78C249.699 2760.31 286.308 2733.31 314.112 2743.3C343.241 2753.75 352.453 2801.13 337.614 2833.46Z" fill="#43BCFF"/>
<path d="M275.391 2697.42C296.17 2709.76 317.659 2708.09 331.671 2706.8C356.184 2704.56 361.476 2697.07 400.171 2682.26C451.231 2662.71 459.056 2669.23 477.89 2653.74C483.076 2649.48 509.216 2628 510.532 2593.45C511.88 2558.05 486.575 2524.23 458.158 2510.81C432.504 2498.69 419.659 2510.45 394.654 2495.37C371.587 2481.45 375.872 2467.44 355.366 2452.03C324.777 2429.04 269.727 2426 238.744 2453.28C219.541 2470.19 215.578 2493.46 214.21 2501.5C209.805 2527.38 220.17 2534.22 228.636 2583.54C235.6 2624.12 230.545 2630.9 240.989 2654.13C246.832 2667.12 255.42 2685.56 275.391 2697.42Z" fill="#43BCFF"/>
<path d="M1363.85 2653.96C1353.2 2653.06 1336.87 2651.92 1321.11 2661.53C1305.97 2670.76 1299.48 2684.97 1295.07 2694.98C1290.31 2705.8 1289.83 2711.97 1289.05 2722.04C1288.54 2728.63 1287.9 2736.9 1285.84 2749.24C1283.23 2764.88 1280.36 2774.98 1278.12 2782.83C1274.94 2794.02 1273.05 2800.66 1275.05 2812.31C1276.11 2818.47 1279.17 2836.31 1293.79 2849.17C1317.39 2869.91 1359.2 2867.22 1382.39 2849.37C1389.64 2843.79 1392.79 2838.48 1395.87 2833.3C1399.39 2827.38 1402.81 2821.63 1412.15 2815.85C1422.2 2809.62 1429.68 2809.21 1437.38 2808.79C1444.21 2808.41 1451.21 2808.02 1460.36 2803.58C1481.92 2793.09 1501.07 2766.97 1499.97 2739.8C1498.89 2713.29 1478.99 2696.97 1475.04 2693.73C1467.03 2687.16 1461.64 2685.84 1451.67 2683.39C1443.8 2681.46 1433.07 2678.82 1415.94 2672.35C1405.3 2668.33 1397.99 2665.02 1392.1 2662.35C1381.69 2657.64 1375.74 2654.95 1363.85 2653.96ZM1328.61 2674.02C1342.28 2665.69 1356.36 2666.53 1365.54 2667.21C1375.8 2667.96 1380.91 2670.21 1389.85 2674.15C1394.91 2676.38 1401.2 2679.15 1410.34 2682.49C1425.08 2687.88 1434.31 2690.04 1441.09 2691.63C1449.67 2693.64 1454.31 2694.72 1461.17 2700.27C1464.55 2703 1481.59 2716.78 1482.31 2739.41C1483.04 2762.6 1466.3 2785.07 1447.61 2794.2C1439.69 2798.07 1433.64 2798.46 1427.74 2798.84C1421.09 2799.26 1414.64 2799.67 1405.91 2805.07C1397.81 2810.08 1394.81 2815.02 1391.73 2820.11C1389.03 2824.56 1386.27 2829.12 1379.97 2833.94C1359.81 2849.37 1323.71 2852.01 1303.52 2834.5C1291 2823.64 1288.51 2808.43 1287.64 2803.17C1286.01 2793.24 1287.7 2787.55 1290.53 2777.97C1292.52 2771.25 1295.08 2762.6 1297.46 2749.22C1299.33 2738.66 1299.95 2731.6 1300.45 2725.96C1301.2 2717.36 1301.66 2712.08 1305.86 2702.81C1309.75 2694.22 1315.46 2682.03 1328.61 2674.02Z" fill="#43BCFF"/>
<path d="M1172.23 2714.66C1180.8 2696.38 1210.67 2691.68 1230.73 2699.16C1253.54 2707.66 1271.78 2734.93 1262.52 2753.93C1253.68 2772.06 1222.76 2776.55 1202.03 2767.79C1181.15 2758.96 1163.36 2733.6 1172.23 2714.66ZM1228.21 2705.16C1211.6 2698.97 1186.85 2702.86 1179.75 2718.01C1172.4 2733.7 1187.14 2754.71 1204.44 2762.02C1221.61 2769.28 1247.23 2765.56 1254.55 2750.54C1262.22 2734.8 1247.11 2712.21 1228.21 2705.16Z" fill="#43BCFF"/>
<path d="M1207.59 2584.33C1226.21 2571.51 1257.68 2583.81 1272.79 2602.33C1289.98 2623.39 1292.13 2659.99 1272.45 2673.1C1253.66 2685.61 1221.29 2672.52 1206.26 2652.38C1191.12 2632.1 1188.31 2597.6 1207.59 2584.33ZM1266.91 2607.37C1254.55 2592.21 1228.81 2582.15 1213.58 2592.63C1197.81 2603.49 1200.1 2631.71 1212.49 2648.31C1224.79 2664.78 1251.26 2675.49 1266.63 2665.26C1282.73 2654.53 1280.97 2624.59 1266.91 2607.37Z" fill="#43BCFF"/>
<path d="M1434.4 2654.72C1414.22 2655.81 1398.12 2631.6 1397.07 2610.3C1395.88 2586.08 1413.74 2557 1434.84 2556.19C1454.98 2555.41 1471.31 2580.65 1471.44 2603.14C1471.57 2625.81 1455.29 2653.59 1434.4 2654.72ZM1404.12 2609.59C1404.97 2626.89 1418.05 2646.56 1434.44 2645.67C1451.42 2644.76 1464.64 2622.19 1464.53 2603.77C1464.43 2585.49 1451.16 2564.99 1434.8 2565.62C1417.66 2566.28 1403.15 2589.91 1404.12 2609.59Z" fill="#43BCFF"/>
<path d="M1309.91 2523.63C1330.92 2515.45 1358.12 2534.95 1368.1 2556.69C1379.44 2581.42 1372.54 2617.84 1350.44 2626.06C1329.33 2633.9 1301.47 2613.41 1291.97 2590.11C1282.4 2566.63 1288.15 2532.11 1309.91 2523.63ZM1361.61 2559.59C1353.35 2541.56 1330.8 2525.41 1313.39 2532.19C1295.35 2539.21 1290.58 2567.82 1298.52 2587.28C1306.39 2606.6 1329.49 2623.58 1346.98 2617.08C1365.3 2610.27 1371.02 2580.08 1361.61 2559.59Z" fill="#43BCFF"/>
<path d="M1157.26 2308.93C1174.95 2321.43 1186.93 2348.6 1175 2365.55C1162.65 2383.1 1129.97 2382.14 1110.6 2369.69C1091.39 2357.34 1078.65 2329.41 1090.28 2312.32C1102.48 2294.42 1137.14 2294.72 1157.26 2308.93Z" fill="#43BCFF"/>
<path d="M1324.06 2212.66C1328.58 2191.15 1348.88 2167.74 1369.22 2170.24C1390.3 2172.83 1402.34 2202.1 1398.53 2225.06C1394.75 2247.84 1374.05 2272.28 1353.69 2270.1C1332.36 2267.82 1318.92 2237.12 1324.06 2212.66Z" fill="#43BCFF"/>
<path d="M1218.14 2196.55C1210.5 2173.33 1217.1 2139.28 1238.23 2130.07C1260.11 2120.52 1288.16 2141.74 1297.3 2165.94C1306.37 2189.96 1299.96 2225.22 1279 2234.75C1257.03 2244.73 1226.83 2222.95 1218.14 2196.55Z" fill="#43BCFF"/>
<path d="M1127.09 2254.57C1113.88 2234.07 1111.99 2199.81 1130.45 2186C1149.57 2171.69 1182.3 2185.47 1197.22 2206.57C1212.02 2227.5 1214.4 2262.88 1196.18 2276.96C1177.09 2291.71 1142.1 2277.88 1127.09 2254.57Z" fill="#43BCFF"/>
<path d="M1242.56 2270.76C1225.73 2279.24 1217.82 2294.06 1212.78 2303.8C1203.97 2320.84 1206.67 2327.46 1200.17 2359.1C1191.59 2400.84 1184.03 2403.25 1186.3 2422.11C1186.92 2427.31 1190.07 2453.49 1212.21 2468.85C1234.9 2484.59 1267.74 2482.15 1288.47 2469.11C1307.2 2457.34 1304.86 2443.97 1325.26 2433.88C1344.08 2424.56 1351.48 2433.25 1370.21 2426.25C1398.15 2415.8 1423.24 2380.91 1418.31 2349.11C1415.26 2329.4 1401.63 2317.03 1396.93 2312.76C1381.78 2299.02 1372.93 2302.95 1336.98 2287.82C1307.41 2275.38 1305.07 2269.21 1285.43 2266.33C1274.44 2264.71 1258.73 2262.62 1242.56 2270.76Z" fill="#43BCFF"/>
<path d="M932.852 2603.78C933.756 2610.84 935.286 2621.63 943.739 2630.55C951.863 2639.12 962.018 2641.36 969.153 2642.84C976.86 2644.43 980.942 2643.88 987.607 2642.99C991.972 2642.4 997.444 2641.67 1005.77 2641.29C1016.31 2640.8 1023.28 2641.26 1028.71 2641.62C1036.44 2642.13 1041.03 2642.44 1048.33 2639.51C1052.2 2637.97 1063.38 2633.49 1069.71 2622.17C1079.92 2603.92 1072.34 2577.07 1057.49 2564.46C1052.85 2560.52 1048.95 2559.21 1045.15 2557.93C1040.8 2556.46 1036.58 2555.04 1031.52 2549.76C1026.06 2544.09 1024.75 2539.28 1023.4 2534.32C1022.21 2529.93 1020.98 2525.42 1016.81 2520.09C1006.97 2507.51 987.294 2498.69 969.761 2503.19C952.652 2507.59 944.801 2522.82 943.243 2525.84C940.083 2531.98 939.973 2535.67 939.769 2542.5C939.609 2547.89 939.39 2555.25 937.564 2567.3C936.431 2574.79 935.295 2580.01 934.381 2584.22C932.765 2591.65 931.843 2595.9 932.852 2603.78ZM950.83 2623.93C943.497 2616.19 942.084 2606.9 941.244 2600.83C940.305 2594.05 941.057 2590.41 942.374 2584.04C943.119 2580.43 944.045 2575.95 944.947 2569.53C946.401 2559.19 946.521 2552.88 946.609 2548.24C946.72 2542.38 946.78 2539.2 949.434 2533.96C950.742 2531.38 957.335 2518.36 971.969 2514.75C986.967 2511.04 1003.93 2518.8 1012.48 2529.69C1016.11 2534.31 1017.2 2538.2 1018.27 2541.98C1019.47 2546.25 1020.64 2550.4 1025.37 2555.33C1029.77 2559.9 1033.4 2561.16 1037.14 2562.46C1040.41 2563.6 1043.77 2564.76 1047.79 2568.19C1060.64 2579.16 1067.39 2602.3 1058.8 2617.89C1053.48 2627.55 1043.93 2631.3 1040.63 2632.59C1034.39 2635.04 1030.45 2634.73 1023.82 2634.22C1019.16 2633.87 1013.17 2633.41 1004.13 2633.72C996.997 2633.97 992.311 2634.56 988.572 2635.02C982.864 2635.73 979.367 2636.16 972.742 2634.72C966.609 2633.39 957.878 2631.37 950.83 2623.93Z" fill="#43BCFF"/>
<path d="M999.116 2720.03C986.018 2717 978.792 2698.21 980.864 2684.11C983.22 2668.07 998.434 2652.39 1012.09 2655.77C1025.13 2659 1032.36 2678.51 1029.55 2693.22C1026.71 2708.05 1012.68 2723.17 999.116 2720.03ZM985.127 2684.91C983.41 2696.59 989.396 2712.16 1000.25 2714.67C1011.49 2717.27 1023.11 2704.74 1025.46 2692.46C1027.79 2680.27 1021.79 2664.11 1011 2661.44C999.682 2658.64 987.078 2671.62 985.127 2684.91Z" fill="#43BCFF"/>
<path d="M909.331 2715.18C898.395 2704.85 902.014 2682.65 911.964 2670.23C923.279 2656.1 946.805 2649.6 958.083 2660.58C968.848 2671.07 964.837 2693.97 953.825 2706.56C942.729 2719.25 920.659 2725.88 909.331 2715.18ZM916.06 2673.35C907.92 2683.51 904.96 2701.68 913.906 2710.13C923.173 2718.88 941.227 2713.45 950.305 2703.07C959.314 2692.77 962.594 2674.04 953.788 2665.46C944.562 2656.47 925.316 2661.79 916.06 2673.35Z" fill="#43BCFF"/>
<path d="M923.538 2557.71C927.059 2570.69 913.546 2584.55 899.823 2588.2C884.22 2592.35 862.797 2584.78 859.325 2571.16C856.011 2558.16 870.165 2544.01 884.794 2540.79C899.535 2537.54 919.89 2544.26 923.538 2557.71ZM898.375 2583.72C909.524 2580.75 920.503 2569.49 917.642 2558.94C914.678 2548.02 898.141 2542.56 886.165 2545.19C874.28 2547.81 862.781 2559.31 865.473 2569.87C868.294 2580.94 885.699 2587.09 898.375 2583.72Z" fill="#43BCFF"/>
<path d="M855.55 2657.03C847.295 2644.5 856.195 2624.07 868.96 2614.54C883.475 2603.71 908.15 2603.12 916.583 2616.37C924.632 2629.01 915.179 2650.02 901.331 2659.45C887.376 2668.95 864.1 2670.02 855.55 2657.03ZM871.748 2618.36C861.168 2626.26 853.791 2643.19 860.633 2653.58C867.72 2664.34 887.012 2663.46 898.579 2655.58C910.057 2647.76 917.891 2630.35 911.22 2619.87C904.23 2608.89 883.778 2609.38 871.748 2618.36Z" fill="#43BCFF"/>
<path d="M953.618 2104.05C954.521 2111.11 956.052 2121.9 964.505 2130.82C972.629 2139.39 982.784 2141.63 989.919 2143.11C997.625 2144.7 1001.71 2144.15 1008.37 2143.26C1012.74 2142.67 1018.21 2141.94 1026.53 2141.56C1037.08 2141.07 1044.05 2141.53 1049.48 2141.89C1057.2 2142.4 1061.79 2142.71 1069.1 2139.78C1072.96 2138.23 1084.15 2133.76 1090.48 2122.44C1100.69 2104.19 1093.11 2077.34 1078.26 2064.73C1073.61 2060.79 1069.72 2059.48 1065.92 2058.2C1061.57 2056.73 1057.35 2055.31 1052.28 2050.03C1046.83 2044.36 1045.52 2039.55 1044.17 2034.59C1042.97 2030.2 1041.74 2025.69 1037.57 2020.36C1027.74 2007.78 1008.06 1998.96 990.526 2003.46C973.417 2007.86 965.566 2023.09 964.009 2026.11C960.848 2032.25 960.738 2035.94 960.535 2042.77C960.374 2048.16 960.155 2055.52 958.33 2067.57C957.197 2075.06 956.061 2080.28 955.147 2084.49C953.531 2091.92 952.608 2096.17 953.618 2104.05ZM971.595 2124.2C964.262 2116.46 962.849 2107.17 962.009 2101.1C961.07 2094.32 961.822 2090.68 963.139 2084.31C963.884 2080.7 964.81 2076.22 965.713 2069.8C967.167 2059.46 967.287 2053.15 967.374 2048.51C967.486 2042.65 967.546 2039.47 970.2 2034.23C971.508 2031.65 978.101 2018.63 992.735 2015.01C1007.73 2011.31 1024.69 2019.07 1033.24 2029.96C1036.87 2034.58 1037.97 2038.47 1039.03 2042.25C1040.24 2046.52 1041.41 2050.67 1046.14 2055.6C1050.53 2060.17 1054.16 2061.43 1057.91 2062.73C1061.18 2063.87 1064.53 2065.03 1068.55 2068.46C1081.41 2079.43 1088.16 2102.57 1079.57 2118.16C1074.25 2127.82 1064.69 2131.57 1061.39 2132.86C1055.15 2135.31 1051.21 2135 1044.58 2134.49C1039.92 2134.14 1033.94 2133.68 1024.9 2133.99C1017.76 2134.24 1013.08 2134.82 1009.34 2135.29C1003.63 2136 1000.13 2136.43 993.508 2134.99C987.374 2133.66 978.643 2131.64 971.595 2124.2Z" fill="#43BCFF"/>
<path d="M1019.88 2220.3C1006.78 2217.27 999.554 2198.48 1001.63 2184.38C1003.98 2168.34 1019.2 2152.66 1032.85 2156.04C1045.89 2159.27 1053.12 2178.78 1050.31 2193.49C1047.47 2208.32 1033.44 2223.44 1019.88 2220.3ZM1005.89 2185.18C1004.17 2196.86 1010.16 2212.43 1021.01 2214.94C1032.25 2217.54 1043.87 2205.01 1046.22 2192.73C1048.55 2180.54 1042.56 2164.38 1031.76 2161.71C1020.44 2158.91 1007.84 2171.89 1005.89 2185.18Z" fill="#43BCFF"/>
<path d="M930.097 2215.45C919.161 2205.12 922.78 2182.92 932.73 2170.5C944.045 2156.37 967.571 2149.86 978.849 2160.85C989.613 2171.34 985.603 2194.24 974.591 2206.83C963.494 2219.52 941.425 2226.15 930.097 2215.45ZM936.826 2173.62C928.686 2183.78 925.725 2201.95 934.672 2210.4C943.939 2219.15 961.993 2213.72 971.071 2203.34C980.079 2193.04 983.36 2174.31 974.554 2165.73C965.328 2156.74 946.082 2162.06 936.826 2173.62Z" fill="#43BCFF"/>
<path d="M944.303 2057.98C947.825 2070.96 934.311 2084.82 920.589 2088.47C904.986 2092.62 883.563 2085.05 880.091 2071.43C876.777 2058.42 890.931 2044.28 905.559 2041.05C920.301 2037.81 940.656 2044.53 944.303 2057.98ZM919.141 2083.98C930.289 2081.02 941.269 2069.76 938.407 2059.21C935.444 2048.29 918.907 2042.82 906.931 2045.46C895.046 2048.08 883.547 2059.57 886.239 2070.14C889.06 2081.21 906.464 2087.36 919.141 2083.98Z" fill="#43BCFF"/>
<path d="M876.315 2157.3C868.06 2144.77 876.961 2124.34 889.725 2114.81C904.24 2103.98 928.915 2103.39 937.348 2116.64C945.397 2129.28 935.945 2150.28 922.097 2159.72C908.142 2169.22 884.866 2170.29 876.315 2157.3ZM892.513 2118.63C881.933 2126.52 874.556 2143.46 881.398 2153.85C888.485 2164.61 907.778 2163.73 919.344 2155.85C930.822 2148.03 938.657 2130.62 931.986 2120.14C924.996 2109.16 904.544 2109.65 892.513 2118.63Z" fill="#43BCFF"/>
<path d="M740.226 2670.28C733.311 2665.15 728.798 2654.25 733.688 2647.63C738.753 2640.76 751.727 2641.44 759.307 2646.56C766.829 2651.64 771.637 2662.85 766.86 2669.53C761.855 2676.53 748.089 2676.1 740.226 2670.28Z" fill="#43BCFF"/>
<path d="M673.123 2707.01C671.134 2715.51 662.858 2724.63 654.799 2723.45C646.452 2722.24 641.931 2710.5 643.651 2701.41C645.358 2692.4 653.802 2682.88 661.869 2683.93C670.321 2685.02 675.385 2697.34 673.123 2707.01Z" fill="#43BCFF"/>
<path d="M715.03 2714.37C717.856 2723.66 714.926 2737.13 706.452 2740.6C697.674 2744.19 686.724 2735.51 683.311 2725.81C679.924 2716.19 682.789 2702.24 691.201 2698.64C700.015 2694.88 711.815 2703.8 715.03 2714.37Z" fill="#43BCFF"/>
<path d="M751.726 2692.14C756.787 2700.4 757.23 2714.03 749.773 2719.35C742.049 2724.86 729.172 2719.09 723.436 2710.58C717.744 2702.13 717.118 2688.05 724.483 2682.62C732.199 2676.94 745.972 2682.74 751.726 2692.14Z" fill="#43BCFF"/>
<path d="M706.003 2684.67C712.762 2681.45 716.04 2675.64 718.128 2671.81C721.781 2665.12 720.769 2662.47 723.637 2649.96C727.421 2633.46 730.447 2632.57 729.716 2625.05C729.515 2622.98 728.5 2612.55 719.843 2606.25C710.972 2599.8 697.909 2600.47 689.553 2605.46C682.01 2609.97 682.816 2615.3 674.623 2619.13C667.065 2622.66 664.201 2619.14 656.698 2621.75C645.507 2625.65 635.227 2639.28 636.895 2651.96C637.929 2659.82 643.231 2664.85 645.062 2666.59C650.955 2672.19 654.504 2670.7 668.65 2677.04C680.285 2682.25 681.156 2684.72 688.932 2686.04C693.283 2686.78 699.506 2687.75 706.003 2684.67Z" fill="#43BCFF"/>
<path d="M302.363 2126.28C302.088 2116.05 301.453 2100.38 290.638 2086.39C280.243 2072.94 266.028 2068.27 256.026 2065.13C245.223 2061.73 239.299 2061.93 229.628 2062.25C223.295 2062.46 215.354 2062.73 203.385 2062.07C188.216 2061.24 178.301 2059.57 170.586 2058.28C159.597 2056.43 153.072 2055.33 142.189 2058.47C136.434 2060.13 119.771 2064.93 109.078 2080.21C91.826 2104.87 98.8076 2144.4 118.254 2164.6C124.331 2170.91 129.72 2173.35 134.974 2175.73C140.989 2178.46 146.827 2181.1 153.318 2189.38C160.308 2198.3 161.49 2205.37 162.708 2212.66C163.788 2219.12 164.896 2225.76 170.098 2233.99C182.364 2253.41 209.263 2268.89 235.014 2264.97C260.142 2261.14 273.58 2240.46 276.245 2236.36C281.655 2228.04 282.345 2222.77 283.621 2213.02C284.629 2205.32 286.003 2194.82 290.356 2177.82C293.058 2167.27 295.438 2159.95 297.353 2154.06C300.738 2143.66 302.671 2137.71 302.363 2126.28ZM279.532 2094.84C288.913 2106.98 289.597 2120.48 289.924 2129.29C290.29 2139.14 288.688 2144.24 285.884 2153.17C284.297 2158.23 282.326 2164.51 280.107 2173.57C276.533 2188.17 275.451 2197.19 274.658 2203.81C273.652 2212.19 273.109 2216.72 268.553 2223.84C266.308 2227.35 254.992 2245.04 233.518 2248.11C211.512 2251.25 188.351 2237.69 177.679 2220.86C173.153 2213.73 172.145 2208.01 171.164 2202.43C170.056 2196.15 168.981 2190.05 162.918 2182.31C157.288 2175.12 152.268 2172.79 147.095 2170.39C142.577 2168.29 137.943 2166.14 132.684 2160.65C115.86 2143.1 109.531 2109 124.077 2087.92C133.092 2074.85 147.312 2070.87 152.223 2069.49C161.51 2066.89 167.104 2067.89 176.526 2069.58C183.141 2070.76 191.642 2072.28 204.633 2073.13C214.884 2073.8 221.678 2073.65 227.096 2073.52C235.371 2073.33 240.44 2073.21 249.717 2076.23C258.306 2079.02 270.515 2083.17 279.532 2094.84Z" fill="#43BCFF"/>
<path d="M224.31 1950.23C242.625 1956.46 250.258 1984.4 245.258 2004.29C239.573 2026.91 215.53 2047.16 196.466 2040.35C178.269 2033.85 170.722 2004.88 176.873 1984.22C183.072 1963.4 205.34 1943.78 224.31 1950.23ZM239.271 2002.53C243.414 1986.05 237.09 1962.9 221.917 1957.74C206.202 1952.4 187.755 1968.66 182.62 1985.9C177.524 2003.02 183.777 2027.02 198.851 2032.4C214.644 2038.05 234.561 2021.27 239.271 2002.53Z" fill="#43BCFF"/>
<path d="M352.157 1970.12C366.324 1986.49 357.94 2017.75 341.903 2034.1C323.666 2052.69 289.047 2058.61 274.485 2041.26C260.587 2024.69 269.631 1992.49 287.213 1976.05C304.929 1959.49 337.483 1953.16 352.157 1970.12ZM336.489 2029.04C349.609 2015.66 356.467 1990.09 344.878 1976.7C332.874 1962.83 306.243 1968 291.75 1981.55C277.367 1995 269.968 2021.34 281.338 2034.89C293.25 2049.09 321.571 2044.25 336.489 2029.04Z" fill="#43BCFF"/>
<path d="M309.101 2193.52C305.931 2174.43 327.278 2156.53 347.45 2153.29C370.387 2149.59 399.966 2163.52 402.971 2183.53C405.84 2202.62 383.536 2220.84 362.128 2223.34C340.555 2225.86 312.383 2213.3 309.101 2193.52ZM348.876 2159.92C332.487 2162.56 315.145 2177.09 317.719 2192.61C320.386 2208.68 343.274 2218.88 360.8 2216.83C378.193 2214.8 396.313 2200 393.983 2184.49C391.541 2168.23 367.511 2156.92 348.876 2159.92Z" fill="#43BCFF"/>
<path d="M420.76 2061.13C430.77 2080.27 415.081 2108.23 395.433 2120.03C373.09 2133.44 337.679 2130.72 327.516 2110.54C317.817 2091.28 334.378 2062.58 355.565 2051.07C376.914 2039.48 410.392 2041.31 420.76 2061.13ZM391.992 2114.16C408.278 2104.38 421.281 2081.21 412.984 2065.34C404.391 2048.91 376.643 2047.4 358.947 2057.01C341.387 2066.54 327.66 2090.33 335.699 2106.3C344.122 2123.03 373.473 2125.28 391.992 2114.16Z" fill="#43BCFF"/>
<path d="M1375.21 1983.47C1373.34 1990.47 1366.2 1997.37 1359.51 1995.59C1352.57 1993.75 1349.09 1983.38 1350.75 1975.87C1352.4 1968.41 1359.69 1961.18 1366.4 1962.85C1373.42 1964.6 1377.34 1975.51 1375.21 1983.47Z" fill="#43BCFF"/>
<path d="M1424.73 2024.65C1432 2023.58 1441.69 2027.24 1443.27 2033.91C1444.89 2040.82 1437.11 2047.99 1429.46 2049.45C1421.88 2050.9 1411.81 2047.24 1410.14 2040.6C1408.39 2033.64 1416.46 2025.87 1424.73 2024.65Z" fill="#43BCFF"/>
<path d="M1417.52 1989.56C1423.92 1984.47 1435.37 1982.6 1440.7 1988.16C1446.23 1993.92 1442.82 2005.17 1436.29 2010.85C1429.8 2016.47 1418 2018.54 1412.58 2013.07C1406.91 2007.34 1410.24 1995.34 1417.52 1989.56Z" fill="#43BCFF"/>
<path d="M1388.77 1967.71C1393.68 1961.19 1404.2 1956.63 1410.68 1960.83C1417.38 1965.17 1416.85 1977.03 1411.95 1984.15C1407.1 1991.22 1396.28 1996.06 1389.75 1991.98C1382.91 1987.7 1383.2 1975.12 1388.77 1967.71Z" fill="#43BCFF"/>
<path d="M1397.06 2005.81C1392.46 2001.51 1386.89 2000.75 1383.25 2000.29C1376.88 1999.5 1375.12 2001.12 1364.44 2002.74C1350.35 2004.88 1348.72 2002.79 1343.07 2005.68C1341.51 2006.48 1333.66 2010.5 1331.41 2019.22C1329.1 2028.17 1333.66 2038.18 1340.15 2043.18C1346.01 2047.69 1349.94 2045.41 1355.47 2050.64C1360.57 2055.46 1358.7 2058.79 1363.06 2063.86C1369.58 2071.41 1383.43 2075.24 1392.83 2070.02C1398.66 2066.78 1400.96 2061.07 1401.76 2059.1C1404.32 2052.76 1402.06 2050.44 1402.64 2037.41C1403.12 2026.69 1404.79 2025.24 1403.42 2018.75C1402.65 2015.11 1401.49 2009.94 1397.06 2005.81Z" fill="#43BCFF"/>
<path d="M445.391 2373.8C452.175 2375.33 462.599 2377.54 473.626 2372.77C484.224 2368.18 489.686 2359.61 493.434 2353.55C497.481 2347 498.346 2343.07 499.757 2336.65C500.681 2332.44 501.84 2327.17 504.281 2319.4C507.374 2309.55 510.135 2303.3 512.284 2298.44C515.344 2291.51 517.161 2287.4 516.923 2279.71C516.798 2275.64 516.434 2263.86 508.165 2254.26C494.823 2238.76 467.621 2236.72 451.061 2246.14C445.886 2249.08 443.373 2252.22 440.923 2255.28C438.118 2258.78 435.396 2262.18 428.854 2265.06C421.81 2268.17 416.955 2267.76 411.949 2267.34C407.514 2266.97 402.962 2266.58 396.665 2268.63C381.819 2273.44 367.116 2288.56 365.374 2306.17C363.675 2323.36 375.036 2335.68 377.29 2338.12C381.863 2343.08 385.217 2344.42 391.422 2346.9C396.323 2348.85 403.002 2351.52 413.465 2357.24C419.959 2360.79 424.379 2363.58 427.936 2365.83C434.221 2369.81 437.811 2372.08 445.391 2373.8ZM469.922 2364.04C460.353 2368.18 451.352 2366.36 445.494 2365.1C438.949 2363.69 435.859 2361.78 430.448 2358.43C427.386 2356.54 423.582 2354.19 417.988 2351.2C408.976 2346.4 403.216 2344.17 398.99 2342.54C393.638 2340.47 390.746 2339.35 386.823 2335.16C384.889 2333.09 375.144 2322.67 376.726 2308.02C378.347 2293 391.164 2280.02 404.037 2275.82C409.496 2274.04 413.431 2274.34 417.265 2274.62C421.592 2274.95 425.789 2275.27 431.902 2272.57C437.579 2270.07 439.956 2267.16 442.405 2264.15C444.544 2261.53 446.738 2258.84 451.234 2256.3C465.619 2248.17 489.134 2249.72 500.573 2262.84C507.662 2270.97 507.9 2281 507.982 2284.47C508.137 2291.02 506.538 2294.53 503.846 2300.45C501.956 2304.61 499.527 2309.95 496.787 2318.36C494.625 2325 493.588 2329.5 492.761 2333.09C491.499 2338.57 490.725 2341.93 487.181 2347.53C483.9 2352.72 479.119 2360.06 469.922 2364.04Z" fill="#43BCFF"/>
<path d="M574.376 2351.91C567.201 2362.93 547.519 2363.26 535.261 2356.63C521.321 2349.09 512.022 2329.86 519.706 2318.45C527.04 2307.56 547.383 2307.45 559.954 2314.97C572.621 2322.55 581.807 2340.5 574.376 2351.91ZM537.426 2352.98C547.581 2358.48 563.886 2358.2 569.829 2349.07C575.985 2339.62 568.376 2324.75 557.882 2318.47C547.468 2312.24 530.616 2312.33 524.54 2321.36C518.174 2330.81 525.878 2346.74 537.426 2352.98Z" fill="#43BCFF"/>
<path d="M539.822 2432.75C526.666 2439.33 507.486 2428.57 499.413 2415.26C490.232 2400.14 492.145 2376.35 506.017 2369.67C519.257 2363.3 538.945 2374.66 546.818 2389C554.751 2403.44 553.449 2425.94 539.822 2432.75ZM503.655 2412.55C510.26 2423.43 525.95 2432.24 536.713 2426.86C547.861 2421.28 548.926 2402.88 542.436 2391.06C535.995 2379.33 519.889 2370.04 509.058 2375.25C497.71 2380.71 496.145 2400.17 503.655 2412.55Z" fill="#43BCFF"/>
<path d="M399.95 2366.91C413.055 2368.03 421.254 2385.09 420.006 2398.91C418.588 2414.64 404.452 2431.77 390.775 2430.4C377.721 2429.08 369.47 2411.34 371.417 2396.82C373.378 2382.19 386.376 2365.75 399.95 2366.91ZM415.4 2398.74C416.414 2387.5 409.753 2373.65 399.106 2372.74C388.078 2371.8 377.518 2385.15 375.924 2397.04C374.343 2408.83 381.046 2423.25 391.652 2424.32C402.764 2425.44 414.248 2411.51 415.4 2398.74Z" fill="#43BCFF"/>
<path d="M468.382 2462.65C454.099 2466.03 438.321 2451.01 433.852 2436.09C428.769 2419.13 436.502 2396.27 451.496 2392.96C465.807 2389.81 481.927 2405.53 485.948 2421.41C490 2437.42 483.175 2459.15 468.382 2462.65ZM438.292 2434.81C441.996 2447.17 455.074 2459.63 466.912 2456.83C479.174 2453.92 484.83 2435.91 481.472 2422.64C478.139 2409.48 464.778 2396.45 452.916 2399.06C440.488 2401.8 434.08 2420.75 438.292 2434.81Z" fill="#43BCFF"/>
<path d="M805.261 2441.94C813.523 2432.98 829.555 2428.27 838.145 2436.16C847.042 2444.33 844.125 2462.5 835.771 2472.4C827.48 2482.22 810.969 2487.3 802.281 2479.56C793.179 2471.45 795.867 2452.14 805.261 2441.94Z" fill="#43BCFF"/>
<path d="M763.676 2341.86C752.002 2337.78 740.415 2324.74 743.288 2313.57C746.264 2302 763.474 2297.41 776.009 2301.2C788.448 2304.97 800.58 2318.3 797.883 2329.5C795.058 2341.24 776.95 2346.51 763.676 2341.86Z" fill="#43BCFF"/>
<path d="M746.973 2399.79C733.461 2402.37 714.941 2396.21 711.337 2383.75C707.605 2370.85 721.481 2356.74 735.653 2353.4C749.716 2350.08 768.928 2356.23 772.718 2368.62C776.69 2381.6 762.337 2396.86 746.973 2399.79Z" fill="#43BCFF"/>
<path d="M772.73 2454.82C760.329 2460.7 741.076 2459.27 734.71 2447.96C728.117 2436.25 738.186 2418.99 751.044 2412.2C763.804 2405.46 783.718 2406.71 790.247 2417.9C797.088 2429.62 786.831 2448.14 772.73 2454.82Z" fill="#43BCFF"/>
<path d="M790.166 2391.57C793.67 2401.57 801.364 2407.07 806.434 2410.58C815.304 2416.74 819.193 2415.72 836.372 2421.65C859.041 2429.47 859.834 2433.86 870.527 2433.97C873.472 2434 888.313 2434.15 898.493 2422.91C908.925 2411.39 909.953 2392.9 904.187 2380.38C898.981 2369.07 891.352 2369.4 887.2 2357.28C883.37 2346.11 888.759 2342.61 886.213 2331.65C882.414 2315.3 864.77 2298.76 846.668 2299.19C835.449 2299.46 827.557 2306.17 824.831 2308.48C816.058 2315.94 817.612 2321.16 806.553 2340.12C797.457 2355.72 793.847 2356.57 790.809 2367.32C789.109 2373.34 786.798 2381.95 790.166 2391.57Z" fill="#43BCFF"/>
</svg>
