<svg width="1566" height="2948" viewBox="0 0 1566 2948" fill="none" xmlns="http://www.w3.org/2000/svg">
<path d="M809.912 846.072C825.176 854.428 837.224 875.017 829.257 889.635C821.005 904.776 794.831 906.997 778.237 898.834C761.768 890.734 749.044 869.611 756.77 854.908C764.863 839.505 792.555 836.57 809.912 846.072Z" fill="#FCA11D"/>
<path d="M934.23 753.968C935.868 736.387 949.931 715.843 966.396 715.974C983.451 716.11 995.745 738.368 994.806 757.042C993.875 775.573 979.589 796.975 963.142 797.099C945.909 797.23 932.368 773.959 934.23 753.968Z" fill="#FCA11D"/>
<path d="M848.218 750.801C839.993 732.97 842.146 705.189 858.163 695.903C874.754 686.285 899.081 700.647 908.593 719.129C918.033 737.469 916.143 766.202 900.285 775.723C883.671 785.699 857.571 771.077 848.218 750.801Z" fill="#FCA11D"/>
<path d="M780.855 805.445C768.439 790.291 763.791 763.124 777.26 750.408C791.211 737.238 818.594 745.239 832.433 760.712C846.166 776.067 851.303 804.084 838.048 816.988C824.161 830.506 794.974 822.677 780.855 805.445Z" fill="#FCA11D"/>
<path d="M874.496 807.801C861.844 816.104 856.884 828.656 853.756 836.893C848.285 851.303 851.045 856.337 848.751 882.181C845.725 916.282 839.91 918.896 843.448 933.747C844.422 937.836 849.331 958.447 868.409 968.677C887.96 979.161 913.94 974.211 929.298 961.907C943.163 950.799 940.078 940.343 955.433 930.415C969.598 921.257 976.305 927.517 990.611 920.211C1011.95 909.315 1028.78 879.171 1021.94 854.243C1017.7 838.793 1005.69 830.17 1001.55 827.192C988.198 817.606 981.5 821.559 951.418 812.773C926.675 805.547 924.25 800.84 908.308 800.336C899.39 800.054 886.656 799.822 874.496 807.801Z" fill="#FCA11D"/>
<path d="M1192.77 184.244C1191.47 212.004 1170.36 243.718 1143.8 242.525C1116.29 241.291 1094.77 205.284 1094.86 175.75C1094.94 146.441 1116.34 113.382 1142.86 114.169C1170.63 114.993 1194.24 152.677 1192.77 184.244Z" fill="#FCA11D"/>
<path d="M1412.05 298.131C1438.42 288.165 1477.76 293.954 1489.11 317.675C1500.86 342.246 1477.53 375.484 1450.07 387.219C1422.82 398.864 1382.1 393.356 1370.4 369.839C1358.14 345.2 1382.05 309.464 1412.05 298.131Z" fill="#FCA11D"/>
<path d="M1356.34 172.471C1376.16 148.175 1417.54 131.802 1442.09 148.284C1467.51 165.355 1463.95 210.329 1444.09 236.928C1424.38 263.323 1381.82 280.741 1357.05 264.653C1331.09 247.798 1333.79 200.099 1356.34 172.471Z" fill="#FCA11D"/>
<path d="M1230.72 114.082C1243.77 85.6459 1279.5 59.9438 1307.19 70.365C1335.86 81.159 1343.56 126.064 1331.05 156.764C1318.64 187.229 1282.03 214.23 1254.22 204.248C1225.09 193.789 1215.88 146.417 1230.72 114.082Z" fill="#FCA11D"/>
<path d="M1292.94 250.121C1272.16 237.78 1250.67 239.456 1236.66 240.738C1212.15 242.981 1206.86 250.468 1168.16 265.283C1117.1 284.83 1109.28 278.317 1090.44 293.797C1085.26 298.06 1059.12 319.545 1057.8 354.091C1056.45 389.493 1081.76 423.31 1110.17 436.731C1135.83 448.848 1148.67 437.095 1173.68 452.176C1196.74 466.088 1192.46 480.099 1212.97 495.512C1243.55 518.503 1298.61 521.539 1329.59 494.26C1348.79 477.352 1352.75 454.077 1354.12 446.039C1358.53 420.167 1348.16 413.324 1339.7 363.997C1332.73 323.425 1337.79 316.647 1327.34 293.416C1321.5 280.419 1312.91 261.982 1292.94 250.121Z" fill="#FCA11D"/>
<path d="M204.481 293.585C215.128 294.478 231.456 295.624 247.215 286.016C262.362 276.781 268.846 262.572 273.257 252.557C278.022 241.741 278.5 235.572 279.28 225.502C279.791 218.908 280.432 210.64 282.491 198.298C285.1 182.658 287.97 172.563 290.203 164.709C293.384 153.522 295.273 146.879 293.275 135.228C292.218 129.067 289.158 111.227 274.533 98.3737C250.938 77.6359 209.123 80.3257 185.935 98.1735C178.688 103.752 175.533 109.061 172.458 114.237C168.937 120.163 165.519 125.914 156.181 131.695C146.126 137.92 138.652 138.331 130.948 138.755C124.122 139.131 117.114 139.517 107.971 143.965C86.4118 154.453 67.2605 180.576 68.3605 207.742C69.434 234.251 89.3385 250.573 93.2874 253.811C101.3 260.382 106.687 261.704 116.655 264.151C124.527 266.084 135.255 268.718 152.39 275.192C163.024 279.21 170.342 282.522 176.232 285.187C186.64 289.897 192.585 292.588 204.481 293.585ZM239.723 273.52C226.047 281.854 211.967 281.009 202.787 280.333C192.53 279.579 187.422 277.33 178.479 273.392C173.418 271.164 167.13 268.395 157.986 265.05C143.253 259.661 134.017 257.499 127.24 255.913C118.659 253.904 114.021 252.819 107.159 247.273C103.778 244.54 86.7344 230.763 86.0221 208.132C85.2921 184.941 102.029 162.474 120.717 153.342C128.642 149.468 134.692 149.082 140.585 148.705C147.237 148.28 153.69 147.867 162.416 142.469C170.52 137.456 173.516 132.516 176.602 127.426C179.297 122.981 182.062 118.421 188.361 113.598C208.514 98.1662 244.617 95.5278 264.811 113.046C277.326 123.903 279.822 139.114 280.685 144.367C282.315 154.301 280.632 159.99 277.797 169.57C275.806 176.296 273.248 184.94 270.87 198.319C268.994 208.876 268.374 215.942 267.88 221.578C267.126 230.185 266.663 235.456 262.465 244.733C258.578 253.322 252.867 265.509 239.723 273.52Z" fill="#FCA11D"/>
<path d="M396.096 232.881C387.526 251.164 357.656 255.865 337.596 248.387C314.785 239.883 296.545 212.608 305.806 193.615C314.645 175.486 345.569 170.993 366.293 179.754C387.177 188.583 404.972 213.944 396.096 232.881ZM340.113 242.379C356.731 248.573 381.476 244.68 388.576 229.534C395.929 213.846 381.187 192.836 363.887 185.522C346.719 178.264 321.101 181.987 313.778 197.005C306.106 212.739 321.217 235.334 340.113 242.379Z" fill="#FCA11D"/>
<path d="M360.739 363.217C342.125 376.028 310.656 363.73 295.542 345.21C278.356 324.15 276.202 287.553 295.885 274.446C314.671 261.935 347.039 275.027 362.067 295.16C377.211 315.447 380.018 349.947 360.739 363.217ZM301.419 340.177C313.783 355.328 339.527 365.389 354.754 354.908C370.526 344.053 368.229 315.83 355.84 299.233C343.546 282.763 317.067 272.053 301.699 282.288C285.598 293.011 287.359 322.949 301.419 340.177Z" fill="#FCA11D"/>
<path d="M133.937 292.822C154.111 291.733 170.214 315.939 171.26 337.24C172.449 361.461 154.592 390.542 133.492 391.355C113.353 392.132 97.025 366.896 96.8959 344.398C96.7658 321.729 113.04 293.949 133.937 292.822ZM164.215 337.955C163.366 320.65 150.283 300.984 133.893 301.868C116.916 302.784 103.694 325.353 103.8 343.771C103.905 362.048 117.17 382.552 133.532 381.92C150.674 381.259 165.181 357.633 164.215 337.955Z" fill="#FCA11D"/>
<path d="M258.418 423.908C237.409 432.088 210.209 412.592 200.235 390.85C188.893 366.126 195.79 329.703 217.897 321.485C238.997 313.641 266.866 334.128 276.363 357.432C285.933 380.916 280.178 415.435 258.418 423.908ZM206.717 387.956C214.984 405.977 237.529 422.136 254.942 415.356C272.978 408.334 277.748 379.722 269.816 360.258C261.945 340.942 238.845 323.961 221.356 330.463C203.033 337.274 197.316 367.464 206.717 387.956Z" fill="#FCA11D"/>
<path d="M411.075 638.608C393.383 626.109 381.404 598.939 393.33 581.992C405.682 564.437 438.365 565.403 457.73 577.851C476.947 590.203 489.686 618.131 478.048 635.217C465.854 653.119 431.193 652.821 411.075 638.608Z" fill="#FCA11D"/>
<path d="M244.275 734.88C239.756 756.389 219.451 779.801 199.108 777.304C178.036 774.718 165.989 745.447 169.798 722.488C173.578 699.703 194.28 675.262 214.638 677.441C235.967 679.723 249.413 710.421 244.275 734.88Z" fill="#FCA11D"/>
<path d="M350.191 750.997C357.834 774.215 351.231 808.265 330.106 817.478C308.225 827.019 280.177 805.808 271.035 781.603C261.963 757.583 268.375 722.319 289.336 712.793C311.297 702.813 341.499 724.597 350.191 750.997Z" fill="#FCA11D"/>
<path d="M441.245 692.971C454.451 713.473 456.345 747.729 437.885 761.543C418.765 775.852 386.035 762.073 371.116 740.976C356.311 720.039 353.931 684.662 372.153 670.585C391.243 655.836 426.228 669.658 441.245 692.971Z" fill="#FCA11D"/>
<path d="M325.775 676.777C342.599 668.304 350.513 653.484 355.549 643.741C364.359 626.697 361.66 620.08 368.161 588.445C376.74 546.702 384.301 544.294 382.033 525.428C381.409 520.233 378.26 494.047 356.118 478.69C333.427 462.953 300.596 465.39 279.858 478.427C261.137 490.197 263.469 503.566 243.072 513.666C224.256 522.983 216.849 514.29 198.121 521.295C170.185 531.744 145.097 566.635 150.02 598.433C153.071 618.14 166.698 630.507 171.405 634.779C186.553 648.526 195.397 644.588 231.353 659.719C260.927 672.165 263.259 678.329 282.901 681.214C293.89 682.827 309.605 684.921 325.775 676.777Z" fill="#FCA11D"/>
<path d="M635.476 343.761C634.573 336.704 633.042 325.914 624.589 316.994C616.465 308.42 606.31 306.179 599.175 304.704C591.468 303.11 587.386 303.659 580.721 304.555C576.356 305.142 570.884 305.878 562.562 306.258C552.015 306.74 545.043 306.279 539.618 305.92C531.891 305.409 527.303 305.106 519.996 308.031C516.132 309.579 504.944 314.058 498.615 325.372C488.404 343.625 495.985 370.474 510.839 383.082C515.481 387.022 519.377 388.336 523.176 389.617C527.525 391.083 531.746 392.506 536.812 397.779C542.266 403.457 543.576 408.266 544.927 413.223C546.123 417.615 547.351 422.123 551.522 427.456C561.356 440.029 581.034 448.856 598.567 444.351C615.676 439.956 623.527 424.722 625.085 421.699C628.246 415.566 628.355 411.874 628.559 405.044C628.719 399.65 628.938 392.298 630.764 380.239C631.897 372.756 633.033 367.529 633.947 363.323C635.563 355.89 636.485 351.644 635.476 343.761ZM617.498 323.614C624.831 331.355 626.244 340.64 627.085 346.711C628.023 353.494 627.271 357.134 625.955 363.505C625.209 367.11 624.284 371.591 623.381 378.01C621.927 388.353 621.807 394.668 621.719 399.301C621.608 405.168 621.548 408.339 618.894 413.579C617.586 416.162 610.993 429.179 596.359 432.798C581.362 436.507 564.401 428.744 555.85 417.85C552.223 413.23 551.127 409.345 550.06 405.561C548.856 401.29 547.688 397.146 542.957 392.218C538.563 387.64 534.929 386.379 531.185 385.079C527.915 383.944 524.561 382.78 520.542 379.352C507.686 368.383 500.934 345.245 509.523 329.656C514.847 319.994 524.402 316.248 527.702 314.954C533.942 312.507 537.88 312.81 544.513 313.32C549.169 313.678 555.154 314.138 564.196 313.821C571.331 313.57 576.017 312.989 579.756 312.524C585.464 311.816 588.961 311.382 595.586 312.822C601.719 314.155 610.45 316.173 617.498 323.614Z" fill="#FCA11D"/>
<path d="M569.216 227.511C582.314 230.541 589.54 249.333 587.468 263.436C585.112 279.472 569.898 295.15 556.241 291.769C543.206 288.542 535.969 269.036 538.783 254.322C541.619 239.494 555.65 224.373 569.216 227.511ZM583.205 262.634C584.922 250.951 578.936 235.384 568.085 232.874C556.846 230.274 545.224 242.801 542.874 255.084C540.543 267.273 546.538 283.433 557.337 286.106C568.65 288.907 581.254 275.919 583.205 262.634Z" fill="#FCA11D"/>
<path d="M659.001 232.36C669.937 242.692 666.318 264.895 656.368 277.317C645.053 291.443 621.527 297.948 610.249 286.961C599.484 276.475 603.495 253.576 614.507 240.985C625.603 228.297 647.673 221.658 659.001 232.36ZM652.272 274.193C660.412 264.031 663.372 245.867 654.426 237.415C645.159 228.66 627.105 234.091 618.027 244.471C609.018 254.771 605.738 273.504 614.544 282.082C623.77 291.07 643.016 285.749 652.272 274.193Z" fill="#FCA11D"/>
<path d="M644.794 389.834C641.273 376.851 654.786 362.992 668.509 359.342C684.112 355.19 705.535 362.761 709.007 376.384C712.321 389.388 698.167 403.537 683.538 406.758C668.797 410.004 648.442 403.282 644.794 389.834ZM669.957 363.828C658.808 366.794 647.829 378.053 650.69 388.601C653.654 399.527 670.191 404.988 682.167 402.351C694.052 399.734 705.551 388.238 702.859 377.674C700.038 366.606 682.633 360.455 669.957 363.828Z" fill="#FCA11D"/>
<path d="M712.778 290.511C721.033 303.048 712.133 323.475 699.368 333.001C684.853 343.832 660.178 344.421 651.745 331.174C643.697 318.53 653.149 297.529 666.997 288.096C680.952 278.591 704.228 277.525 712.778 290.511ZM696.58 329.184C707.161 321.289 714.538 304.358 707.695 293.966C700.608 283.203 681.316 284.087 669.749 291.965C658.271 299.783 650.437 317.19 657.108 327.67C664.098 338.649 684.55 338.161 696.58 329.184Z" fill="#FCA11D"/>
<path d="M614.714 843.49C613.811 836.434 612.28 825.643 603.827 816.723C595.703 808.15 585.548 805.909 578.413 804.434C570.707 802.84 566.624 803.389 559.959 804.285C555.595 804.872 550.123 805.607 541.8 805.988C531.254 806.47 524.281 806.009 518.856 805.65C511.129 805.139 506.541 804.835 499.234 807.761C495.371 809.308 484.183 813.788 477.854 825.101C467.642 843.355 475.224 870.203 490.077 882.811C494.719 886.752 498.615 888.065 502.414 889.346C506.763 890.812 510.984 892.235 516.05 897.509C521.504 903.187 522.814 907.995 524.165 912.952C525.361 917.344 526.59 921.852 530.76 927.185C540.594 939.759 560.272 948.585 577.806 944.081C594.915 939.686 602.766 924.451 604.323 921.429C607.484 915.296 607.594 911.604 607.797 904.773C607.958 899.379 608.177 892.027 610.002 879.969C611.136 872.485 612.271 867.259 613.185 863.053C614.801 855.619 615.724 851.374 614.714 843.49ZM596.737 823.343C604.07 831.085 605.483 840.37 606.323 846.441C607.262 853.224 606.51 856.863 605.193 863.235C604.448 866.84 603.522 871.32 602.619 877.74C601.165 888.083 601.045 894.398 600.958 899.031C600.847 904.898 600.786 908.069 598.132 913.309C596.824 915.891 590.231 928.909 575.597 932.528C560.6 936.237 543.639 928.473 535.088 917.58C531.461 912.96 530.366 909.075 529.299 905.291C528.094 901.019 526.926 896.876 522.195 891.947C517.801 887.37 514.167 886.109 510.423 884.809C507.153 883.674 503.799 882.509 499.781 879.081C486.924 868.112 480.172 844.975 488.762 829.386C494.085 819.723 503.64 815.977 506.94 814.683C513.18 812.237 517.118 812.539 523.751 813.05C528.408 813.408 534.392 813.868 543.434 813.55C550.569 813.3 555.256 812.718 558.994 812.254C564.702 811.545 568.199 811.111 574.824 812.551C580.958 813.884 589.689 815.903 596.737 823.343Z" fill="#FCA11D"/>
<path d="M548.455 727.241C561.553 730.272 568.778 749.063 566.706 763.166C564.351 779.203 549.137 794.881 535.48 791.5C522.445 788.273 515.207 768.766 518.022 754.052C520.858 739.225 534.888 724.103 548.455 727.241ZM562.444 762.365C564.16 750.682 558.174 735.114 547.324 732.604C536.085 730.004 524.462 742.531 522.112 754.814C519.781 767.004 525.777 783.164 536.575 785.837C547.889 788.638 560.492 775.65 562.444 762.365Z" fill="#FCA11D"/>
<path d="M638.239 732.091C649.175 742.423 645.556 764.625 635.606 777.048C624.291 791.173 600.765 797.678 589.487 786.692C578.723 776.205 582.733 753.307 593.745 740.715C604.842 728.027 626.911 721.389 638.239 732.091ZM631.51 773.923C639.65 763.761 642.611 745.598 633.664 737.146C624.397 728.391 606.343 733.821 597.265 744.201C588.257 754.502 584.976 773.234 593.782 781.813C603.008 790.801 622.254 785.479 631.51 773.923Z" fill="#FCA11D"/>
<path d="M624.033 889.565C620.511 876.582 634.025 862.723 647.747 859.072C663.35 854.921 684.773 862.491 688.245 876.115C691.559 889.118 677.405 903.268 662.776 906.489C648.035 909.734 627.68 903.012 624.033 889.565ZM649.195 863.558C638.047 866.525 627.067 877.784 629.929 888.332C632.892 899.257 649.429 904.718 661.405 902.081C673.29 899.464 684.789 887.969 682.097 877.405C679.276 866.336 661.872 860.186 649.195 863.558Z" fill="#FCA11D"/>
<path d="M692.017 790.24C700.272 802.777 691.371 823.204 678.607 832.73C664.092 843.562 639.417 844.15 630.984 830.903C622.935 818.259 632.387 797.258 646.235 787.826C660.19 778.321 683.466 777.255 692.017 790.24ZM675.819 828.913C686.399 821.018 693.776 804.087 686.934 793.696C679.847 782.932 660.554 783.816 648.988 791.694C637.51 799.513 629.675 816.919 636.346 827.399C643.336 838.379 663.788 837.891 675.819 828.913Z" fill="#FCA11D"/>
<path d="M828.102 277.268C835.017 282.392 839.53 293.293 834.64 299.917C829.575 306.779 816.601 306.1 809.021 300.981C801.499 295.901 796.691 284.693 801.468 278.01C806.473 271.009 820.239 271.441 828.102 277.268Z" fill="#FCA11D"/>
<path d="M895.209 240.532C897.198 232.028 905.474 222.912 913.533 224.087C921.88 225.305 926.401 237.04 924.681 246.126C922.974 255.143 914.53 264.664 906.463 263.615C898.011 262.516 892.947 250.201 895.209 240.532Z" fill="#FCA11D"/>
<path d="M853.299 233.173C850.472 223.882 853.402 210.416 861.877 206.947C870.655 203.354 881.604 212.033 885.017 221.73C888.404 231.353 885.539 245.303 877.127 248.898C868.313 252.665 856.513 243.739 853.299 233.173Z" fill="#FCA11D"/>
<path d="M816.606 255.401C811.545 247.138 811.102 233.513 818.559 228.192C826.283 222.681 839.16 228.45 844.896 236.965C850.588 245.415 851.214 259.489 843.849 264.916C836.133 270.603 822.361 264.797 816.606 255.401Z" fill="#FCA11D"/>
<path d="M862.329 262.875C855.57 266.089 852.292 271.904 850.204 275.729C846.551 282.42 847.563 285.073 844.695 297.58C840.911 314.084 837.885 314.973 838.616 322.487C838.817 324.557 839.832 334.987 848.489 341.287C857.36 347.743 870.423 347.071 878.779 342.079C886.322 337.573 885.516 332.241 893.709 328.413C901.268 324.882 904.131 328.402 911.634 325.788C922.825 321.89 933.105 308.257 931.437 295.581C930.403 287.725 925.101 282.69 923.27 280.951C917.377 275.353 913.828 276.838 899.682 270.503C888.047 265.292 887.176 262.823 879.4 261.5C875.049 260.759 868.826 259.786 862.329 262.875Z" fill="#FCA11D"/>
<path d="M1265.97 821.265C1266.24 831.497 1266.88 847.167 1277.69 861.156C1288.09 874.603 1302.3 879.275 1312.31 882.417C1323.11 885.81 1329.03 885.613 1338.7 885.291C1345.04 885.081 1352.98 884.817 1364.95 885.473C1380.12 886.304 1390.03 887.97 1397.75 889.266C1408.74 891.112 1415.26 892.208 1426.14 889.074C1431.9 887.416 1448.56 882.616 1459.25 867.332C1476.51 842.672 1469.52 803.141 1450.08 782.948C1444 776.637 1438.61 774.194 1433.36 771.813C1427.34 769.087 1421.51 766.441 1415.01 758.16C1408.02 749.244 1406.84 742.171 1405.62 734.88C1404.54 728.419 1403.44 721.788 1398.23 713.552C1385.97 694.132 1359.07 678.658 1333.32 682.577C1308.19 686.401 1294.75 707.08 1292.09 711.182C1286.68 719.507 1285.99 724.776 1284.71 734.526C1283.7 742.226 1282.33 752.72 1277.98 769.719C1275.27 780.27 1272.89 787.589 1270.98 793.479C1267.59 803.887 1265.66 809.832 1265.97 821.265ZM1288.8 852.701C1279.42 840.56 1278.74 827.064 1278.41 818.251C1278.04 808.405 1279.64 803.303 1282.45 794.371C1284.03 789.317 1286.01 783.036 1288.22 773.976C1291.8 759.378 1292.88 750.354 1293.67 743.734C1294.68 735.35 1295.22 730.82 1299.78 723.7C1302.02 720.191 1313.34 702.506 1334.81 699.435C1356.82 696.289 1379.98 709.85 1390.65 726.679C1395.18 733.817 1396.19 739.536 1397.17 745.108C1398.28 751.397 1399.35 757.497 1405.41 765.236C1411.04 772.423 1416.06 774.753 1421.24 777.153C1425.76 779.25 1430.39 781.401 1435.65 786.889C1452.47 804.447 1458.8 838.545 1444.26 859.625C1435.24 872.69 1421.02 876.675 1416.11 878.052C1406.82 880.654 1401.23 879.653 1391.81 877.966C1385.19 876.782 1376.69 875.259 1363.7 874.41C1353.45 873.739 1346.65 873.896 1341.24 874.021C1332.96 874.213 1327.89 874.33 1318.62 871.313C1310.03 868.519 1297.82 864.37 1288.8 852.701Z" fill="#FCA11D"/>
<path d="M1344.02 997.314C1325.7 991.087 1318.07 963.141 1323.07 943.25C1328.76 920.63 1352.8 900.379 1371.86 907.189C1390.06 913.69 1397.61 942.66 1391.45 963.32C1385.26 984.138 1362.99 1003.76 1344.02 997.314ZM1329.06 945.012C1324.91 961.49 1331.24 984.641 1346.41 989.8C1362.13 995.143 1380.57 978.885 1385.71 961.638C1390.8 944.524 1384.55 920.524 1369.48 915.139C1353.68 909.497 1333.77 926.274 1329.06 945.012Z" fill="#FCA11D"/>
<path d="M1216.18 977.423C1202.01 961.054 1210.39 929.789 1226.43 913.439C1244.67 894.848 1279.29 888.929 1293.85 906.285C1307.75 922.85 1298.7 955.055 1281.12 971.493C1263.4 988.058 1230.85 994.378 1216.18 977.423ZM1231.84 918.503C1218.72 931.878 1211.86 957.454 1223.45 970.846C1235.46 984.716 1262.09 979.546 1276.58 965.995C1290.97 952.547 1298.36 926.202 1286.99 912.65C1275.08 898.452 1246.76 903.294 1231.84 918.503Z" fill="#FCA11D"/>
<path d="M1259.23 754.021C1262.4 773.117 1241.05 791.008 1220.88 794.256C1197.94 797.949 1168.37 784.02 1165.36 764.015C1162.49 744.921 1184.8 726.705 1206.2 724.204C1227.78 721.683 1255.95 734.243 1259.23 754.021ZM1219.46 787.624C1235.84 784.986 1253.19 770.45 1250.61 754.936C1247.95 738.867 1225.06 728.664 1207.53 730.711C1190.14 732.743 1172.02 747.542 1174.35 763.055C1176.79 779.308 1200.82 790.624 1219.46 787.624Z" fill="#FCA11D"/>
<path d="M1147.57 886.412C1137.56 867.273 1153.25 839.312 1172.9 827.516C1195.24 814.102 1230.65 816.819 1240.82 837C1250.52 856.263 1233.95 884.966 1212.77 896.472C1191.42 908.067 1157.94 906.237 1147.57 886.412ZM1176.34 833.382C1160.05 843.159 1147.05 866.335 1155.35 882.198C1163.94 898.63 1191.69 900.147 1209.38 890.537C1226.95 880.999 1240.67 857.209 1232.63 841.243C1224.21 824.516 1194.86 822.264 1176.34 833.382Z" fill="#FCA11D"/>
<path d="M193.119 964.074C194.991 957.077 202.128 950.173 208.826 951.952C215.763 953.795 219.244 964.16 217.581 971.676C215.931 979.135 208.644 986.365 201.936 984.692C194.909 982.939 190.989 972.031 193.119 964.074Z" fill="#FCA11D"/>
<path d="M143.604 922.891C136.333 923.964 126.638 920.305 125.066 913.633C123.437 906.723 131.225 899.555 138.869 898.092C146.455 896.64 156.519 900.304 158.193 906.943C159.946 913.899 151.872 921.671 143.604 922.891Z" fill="#FCA11D"/>
<path d="M150.807 957.987C144.409 963.073 132.962 964.944 127.626 959.383C122.099 953.623 125.506 942.368 132.041 936.698C138.526 931.071 150.332 928.999 155.747 934.472C161.421 940.206 158.084 952.204 150.807 957.987Z" fill="#FCA11D"/>
<path d="M179.554 979.832C174.651 986.349 164.124 990.909 157.653 986.718C150.95 982.376 151.483 970.513 156.374 963.389C161.228 956.321 172.051 951.478 178.577 955.565C185.415 959.846 185.129 972.422 179.554 979.832Z" fill="#FCA11D"/>
<path d="M171.266 941.733C175.872 946.03 181.437 946.797 185.077 947.249C191.444 948.04 193.208 946.427 203.885 944.804C217.973 942.662 219.604 944.755 225.261 941.859C226.818 941.062 234.669 937.043 236.923 928.318C239.233 919.378 234.667 909.36 228.176 904.364C222.316 899.853 218.392 902.132 212.862 896.903C207.76 892.078 209.63 888.748 205.264 883.684C198.751 876.13 184.901 872.299 175.495 877.525C169.666 880.764 167.364 886.471 166.569 888.442C164.01 894.786 166.269 897.104 165.685 910.136C165.204 920.855 163.541 922.3 164.91 928.797C165.676 932.431 166.839 937.603 171.266 941.733Z" fill="#FCA11D"/>
<path d="M1122.95 573.745C1116.16 572.209 1105.74 569.997 1094.71 574.77C1084.11 579.358 1078.65 587.934 1074.9 593.992C1070.85 600.536 1069.99 604.47 1068.58 610.892C1067.65 615.098 1066.5 620.37 1064.05 628.142C1060.96 637.99 1058.2 644.239 1056.05 649.102C1052.99 656.028 1051.18 660.14 1051.41 667.832C1051.54 671.899 1051.9 683.677 1060.17 693.283C1073.51 708.782 1100.71 710.82 1117.27 701.404C1122.45 698.462 1124.96 695.324 1127.41 692.264C1130.22 688.761 1132.94 685.361 1139.48 682.476C1146.53 679.37 1151.38 679.779 1156.39 680.2C1160.82 680.574 1165.37 680.957 1171.67 678.914C1186.52 674.097 1201.22 658.983 1202.96 641.369C1204.66 624.181 1193.3 611.862 1191.05 609.419C1186.47 604.46 1183.12 603.121 1176.91 600.644C1172.01 598.688 1165.33 596.022 1154.87 590.303C1148.38 586.753 1143.96 583.957 1140.4 581.708C1134.11 577.732 1130.52 575.461 1122.95 573.745ZM1098.41 583.502C1107.98 579.363 1116.98 581.178 1122.84 582.441C1129.39 583.853 1132.48 585.764 1137.89 589.11C1140.95 591.003 1144.75 593.355 1150.35 596.336C1159.36 601.14 1165.12 603.367 1169.35 605.001C1174.7 607.07 1177.59 608.188 1181.51 612.383C1183.45 614.45 1193.19 624.869 1191.61 639.524C1189.99 654.542 1177.17 667.517 1164.3 671.719C1158.84 673.502 1154.9 673.205 1151.07 672.916C1146.74 672.591 1142.55 672.274 1136.43 674.967C1130.76 677.468 1128.38 680.383 1125.93 683.386C1123.79 686.009 1121.6 688.7 1117.1 691.241C1102.72 699.372 1079.2 697.817 1067.76 684.701C1060.67 676.572 1060.44 666.54 1060.35 663.075C1060.2 656.523 1061.8 653.008 1064.49 647.087C1066.38 642.93 1068.81 637.588 1071.55 629.177C1073.71 622.539 1074.75 618.039 1075.57 614.45C1076.84 608.97 1077.61 605.613 1081.15 600.01C1084.44 594.824 1089.22 587.481 1098.41 583.502Z" fill="#FCA11D"/>
<path d="M993.956 595.63C1001.13 584.615 1020.81 584.279 1033.07 590.91C1047.01 598.45 1056.31 617.68 1048.63 629.09C1041.29 639.981 1020.95 640.088 1008.38 632.57C995.711 624.995 986.525 607.038 993.956 595.63ZM1030.91 594.557C1020.75 589.064 1004.45 589.342 998.503 598.466C992.347 607.917 999.956 622.793 1010.45 629.069C1020.86 635.297 1037.72 635.208 1043.79 626.186C1050.16 616.734 1042.45 600.803 1030.91 594.557Z" fill="#FCA11D"/>
<path d="M1028.51 514.789C1041.67 508.208 1060.85 518.976 1068.92 532.28C1078.1 547.408 1076.19 571.197 1062.32 577.872C1049.07 584.243 1029.39 572.883 1021.51 558.547C1013.58 544.101 1014.88 521.605 1028.51 514.789ZM1064.68 534.994C1058.07 524.111 1042.38 515.302 1031.62 520.686C1020.47 526.262 1019.41 544.665 1025.9 556.483C1032.34 568.21 1048.44 577.504 1059.27 572.292C1070.62 566.831 1072.19 547.37 1064.68 534.994Z" fill="#FCA11D"/>
<path d="M1168.38 580.633C1155.28 579.515 1147.08 562.457 1148.33 548.629C1149.74 532.906 1163.88 515.768 1177.56 517.146C1190.61 518.462 1198.86 536.206 1196.92 550.722C1194.95 565.35 1181.96 581.791 1168.38 580.633ZM1152.93 548.804C1151.92 560.037 1158.58 573.896 1169.23 574.805C1180.25 575.746 1190.81 562.388 1192.41 550.504C1193.99 538.71 1187.29 524.295 1176.68 523.226C1165.57 522.106 1154.08 536.029 1152.93 548.804Z" fill="#FCA11D"/>
<path d="M1099.95 484.89C1114.23 481.511 1130.01 496.534 1134.48 511.452C1139.56 528.415 1131.83 551.275 1116.84 554.58C1102.52 557.733 1086.4 542.011 1082.38 526.129C1078.33 510.125 1085.16 488.389 1099.95 484.89ZM1130.04 512.733C1126.34 500.368 1113.26 487.916 1101.42 490.717C1089.16 493.617 1083.5 511.633 1086.86 524.898C1090.19 538.062 1103.55 551.093 1115.42 548.479C1127.84 545.741 1134.25 526.792 1130.04 512.733Z" fill="#FCA11D"/>
<path d="M763.071 505.6C754.809 514.563 738.777 519.27 730.187 511.383C721.29 503.213 724.207 485.046 732.561 475.146C740.852 465.321 757.363 460.244 766.051 467.982C775.153 476.088 772.465 495.408 763.071 505.6Z" fill="#FCA11D"/>
<path d="M804.656 605.681C816.33 609.767 827.917 622.801 825.044 633.971C822.068 645.541 804.858 650.134 792.323 646.338C779.884 642.571 767.752 629.241 770.449 618.04C773.274 606.304 791.382 601.035 804.656 605.681Z" fill="#FCA11D"/>
<path d="M821.355 547.749C834.867 545.173 853.387 551.334 856.991 563.793C860.724 576.697 846.847 590.805 832.675 594.145C818.612 597.46 799.401 591.317 795.61 578.927C791.638 565.947 805.991 550.678 821.355 547.749Z" fill="#FCA11D"/>
<path d="M795.602 492.718C808.003 486.84 827.256 488.275 833.622 499.581C840.215 511.291 830.146 528.552 817.288 535.342C804.528 542.081 784.614 540.835 778.085 529.643C771.244 517.917 781.501 499.401 795.602 492.718Z" fill="#FCA11D"/>
<path d="M778.166 555.975C774.662 545.971 766.968 540.477 761.898 536.958C753.028 530.802 749.139 531.827 731.96 525.897C709.291 518.074 708.498 513.679 697.805 513.572C694.86 513.543 680.02 513.395 669.839 524.633C659.407 536.15 658.379 554.647 664.145 567.168C669.351 578.471 676.981 578.142 681.132 590.259C684.962 601.436 679.573 604.937 682.119 615.897C685.918 632.245 703.562 648.783 721.664 648.349C732.883 648.08 740.775 641.376 743.501 639.06C752.274 631.607 750.72 626.386 761.779 607.423C770.875 591.826 774.485 590.973 777.523 580.222C779.223 574.208 781.534 565.591 778.166 555.975Z" fill="#FCA11D"/>
<path d="M755.424 1147.47C740.16 1139.11 728.112 1118.53 736.079 1103.91C744.331 1088.77 770.504 1086.55 787.099 1094.71C803.568 1102.81 816.292 1123.93 808.566 1138.63C800.473 1154.04 772.781 1156.97 755.424 1147.47Z" fill="#FCA11D"/>
<path d="M631.106 1239.58C629.468 1257.16 615.405 1277.7 598.94 1277.57C581.885 1277.44 569.591 1255.18 570.529 1236.5C571.461 1217.97 585.747 1196.57 602.194 1196.45C619.427 1196.32 632.968 1219.59 631.106 1239.58Z" fill="#FCA11D"/>
<path d="M717.118 1242.74C725.343 1260.57 723.19 1288.35 707.173 1297.64C690.582 1307.26 666.255 1292.9 656.743 1274.41C647.303 1256.07 649.193 1227.34 665.051 1217.82C681.665 1207.84 707.765 1222.47 717.118 1242.74Z" fill="#FCA11D"/>
<path d="M784.481 1188.1C796.897 1203.25 801.545 1230.42 788.076 1243.14C774.125 1256.31 746.741 1248.31 732.903 1232.83C719.17 1217.48 714.033 1189.46 727.288 1176.56C741.174 1163.04 770.362 1170.87 784.481 1188.1Z" fill="#FCA11D"/>
<path d="M690.84 1185.74C703.492 1177.44 708.452 1164.89 711.58 1156.65C717.051 1142.24 714.291 1137.21 716.585 1111.36C719.611 1077.26 725.425 1074.65 721.888 1059.8C720.914 1055.71 716.005 1035.1 696.927 1024.87C677.376 1014.38 651.396 1019.33 636.038 1031.64C622.173 1042.75 625.258 1053.2 609.903 1063.13C595.738 1072.29 589.031 1066.03 574.725 1073.33C553.385 1084.23 536.555 1114.37 543.394 1139.3C547.633 1154.75 559.642 1163.37 563.789 1166.35C577.138 1175.94 583.836 1171.99 613.918 1180.77C638.661 1188 641.086 1192.7 657.027 1193.21C665.946 1193.49 678.68 1193.72 690.84 1185.74Z" fill="#FCA11D"/>
<path d="M372.567 1809.3C373.866 1781.54 394.973 1749.82 421.533 1751.02C449.044 1752.25 470.567 1788.26 470.479 1817.79C470.392 1847.1 448.991 1880.16 422.479 1879.37C394.703 1878.55 371.091 1840.87 372.567 1809.3Z" fill="#FCA11D"/>
<path d="M153.291 1695.41C126.913 1705.38 87.5775 1699.59 76.2301 1675.87C64.4765 1651.3 87.8075 1618.06 115.264 1606.32C142.511 1594.68 183.233 1600.19 194.935 1623.7C207.195 1648.34 183.285 1684.08 153.291 1695.41Z" fill="#FCA11D"/>
<path d="M209 1821.07C189.173 1845.37 147.796 1861.74 123.248 1845.26C97.8209 1828.19 101.39 1783.21 121.249 1756.62C140.957 1730.22 183.516 1712.8 208.29 1728.89C234.246 1745.74 231.546 1793.44 209 1821.07Z" fill="#FCA11D"/>
<path d="M334.614 1879.46C321.565 1907.9 285.833 1933.6 258.149 1923.18C229.475 1912.38 221.773 1867.48 234.283 1836.78C246.699 1806.31 283.308 1779.31 311.112 1789.3C340.241 1799.75 349.453 1847.13 334.614 1879.46Z" fill="#FCA11D"/>
<path d="M272.395 1743.42C293.174 1755.76 314.663 1754.09 328.675 1752.8C353.188 1750.56 358.48 1743.07 397.175 1728.26C448.235 1708.71 456.06 1715.23 474.893 1699.74C480.08 1695.48 506.22 1674 507.536 1639.45C508.884 1604.05 483.579 1570.23 455.162 1556.81C429.508 1544.69 416.662 1556.45 391.658 1541.37C368.591 1527.45 372.876 1513.44 352.37 1498.03C321.781 1475.04 266.731 1472 235.748 1499.28C216.545 1516.19 212.582 1539.46 211.214 1547.5C206.809 1573.38 217.174 1580.22 225.64 1629.54C232.603 1670.12 227.549 1676.9 237.993 1700.13C243.836 1713.12 252.424 1731.56 272.395 1743.42Z" fill="#FCA11D"/>
<path d="M1360.86 1699.96C1350.21 1699.07 1333.88 1697.92 1318.12 1707.53C1302.97 1716.76 1296.49 1730.97 1292.08 1740.99C1287.31 1751.8 1286.84 1757.97 1286.06 1768.04C1285.54 1774.63 1284.9 1782.9 1282.85 1795.24C1280.24 1810.89 1277.37 1820.98 1275.13 1828.83C1271.95 1840.02 1270.06 1846.66 1272.06 1858.31C1273.12 1864.48 1276.18 1882.32 1290.8 1895.17C1314.4 1915.91 1356.21 1913.22 1379.4 1895.37C1386.65 1889.79 1389.8 1884.48 1392.88 1879.31C1396.4 1873.38 1399.82 1867.63 1409.15 1861.85C1419.21 1855.62 1426.68 1855.21 1434.39 1854.79C1441.21 1854.41 1448.22 1854.03 1457.36 1849.58C1478.92 1839.09 1498.08 1812.97 1496.98 1785.8C1495.9 1759.29 1476 1742.97 1472.05 1739.73C1464.04 1733.16 1458.65 1731.84 1448.68 1729.39C1440.81 1727.46 1430.08 1724.83 1412.95 1718.35C1402.31 1714.33 1394.99 1711.02 1389.1 1708.36C1378.7 1703.65 1372.75 1700.96 1360.86 1699.96ZM1325.61 1720.02C1339.29 1711.69 1353.37 1712.53 1362.55 1713.21C1372.81 1713.96 1377.91 1716.21 1386.86 1720.15C1391.92 1722.38 1398.21 1725.15 1407.35 1728.49C1422.08 1733.88 1431.32 1736.04 1438.1 1737.63C1446.68 1739.64 1451.32 1740.72 1458.18 1746.27C1461.56 1749 1478.6 1762.78 1479.31 1785.41C1480.04 1808.6 1463.31 1831.07 1444.62 1840.2C1436.69 1844.07 1430.64 1844.46 1424.75 1844.84C1418.1 1845.26 1411.65 1845.68 1402.92 1851.07C1394.82 1856.09 1391.82 1861.03 1388.73 1866.12C1386.04 1870.56 1383.27 1875.12 1376.97 1879.94C1356.82 1895.38 1320.72 1898.02 1300.53 1880.5C1288.01 1869.64 1285.51 1854.43 1284.65 1849.18C1283.02 1839.24 1284.7 1833.55 1287.54 1823.97C1289.53 1817.25 1292.09 1808.6 1294.47 1795.22C1296.34 1784.67 1296.96 1777.6 1297.46 1771.96C1298.21 1763.36 1298.67 1758.09 1302.87 1748.81C1306.76 1740.22 1312.47 1728.03 1325.61 1720.02Z" fill="#FCA11D"/>
<path d="M1169.24 1760.66C1177.81 1742.38 1207.68 1737.68 1227.74 1745.16C1250.55 1753.66 1268.79 1780.93 1259.53 1799.93C1250.69 1818.06 1219.77 1822.55 1199.04 1813.79C1178.16 1804.96 1160.36 1779.6 1169.24 1760.66ZM1225.22 1751.16C1208.6 1744.97 1183.86 1748.86 1176.76 1764.01C1169.41 1779.7 1184.15 1800.71 1201.45 1808.02C1218.62 1815.28 1244.24 1811.56 1251.56 1796.54C1259.23 1780.8 1244.12 1758.21 1225.22 1751.16Z" fill="#FCA11D"/>
<path d="M1204.6 1630.33C1223.21 1617.51 1254.68 1629.81 1269.79 1648.33C1286.98 1669.39 1289.13 1705.99 1269.45 1719.1C1250.67 1731.61 1218.3 1718.52 1203.27 1698.38C1188.13 1678.1 1185.32 1643.6 1204.6 1630.33ZM1263.92 1653.37C1251.55 1638.21 1225.81 1628.15 1210.58 1638.63C1194.81 1649.49 1197.11 1677.71 1209.5 1694.31C1221.79 1710.78 1248.27 1721.49 1263.64 1711.26C1279.74 1700.53 1277.98 1670.59 1263.92 1653.37Z" fill="#FCA11D"/>
<path d="M1431.4 1700.72C1411.22 1701.81 1395.12 1677.6 1394.08 1656.3C1392.89 1632.08 1410.74 1603 1431.84 1602.19C1451.98 1601.41 1468.31 1626.65 1468.44 1649.14C1468.57 1671.81 1452.3 1699.59 1431.4 1700.72ZM1401.12 1655.59C1401.97 1672.89 1415.05 1692.56 1431.44 1691.67C1448.42 1690.76 1461.64 1668.19 1461.54 1649.77C1461.43 1631.49 1448.17 1610.99 1431.8 1611.62C1414.66 1612.28 1400.15 1635.91 1401.12 1655.59Z" fill="#FCA11D"/>
<path d="M1306.92 1569.64C1327.93 1561.46 1355.13 1580.95 1365.1 1602.69C1376.44 1627.42 1369.55 1663.84 1347.44 1672.06C1326.34 1679.9 1298.47 1659.42 1288.97 1636.11C1279.4 1612.63 1285.16 1578.11 1306.92 1569.64ZM1358.62 1605.59C1350.35 1587.57 1327.81 1571.41 1310.39 1578.19C1292.36 1585.21 1287.59 1613.82 1295.52 1633.29C1303.39 1652.6 1326.49 1669.58 1343.98 1663.08C1362.3 1656.27 1368.02 1626.08 1358.62 1605.59Z" fill="#FCA11D"/>
<path d="M1154.26 1354.93C1171.95 1367.43 1183.93 1394.6 1172 1411.55C1159.65 1429.1 1126.97 1428.14 1107.6 1415.69C1088.39 1403.34 1075.65 1375.41 1087.28 1358.32C1099.48 1340.42 1134.14 1340.72 1154.26 1354.93Z" fill="#FCA11D"/>
<path d="M1321.06 1258.66C1325.58 1237.15 1345.88 1213.74 1366.22 1216.24C1387.3 1218.83 1399.34 1248.1 1395.53 1271.06C1391.75 1293.84 1371.05 1318.28 1350.69 1316.1C1329.36 1313.82 1315.92 1283.12 1321.06 1258.66Z" fill="#FCA11D"/>
<path d="M1215.14 1242.55C1207.5 1219.33 1214.1 1185.28 1235.23 1176.07C1257.11 1166.52 1285.16 1187.74 1294.3 1211.94C1303.37 1235.96 1296.96 1271.22 1276 1280.75C1254.03 1290.73 1223.83 1268.95 1215.14 1242.55Z" fill="#FCA11D"/>
<path d="M1124.09 1300.57C1110.88 1280.07 1108.99 1245.81 1127.45 1232C1146.57 1217.69 1179.3 1231.47 1194.22 1252.57C1209.02 1273.5 1211.4 1308.88 1193.18 1322.96C1174.09 1337.71 1139.1 1323.88 1124.09 1300.57Z" fill="#FCA11D"/>
<path d="M1239.56 1316.76C1222.73 1325.24 1214.82 1340.06 1209.78 1349.8C1200.97 1366.84 1203.67 1373.46 1197.17 1405.1C1188.59 1446.84 1181.03 1449.25 1183.3 1468.11C1183.92 1473.31 1187.07 1499.49 1209.21 1514.85C1231.9 1530.59 1264.74 1528.15 1285.47 1515.11C1304.2 1503.34 1301.86 1489.97 1322.26 1479.88C1341.08 1470.56 1348.48 1479.25 1367.21 1472.25C1395.15 1461.8 1420.24 1426.91 1415.31 1395.11C1412.26 1375.4 1398.63 1363.03 1393.93 1358.76C1378.78 1345.02 1369.93 1348.95 1333.98 1333.82C1304.41 1321.38 1302.07 1315.21 1282.43 1312.33C1271.44 1310.71 1255.73 1308.62 1239.56 1316.76Z" fill="#FCA11D"/>
<path d="M929.856 1649.78C930.759 1656.84 932.29 1667.63 940.743 1676.55C948.867 1685.12 959.022 1687.36 966.157 1688.84C973.864 1690.43 977.946 1689.88 984.611 1688.99C988.976 1688.4 994.448 1687.66 1002.77 1687.28C1013.32 1686.8 1020.29 1687.26 1025.71 1687.62C1033.44 1688.13 1038.03 1688.44 1045.34 1685.51C1049.2 1683.96 1060.39 1679.48 1066.72 1668.17C1076.93 1649.92 1069.35 1623.07 1054.49 1610.46C1049.85 1606.52 1045.95 1605.21 1042.16 1603.93C1037.81 1602.46 1033.59 1601.04 1028.52 1595.76C1023.07 1590.08 1021.76 1585.28 1020.41 1580.32C1019.21 1575.93 1017.98 1571.42 1013.81 1566.09C1003.98 1553.51 984.298 1544.69 966.765 1549.19C949.656 1553.59 941.805 1568.82 940.247 1571.84C937.086 1577.98 936.977 1581.67 936.773 1588.5C936.613 1593.89 936.394 1601.24 934.568 1613.3C933.435 1620.79 932.299 1626.01 931.385 1630.22C929.769 1637.65 928.847 1641.9 929.856 1649.78ZM947.834 1669.93C940.501 1662.19 939.088 1652.9 938.247 1646.83C937.309 1640.05 938.061 1636.41 939.377 1630.04C940.123 1626.43 941.048 1621.95 941.951 1615.53C943.405 1605.19 943.525 1598.87 943.613 1594.24C943.724 1588.37 943.784 1585.2 946.438 1579.96C947.746 1577.38 954.339 1564.36 968.973 1560.74C983.97 1557.03 1000.93 1564.8 1009.48 1575.69C1013.11 1580.31 1014.2 1584.2 1015.27 1587.98C1016.48 1592.25 1017.64 1596.4 1022.38 1601.32C1026.77 1605.9 1030.4 1607.16 1034.15 1608.46C1037.42 1609.6 1040.77 1610.76 1044.79 1614.19C1057.65 1625.16 1064.4 1648.3 1055.81 1663.89C1050.49 1673.55 1040.93 1677.29 1037.63 1678.59C1031.39 1681.03 1027.45 1680.73 1020.82 1680.22C1016.16 1679.86 1010.18 1679.4 1001.14 1679.72C994.001 1679.97 989.315 1680.55 985.576 1681.02C979.868 1681.73 976.371 1682.16 969.746 1680.72C963.613 1679.39 954.882 1677.37 947.834 1669.93Z" fill="#FCA11D"/>
<path d="M996.116 1766.03C983.018 1763 975.792 1744.21 977.864 1730.11C980.22 1714.07 995.434 1698.39 1009.09 1701.77C1022.13 1705 1029.36 1724.51 1026.55 1739.22C1023.71 1754.05 1009.68 1769.17 996.116 1766.03ZM982.127 1730.91C980.41 1742.59 986.396 1758.16 997.247 1760.67C1008.49 1763.27 1020.11 1750.74 1022.46 1738.46C1024.79 1726.27 1018.79 1710.11 1008 1707.44C996.682 1704.64 984.078 1717.62 982.127 1730.91Z" fill="#FCA11D"/>
<path d="M906.331 1761.18C895.395 1750.85 899.014 1728.65 908.964 1716.23C920.279 1702.1 943.805 1695.6 955.083 1706.58C965.848 1717.07 961.837 1739.97 950.825 1752.56C939.729 1765.25 917.659 1771.88 906.331 1761.18ZM913.06 1719.35C904.92 1729.51 901.96 1747.68 910.906 1756.13C920.173 1764.88 938.227 1759.45 947.305 1749.07C956.314 1738.77 959.594 1720.04 950.788 1711.46C941.562 1702.47 922.316 1707.79 913.06 1719.35Z" fill="#FCA11D"/>
<path d="M920.538 1603.71C924.059 1616.69 910.546 1630.55 896.823 1634.2C881.22 1638.35 859.797 1630.78 856.325 1617.16C853.011 1604.16 867.165 1590.01 881.794 1586.78C896.535 1583.54 916.89 1590.26 920.538 1603.71ZM895.375 1629.71C906.524 1626.75 917.503 1615.49 914.642 1604.94C911.678 1594.02 895.141 1588.56 883.165 1591.19C871.28 1593.81 859.781 1605.3 862.473 1615.87C865.294 1626.94 882.699 1633.09 895.375 1629.71Z" fill="#FCA11D"/>
<path d="M852.554 1703.03C844.299 1690.5 853.199 1670.07 865.964 1660.54C880.479 1649.71 905.154 1649.12 913.587 1662.37C921.636 1675.01 912.183 1696.02 898.335 1705.45C884.38 1714.95 861.104 1716.02 852.554 1703.03ZM868.752 1664.36C858.171 1672.26 850.795 1689.19 857.637 1699.58C864.724 1710.34 884.016 1709.46 895.583 1701.58C907.061 1693.76 914.895 1676.35 908.224 1665.87C901.234 1654.89 880.782 1655.38 868.752 1664.36Z" fill="#FCA11D"/>
<path d="M950.622 1150.05C951.525 1157.11 953.056 1167.9 961.509 1176.82C969.633 1185.39 979.788 1187.63 986.923 1189.11C994.629 1190.7 998.712 1190.15 1005.38 1189.26C1009.74 1188.67 1015.21 1187.94 1023.54 1187.56C1034.08 1187.07 1041.05 1187.53 1046.48 1187.89C1054.21 1188.4 1058.79 1188.71 1066.1 1185.78C1069.97 1184.23 1081.15 1179.76 1087.48 1168.44C1097.69 1150.19 1090.11 1123.34 1075.26 1110.73C1070.62 1106.79 1066.72 1105.48 1062.92 1104.2C1058.57 1102.73 1054.35 1101.31 1049.29 1096.03C1043.83 1090.36 1042.52 1085.55 1041.17 1080.59C1039.97 1076.2 1038.75 1071.69 1034.58 1066.36C1024.74 1053.78 1005.06 1044.96 987.53 1049.46C970.421 1053.86 962.57 1069.09 961.013 1072.11C957.852 1078.25 957.742 1081.94 957.539 1088.77C957.378 1094.16 957.159 1101.52 955.334 1113.57C954.2 1121.06 953.065 1126.28 952.15 1130.49C950.535 1137.92 949.612 1142.17 950.622 1150.05ZM968.599 1170.2C961.266 1162.46 959.853 1153.17 959.013 1147.1C958.074 1140.32 958.826 1136.68 960.143 1130.31C960.888 1126.7 961.814 1122.22 962.717 1115.8C964.171 1105.46 964.291 1099.15 964.378 1094.51C964.489 1088.65 964.549 1085.47 967.204 1080.23C968.512 1077.65 975.105 1064.63 989.739 1061.01C1004.74 1057.31 1021.7 1065.07 1030.25 1075.96C1033.87 1080.58 1034.97 1084.47 1036.04 1088.25C1037.24 1092.52 1038.41 1096.67 1043.14 1101.6C1047.53 1106.17 1051.17 1107.43 1054.91 1108.73C1058.18 1109.87 1061.54 1111.03 1065.56 1114.46C1078.41 1125.43 1085.16 1148.57 1076.57 1164.16C1071.25 1173.82 1061.7 1177.57 1058.4 1178.86C1052.16 1181.31 1048.22 1181 1041.58 1180.49C1036.93 1180.14 1030.94 1179.68 1021.9 1179.99C1014.77 1180.24 1010.08 1180.82 1006.34 1181.29C1000.63 1182 997.137 1182.43 990.512 1180.99C984.378 1179.66 975.647 1177.64 968.599 1170.2Z" fill="#FCA11D"/>
<path d="M1016.88 1266.3C1003.78 1263.27 996.558 1244.48 998.63 1230.38C1000.99 1214.34 1016.2 1198.66 1029.86 1202.05C1042.89 1205.27 1050.13 1224.78 1047.31 1239.49C1044.48 1254.32 1030.45 1269.44 1016.88 1266.3ZM1002.89 1231.18C1001.18 1242.86 1007.16 1258.43 1018.01 1260.94C1029.25 1263.54 1040.87 1251.01 1043.22 1238.73C1045.56 1226.54 1039.56 1210.38 1028.76 1207.71C1017.45 1204.91 1004.84 1217.9 1002.89 1231.18Z" fill="#FCA11D"/>
<path d="M927.097 1261.45C916.161 1251.12 919.78 1228.92 929.73 1216.5C941.045 1202.37 964.571 1195.87 975.849 1206.85C986.613 1217.34 982.603 1240.24 971.591 1252.83C960.494 1265.52 938.425 1272.16 927.097 1261.45ZM933.826 1219.62C925.686 1229.78 922.725 1247.95 931.672 1256.4C940.939 1265.15 958.993 1259.72 968.071 1249.34C977.079 1239.04 980.36 1220.31 971.554 1211.73C962.328 1202.74 943.082 1208.07 933.826 1219.62Z" fill="#FCA11D"/>
<path d="M941.303 1103.98C944.825 1116.96 931.311 1130.82 917.589 1134.47C901.986 1138.62 880.563 1131.05 877.091 1117.43C873.777 1104.43 887.931 1090.28 902.559 1087.06C917.301 1083.81 937.656 1090.53 941.303 1103.98ZM916.141 1129.99C927.289 1127.02 938.269 1115.76 935.407 1105.21C932.444 1094.29 915.907 1088.83 903.931 1091.46C892.046 1094.08 880.547 1105.58 883.239 1116.14C886.06 1127.21 903.464 1133.36 916.141 1129.99Z" fill="#FCA11D"/>
<path d="M873.319 1203.3C865.064 1190.77 873.964 1170.34 886.729 1160.81C901.244 1149.98 925.919 1149.39 934.352 1162.64C942.401 1175.29 932.949 1196.29 919.101 1205.72C905.146 1215.22 881.87 1216.29 873.319 1203.3ZM889.517 1164.63C878.937 1172.53 871.56 1189.46 878.402 1199.85C885.489 1210.61 904.782 1209.73 916.348 1201.85C927.826 1194.03 935.661 1176.63 928.989 1166.15C922 1155.17 901.548 1155.65 889.517 1164.63Z" fill="#FCA11D"/>
<path d="M737.23 1716.28C730.315 1711.15 725.802 1700.25 730.692 1693.63C735.757 1686.76 748.731 1687.44 756.311 1692.56C763.833 1697.64 768.641 1708.85 763.864 1715.53C758.859 1722.53 745.093 1722.1 737.23 1716.28Z" fill="#FCA11D"/>
<path d="M670.123 1753.01C668.134 1761.51 659.858 1770.63 651.799 1769.45C643.452 1768.24 638.931 1756.5 640.651 1747.41C642.358 1738.4 650.802 1728.88 658.869 1729.93C667.321 1731.02 672.385 1743.34 670.123 1753.01Z" fill="#FCA11D"/>
<path d="M712.033 1760.37C714.86 1769.66 711.93 1783.13 703.455 1786.6C694.678 1790.19 683.728 1781.51 680.315 1771.81C676.928 1762.19 679.793 1748.24 688.205 1744.64C697.019 1740.88 708.819 1749.8 712.033 1760.37Z" fill="#FCA11D"/>
<path d="M748.726 1738.14C753.787 1746.4 754.23 1760.03 746.773 1765.35C739.049 1770.86 726.172 1765.09 720.436 1756.58C714.744 1748.13 714.118 1734.05 721.483 1728.62C729.199 1722.94 742.972 1728.74 748.726 1738.14Z" fill="#FCA11D"/>
<path d="M703.003 1730.67C709.762 1727.45 713.04 1721.64 715.128 1717.81C718.781 1711.12 717.769 1708.47 720.637 1695.96C724.421 1679.46 727.447 1678.57 726.716 1671.05C726.515 1668.98 725.5 1658.55 716.843 1652.25C707.972 1645.8 694.909 1646.47 686.553 1651.46C679.01 1655.97 679.816 1661.3 671.623 1665.13C664.065 1668.66 661.201 1665.14 653.698 1667.75C642.507 1671.65 632.227 1685.28 633.895 1697.96C634.929 1705.82 640.231 1710.85 642.062 1712.59C647.955 1718.19 651.504 1716.7 665.65 1723.04C677.285 1728.25 678.156 1730.72 685.932 1732.04C690.283 1732.78 696.506 1733.75 703.003 1730.67Z" fill="#FCA11D"/>
<path d="M299.363 1172.28C299.088 1162.05 298.453 1146.38 287.638 1132.39C277.243 1118.94 263.028 1114.27 253.026 1111.13C242.223 1107.73 236.299 1107.93 226.628 1108.25C220.295 1108.46 212.354 1108.73 200.385 1108.07C185.216 1107.24 175.301 1105.57 167.586 1104.28C156.597 1102.43 150.072 1101.33 139.189 1104.47C133.434 1106.13 116.771 1110.93 106.078 1126.21C88.826 1150.87 95.8076 1190.4 115.254 1210.6C121.331 1216.91 126.72 1219.35 131.974 1221.73C137.989 1224.46 143.827 1227.1 150.318 1235.38C157.308 1244.3 158.49 1251.37 159.708 1258.66C160.788 1265.12 161.896 1271.76 167.098 1279.99C179.364 1299.41 206.263 1314.89 232.014 1310.97C257.142 1307.14 270.58 1286.46 273.245 1282.36C278.655 1274.04 279.345 1268.77 280.621 1259.02C281.629 1251.32 283.003 1240.82 287.356 1223.82C290.058 1213.27 292.438 1205.95 294.353 1200.06C297.738 1189.66 299.671 1183.71 299.363 1172.28ZM276.532 1140.84C285.913 1152.98 286.597 1166.48 286.924 1175.29C287.29 1185.14 285.688 1190.24 282.884 1199.17C281.297 1204.23 279.326 1210.51 277.107 1219.57C273.533 1234.17 272.451 1243.19 271.658 1249.81C270.652 1258.19 270.109 1262.72 265.553 1269.84C263.308 1273.35 251.992 1291.04 230.518 1294.11C208.512 1297.25 185.351 1283.69 174.679 1266.86C170.153 1259.73 169.145 1254.01 168.164 1248.43C167.056 1242.15 165.981 1236.05 159.918 1228.31C154.288 1221.12 149.268 1218.79 144.095 1216.39C139.577 1214.29 134.943 1212.14 129.684 1206.65C112.86 1189.1 106.531 1155 121.077 1133.92C130.092 1120.85 144.312 1116.87 149.223 1115.49C158.51 1112.89 164.104 1113.89 173.526 1115.58C180.141 1116.76 188.642 1118.28 201.633 1119.13C211.884 1119.8 218.678 1119.65 224.096 1119.52C232.371 1119.33 237.44 1119.21 246.717 1122.23C255.306 1125.02 267.515 1129.17 276.532 1140.84Z" fill="#FCA11D"/>
<path d="M221.314 996.229C239.629 1002.46 247.262 1030.4 242.262 1050.29C236.577 1072.91 212.534 1093.16 193.47 1086.35C175.273 1079.85 167.725 1050.88 173.877 1030.22C180.076 1009.4 202.344 989.779 221.314 996.229ZM236.275 1048.53C240.417 1032.05 234.094 1008.9 218.921 1003.74C203.206 998.4 184.759 1014.66 179.624 1031.9C174.528 1049.02 180.78 1073.02 195.855 1078.4C211.648 1084.05 231.565 1067.27 236.275 1048.53Z" fill="#FCA11D"/>
<path d="M349.157 1016.12C363.324 1032.49 354.94 1063.75 338.903 1080.1C320.666 1098.69 286.047 1104.61 271.485 1087.26C257.587 1070.69 266.631 1038.49 284.213 1022.05C301.929 1005.49 334.483 999.165 349.157 1016.12ZM333.489 1075.04C346.609 1061.66 353.467 1036.09 341.878 1022.7C329.874 1008.83 303.243 1014 288.75 1027.55C274.367 1041 266.968 1067.34 278.338 1080.89C290.25 1095.09 318.571 1090.25 333.489 1075.04Z" fill="#FCA11D"/>
<path d="M306.101 1239.52C302.931 1220.43 324.278 1202.53 344.45 1199.29C367.387 1195.59 396.966 1209.52 399.971 1229.53C402.84 1248.62 380.536 1266.84 359.128 1269.34C337.555 1271.86 309.383 1259.3 306.101 1239.52ZM345.876 1205.92C329.487 1208.56 312.145 1223.09 314.719 1238.61C317.386 1254.68 340.274 1264.88 357.8 1262.83C375.193 1260.8 393.313 1246 390.983 1230.49C388.541 1214.23 364.511 1202.92 345.876 1205.92Z" fill="#FCA11D"/>
<path d="M417.76 1107.13C427.77 1126.27 412.081 1154.23 392.433 1166.03C370.09 1179.44 334.679 1176.72 324.516 1156.54C314.817 1137.28 331.378 1108.58 352.565 1097.07C373.914 1085.48 407.392 1087.31 417.76 1107.13ZM388.992 1160.16C405.278 1150.38 418.281 1127.21 409.984 1111.34C401.391 1094.91 373.643 1093.4 355.947 1103.01C338.387 1112.54 324.66 1136.33 332.699 1152.3C341.122 1169.03 370.473 1171.28 388.992 1160.16Z" fill="#FCA11D"/>
<path d="M1372.21 1029.47C1370.34 1036.47 1363.2 1043.37 1356.51 1041.59C1349.57 1039.75 1346.09 1029.38 1347.75 1021.87C1349.4 1014.41 1356.69 1007.18 1363.4 1008.85C1370.42 1010.6 1374.34 1021.51 1372.21 1029.47Z" fill="#FCA11D"/>
<path d="M1421.73 1070.65C1429 1069.58 1438.69 1073.24 1440.27 1079.91C1441.89 1086.82 1434.11 1093.99 1426.46 1095.45C1418.88 1096.9 1408.81 1093.24 1407.14 1086.6C1405.39 1079.64 1413.46 1071.87 1421.73 1070.65Z" fill="#FCA11D"/>
<path d="M1414.52 1035.56C1420.92 1030.47 1432.37 1028.6 1437.71 1034.16C1443.23 1039.92 1439.83 1051.17 1433.29 1056.85C1426.81 1062.47 1415 1064.54 1409.58 1059.07C1403.91 1053.34 1407.25 1041.34 1414.52 1035.56Z" fill="#FCA11D"/>
<path d="M1385.78 1013.71C1390.68 1007.19 1401.21 1002.63 1407.68 1006.83C1414.38 1011.17 1413.85 1023.03 1408.96 1030.15C1404.1 1037.22 1393.28 1042.06 1386.75 1037.98C1379.92 1033.7 1380.2 1021.12 1385.78 1013.71Z" fill="#FCA11D"/>
<path d="M1394.07 1051.81C1389.46 1047.51 1383.89 1046.75 1380.26 1046.29C1373.89 1045.5 1372.12 1047.12 1361.45 1048.74C1347.36 1050.88 1345.73 1048.79 1340.07 1051.68C1338.51 1052.48 1330.66 1056.5 1328.41 1065.22C1326.1 1074.17 1330.67 1084.18 1337.16 1089.18C1343.02 1093.69 1346.94 1091.41 1352.47 1096.64C1357.57 1101.46 1355.7 1104.79 1360.07 1109.86C1366.58 1117.41 1380.43 1121.24 1389.84 1116.02C1395.67 1112.78 1397.97 1107.07 1398.76 1105.1C1401.32 1098.76 1399.06 1096.44 1399.65 1083.41C1400.13 1072.69 1401.79 1071.24 1400.42 1064.75C1399.66 1061.11 1398.49 1055.94 1394.07 1051.81Z" fill="#FCA11D"/>
<path d="M442.387 1419.8C449.171 1421.33 459.595 1423.55 470.622 1418.77C481.22 1414.19 486.683 1405.61 490.43 1399.55C494.477 1393.01 495.342 1389.07 496.753 1382.65C497.678 1378.45 498.836 1373.17 501.277 1365.4C504.37 1355.55 507.131 1349.3 509.28 1344.44C512.34 1337.52 514.157 1333.4 513.919 1325.71C513.794 1321.64 513.43 1309.87 505.161 1300.26C491.819 1284.76 464.617 1282.72 448.057 1292.14C442.882 1295.08 440.369 1298.22 437.919 1301.28C435.114 1304.78 432.392 1308.18 425.85 1311.07C418.806 1314.17 413.951 1313.76 408.945 1313.34C404.51 1312.97 399.958 1312.59 393.661 1314.63C378.816 1319.45 364.112 1334.56 362.37 1352.17C360.671 1369.36 372.032 1381.68 374.286 1384.12C378.859 1389.08 382.213 1390.42 388.418 1392.9C393.319 1394.85 399.999 1397.52 410.462 1403.24C416.955 1406.79 421.375 1409.59 424.932 1411.84C431.217 1415.81 434.807 1418.08 442.387 1419.8ZM466.918 1410.04C457.349 1414.18 448.348 1412.37 442.49 1411.1C435.945 1409.69 432.855 1407.78 427.444 1404.43C424.383 1402.54 420.578 1400.19 414.984 1397.21C405.972 1392.4 400.212 1390.18 395.986 1388.54C390.635 1386.47 387.742 1385.36 383.819 1381.16C381.886 1379.09 372.14 1368.67 373.722 1354.02C375.343 1339 388.161 1326.03 401.033 1321.82C406.492 1320.04 410.427 1320.34 414.261 1320.63C418.588 1320.95 422.785 1321.27 428.898 1318.58C434.576 1316.07 436.952 1313.16 439.401 1310.16C441.54 1307.53 443.734 1304.84 448.23 1302.3C462.615 1294.17 486.13 1295.73 497.569 1308.84C504.658 1316.97 504.896 1327 504.978 1330.47C505.133 1337.02 503.534 1340.54 500.842 1346.46C498.952 1350.61 496.523 1355.96 493.783 1364.37C491.621 1371 490.584 1375.5 489.757 1379.09C488.495 1384.57 487.721 1387.93 484.177 1393.53C480.896 1398.72 476.115 1406.06 466.918 1410.04Z" fill="#FCA11D"/>
<path d="M571.376 1397.91C564.201 1408.93 544.519 1409.26 532.261 1402.63C518.321 1395.09 509.022 1375.86 516.706 1364.45C524.04 1353.56 544.383 1353.45 556.954 1360.97C569.621 1368.55 578.807 1386.5 571.376 1397.91ZM534.426 1398.99C544.581 1404.48 560.886 1404.2 566.829 1395.08C572.985 1385.63 565.376 1370.75 554.882 1364.47C544.468 1358.25 527.616 1358.34 521.54 1367.36C515.174 1376.81 522.878 1392.74 534.426 1398.99Z" fill="#FCA11D"/>
<path d="M536.822 1478.75C523.666 1485.33 504.486 1474.57 496.413 1461.26C487.232 1446.14 489.145 1422.35 503.017 1415.67C516.257 1409.3 535.945 1420.66 543.818 1435C551.751 1449.44 550.449 1471.94 536.822 1478.75ZM500.655 1458.55C507.26 1469.43 522.95 1478.24 533.713 1472.86C544.861 1467.28 545.926 1448.88 539.436 1437.06C532.995 1425.33 516.889 1416.04 506.058 1421.25C494.71 1426.71 493.145 1446.17 500.655 1458.55Z" fill="#FCA11D"/>
<path d="M396.946 1412.91C410.052 1414.03 418.25 1431.09 417.003 1444.91C415.584 1460.64 401.448 1477.78 387.772 1476.4C374.717 1475.08 366.467 1457.34 368.413 1442.82C370.374 1428.19 383.372 1411.75 396.946 1412.91ZM412.396 1444.74C413.41 1433.51 406.749 1419.65 396.102 1418.74C385.074 1417.8 374.514 1431.16 372.92 1443.04C371.339 1454.83 378.042 1469.25 388.648 1470.32C399.76 1471.44 411.244 1457.51 412.396 1444.74Z" fill="#FCA11D"/>
<path d="M465.382 1508.65C451.099 1512.03 435.321 1497.01 430.852 1482.09C425.769 1465.13 433.502 1442.27 448.496 1438.96C462.807 1435.81 478.927 1451.53 482.948 1467.41C487 1483.42 480.175 1505.15 465.382 1508.65ZM435.292 1480.81C438.996 1493.18 452.074 1505.63 463.912 1502.83C476.174 1499.93 481.83 1481.91 478.472 1468.65C475.139 1455.48 461.778 1442.45 449.916 1445.06C437.488 1447.8 431.08 1466.75 435.292 1480.81Z" fill="#FCA11D"/>
<path d="M802.261 1487.94C810.523 1478.98 826.555 1474.27 835.145 1482.16C844.042 1490.33 841.125 1508.5 832.771 1518.4C824.48 1528.22 807.969 1533.3 799.281 1525.56C790.179 1517.45 792.867 1498.14 802.261 1487.94Z" fill="#FCA11D"/>
<path d="M760.676 1387.86C749.002 1383.78 737.415 1370.74 740.288 1359.57C743.264 1348 760.474 1343.41 773.009 1347.2C785.448 1350.97 797.58 1364.3 794.883 1375.5C792.058 1387.24 773.95 1392.51 760.676 1387.86Z" fill="#FCA11D"/>
<path d="M743.977 1445.79C730.465 1448.37 711.945 1442.21 708.341 1429.75C704.608 1416.85 718.485 1402.74 732.657 1399.4C746.72 1396.08 765.931 1402.23 769.722 1414.62C773.694 1427.6 759.341 1442.86 743.977 1445.79Z" fill="#FCA11D"/>
<path d="M769.73 1500.83C757.329 1506.7 738.076 1505.27 731.71 1493.96C725.117 1482.25 735.186 1464.99 748.044 1458.2C760.804 1451.46 780.718 1452.71 787.247 1463.9C794.088 1475.63 783.831 1494.14 769.73 1500.83Z" fill="#FCA11D"/>
<path d="M787.166 1437.57C790.67 1447.57 798.364 1453.07 803.434 1456.58C812.304 1462.74 816.193 1461.72 833.372 1467.65C856.041 1475.47 856.834 1479.86 867.527 1479.97C870.472 1480 885.313 1480.15 895.493 1468.91C905.925 1457.39 906.953 1438.9 901.187 1426.38C895.981 1415.07 888.352 1415.4 884.2 1403.28C880.37 1392.11 885.759 1388.61 883.213 1377.65C879.414 1361.3 861.77 1344.76 843.668 1345.19C832.449 1345.46 824.557 1352.17 821.831 1354.48C813.058 1361.94 814.612 1367.16 803.553 1386.12C794.457 1401.72 790.847 1402.57 787.809 1413.32C786.109 1419.34 783.798 1427.95 787.166 1437.57Z" fill="#FCA11D"/>
<path d="M840.994 1910.4C848.568 1914.49 854.588 1924.63 850.692 1931.89C846.656 1939.4 833.718 1940.58 825.486 1936.59C817.317 1932.63 810.961 1922.22 814.737 1914.93C818.694 1907.29 832.381 1905.75 840.994 1910.4Z" fill="#FCA11D"/>
<path d="M902.178 1864.48C902.935 1855.78 909.829 1845.58 917.973 1845.59C926.408 1845.61 932.555 1856.58 932.147 1865.82C931.742 1874.98 924.741 1885.61 916.606 1885.72C908.084 1885.84 901.317 1874.37 902.178 1864.48Z" fill="#FCA11D"/>
<path d="M859.649 1863.17C855.528 1854.37 856.509 1840.63 864.403 1835.98C872.58 1831.18 884.654 1838.21 889.414 1847.32C894.138 1856.36 893.289 1870.58 885.475 1875.34C877.288 1880.32 864.336 1873.17 859.649 1863.17Z" fill="#FCA11D"/>
<path d="M826.499 1890.4C820.312 1882.94 817.932 1869.52 824.555 1863.19C831.415 1856.63 844.983 1860.51 851.874 1868.12C858.711 1875.67 861.336 1889.51 854.82 1895.93C847.992 1902.66 833.533 1898.88 826.499 1890.4Z" fill="#FCA11D"/>
<path d="M872.819 1891.28C866.587 1895.42 864.171 1901.65 862.649 1905.73C859.987 1912.87 861.366 1915.35 860.31 1928.14C858.915 1945.02 856.048 1946.33 857.842 1953.66C858.336 1955.68 860.825 1965.86 870.292 1970.86C879.992 1975.99 892.827 1973.46 900.386 1967.33C907.21 1961.8 905.653 1956.63 913.217 1951.68C920.195 1947.11 923.531 1950.18 930.584 1946.52C941.106 1941.07 949.339 1926.11 945.882 1913.8C943.739 1906.18 937.774 1901.95 935.714 1900.49C929.083 1895.79 925.782 1897.76 910.878 1893.51C898.619 1890.01 897.405 1887.69 889.52 1887.48C885.108 1887.37 878.809 1887.3 872.819 1891.28Z" fill="#FCA11D"/>
<path d="M758.42 2101.47C743.156 2093.11 731.108 2072.53 739.075 2057.91C747.327 2042.77 773.501 2040.55 790.095 2048.71C806.564 2056.81 819.288 2077.93 811.562 2092.63C803.469 2108.04 775.777 2110.97 758.42 2101.47Z" fill="#FCA11D"/>
<path d="M634.102 2193.57C632.464 2211.16 618.401 2231.7 601.936 2231.57C584.881 2231.43 572.587 2209.17 573.526 2190.5C574.457 2171.97 588.743 2150.57 605.19 2150.44C622.423 2150.31 635.964 2173.58 634.102 2193.57Z" fill="#FCA11D"/>
<path d="M720.114 2196.74C728.339 2214.57 726.186 2242.35 710.169 2251.64C693.578 2261.26 669.251 2246.9 659.739 2228.41C650.299 2210.07 652.189 2181.34 668.047 2171.82C684.661 2161.84 710.761 2176.47 720.114 2196.74Z" fill="#FCA11D"/>
<path d="M787.477 2142.1C799.893 2157.25 804.541 2184.42 791.072 2197.13C777.121 2210.3 749.738 2202.3 735.899 2186.83C722.166 2171.48 717.029 2143.46 730.284 2130.56C744.171 2117.04 773.358 2124.87 787.477 2142.1Z" fill="#FCA11D"/>
<path d="M693.836 2139.74C706.488 2131.44 711.448 2118.89 714.576 2110.65C720.047 2096.24 717.288 2091.21 719.581 2065.36C722.607 2031.26 728.422 2028.65 724.884 2013.8C723.91 2009.71 719.001 1989.1 699.923 1978.87C680.372 1968.38 654.392 1973.33 639.034 1985.64C625.169 1996.74 628.254 2007.2 612.899 2017.13C598.734 2026.29 592.027 2020.03 577.721 2027.33C556.381 2038.23 539.551 2068.37 546.39 2093.3C550.63 2108.75 562.638 2117.37 566.785 2120.35C580.134 2129.94 586.832 2125.98 616.914 2134.77C641.657 2142 644.082 2146.7 660.024 2147.21C668.942 2147.49 681.676 2147.72 693.836 2139.74Z" fill="#FCA11D"/>
<path d="M375.564 2763.3C376.862 2735.54 397.969 2703.82 424.529 2705.02C452.04 2706.25 473.563 2742.26 473.475 2771.79C473.388 2801.1 451.987 2834.16 425.475 2833.37C397.699 2832.55 374.087 2794.87 375.564 2763.3Z" fill="#FCA11D"/>
<path d="M156.287 2649.41C129.909 2659.38 90.5736 2653.59 79.2262 2629.87C67.4726 2605.3 90.8036 2572.06 118.26 2560.32C145.507 2548.68 186.229 2554.19 197.931 2577.7C210.191 2602.34 186.281 2638.08 156.287 2649.41Z" fill="#FCA11D"/>
<path d="M211.996 2775.07C192.169 2799.37 150.792 2815.74 126.244 2799.26C100.817 2782.19 104.386 2737.21 124.245 2710.62C143.953 2684.22 186.512 2666.8 211.286 2682.89C237.242 2699.74 234.542 2747.44 211.996 2775.07Z" fill="#FCA11D"/>
<path d="M337.611 2833.46C324.561 2861.9 288.829 2887.6 261.145 2877.18C232.471 2866.38 224.769 2821.48 237.279 2790.78C249.695 2760.31 286.304 2733.31 314.108 2743.3C343.237 2753.75 352.449 2801.13 337.611 2833.46Z" fill="#FCA11D"/>
<path d="M275.391 2697.42C296.17 2709.76 317.659 2708.09 331.671 2706.8C356.184 2704.56 361.476 2697.07 400.171 2682.26C451.231 2662.71 459.056 2669.23 477.89 2653.74C483.076 2649.48 509.216 2628 510.532 2593.45C511.88 2558.05 486.575 2524.23 458.158 2510.81C432.504 2498.69 419.659 2510.45 394.654 2495.37C371.587 2481.45 375.872 2467.44 355.366 2452.03C324.777 2429.04 269.727 2426 238.744 2453.28C219.541 2470.19 215.578 2493.46 214.21 2501.5C209.805 2527.38 220.17 2534.22 228.636 2583.54C235.6 2624.12 230.545 2630.9 240.989 2654.13C246.832 2667.12 255.42 2685.56 275.391 2697.42Z" fill="#FCA11D"/>
<path d="M1363.85 2653.96C1353.2 2653.07 1336.88 2651.92 1321.12 2661.53C1305.97 2670.76 1299.49 2684.97 1295.07 2694.99C1290.31 2705.8 1289.83 2711.97 1289.05 2722.04C1288.54 2728.63 1287.9 2736.9 1285.84 2749.24C1283.23 2764.89 1280.36 2774.98 1278.13 2782.83C1274.95 2794.02 1273.06 2800.66 1275.06 2812.31C1276.11 2818.48 1279.17 2836.32 1293.8 2849.17C1317.39 2869.91 1359.21 2867.22 1382.4 2849.37C1389.64 2843.79 1392.8 2838.48 1395.87 2833.31C1399.4 2827.38 1402.81 2821.63 1412.15 2815.85C1422.21 2809.62 1429.68 2809.21 1437.38 2808.79C1444.21 2808.41 1451.22 2808.03 1460.36 2803.58C1481.92 2793.09 1501.07 2766.97 1499.97 2739.8C1498.9 2713.29 1478.99 2696.97 1475.04 2693.73C1467.03 2687.16 1461.64 2685.84 1451.68 2683.39C1443.81 2681.46 1433.08 2678.83 1415.94 2672.35C1405.31 2668.33 1397.99 2665.02 1392.1 2662.36C1381.69 2657.65 1375.75 2654.96 1363.85 2653.96ZM1328.61 2674.02C1342.28 2665.69 1356.37 2666.53 1365.55 2667.21C1375.8 2667.96 1380.91 2670.21 1389.85 2674.15C1394.91 2676.38 1401.2 2679.15 1410.35 2682.49C1425.08 2687.88 1434.32 2690.04 1441.09 2691.63C1449.67 2693.64 1454.31 2694.72 1461.17 2700.27C1464.55 2703 1481.6 2716.78 1482.31 2739.41C1483.04 2762.6 1466.3 2785.07 1447.62 2794.2C1439.69 2798.07 1433.64 2798.46 1427.75 2798.84C1421.1 2799.26 1414.64 2799.68 1405.92 2805.07C1397.81 2810.09 1394.82 2815.03 1391.73 2820.12C1389.03 2824.56 1386.27 2829.12 1379.97 2833.94C1359.82 2849.38 1323.71 2852.02 1303.52 2834.5C1291.01 2823.64 1288.51 2808.43 1287.65 2803.18C1286.02 2793.24 1287.7 2787.55 1290.54 2777.97C1292.53 2771.25 1295.08 2762.6 1297.46 2749.22C1299.34 2738.67 1299.96 2731.6 1300.45 2725.96C1301.21 2717.36 1301.67 2712.09 1305.87 2702.81C1309.75 2694.22 1315.46 2682.03 1328.61 2674.02Z" fill="#FCA11D"/>
<path d="M1172.24 2714.66C1180.81 2696.38 1210.68 2691.68 1230.74 2699.16C1253.55 2707.66 1271.79 2734.93 1262.53 2753.93C1253.69 2772.06 1222.76 2776.55 1202.04 2767.79C1181.16 2758.96 1163.36 2733.6 1172.24 2714.66ZM1228.22 2705.16C1211.6 2698.97 1186.86 2702.86 1179.76 2718.01C1172.4 2733.7 1187.14 2754.71 1204.45 2762.02C1221.61 2769.28 1247.23 2765.56 1254.55 2750.54C1262.23 2734.8 1247.12 2712.21 1228.22 2705.16Z" fill="#FCA11D"/>
<path d="M1207.59 2584.33C1226.21 2571.51 1257.68 2583.81 1272.79 2602.33C1289.98 2623.39 1292.13 2659.99 1272.45 2673.1C1253.66 2685.61 1221.29 2672.52 1206.26 2652.38C1191.12 2632.1 1188.31 2597.6 1207.59 2584.33ZM1266.91 2607.37C1254.55 2592.21 1228.81 2582.15 1213.58 2592.63C1197.81 2603.49 1200.1 2631.71 1212.49 2648.31C1224.79 2664.78 1251.26 2675.49 1266.63 2665.26C1282.73 2654.53 1280.97 2624.59 1266.91 2607.37Z" fill="#FCA11D"/>
<path d="M1434.4 2654.72C1414.22 2655.81 1398.12 2631.6 1397.07 2610.3C1395.88 2586.08 1413.74 2557 1434.84 2556.19C1454.98 2555.41 1471.31 2580.65 1471.44 2603.14C1471.57 2625.81 1455.29 2653.59 1434.4 2654.72ZM1404.12 2609.59C1404.97 2626.89 1418.05 2646.56 1434.44 2645.67C1451.42 2644.76 1464.64 2622.19 1464.53 2603.77C1464.43 2585.49 1451.16 2564.99 1434.8 2565.62C1417.66 2566.28 1403.15 2589.91 1404.12 2609.59Z" fill="#FCA11D"/>
<path d="M1309.91 2523.64C1330.92 2515.46 1358.12 2534.95 1368.1 2556.69C1379.44 2581.42 1372.54 2617.84 1350.44 2626.06C1329.33 2633.9 1301.47 2613.42 1291.97 2590.11C1282.4 2566.63 1288.15 2532.11 1309.91 2523.64ZM1361.61 2559.59C1353.35 2541.57 1330.8 2525.41 1313.39 2532.19C1295.35 2539.21 1290.58 2567.82 1298.52 2587.29C1306.39 2606.6 1329.49 2623.58 1346.98 2617.08C1365.3 2610.27 1371.02 2580.08 1361.61 2559.59Z" fill="#FCA11D"/>
<path d="M1157.26 2308.93C1174.95 2321.43 1186.93 2348.6 1175 2365.55C1162.65 2383.1 1129.97 2382.14 1110.6 2369.69C1091.39 2357.34 1078.65 2329.41 1090.28 2312.32C1102.48 2294.42 1137.14 2294.72 1157.26 2308.93Z" fill="#FCA11D"/>
<path d="M1324.06 2212.66C1328.58 2191.15 1348.88 2167.74 1369.22 2170.24C1390.3 2172.83 1402.34 2202.1 1398.53 2225.06C1394.75 2247.84 1374.05 2272.28 1353.69 2270.1C1332.36 2267.82 1318.92 2237.12 1324.06 2212.66Z" fill="#FCA11D"/>
<path d="M1218.14 2196.55C1210.5 2173.33 1217.1 2139.28 1238.23 2130.07C1260.11 2120.52 1288.16 2141.74 1297.3 2165.94C1306.37 2189.96 1299.96 2225.22 1279 2234.75C1257.03 2244.73 1226.83 2222.95 1218.14 2196.55Z" fill="#FCA11D"/>
<path d="M1127.09 2254.57C1113.88 2234.07 1111.99 2199.81 1130.45 2186C1149.57 2171.69 1182.3 2185.47 1197.22 2206.57C1212.02 2227.5 1214.4 2262.88 1196.18 2276.96C1177.09 2291.71 1142.1 2277.88 1127.09 2254.57Z" fill="#FCA11D"/>
<path d="M1242.56 2270.76C1225.73 2279.24 1217.82 2294.06 1212.78 2303.8C1203.97 2320.84 1206.67 2327.46 1200.17 2359.1C1191.59 2400.84 1184.03 2403.25 1186.3 2422.11C1186.92 2427.31 1190.07 2453.49 1212.21 2468.85C1234.9 2484.59 1267.74 2482.15 1288.47 2469.11C1307.2 2457.34 1304.86 2443.97 1325.26 2433.88C1344.08 2424.56 1351.48 2433.25 1370.21 2426.25C1398.15 2415.8 1423.24 2380.91 1418.31 2349.11C1415.26 2329.4 1401.63 2317.03 1396.93 2312.76C1381.78 2299.02 1372.93 2302.95 1336.98 2287.82C1307.41 2275.38 1305.07 2269.21 1285.43 2266.33C1274.44 2264.71 1258.73 2262.62 1242.56 2270.76Z" fill="#FCA11D"/>
<path d="M932.856 2603.78C933.759 2610.84 935.29 2621.63 943.743 2630.55C951.867 2639.12 962.022 2641.36 969.157 2642.84C976.864 2644.43 980.946 2643.88 987.611 2642.99C991.976 2642.4 997.448 2641.67 1005.77 2641.29C1016.32 2640.8 1023.29 2641.26 1028.71 2641.62C1036.44 2642.13 1041.03 2642.44 1048.34 2639.51C1052.2 2637.97 1063.39 2633.49 1069.72 2622.17C1079.93 2603.92 1072.35 2577.07 1057.49 2564.46C1052.85 2560.52 1048.95 2559.21 1045.16 2557.93C1040.81 2556.46 1036.59 2555.04 1031.52 2549.76C1026.07 2544.09 1024.76 2539.28 1023.41 2534.32C1022.21 2529.93 1020.98 2525.42 1016.81 2520.09C1006.98 2507.51 987.298 2498.69 969.765 2503.19C952.656 2507.59 944.805 2522.82 943.247 2525.84C940.086 2531.98 939.977 2535.67 939.773 2542.5C939.613 2547.89 939.394 2555.25 937.568 2567.3C936.435 2574.79 935.299 2580.01 934.385 2584.22C932.769 2591.65 931.847 2595.9 932.856 2603.78ZM950.834 2623.93C943.501 2616.19 942.088 2606.9 941.247 2600.83C940.309 2594.05 941.061 2590.41 942.377 2584.04C943.123 2580.43 944.048 2575.95 944.951 2569.53C946.405 2559.19 946.525 2552.88 946.613 2548.24C946.724 2542.38 946.784 2539.2 949.438 2533.96C950.746 2531.38 957.339 2518.36 971.973 2514.75C986.97 2511.04 1003.93 2518.8 1012.48 2529.69C1016.11 2534.31 1017.2 2538.2 1018.27 2541.98C1019.48 2546.25 1020.64 2550.4 1025.38 2555.33C1029.77 2559.9 1033.4 2561.16 1037.15 2562.46C1040.42 2563.6 1043.77 2564.76 1047.79 2568.19C1060.65 2579.16 1067.4 2602.3 1058.81 2617.89C1053.49 2627.55 1043.93 2631.3 1040.63 2632.59C1034.39 2635.04 1030.45 2634.73 1023.82 2634.22C1019.16 2633.87 1013.18 2633.41 1004.14 2633.72C997.001 2633.97 992.315 2634.56 988.576 2635.02C982.868 2635.73 979.371 2636.16 972.746 2634.72C966.613 2633.39 957.882 2631.37 950.834 2623.93Z" fill="#FCA11D"/>
<path d="M999.116 2720.03C986.018 2717 978.792 2698.21 980.864 2684.11C983.22 2668.07 998.434 2652.39 1012.09 2655.77C1025.13 2659 1032.36 2678.51 1029.55 2693.22C1026.71 2708.05 1012.68 2723.17 999.116 2720.03ZM985.127 2684.91C983.41 2696.59 989.396 2712.16 1000.25 2714.67C1011.49 2717.27 1023.11 2704.74 1025.46 2692.46C1027.79 2680.27 1021.79 2664.11 1011 2661.44C999.682 2658.64 987.078 2671.62 985.127 2684.91Z" fill="#FCA11D"/>
<path d="M909.331 2715.18C898.395 2704.85 902.014 2682.65 911.964 2670.23C923.279 2656.1 946.805 2649.6 958.083 2660.58C968.848 2671.07 964.837 2693.97 953.825 2706.56C942.729 2719.25 920.659 2725.88 909.331 2715.18ZM916.06 2673.35C907.92 2683.51 904.96 2701.68 913.906 2710.13C923.173 2718.88 941.227 2713.45 950.305 2703.07C959.314 2692.77 962.594 2674.04 953.788 2665.46C944.562 2656.47 925.316 2661.79 916.06 2673.35Z" fill="#FCA11D"/>
<path d="M923.538 2557.71C927.059 2570.69 913.546 2584.55 899.823 2588.2C884.22 2592.35 862.797 2584.78 859.325 2571.16C856.011 2558.16 870.165 2544.01 884.794 2540.78C899.535 2537.54 919.89 2544.26 923.538 2557.71ZM898.375 2583.71C909.524 2580.75 920.503 2569.49 917.642 2558.94C914.678 2548.02 898.141 2542.56 886.165 2545.19C874.28 2547.81 862.781 2559.3 865.473 2569.87C868.294 2580.94 885.699 2587.09 898.375 2583.71Z" fill="#FCA11D"/>
<path d="M855.554 2657.03C847.299 2644.5 856.199 2624.07 868.964 2614.54C883.479 2603.71 908.154 2603.12 916.587 2616.37C924.636 2629.01 915.183 2650.02 901.335 2659.45C887.38 2668.95 864.104 2670.02 855.554 2657.03ZM871.752 2618.36C861.171 2626.26 853.795 2643.19 860.637 2653.58C867.724 2664.34 887.016 2663.46 898.583 2655.58C910.061 2647.76 917.895 2630.35 911.224 2619.87C904.234 2608.89 883.782 2609.38 871.752 2618.36Z" fill="#FCA11D"/>
<path d="M953.618 2104.05C954.521 2111.11 956.052 2121.9 964.505 2130.82C972.629 2139.39 982.784 2141.63 989.919 2143.11C997.625 2144.7 1001.71 2144.15 1008.37 2143.26C1012.74 2142.67 1018.21 2141.94 1026.53 2141.56C1037.08 2141.07 1044.05 2141.53 1049.48 2141.89C1057.2 2142.4 1061.79 2142.71 1069.1 2139.78C1072.96 2138.23 1084.15 2133.76 1090.48 2122.44C1100.69 2104.19 1093.11 2077.34 1078.26 2064.73C1073.61 2060.79 1069.72 2059.48 1065.92 2058.2C1061.57 2056.73 1057.35 2055.31 1052.28 2050.03C1046.83 2044.36 1045.52 2039.55 1044.17 2034.59C1042.97 2030.2 1041.74 2025.69 1037.57 2020.36C1027.74 2007.78 1008.06 1998.96 990.526 2003.46C973.417 2007.86 965.566 2023.09 964.009 2026.11C960.848 2032.25 960.738 2035.94 960.535 2042.77C960.374 2048.16 960.155 2055.52 958.33 2067.57C957.197 2075.06 956.061 2080.28 955.147 2084.49C953.531 2091.92 952.608 2096.17 953.618 2104.05ZM971.595 2124.2C964.262 2116.46 962.849 2107.17 962.009 2101.1C961.07 2094.32 961.822 2090.68 963.139 2084.31C963.884 2080.7 964.81 2076.22 965.713 2069.8C967.167 2059.46 967.287 2053.15 967.374 2048.51C967.486 2042.65 967.546 2039.47 970.2 2034.23C971.508 2031.65 978.101 2018.63 992.735 2015.01C1007.73 2011.31 1024.69 2019.07 1033.24 2029.96C1036.87 2034.58 1037.97 2038.47 1039.03 2042.25C1040.24 2046.52 1041.41 2050.67 1046.14 2055.6C1050.53 2060.17 1054.16 2061.43 1057.91 2062.73C1061.18 2063.87 1064.53 2065.03 1068.55 2068.46C1081.41 2079.43 1088.16 2102.57 1079.57 2118.16C1074.25 2127.82 1064.69 2131.57 1061.39 2132.86C1055.15 2135.31 1051.21 2135 1044.58 2134.49C1039.92 2134.14 1033.94 2133.68 1024.9 2133.99C1017.76 2134.24 1013.08 2134.82 1009.34 2135.29C1003.63 2136 1000.13 2136.43 993.508 2134.99C987.374 2133.66 978.643 2131.64 971.595 2124.2Z" fill="#FCA11D"/>
<path d="M1019.88 2220.3C1006.78 2217.27 999.554 2198.48 1001.63 2184.38C1003.98 2168.34 1019.2 2152.66 1032.85 2156.05C1045.89 2159.27 1053.12 2178.78 1050.31 2193.49C1047.47 2208.32 1033.44 2223.44 1019.88 2220.3ZM1005.89 2185.18C1004.17 2196.86 1010.16 2212.43 1021.01 2214.94C1032.25 2217.54 1043.87 2205.01 1046.22 2192.73C1048.55 2180.54 1042.56 2164.38 1031.76 2161.71C1020.44 2158.91 1007.84 2171.9 1005.89 2185.18Z" fill="#FCA11D"/>
<path d="M930.093 2215.45C919.157 2205.12 922.776 2182.92 932.726 2170.5C944.041 2156.37 967.567 2149.87 978.845 2160.85C989.609 2171.34 985.599 2194.24 974.587 2206.83C963.49 2219.52 941.421 2226.16 930.093 2215.45ZM936.822 2173.62C928.682 2183.78 925.721 2201.95 934.668 2210.4C943.935 2219.15 961.989 2213.72 971.067 2203.34C980.075 2193.04 983.356 2174.31 974.55 2165.73C965.324 2156.74 946.078 2162.07 936.822 2173.62Z" fill="#FCA11D"/>
<path d="M944.299 2057.98C947.821 2070.96 934.307 2084.82 920.585 2088.47C904.982 2092.62 883.559 2085.05 880.087 2071.43C876.773 2058.43 890.927 2044.28 905.556 2041.06C920.297 2037.81 940.652 2044.53 944.299 2057.98ZM919.137 2083.99C930.285 2081.02 941.265 2069.76 938.403 2059.21C935.44 2048.29 918.903 2042.83 906.927 2045.46C895.042 2048.08 883.543 2059.58 886.235 2070.14C889.056 2081.21 906.46 2087.36 919.137 2083.99Z" fill="#FCA11D"/>
<path d="M876.315 2157.3C868.06 2144.77 876.961 2124.34 889.725 2114.81C904.24 2103.98 928.915 2103.39 937.348 2116.64C945.397 2129.29 935.945 2150.29 922.097 2159.72C908.142 2169.22 884.866 2170.29 876.315 2157.3ZM892.513 2118.63C881.933 2126.53 874.556 2143.46 881.398 2153.85C888.485 2164.61 907.778 2163.73 919.344 2155.85C930.822 2148.03 938.657 2130.63 931.986 2120.15C924.996 2109.17 904.544 2109.65 892.513 2118.63Z" fill="#FCA11D"/>
<path d="M740.23 2670.28C733.315 2665.15 728.802 2654.25 733.692 2647.63C738.757 2640.76 751.731 2641.44 759.311 2646.56C766.833 2651.64 771.641 2662.85 766.864 2669.53C761.859 2676.53 748.093 2676.1 740.23 2670.28Z" fill="#FCA11D"/>
<path d="M673.123 2707.01C671.134 2715.51 662.858 2724.63 654.799 2723.45C646.452 2722.24 641.931 2710.5 643.651 2701.41C645.358 2692.4 653.802 2682.88 661.869 2683.93C670.321 2685.02 675.385 2697.34 673.123 2707.01Z" fill="#FCA11D"/>
<path d="M715.033 2714.37C717.86 2723.66 714.93 2737.13 706.455 2740.6C697.678 2744.19 686.728 2735.51 683.315 2725.81C679.928 2716.19 682.793 2702.24 691.205 2698.64C700.019 2694.88 711.819 2703.8 715.033 2714.37Z" fill="#FCA11D"/>
<path d="M751.726 2692.14C756.787 2700.4 757.23 2714.03 749.773 2719.35C742.049 2724.86 729.172 2719.09 723.436 2710.58C717.744 2702.13 717.118 2688.05 724.483 2682.62C732.199 2676.94 745.972 2682.74 751.726 2692.14Z" fill="#FCA11D"/>
<path d="M706.003 2684.67C712.762 2681.45 716.04 2675.64 718.128 2671.81C721.781 2665.12 720.769 2662.47 723.637 2649.96C727.421 2633.46 730.447 2632.57 729.716 2625.05C729.515 2622.98 728.5 2612.55 719.843 2606.25C710.972 2599.8 697.909 2600.47 689.553 2605.46C682.01 2609.97 682.816 2615.3 674.623 2619.13C667.065 2622.66 664.201 2619.14 656.698 2621.75C645.507 2625.65 635.227 2639.28 636.895 2651.96C637.929 2659.82 643.231 2664.85 645.062 2666.59C650.955 2672.19 654.504 2670.7 668.65 2677.04C680.285 2682.25 681.156 2684.72 688.932 2686.04C693.283 2686.78 699.506 2687.75 706.003 2684.67Z" fill="#FCA11D"/>
<path d="M302.363 2126.28C302.088 2116.05 301.453 2100.38 290.638 2086.39C280.243 2072.94 266.028 2068.27 256.026 2065.13C245.223 2061.73 239.299 2061.93 229.628 2062.25C223.295 2062.46 215.354 2062.73 203.385 2062.07C188.216 2061.24 178.301 2059.57 170.586 2058.28C159.597 2056.43 153.072 2055.33 142.189 2058.47C136.434 2060.13 119.771 2064.93 109.078 2080.21C91.826 2104.87 98.8076 2144.4 118.254 2164.6C124.331 2170.91 129.72 2173.35 134.974 2175.73C140.989 2178.46 146.827 2181.1 153.318 2189.38C160.308 2198.3 161.49 2205.37 162.708 2212.66C163.788 2219.12 164.896 2225.76 170.098 2233.99C182.364 2253.41 209.263 2268.89 235.014 2264.97C260.142 2261.14 273.58 2240.46 276.245 2236.36C281.655 2228.04 282.345 2222.77 283.621 2213.02C284.629 2205.32 286.003 2194.82 290.356 2177.82C293.058 2167.27 295.438 2159.95 297.353 2154.06C300.738 2143.66 302.671 2137.71 302.363 2126.28ZM279.532 2094.84C288.913 2106.98 289.597 2120.48 289.924 2129.29C290.29 2139.14 288.688 2144.24 285.884 2153.17C284.297 2158.23 282.326 2164.51 280.107 2173.57C276.533 2188.17 275.451 2197.19 274.658 2203.81C273.652 2212.19 273.109 2216.72 268.553 2223.84C266.308 2227.35 254.992 2245.04 233.518 2248.11C211.512 2251.25 188.351 2237.69 177.679 2220.86C173.153 2213.73 172.145 2208.01 171.164 2202.43C170.056 2196.15 168.981 2190.05 162.918 2182.31C157.288 2175.12 152.268 2172.79 147.095 2170.39C142.577 2168.29 137.943 2166.14 132.684 2160.65C115.86 2143.1 109.531 2109 124.077 2087.92C133.092 2074.85 147.312 2070.87 152.223 2069.49C161.51 2066.89 167.104 2067.89 176.526 2069.58C183.141 2070.76 191.642 2072.28 204.633 2073.13C214.884 2073.8 221.678 2073.65 227.096 2073.52C235.371 2073.33 240.44 2073.21 249.717 2076.23C258.306 2079.02 270.515 2083.17 279.532 2094.84Z" fill="#FCA11D"/>
<path d="M224.314 1950.23C242.629 1956.46 250.262 1984.4 245.262 2004.29C239.577 2026.91 215.534 2047.16 196.47 2040.35C178.273 2033.85 170.725 2004.88 176.877 1984.22C183.076 1963.4 205.344 1943.78 224.314 1950.23ZM239.275 2002.53C243.417 1986.05 237.094 1962.9 221.921 1957.74C206.206 1952.4 187.759 1968.66 182.624 1985.9C177.528 2003.02 183.78 2027.02 198.855 2032.4C214.648 2038.05 234.565 2021.27 239.275 2002.53Z" fill="#FCA11D"/>
<path d="M352.157 1970.12C366.324 1986.49 357.94 2017.75 341.903 2034.1C323.666 2052.69 289.047 2058.61 274.485 2041.26C260.587 2024.69 269.631 1992.49 287.213 1976.05C304.929 1959.49 337.483 1953.16 352.157 1970.12ZM336.489 2029.04C349.609 2015.66 356.467 1990.09 344.878 1976.7C332.874 1962.83 306.243 1968 291.75 1981.55C277.367 1995 269.968 2021.34 281.338 2034.89C293.25 2049.09 321.571 2044.25 336.489 2029.04Z" fill="#FCA11D"/>
<path d="M309.101 2193.52C305.931 2174.43 327.278 2156.53 347.45 2153.29C370.387 2149.59 399.966 2163.52 402.971 2183.53C405.84 2202.62 383.536 2220.84 362.128 2223.34C340.555 2225.86 312.383 2213.3 309.101 2193.52ZM348.876 2159.92C332.487 2162.56 315.145 2177.09 317.719 2192.61C320.386 2208.68 343.274 2218.88 360.8 2216.83C378.193 2214.8 396.313 2200 393.983 2184.49C391.541 2168.23 367.511 2156.92 348.876 2159.92Z" fill="#FCA11D"/>
<path d="M420.76 2061.13C430.77 2080.27 415.081 2108.23 395.433 2120.03C373.09 2133.44 337.679 2130.72 327.516 2110.54C317.817 2091.28 334.378 2062.58 355.565 2051.07C376.914 2039.48 410.392 2041.31 420.76 2061.13ZM391.992 2114.16C408.278 2104.38 421.281 2081.21 412.984 2065.34C404.391 2048.91 376.643 2047.4 358.947 2057.01C341.387 2066.54 327.66 2090.33 335.699 2106.3C344.122 2123.03 373.473 2125.28 391.992 2114.16Z" fill="#FCA11D"/>
<path d="M1375.21 1983.47C1373.34 1990.47 1366.2 1997.37 1359.51 1995.59C1352.57 1993.75 1349.09 1983.38 1350.75 1975.87C1352.4 1968.41 1359.69 1961.18 1366.4 1962.85C1373.42 1964.6 1377.34 1975.51 1375.21 1983.47Z" fill="#FCA11D"/>
<path d="M1424.73 2024.65C1432 2023.58 1441.69 2027.24 1443.27 2033.91C1444.89 2040.82 1437.11 2047.99 1429.46 2049.45C1421.88 2050.9 1411.81 2047.24 1410.14 2040.6C1408.39 2033.64 1416.46 2025.87 1424.73 2024.65Z" fill="#FCA11D"/>
<path d="M1417.52 1989.56C1423.92 1984.47 1435.37 1982.6 1440.71 1988.16C1446.23 1993.92 1442.83 2005.18 1436.29 2010.85C1429.81 2016.47 1418 2018.55 1412.58 2013.07C1406.91 2007.34 1410.25 1995.34 1417.52 1989.56Z" fill="#FCA11D"/>
<path d="M1388.77 1967.71C1393.68 1961.19 1404.2 1956.63 1410.68 1960.83C1417.38 1965.17 1416.85 1977.03 1411.95 1984.15C1407.1 1991.22 1396.28 1996.06 1389.75 1991.98C1382.91 1987.7 1383.2 1975.12 1388.77 1967.71Z" fill="#FCA11D"/>
<path d="M1397.07 2005.81C1392.46 2001.51 1386.89 2000.75 1383.26 2000.3C1376.89 1999.51 1375.12 2001.12 1364.45 2002.74C1350.36 2004.88 1348.73 2002.79 1343.07 2005.69C1341.51 2006.48 1333.66 2010.5 1331.41 2019.23C1329.1 2028.17 1333.67 2038.18 1340.16 2043.18C1346.02 2047.69 1349.94 2045.41 1355.47 2050.64C1360.57 2055.47 1358.7 2058.8 1363.07 2063.86C1369.58 2071.41 1383.43 2075.25 1392.84 2070.02C1398.67 2066.78 1400.97 2061.07 1401.76 2059.1C1404.32 2052.76 1402.06 2050.44 1402.65 2037.41C1403.13 2026.69 1404.79 2025.24 1403.42 2018.75C1402.66 2015.11 1401.49 2009.94 1397.07 2005.81Z" fill="#FCA11D"/>
<path d="M445.387 2373.8C452.171 2375.33 462.595 2377.55 473.622 2372.77C484.22 2368.19 489.683 2359.61 493.43 2353.55C497.477 2347.01 498.342 2343.07 499.753 2336.65C500.678 2332.45 501.836 2327.17 504.277 2319.4C507.37 2309.55 510.131 2303.3 512.28 2298.44C515.34 2291.52 517.157 2287.4 516.919 2279.71C516.794 2275.64 516.43 2263.87 508.161 2254.26C494.819 2238.76 467.617 2236.72 451.057 2246.14C445.882 2249.08 443.369 2252.22 440.919 2255.28C438.114 2258.78 435.392 2262.18 428.85 2265.07C421.806 2268.17 416.951 2267.76 411.945 2267.34C407.51 2266.97 402.958 2266.59 396.661 2268.63C381.816 2273.45 367.112 2288.56 365.37 2306.17C363.671 2323.36 375.032 2335.68 377.286 2338.12C381.859 2343.08 385.213 2344.42 391.418 2346.9C396.319 2348.85 402.999 2351.52 413.462 2357.24C419.955 2360.79 424.375 2363.59 427.932 2365.84C434.217 2369.81 437.807 2372.08 445.387 2373.8ZM469.918 2364.04C460.349 2368.18 451.348 2366.37 445.49 2365.1C438.945 2363.69 435.855 2361.78 430.444 2358.43C427.383 2356.54 423.578 2354.19 417.984 2351.21C408.972 2346.4 403.212 2344.18 398.986 2342.54C393.635 2340.47 390.742 2339.36 386.819 2335.16C384.886 2333.09 375.14 2322.67 376.722 2308.02C378.343 2293 391.161 2280.03 404.033 2275.82C409.492 2274.04 413.427 2274.34 417.261 2274.63C421.588 2274.95 425.785 2275.27 431.898 2272.58C437.576 2270.07 439.952 2267.16 442.401 2264.16C444.54 2261.53 446.734 2258.84 451.23 2256.3C465.615 2248.17 489.13 2249.73 500.569 2262.84C507.658 2270.97 507.896 2281 507.978 2284.47C508.133 2291.02 506.534 2294.54 503.842 2300.46C501.952 2304.61 499.523 2309.96 496.783 2318.37C494.621 2325 493.584 2329.5 492.757 2333.09C491.495 2338.57 490.721 2341.93 487.177 2347.53C483.896 2352.72 479.115 2360.06 469.918 2364.04Z" fill="#FCA11D"/>
<path d="M574.376 2351.91C567.201 2362.93 547.519 2363.26 535.261 2356.63C521.321 2349.09 512.022 2329.86 519.706 2318.45C527.04 2307.56 547.383 2307.45 559.954 2314.97C572.621 2322.55 581.807 2340.5 574.376 2351.91ZM537.426 2352.99C547.581 2358.48 563.886 2358.2 569.829 2349.08C575.985 2339.63 568.376 2324.75 557.882 2318.47C547.468 2312.25 530.616 2312.34 524.54 2321.36C518.174 2330.81 525.878 2346.74 537.426 2352.99Z" fill="#FCA11D"/>
<path d="M539.822 2432.75C526.666 2439.33 507.486 2428.57 499.413 2415.26C490.232 2400.14 492.145 2376.35 506.017 2369.67C519.257 2363.3 538.945 2374.66 546.818 2389C554.751 2403.44 553.449 2425.94 539.822 2432.75ZM503.655 2412.55C510.26 2423.43 525.95 2432.24 536.713 2426.86C547.861 2421.28 548.926 2402.88 542.436 2391.06C535.995 2379.33 519.889 2370.04 509.058 2375.25C497.71 2380.71 496.145 2400.17 503.655 2412.55Z" fill="#FCA11D"/>
<path d="M399.946 2366.91C413.052 2368.03 421.25 2385.09 420.003 2398.91C418.584 2414.64 404.448 2431.77 390.772 2430.4C377.717 2429.08 369.467 2411.34 371.413 2396.82C373.374 2382.19 386.372 2365.75 399.946 2366.91ZM415.396 2398.74C416.41 2387.5 409.749 2373.65 399.102 2372.74C388.074 2371.8 377.514 2385.15 375.92 2397.04C374.339 2408.83 381.042 2423.25 391.648 2424.32C402.76 2425.44 414.244 2411.51 415.396 2398.74Z" fill="#FCA11D"/>
<path d="M468.382 2462.65C454.099 2466.03 438.321 2451.01 433.852 2436.09C428.769 2419.13 436.502 2396.27 451.496 2392.96C465.807 2389.81 481.927 2405.53 485.948 2421.41C490 2437.42 483.175 2459.15 468.382 2462.65ZM438.292 2434.81C441.996 2447.17 455.074 2459.63 466.912 2456.83C479.174 2453.92 484.83 2435.91 481.472 2422.64C478.139 2409.48 464.778 2396.45 452.916 2399.06C440.488 2401.8 434.08 2420.75 438.292 2434.81Z" fill="#FCA11D"/>
<path d="M805.261 2441.94C813.523 2432.98 829.555 2428.27 838.145 2436.16C847.042 2444.33 844.125 2462.5 835.771 2472.4C827.48 2482.22 810.969 2487.3 802.281 2479.56C793.179 2471.45 795.867 2452.14 805.261 2441.94Z" fill="#FCA11D"/>
<path d="M763.676 2341.86C752.002 2337.78 740.415 2324.74 743.288 2313.57C746.264 2302 763.474 2297.41 776.009 2301.2C788.448 2304.97 800.58 2318.3 797.883 2329.5C795.058 2341.24 776.95 2346.51 763.676 2341.86Z" fill="#FCA11D"/>
<path d="M746.977 2399.79C733.465 2402.37 714.945 2396.21 711.341 2383.75C707.608 2370.85 721.485 2356.74 735.657 2353.4C749.72 2350.08 768.931 2356.23 772.722 2368.62C776.694 2381.6 762.341 2396.86 746.977 2399.79Z" fill="#FCA11D"/>
<path d="M772.73 2454.83C760.329 2460.7 741.076 2459.27 734.71 2447.96C728.117 2436.25 738.186 2418.99 751.044 2412.2C763.804 2405.46 783.718 2406.71 790.247 2417.9C797.088 2429.63 786.831 2448.14 772.73 2454.83Z" fill="#FCA11D"/>
<path d="M790.166 2391.57C793.67 2401.57 801.364 2407.07 806.434 2410.58C815.304 2416.74 819.193 2415.72 836.372 2421.65C859.041 2429.47 859.834 2433.86 870.527 2433.97C873.472 2434 888.313 2434.15 898.493 2422.91C908.925 2411.39 909.953 2392.9 904.187 2380.38C898.981 2369.07 891.352 2369.4 887.2 2357.28C883.37 2346.11 888.759 2342.61 886.213 2331.65C882.414 2315.3 864.77 2298.76 846.668 2299.19C835.449 2299.46 827.557 2306.17 824.831 2308.48C816.058 2315.94 817.612 2321.16 806.553 2340.12C797.457 2355.72 793.847 2356.57 790.809 2367.32C789.109 2373.34 786.798 2381.95 790.166 2391.57Z" fill="#FCA11D"/>
</svg>
