<svg width="31" height="31" viewBox="0 0 31 31" fill="none" xmlns="http://www.w3.org/2000/svg">
<path d="M1.72223 31C1.23426 31 0.825524 30.752 0.496006 30.256C0.166488 29.76 0.00115409 29.1469 5.93869e-06 28.4166C-0.00114221 27.6864 0.164191 27.0733 0.496006 26.5773C0.827821 26.0813 1.23656 25.8333 1.72223 25.8333H29.2778C29.7657 25.8333 30.175 26.0813 30.5057 26.5773C30.8364 27.0733 31.0011 27.6864 31 28.4166C30.9988 29.1469 30.8335 29.7608 30.504 30.2585C30.1745 30.7563 29.7657 31.0034 29.2778 31H1.72223ZM1.72223 18.0833C1.23426 18.0833 0.825524 17.8353 0.496006 17.3393C0.166488 16.8433 0.00115409 16.2302 5.93869e-06 15.5C-0.00114221 14.7698 0.164191 14.1567 0.496006 13.6607C0.827821 13.1647 1.23656 12.9167 1.72223 12.9167H29.2778C29.7657 12.9167 30.175 13.1647 30.5057 13.6607C30.8364 14.1567 31.0011 14.7698 31 15.5C30.9988 16.2302 30.8335 16.8442 30.504 17.3419C30.1745 17.8396 29.7657 18.0868 29.2778 18.0833H1.72223ZM1.72223 5.16666C1.23426 5.16666 0.825524 4.91866 0.496006 4.42266C0.166488 3.92666 0.00115409 3.31355 5.93869e-06 2.58333C-0.00114221 1.85311 0.164191 1.24 0.496006 0.743999C0.827821 0.248 1.23656 0 1.72223 0H29.2778C29.7657 0 30.175 0.248 30.5057 0.743999C30.8364 1.24 31.0011 1.85311 31 2.58333C30.9988 3.31355 30.8335 3.92752 30.504 4.42524C30.1745 4.92297 29.7657 5.17011 29.2778 5.16666H1.72223Z" fill="#FCA11D"/>
</svg>
