<svg width="22" height="22" viewBox="0 0 22 22" fill="none" xmlns="http://www.w3.org/2000/svg">
<path d="M11.0218 0H10.9717C4.91221 0 0 4.91365 0 10.975V11.025C0 17.0863 4.91221 22 10.9717 22H11.0218C17.0813 22 21.9935 17.0863 21.9935 11.025V10.975C21.9935 4.91365 17.0813 0 11.0218 0Z" fill="#333333"/>
<path d="M14.3989 4.47656H7.59348C5.71336 4.47656 4.18384 6.00653 4.18384 7.88721V14.115C4.18384 15.9957 5.71336 17.5256 7.59348 17.5256H14.3989C16.279 17.5256 17.8085 15.9957 17.8085 14.115V7.88721C17.8085 6.00653 16.279 4.47656 14.3989 4.47656ZM5.38665 7.88721C5.38665 6.67016 6.37679 5.67973 7.59348 5.67973H14.3989C15.6156 5.67973 16.6057 6.67016 16.6057 7.88721V14.115C16.6057 15.332 15.6156 16.3225 14.3989 16.3225H7.59348C6.37679 16.3225 5.38665 15.332 5.38665 14.115V7.88721Z" fill="white"/>
<path d="M10.9967 14.175C12.7451 14.175 14.1683 12.7522 14.1683 11.0026C14.1683 9.25291 12.7459 7.83008 10.9967 7.83008C9.24761 7.83008 7.8252 9.25291 7.8252 11.0026C7.8252 12.7522 9.24761 14.175 10.9967 14.175ZM10.9967 9.03402C12.0824 9.03402 12.9655 9.91731 12.9655 11.0033C12.9655 12.0893 12.0824 12.9726 10.9967 12.9726C9.91105 12.9726 9.02801 12.0893 9.02801 11.0033C9.02801 9.91731 9.91105 9.03402 10.9967 9.03402Z" fill="white"/>
<path d="M14.4612 8.33847C14.932 8.33847 15.3157 7.9554 15.3157 7.48369C15.3157 7.01198 14.9328 6.62891 14.4612 6.62891C13.9896 6.62891 13.6067 7.01198 13.6067 7.48369C13.6067 7.9554 13.9896 8.33847 14.4612 8.33847Z" fill="white"/>
</svg>
