<svg width="35" height="35" viewBox="0 0 35 35" fill="none" xmlns="http://www.w3.org/2000/svg">
<path d="M17.0833 34.1667C14.7201 34.1667 12.4993 33.7182 10.4208 32.8214C8.34236 31.9245 6.53438 30.7073 4.99687 29.1698C3.45937 27.6323 2.24219 25.8243 1.34531 23.7458C0.448438 21.6674 0 19.4465 0 17.0833C0 14.7201 0.448438 12.4993 1.34531 10.4208C2.24219 8.34236 3.45937 6.53438 4.99687 4.99687C6.53438 3.45937 8.34236 2.24219 10.4208 1.34531C12.4993 0.448438 14.7201 0 17.0833 0C19.4465 0 21.6674 0.448438 23.7458 1.34531C25.8243 2.24219 27.6323 3.45937 29.1698 4.99687C30.7073 6.53438 31.9245 8.34236 32.8214 10.4208C33.7182 12.4993 34.1667 14.7201 34.1667 17.0833C34.1667 19.4465 33.7182 21.6674 32.8214 23.7458C31.9245 25.8243 30.7073 27.6323 29.1698 29.1698C27.6323 30.7073 25.8243 31.9245 23.7458 32.8214C21.6674 33.7182 19.4465 34.1667 17.0833 34.1667ZM17.0833 26.4792C18.3646 25.1979 19.5035 23.874 20.5 22.5073C21.3542 21.3399 22.1372 20.0587 22.849 18.6635C23.5608 17.2684 23.9167 15.8875 23.9167 14.5208C23.9167 12.6417 23.2476 11.033 21.9094 9.69479C20.5712 8.3566 18.9625 7.6875 17.0833 7.6875C15.2042 7.6875 13.5955 8.3566 12.2573 9.69479C10.9191 11.033 10.25 12.6417 10.25 14.5208C10.25 15.8875 10.6059 17.2684 11.3177 18.6635C12.0295 20.0587 12.8125 21.3399 13.6667 22.5073C14.6632 23.874 15.8021 25.1979 17.0833 26.4792ZM17.0833 17.0833C16.3715 17.0833 15.7665 16.8342 15.2682 16.3359C14.77 15.8377 14.5208 15.2326 14.5208 14.5208C14.5208 13.809 14.77 13.204 15.2682 12.7057C15.7665 12.2075 16.3715 11.9583 17.0833 11.9583C17.7951 11.9583 18.4002 12.2075 18.8984 12.7057C19.3967 13.204 19.6458 13.809 19.6458 14.5208C19.6458 15.2326 19.3967 15.8377 18.8984 16.3359C18.4002 16.8342 17.7951 17.0833 17.0833 17.0833Z" fill="#333333"/>
</svg>
