<svg width="99" height="97" viewBox="0 0 99 97" fill="none" xmlns="http://www.w3.org/2000/svg">
<path d="M28.4337 26.4401C30.6387 30.6098 30.2896 37.0403 26.3051 39.1221C22.1779 41.2785 15.9261 37.8416 13.3912 33.5153C10.8757 29.2221 11.1516 22.5699 15.0942 20.4328C19.2248 18.1937 25.9264 21.6986 28.4337 26.4401Z" fill="#FCA11D"/>
<path d="M70.4087 24.44C73.4041 20.7417 79.6526 18.2468 83.3575 20.7518C87.195 23.3464 86.6524 30.1889 83.6519 34.2374C80.6742 38.255 74.2474 40.9089 70.5083 38.4639C66.5909 35.9022 67.0025 28.6452 70.4087 24.44Z" fill="#FCA11D"/>
<path d="M51.4092 10.8328C52.2109 5.59642 56.8451 -0.311923 61.8538 0.0128136C67.0418 0.349163 70.3993 7.22801 69.7914 12.8037C69.1882 18.3369 64.4714 24.4982 59.4637 24.2503C54.217 23.9905 50.4975 16.7871 51.4092 10.8328Z" fill="#FCA11D"/>
<path d="M27.9699 12.9777C27.4242 7.71169 30.4289 0.918859 35.3731 0.0911594C40.4942 -0.766146 45.4926 5.14516 46.3123 10.6964C47.1258 16.2053 44.1049 23.2625 39.1811 24.1645C34.0224 25.1096 28.5904 18.9657 27.9699 12.9777Z" fill="#FCA11D"/>
<path d="M48.799 27.5142C44.6963 27.4747 41.6994 29.5459 39.7616 30.924C36.3715 33.3351 36.2439 34.8799 31.8652 40.335C26.0874 47.533 24.3814 47.2452 22.9638 51.1099C22.5734 52.1741 20.6059 57.5381 23.3945 62.7031C26.2523 67.9961 32.8698 70.7925 38.1823 70.341C42.9783 69.9334 43.8421 67.1227 48.799 67.204C53.3717 67.279 53.9543 69.6925 58.2822 70.2046C64.738 70.9685 73.048 66.7347 75.2235 60.1117C76.5719 56.0068 75.1428 52.2656 74.6493 50.9735C73.0607 46.8147 70.9548 46.6945 65.4607 40.1986C60.9417 34.8556 61.0958 33.4346 57.5643 30.924C55.5886 29.5194 52.7421 27.5522 48.799 27.5142Z" fill="#FCA11D"/>
<path d="M65.7157 47.9417C65.4947 48.3683 65.0227 48.4645 64.9674 48.4755C64.1823 48.4864 63.3948 48.4974 62.6097 48.5105C62.5084 48.5586 62.3012 48.6701 62.14 48.8976C61.9236 49.2082 61.9351 49.5254 61.9443 49.6282C61.9029 54.6088 61.8637 59.5893 61.8223 64.5698C61.8223 64.6114 61.8061 65.027 61.447 65.2501C61.2581 65.3682 61.0624 65.3748 60.975 65.3726C52.4558 65.4119 43.9367 65.4513 35.4175 65.4907C35.3116 65.4601 35.1919 65.4076 35.0814 65.3179C34.6462 64.9679 34.7199 64.3642 34.7291 64.292C34.9133 56.3126 35.0008 50.4878 34.964 49.5122C34.9571 49.287 34.9225 48.8276 34.5887 48.5805C34.3354 48.3945 34.0269 48.4164 33.541 48.4383C33.1174 48.458 32.4911 48.4798 31.6991 48.4776C31.3284 48.5586 30.9485 48.3945 30.7712 48.0839C30.587 47.758 30.6699 47.3446 30.9715 47.0996C33.0161 45.3323 35.063 43.5649 37.1076 41.7953V35.4871C37.103 35.4587 37.0799 35.2924 37.1997 35.1415C37.3263 34.9796 37.5174 34.9621 37.5474 34.9599C38.7354 34.9446 39.9258 34.9293 41.1139 34.914C41.1438 34.9118 41.3211 34.9031 41.4639 35.0299C41.6342 35.183 41.6066 35.3952 41.6043 35.4149V37.9106C43.6996 36.0995 45.7971 34.2862 47.8923 32.4751C47.9361 32.4292 48.095 32.2805 48.3505 32.252C48.7235 32.2127 48.9745 32.4773 48.9998 32.5036C54.5235 37.2916 60.0494 42.0797 65.573 46.8699C65.8355 47.1805 65.8907 47.5983 65.7157 47.9417Z" fill="#FBFBFB"/>
<path d="M52.0923 39.8152C51.8651 39.2153 51.7099 38.7205 51.6096 38.3766C51.4575 37.8554 51.4007 37.5761 51.2341 37.5481C50.9966 37.5083 50.7195 38.0102 50.5828 38.2577C50.3847 38.6165 50.1331 39.1974 50.0569 40.0182C48.6985 41.6476 48.3495 42.7216 48.3039 43.4202C48.2941 43.5711 48.2803 43.9814 48.1286 44.5146C47.9025 45.3094 47.5193 45.8524 47.3523 46.0848C45.3459 48.8763 42.8446 51.961 42.8446 51.961C40.7416 54.5545 40.0746 55.7526 39.6525 56.6502C39.5425 56.884 38.8842 58.3182 38.8008 60.1838C38.7665 60.9494 38.8455 61.4224 39.0267 61.868C39.4375 62.8777 40.24 63.4177 40.452 63.5523C41.524 64.2329 43.0078 64.3975 44.2759 63.833C45.7863 63.1605 46.2679 61.7754 46.3964 61.4057C46.5979 60.8261 46.6008 60.3727 46.605 59.738C46.6084 59.2135 46.5524 58.7274 46.2573 58.4665C46.2055 58.4207 46.0751 58.3054 45.9097 58.3179C45.7416 58.3307 45.63 58.4684 45.5795 58.5326C45.3714 58.797 45.4397 59.0411 45.3535 59.5398C45.3535 59.5398 45.3177 59.7468 45.1971 60.1342C44.9923 60.7919 44.1579 61.6391 43.0244 61.8019C42.9122 61.8181 41.5249 61.9987 40.8691 61.1745C40.6462 60.8943 40.6035 60.6183 40.5389 60.2003C40.3667 59.087 40.7602 58.1846 40.956 57.806C41.1608 57.4103 41.3764 57.1624 41.8077 56.6667C42.5793 55.7799 43.3371 55.2042 43.7718 54.9164C44.3135 54.5579 44.3352 54.6279 44.8668 54.256C45.5906 53.7495 46.3903 53.1753 46.7266 52.225C46.8603 51.847 46.7543 51.8801 46.9178 51.3829C47.0463 50.9923 47.2844 50.2972 47.9433 49.7152C48.1131 49.5652 48.3908 49.3521 48.795 49.1703C49.0205 48.7524 49.2723 48.4824 49.4381 48.3281C49.6726 48.11 49.8421 48.0239 50.0117 47.9814C50.124 47.9532 50.2218 47.9479 50.2898 47.9483C50.313 48.4272 50.3361 48.9061 50.3593 49.3849C51.2696 49.5695 51.6044 49.9 51.7412 50.1692C51.8879 50.4578 51.7846 50.6317 52.0284 51.1091C52.204 51.4528 52.3568 51.5572 52.3472 51.8149C52.3393 52.0242 52.2301 52.1827 52.0923 52.3825C51.9773 52.5493 51.8502 52.7336 51.6136 52.8373C51.5104 52.8825 51.4576 52.8812 51.1667 52.9283C50.9169 52.9687 50.7173 53.0083 50.5922 53.0344C50.5488 53.1154 50.4868 53.2582 50.4805 53.4437C50.4708 53.7317 50.6013 53.9414 50.6561 54.0198C50.9132 54.6099 51.2535 55.6668 50.9593 56.8698C50.904 57.0955 50.8322 57.3028 50.7518 57.4913C50.7892 57.8818 50.8497 58.5072 50.9273 59.2801C50.9273 59.2801 51.0194 60.2502 51.7093 63.252C51.7264 63.3265 51.7698 63.5058 51.9167 63.6765C52.3857 64.2214 53.5244 64.2315 53.7199 63.8887C53.8407 63.677 53.6118 63.3128 53.5923 63.2823C53.4871 63.1186 53.3934 63.0882 53.2731 62.9488C53.0668 62.7096 53.0307 62.4381 53.0018 62.2211C52.9371 61.734 52.8932 58.7842 52.9254 54.739C53.3504 53.8004 53.7037 53.0512 53.9433 52.5493C54.3472 51.7035 54.4871 51.4371 54.5995 50.9732C54.7965 50.1608 54.7246 49.5047 54.6614 48.9716C54.5677 48.1817 54.2582 46.6172 54.0391 45.6213C54.0066 45.474 53.9246 45.1046 54.1348 44.8937C54.222 44.8062 54.3333 44.7723 54.4061 44.7572C55.0019 44.7269 55.5976 44.6966 56.1934 44.6663C56.4982 44.5599 57.1416 44.2839 57.5019 43.6506C57.5914 43.4932 57.9034 42.9345 57.6615 42.5591C57.5323 42.3587 57.3209 42.3281 56.7433 42.1831C55.6929 41.9194 55.1605 41.7824 54.805 41.5282C54.3357 41.1926 54.4407 40.9632 53.9912 40.558C53.4044 40.029 52.6556 39.8666 52.0923 39.8152Z" fill="#FCA11D"/>
<path d="M1.71494 96.6445C0.508615 96.6445 -0.285713 96.0347 0.0968378 94.7826L6.53986 73.3381C7.6872 72.8565 9.59953 72.6318 10.4528 72.6318C11.7767 72.6318 12.365 73.0491 13.1005 75.6174L18.9258 95.4889C18.3373 95.9062 16.8075 96.6445 15.3953 96.6445C14.5127 96.6445 13.6889 96.452 13.3064 94.8789L12.3062 90.9946H4.6275L3.12706 96.3878C2.68572 96.5483 2.12672 96.6445 1.71494 96.6445ZM11.5412 87.9768L8.65807 76.6447L5.4807 87.9768H11.5412Z" fill="#FCA11D"/>
<path d="M21.0137 88.1681C21.0137 81.9722 24.2205 79.1152 28.0746 79.1152C29.7515 79.1152 31.1342 79.693 32.2228 80.6241C32.1933 77.3174 32.1346 74.4282 32.0462 72.6947C32.8112 72.181 34.1057 71.7637 35.2237 71.7637C36.6947 71.7637 37.1653 72.4058 37.1653 73.9788C37.1653 75.8728 37.0477 79.693 37.0477 85.0221V91.7636C37.0477 93.0477 37.3713 94.2034 38.4893 94.428C38.048 95.8728 36.7241 96.7395 35.253 96.7395C33.4879 96.7395 32.6052 95.4553 32.4581 93.8502L32.4288 93.6255C31.3696 95.6158 29.5456 96.7395 27.3685 96.7395C23.6615 96.7395 21.0137 93.7861 21.0137 88.1681ZM29.1926 93.5613C31.046 93.5613 32.2522 91.9242 32.2522 89.9016V83.0959C31.605 82.5822 30.6047 82.1649 29.5161 82.1649C27.6332 82.1649 26.0446 83.3848 26.0446 87.8151C26.0446 91.5388 27.1919 93.5613 29.1926 93.5613Z" fill="#FCA11D"/>
<path d="M40.7832 87.9435C40.7832 82.7749 44.0195 79.1152 49.1386 79.1152C54.346 79.1152 57.4645 82.7749 57.4645 87.9435C57.4645 93.112 54.346 96.7396 49.1386 96.7396C44.0195 96.7396 40.7832 93.1119 40.7832 87.9435ZM52.4631 87.9435C52.4631 83.5454 51.1098 81.9082 49.1387 81.9082C47.2558 81.9082 45.8142 83.5454 45.8142 87.9435C45.8142 92.3415 47.2558 93.9467 49.1387 93.9467C51.1098 93.9467 52.4631 92.3415 52.4631 87.9435Z" fill="#FCA11D"/>
<path d="M61.1469 90.8628V82.3875L59.4994 82.4518C59.2641 81.1035 59.3818 80.4294 59.8818 80.1405C60.1761 79.9478 60.7056 80.0441 61.088 80.0121C61.8532 78.5354 63.383 76.256 64.1772 75.2287C64.7657 75.1324 65.5306 75.1646 66.0308 75.2287C66.0601 75.9349 66.0897 77.3154 66.0308 79.9478C67.6783 79.98 69.061 79.9478 70.0615 79.8837C70.179 80.0762 70.2673 80.4294 70.2673 80.6862C70.2673 81.7778 69.7084 82.4197 68.7081 82.4197L65.9719 82.3876V89.1293C65.9719 92.5642 66.6486 93.5273 68.2961 93.5273C69.1199 93.5273 69.6495 93.3347 70.0026 93.0458C69.8554 94.4261 68.6492 96.7055 65.9425 96.7055C61.7353 96.7055 61.1469 93.2384 61.1469 90.8628Z" fill="#FCA11D"/>
<path d="M71.8555 88.2002C71.8555 82.5501 75.533 79.1152 80.4168 79.1152C84.4179 79.1152 86.5362 81.4909 86.5362 84.3158C86.5362 88.5213 81.9466 89.677 77.0041 89.067C77.3866 91.8278 78.8575 93.144 81.1817 93.144C83.1235 93.144 84.3886 92.2451 85.4182 90.7364C85.9477 91.0895 86.1831 91.6994 86.1831 92.3094C86.1831 94.4281 83.5353 96.7396 79.6519 96.7396C75.0624 96.7396 71.8555 93.4972 71.8555 88.2002ZM82.1526 84.0268C82.1526 82.7107 81.4466 81.9082 80.1815 81.9082C78.269 81.9082 76.9157 83.7379 76.8864 87.3657C80.5344 87.2051 82.1526 85.953 82.1526 84.0268Z" fill="#FCA11D"/>
<path d="M91.1934 89.4624L87.0452 89.4945C86.6921 87.6967 86.7216 86.188 88.1043 86.1238L91.1934 86.0595L91.2523 82.6887C91.3406 81.0517 92.841 81.0836 94.4592 81.4047L94.4296 86.0917L98.6956 86.1238C98.9899 88.1784 98.7839 89.4946 97.2245 89.4946L94.4296 89.4624L94.4592 92.7048C94.4885 94.3421 93.1352 94.5988 91.2523 94.2137L91.1934 89.4624Z" fill="#FCA11D"/>
</svg>
