<svg width="124" height="122" viewBox="0 0 124 122" fill="none" xmlns="http://www.w3.org/2000/svg">
<path d="M35.6836 33.1804C38.4508 38.4132 38.0127 46.483 33.0123 49.0956C27.8329 51.8017 19.9873 47.4886 16.8062 42.0594C13.6493 36.6716 13.9955 28.3235 18.9432 25.6415C24.1269 22.8316 32.5371 27.2301 35.6836 33.1804Z" fill="#FBFBFB"/>
<path d="M88.3582 30.6704C92.1173 26.0293 99.9588 22.8983 104.608 26.0419C109.424 29.298 108.743 37.8849 104.978 42.9656C101.241 48.0074 93.1755 51.3379 88.4832 48.2695C83.5671 45.0548 84.0837 35.9477 88.3582 30.6704Z" fill="#FBFBFB"/>
<path d="M64.5166 13.5946C65.5227 7.02318 71.3384 -0.391445 77.624 0.0160803C84.1346 0.43818 88.3481 9.07074 87.5852 16.068C86.8282 23.0118 80.9089 30.7439 74.6245 30.4327C68.0403 30.1068 63.3725 21.0669 64.5166 13.5946Z" fill="#FBFBFB"/>
<path d="M35.1014 16.2862C34.4165 9.67768 38.1872 1.15308 44.3919 0.114361C50.8186 -0.961508 57.0914 6.45684 58.1201 13.4233C59.1409 20.3366 55.3499 29.1931 49.1707 30.325C42.6969 31.511 35.8801 23.8008 35.1014 16.2862Z" fill="#FBFBFB"/>
<path d="M61.2399 34.529C56.0914 34.4795 52.3303 37.0786 49.8985 38.8081C45.6441 41.8338 45.4841 43.7726 39.989 50.6183C32.7382 59.6514 30.5973 59.2902 28.8183 64.1402C28.3284 65.4757 25.8592 72.2072 29.3588 78.689C32.9451 85.3315 41.2497 88.8407 47.9166 88.2742C53.9353 87.7627 55.0193 84.2354 61.2399 84.3374C66.9784 84.4315 67.7096 87.4604 73.1409 88.103C81.2425 89.0616 91.6711 83.7485 94.4013 75.437C96.0934 70.2856 94.2999 65.5905 93.6806 63.969C91.687 58.75 89.0442 58.5991 82.1495 50.4472C76.4784 43.742 76.6718 41.9588 72.24 38.8081C69.7606 37.0454 66.1883 34.5767 61.2399 34.529Z" fill="#FBFBFB"/>
<path d="M82.4697 60.1644C82.1923 60.6997 81.6 60.8205 81.5306 60.8342C80.5453 60.8479 79.5571 60.8617 78.5718 60.8781C78.4447 60.9385 78.1847 61.0785 77.9824 61.364C77.7108 61.7538 77.7252 62.1518 77.7368 62.2808C77.6848 68.5311 77.6357 74.7814 77.5836 81.0317C77.5836 81.0839 77.5634 81.6054 77.1127 81.8854C76.8757 82.0336 76.6301 82.0418 76.5203 82.0391C65.8293 82.0885 55.1383 82.1379 44.4472 82.1873C44.3143 82.1489 44.1641 82.0831 44.0254 81.9705C43.4793 81.5313 43.5717 80.7737 43.5833 80.6831C43.8145 70.6694 43.9243 63.3596 43.878 62.1353C43.8694 61.8526 43.826 61.2761 43.4071 60.966C43.0892 60.7326 42.702 60.7601 42.0923 60.7875C41.5607 60.8122 40.7748 60.8397 39.7808 60.8369C39.3156 60.9385 38.8388 60.7326 38.6163 60.3428C38.3852 59.9338 38.4892 59.4151 38.8677 59.1076C41.4336 56.8897 44.0023 54.6717 46.5681 52.451V44.5345C46.5623 44.4989 46.5334 44.2902 46.6837 44.1008C46.8426 43.8977 47.0825 43.8758 47.12 43.873C48.611 43.8538 50.1048 43.8346 51.5958 43.8153C51.6334 43.8126 51.8559 43.8016 52.035 43.9608C52.2488 44.153 52.2142 44.4193 52.2113 44.444V47.5759C54.8407 45.3031 57.473 43.0275 60.1024 40.7547C60.1573 40.6971 60.3567 40.5104 60.6774 40.4747C61.1455 40.4253 61.4605 40.7575 61.4922 40.7904C68.4241 46.7991 75.3588 52.8079 82.2906 58.8194C82.62 59.2091 82.6893 59.7334 82.4697 60.1644Z" fill="#FCA11D"/>
<path d="M65.3735 49.966C65.0884 49.2132 64.8937 48.5922 64.7677 48.1607C64.5769 47.5066 64.5056 47.156 64.2965 47.121C63.9984 47.071 63.6507 47.7008 63.4792 48.0114C63.2306 48.4617 62.9149 49.1908 62.8192 50.2207C61.1145 52.2655 60.6765 53.6134 60.6193 54.4901C60.607 54.6795 60.5897 55.1944 60.3993 55.8635C60.1156 56.8609 59.6347 57.5423 59.4251 57.834C56.9072 61.3372 53.7682 65.2083 53.7681 65.2083C51.129 68.463 50.292 69.9665 49.7622 71.093C49.6242 71.3864 48.7981 73.1862 48.6934 75.5274C48.6504 76.4882 48.7495 77.0818 48.977 77.641C49.4924 78.9081 50.4996 79.5858 50.7656 79.7547C52.1109 80.6088 53.973 80.8154 55.5643 80.1069C57.4598 79.2631 58.0642 77.5248 58.2254 77.0608C58.4783 76.3335 58.482 75.7645 58.4872 74.9679C58.4915 74.3097 58.4212 73.6997 58.051 73.3724C57.9859 73.3148 57.8222 73.1702 57.6147 73.1859C57.4038 73.2018 57.2636 73.3747 57.2003 73.4553C56.9391 73.7871 57.0249 74.0935 56.9167 74.7193C56.9167 74.7193 56.8718 74.979 56.7204 75.4652C56.4634 76.2905 55.4163 77.3537 53.9938 77.5581C53.853 77.5783 52.112 77.805 51.2891 76.7707C51.0093 76.4191 50.9557 76.0727 50.8746 75.5481C50.6585 74.151 51.1523 73.0185 51.3981 72.5435C51.6551 72.0468 51.9257 71.7358 52.4669 71.1137C53.4352 70.0008 54.3862 69.2783 54.9317 68.9172C55.6115 68.4672 55.6388 68.5551 56.3059 68.0883C57.2143 67.4528 58.2179 66.7322 58.6399 65.5396C58.8077 65.0653 58.6746 65.1068 58.8798 64.4828C59.041 63.9926 59.3398 63.1203 60.1668 62.3899C60.3798 62.2017 60.7283 61.9343 61.2356 61.7061C61.5185 61.1817 61.8346 60.8428 62.0426 60.6493C62.3369 60.3755 62.5496 60.2674 62.7624 60.2141C62.9034 60.1788 63.0262 60.1721 63.1114 60.1726C63.1405 60.7736 63.1696 61.3745 63.1987 61.9754C64.341 62.2071 64.7612 62.6218 64.9329 62.9597C65.117 63.3219 64.9874 63.5401 65.2934 64.1392C65.5137 64.5706 65.7055 64.7015 65.6933 65.025C65.6835 65.2876 65.5464 65.4865 65.3735 65.7373C65.2292 65.9465 65.0697 66.1779 64.7727 66.308C64.6432 66.3648 64.577 66.3631 64.212 66.4222C63.8984 66.4729 63.6479 66.5226 63.491 66.5553C63.4365 66.6569 63.3587 66.8362 63.3508 67.069C63.3386 67.4304 63.5023 67.6936 63.5711 67.7919C63.8938 68.5325 64.3209 69.8589 63.9516 71.3685C63.8823 71.6518 63.7922 71.912 63.6913 72.1485C63.7382 72.6385 63.8141 73.4234 63.9115 74.3934C63.9115 74.3934 64.0271 75.6108 64.8928 79.3778C64.9143 79.4714 64.9688 79.6963 65.1531 79.9105C65.7417 80.5943 67.1707 80.607 67.4161 80.1769C67.5676 79.9111 67.2804 79.4541 67.2559 79.4159C67.1239 79.2105 67.0064 79.1723 66.8553 78.9973C66.5964 78.6972 66.5511 78.3564 66.5149 78.0841C66.4337 77.4728 66.3786 73.771 66.419 68.6946C66.9524 67.5167 67.3957 66.5764 67.6964 65.9465C68.2032 64.8851 68.3788 64.5508 68.5199 63.9687C68.7671 62.9491 68.6769 62.1257 68.5976 61.4568C68.48 60.4655 68.0916 58.5021 67.8166 57.2524C67.7759 57.0675 67.6729 56.6039 67.9367 56.3392C68.0461 56.2295 68.1858 56.1869 68.2772 56.168C69.0248 56.1299 69.7725 56.0919 70.5201 56.0538C70.9027 55.9204 71.7101 55.574 72.1622 54.7792C72.2746 54.5817 72.6661 53.8806 72.3625 53.4094C72.2004 53.1579 71.935 53.1195 71.2103 52.9376C69.8921 52.6067 69.2239 52.4348 68.7778 52.1158C68.1889 51.6945 68.3206 51.4067 67.7565 50.8982C67.0201 50.2344 66.0804 50.0305 65.3735 49.966Z" fill="#FBFBFB"/>
<path d="M2.15215 121.283C0.638283 121.283 -0.358553 120.518 0.121526 118.946L8.20715 92.0347C9.647 91.4304 12.0469 91.1484 13.1176 91.1484C14.779 91.1484 15.5174 91.6721 16.4404 94.8952L23.7508 119.833C23.0123 120.356 21.0924 121.283 19.3202 121.283C18.2126 121.283 17.1788 121.041 16.6988 119.067L15.4436 114.193H5.80725L3.92428 120.961C3.37043 121.162 2.66891 121.283 2.15215 121.283ZM14.4835 110.406L10.8654 96.1844L6.87797 110.406H14.4835Z" fill="#FBFBFB"/>
<path d="M26.3711 110.646C26.3711 102.871 30.3955 99.2853 35.2321 99.2853C37.3365 99.2853 39.0718 100.01 40.4379 101.179C40.4009 97.0292 40.3272 93.4034 40.2163 91.228C41.1763 90.5833 42.8008 90.0596 44.2038 90.0596C46.0499 90.0596 46.6405 90.8654 46.6405 92.8394C46.6405 95.2163 46.4929 100.01 46.4929 106.698V115.158C46.4929 116.77 46.899 118.22 48.3019 118.502C47.7482 120.315 46.0868 121.403 44.2407 121.403C42.0255 121.403 40.9178 119.791 40.7332 117.777L40.6964 117.495C39.3671 119.993 37.0781 121.403 34.346 121.403C29.694 121.403 26.3711 117.696 26.3711 110.646ZM36.6351 117.414C38.9611 117.414 40.4749 115.36 40.4749 112.822V104.281C39.6626 103.636 38.4073 103.113 37.0412 103.113C34.6783 103.113 32.6846 104.643 32.6846 110.203C32.6846 114.876 34.1244 117.414 36.6351 117.414Z" fill="#FBFBFB"/>
<path d="M51.1797 110.364C51.1797 103.878 55.2411 99.2852 61.6653 99.2852C68.2002 99.2852 72.1137 103.878 72.1137 110.364C72.1137 116.85 68.2002 121.403 61.6653 121.403C55.2411 121.403 51.1797 116.85 51.1797 110.364ZM65.8373 110.364C65.8373 104.845 64.139 102.79 61.6653 102.79C59.3024 102.79 57.4933 104.845 57.4933 110.364C57.4933 115.883 59.3024 117.898 61.6653 117.898C64.139 117.898 65.8373 115.883 65.8373 110.364Z" fill="#FBFBFB"/>
<path d="M76.7354 114.027V103.391L74.6678 103.472C74.3725 101.78 74.5202 100.934 75.1477 100.571C75.517 100.329 76.1815 100.45 76.6614 100.41C77.6217 98.5569 79.5415 95.6964 80.5382 94.4073C81.2767 94.2865 82.2366 94.3268 82.8643 94.4073C82.9011 95.2935 82.9382 97.026 82.8643 100.329C84.9319 100.37 86.6671 100.329 87.9226 100.249C88.0701 100.491 88.1809 100.934 88.1809 101.256C88.1809 102.626 87.4795 103.432 86.2242 103.432L82.7904 103.391V111.852C82.7904 116.162 83.6396 117.371 85.7072 117.371C86.741 117.371 87.4055 117.129 87.8487 116.767C87.664 118.499 86.1503 121.359 82.7536 121.359C77.4738 121.359 76.7354 117.008 76.7354 114.027Z" fill="#FBFBFB"/>
<path d="M90.1738 110.686C90.1738 103.596 94.7889 99.2852 100.918 99.2852C105.939 99.2852 108.597 102.266 108.597 105.812C108.597 111.089 102.838 112.54 96.6351 111.774C97.115 115.239 98.961 116.89 101.878 116.89C104.315 116.89 105.902 115.762 107.194 113.869C107.859 114.312 108.154 115.078 108.154 115.843C108.154 118.502 104.831 121.403 99.9579 121.403C94.1983 121.403 90.1738 117.334 90.1738 110.686ZM103.096 105.449C103.096 103.797 102.21 102.79 100.623 102.79C98.2225 102.79 96.5241 105.086 96.4873 109.639C101.065 109.438 103.096 107.866 103.096 105.449Z" fill="#FBFBFB"/>
<path d="M114.442 112.27L109.236 112.31C108.793 110.054 108.83 108.161 110.565 108.08L114.442 108L114.516 103.769C114.627 101.715 116.51 101.755 118.54 102.158L118.503 108.04L123.857 108.08C124.226 110.659 123.968 112.31 122.011 112.31L118.503 112.27L118.54 116.339C118.577 118.394 116.879 118.716 114.516 118.233L114.442 112.27Z" fill="#FBFBFB"/>
</svg>
