<svg width="133" height="56" viewBox="0 0 133 56" fill="none" xmlns="http://www.w3.org/2000/svg">
<path d="M12.729 20.8142C14.4127 24.0973 14.1461 29.1603 11.1037 30.7995C7.95248 32.4973 3.17897 29.7912 1.24346 26.3849C-0.677266 23.0046 -0.466622 17.767 2.54371 16.0843C5.69762 14.3214 10.8146 17.081 12.729 20.8142Z" fill="#333333"/>
<path d="M44.7769 19.2394C47.0641 16.3276 51.8351 14.3632 54.6639 16.3355C57.594 18.3784 57.1797 23.7659 54.8887 26.9535C52.6151 30.1167 47.7079 32.2063 44.853 30.2812C41.8619 28.2643 42.1762 22.5505 44.7769 19.2394Z" fill="#333333"/>
<path d="M30.2692 8.52926C30.8814 4.40637 34.4198 -0.245594 38.2442 0.0100888C42.2054 0.274915 44.769 5.69101 44.3049 10.0811C43.8443 14.4377 40.2428 19.2888 36.4192 19.0936C32.4131 18.8891 29.5731 13.2174 30.2692 8.52926Z" fill="#333333"/>
<path d="M12.374 10.2158C11.9574 6.06959 14.2516 0.721223 18.0267 0.0695298C21.9369 -0.605474 25.7535 4.04882 26.3793 8.41962C27.0004 12.757 24.6939 18.3136 20.9343 19.0238C16.9954 19.7679 12.8478 14.9305 12.374 10.2158Z" fill="#333333"/>
<path d="M28.2779 21.6665C25.1454 21.6354 22.8571 23.2661 21.3775 24.3512C18.789 26.2495 18.6916 27.4659 15.3482 31.7609C10.9366 37.4283 9.63401 37.2017 8.55161 40.2446C8.25355 41.0825 6.75122 45.3059 8.88048 49.3726C11.0625 53.5401 16.1153 55.7418 20.1716 55.3863C23.8336 55.0654 24.4931 52.8524 28.2779 52.9164C31.7694 52.9754 32.2143 54.8757 35.5188 55.2789C40.4481 55.8803 46.7932 52.5469 48.4543 47.3322C49.4838 44.1002 48.3927 41.1545 48.0158 40.1372C46.8029 36.8628 45.1949 36.7681 41 31.6536C37.5495 27.4467 37.6671 26.3279 34.9707 24.3512C33.4622 23.2453 31.2887 21.6963 28.2779 21.6665Z" fill="#333333"/>
<path d="M41.1965 37.7471C41.0278 38.083 40.6674 38.1587 40.6252 38.1674C40.0257 38.176 39.4244 38.1846 38.8249 38.1949C38.7476 38.2328 38.5894 38.3206 38.4663 38.4997C38.301 38.7443 38.3098 38.994 38.3169 39.075C38.2852 42.9964 38.2553 46.9179 38.2237 50.8393C38.2237 50.8721 38.2114 51.1993 37.9371 51.3749C37.793 51.4679 37.6435 51.4731 37.5767 51.4714C31.072 51.5024 24.5672 51.5334 18.0625 51.5644C17.9816 51.5403 17.8902 51.499 17.8058 51.4283C17.4735 51.1528 17.5298 50.6774 17.5368 50.6206C17.6775 44.338 17.7443 39.7518 17.7162 38.9837C17.7109 38.8063 17.6845 38.4446 17.4296 38.25C17.2362 38.1036 17.0006 38.1209 16.6297 38.1381C16.3062 38.1536 15.828 38.1708 15.2233 38.1691C14.9402 38.2328 14.6501 38.1036 14.5148 37.8591C14.3741 37.6025 14.4374 37.277 14.6677 37.0841C16.2289 35.6925 17.7918 34.301 19.3529 32.9077V27.9409C19.3494 27.9185 19.3318 27.7876 19.4232 27.6688C19.5199 27.5414 19.6658 27.5276 19.6887 27.5259C20.5958 27.5138 21.5047 27.5017 22.4119 27.4897C22.4347 27.488 22.5701 27.4811 22.6791 27.581C22.8092 27.7015 22.7881 27.8686 22.7864 27.8841V29.8491C24.3862 28.4231 25.9877 26.9954 27.5876 25.5694C27.621 25.5332 27.7423 25.4161 27.9374 25.3938C28.2222 25.3628 28.4138 25.5711 28.4332 25.5918C32.6507 29.3617 36.87 33.1316 41.0876 36.9032C41.288 37.1478 41.3301 37.4767 41.1965 37.7471Z" fill="#FBFBFB"/>
<path d="M30.7936 31.3473C30.6201 30.875 30.5016 30.4854 30.425 30.2146C30.3089 29.8042 30.2655 29.5843 30.1383 29.5623C29.9569 29.5309 29.7454 29.9261 29.641 30.121C29.4897 30.4035 29.2977 30.8609 29.2395 31.5071C28.2023 32.79 27.9358 33.6357 27.901 34.1857C27.8935 34.3045 27.8829 34.6276 27.7671 35.0474C27.5945 35.6732 27.3019 36.1007 27.1744 36.2837C25.6424 38.4816 23.7325 40.9104 23.7325 40.9104C22.1268 42.9523 21.6175 43.8957 21.2952 44.6024C21.2112 44.7865 20.7086 45.9157 20.6449 47.3846C20.6187 47.9874 20.679 48.3598 20.8174 48.7107C21.131 49.5056 21.7438 49.9308 21.9057 50.0368C22.7242 50.5727 23.8571 50.7023 24.8254 50.2578C25.9786 49.7284 26.3464 48.6377 26.4445 48.3467C26.5983 47.8904 26.6006 47.5334 26.6037 47.0336C26.6063 46.6206 26.5636 46.2379 26.3383 46.0325C26.2987 45.9964 26.1991 45.9057 26.0729 45.9155C25.9445 45.9255 25.8593 46.034 25.8207 46.0845C25.6618 46.2927 25.714 46.4849 25.6482 46.8776C25.6482 46.8776 25.6209 47.0405 25.5287 47.3456C25.3724 47.8634 24.7353 48.5304 23.8698 48.6587C23.7841 48.6714 22.7248 48.8136 22.2242 48.1646C22.054 47.944 22.0213 47.7267 21.972 47.3976C21.8405 46.5211 22.141 45.8105 22.2905 45.5125C22.4469 45.2008 22.6115 45.0057 22.9408 44.6154C23.5299 43.9172 24.1086 43.4639 24.4405 43.2373C24.8541 42.955 24.8707 43.0101 25.2766 42.7173C25.8292 42.3185 26.4399 41.8665 26.6966 41.1182C26.7987 40.8206 26.7177 40.8467 26.8426 40.4551C26.9407 40.1476 27.1225 39.6003 27.6256 39.1421C27.7553 39.024 27.9673 38.8562 28.2759 38.713C28.4481 38.3841 28.6404 38.1714 28.767 38.05C28.946 37.8783 29.0754 37.8104 29.2049 37.777C29.2907 37.7548 29.3654 37.7506 29.4173 37.751C29.435 38.128 29.4526 38.505 29.4703 38.882C30.1654 39.0274 30.421 39.2876 30.5255 39.4996C30.6375 39.7268 30.5586 39.8637 30.7448 40.2396C30.8789 40.5102 30.9956 40.5924 30.9882 40.7953C30.9822 40.9601 30.8988 41.0849 30.7935 41.2422C30.7058 41.3735 30.6087 41.5187 30.428 41.6003C30.3492 41.6359 30.309 41.6348 30.0869 41.6719C29.8961 41.7038 29.7437 41.735 29.6482 41.7555C29.6151 41.8192 29.5677 41.9317 29.5629 42.0778C29.5554 42.3045 29.6551 42.4696 29.6969 42.5313C29.8933 42.996 30.1531 43.8282 29.9284 44.7753C29.8863 44.953 29.8314 45.1162 29.77 45.2647C29.7986 45.5721 29.8448 46.0645 29.9041 46.6731C29.9041 46.6731 29.9744 47.4369 30.5011 49.8003C30.5142 49.859 30.5473 50.0002 30.6595 50.1346C31.0176 50.5636 31.8871 50.5716 32.0363 50.3017C32.1285 50.135 31.9538 49.8482 31.9388 49.8242C31.8585 49.6954 31.787 49.6714 31.6952 49.5616C31.5376 49.3733 31.5101 49.1595 31.488 48.9887C31.4386 48.6051 31.4051 46.2826 31.4297 43.0976C31.7542 42.3586 32.0239 41.7687 32.2069 41.3735C32.5152 40.7076 32.6221 40.4979 32.7079 40.1326C32.8583 39.4929 32.8035 38.9763 32.7552 38.5566C32.6837 37.9347 32.4474 36.7028 32.28 35.9188C32.2553 35.8028 32.1926 35.5119 32.3531 35.3459C32.4197 35.277 32.5047 35.2503 32.5603 35.2384C33.0152 35.2145 33.47 35.1907 33.9249 35.1668C34.1577 35.0831 34.6489 34.8657 34.924 34.3671C34.9924 34.2432 35.2306 33.8033 35.0459 33.5077C34.9473 33.3499 34.7858 33.3258 34.3448 33.2117C33.5428 33.0041 33.1363 32.8962 32.8649 32.6961C32.5065 32.4318 32.5867 32.2512 32.2435 31.9322C31.7954 31.5157 31.2237 31.3877 30.7936 31.3473Z" fill="#333333"/>
<path d="M57.889 49.7092C56.9679 49.7092 56.3614 49.2291 56.6535 48.2433L61.5731 31.3588C62.4491 30.9796 63.9093 30.8027 64.5608 30.8027C65.5716 30.8027 66.0208 31.1313 66.5825 33.1535L71.0303 48.7993C70.581 49.1279 69.4129 49.7092 68.3346 49.7092C67.6607 49.7092 67.0317 49.5577 66.7396 48.319L65.9759 45.2607H60.1129L58.9672 49.5071C58.6303 49.6335 58.2034 49.7092 57.889 49.7092ZM65.3918 42.8847L63.1904 33.9623L60.7644 42.8847H65.3918Z" fill="#333333"/>
<path d="M72.626 43.0352C72.626 38.1569 75.0746 35.9074 78.0173 35.9074C79.2977 35.9074 80.3535 36.3624 81.1847 37.0954C81.1622 34.4919 81.1173 32.2171 81.0498 30.8522C81.6339 30.4477 82.6223 30.1191 83.476 30.1191C84.5992 30.1191 84.9585 30.6247 84.9585 31.8632C84.9585 33.3545 84.8687 36.3624 84.8687 40.5582V45.8662C84.8687 46.8772 85.1158 47.7871 85.9694 47.964C85.6325 49.1015 84.6216 49.784 83.4984 49.784C82.1506 49.784 81.4767 48.7728 81.3643 47.509L81.3419 47.3322C80.5332 48.8992 79.1405 49.784 77.4781 49.784C74.6477 49.784 72.626 47.4586 72.626 43.0352ZM78.8709 47.2816C80.2861 47.2816 81.2071 45.9926 81.2071 44.4001V39.0417C80.713 38.6372 79.9492 38.3086 79.118 38.3086C77.6803 38.3086 76.4673 39.2691 76.4673 42.7573C76.4673 45.6892 77.3433 47.2816 78.8709 47.2816Z" fill="#333333"/>
<path d="M87.7224 42.8611C87.7224 38.7916 90.1935 35.9102 94.1022 35.9102C98.0782 35.9102 100.459 38.7916 100.459 42.8611C100.459 46.9306 98.0782 49.7868 94.1022 49.7868C90.1935 49.7868 87.7224 46.9305 87.7224 42.8611ZM96.6406 42.8611C96.6406 39.3983 95.6072 38.1092 94.1022 38.1092C92.6645 38.1092 91.5638 39.3983 91.5638 42.8611C91.5638 46.3239 92.6645 47.5877 94.1022 47.5877C95.6072 47.5877 96.6406 46.3239 96.6406 42.8611Z" fill="#333333"/>
<path d="M103.267 45.1601V38.4871L102.009 38.5377C101.829 37.4761 101.919 36.9453 102.301 36.7179C102.526 36.5662 102.93 36.6419 103.222 36.6168C103.806 35.4541 104.974 33.6594 105.581 32.8505C106.03 32.7748 106.614 32.8001 106.996 32.8505C107.019 33.4066 107.041 34.4935 106.996 36.5662C108.254 36.5915 109.31 36.5662 110.074 36.5157C110.164 36.6673 110.231 36.9454 110.231 37.1475C110.231 38.007 109.804 38.5124 109.04 38.5124L106.951 38.4871V43.7952C106.951 46.4997 107.468 47.2581 108.726 47.2581C109.355 47.2581 109.759 47.1064 110.029 46.8789C109.917 47.9657 108.996 49.7604 106.929 49.7604C103.716 49.7604 103.267 47.0306 103.267 45.1601Z" fill="#333333"/>
<path d="M111.444 43.0633C111.444 38.6146 114.252 35.9102 117.981 35.9102C121.036 35.9102 122.653 37.7806 122.653 40.0048C122.653 43.3161 119.149 44.226 115.375 43.7458C115.667 45.9195 116.79 46.9558 118.565 46.9558C120.048 46.9558 121.013 46.248 121.8 45.0602C122.204 45.3381 122.384 45.8184 122.384 46.2987C122.384 47.9668 120.362 49.7868 117.397 49.7868C113.892 49.7868 111.444 47.2339 111.444 43.0633ZM119.306 39.7773C119.306 38.741 118.767 38.1092 117.801 38.1092C116.341 38.1092 115.308 39.5499 115.285 42.4062C118.071 42.2798 119.306 41.2939 119.306 39.7773Z" fill="#333333"/>
<path d="M126.212 44.0596L123.044 44.0849C122.775 42.6694 122.797 41.4815 123.853 41.4309L126.212 41.3803L126.257 38.7263C126.324 37.4373 127.47 37.4625 128.705 37.7153L128.683 41.4056L131.94 41.4309C132.165 43.0486 132.007 44.0849 130.817 44.0849L128.683 44.0596L128.705 46.6125C128.728 47.9016 127.694 48.1038 126.257 47.8005L126.212 44.0596Z" fill="#333333"/>
</svg>
