<svg width="187" height="184" viewBox="0 0 187 184" fill="none" xmlns="http://www.w3.org/2000/svg">
<path d="M53.8123 50.039C57.9853 57.9304 57.3247 70.1003 49.7838 74.0402C41.973 78.1212 30.1413 71.6168 25.3439 63.4292C20.5832 55.3041 21.1053 42.7146 28.5667 38.67C36.3841 34.4325 49.0671 41.0657 53.8123 50.039Z" fill="#FBFBFB"/>
<path d="M133.25 46.2538C138.919 39.2548 150.745 34.533 157.756 39.2738C165.019 44.1842 163.992 57.1338 158.313 64.7958C152.678 72.3992 140.515 77.4218 133.439 72.7945C126.025 67.9465 126.804 54.2124 133.25 46.2538Z" fill="#FBFBFB"/>
<path d="M97.2937 20.5015C98.811 10.5914 107.581 -0.590325 117.061 0.0242502C126.879 0.660803 133.233 13.6793 132.083 24.2315C130.941 34.7033 122.014 46.3637 112.537 45.8945C102.608 45.4029 95.5684 31.7702 97.2937 20.5015Z" fill="#FBFBFB"/>
<path d="M52.9349 24.5606C51.9022 14.5945 57.5886 1.73883 66.9456 0.172385C76.6375 -1.4501 86.0973 9.73725 87.6486 20.2432C89.1881 30.6689 83.471 44.0249 74.1524 45.732C64.3894 47.5206 54.1093 35.8931 52.9349 24.5606Z" fill="#FBFBFB"/>
<path d="M92.3545 52.0714C84.5902 51.9966 78.9183 55.9163 75.2509 58.5245C68.8351 63.0875 68.5937 66.0112 60.3067 76.3351C49.3721 89.9576 46.1434 89.4129 43.4606 96.727C42.7218 98.7409 38.9981 108.893 44.2757 118.668C49.6841 128.685 62.208 133.977 72.2621 133.123C81.3387 132.351 82.9735 127.032 92.3545 127.186C101.009 127.328 102.111 131.895 110.302 132.864C122.52 134.31 138.247 126.298 142.364 113.763C144.916 105.995 142.211 98.9141 141.277 96.4688C138.271 88.5982 134.285 88.3706 123.887 76.077C115.335 65.9652 115.627 63.2759 108.943 58.5245C105.204 55.8663 99.817 52.1432 92.3545 52.0714Z" fill="#FBFBFB"/>
<path d="M124.369 90.7311C123.951 91.5384 123.057 91.7205 122.953 91.7412C121.467 91.7619 119.976 91.7826 118.491 91.8075C118.299 91.8985 117.907 92.1096 117.602 92.5401C117.192 93.128 117.214 93.7282 117.231 93.9228C117.153 103.349 117.079 112.774 117 122.2C117 122.279 116.97 123.066 116.29 123.488C115.933 123.711 115.562 123.724 115.397 123.72C99.274 123.794 83.1513 123.869 67.0284 123.943C66.828 123.885 66.6014 123.786 66.3923 123.616C65.5687 122.954 65.7081 121.811 65.7256 121.675C66.0742 106.573 66.2398 95.5497 66.1701 93.7034C66.157 93.277 66.0916 92.4077 65.4598 91.9399C64.9804 91.588 64.3965 91.6295 63.4771 91.6708C62.6753 91.7081 61.4901 91.7495 59.9911 91.7453C59.2896 91.8985 58.5706 91.5881 58.235 91.0002C57.8864 90.3834 58.0433 89.601 58.6141 89.1374C62.4836 85.7926 66.3574 82.4478 70.2269 79.0989V67.1603C70.2181 67.1065 70.1746 66.7919 70.4012 66.5062C70.6408 66.1999 71.0025 66.1668 71.0592 66.1626C73.3076 66.1336 75.5605 66.1047 77.8089 66.0757C77.8656 66.0715 78.2011 66.055 78.4713 66.2951C78.7938 66.5849 78.7415 66.9864 78.7371 67.0237V71.7469C82.7024 68.3193 86.6721 64.8876 90.6375 61.46C90.7203 61.3731 91.0209 61.0916 91.5046 61.0378C92.2105 60.9633 92.6855 61.4642 92.7334 61.5139C103.187 70.5754 113.645 79.637 124.099 88.7027C124.596 89.2905 124.7 90.0812 124.369 90.7311Z" fill="#43BCFF"/>
<path d="M98.5875 75.3514C98.1574 74.2161 97.8638 73.2796 97.6739 72.6288C97.386 71.6424 97.2785 71.1137 96.9632 71.0609C96.5137 70.9855 95.9893 71.9353 95.7307 72.4037C95.3558 73.0828 94.8797 74.1822 94.7354 75.7355C92.1646 78.8192 91.5041 80.8518 91.4178 82.174C91.3992 82.4596 91.3731 83.2361 91.0861 84.2451C90.6581 85.7493 89.9329 86.7769 89.6168 87.2168C85.8197 92.4998 81.0858 98.3378 81.0858 98.3378C77.1058 103.246 75.8435 105.513 75.0446 107.212C74.8365 107.655 73.5906 110.369 73.4327 113.9C73.368 115.349 73.5173 116.244 73.8604 117.087C74.6377 118.998 76.1566 120.02 76.5578 120.275C78.5866 121.563 81.3947 121.874 83.7946 120.806C86.653 119.533 87.5645 116.912 87.8077 116.212C88.189 115.115 88.1946 114.257 88.2024 113.056C88.2089 112.063 88.1029 111.143 87.5446 110.65C87.4464 110.563 87.1996 110.345 86.8867 110.368C86.5686 110.393 86.3572 110.653 86.2617 110.775C85.8678 111.275 85.9972 111.737 85.834 112.681C85.834 112.681 85.7663 113.073 85.5379 113.806C85.1504 115.05 83.5713 116.654 81.4261 116.962C81.2137 116.993 78.5882 117.334 77.3472 115.775C76.9253 115.244 76.8445 114.722 76.7221 113.931C76.3963 111.824 77.141 110.116 77.5116 109.4C77.8992 108.651 78.3072 108.182 79.1234 107.243C80.5837 105.565 82.0179 104.476 82.8406 103.931C83.8657 103.252 83.9068 103.385 84.9129 102.681C86.2828 101.723 87.7963 100.636 88.4327 98.8373C88.6857 98.122 88.485 98.1847 88.7945 97.2436C89.0376 96.5043 89.4883 95.1889 90.7353 94.0874C91.0566 93.8035 91.5822 93.4003 92.3471 93.0561C92.7738 92.2654 93.2505 91.7543 93.5643 91.4624C94.008 91.0496 94.3288 90.8865 94.6498 90.8061C94.8624 90.7529 95.0475 90.7429 95.1761 90.7436C95.22 91.6499 95.2638 92.5561 95.3077 93.4623C97.0303 93.8118 97.664 94.4372 97.923 94.9467C98.2007 95.4929 98.0052 95.8219 98.4666 96.7255C98.7988 97.376 99.0881 97.5735 99.0698 98.0613C99.0549 98.4574 98.8482 98.7572 98.5874 99.1354C98.3698 99.451 98.1292 99.7999 97.6814 99.9962C97.4861 100.082 97.3863 100.079 96.8357 100.168C96.3628 100.245 95.9851 100.32 95.7485 100.369C95.6663 100.522 95.549 100.793 95.5371 101.144C95.5186 101.689 95.7656 102.086 95.8693 102.234C96.3559 103.351 97 105.351 96.4431 107.628C96.3386 108.055 96.2027 108.447 96.0505 108.804C96.1213 109.543 96.2358 110.727 96.3827 112.189C96.3827 112.189 96.5569 114.025 97.8625 119.706C97.895 119.847 97.9771 120.187 98.2551 120.51C99.1427 121.541 101.298 121.56 101.668 120.911C101.896 120.511 101.463 119.821 101.426 119.764C101.227 119.454 101.05 119.396 100.822 119.132C100.432 118.68 100.363 118.166 100.309 117.755C100.186 116.833 100.103 111.251 100.164 103.595C100.969 101.819 101.637 100.401 102.091 99.4511C102.855 97.8504 103.12 97.3462 103.332 96.4683C103.705 94.9307 103.569 93.689 103.45 92.6802C103.272 91.1853 102.687 88.2243 102.272 86.3397C102.21 86.0609 102.055 85.3617 102.453 84.9626C102.618 84.7971 102.829 84.7328 102.966 84.7043C104.094 84.6469 105.221 84.5896 106.349 84.5322C106.926 84.331 108.143 83.8085 108.825 82.61C108.995 82.3122 109.585 81.2548 109.127 80.5443C108.883 80.165 108.483 80.1071 107.39 79.8327C105.402 79.3337 104.394 79.0744 103.721 78.5934C102.833 77.9581 103.032 77.524 102.181 76.7572C101.071 75.7561 99.6535 75.4486 98.5875 75.3514Z" fill="#FBFBFB"/>
<path d="M3.24559 182.903C0.962572 182.903 -0.540721 181.749 0.183269 179.379L12.3769 138.795C14.5483 137.883 18.1674 137.458 19.7822 137.458C22.2877 137.458 23.4012 138.248 24.7932 143.108L35.8177 180.716C34.704 181.505 31.8087 182.903 29.1362 182.903C27.4657 182.903 25.9067 182.539 25.1829 179.561L23.2899 172.21H8.75771L5.91807 182.417C5.08282 182.721 4.02489 182.903 3.24559 182.903ZM21.8421 166.499L16.3857 145.053L10.3724 166.499H21.8421Z" fill="#FBFBFB"/>
<path d="M39.7695 166.861C39.7695 155.135 45.8386 149.728 53.1325 149.728C56.3061 149.728 58.9231 150.822 60.9832 152.584C60.9274 146.326 60.8162 140.858 60.649 137.577C62.0968 136.605 64.5466 135.815 66.6625 135.815C69.4464 135.815 70.3371 137.031 70.3371 140.008C70.3371 143.592 70.1144 150.822 70.1144 160.907V173.666C70.1144 176.096 70.727 178.283 72.8427 178.708C72.0076 181.443 69.5021 183.083 66.718 183.083C63.3774 183.083 61.707 180.653 61.4285 177.615L61.373 177.19C59.3684 180.956 55.9164 183.083 51.7962 183.083C44.7807 183.083 39.7695 177.494 39.7695 166.861ZM55.2484 177.068C58.7561 177.068 61.0389 173.97 61.0389 170.142V157.262C59.814 156.29 57.9209 155.5 55.8607 155.5C52.2973 155.5 49.2907 157.809 49.2907 166.193C49.2907 173.241 51.4621 177.068 55.2484 177.068Z" fill="#FBFBFB"/>
<path d="M77.1836 166.436C77.1836 156.655 83.3085 149.729 92.9966 149.729C102.852 149.729 108.753 156.655 108.753 166.436C108.753 176.218 102.852 183.083 92.9966 183.083C83.3085 183.083 77.1836 176.218 77.1836 166.436ZM99.2883 166.436C99.2883 158.113 96.727 155.014 92.9966 155.014C89.4332 155.014 86.705 158.113 86.705 166.436C86.705 174.76 89.4332 177.797 92.9966 177.797C96.727 177.797 99.2883 174.76 99.2883 166.436Z" fill="#FBFBFB"/>
<path d="M115.723 171.961V155.921L112.605 156.043C112.16 153.491 112.383 152.215 113.329 151.668C113.886 151.304 114.888 151.486 115.612 151.425C117.06 148.631 119.955 144.317 121.458 142.373C122.572 142.191 124.02 142.251 124.966 142.373C125.022 143.709 125.078 146.322 124.966 151.304C128.084 151.365 130.701 151.304 132.594 151.183C132.817 151.547 132.984 152.215 132.984 152.701C132.984 154.767 131.926 155.982 130.033 155.982L124.855 155.921V168.68C124.855 175.181 126.135 177.004 129.254 177.004C130.813 177.004 131.815 176.639 132.483 176.092C132.205 178.704 129.922 183.018 124.799 183.018C116.837 183.018 115.723 176.457 115.723 171.961Z" fill="#FBFBFB"/>
<path d="M135.988 166.922C135.988 156.229 142.948 149.729 152.191 149.729C159.763 149.729 163.772 154.224 163.772 159.571C163.772 167.53 155.086 169.717 145.732 168.563C146.456 173.788 149.24 176.278 153.639 176.278C157.313 176.278 159.708 174.577 161.656 171.722C162.658 172.39 163.104 173.545 163.104 174.699C163.104 178.709 158.093 183.083 150.743 183.083C142.057 183.083 135.988 176.947 135.988 166.922ZM155.476 159.024C155.476 156.533 154.14 155.014 151.746 155.014C148.126 155.014 145.565 158.477 145.509 165.343C152.413 165.039 155.476 162.669 155.476 159.024Z" fill="#FBFBFB"/>
<path d="M172.587 169.311L164.736 169.371C164.068 165.969 164.124 163.114 166.74 162.992L172.587 162.871L172.698 156.491C172.865 153.393 175.705 153.454 178.767 154.061L178.711 162.931L186.785 162.992C187.342 166.881 186.952 169.372 184.001 169.372L178.711 169.311L178.767 175.447C178.823 178.546 176.262 179.032 172.698 178.303L172.587 169.311Z" fill="#FBFBFB"/>
</svg>
