<svg width="585" height="565" viewBox="0 0 585 565" fill="none" xmlns="http://www.w3.org/2000/svg">
<path d="M132.524 213.245C149.856 246.22 147.343 297.192 116.334 313.818C84.2161 331.039 35.346 304.001 15.4354 269.797C-4.32322 235.854 -2.38783 183.127 28.2914 166.064C60.4339 148.188 112.815 175.75 132.524 213.245Z" fill="#FBFBFB"/>
<path d="M459.822 196.052C483.064 166.647 531.715 146.675 560.692 166.409C590.705 186.848 586.696 241.092 563.426 273.272C540.333 305.206 490.296 326.444 461.055 307.187C430.419 287.011 433.393 229.487 459.822 196.052Z" fill="#FBFBFB"/>
<path d="M311.178 88.8186C317.261 47.2949 353.211 0.323378 392.286 2.73669C432.758 5.2363 459.168 59.6434 454.608 103.85C450.083 147.72 413.497 196.698 374.432 194.894C333.505 193.003 304.261 136.035 311.178 88.8186Z" fill="#FBFBFB"/>
<path d="M128.454 106.558C124.027 64.8426 147.24 10.9137 185.774 4.1961C225.686 -2.7618 264.862 43.9251 271.435 87.8922C277.959 131.523 254.628 187.548 216.255 194.854C176.053 202.509 133.488 153.993 128.454 106.558Z" fill="#FBFBFB"/>
<path d="M291.366 221.112C259.368 220.93 236.061 237.439 220.993 248.423C194.632 267.639 193.687 279.886 159.714 323.257C114.886 380.486 101.571 378.259 90.6409 408.932C87.631 417.378 72.4599 459.951 94.3769 500.794C116.837 542.65 168.539 564.599 209.957 560.851C247.349 557.468 253.994 535.165 292.656 535.651C328.322 536.099 332.945 555.207 366.715 559.127C417.089 564.974 481.763 531.156 498.515 478.599C508.898 446.025 497.63 416.422 493.739 406.198C481.214 373.291 464.786 372.405 421.726 321.102C386.308 278.903 387.464 267.637 359.84 247.854C344.385 236.786 322.121 221.286 291.366 221.112Z" fill="#FBFBFB"/>
<path d="M126.45 217.985C141.156 245.963 139.024 289.212 112.714 303.318C85.4622 317.93 43.997 294.989 27.1033 265.968C10.3386 237.168 11.9807 192.43 38.0114 177.953C65.2835 162.785 109.727 186.171 126.45 217.985Z" fill="#FFD833"/>
<path d="M467.112 199.24C487.026 174.046 528.712 156.933 553.54 173.841C579.257 191.355 575.822 237.832 555.883 265.405C536.097 292.767 493.223 310.965 468.168 294.464C441.919 277.177 444.467 227.889 467.112 199.24Z" fill="#FFD833"/>
<path d="M319.221 87.7974C324.632 50.8565 356.615 9.069 391.377 11.216C427.383 13.4397 450.878 61.8421 446.821 101.17C442.795 140.198 410.247 183.771 375.494 182.166C339.083 180.483 313.068 129.803 319.221 87.7974Z" fill="#FFD833"/>
<path d="M137.762 102.93C133.863 66.1957 154.304 18.7067 188.236 12.7912C223.383 6.66422 257.88 47.776 263.669 86.4929C269.413 124.914 248.868 174.249 215.078 180.682C179.676 187.423 142.195 144.7 137.762 102.93Z" fill="#FFD833"/>
<path d="M291.356 233.778C261.602 233.609 239.929 248.961 225.917 259.175C201.404 277.043 200.526 288.432 168.934 328.762C127.249 381.978 114.868 379.908 104.704 408.43C101.905 416.284 87.7978 455.872 108.178 493.852C129.064 532.773 177.14 553.183 215.655 549.698C250.425 546.552 256.605 525.813 292.556 526.265C325.721 526.681 330.02 544.45 361.422 548.095C408.265 553.532 468.404 522.085 483.982 473.213C493.636 442.923 483.159 415.395 479.541 405.888C467.894 375.288 452.618 374.464 412.577 326.758C379.642 287.518 380.716 277.042 355.029 258.645C340.658 248.353 319.955 233.941 291.356 233.778Z" fill="#FFD833"/>
<path d="M412.684 385.791C411.094 388.941 407.674 389.664 407.274 389.747C401.58 389.851 395.869 389.955 390.176 390.075C389.442 390.432 387.943 391.26 386.781 392.942C385.221 395.237 385.314 397.574 385.384 398.331C385.234 435.036 385.1 471.74 384.95 508.445C384.951 508.751 384.847 511.814 382.249 513.469C380.883 514.345 379.464 514.399 378.83 514.385C317.047 514.929 255.265 515.472 193.482 516.016C192.713 515.794 191.843 515.41 191.039 514.753C187.872 512.187 188.388 507.735 188.453 507.203C189.548 448.395 190.006 405.468 189.71 398.279C189.653 396.619 189.388 393.235 186.96 391.424C185.117 390.061 182.88 390.232 179.358 390.407C176.286 390.565 171.744 390.745 166 390.752C163.314 391.359 160.554 390.162 159.259 387.878C157.913 385.482 158.502 382.433 160.682 380.619C175.457 367.534 190.248 354.449 205.022 341.347L204.832 294.86C204.797 294.65 204.626 293.426 205.489 292.31C206.403 291.114 207.788 290.979 208.005 290.962C216.621 290.814 225.254 290.666 233.87 290.517C234.087 290.5 235.372 290.431 236.411 291.361C237.652 292.485 237.458 294.049 237.442 294.194L237.517 312.586C252.658 299.177 267.815 285.752 282.956 272.343C283.272 272.003 284.419 270.902 286.272 270.685C288.976 270.384 290.804 272.327 290.988 272.52C331.192 307.64 371.413 342.76 411.617 377.897C413.53 380.178 413.943 383.255 412.684 385.791Z" fill="#FBFBFB"/>
<path d="M313.652 326.303C311.986 321.889 310.846 318.247 310.107 315.716C308.989 311.88 308.568 309.823 307.359 309.622C305.635 309.336 303.641 313.042 302.657 314.87C301.232 317.521 299.425 321.809 298.897 327.86C289.094 339.907 286.596 347.833 286.286 352.982C286.219 354.095 286.132 357.119 285.048 361.052C283.432 366.916 280.67 370.929 279.465 372.647C264.999 393.278 246.951 416.085 246.951 416.085C231.778 435.259 226.977 444.108 223.942 450.736C223.152 452.462 218.421 463.051 217.873 476.801C217.648 482.444 218.234 485.928 219.562 489.206C222.572 496.634 228.408 500.59 229.95 501.575C237.745 506.559 248.511 507.728 257.69 503.53C268.624 498.53 272.075 488.308 272.996 485.58C274.439 481.303 274.447 477.961 274.458 473.284C274.467 469.418 274.046 465.838 271.898 463.924C271.521 463.588 270.572 462.743 269.373 462.84C268.154 462.938 267.348 463.957 266.984 464.431C265.483 466.386 265.986 468.183 265.376 471.861C265.376 471.861 265.123 473.387 264.259 476.246C262.794 481.098 256.768 487.366 248.553 488.6C247.739 488.722 237.683 490.095 232.903 484.04C231.278 481.982 230.96 479.949 230.478 476.871C229.196 468.672 232.022 462.01 233.431 459.215C234.904 456.292 236.461 454.459 239.574 450.793C245.142 444.235 250.621 439.97 253.765 437.837C257.683 435.178 257.842 435.693 261.686 432.937C266.92 429.183 272.703 424.928 275.113 417.914C276.071 415.125 275.303 415.372 276.474 411.703C277.394 408.821 279.1 403.691 283.861 399.382C285.088 398.272 287.095 396.694 290.021 395.342C291.644 392.256 293.462 390.258 294.66 389.117C296.354 387.502 297.581 386.862 298.809 386.544C299.623 386.334 300.332 386.292 300.825 386.293C301.008 389.821 301.19 393.349 301.373 396.877C307.98 398.21 310.418 400.636 311.418 402.616C312.491 404.738 311.747 406.022 313.53 409.534C314.814 412.061 315.925 412.826 315.863 414.726C315.812 416.268 315.025 417.439 314.031 418.916C313.203 420.148 312.286 421.51 310.573 422.282C309.826 422.618 309.444 422.609 307.335 422.965C305.524 423.271 304.078 423.568 303.172 423.764C302.86 424.362 302.415 425.416 302.375 426.784C302.312 428.907 303.265 430.448 303.665 431.024C305.548 435.365 308.048 443.144 305.95 452.017C305.556 453.683 305.042 455.212 304.464 456.604C304.747 459.48 305.205 464.088 305.791 469.781C305.791 469.781 306.488 476.927 311.582 499.028C311.709 499.577 312.029 500.896 313.099 502.15C316.517 506.151 324.776 506.192 326.183 503.66C327.053 502.096 325.382 499.419 325.239 499.195C324.471 497.992 323.791 497.771 322.915 496.747C321.411 494.991 321.141 492.99 320.925 491.392C320.441 487.804 320.034 466.068 320.145 436.257C323.199 429.327 325.738 423.796 327.461 420.09C330.364 413.845 331.371 411.877 332.172 408.455C333.576 402.463 333.035 397.63 332.561 393.703C331.857 387.885 329.565 376.365 327.946 369.033C327.706 367.948 327.1 365.228 328.618 363.667C329.248 363.02 330.054 362.767 330.582 362.654C334.901 362.413 339.221 362.172 343.541 361.93C345.749 361.138 350.406 359.084 353 354.406C353.644 353.244 355.89 349.117 354.124 346.358C353.181 344.885 351.647 344.666 347.454 343.615C339.828 341.703 335.963 340.709 333.377 338.846C329.963 336.387 330.718 334.693 327.446 331.721C323.174 327.84 317.739 326.665 313.652 326.303Z" fill="#FFD833"/>
</svg>
