<svg width="953" height="1154" viewBox="0 0 953 1154" fill="none" xmlns="http://www.w3.org/2000/svg">
<path d="M295.576 338.637C276.607 388.393 219.216 433.494 171.582 415.436C122.245 396.732 104.604 318.315 122.431 264.608C140.122 211.31 198.852 163.935 246.641 181.226C296.709 199.341 317.146 282.061 295.576 338.637Z" fill="#FFD833" fill-opacity="0.5"/>
<path d="M626.596 677.111C680.572 674.748 748.711 708.816 755.176 758.783C761.873 810.539 699.522 857.084 642.524 862.021C585.961 866.92 515.131 832.536 507.898 782.728C500.321 730.545 565.219 679.798 626.596 677.111Z" fill="#FFD833" fill-opacity="0.5"/>
<path d="M600.35 415.046C650.974 382.681 736.086 377.628 770.912 422.313C806.983 468.598 773.584 548.328 721.524 584.865C669.861 621.123 581.975 627.37 546.502 583.267C509.338 537.06 542.785 451.849 600.35 415.046Z" fill="#FFD833" fill-opacity="0.5"/>
<path d="M406.623 233.62C447.386 189.665 527.803 164.254 571.961 199.783C617.699 236.584 604.858 322.929 563.721 371.328C522.898 419.357 440.108 446.606 395.469 411.804C348.701 375.342 360.27 283.602 406.623 233.62Z" fill="#FFD833" fill-opacity="0.5"/>
<path d="M438.509 518.476C408.068 483.583 367.949 473.779 341.678 467.731C295.716 457.151 281.604 467.615 202.306 471.434C97.6714 476.473 87.3242 459.936 43.7815 476.848C31.7916 481.505 -28.6432 504.978 -51.703 567.073C-75.3342 630.708 -49.5009 707.401 -5.80274 748.83C33.6466 786.23 64.0597 772.521 100.553 814.93C134.219 854.052 118.039 876.993 146.146 917.315C188.072 977.463 286.463 1015.92 359.178 984.796C404.246 965.506 425.382 925.511 432.681 911.698C456.175 867.238 441.401 848.581 455.497 753.729C467.091 675.712 480.347 666.397 475.232 617.863C472.37 590.711 467.767 552.012 438.509 518.476Z" fill="#FFD833" fill-opacity="0.5"/>
</svg>
