<svg width="1440" height="297" viewBox="0 0 1440 297" fill="none" xmlns="http://www.w3.org/2000/svg">
<path d="M109.975 151.416C110.791 152.564 112.819 152.535 114.439 151.259C115.673 150.287 116.846 148.026 115.95 146.942C115.46 146.35 113.137 145.864 111.487 147.099C109.837 148.334 109.16 150.267 109.975 151.416Z" fill="#FCA11D" fill-opacity="0.59"/>
<path d="M107.044 148.025C107.747 147.168 108.091 144.971 107.162 144.308C106.522 143.851 104.701 144.197 103.716 145.574C102.733 146.95 102.68 148.614 103.598 149.291C104.517 149.968 105.971 149.331 107.044 148.025Z" fill="#FCA11D" fill-opacity="0.59"/>
<path d="M104.916 164.862C106.668 164.035 106.815 162.838 107.033 161.7C107.237 160.636 107.815 159.688 108.643 158.999C110.109 157.779 110.598 155.795 109.962 154.062C109.326 152.329 107.692 151.192 105.819 151.304C104.761 151.367 103.724 151.062 102.891 150.412C102 149.716 101.124 148.927 99.2902 149.53C97.027 150.274 95.9448 152.952 96.7696 155.2C97.0021 155.833 97.3647 156.376 97.8154 156.809C98.3032 157.277 98.6764 157.846 98.909 158.469C99.1348 159.095 99.2211 159.778 99.1575 160.467C99.0991 161.103 99.1763 161.759 99.4087 162.392C100.233 164.64 102.754 165.882 104.916 164.862Z" fill="#FCA11D" fill-opacity="0.59"/>
<path d="M111.685 156.054C111.819 157.476 113.564 158.437 115.583 158.2C117.602 157.964 119.013 155.98 118.996 155.198C118.963 153.768 116.638 152.91 115.097 153.051C113.074 153.237 111.551 154.632 111.685 156.054Z" fill="#FCA11D" fill-opacity="0.59"/>
<path d="M108.32 162.083C108.073 163.227 109.183 164.425 110.799 164.758C112.414 165.091 113.988 164.076 114.169 163.29C114.431 162.149 112.763 160.758 111.69 160.614C110.054 160.394 108.566 160.938 108.32 162.083Z" fill="#FCA11D" fill-opacity="0.59"/>
<path d="M1072.46 63.2233C1073.07 64.494 1075.08 64.8093 1076.89 63.8259C1078.26 63.0769 1079.79 61.0466 1079.09 59.8262C1078.7 59.1591 1076.49 58.2857 1074.66 59.2238C1072.83 60.1618 1071.85 61.9523 1072.46 63.2233Z" fill="#FCA11D" fill-opacity="0.59"/>
<path d="M1070.13 59.3824C1070.97 58.6569 1071.67 56.5488 1070.86 55.7375C1070.3 55.1783 1068.45 55.2111 1067.25 56.401C1066.06 57.5908 1065.73 59.2226 1066.52 60.046C1067.32 60.8693 1068.86 60.4882 1070.13 59.3824Z" fill="#FCA11D" fill-opacity="0.59"/>
<path d="M1065.26 75.6178C1067.12 75.1002 1067.46 73.9446 1067.87 72.8599C1068.24 71.8453 1068.97 71.0084 1069.9 70.4697C1071.54 69.5158 1072.35 67.6426 1072.01 65.8263C1071.67 64.0101 1070.25 62.6116 1068.38 62.4038C1067.33 62.2864 1066.36 61.8104 1065.64 61.0275C1064.88 60.1906 1064.14 59.2637 1062.24 59.5473C1059.88 59.8974 1058.37 62.3541 1058.82 64.7103C1058.94 65.374 1059.21 65.9703 1059.58 66.4736C1059.99 67.0186 1060.26 67.6424 1060.39 68.2963C1060.51 68.9518 1060.48 69.6398 1060.3 70.3079C1060.14 70.9248 1060.11 71.5851 1060.23 72.2489C1060.68 74.6047 1062.96 76.2566 1065.26 75.6178Z" fill="#FCA11D" fill-opacity="0.59"/>
<path d="M1073.38 68.0858C1073.28 69.5104 1074.84 70.754 1076.87 70.8633C1078.9 70.9729 1080.62 69.2558 1080.73 68.4818C1080.94 67.0665 1078.78 65.8267 1077.24 65.7044C1075.22 65.5437 1073.48 66.661 1073.38 68.0858Z" fill="#FCA11D" fill-opacity="0.59"/>
<path d="M1069.07 73.4565C1068.64 74.5429 1069.54 75.9122 1071.07 76.515C1072.61 77.1174 1074.33 76.3834 1074.64 75.6388C1075.09 74.5584 1073.67 72.9047 1072.64 72.5806C1071.06 72.0862 1069.5 72.37 1069.07 73.4565Z" fill="#FCA11D" fill-opacity="0.59"/>
<path d="M1132 28.6341C1131.99 30.0496 1133.65 31.2344 1135.7 31.1666C1137.26 31.1149 1139.52 29.9837 1139.42 28.5726C1139.37 27.8011 1137.77 26.0234 1135.72 26.0404C1133.67 26.0573 1132 27.2186 1132 28.6341Z" fill="#FCA11D" fill-opacity="0.59"/>
<path d="M1131.59 24.1418C1132.65 23.8672 1134.2 22.293 1133.83 21.2029C1133.58 20.4518 1131.9 19.6472 1130.31 20.1748C1128.72 20.7026 1127.71 22.0182 1128.06 23.1137C1128.42 24.2092 1129.96 24.5601 1131.59 24.1418Z" fill="#FCA11D" fill-opacity="0.59"/>
<path d="M1120.12 36.5007C1122.02 36.8755 1122.83 35.9938 1123.67 35.2029C1124.45 34.4631 1125.46 34.0394 1126.53 33.9752C1128.42 33.8613 1129.97 32.5466 1130.46 30.7651C1130.94 28.9836 1130.28 27.0891 1128.7 26.0635C1127.81 25.4842 1127.14 24.6201 1126.84 23.5969C1126.53 22.5029 1126.27 21.3418 1124.44 20.7376C1122.18 19.9919 1119.75 21.515 1119.12 23.8261C1118.94 24.4772 1118.92 25.1323 1119.03 25.7513C1119.16 26.4215 1119.13 27.104 1118.96 27.7471C1118.78 28.3884 1118.45 28.9926 1118 29.5122C1117.59 29.9921 1117.27 30.5694 1117.09 31.2205C1116.46 33.5313 1117.78 36.0381 1120.12 36.5007Z" fill="#FCA11D" fill-opacity="0.59"/>
<path d="M1130.7 33.4056C1129.98 34.6366 1130.84 36.4544 1132.61 37.4659C1134.38 38.4774 1136.67 37.7118 1137.11 37.0683C1137.91 35.8915 1136.53 33.8119 1135.2 33.0081C1133.45 31.9525 1131.41 32.1744 1130.7 33.4056Z" fill="#FCA11D" fill-opacity="0.59"/>
<path d="M1124.48 36.2793C1123.62 37.059 1123.83 38.6899 1124.94 39.9223C1126.06 41.1544 1127.92 41.2704 1128.52 40.7416C1129.39 39.9742 1128.85 37.8549 1128.06 37.0989C1126.87 35.9461 1125.35 35.4996 1124.48 36.2793Z" fill="#FCA11D" fill-opacity="0.59"/>
<path d="M155.567 123.344C156.131 124.639 158.121 125.036 159.966 124.127C161.371 123.435 162.98 121.469 162.324 120.221C161.965 119.538 159.791 118.575 157.925 119.438C156.059 120.3 155.004 122.049 155.567 123.344Z" fill="#FCA11D" fill-opacity="0.59"/>
<path d="M153.39 119.41C154.252 118.719 155.036 116.642 154.262 115.798C153.729 115.217 151.877 115.174 150.633 116.314C149.39 117.454 149 119.071 149.761 119.926C150.522 120.781 152.074 120.463 153.39 119.41Z" fill="#FCA11D" fill-opacity="0.59"/>
<path d="M147.878 135.437C149.76 134.996 150.148 133.855 150.593 132.788C151.01 131.79 151.768 130.983 152.718 130.483C154.401 129.597 155.284 127.758 155.015 125.93C154.746 124.101 153.378 122.645 151.523 122.361C150.475 122.201 149.523 121.686 148.84 120.874C148.11 120.007 147.413 119.051 145.497 119.256C143.131 119.51 141.526 121.903 141.876 124.275C141.974 124.944 142.218 125.55 142.571 126.068C142.953 126.629 143.202 127.264 143.303 127.923C143.396 128.582 143.341 129.269 143.139 129.929C142.952 130.539 142.894 131.197 142.993 131.866C143.341 134.238 145.554 135.981 147.878 135.437Z" fill="#FCA11D" fill-opacity="0.59"/>
<path d="M156.294 128.24C156.136 129.66 157.647 130.966 159.671 131.158C161.694 131.351 163.479 129.705 163.621 128.936C163.881 127.53 161.781 126.204 160.244 126.019C158.227 125.775 156.452 126.821 156.294 128.24Z" fill="#FCA11D" fill-opacity="0.59"/>
<path d="M151.775 133.431C151.301 134.499 152.143 135.904 153.656 136.569C155.168 137.234 156.916 136.571 157.253 135.839C157.742 134.778 156.393 133.068 155.372 132.702C153.816 132.143 152.249 132.363 151.775 133.431Z" fill="#FCA11D" fill-opacity="0.59"/>
<path d="M632.88 150.355C634.063 151.105 635.93 150.3 636.954 148.497C637.734 147.124 637.978 144.58 636.745 143.921C636.071 143.56 633.739 144.002 632.671 145.779C631.604 147.555 631.698 149.604 632.88 150.355Z" fill="#FCA11D" fill-opacity="0.59"/>
<path d="M628.906 148.34C629.238 147.277 628.737 145.111 627.63 144.854C626.868 144.676 625.31 145.696 624.912 147.348C624.514 148.999 625.085 150.56 626.188 150.834C627.291 151.109 628.4 149.961 628.906 148.34Z" fill="#FCA11D" fill-opacity="0.59"/>
<path d="M633.207 164.74C634.521 163.302 634.211 162.137 633.989 161C633.781 159.937 633.963 158.838 634.472 157.882C635.375 156.19 635.089 154.166 633.855 152.806C632.621 151.445 630.684 151.02 628.991 151.842C628.036 152.306 626.962 152.422 625.949 152.139C624.864 151.837 623.759 151.443 622.286 152.704C620.469 154.262 620.464 157.156 622.066 158.921C622.517 159.418 623.054 159.781 623.633 160.009C624.259 160.256 624.817 160.639 625.264 161.127C625.706 161.619 626.041 162.219 626.238 162.88C626.421 163.491 626.737 164.07 627.188 164.567C628.789 166.331 631.585 166.513 633.207 164.74Z" fill="#FCA11D" fill-opacity="0.59"/>
<path d="M636.19 153.991C636.844 155.255 638.817 155.476 640.599 154.482C642.379 153.489 642.947 151.11 642.639 150.393C642.076 149.081 639.604 149.18 638.23 149.902C636.426 150.849 635.536 152.726 636.19 153.991Z" fill="#FCA11D" fill-opacity="0.59"/>
<path d="M635.321 160.861C635.519 162.015 636.993 162.698 638.613 162.387C640.232 162.075 641.312 160.531 641.186 159.734C641.004 158.577 638.941 157.93 637.894 158.208C636.298 158.633 635.122 159.707 635.321 160.861Z" fill="#FCA11D" fill-opacity="0.59"/>
<path d="M700.855 149.838C702.037 150.589 703.904 149.784 704.929 147.981C705.709 146.607 705.953 144.064 704.719 143.404C704.045 143.044 701.713 143.485 700.646 145.262C699.579 147.039 699.672 149.087 700.855 149.838Z" fill="#FCA11D" fill-opacity="0.59"/>
<path d="M696.879 147.824C697.211 146.761 696.71 144.595 695.603 144.337C694.84 144.16 693.283 145.179 692.885 146.831C692.487 148.483 693.058 150.044 694.16 150.318C695.263 150.592 696.372 149.444 696.879 147.824Z" fill="#FCA11D" fill-opacity="0.59"/>
<path d="M701.179 164.223C702.493 162.786 702.183 161.621 701.961 160.484C701.754 159.42 701.935 158.321 702.445 157.366C703.348 155.674 703.062 153.649 701.827 152.289C700.593 150.929 698.656 150.503 696.964 151.325C696.008 151.789 694.935 151.905 693.921 151.622C692.837 151.321 691.732 150.926 690.259 152.188C688.441 153.745 688.437 156.64 690.038 158.404C690.489 158.901 691.027 159.264 691.606 159.492C692.232 159.739 692.789 160.122 693.237 160.61C693.679 161.103 694.013 161.702 694.211 162.364C694.394 162.975 694.71 163.553 695.161 164.05C696.762 165.814 699.558 165.997 701.179 164.223Z" fill="#FCA11D" fill-opacity="0.59"/>
<path d="M704.164 153.474C704.818 154.739 706.792 154.959 708.573 153.965C710.354 152.972 710.921 150.593 710.613 149.876C710.051 148.565 707.579 148.663 706.205 149.385C704.401 150.333 703.51 152.209 704.164 153.474Z" fill="#FCA11D" fill-opacity="0.59"/>
<path d="M703.296 160.344C703.494 161.498 704.968 162.181 706.587 161.87C708.207 161.559 709.286 160.015 709.161 159.217C708.978 158.06 706.916 157.413 705.869 157.692C704.272 158.116 703.097 159.191 703.296 160.344Z" fill="#FCA11D" fill-opacity="0.59"/>
<path d="M698.251 84.474C699.434 85.2245 701.301 84.4194 702.325 82.6163C703.105 81.2429 703.349 78.6993 702.116 78.0399C701.442 77.6795 699.11 78.121 698.042 79.8978C696.975 81.6744 697.069 83.7231 698.251 84.474Z" fill="#FCA11D" fill-opacity="0.59"/>
<path d="M694.275 82.4625C694.607 81.3992 694.106 79.2335 692.999 78.9759C692.237 78.7982 690.68 79.8181 690.281 81.4698C689.883 83.1213 690.454 84.6822 691.557 84.9564C692.66 85.2306 693.769 84.0832 694.275 82.4625Z" fill="#FCA11D" fill-opacity="0.59"/>
<path d="M698.576 98.8626C699.89 97.4254 699.58 96.2605 699.358 95.1234C699.151 94.0599 699.332 92.9606 699.842 92.0052C700.744 90.3134 700.458 88.2889 699.224 86.9287C697.99 85.5685 696.053 85.1429 694.36 85.9647C693.405 86.4287 692.331 86.5448 691.318 86.2621C690.233 85.9602 689.128 85.5657 687.655 86.8275C685.838 88.3851 685.834 91.2795 687.435 93.0441C687.886 93.5411 688.424 93.9041 689.002 94.1319C689.628 94.3788 690.186 94.7619 690.633 95.2496C691.075 95.7425 691.41 96.3417 691.608 97.0035C691.79 97.6145 692.106 98.1926 692.557 98.6896C694.158 100.454 696.954 100.636 698.576 98.8626Z" fill="#FCA11D" fill-opacity="0.59"/>
<path d="M701.561 88.1138C702.215 89.3784 704.189 89.5985 705.97 88.6048C707.751 87.6115 708.318 85.233 708.01 84.5158C707.447 83.2044 704.975 83.3029 703.601 84.0248C701.797 84.9725 700.907 86.8487 701.561 88.1138Z" fill="#FCA11D" fill-opacity="0.59"/>
<path d="M700.692 94.9841C700.891 96.1378 702.364 96.821 703.984 96.5099C705.604 96.1984 706.683 94.6542 706.557 93.8569C706.375 92.7001 704.313 92.0531 703.265 92.3315C701.669 92.7556 700.494 93.8303 700.692 94.9841Z" fill="#FCA11D" fill-opacity="0.59"/>
<path d="M759.522 99.5338C760.137 100.805 762.141 101.12 763.949 100.136C765.326 99.3874 766.855 97.3571 766.15 96.1367C765.765 95.4696 763.554 94.5963 761.724 95.5343C759.894 96.4723 758.908 98.2629 759.522 99.5338Z" fill="#FCA11D" fill-opacity="0.59"/>
<path d="M757.191 95.694C758.026 94.9684 758.726 92.8603 757.919 92.049C757.364 91.4898 755.511 91.5226 754.314 92.7125C753.117 93.9023 752.791 95.5342 753.585 96.3575C754.38 97.1808 755.918 96.7997 757.191 95.694Z" fill="#FCA11D" fill-opacity="0.59"/>
<path d="M752.32 111.931C754.183 111.414 754.525 110.258 754.928 109.173C755.305 108.159 756.03 107.322 756.96 106.783C758.606 105.829 759.415 103.956 759.074 102.14C758.733 100.324 757.308 98.9251 755.443 98.7173C754.39 98.5998 753.418 98.1239 752.704 97.341C751.94 96.5041 751.206 95.5772 749.299 95.8608C746.945 96.2109 745.437 98.6676 745.88 101.024C746.005 101.688 746.273 102.284 746.646 102.787C747.049 103.332 747.324 103.956 747.45 104.61C747.57 105.265 747.543 105.953 747.366 106.621C747.204 107.238 747.172 107.899 747.297 108.562C747.74 110.918 750.02 112.57 752.32 111.931Z" fill="#FCA11D" fill-opacity="0.59"/>
<path d="M760.443 104.395C760.341 105.82 761.903 107.064 763.933 107.173C765.962 107.282 767.681 105.565 767.792 104.791C767.996 103.376 765.844 102.136 764.302 102.014C762.277 101.853 760.545 102.971 760.443 104.395Z" fill="#FCA11D" fill-opacity="0.59"/>
<path d="M756.133 109.767C755.702 110.853 756.599 112.223 758.137 112.826C759.674 113.428 761.394 112.694 761.702 111.949C762.148 110.869 760.733 109.215 759.698 108.891C758.121 108.397 756.564 108.681 756.133 109.767Z" fill="#FCA11D" fill-opacity="0.59"/>
<path d="M782.294 44.0768C782.908 45.3475 784.913 45.6629 786.72 44.6794C788.097 43.9304 789.627 41.9001 788.922 40.6797C788.536 40.0126 786.326 39.1392 784.495 40.0773C782.665 41.0153 781.68 42.8059 782.294 44.0768Z" fill="#FCA11D" fill-opacity="0.59"/>
<path d="M779.964 40.2359C780.799 39.5104 781.499 37.4023 780.693 36.591C780.137 36.0318 778.284 36.0646 777.087 37.2545C775.891 38.4443 775.564 40.0762 776.359 40.8995C777.153 41.7228 778.692 41.3417 779.964 40.2359Z" fill="#FCA11D" fill-opacity="0.59"/>
<path d="M775.091 56.4713C776.955 55.9537 777.297 54.7981 777.699 53.7134C778.076 52.6988 778.801 51.8619 779.731 51.3232C781.378 50.3693 782.187 48.4961 781.845 46.6799C781.504 44.8636 780.08 43.4651 778.215 43.2574C777.162 43.1399 776.19 42.6639 775.475 41.881C774.711 41.0442 773.977 40.1173 772.07 40.4008C769.716 40.7509 768.208 43.2076 768.651 45.5638C768.776 46.2276 769.044 46.8238 769.417 47.3271C769.821 47.8721 770.095 48.4959 770.222 49.1498C770.341 49.8054 770.314 50.4933 770.138 51.1614C769.976 51.7784 769.944 52.4386 770.068 53.1024C770.511 55.4583 772.792 57.1101 775.091 56.4713Z" fill="#FCA11D" fill-opacity="0.59"/>
<path d="M783.216 48.9394C783.115 50.364 784.677 51.6076 786.707 51.7168C788.736 51.8264 790.454 50.1093 790.565 49.3353C790.769 47.92 788.618 46.6802 787.075 46.5579C785.05 46.3973 783.318 47.5145 783.216 48.9394Z" fill="#FCA11D" fill-opacity="0.59"/>
<path d="M778.905 54.31C778.474 55.3964 779.37 56.7657 780.908 57.3685C782.446 57.971 784.165 57.2369 784.473 56.4923C784.92 55.4119 783.504 53.7582 782.47 53.4342C780.893 52.9398 779.336 53.2235 778.905 54.31Z" fill="#FCA11D" fill-opacity="0.59"/>
<path d="M829.786 83.692C830.401 84.9627 832.405 85.2781 834.213 84.2947C835.589 83.5456 837.119 81.5153 836.414 80.2949C836.028 79.6278 833.818 78.7545 831.988 79.6926C830.157 80.6305 829.172 82.4211 829.786 83.692Z" fill="#FCA11D" fill-opacity="0.59"/>
<path d="M827.456 79.8473C828.291 79.1217 828.991 77.0136 828.185 76.2023C827.63 75.6431 825.777 75.6759 824.58 76.8659C823.383 78.0557 823.057 79.6875 823.851 80.5108C824.645 81.3342 826.184 80.953 827.456 79.8473Z" fill="#FCA11D" fill-opacity="0.59"/>
<path d="M822.584 96.0855C824.447 95.5679 824.789 94.4124 825.192 93.3276C825.568 92.313 826.294 91.4762 827.224 90.9375C828.87 89.9836 829.679 88.1104 829.338 86.2941C828.996 84.4779 827.572 83.0794 825.707 82.8716C824.654 82.7541 823.682 82.2782 822.968 81.4953C822.203 80.6584 821.469 79.7315 819.562 80.0151C817.208 80.3652 815.7 82.8219 816.143 85.1781C816.268 85.8418 816.536 86.4381 816.909 86.9414C817.313 87.4864 817.587 88.1102 817.714 88.7641C817.834 89.4196 817.806 90.1076 817.63 90.7757C817.468 91.3926 817.436 92.0529 817.561 92.7166C818.003 95.0725 820.284 96.7243 822.584 96.0855Z" fill="#FCA11D" fill-opacity="0.59"/>
<path d="M830.708 88.5497C830.607 89.9743 832.169 91.2179 834.199 91.3272C836.228 91.4368 837.946 89.7197 838.058 88.9456C838.261 87.5303 836.11 86.2905 834.567 86.1683C832.542 86.0076 830.81 87.1249 830.708 88.5497Z" fill="#FCA11D" fill-opacity="0.59"/>
<path d="M826.397 93.9223C825.966 95.0087 826.863 96.378 828.4 96.9808C829.938 97.5833 831.658 96.8492 831.965 96.1046C832.412 95.0242 830.996 93.3705 829.962 93.0465C828.385 92.5521 826.828 92.8358 826.397 93.9223Z" fill="#FCA11D" fill-opacity="0.59"/>
<path d="M873.378 25.5836C873.992 26.8543 875.997 27.1697 877.804 26.1863C879.181 25.4372 880.711 23.4069 880.006 22.1865C879.62 21.5194 877.41 20.6461 875.579 21.5842C873.749 22.5221 872.764 24.3127 873.378 25.5836Z" fill="#FCA11D" fill-opacity="0.59"/>
<path d="M871.048 21.7457C871.883 21.0201 872.583 18.9121 871.777 18.1007C871.221 17.5416 869.368 17.5744 868.171 18.7643C866.975 19.9541 866.648 21.5859 867.443 22.4093C868.237 23.2326 869.776 22.8515 871.048 21.7457Z" fill="#FCA11D" fill-opacity="0.59"/>
<path d="M866.175 37.982C868.039 37.4644 868.381 36.3088 868.783 35.2241C869.16 34.2095 869.885 33.3726 870.815 32.834C872.462 31.88 873.271 30.0069 872.929 28.1906C872.588 26.3744 871.164 24.9758 869.299 24.7681C868.246 24.6506 867.274 24.1747 866.559 23.3918C865.795 22.5549 865.061 21.628 863.154 21.9115C860.8 22.2617 859.292 24.7184 859.735 27.0745C859.86 27.7383 860.128 28.3346 860.501 28.8379C860.905 29.3829 861.179 30.0067 861.306 30.6606C861.425 31.3161 861.398 32.004 861.222 32.6722C861.06 33.2891 861.028 33.9494 861.152 34.6131C861.595 36.969 863.876 38.6208 866.175 37.982Z" fill="#FCA11D" fill-opacity="0.59"/>
<path d="M874.3 30.4452C874.199 31.8698 875.761 33.1134 877.791 33.2227C879.82 33.3323 881.538 31.6152 881.649 30.8411C881.853 29.4259 879.702 28.186 878.159 28.0638C876.134 27.9031 874.402 29.0204 874.3 30.4452Z" fill="#FCA11D" fill-opacity="0.59"/>
<path d="M869.989 35.8207C869.558 36.9072 870.454 38.2764 871.992 38.8793C873.53 39.4817 875.249 38.7476 875.557 38.003C876.004 36.9227 874.588 35.2689 873.554 34.9449C871.977 34.4505 870.42 34.7343 869.989 35.8207Z" fill="#FCA11D" fill-opacity="0.59"/>
<path d="M923.474 60.5797C924.088 61.8504 926.092 62.1658 927.9 61.1824C929.277 60.4333 930.806 58.403 930.101 57.1826C929.716 56.5155 927.505 55.6422 925.675 56.5802C923.845 57.5182 922.859 59.3088 923.474 60.5797Z" fill="#FCA11D" fill-opacity="0.59"/>
<path d="M921.142 56.7379C921.977 56.0123 922.677 53.9042 921.871 53.0929C921.315 52.5338 919.462 52.5666 918.265 53.7565C917.068 54.9463 916.742 56.5781 917.536 57.4014C918.331 58.2248 919.869 57.8436 921.142 56.7379Z" fill="#FCA11D" fill-opacity="0.59"/>
<path d="M916.271 72.9762C918.134 72.4586 918.477 71.303 918.879 70.2183C919.256 69.2037 919.981 68.3668 920.911 67.8281C922.557 66.8742 923.367 65.001 923.025 63.1847C922.684 61.3685 921.259 59.97 919.395 59.7622C918.342 59.6448 917.369 59.1688 916.655 58.3859C915.891 57.549 915.157 56.6221 913.25 56.9057C910.896 57.2558 909.388 59.7125 909.831 62.0687C909.956 62.7324 910.224 63.3287 910.597 63.832C911.001 64.377 911.275 65.0008 911.402 65.6547C911.521 66.3102 911.494 66.9982 911.318 67.6663C911.155 68.2832 911.123 68.9435 911.248 69.6073C911.691 71.9631 913.971 73.6149 916.271 72.9762Z" fill="#FCA11D" fill-opacity="0.59"/>
<path d="M924.396 65.4413C924.294 66.8659 925.857 68.1095 927.886 68.2188C929.915 68.3284 931.634 66.6113 931.745 65.8372C931.949 64.422 929.797 63.1821 928.255 63.0599C926.23 62.8992 924.498 64.0165 924.396 65.4413Z" fill="#FCA11D" fill-opacity="0.59"/>
<path d="M920.084 70.8139C919.653 71.9003 920.55 73.2696 922.088 73.8724C923.626 74.4749 925.345 73.7408 925.653 72.9962C926.099 71.9158 924.684 70.2621 923.649 69.9381C922.073 69.4437 920.516 69.7274 920.084 70.8139Z" fill="#FCA11D" fill-opacity="0.59"/>
<path d="M959.257 22.2907C959.871 23.5614 961.876 23.8767 963.683 22.8933C965.06 22.1442 966.59 20.114 965.885 18.8935C965.499 18.2264 963.288 17.3531 961.458 18.2912C959.628 19.2291 958.643 21.0197 959.257 22.2907Z" fill="#FCA11D" fill-opacity="0.59"/>
<path d="M956.927 18.4508C957.762 17.7252 958.462 15.6171 957.656 14.8058C957.1 14.2467 955.247 14.2795 954.05 15.4694C952.854 16.6592 952.527 18.291 953.322 19.1143C954.116 19.9377 955.655 19.5565 956.927 18.4508Z" fill="#FCA11D" fill-opacity="0.59"/>
<path d="M952.054 34.6852C953.917 34.1676 954.26 33.012 954.662 31.9272C955.039 30.9127 955.764 30.0758 956.694 29.5371C958.341 28.5832 959.15 26.71 958.808 24.8937C958.467 23.0775 957.043 21.679 955.178 21.4712C954.125 21.3537 953.153 20.8778 952.438 20.0949C951.674 19.258 950.94 18.3311 949.033 18.6147C946.679 18.9648 945.171 21.4215 945.614 23.7777C945.739 24.4414 946.007 25.0377 946.38 25.541C946.784 26.086 947.058 26.7098 947.185 27.3637C947.304 28.0192 947.277 28.7072 947.101 29.3753C946.938 29.9922 946.906 30.6525 947.031 31.3162C947.474 33.6721 949.754 35.3239 952.054 34.6852Z" fill="#FCA11D" fill-opacity="0.59"/>
<path d="M960.177 27.1532C960.075 28.5778 961.638 29.8214 963.667 29.9307C965.697 30.0403 967.415 28.3232 967.526 27.5492C967.73 26.1339 965.579 24.894 964.036 24.7718C962.011 24.6111 960.279 25.7284 960.177 27.1532Z" fill="#FCA11D" fill-opacity="0.59"/>
<path d="M955.868 32.5248C955.436 33.6113 956.333 34.9805 957.871 35.5834C959.409 36.1858 961.128 35.4517 961.436 34.7071C961.883 33.6268 960.467 31.973 959.433 31.649C957.856 31.1546 956.299 31.4384 955.868 32.5248Z" fill="#FCA11D" fill-opacity="0.59"/>
<path d="M994.388 56.6217C995.002 57.8924 997.007 58.2078 998.814 57.2244C1000.19 56.4753 1001.72 54.445 1001.02 53.2246C1000.63 52.5575 998.419 51.6841 996.589 52.6222C994.759 53.5602 993.773 55.3508 994.388 56.6217Z" fill="#FCA11D" fill-opacity="0.59"/>
<path d="M992.056 52.7809C992.891 52.0553 993.591 49.9472 992.785 49.1359C992.229 48.5767 990.376 48.6095 989.179 49.7995C987.982 50.9893 987.656 52.6211 988.451 53.4444C989.245 54.2677 990.783 53.8866 992.056 52.7809Z" fill="#FCA11D" fill-opacity="0.59"/>
<path d="M987.185 69.0172C989.048 68.4996 989.391 67.344 989.793 66.2593C990.17 65.2447 990.895 64.4078 991.825 63.8691C993.471 62.9152 994.281 61.042 993.939 59.2258C993.598 57.4095 992.174 56.011 990.309 55.8033C989.256 55.6858 988.283 55.2098 987.569 54.4269C986.805 53.5901 986.071 52.6632 984.164 52.9467C981.81 53.2968 980.302 55.7535 980.745 58.1097C980.87 58.7735 981.138 59.3697 981.511 59.873C981.915 60.418 982.189 61.0418 982.316 61.6957C982.435 62.3512 982.408 63.0392 982.232 63.7073C982.069 64.3243 982.037 64.9845 982.162 65.6483C982.605 68.0042 984.885 69.656 987.185 69.0172Z" fill="#FCA11D" fill-opacity="0.59"/>
<path d="M995.31 61.4804C995.208 62.905 996.771 64.1486 998.8 64.2579C1000.83 64.3674 1002.55 62.6503 1002.66 61.8763C1002.86 60.461 1000.71 59.2212 999.169 59.0989C997.144 58.9383 995.412 60.0555 995.31 61.4804Z" fill="#FCA11D" fill-opacity="0.59"/>
<path d="M990.998 66.8569C990.567 67.9433 991.464 69.3126 993.002 69.9154C994.54 70.5178 996.259 69.7838 996.567 69.0392C997.013 67.9588 995.598 66.3051 994.563 65.981C992.987 65.4866 991.43 65.7704 990.998 66.8569Z" fill="#FCA11D" fill-opacity="0.59"/>
<path d="M1045.13 20.9665C1045.75 22.2371 1047.75 22.5525 1049.56 21.5691C1050.94 20.82 1052.47 18.7898 1051.76 17.5693C1051.38 16.9022 1049.17 16.0289 1047.34 16.967C1045.51 17.9049 1044.52 19.6955 1045.13 20.9665Z" fill="#FCA11D" fill-opacity="0.59"/>
<path d="M1042.8 17.1266C1043.64 16.401 1044.34 14.2929 1043.53 13.4816C1042.98 12.9224 1041.12 12.9552 1039.93 14.1452C1038.73 15.335 1038.4 16.9668 1039.2 17.7901C1039.99 18.6134 1041.53 18.2323 1042.8 17.1266Z" fill="#FCA11D" fill-opacity="0.59"/>
<path d="M1037.93 33.3609C1039.79 32.8433 1040.14 31.6877 1040.54 30.603C1040.92 29.5884 1041.64 28.7515 1042.57 28.2129C1044.22 27.2589 1045.03 25.3858 1044.69 23.5695C1044.34 21.7533 1042.92 20.3547 1041.05 20.147C1040 20.0295 1039.03 19.5536 1038.32 18.7707C1037.55 17.9338 1036.82 17.0069 1034.91 17.2904C1032.56 17.6406 1031.05 20.0973 1031.49 22.4534C1031.62 23.1172 1031.88 23.7135 1032.26 24.2168C1032.66 24.7618 1032.94 25.3856 1033.06 26.0395C1033.18 26.695 1033.15 27.3829 1032.98 28.0511C1032.82 28.668 1032.78 29.3283 1032.91 29.992C1033.35 32.3479 1035.63 33.9997 1037.93 33.3609Z" fill="#FCA11D" fill-opacity="0.59"/>
<path d="M1046.06 25.829C1045.95 27.2536 1047.52 28.4972 1049.55 28.6065C1051.58 28.716 1053.29 26.999 1053.41 26.2249C1053.61 24.8096 1051.46 23.5698 1049.92 23.4476C1047.89 23.2869 1046.16 24.4041 1046.06 25.829Z" fill="#FCA11D" fill-opacity="0.59"/>
<path d="M1041.74 31.2006C1041.31 32.287 1042.21 33.6563 1043.75 34.2591C1045.29 34.8616 1047.01 34.1275 1047.31 33.3829C1047.76 32.3026 1046.34 30.6488 1045.31 30.3248C1043.73 29.8304 1042.18 30.1142 1041.74 31.2006Z" fill="#FCA11D" fill-opacity="0.59"/>
<path d="M184.033 155.173C184.088 156.587 185.794 157.699 187.839 157.543C189.397 157.424 191.606 156.197 191.449 154.791C191.363 154.023 189.69 152.316 187.642 152.421C185.595 152.526 183.979 153.758 184.033 155.173Z" fill="#FCA11D" fill-opacity="0.59"/>
<path d="M183.435 150.705C184.488 150.385 185.97 148.745 185.556 147.672C185.272 146.932 183.565 146.201 181.995 146.796C180.426 147.392 179.476 148.75 179.874 149.829C180.271 150.909 181.83 151.193 183.435 150.705Z" fill="#FCA11D" fill-opacity="0.59"/>
<path d="M172.499 163.545C174.409 163.837 175.183 162.922 175.985 162.095C176.734 161.323 177.731 160.856 178.796 160.745C180.682 160.55 182.17 159.17 182.583 157.369C182.996 155.568 182.252 153.704 180.63 152.748C179.714 152.207 179.015 151.373 178.675 150.363C178.31 149.284 178.009 148.135 176.152 147.61C173.86 146.962 171.501 148.588 170.965 150.924C170.814 151.583 170.822 152.238 170.962 152.852C171.113 153.516 171.115 154.199 170.97 154.849C170.817 155.497 170.518 156.115 170.09 156.653C169.695 157.151 169.402 157.741 169.252 158.399C168.716 160.735 170.141 163.183 172.499 163.545Z" fill="#FCA11D" fill-opacity="0.59"/>
<path d="M182.935 159.997C182.274 161.257 183.206 163.037 185.018 163.971C186.829 164.905 189.085 164.042 189.496 163.38C190.248 162.17 188.776 160.152 187.414 159.406C185.627 158.426 183.597 158.736 182.935 159.997Z" fill="#FCA11D" fill-opacity="0.59"/>
<path d="M176.848 163.138C176.02 163.954 176.294 165.574 177.459 166.758C178.624 167.941 180.49 167.976 181.068 167.422C181.908 166.618 181.274 164.524 180.457 163.802C179.213 162.702 177.676 162.321 176.848 163.138Z" fill="#FCA11D" fill-opacity="0.59"/>
<path d="M219.383 133.097C219.437 134.512 221.144 135.624 223.189 135.468C224.747 135.349 226.956 134.122 226.798 132.716C226.712 131.948 225.04 130.241 222.992 130.346C220.944 130.451 219.328 131.683 219.383 133.097Z" fill="#FCA11D" fill-opacity="0.59"/>
<path d="M218.787 128.629C219.839 128.308 221.321 126.669 220.908 125.596C220.623 124.856 218.916 124.124 217.347 124.72C215.778 125.316 214.828 126.674 215.225 127.753C215.623 128.832 217.182 129.116 218.787 128.629Z" fill="#FCA11D" fill-opacity="0.59"/>
<path d="M207.851 141.472C209.761 141.765 210.535 140.849 211.336 140.023C212.085 139.25 213.083 138.783 214.148 138.673C216.034 138.478 217.521 137.098 217.934 135.297C218.347 133.496 217.603 131.632 215.981 130.675C215.066 130.135 214.367 129.3 214.026 128.291C213.662 127.211 213.361 126.062 211.504 125.538C209.212 124.89 206.852 126.516 206.317 128.852C206.166 129.51 206.173 130.166 206.313 130.779C206.465 131.444 206.467 132.127 206.321 132.777C206.169 133.425 205.869 134.043 205.442 134.581C205.047 135.078 204.754 135.669 204.603 136.327C204.067 138.663 205.493 141.111 207.851 141.472Z" fill="#FCA11D" fill-opacity="0.59"/>
<path d="M218.287 137.923C217.625 139.183 218.557 140.962 220.369 141.897C222.181 142.831 224.437 141.968 224.848 141.306C225.599 140.096 224.127 138.078 222.766 137.332C220.978 136.352 218.949 136.662 218.287 137.923Z" fill="#FCA11D" fill-opacity="0.59"/>
<path d="M212.2 141.063C211.372 141.879 211.645 143.5 212.811 144.683C213.976 145.866 215.841 145.902 216.42 145.348C217.259 144.544 216.625 142.45 215.809 141.728C214.565 140.628 213.028 140.247 212.2 141.063Z" fill="#FCA11D" fill-opacity="0.59"/>
<path d="M240.203 174.033C240.258 175.447 241.964 176.56 244.009 176.404C245.567 176.285 247.776 175.057 247.619 173.652C247.532 172.883 245.86 171.176 243.812 171.281C241.765 171.386 240.149 172.618 240.203 174.033Z" fill="#FCA11D" fill-opacity="0.59"/>
<path d="M239.605 169.561C240.658 169.241 242.14 167.602 241.726 166.528C241.442 165.789 239.734 165.057 238.165 165.653C236.596 166.249 235.646 167.606 236.044 168.686C236.441 169.765 238 170.049 239.605 169.561Z" fill="#FCA11D" fill-opacity="0.59"/>
<path d="M228.669 182.405C230.579 182.698 231.353 181.782 232.154 180.956C232.904 180.183 233.901 179.716 234.966 179.606C236.852 179.411 238.34 178.031 238.753 176.23C239.166 174.429 238.422 172.565 236.8 171.608C235.884 171.068 235.185 170.233 234.845 169.223C234.48 168.144 234.179 166.995 232.322 166.47C230.03 165.822 227.671 167.449 227.135 169.785C226.984 170.443 226.992 171.098 227.132 171.712C227.283 172.376 227.285 173.059 227.14 173.709C226.987 174.358 226.688 174.975 226.26 175.514C225.865 176.011 225.572 176.602 225.422 177.26C224.886 179.596 226.311 182.043 228.669 182.405Z" fill="#FCA11D" fill-opacity="0.59"/>
<path d="M239.105 178.855C238.444 180.116 239.375 181.895 241.188 182.829C242.999 183.764 245.255 182.9 245.666 182.239C246.417 181.028 244.945 179.01 243.584 178.264C241.797 177.285 239.767 177.594 239.105 178.855Z" fill="#FCA11D" fill-opacity="0.59"/>
<path d="M233.02 181.996C232.192 182.812 232.466 184.433 233.631 185.616C234.796 186.799 236.662 186.835 237.24 186.28C238.08 185.476 237.446 183.382 236.629 182.661C235.385 181.561 233.848 181.18 233.02 181.996Z" fill="#FCA11D" fill-opacity="0.59"/>
<path d="M285.096 156.205C285.15 157.619 286.857 158.732 288.902 158.576C290.46 158.457 292.668 157.229 292.511 155.824C292.425 155.055 290.753 153.348 288.705 153.453C286.657 153.558 285.041 154.79 285.096 156.205Z" fill="#FCA11D" fill-opacity="0.59"/>
<path d="M284.498 151.737C285.55 151.417 287.032 149.777 286.619 148.704C286.334 147.965 284.627 147.233 283.058 147.829C281.488 148.424 280.539 149.782 280.936 150.861C281.334 151.941 282.893 152.225 284.498 151.737Z" fill="#FCA11D" fill-opacity="0.59"/>
<path d="M273.561 164.577C275.472 164.87 276.246 163.954 277.047 163.128C277.796 162.355 278.794 161.888 279.859 161.778C281.745 161.582 283.232 160.202 283.645 158.402C284.058 156.601 283.314 154.737 281.692 153.78C280.776 153.24 280.078 152.405 279.737 151.395C279.373 150.316 279.072 149.167 277.215 148.642C274.923 147.994 272.563 149.62 272.028 151.957C271.877 152.615 271.884 153.27 272.024 153.884C272.176 154.548 272.178 155.231 272.032 155.881C271.88 156.53 271.58 157.147 271.152 157.686C270.758 158.183 270.465 158.773 270.314 159.432C269.778 161.768 271.204 164.215 273.561 164.577Z" fill="#FCA11D" fill-opacity="0.59"/>
<path d="M283.998 161.028C283.336 162.289 284.268 164.068 286.08 165.002C287.892 165.937 290.148 165.073 290.559 164.411C291.31 163.201 289.838 161.183 288.477 160.437C286.689 159.458 284.66 159.767 283.998 161.028Z" fill="#FCA11D" fill-opacity="0.59"/>
<path d="M277.911 164.169C277.083 164.985 277.356 166.605 278.522 167.789C279.687 168.972 281.552 169.008 282.131 168.453C282.97 167.649 282.336 165.555 281.52 164.834C280.276 163.733 278.739 163.353 277.911 164.169Z" fill="#FCA11D" fill-opacity="0.59"/>
<path d="M285.746 199.786C285.8 201.2 287.507 202.313 289.552 202.157C291.11 202.038 293.319 200.81 293.162 199.405C293.075 198.636 291.403 196.929 289.355 197.034C287.308 197.139 285.692 198.371 285.746 199.786Z" fill="#FCA11D" fill-opacity="0.59"/>
<path d="M285.148 195.315C286.201 194.995 287.683 193.356 287.269 192.282C286.985 191.543 285.277 190.811 283.708 191.407C282.139 192.002 281.189 193.36 281.587 194.44C281.984 195.519 283.543 195.803 285.148 195.315Z" fill="#FCA11D" fill-opacity="0.59"/>
<path d="M274.212 208.157C276.122 208.45 276.896 207.534 277.697 206.708C278.447 205.935 279.444 205.468 280.509 205.358C282.395 205.162 283.883 203.783 284.296 201.982C284.709 200.181 283.965 198.317 282.343 197.36C281.427 196.82 280.728 195.985 280.387 194.975C280.023 193.896 279.722 192.747 277.865 192.222C275.573 191.574 273.214 193.201 272.678 195.537C272.527 196.195 272.535 196.85 272.675 197.464C272.826 198.128 272.828 198.811 272.683 199.461C272.53 200.11 272.231 200.727 271.803 201.266C271.408 201.763 271.115 202.354 270.965 203.012C270.429 205.348 271.854 207.795 274.212 208.157Z" fill="#FCA11D" fill-opacity="0.59"/>
<path d="M284.646 204.609C283.985 205.87 284.916 207.649 286.729 208.583C288.54 209.518 290.796 208.654 291.207 207.992C291.959 206.782 290.486 204.764 289.125 204.018C287.338 203.039 285.308 203.348 284.646 204.609Z" fill="#FCA11D" fill-opacity="0.59"/>
<path d="M278.561 207.746C277.733 208.562 278.007 210.183 279.172 211.366C280.337 212.549 282.203 212.585 282.781 212.03C283.621 211.226 282.987 209.132 282.17 208.411C280.926 207.311 279.389 206.93 278.561 207.746Z" fill="#FCA11D" fill-opacity="0.59"/>
<path d="M538.042 230.95C538.869 232.09 540.897 232.038 542.503 230.744C543.727 229.759 544.876 227.485 543.969 226.411C543.473 225.824 541.144 225.364 539.508 226.617C537.871 227.87 537.215 229.81 538.042 230.95Z" fill="#FCA11D" fill-opacity="0.59"/>
<path d="M535.077 227.592C535.771 226.728 536.091 224.527 535.155 223.874C534.511 223.424 532.693 223.79 531.723 225.177C530.754 226.564 530.719 228.229 531.645 228.896C532.571 229.563 534.018 228.91 535.077 227.592Z" fill="#FCA11D" fill-opacity="0.59"/>
<path d="M533.125 244.45C534.868 243.605 535.002 242.406 535.208 241.266C535.401 240.199 535.968 239.245 536.789 238.547C538.242 237.311 538.71 235.322 538.056 233.596C537.402 231.87 535.755 230.751 533.883 230.883C532.827 230.958 531.786 230.665 530.946 230.023C530.048 229.337 529.163 228.558 527.336 229.181C525.081 229.95 524.027 232.64 524.876 234.879C525.115 235.509 525.484 236.048 525.939 236.476C526.432 236.939 526.811 237.503 527.05 238.124C527.283 238.748 527.376 239.429 527.32 240.119C527.268 240.755 527.352 241.411 527.592 242.041C528.44 244.28 530.974 245.494 533.125 244.45Z" fill="#FCA11D" fill-opacity="0.59"/>
<path d="M539.801 235.567C539.951 236.987 541.706 237.929 543.723 237.67C545.739 237.412 547.129 235.412 547.103 234.631C547.055 233.201 544.721 232.369 543.182 232.527C541.16 232.735 539.652 234.146 539.801 235.567Z" fill="#FCA11D" fill-opacity="0.59"/>
<path d="M536.499 241.634C536.265 242.781 537.387 243.967 539.006 244.282C540.625 244.598 542.189 243.565 542.361 242.777C542.611 241.633 540.928 240.261 539.854 240.129C538.215 239.927 536.733 240.487 536.499 241.634Z" fill="#FCA11D" fill-opacity="0.59"/>
<path d="M588.786 188.697C589.614 189.837 591.641 189.785 593.248 188.491C594.471 187.506 595.621 185.232 594.713 184.158C594.217 183.571 591.888 183.111 590.252 184.364C588.615 185.617 587.959 187.557 588.786 188.697Z" fill="#FCA11D" fill-opacity="0.59"/>
<path d="M585.821 185.339C586.515 184.475 586.835 182.274 585.899 181.621C585.255 181.171 583.437 181.538 582.467 182.925C581.498 184.311 581.463 185.976 582.389 186.643C583.315 187.31 584.762 186.657 585.821 185.339Z" fill="#FCA11D" fill-opacity="0.59"/>
<path d="M583.869 202.197C585.612 201.352 585.746 200.153 585.952 199.013C586.145 197.946 586.712 196.992 587.533 196.294C588.986 195.058 589.454 193.069 588.8 191.343C588.146 189.617 586.499 188.498 584.628 188.63C583.571 188.705 582.531 188.412 581.69 187.77C580.792 187.085 579.907 186.305 578.08 186.928C575.825 187.697 574.772 190.387 575.62 192.626C575.859 193.256 576.228 193.795 576.683 194.223C577.176 194.686 577.555 195.25 577.794 195.871C578.027 196.495 578.12 197.177 578.064 197.866C578.012 198.502 578.097 199.158 578.336 199.788C579.184 202.027 581.718 203.241 583.869 202.197Z" fill="#FCA11D" fill-opacity="0.59"/>
<path d="M590.545 193.316C590.695 194.736 592.45 195.678 594.467 195.42C596.483 195.161 597.873 193.161 597.847 192.38C597.799 190.95 595.465 190.118 593.926 190.276C591.905 190.484 590.396 191.896 590.545 193.316Z" fill="#FCA11D" fill-opacity="0.59"/>
<path d="M587.245 199.381C587.011 200.528 588.134 201.714 589.752 202.03C591.371 202.345 592.935 201.312 593.107 200.524C593.357 199.38 591.674 198.008 590.6 197.876C588.961 197.674 587.479 198.234 587.245 199.381Z" fill="#FCA11D" fill-opacity="0.59"/>
<path d="M583.583 230.29C584.41 231.429 586.438 231.378 588.044 230.084C589.268 229.099 590.417 226.825 589.51 225.751C589.014 225.164 586.685 224.704 585.049 225.957C583.412 227.21 582.756 229.15 583.583 230.29Z" fill="#FCA11D" fill-opacity="0.59"/>
<path d="M580.616 226.932C581.31 226.067 581.63 223.867 580.694 223.214C580.05 222.764 578.232 223.13 577.262 224.517C576.293 225.904 576.258 227.569 577.184 228.236C578.11 228.903 579.557 228.25 580.616 226.932Z" fill="#FCA11D" fill-opacity="0.59"/>
<path d="M578.666 243.787C580.409 242.942 580.543 241.743 580.749 240.603C580.942 239.536 581.509 238.582 582.33 237.884C583.783 236.648 584.251 234.659 583.597 232.933C582.943 231.207 581.296 230.088 579.424 230.22C578.368 230.295 577.327 230.002 576.487 229.36C575.589 228.674 574.704 227.895 572.877 228.518C570.622 229.287 569.568 231.977 570.417 234.215C570.656 234.846 571.025 235.385 571.48 235.812C571.973 236.276 572.352 236.84 572.591 237.461C572.824 238.084 572.917 238.766 572.861 239.456C572.809 240.092 572.893 240.748 573.133 241.378C573.981 243.617 576.515 244.831 578.666 243.787Z" fill="#FCA11D" fill-opacity="0.59"/>
<path d="M585.342 234.906C585.492 236.326 587.247 237.268 589.264 237.009C591.28 236.751 592.67 234.751 592.644 233.969C592.596 232.54 590.262 231.708 588.723 231.866C586.701 232.073 585.193 233.485 585.342 234.906Z" fill="#FCA11D" fill-opacity="0.59"/>
<path d="M582.04 240.974C581.806 242.121 582.928 243.307 584.547 243.622C586.166 243.938 587.73 242.905 587.902 242.117C588.152 240.973 586.469 239.601 585.395 239.469C583.756 239.267 582.274 239.827 582.04 240.974Z" fill="#FCA11D" fill-opacity="0.59"/>
<path d="M649.296 198.599C650.123 199.738 652.151 199.687 653.757 198.393C654.981 197.407 656.13 195.133 655.223 194.06C654.727 193.473 652.398 193.012 650.761 194.266C649.125 195.519 648.469 197.459 649.296 198.599Z" fill="#FCA11D" fill-opacity="0.59"/>
<path d="M646.329 195.241C647.023 194.376 647.343 192.175 646.407 191.522C645.762 191.072 643.945 191.439 642.975 192.826C642.006 194.213 641.971 195.877 642.897 196.544C643.823 197.211 645.27 196.558 646.329 195.241Z" fill="#FCA11D" fill-opacity="0.59"/>
<path d="M644.379 212.096C646.122 211.25 646.256 210.051 646.462 208.911C646.655 207.845 647.222 206.89 648.043 206.192C649.496 204.957 649.964 202.967 649.31 201.242C648.655 199.516 647.009 198.397 645.137 198.529C644.08 198.603 643.04 198.31 642.2 197.669C641.302 196.983 640.417 196.203 638.59 196.826C636.335 197.596 635.281 200.285 636.13 202.524C636.369 203.155 636.738 203.693 637.193 204.121C637.686 204.585 638.065 205.149 638.304 205.77C638.537 206.393 638.63 207.075 638.574 207.764C638.522 208.401 638.606 209.056 638.846 209.687C639.694 211.925 642.228 213.139 644.379 212.096Z" fill="#FCA11D" fill-opacity="0.59"/>
<path d="M651.055 203.219C651.205 204.64 652.96 205.582 654.977 205.323C656.993 205.064 658.383 203.065 658.357 202.283C658.309 200.853 655.975 200.022 654.435 200.18C652.414 200.387 650.906 201.799 651.055 203.219Z" fill="#FCA11D" fill-opacity="0.59"/>
<path d="M647.753 209.283C647.519 210.43 648.641 211.615 650.26 211.931C651.879 212.246 653.443 211.214 653.615 210.425C653.865 209.282 652.182 207.91 651.107 207.777C649.469 207.575 647.987 208.136 647.753 209.283Z" fill="#FCA11D" fill-opacity="0.59"/>
<path d="M495.106 223.026C495.934 224.166 497.961 224.115 499.568 222.821C500.791 221.835 501.941 219.561 501.033 218.487C500.537 217.9 498.209 217.44 496.572 218.693C494.935 219.947 494.279 221.886 495.106 223.026Z" fill="#FCA11D" fill-opacity="0.59"/>
<path d="M492.137 219.666C492.832 218.801 493.151 216.6 492.216 215.947C491.571 215.497 489.753 215.864 488.784 217.251C487.815 218.637 487.779 220.302 488.705 220.969C489.631 221.636 491.079 220.983 492.137 219.666Z" fill="#FCA11D" fill-opacity="0.59"/>
<path d="M490.189 236.523C491.932 235.678 492.066 234.479 492.273 233.339C492.466 232.272 493.033 231.318 493.853 230.62C495.306 229.384 495.774 227.395 495.12 225.669C494.466 223.944 492.819 222.824 490.948 222.956C489.891 223.031 488.851 222.738 488.011 222.096C487.112 221.411 486.228 220.631 484.401 221.254C482.145 222.023 481.092 224.713 481.941 226.952C482.18 227.582 482.548 228.121 483.003 228.549C483.496 229.012 483.875 229.577 484.115 230.197C484.347 230.821 484.441 231.503 484.384 232.192C484.333 232.828 484.417 233.484 484.656 234.114C485.505 236.353 488.038 237.567 490.189 236.523Z" fill="#FCA11D" fill-opacity="0.59"/>
<path d="M496.862 227.642C497.011 229.062 498.767 230.004 500.783 229.746C502.799 229.487 504.189 227.488 504.163 226.706C504.116 225.276 501.781 224.444 500.242 224.602C498.221 224.81 496.713 226.222 496.862 227.642Z" fill="#FCA11D" fill-opacity="0.59"/>
<path d="M493.563 233.709C493.329 234.856 494.452 236.042 496.071 236.358C497.69 236.673 499.253 235.64 499.425 234.852C499.675 233.708 497.993 232.336 496.918 232.204C495.28 232.002 493.797 232.562 493.563 233.709Z" fill="#FCA11D" fill-opacity="0.59"/>
<path d="M44.7416 192.611C45.9242 193.361 47.7908 192.556 48.8152 190.753C49.5955 189.38 49.8394 186.836 48.6061 186.177C47.9319 185.816 45.5998 186.258 44.5326 188.035C43.4655 189.811 43.559 191.86 44.7416 192.611Z" fill="#FCA11D" fill-opacity="0.59"/>
<path d="M40.7633 190.593C41.0953 189.53 40.5943 187.364 39.4875 187.107C38.725 186.929 37.1679 187.949 36.7695 189.601C36.3713 191.252 36.9424 192.813 38.0452 193.087C39.1481 193.361 40.257 192.214 40.7633 190.593Z" fill="#FCA11D" fill-opacity="0.59"/>
<path d="M45.0661 206.995C46.38 205.558 46.07 204.393 45.8482 203.256C45.6408 202.193 45.8219 201.093 46.3318 200.138C47.2346 198.446 46.9483 196.422 45.7141 195.062C44.4799 193.701 42.543 193.276 40.8507 194.098C39.895 194.561 38.8217 194.678 37.8079 194.395C36.7237 194.093 35.6184 193.699 34.1456 194.96C32.3279 196.518 32.3238 199.412 33.9249 201.177C34.376 201.674 34.9138 202.037 35.4924 202.265C36.1186 202.512 36.6759 202.895 37.1235 203.382C37.5657 203.875 37.9001 204.474 38.0978 205.136C38.2806 205.747 38.5966 206.325 39.0477 206.822C40.6485 208.587 43.4445 208.769 45.0661 206.995Z" fill="#FCA11D" fill-opacity="0.59"/>
<path d="M48.0509 196.246C48.7051 197.51 50.6788 197.73 52.4599 196.737C54.2407 195.743 54.8078 193.365 54.5001 192.648C53.9375 191.336 51.4653 191.435 50.0913 192.157C48.2873 193.104 47.3968 194.981 48.0509 196.246Z" fill="#FCA11D" fill-opacity="0.59"/>
<path d="M47.1803 203.117C47.3789 204.271 48.8526 204.954 50.4722 204.643C52.0918 204.331 53.171 202.787 53.0454 201.99C52.8631 200.833 50.8008 200.186 49.7536 200.464C48.1571 200.888 46.9818 201.963 47.1803 203.117Z" fill="#FCA11D" fill-opacity="0.59"/>
<path d="M112.714 192.092C113.897 192.843 115.763 192.038 116.788 190.234C117.568 188.861 117.812 186.317 116.579 185.658C115.905 185.298 113.572 185.739 112.505 187.516C111.438 189.293 111.532 191.341 112.714 192.092Z" fill="#FCA11D" fill-opacity="0.59"/>
<path d="M108.738 190.077C109.07 189.013 108.569 186.848 107.462 186.59C106.7 186.412 105.142 187.432 104.744 189.084C104.346 190.736 104.917 192.296 106.02 192.571C107.123 192.845 108.232 191.697 108.738 190.077Z" fill="#FCA11D" fill-opacity="0.59"/>
<path d="M113.039 206.481C114.353 205.044 114.043 203.879 113.821 202.742C113.613 201.678 113.795 200.579 114.305 199.623C115.207 197.932 114.921 195.907 113.687 194.547C112.453 193.187 110.516 192.761 108.823 193.583C107.868 194.047 106.794 194.163 105.781 193.88C104.696 193.578 103.591 193.184 102.118 194.446C100.301 196.003 100.296 198.898 101.898 200.662C102.349 201.159 102.887 201.522 103.465 201.75C104.091 201.997 104.649 202.38 105.096 202.868C105.538 203.361 105.873 203.96 106.07 204.622C106.253 205.233 106.569 205.811 107.02 206.308C108.621 208.072 111.417 208.255 113.039 206.481Z" fill="#FCA11D" fill-opacity="0.59"/>
<path d="M116.024 195.728C116.678 196.993 118.651 197.213 120.433 196.219C122.213 195.226 122.78 192.847 122.473 192.13C121.91 190.819 119.438 190.917 118.064 191.639C116.26 192.587 115.37 194.463 116.024 195.728Z" fill="#FCA11D" fill-opacity="0.59"/>
<path d="M115.155 202.602C115.353 203.756 116.827 204.439 118.447 204.128C120.066 203.817 121.146 202.272 121.02 201.475C120.838 200.318 118.775 199.671 117.728 199.95C116.132 200.374 114.956 201.448 115.155 202.602Z" fill="#FCA11D" fill-opacity="0.59"/>
<path d="M455.419 58.6298C456.246 59.7693 458.274 59.718 459.88 58.4241C461.104 57.4386 462.253 55.1647 461.346 54.0909C460.85 53.504 458.521 53.0434 456.884 54.2968C455.248 55.5501 454.592 57.4899 455.419 58.6298Z" fill="#FCA11D" fill-opacity="0.59"/>
<path d="M452.454 55.271C453.148 54.4063 453.468 52.2055 452.532 51.5526C451.887 51.1026 450.07 51.4692 449.1 52.8562C448.131 54.2429 448.096 55.9077 449.022 56.5745C449.948 57.2414 451.395 56.5887 452.454 55.271Z" fill="#FCA11D" fill-opacity="0.59"/>
<path d="M450.504 72.126C452.247 71.2804 452.381 70.0815 452.587 68.9414C452.78 67.875 453.347 66.9206 454.168 66.2227C455.621 64.9869 456.089 62.9976 455.435 61.2719C454.78 59.5461 453.134 58.4269 451.262 58.559C450.205 58.6334 449.165 58.3404 448.325 57.6989C447.427 57.0132 446.542 56.2335 444.715 56.8567C442.46 57.626 441.406 60.3156 442.255 62.5543C442.494 63.185 442.863 63.7234 443.318 64.1513C443.811 64.6148 444.19 65.1792 444.429 65.7998C444.662 66.4233 444.755 67.1052 444.699 67.7945C444.647 68.4309 444.731 69.0864 444.971 69.717C445.819 71.9555 448.353 73.1695 450.504 72.126Z" fill="#FCA11D" fill-opacity="0.59"/>
<path d="M457.178 63.2448C457.328 64.665 459.083 65.6069 461.1 65.3482C463.116 65.0899 464.506 63.0901 464.48 62.3083C464.432 60.8788 462.098 60.047 460.558 60.205C458.537 60.4123 457.029 61.8242 457.178 63.2448Z" fill="#FCA11D" fill-opacity="0.59"/>
<path d="M453.878 69.31C453.644 70.4569 454.766 71.6425 456.385 71.9583C458.004 72.2736 459.568 71.241 459.74 70.4527C459.99 69.309 458.307 67.9371 457.232 67.8048C455.594 67.6028 454.112 68.163 453.878 69.31Z" fill="#FCA11D" fill-opacity="0.59"/>
<path d="M0.651359 230.947C1.47874 232.087 3.50636 232.035 5.11282 230.741C6.33641 229.756 7.48582 227.482 6.57829 226.408C6.08204 225.821 3.75359 225.361 2.11689 226.614C0.480291 227.867 -0.175805 229.807 0.651359 230.947Z" fill="#FCA11D" fill-opacity="0.59"/>
<path d="M-4.26586 244.448C-2.52296 243.603 -2.38861 242.404 -2.18246 241.264C-1.98957 240.197 -1.42246 239.243 -0.601781 238.545C0.851251 237.309 1.31927 235.32 0.665073 233.594C0.010881 231.868 -1.63571 230.749 -3.50726 230.881C-4.56412 230.956 -5.6042 230.663 -6.44431 230.021C-7.34293 229.336 -8.22753 228.556 -10.0546 229.179C-12.3096 229.948 -13.3632 232.638 -12.5145 234.877C-12.2753 235.507 -11.9069 236.046 -11.4516 236.474C-10.9589 236.937 -10.5797 237.501 -10.3404 238.122C-10.108 238.746 -10.0145 239.428 -10.0707 240.117C-10.1223 240.753 -10.0382 241.409 -9.79897 242.039C-8.95057 244.278 -6.41703 245.492 -4.26586 244.448Z" fill="#FCA11D" fill-opacity="0.59"/>
<path d="M2.40872 235.567C2.55825 236.987 4.31358 237.929 6.3301 237.67C8.34615 237.412 9.73613 235.412 9.71019 234.631C9.66264 233.201 7.32829 232.369 5.78895 232.527C3.76783 232.735 2.2594 234.146 2.40872 235.567Z" fill="#FCA11D" fill-opacity="0.59"/>
<path d="M-0.891785 241.63C-1.12568 242.777 -0.0032139 243.963 1.61559 244.279C3.23445 244.594 4.79798 243.561 4.97038 242.773C5.22041 241.629 3.5376 240.257 2.46294 240.125C0.824703 239.923 -0.65789 240.483 -0.891785 241.63Z" fill="#FCA11D" fill-opacity="0.59"/>
<path d="M-4.55372 272.547C-3.72634 273.686 -1.69872 273.635 -0.0922564 272.341C1.13133 271.356 2.28074 269.082 1.37321 268.008C0.876959 267.421 -1.45149 266.96 -3.08819 268.214C-4.72479 269.467 -5.38088 271.407 -4.55372 272.547Z" fill="#FCA11D" fill-opacity="0.59"/>
<path d="M-2.79441 277.163C-2.64487 278.583 -0.889548 279.525 1.12697 279.266C3.14303 279.008 4.53301 277.008 4.50706 276.226C4.45952 274.797 2.12516 273.965 0.585827 274.123C-1.43529 274.33 -2.94373 275.742 -2.79441 277.163Z" fill="#FCA11D" fill-opacity="0.59"/>
<path d="M-6.09491 283.226C-6.3288 284.373 -5.20634 285.559 -3.58754 285.874C-1.96868 286.19 -0.405144 285.157 -0.232747 284.369C0.0172872 283.225 -1.66552 281.853 -2.74018 281.721C-4.37842 281.519 -5.86102 282.079 -6.09491 283.226Z" fill="#FCA11D" fill-opacity="0.59"/>
<path d="M61.1553 240.853C61.9826 241.993 64.0103 241.942 65.6167 240.648C66.8403 239.662 67.9897 237.388 67.0822 236.315C66.5859 235.728 64.2575 235.267 62.6208 236.52C60.9842 237.774 60.3281 239.714 61.1553 240.853Z" fill="#FCA11D" fill-opacity="0.59"/>
<path d="M58.1899 237.496C58.8843 236.631 59.204 234.43 58.2683 233.777C57.6238 233.327 55.8061 233.694 54.8365 235.081C53.8673 236.468 53.8322 238.132 54.7581 238.799C55.6841 239.466 57.1314 238.813 58.1899 237.496Z" fill="#FCA11D" fill-opacity="0.59"/>
<path d="M56.24 254.354C57.9829 253.509 58.1172 252.31 58.3234 251.17C58.5163 250.104 59.0834 249.149 59.9041 248.451C61.3571 247.215 61.8251 245.226 61.1709 243.5C60.5167 241.775 58.8702 240.655 56.9986 240.787C55.9417 240.862 54.9017 240.569 54.0616 239.927C53.1629 239.242 52.2783 238.462 50.4513 239.085C48.1962 239.854 47.1426 242.544 47.9913 244.783C48.2305 245.413 48.5989 245.952 49.0542 246.38C49.5469 246.843 49.9262 247.408 50.1654 248.028C50.3978 248.652 50.4914 249.334 50.4352 250.023C50.3835 250.659 50.4677 251.315 50.7069 251.946C51.5553 254.184 54.0888 255.398 56.24 254.354Z" fill="#FCA11D" fill-opacity="0.59"/>
<path d="M62.9146 245.473C63.0641 246.894 64.8194 247.835 66.836 247.577C68.852 247.318 70.242 245.319 70.216 244.537C70.1685 243.107 67.8341 242.275 66.2948 242.433C64.2737 242.641 62.7653 244.053 62.9146 245.473Z" fill="#FCA11D" fill-opacity="0.59"/>
<path d="M59.6141 251.537C59.3802 252.684 60.5026 253.87 62.1214 254.186C63.7403 254.501 65.3038 253.469 65.4762 252.68C65.7263 251.537 64.0435 250.165 62.9688 250.032C61.3306 249.83 59.848 250.391 59.6141 251.537Z" fill="#FCA11D" fill-opacity="0.59"/>
<path d="M485.343 277.826C486.17 278.966 488.198 278.914 489.804 277.62C491.028 276.635 492.177 274.361 491.27 273.287C490.773 272.7 488.445 272.24 486.808 273.493C485.172 274.746 484.516 276.686 485.343 277.826Z" fill="#FCA11D" fill-opacity="0.59"/>
<path d="M482.375 274.468C483.07 273.604 483.39 271.403 482.454 270.75C481.809 270.3 479.992 270.666 479.022 272.053C478.053 273.44 478.018 275.105 478.944 275.772C479.87 276.439 481.317 275.786 482.375 274.468Z" fill="#FCA11D" fill-opacity="0.59"/>
<path d="M480.426 291.326C482.168 290.481 482.303 289.282 482.509 288.142C482.702 287.075 483.269 286.121 484.09 285.423C485.543 284.187 486.011 282.198 485.356 280.472C484.702 278.746 483.056 277.627 481.184 277.759C480.127 277.834 479.087 277.541 478.247 276.899C477.348 276.213 476.464 275.434 474.637 276.057C472.382 276.826 471.328 279.516 472.177 281.755C472.416 282.385 472.784 282.924 473.24 283.352C473.732 283.815 474.112 284.379 474.351 285C474.583 285.623 474.677 286.305 474.621 286.995C474.569 287.631 474.653 288.287 474.892 288.917C475.741 291.156 478.274 292.37 480.426 291.326Z" fill="#FCA11D" fill-opacity="0.59"/>
<path d="M487.102 282.446C487.252 283.866 489.007 284.808 491.023 284.549C493.04 284.291 494.429 282.291 494.404 281.509C494.356 280.08 492.022 279.248 490.482 279.406C488.461 279.613 486.953 281.025 487.102 282.446Z" fill="#FCA11D" fill-opacity="0.59"/>
<path d="M483.802 288.51C483.568 289.657 484.69 290.843 486.309 291.158C487.928 291.474 489.491 290.441 489.664 289.653C489.914 288.509 488.231 287.137 487.156 287.005C485.518 286.803 484.035 287.363 483.802 288.51Z" fill="#FCA11D" fill-opacity="0.59"/>
<path d="M1256.89 51.0912C1256.88 52.5066 1258.54 53.6914 1260.59 53.6236C1262.15 53.5719 1264.41 52.4407 1264.31 51.0296C1264.26 50.2582 1262.66 48.4804 1260.61 48.4974C1258.56 48.5144 1256.89 49.6756 1256.89 51.0912Z" fill="#FCA11D" fill-opacity="0.59"/>
<path d="M1256.48 46.6028C1257.54 46.3282 1259.09 44.754 1258.72 43.6639C1258.47 42.9127 1256.8 42.1081 1255.2 42.6358C1253.61 43.1635 1252.6 44.4792 1252.96 45.5746C1253.31 46.6701 1254.85 47.021 1256.48 46.6028Z" fill="#FCA11D" fill-opacity="0.59"/>
<path d="M1245.01 58.9587C1246.91 59.3335 1247.72 58.4518 1248.56 57.6609C1249.34 56.9211 1250.35 56.4974 1251.42 56.4332C1253.32 56.3193 1254.86 55.0046 1255.35 53.2231C1255.83 51.4416 1255.17 49.5471 1253.59 48.5215C1252.7 47.9423 1252.03 47.0781 1251.73 46.0549C1251.42 44.9609 1251.16 43.7998 1249.33 43.1956C1247.07 42.4499 1244.64 43.973 1244.01 46.2841C1243.83 46.9352 1243.81 47.5903 1243.93 48.2093C1244.05 48.8795 1244.02 49.562 1243.85 50.2051C1243.67 50.8464 1243.34 51.4506 1242.9 51.9702C1242.48 52.4501 1242.16 53.0274 1241.98 53.6785C1241.35 55.9893 1242.67 58.4962 1245.01 58.9587Z" fill="#FCA11D" fill-opacity="0.59"/>
<path d="M1255.59 55.8655C1254.88 57.0966 1255.73 58.9144 1257.51 59.9259C1259.28 60.9374 1261.57 60.1718 1262 59.5282C1262.81 58.3514 1261.42 56.2719 1260.09 55.4681C1258.35 54.4125 1256.3 54.6344 1255.59 55.8655Z" fill="#FCA11D" fill-opacity="0.59"/>
<path d="M1249.38 58.7412C1248.52 59.5209 1248.72 61.1518 1249.84 62.3842C1250.95 63.6163 1252.82 63.7323 1253.42 63.2035C1254.29 62.4362 1253.74 60.3168 1252.96 59.5608C1251.76 58.408 1250.24 57.9615 1249.38 58.7412Z" fill="#FCA11D" fill-opacity="0.59"/>
<path d="M1193.13 84.765C1193.12 86.1805 1194.78 87.3652 1196.83 87.2974C1198.39 87.2458 1200.65 86.1145 1200.55 84.7034C1200.5 83.932 1198.9 82.1542 1196.85 82.1712C1194.8 82.1882 1193.13 83.3494 1193.13 84.765Z" fill="#FCA11D" fill-opacity="0.59"/>
<path d="M1192.72 80.2746C1193.78 80.0001 1195.33 78.4258 1194.96 77.3358C1194.71 76.5846 1193.04 75.78 1191.44 76.3076C1189.85 76.8354 1188.84 78.1511 1189.2 79.2465C1189.55 80.342 1191.09 80.6929 1192.72 80.2746Z" fill="#FCA11D" fill-opacity="0.59"/>
<path d="M1181.25 92.6336C1183.15 93.0083 1183.96 92.1266 1184.8 91.3357C1185.58 90.5959 1186.59 90.1723 1187.66 90.108C1189.56 89.9941 1191.1 88.6794 1191.59 86.8979C1192.07 85.1164 1191.41 83.2219 1189.83 82.1963C1188.94 81.6171 1188.27 80.7529 1187.98 79.7297C1187.66 78.6357 1187.4 77.4746 1185.57 76.8704C1183.31 76.1247 1180.88 77.6478 1180.25 79.9589C1180.07 80.61 1180.05 81.2651 1180.17 81.8841C1180.29 82.5543 1180.26 83.2368 1180.09 83.8799C1179.91 84.5212 1179.59 85.1254 1179.14 85.645C1178.72 86.1249 1178.4 86.7022 1178.22 87.3533C1177.59 89.6641 1178.91 92.171 1181.25 92.6336Z" fill="#FCA11D" fill-opacity="0.59"/>
<path d="M1191.83 89.5394C1191.12 90.7704 1191.97 92.5882 1193.74 93.5997C1195.51 94.6112 1197.8 93.8456 1198.24 93.2021C1199.04 92.0253 1197.66 89.9457 1196.33 89.1419C1194.58 88.0863 1192.54 88.3082 1191.83 89.5394Z" fill="#FCA11D" fill-opacity="0.59"/>
<path d="M1185.62 92.4131C1184.76 93.1928 1184.96 94.8237 1186.08 96.0561C1187.19 97.2882 1189.05 97.4042 1189.65 96.8754C1190.53 96.108 1189.98 93.9887 1189.2 93.2327C1188 92.0799 1186.48 91.6334 1185.62 92.4131Z" fill="#FCA11D" fill-opacity="0.59"/>
<path d="M1325.2 146.826C1325.2 148.241 1326.86 149.426 1328.91 149.358C1330.47 149.306 1332.73 148.175 1332.63 146.764C1332.57 145.993 1330.97 144.215 1328.92 144.232C1326.87 144.249 1325.21 145.41 1325.2 146.826Z" fill="#FCA11D" fill-opacity="0.59"/>
<path d="M1324.79 142.334C1325.86 142.06 1327.41 140.485 1327.04 139.395C1326.78 138.644 1325.11 137.84 1323.52 138.367C1321.92 138.895 1320.92 140.211 1321.27 141.306C1321.62 142.402 1323.17 142.752 1324.79 142.334Z" fill="#FCA11D" fill-opacity="0.59"/>
<path d="M1313.33 154.693C1315.22 155.068 1316.04 154.186 1316.87 153.395C1317.65 152.655 1318.67 152.232 1319.74 152.168C1321.63 152.054 1323.17 150.739 1323.66 148.957C1324.15 147.176 1323.48 145.281 1321.9 144.256C1321.01 143.677 1320.35 142.812 1320.05 141.789C1319.73 140.695 1319.48 139.534 1317.64 138.93C1315.38 138.184 1312.96 139.707 1312.32 142.018C1312.15 142.67 1312.13 143.325 1312.24 143.944C1312.36 144.614 1312.34 145.296 1312.16 145.94C1311.98 146.581 1311.66 147.185 1311.21 147.705C1310.79 148.184 1310.48 148.762 1310.3 149.413C1309.67 151.724 1310.99 154.231 1313.33 154.693Z" fill="#FCA11D" fill-opacity="0.59"/>
<path d="M1323.9 151.596C1323.19 152.827 1324.05 154.645 1325.82 155.656C1327.59 156.668 1329.88 155.902 1330.32 155.259C1331.12 154.082 1329.73 152.002 1328.4 151.199C1326.66 150.143 1324.62 150.365 1323.9 151.596Z" fill="#FCA11D" fill-opacity="0.59"/>
<path d="M1317.69 154.473C1316.83 155.252 1317.04 156.883 1318.15 158.116C1319.27 159.348 1321.13 159.464 1321.73 158.935C1322.6 158.168 1322.06 156.048 1321.27 155.292C1320.07 154.139 1318.55 153.693 1317.69 154.473Z" fill="#FCA11D" fill-opacity="0.59"/>
<path d="M1375.3 111.173C1375.29 112.589 1376.95 113.773 1379 113.706C1380.56 113.654 1382.82 112.523 1382.72 111.112C1382.67 110.34 1381.07 108.562 1379.02 108.579C1376.97 108.596 1375.3 109.758 1375.3 111.173Z" fill="#FCA11D" fill-opacity="0.59"/>
<path d="M1374.89 106.686C1375.95 106.411 1377.5 104.837 1377.13 103.747C1376.88 102.996 1375.21 102.191 1373.61 102.719C1372.02 103.247 1371.01 104.562 1371.37 105.658C1371.72 106.753 1373.26 107.104 1374.89 106.686Z" fill="#FCA11D" fill-opacity="0.59"/>
<path d="M1363.42 119.045C1365.32 119.419 1366.13 118.538 1366.97 117.747C1367.75 117.007 1368.76 116.583 1369.83 116.519C1371.73 116.405 1373.27 115.091 1373.76 113.309C1374.24 111.528 1373.58 109.633 1372 108.607C1371.11 108.028 1370.44 107.164 1370.15 106.141C1369.83 105.047 1369.57 103.886 1367.74 103.282C1365.48 102.536 1363.05 104.059 1362.42 106.37C1362.24 107.021 1362.22 107.676 1362.34 108.295C1362.46 108.965 1362.43 109.648 1362.26 110.291C1362.08 110.932 1361.76 111.537 1361.31 112.056C1360.89 112.536 1360.57 113.113 1360.39 113.764C1359.76 116.075 1361.08 118.582 1363.42 119.045Z" fill="#FCA11D" fill-opacity="0.59"/>
<path d="M1374 115.948C1373.29 117.179 1374.14 118.996 1375.91 120.008C1377.68 121.019 1379.97 120.254 1380.41 119.61C1381.21 118.433 1379.83 116.354 1378.5 115.55C1376.75 114.495 1374.71 114.716 1374 115.948Z" fill="#FCA11D" fill-opacity="0.59"/>
<path d="M1367.79 118.821C1366.93 119.601 1367.13 121.232 1368.25 122.464C1369.36 123.696 1371.22 123.812 1371.82 123.284C1372.7 122.516 1372.15 120.397 1371.37 119.641C1370.17 118.488 1368.65 118.042 1367.79 118.821Z" fill="#FCA11D" fill-opacity="0.59"/>
<path d="M1393.06 163.687C1392.95 165.098 1394.51 166.411 1396.56 166.506C1398.12 166.578 1400.46 165.629 1400.47 164.215C1400.48 163.442 1399.02 161.542 1396.97 161.397C1394.93 161.251 1393.18 162.276 1393.06 163.687Z" fill="#FCA11D" fill-opacity="0.59"/>
<path d="M1393 159.179C1394.08 158.99 1395.75 157.543 1395.47 156.427C1395.27 155.658 1393.66 154.723 1392.03 155.123C1390.41 155.523 1389.3 156.755 1389.57 157.875C1389.83 158.995 1391.35 159.467 1393 159.179Z" fill="#FCA11D" fill-opacity="0.59"/>
<path d="M1380.62 170.592C1382.48 171.116 1383.36 170.301 1384.25 169.579C1385.09 168.903 1386.13 168.561 1387.2 168.582C1389.1 168.619 1390.74 167.43 1391.36 165.693C1391.99 163.956 1391.47 162.014 1389.97 160.866C1389.13 160.218 1388.53 159.304 1388.31 158.26C1388.08 157.144 1387.92 155.967 1386.14 155.219C1383.94 154.296 1381.4 155.622 1380.59 157.876C1380.37 158.511 1380.3 159.162 1380.36 159.789C1380.43 160.467 1380.35 161.145 1380.13 161.772C1379.91 162.397 1379.53 162.974 1379.05 163.456C1378.6 163.902 1378.23 164.452 1378.01 165.087C1377.2 167.341 1378.32 169.945 1380.62 170.592Z" fill="#FCA11D" fill-opacity="0.59"/>
<path d="M1391.4 168.344C1390.6 169.514 1391.31 171.394 1393 172.543C1394.69 173.692 1397.03 173.111 1397.51 172.504C1398.4 171.394 1397.18 169.211 1395.92 168.304C1394.26 167.114 1392.21 167.173 1391.4 168.344Z" fill="#FCA11D" fill-opacity="0.59"/>
<path d="M1384.99 170.716C1384.07 171.425 1384.15 173.067 1385.17 174.384C1386.18 175.701 1388.03 175.964 1388.67 175.484C1389.6 174.789 1389.22 172.632 1388.49 171.816C1387.39 170.572 1385.91 170.007 1384.99 170.716Z" fill="#FCA11D" fill-opacity="0.59"/>
<path d="M1436.48 124.182C1436.8 125.559 1438.69 126.311 1440.67 125.753C1442.17 125.328 1444.1 123.686 1443.68 122.339C1443.44 121.602 1441.47 120.259 1439.49 120.769C1437.5 121.277 1436.15 122.806 1436.48 124.182Z" fill="#FCA11D" fill-opacity="0.59"/>
<path d="M1435.03 119.917C1436 119.394 1437.14 117.493 1436.53 116.522C1436.1 115.853 1434.29 115.474 1432.86 116.369C1431.44 117.265 1430.77 118.785 1431.37 119.764C1431.97 120.744 1433.55 120.714 1435.03 119.917Z" fill="#FCA11D" fill-opacity="0.59"/>
<path d="M1426.78 134.679C1428.7 134.587 1429.29 133.536 1429.91 132.567C1430.5 131.66 1431.39 131.005 1432.41 130.686C1434.22 130.12 1435.42 128.472 1435.48 126.624C1435.53 124.776 1434.45 123.095 1432.67 122.478C1431.67 122.13 1430.82 121.45 1430.29 120.527C1429.73 119.541 1429.21 118.474 1427.29 118.327C1424.92 118.146 1422.92 120.208 1422.84 122.606C1422.82 123.281 1422.95 123.923 1423.21 124.497C1423.49 125.118 1423.62 125.788 1423.6 126.454C1423.58 127.12 1423.4 127.785 1423.09 128.398C1422.79 128.964 1422.62 129.601 1422.6 130.276C1422.52 132.674 1424.39 134.792 1426.78 134.679Z" fill="#FCA11D" fill-opacity="0.59"/>
<path d="M1436.33 129.131C1435.92 130.499 1437.18 132.059 1439.13 132.617C1441.09 133.174 1443.14 131.88 1443.41 131.149C1443.92 129.814 1442.08 128.126 1440.61 127.664C1438.66 127.058 1436.73 127.764 1436.33 129.131Z" fill="#FCA11D" fill-opacity="0.59"/>
<path d="M1430.96 133.415C1430.31 134.379 1430.89 135.914 1432.26 136.844C1433.63 137.773 1435.46 137.439 1435.93 136.78C1436.59 135.825 1435.57 133.897 1434.63 133.351C1433.2 132.519 1431.62 132.45 1430.96 133.415Z" fill="#FCA11D" fill-opacity="0.59"/>
<path d="M1321.95 90.7054C1321.94 92.1209 1323.6 93.3057 1325.65 93.2379C1327.21 93.1862 1329.47 92.055 1329.37 90.6438C1329.32 89.8724 1327.72 88.0947 1325.67 88.1117C1323.62 88.1286 1321.95 89.2898 1321.95 90.7054Z" fill="#FCA11D" fill-opacity="0.59"/>
<path d="M1321.54 86.2151C1322.6 85.9405 1324.15 84.3663 1323.78 83.2762C1323.53 82.525 1321.85 81.7204 1320.26 82.2481C1318.67 82.7758 1317.66 84.0915 1318.01 85.187C1318.37 86.2824 1319.91 86.6333 1321.54 86.2151Z" fill="#FCA11D" fill-opacity="0.59"/>
<path d="M1310.07 98.574C1311.97 98.9487 1312.78 98.0671 1313.62 97.2761C1314.4 96.5363 1315.41 96.1127 1316.48 96.0484C1318.38 95.9345 1319.92 94.6198 1320.41 92.8383C1320.9 91.0568 1320.23 89.1623 1318.65 88.1368C1317.76 87.5575 1317.09 86.6934 1316.8 85.6702C1316.48 84.5761 1316.22 83.4151 1314.39 82.8108C1312.13 82.0651 1309.7 83.5882 1309.07 85.8993C1308.89 86.5504 1308.87 87.2056 1308.99 87.8245C1309.11 88.4947 1309.08 89.1773 1308.91 89.8204C1308.73 90.4616 1308.41 91.0659 1307.96 91.5854C1307.54 92.0653 1307.22 92.6427 1307.05 93.2938C1306.41 95.6045 1307.73 98.1114 1310.07 98.574Z" fill="#FCA11D" fill-opacity="0.59"/>
<path d="M1320.65 95.4769C1319.94 96.7079 1320.79 98.5257 1322.56 99.5372C1324.33 100.549 1326.63 99.7831 1327.06 99.1396C1327.86 97.9628 1326.48 95.8832 1325.15 95.0794C1323.4 94.0238 1321.36 94.2457 1320.65 95.4769Z" fill="#FCA11D" fill-opacity="0.59"/>
<path d="M1314.44 98.3525C1313.58 99.1322 1313.78 100.763 1314.9 101.996C1316.01 103.228 1317.87 103.344 1318.48 102.815C1319.35 102.047 1318.8 99.9281 1318.02 99.1722C1316.82 98.0194 1315.3 97.5728 1314.44 98.3525Z" fill="#FCA11D" fill-opacity="0.59"/>
<path d="M1268.6 113.815C1268.59 115.23 1270.25 116.415 1272.3 116.347C1273.86 116.296 1276.12 115.164 1276.02 113.753C1275.97 112.982 1274.37 111.204 1272.32 111.221C1270.27 111.238 1268.6 112.399 1268.6 113.815Z" fill="#FCA11D" fill-opacity="0.59"/>
<path d="M1268.19 109.324C1269.25 109.05 1270.8 107.476 1270.43 106.386C1270.18 105.634 1268.51 104.83 1266.91 105.357C1265.32 105.885 1264.32 107.201 1264.67 108.296C1265.02 109.392 1266.56 109.743 1268.19 109.324Z" fill="#FCA11D" fill-opacity="0.59"/>
<path d="M1256.72 121.682C1258.62 122.057 1259.43 121.175 1260.27 120.384C1261.05 119.645 1262.06 119.221 1263.13 119.157C1265.03 119.043 1266.57 117.728 1267.06 115.947C1267.55 114.165 1266.88 112.271 1265.3 111.245C1264.41 110.666 1263.74 109.802 1263.45 108.779C1263.13 107.685 1262.87 106.523 1261.04 105.919C1258.78 105.174 1256.35 106.697 1255.72 109.008C1255.54 109.659 1255.52 110.314 1255.64 110.933C1255.76 111.603 1255.73 112.286 1255.56 112.929C1255.38 113.57 1255.06 114.174 1254.61 114.694C1254.19 115.174 1253.87 115.751 1253.7 116.402C1253.06 118.713 1254.38 121.22 1256.72 121.682Z" fill="#FCA11D" fill-opacity="0.59"/>
<path d="M1267.3 118.586C1266.59 119.817 1267.44 121.635 1269.21 122.647C1270.99 123.658 1273.28 122.893 1273.71 122.249C1274.51 121.072 1273.13 118.993 1271.8 118.189C1270.05 117.133 1268.01 117.355 1267.3 118.586Z" fill="#FCA11D" fill-opacity="0.59"/>
<path d="M1261.09 121.462C1260.23 122.242 1260.43 123.872 1261.55 125.105C1262.66 126.337 1264.52 126.453 1265.13 125.924C1266 125.157 1265.45 123.038 1264.67 122.282C1263.47 121.129 1261.95 120.682 1261.09 121.462Z" fill="#FCA11D" fill-opacity="0.59"/>
<path d="M407.224 243.661C407.477 245.053 409.323 245.906 411.325 245.455C412.85 245.111 414.864 243.576 414.51 242.208C414.316 241.46 412.421 240.013 410.409 240.414C408.397 240.815 406.971 242.269 407.224 243.661Z" fill="#FCA11D" fill-opacity="0.59"/>
<path d="M406.001 239.323C406.998 238.853 408.234 237.015 407.674 236.013C407.288 235.322 405.495 234.846 404.026 235.663C402.557 236.481 401.808 237.962 402.353 238.973C402.899 239.983 404.482 240.038 406.001 239.323Z" fill="#FCA11D" fill-opacity="0.59"/>
<path d="M396.987 253.619C398.919 253.632 399.556 252.613 400.233 251.679C400.866 250.805 401.787 250.199 402.826 249.935C404.665 249.468 405.943 247.886 406.098 246.044C406.252 244.202 405.254 242.465 403.513 241.753C402.531 241.351 401.722 240.627 401.242 239.677C400.729 238.662 400.27 237.568 398.358 237.318C395.999 237.01 393.892 238.961 393.691 241.351C393.635 242.025 393.734 242.672 393.959 243.259C394.203 243.894 394.301 244.57 394.249 245.235C394.189 245.898 393.98 246.553 393.632 247.148C393.312 247.698 393.105 248.325 393.048 248.998C392.847 251.388 394.603 253.603 396.987 253.619Z" fill="#FCA11D" fill-opacity="0.59"/>
<path d="M406.818 248.594C406.34 249.938 407.513 251.564 409.438 252.225C411.363 252.887 413.474 251.705 413.788 250.991C414.361 249.684 412.62 247.9 411.167 247.359C409.26 246.649 407.295 247.25 406.818 248.594Z" fill="#FCA11D" fill-opacity="0.59"/>
<path d="M401.237 252.584C400.532 253.512 401.031 255.076 402.351 256.078C403.671 257.08 405.522 256.845 406.017 256.212C406.735 255.295 405.812 253.314 404.902 252.718C403.516 251.81 401.941 251.656 401.237 252.584Z" fill="#FCA11D" fill-opacity="0.59"/>
<path d="M387.009 204.689C387.263 206.081 389.108 206.934 391.11 206.483C392.636 206.14 394.649 204.604 394.295 203.236C394.102 202.488 392.206 201.041 390.194 201.442C388.182 201.843 386.756 203.297 387.009 204.689Z" fill="#FCA11D" fill-opacity="0.59"/>
<path d="M385.787 200.352C386.784 199.882 388.019 198.045 387.459 197.042C387.073 196.352 385.28 195.875 383.811 196.693C382.342 197.51 381.593 198.991 382.139 200.002C382.684 201.013 384.267 201.068 385.787 200.352Z" fill="#FCA11D" fill-opacity="0.59"/>
<path d="M376.773 214.648C378.704 214.661 379.342 213.642 380.018 212.708C380.651 211.835 381.572 211.228 382.611 210.964C384.45 210.497 385.728 208.916 385.883 207.073C386.038 205.231 385.039 203.494 383.299 202.783C382.316 202.381 381.507 201.656 381.028 200.706C380.515 199.691 380.055 198.597 378.143 198.347C375.784 198.039 373.677 199.991 373.477 202.381C373.42 203.054 373.519 203.701 373.745 204.288C373.988 204.924 374.086 205.6 374.034 206.264C373.974 206.928 373.765 207.583 373.417 208.178C373.097 208.727 372.89 209.354 372.834 210.027C372.632 212.417 374.388 214.633 376.773 214.648Z" fill="#FCA11D" fill-opacity="0.59"/>
<path d="M386.601 209.621C386.123 210.965 387.296 212.591 389.222 213.253C391.146 213.915 393.258 212.733 393.571 212.018C394.144 210.711 392.403 208.928 390.95 208.387C389.043 207.677 387.078 208.277 386.601 209.621Z" fill="#FCA11D" fill-opacity="0.59"/>
<path d="M381.02 213.613C380.316 214.541 380.814 216.105 382.134 217.108C383.455 218.109 385.306 217.874 385.8 217.242C386.518 216.324 385.595 214.343 384.686 213.748C383.299 212.839 381.724 212.686 381.02 213.613Z" fill="#FCA11D" fill-opacity="0.59"/>
<path d="M341.466 183.562C341.72 184.954 343.565 185.807 345.568 185.356C347.093 185.013 349.106 183.477 348.752 182.109C348.559 181.361 346.663 179.914 344.651 180.315C342.639 180.716 341.213 182.17 341.466 183.562Z" fill="#FCA11D" fill-opacity="0.59"/>
<path d="M340.244 179.225C341.241 178.755 342.476 176.918 341.916 175.915C341.53 175.225 339.737 174.748 338.268 175.566C336.799 176.383 336.05 177.865 336.596 178.875C337.141 179.886 338.724 179.941 340.244 179.225Z" fill="#FCA11D" fill-opacity="0.59"/>
<path d="M331.23 193.522C333.161 193.535 333.799 192.516 334.475 191.582C335.108 190.709 336.029 190.102 337.068 189.838C338.907 189.371 340.185 187.79 340.34 185.947C340.495 184.105 339.496 182.368 337.756 181.657C336.773 181.255 335.964 180.53 335.485 179.58C334.972 178.565 334.512 177.471 332.6 177.221C330.241 176.913 328.135 178.865 327.934 181.255C327.877 181.928 327.976 182.575 328.202 183.162C328.445 183.798 328.543 184.474 328.491 185.138C328.431 185.802 328.222 186.457 327.874 187.052C327.554 187.601 327.347 188.228 327.291 188.901C327.09 191.291 328.845 193.507 331.23 193.522Z" fill="#FCA11D" fill-opacity="0.59"/>
<path d="M341.058 188.495C340.58 189.839 341.754 191.465 343.679 192.127C345.603 192.789 347.715 191.607 348.028 190.892C348.601 189.585 346.86 187.802 345.407 187.261C343.5 186.551 341.535 187.152 341.058 188.495Z" fill="#FCA11D" fill-opacity="0.59"/>
<path d="M335.477 192.486C334.773 193.414 335.271 194.978 336.591 195.981C337.912 196.982 339.763 196.747 340.257 196.115C340.975 195.197 340.052 193.216 339.143 192.621C337.756 191.712 336.181 191.559 335.477 192.486Z" fill="#FCA11D" fill-opacity="0.59"/>
<path d="M340.814 223.176C341.067 224.567 342.913 225.421 344.915 224.97C346.44 224.626 348.453 223.091 348.1 221.722C347.906 220.974 346.01 219.527 343.998 219.929C341.987 220.33 340.561 221.783 340.814 223.176Z" fill="#FCA11D" fill-opacity="0.59"/>
<path d="M339.591 218.842C340.588 218.373 341.824 216.535 341.263 215.533C340.878 214.842 339.085 214.365 337.615 215.183C336.146 216 335.398 217.482 335.943 218.492C336.489 219.503 338.072 219.558 339.591 218.842Z" fill="#FCA11D" fill-opacity="0.59"/>
<path d="M330.577 233.136C332.509 233.148 333.146 232.13 333.823 231.196C334.456 230.322 335.377 229.715 336.415 229.452C338.255 228.985 339.532 227.403 339.687 225.561C339.842 223.718 338.843 221.981 337.103 221.27C336.121 220.868 335.311 220.143 334.832 219.194C334.319 218.178 333.86 217.085 331.948 216.835C329.588 216.526 327.482 218.478 327.281 220.868C327.225 221.541 327.324 222.189 327.549 222.776C327.793 223.411 327.891 224.087 327.839 224.751C327.779 225.415 327.57 226.07 327.222 226.665C326.902 227.214 326.695 227.841 326.638 228.515C326.437 230.904 328.193 233.12 330.577 233.136Z" fill="#FCA11D" fill-opacity="0.59"/>
<path d="M340.405 228.109C339.928 229.452 341.101 231.078 343.026 231.74C344.951 232.402 347.062 231.22 347.376 230.505C347.949 229.199 346.208 227.415 344.755 226.874C342.848 226.164 340.883 226.765 340.405 228.109Z" fill="#FCA11D" fill-opacity="0.59"/>
<path d="M334.827 232.101C334.122 233.028 334.621 234.593 335.941 235.595C337.261 236.597 339.112 236.361 339.607 235.729C340.324 234.811 339.402 232.831 338.492 232.235C337.106 231.327 335.531 231.173 334.827 232.101Z" fill="#FCA11D" fill-opacity="0.59"/>
</svg>
