<svg width="1728" height="297" viewBox="0 0 1728 297" fill="none" xmlns="http://www.w3.org/2000/svg">
<path d="M132.976 151.413C133.792 152.561 135.82 152.532 137.44 151.256C138.674 150.284 139.847 148.023 138.951 146.939C138.461 146.347 136.138 145.861 134.488 147.096C132.838 148.331 132.161 150.264 132.976 151.413Z" fill="#FCA11D"/>
<path d="M130.045 148.023C130.749 147.166 131.092 144.969 130.163 144.306C129.524 143.849 127.702 144.195 126.718 145.572C125.734 146.948 125.681 148.612 126.6 149.289C127.519 149.966 128.973 149.329 130.045 148.023Z" fill="#FCA11D"/>
<path d="M127.916 164.86C129.668 164.033 129.815 162.836 130.033 161.698C130.238 160.634 130.815 159.686 131.643 158.997C133.109 157.777 133.598 155.793 132.962 154.06C132.327 152.327 130.692 151.19 128.819 151.302C127.762 151.365 126.725 151.06 125.891 150.41C125 149.714 124.124 148.925 122.29 149.528C120.027 150.272 118.945 152.95 119.77 155.198C120.002 155.831 120.365 156.374 120.816 156.807C121.303 157.276 121.677 157.844 121.909 158.467C122.135 159.093 122.221 159.776 122.158 160.465C122.099 161.101 122.177 161.757 122.409 162.39C123.233 164.638 125.754 165.88 127.916 164.86Z" fill="#FCA11D"/>
<path d="M134.685 156.052C134.82 157.474 136.565 158.435 138.584 158.198C140.603 157.962 142.014 155.978 141.996 155.196C141.964 153.766 139.639 152.908 138.098 153.05C136.075 153.235 134.551 154.63 134.685 156.052Z" fill="#FCA11D"/>
<path d="M131.32 162.08C131.074 163.224 132.183 164.422 133.799 164.755C135.414 165.088 136.989 164.073 137.169 163.287C137.432 162.146 135.764 160.755 134.69 160.611C133.054 160.391 131.566 160.935 131.32 162.08Z" fill="#FCA11D"/>
<path d="M1095.46 63.2223C1096.08 64.493 1098.08 64.8084 1099.89 63.8249C1101.27 63.0759 1102.79 61.0456 1102.09 59.8252C1101.7 59.1581 1099.49 58.2847 1097.66 59.2228C1095.83 60.1608 1094.85 61.9514 1095.46 63.2223Z" fill="#FCA11D"/>
<path d="M1093.13 59.3815C1093.97 58.6559 1094.67 56.5478 1093.86 55.7365C1093.3 55.1773 1091.45 55.2101 1090.25 56.4C1089.06 57.5898 1088.73 59.2217 1089.53 60.045C1090.32 60.8683 1091.86 60.4872 1093.13 59.3815Z" fill="#FCA11D"/>
<path d="M1088.26 75.6168C1090.12 75.0992 1090.46 73.9436 1090.87 72.8589C1091.24 71.8443 1091.97 71.0074 1092.9 70.4687C1094.55 69.5148 1095.35 67.6416 1095.01 65.8254C1094.67 64.0091 1093.25 62.6106 1091.38 62.4029C1090.33 62.2854 1089.36 61.8095 1088.64 61.0265C1087.88 60.1897 1087.15 59.2628 1085.24 59.5463C1082.88 59.8964 1081.38 62.3531 1081.82 64.7093C1081.94 65.3731 1082.21 65.9694 1082.59 66.4726C1082.99 67.0176 1083.26 67.6414 1083.39 68.2953C1083.51 68.9509 1083.48 69.6388 1083.31 70.3069C1083.14 70.9239 1083.11 71.5841 1083.24 72.2479C1083.68 74.6038 1085.96 76.2556 1088.26 75.6168Z" fill="#FCA11D"/>
<path d="M1096.38 68.0849C1096.28 69.5095 1097.84 70.7531 1099.87 70.8624C1101.9 70.9719 1103.62 69.2548 1103.73 68.4808C1103.94 67.0655 1101.78 65.8257 1100.24 65.7034C1098.22 65.5428 1096.48 66.66 1096.38 68.0849Z" fill="#FCA11D"/>
<path d="M1092.07 73.4574C1091.64 74.5439 1092.54 75.9132 1094.08 76.516C1095.61 77.1184 1097.33 76.3843 1097.64 75.6397C1098.09 74.5594 1096.67 72.9057 1095.64 72.5816C1094.06 72.0872 1092.5 72.371 1092.07 73.4574Z" fill="#FCA11D"/>
<path d="M1155 28.6322C1154.99 30.0477 1156.65 31.2324 1158.7 31.1646C1160.26 31.1129 1162.52 29.9817 1162.42 28.5706C1162.37 27.7992 1160.77 26.0214 1158.72 26.0384C1156.67 26.0554 1155 27.2166 1155 28.6322Z" fill="#FCA11D"/>
<path d="M1154.58 24.1399C1155.65 23.8653 1157.2 22.2911 1156.83 21.201C1156.58 20.4498 1154.9 19.6452 1153.31 20.1729C1151.72 20.7006 1150.71 22.0163 1151.06 23.1118C1151.42 24.2072 1152.96 24.5581 1154.58 24.1399Z" fill="#FCA11D"/>
<path d="M1143.12 36.4988C1145.02 36.8735 1145.83 35.9919 1146.67 35.2009C1147.45 34.4611 1148.46 34.0375 1149.53 33.9732C1151.42 33.8593 1152.97 32.5446 1153.46 30.7631C1153.94 28.9816 1153.28 27.0871 1151.7 26.0616C1150.81 25.4823 1150.14 24.6182 1149.84 23.595C1149.53 22.5009 1149.27 21.3399 1147.44 20.7356C1145.18 19.9899 1142.75 21.513 1142.12 23.8241C1141.94 24.4752 1141.92 25.1304 1142.03 25.7493C1142.16 26.4195 1142.13 27.1021 1141.96 27.7452C1141.78 28.3864 1141.45 28.9907 1141 29.5102C1140.59 29.9901 1140.27 30.5675 1140.09 31.2186C1139.46 33.5293 1140.78 36.0362 1143.12 36.4988Z" fill="#FCA11D"/>
<path d="M1153.7 33.4026C1152.98 34.6337 1153.84 36.4515 1155.61 37.463C1157.38 38.4745 1159.67 37.7089 1160.11 37.0653C1160.91 35.8886 1159.53 33.809 1158.2 33.0052C1156.45 31.9496 1154.41 32.1715 1153.7 33.4026Z" fill="#FCA11D"/>
<path d="M1147.49 36.2773C1146.62 37.057 1146.83 38.6879 1147.94 39.9203C1149.06 41.1524 1150.92 41.2685 1151.52 40.7396C1152.39 39.9723 1151.85 37.8529 1151.06 37.097C1149.87 35.9442 1148.35 35.4976 1147.49 36.2773Z" fill="#FCA11D"/>
<path d="M178.569 123.343C179.133 124.638 181.123 125.035 182.968 124.126C184.374 123.434 185.982 121.468 185.326 120.22C184.968 119.537 182.793 118.574 180.928 119.437C179.062 120.299 178.006 122.048 178.569 123.343Z" fill="#FCA11D"/>
<path d="M176.392 119.408C177.255 118.717 178.038 116.64 177.264 115.796C176.732 115.215 174.879 115.172 173.636 116.312C172.393 117.452 172.002 119.069 172.763 119.924C173.524 120.779 175.076 120.461 176.392 119.408Z" fill="#FCA11D"/>
<path d="M170.88 135.435C172.762 134.994 173.15 133.853 173.595 132.786C174.012 131.788 174.77 130.981 175.72 130.481C177.403 129.595 178.286 127.756 178.017 125.928C177.748 124.099 176.38 122.643 174.525 122.359C173.477 122.199 172.525 121.684 171.842 120.872C171.112 120.005 170.415 119.049 168.499 119.254C166.133 119.508 164.528 121.901 164.877 124.273C164.976 124.942 165.22 125.548 165.573 126.066C165.955 126.627 166.204 127.262 166.305 127.921C166.398 128.58 166.343 129.267 166.141 129.927C165.954 130.537 165.896 131.195 165.995 131.864C166.343 134.236 168.556 135.979 170.88 135.435Z" fill="#FCA11D"/>
<path d="M179.296 128.238C179.138 129.658 180.65 130.964 182.673 131.156C184.697 131.349 186.482 129.703 186.624 128.934C186.883 127.529 184.783 126.202 183.246 126.017C181.229 125.773 179.455 126.819 179.296 128.238Z" fill="#FCA11D"/>
<path d="M174.776 133.429C174.302 134.497 175.144 135.902 176.656 136.567C178.169 137.232 179.916 136.569 180.253 135.837C180.742 134.776 179.393 133.066 178.373 132.7C176.817 132.141 175.25 132.361 174.776 133.429Z" fill="#FCA11D"/>
<path d="M655.88 150.352C657.063 151.102 658.93 150.297 659.954 148.494C660.734 147.121 660.978 144.577 659.745 143.918C659.071 143.557 656.739 143.999 655.671 145.776C654.604 147.552 654.698 149.601 655.88 150.352Z" fill="#FCA11D"/>
<path d="M651.905 148.338C652.237 147.274 651.736 145.108 650.629 144.851C649.867 144.673 648.309 145.693 647.911 147.345C647.513 148.996 648.084 150.557 649.187 150.831C650.29 151.106 651.399 149.958 651.905 148.338Z" fill="#FCA11D"/>
<path d="M656.206 164.739C657.52 163.301 657.21 162.136 656.988 160.999C656.78 159.936 656.962 158.837 657.471 157.881C658.374 156.189 658.088 154.165 656.854 152.805C655.62 151.444 653.683 151.019 651.99 151.841C651.035 152.305 649.961 152.421 648.948 152.138C647.863 151.836 646.758 151.442 645.285 152.704C643.468 154.261 643.463 157.156 645.065 158.92C645.516 159.417 646.053 159.78 646.632 160.008C647.258 160.255 647.816 160.638 648.263 161.126C648.705 161.619 649.04 162.218 649.237 162.879C649.42 163.49 649.736 164.069 650.187 164.566C651.788 166.33 654.584 166.512 656.206 164.739Z" fill="#FCA11D"/>
<path d="M659.19 153.989C659.844 155.253 661.817 155.474 663.599 154.48C665.379 153.487 665.947 151.108 665.639 150.391C665.076 149.079 662.604 149.178 661.23 149.9C659.426 150.847 658.536 152.724 659.19 153.989Z" fill="#FCA11D"/>
<path d="M658.32 160.86C658.519 162.014 659.993 162.697 661.612 162.386C663.232 162.074 664.311 160.53 664.186 159.733C664.003 158.576 661.941 157.929 660.894 158.207C659.297 158.632 658.122 159.706 658.32 160.86Z" fill="#FCA11D"/>
<path d="M723.854 149.836C725.037 150.587 726.904 149.782 727.928 147.979C728.708 146.605 728.952 144.062 727.719 143.402C727.045 143.042 724.713 143.483 723.645 145.26C722.578 147.037 722.672 149.085 723.854 149.836Z" fill="#FCA11D"/>
<path d="M719.877 147.822C720.209 146.759 719.708 144.593 718.601 144.335C717.839 144.158 716.282 145.177 715.883 146.829C715.485 148.481 716.056 150.042 717.159 150.316C718.262 150.59 719.371 149.443 719.877 147.822Z" fill="#FCA11D"/>
<path d="M724.178 164.223C725.492 162.786 725.182 161.621 724.96 160.484C724.753 159.42 724.934 158.321 725.444 157.366C726.346 155.674 726.06 153.649 724.826 152.289C723.592 150.929 721.655 150.503 719.963 151.325C719.007 151.789 717.934 151.905 716.92 151.622C715.835 151.321 714.73 150.926 713.257 152.188C711.44 153.745 711.436 156.64 713.037 158.404C713.488 158.901 714.026 159.264 714.604 159.492C715.23 159.739 715.788 160.122 716.235 160.61C716.678 161.103 717.012 161.702 717.21 162.364C717.392 162.975 717.708 163.553 718.16 164.05C719.76 165.814 722.556 165.997 724.178 164.223Z" fill="#FCA11D"/>
<path d="M727.164 153.473C727.818 154.738 729.792 154.958 731.573 153.964C733.354 152.971 733.921 150.592 733.613 149.875C733.05 148.564 730.578 148.662 729.204 149.384C727.4 150.332 726.51 152.208 727.164 153.473Z" fill="#FCA11D"/>
<path d="M726.295 160.344C726.493 161.498 727.967 162.181 729.586 161.87C731.206 161.559 732.285 160.015 732.16 159.217C731.977 158.06 729.915 157.413 728.868 157.692C727.271 158.116 726.096 159.191 726.295 160.344Z" fill="#FCA11D"/>
<path d="M721.251 84.475C722.434 85.2255 724.301 84.4204 725.325 82.6173C726.105 81.2439 726.349 78.7003 725.116 78.0408C724.442 77.6805 722.11 78.122 721.042 79.8988C719.975 81.6753 720.069 83.7241 721.251 84.475Z" fill="#FCA11D"/>
<path d="M717.274 82.4625C717.606 81.3992 717.105 79.2335 715.998 78.9759C715.236 78.7982 713.679 79.8181 713.28 81.4698C712.882 83.1213 713.453 84.6822 714.556 84.9564C715.659 85.2306 716.768 84.0832 717.274 82.4625Z" fill="#FCA11D"/>
<path d="M721.575 98.8617C722.889 97.4244 722.579 96.2595 722.357 95.1224C722.15 94.0589 722.331 92.9596 722.841 92.0042C723.743 90.3124 723.457 88.2879 722.223 86.9277C720.989 85.5675 719.052 85.1419 717.359 85.9638C716.404 86.4277 715.331 86.5438 714.317 86.2611C713.232 85.9593 712.127 85.5647 710.654 86.8266C708.837 88.3842 708.833 91.2786 710.434 93.0431C710.885 93.5401 711.423 93.9031 712.001 94.1309C712.627 94.3778 713.185 94.7609 713.632 95.2486C714.075 95.7416 714.409 96.3407 714.607 97.0025C714.789 97.6135 715.105 98.1916 715.557 98.6886C717.157 100.453 719.953 100.635 721.575 98.8617Z" fill="#FCA11D"/>
<path d="M724.561 88.1138C725.215 89.3784 727.189 89.5985 728.97 88.6048C730.751 87.6115 731.318 85.233 731.01 84.5158C730.447 83.2044 727.975 83.3029 726.601 84.0248C724.797 84.9725 723.907 86.8487 724.561 88.1138Z" fill="#FCA11D"/>
<path d="M723.692 94.9831C723.89 96.1369 725.364 96.82 726.983 96.5089C728.603 96.1974 729.682 94.6533 729.557 93.8559C729.374 92.6991 727.312 92.0521 726.265 92.3305C724.668 92.7546 723.493 93.8293 723.692 94.9831Z" fill="#FCA11D"/>
<path d="M782.523 99.5309C783.137 100.802 785.142 101.117 786.949 100.134C788.326 99.3845 789.856 97.3542 789.151 96.1338C788.765 95.4667 786.555 94.5933 784.724 95.5314C782.894 96.4694 781.909 98.26 782.523 99.5309Z" fill="#FCA11D"/>
<path d="M780.193 95.692C781.028 94.9664 781.728 92.8583 780.921 92.047C780.366 91.4879 778.513 91.5207 777.316 92.7106C776.119 93.9004 775.793 95.5322 776.587 96.3555C777.382 97.1789 778.92 96.7977 780.193 95.692Z" fill="#FCA11D"/>
<path d="M775.32 111.929C777.184 111.412 777.526 110.256 777.929 109.171C778.305 108.157 779.03 107.32 779.96 106.781C781.607 105.827 782.416 103.954 782.074 102.138C781.733 100.322 780.309 98.9231 778.444 98.7154C777.391 98.5979 776.419 98.122 775.704 97.339C774.94 96.5022 774.206 95.5753 772.299 95.8588C769.945 96.2089 768.437 98.6656 768.88 101.022C769.005 101.686 769.273 102.282 769.646 102.785C770.05 103.33 770.324 103.954 770.451 104.608C770.57 105.263 770.543 105.951 770.367 106.619C770.205 107.236 770.173 107.897 770.297 108.56C770.74 110.916 773.021 112.568 775.32 111.929Z" fill="#FCA11D"/>
<path d="M783.444 104.393C783.342 105.818 784.904 107.062 786.934 107.171C788.963 107.281 790.682 105.563 790.793 104.789C790.997 103.374 788.845 102.134 787.303 102.012C785.277 101.851 783.546 102.969 783.444 104.393Z" fill="#FCA11D"/>
<path d="M779.134 109.766C778.703 110.852 779.599 112.222 781.137 112.825C782.675 113.427 784.394 112.693 784.702 111.948C785.149 110.868 783.733 109.214 782.699 108.89C781.122 108.396 779.565 108.68 779.134 109.766Z" fill="#FCA11D"/>
<path d="M805.294 44.0739C805.909 45.3446 807.913 45.6599 809.721 44.6765C811.098 43.9274 812.627 41.8972 811.922 40.6767C811.537 40.0096 809.326 39.1363 807.496 40.0744C805.666 41.0124 804.68 42.8029 805.294 44.0739Z" fill="#FCA11D"/>
<path d="M802.964 40.233C803.799 39.5074 804.499 37.3994 803.693 36.588C803.137 36.0289 801.284 36.0617 800.087 37.2516C798.891 38.4414 798.564 40.0732 799.359 40.8966C800.153 41.7199 801.692 41.3388 802.964 40.233Z" fill="#FCA11D"/>
<path d="M798.092 56.4684C799.955 55.9508 800.297 54.7952 800.7 53.7104C801.077 52.6959 801.802 51.859 802.732 51.3203C804.378 50.3664 805.187 48.4932 804.846 46.6769C804.505 44.8607 803.08 43.4622 801.215 43.2544C800.162 43.1369 799.19 42.661 798.476 41.8781C797.712 41.0412 796.978 40.1143 795.071 40.3979C792.717 40.748 791.209 43.2047 791.652 45.5609C791.777 46.2246 792.045 46.8209 792.418 47.3242C792.821 47.8692 793.096 48.493 793.222 49.1469C793.342 49.8024 793.314 50.4904 793.138 51.1585C792.976 51.7754 792.944 52.4357 793.069 53.0994C793.512 55.4553 795.792 57.1071 798.092 56.4684Z" fill="#FCA11D"/>
<path d="M806.215 48.9364C806.114 50.361 807.676 51.6046 809.706 51.7139C811.735 51.8235 813.453 50.1064 813.564 49.3324C813.768 47.9171 811.617 46.6772 810.074 46.555C808.049 46.3943 806.317 47.5116 806.215 48.9364Z" fill="#FCA11D"/>
<path d="M801.905 54.309C801.474 55.3954 802.371 56.7647 803.909 57.3675C805.446 57.97 807.166 57.2359 807.474 56.4913C807.92 55.411 806.505 53.7572 805.47 53.4332C803.893 52.9388 802.336 53.2226 801.905 54.309Z" fill="#FCA11D"/>
<path d="M852.787 83.6911C853.401 84.9618 855.405 85.2771 857.213 84.2937C858.59 83.5446 860.119 81.5144 859.414 80.2939C859.029 79.6268 856.818 78.7535 854.988 79.6916C853.158 80.6295 852.172 82.4201 852.787 83.6911Z" fill="#FCA11D"/>
<path d="M850.456 79.8463C851.291 79.1207 851.991 77.0126 851.185 76.2013C850.629 75.6422 848.776 75.675 847.579 76.8649C846.382 78.0547 846.056 79.6865 846.85 80.5098C847.645 81.3332 849.183 80.952 850.456 79.8463Z" fill="#FCA11D"/>
<path d="M845.584 96.0855C847.447 95.5679 847.789 94.4124 848.192 93.3276C848.568 92.313 849.294 91.4762 850.224 90.9375C851.87 89.9836 852.679 88.1104 852.338 86.2941C851.996 84.4779 850.572 83.0794 848.707 82.8716C847.654 82.7541 846.682 82.2782 845.968 81.4953C845.203 80.6584 844.469 79.7315 842.562 80.0151C840.208 80.3652 838.7 82.8219 839.143 85.1781C839.268 85.8418 839.536 86.4381 839.909 86.9414C840.313 87.4864 840.587 88.1102 840.714 88.7641C840.834 89.4196 840.806 90.1076 840.63 90.7757C840.468 91.3926 840.436 92.0529 840.561 92.7166C841.003 95.0725 843.284 96.7243 845.584 96.0855Z" fill="#FCA11D"/>
<path d="M853.709 88.5497C853.608 89.9743 855.17 91.2179 857.2 91.3272C859.229 91.4368 860.947 89.7197 861.059 88.9456C861.262 87.5303 859.111 86.2905 857.568 86.1683C855.543 86.0076 853.811 87.1249 853.709 88.5497Z" fill="#FCA11D"/>
<path d="M849.397 93.9223C848.966 95.0087 849.863 96.378 851.401 96.9808C852.939 97.5833 854.658 96.8492 854.966 96.1046C855.412 95.0242 853.997 93.3705 852.962 93.0465C851.386 92.5521 849.828 92.8358 849.397 93.9223Z" fill="#FCA11D"/>
<path d="M896.378 25.5836C896.992 26.8543 898.997 27.1697 900.804 26.1863C902.181 25.4372 903.711 23.4069 903.006 22.1865C902.62 21.5194 900.41 20.6461 898.579 21.5842C896.749 22.5221 895.764 24.3127 896.378 25.5836Z" fill="#FCA11D"/>
<path d="M894.047 21.7447C894.882 21.0192 895.582 18.9111 894.776 18.0998C894.22 17.5406 892.367 17.5734 891.17 18.7633C889.974 19.9531 889.647 21.585 890.442 22.4083C891.236 23.2316 892.775 22.8505 894.047 21.7447Z" fill="#FCA11D"/>
<path d="M889.175 37.982C891.038 37.4644 891.38 36.3088 891.783 35.2241C892.16 34.2095 892.885 33.3726 893.815 32.834C895.461 31.88 896.27 30.0069 895.929 28.1906C895.588 26.3744 894.163 24.9758 892.298 24.7681C891.245 24.6506 890.273 24.1747 889.559 23.3918C888.795 22.5549 888.061 21.628 886.154 21.9115C883.8 22.2617 882.292 24.7184 882.735 27.0745C882.86 27.7383 883.128 28.3346 883.501 28.8379C883.904 29.3829 884.179 30.0067 884.305 30.6606C884.425 31.3161 884.397 32.004 884.221 32.6722C884.059 33.2891 884.027 33.9494 884.152 34.6131C884.595 36.969 886.875 38.6208 889.175 37.982Z" fill="#FCA11D"/>
<path d="M897.299 30.4442C897.197 31.8688 898.759 33.1124 900.789 33.2217C902.818 33.3313 904.536 31.6142 904.648 30.8402C904.852 29.4249 902.7 28.1851 901.158 28.0628C899.132 27.9021 897.401 29.0194 897.299 30.4442Z" fill="#FCA11D"/>
<path d="M892.989 35.8207C892.558 36.9072 893.454 38.2764 894.992 38.8793C896.53 39.4817 898.249 38.7476 898.557 38.003C899.004 36.9227 897.588 35.2689 896.554 34.9449C894.977 34.4505 893.42 34.7343 892.989 35.8207Z" fill="#FCA11D"/>
<path d="M946.476 60.5778C947.09 61.8485 949.094 62.1638 950.902 61.1804C952.279 60.4313 953.808 58.4011 953.103 57.1807C952.718 56.5135 950.507 55.6402 948.677 56.5783C946.847 57.5163 945.861 59.3068 946.476 60.5778Z" fill="#FCA11D"/>
<path d="M944.143 56.7369C944.978 56.0113 945.678 53.9033 944.872 53.092C944.316 52.5328 942.463 52.5656 941.266 53.7555C940.069 54.9453 939.743 56.5771 940.537 57.4005C941.332 58.2238 942.87 57.8427 944.143 56.7369Z" fill="#FCA11D"/>
<path d="M939.272 72.9742C941.136 72.4566 941.478 71.301 941.881 70.2163C942.257 69.2017 942.983 68.3648 943.912 67.8262C945.559 66.8722 946.368 64.999 946.027 63.1828C945.685 61.3665 944.261 59.968 942.396 59.7603C941.343 59.6428 940.371 59.1669 939.656 58.384C938.892 57.5471 938.158 56.6202 936.251 56.9037C933.897 57.2539 932.389 59.7106 932.832 62.0667C932.957 62.7305 933.225 63.3268 933.598 63.83C934.002 64.375 934.276 64.9989 934.403 65.6528C934.523 66.3083 934.495 66.9962 934.319 67.6643C934.157 68.2813 934.125 68.9415 934.25 69.6053C934.692 71.9612 936.973 73.613 939.272 72.9742Z" fill="#FCA11D"/>
<path d="M947.396 65.4403C947.295 66.8649 948.857 68.1085 950.887 68.2178C952.916 68.3274 954.634 66.6103 954.746 65.8363C954.949 64.421 952.798 63.1811 951.255 63.0589C949.23 62.8982 947.498 64.0155 947.396 65.4403Z" fill="#FCA11D"/>
<path d="M943.086 70.8129C942.655 71.8994 943.552 73.2686 945.09 73.8715C946.628 74.4739 948.347 73.7398 948.655 72.9952C949.101 71.9149 947.686 70.2611 946.651 69.9371C945.075 69.4427 943.517 69.7265 943.086 70.8129Z" fill="#FCA11D"/>
<path d="M982.257 22.2887C982.871 23.5594 984.876 23.8748 986.683 22.8913C988.06 22.1423 989.59 20.112 988.885 18.8916C988.499 18.2245 986.288 17.3511 984.458 18.2892C982.628 19.2272 981.643 21.0178 982.257 22.2887Z" fill="#FCA11D"/>
<path d="M979.927 18.4498C980.761 17.7242 981.462 15.6162 980.655 14.8048C980.1 14.2457 978.247 14.2785 977.05 15.4684C975.853 16.6582 975.527 18.29 976.321 19.1134C977.116 19.9367 978.654 19.5556 979.927 18.4498Z" fill="#FCA11D"/>
<path d="M975.054 34.6832C976.917 34.1656 977.26 33.01 977.662 31.9253C978.039 30.9107 978.764 30.0738 979.694 29.5351C981.341 28.5812 982.15 26.708 981.808 24.8918C981.467 23.0755 980.043 21.677 978.178 21.4693C977.125 21.3518 976.153 20.8759 975.438 20.093C974.674 19.2561 973.94 18.3292 972.033 18.6127C969.679 18.9628 968.171 21.4196 968.614 23.7757C968.739 24.4395 969.007 25.0358 969.38 25.539C969.784 26.084 970.058 26.7079 970.185 27.3618C970.304 28.0173 970.277 28.7052 970.101 29.3733C969.938 29.9903 969.906 30.6505 970.031 31.3143C970.474 33.6702 972.754 35.322 975.054 34.6832Z" fill="#FCA11D"/>
<path d="M983.178 27.1513C983.076 28.5759 984.638 29.8195 986.668 29.9288C988.697 30.0383 990.415 28.3212 990.527 27.5472C990.731 26.1319 988.579 24.8921 987.037 24.7698C985.011 24.6092 983.28 25.7264 983.178 27.1513Z" fill="#FCA11D"/>
<path d="M978.868 32.5238C978.436 33.6103 979.333 34.9796 980.871 35.5824C982.409 36.1848 984.128 35.4507 984.436 34.7062C984.883 33.6258 983.467 31.9721 982.433 31.648C980.856 31.1536 979.299 31.4374 978.868 32.5238Z" fill="#FCA11D"/>
<path d="M1017.39 56.6227C1018 57.8934 1020.01 58.2088 1021.82 57.2253C1023.19 56.4763 1024.72 54.446 1024.02 53.2256C1023.63 52.5585 1021.42 51.6851 1019.59 52.6232C1017.76 53.5612 1016.77 55.3518 1017.39 56.6227Z" fill="#FCA11D"/>
<path d="M1015.06 52.7818C1015.89 52.0563 1016.59 49.9482 1015.79 49.1369C1015.23 48.5777 1013.38 48.6105 1012.18 49.8004C1010.98 50.9902 1010.66 52.6221 1011.45 53.4454C1012.25 54.2687 1013.78 53.8876 1015.06 52.7818Z" fill="#FCA11D"/>
<path d="M1010.19 69.0172C1012.05 68.4996 1012.39 67.344 1012.79 66.2593C1013.17 65.2447 1013.9 64.4078 1014.83 63.8691C1016.47 62.9152 1017.28 61.042 1016.94 59.2258C1016.6 57.4095 1015.17 56.011 1013.31 55.8033C1012.26 55.6858 1011.28 55.2098 1010.57 54.4269C1009.81 53.5901 1009.07 52.6632 1007.16 52.9467C1004.81 53.2968 1003.3 55.7535 1003.75 58.1097C1003.87 58.7735 1004.14 59.3697 1004.51 59.873C1004.92 60.418 1005.19 61.0418 1005.32 61.6957C1005.44 62.3512 1005.41 63.0392 1005.23 63.7073C1005.07 64.3243 1005.04 64.9845 1005.16 65.6483C1005.61 68.0042 1007.89 69.656 1010.19 69.0172Z" fill="#FCA11D"/>
<path d="M1018.31 61.4814C1018.21 62.9059 1019.77 64.1496 1021.8 64.2588C1023.83 64.3684 1025.55 62.6513 1025.66 61.8773C1025.86 60.462 1023.71 59.2222 1022.17 59.0999C1020.14 58.9393 1018.41 60.0565 1018.31 61.4814Z" fill="#FCA11D"/>
<path d="M1014 66.8578C1013.57 67.9443 1014.47 69.3136 1016 69.9164C1017.54 70.5188 1019.26 69.7847 1019.57 69.0401C1020.01 67.9598 1018.6 66.306 1017.56 65.982C1015.99 65.4876 1014.43 65.7714 1014 66.8578Z" fill="#FCA11D"/>
<path d="M1068.14 20.9645C1068.75 22.2352 1070.75 22.5505 1072.56 21.5671C1073.94 20.8181 1075.47 18.7878 1074.76 17.5674C1074.38 16.9003 1072.17 16.0269 1070.34 16.965C1068.51 17.903 1067.52 19.6935 1068.14 20.9645Z" fill="#FCA11D"/>
<path d="M1065.81 17.1256C1066.64 16.4 1067.34 14.2919 1066.53 13.4806C1065.98 12.9215 1064.13 12.9543 1062.93 14.1442C1061.73 15.334 1061.41 16.9658 1062.2 17.7891C1062.99 18.6125 1064.53 18.2313 1065.81 17.1256Z" fill="#FCA11D"/>
<path d="M1060.93 33.359C1062.8 32.8414 1063.14 31.6858 1063.54 30.6011C1063.92 29.5865 1064.64 28.7496 1065.57 28.2109C1067.22 27.257 1068.03 25.3838 1067.69 23.5676C1067.35 21.7513 1065.92 20.3528 1064.06 20.1451C1063 20.0276 1062.03 19.5516 1061.32 18.7687C1060.55 17.9318 1059.82 17.005 1057.91 17.2885C1055.56 17.6386 1054.05 20.0953 1054.49 22.4515C1054.62 23.1152 1054.89 23.7115 1055.26 24.2148C1055.66 24.7598 1055.94 25.3836 1056.06 26.0375C1056.18 26.693 1056.16 27.381 1055.98 28.0491C1055.82 28.6661 1055.79 29.3263 1055.91 29.9901C1056.35 32.346 1058.63 33.9978 1060.93 33.359Z" fill="#FCA11D"/>
<path d="M1069.06 25.8271C1068.95 27.2517 1070.52 28.4953 1072.55 28.6045C1074.58 28.7141 1076.29 26.997 1076.41 26.223C1076.61 24.8077 1074.46 23.5679 1072.92 23.4456C1070.89 23.285 1069.16 24.4022 1069.06 25.8271Z" fill="#FCA11D"/>
<path d="M1064.75 31.1996C1064.32 32.2861 1065.21 33.6553 1066.75 34.2582C1068.29 34.8606 1070.01 34.1265 1070.32 33.3819C1070.76 32.3016 1069.35 30.6478 1068.31 30.3238C1066.73 29.8294 1065.18 30.1132 1064.75 31.1996Z" fill="#FCA11D"/>
<path d="M207.034 155.173C207.089 156.587 208.795 157.699 210.841 157.543C212.398 157.424 214.607 156.197 214.45 154.791C214.364 154.023 212.691 152.316 210.643 152.421C208.596 152.526 206.98 153.758 207.034 155.173Z" fill="#FCA11D"/>
<path d="M206.436 150.705C207.489 150.385 208.97 148.745 208.557 147.672C208.272 146.932 206.565 146.201 204.996 146.796C203.427 147.392 202.477 148.75 202.875 149.829C203.272 150.909 204.831 151.193 206.436 150.705Z" fill="#FCA11D"/>
<path d="M195.5 163.545C197.41 163.837 198.184 162.922 198.985 162.095C199.735 161.323 200.732 160.856 201.797 160.745C203.683 160.55 205.171 159.17 205.584 157.369C205.997 155.568 205.253 153.704 203.631 152.748C202.715 152.207 202.016 151.373 201.676 150.363C201.311 149.284 201.01 148.135 199.153 147.61C196.861 146.962 194.502 148.588 193.966 150.924C193.815 151.583 193.823 152.238 193.963 152.852C194.114 153.516 194.116 154.199 193.971 154.849C193.818 155.497 193.519 156.115 193.091 156.653C192.696 157.151 192.403 157.741 192.253 158.399C191.717 160.735 193.142 163.183 195.5 163.545Z" fill="#FCA11D"/>
<path d="M205.936 159.997C205.274 161.257 206.206 163.037 208.018 163.971C209.83 164.905 212.086 164.042 212.497 163.38C213.248 162.17 211.776 160.152 210.415 159.406C208.627 158.426 206.598 158.736 205.936 159.997Z" fill="#FCA11D"/>
<path d="M199.85 163.137C199.022 163.953 199.295 165.573 200.46 166.757C201.626 167.94 203.491 167.975 204.069 167.421C204.909 166.617 204.275 164.523 203.459 163.801C202.214 162.701 200.677 162.321 199.85 163.137Z" fill="#FCA11D"/>
<path d="M242.385 133.094C242.44 134.509 244.146 135.621 246.191 135.465C247.749 135.346 249.958 134.119 249.801 132.713C249.715 131.945 248.042 130.238 245.994 130.343C243.947 130.448 242.331 131.68 242.385 133.094Z" fill="#FCA11D"/>
<path d="M241.788 128.627C242.84 128.307 244.322 126.667 243.909 125.594C243.624 124.854 241.917 124.122 240.348 124.718C238.778 125.314 237.829 126.672 238.226 127.751C238.624 128.83 240.183 129.114 241.788 128.627Z" fill="#FCA11D"/>
<path d="M230.852 141.47C232.762 141.763 233.536 140.847 234.337 140.021C235.087 139.248 236.084 138.781 237.149 138.671C239.035 138.476 240.523 137.096 240.936 135.295C241.348 133.494 240.605 131.63 238.983 130.673C238.067 130.133 237.368 129.298 237.027 128.289C236.663 127.21 236.362 126.06 234.505 125.536C232.213 124.888 229.854 126.514 229.318 128.85C229.167 129.508 229.174 130.164 229.315 130.777C229.466 131.442 229.468 132.125 229.323 132.775C229.17 133.423 228.87 134.041 228.443 134.579C228.048 135.077 227.755 135.667 227.604 136.325C227.069 138.661 228.494 141.109 230.852 141.47Z" fill="#FCA11D"/>
<path d="M241.288 137.921C240.626 139.181 241.558 140.961 243.37 141.895C245.181 142.829 247.438 141.966 247.849 141.304C248.6 140.094 247.128 138.076 245.766 137.33C243.979 136.35 241.95 136.66 241.288 137.921Z" fill="#FCA11D"/>
<path d="M235.201 141.06C234.374 141.876 234.647 143.497 235.812 144.68C236.978 145.863 238.843 145.899 239.421 145.345C240.261 144.541 239.627 142.447 238.81 141.725C237.566 140.625 236.029 140.244 235.201 141.06Z" fill="#FCA11D"/>
<path d="M263.206 174.032C263.261 175.446 264.967 176.559 267.012 176.403C268.57 176.284 270.779 175.056 270.622 173.651C270.536 172.882 268.863 171.175 266.815 171.28C264.768 171.386 263.152 172.617 263.206 174.032Z" fill="#FCA11D"/>
<path d="M262.609 169.56C263.662 169.24 265.143 167.601 264.73 166.527C264.445 165.788 262.738 165.056 261.169 165.652C259.6 166.248 258.65 167.605 259.047 168.685C259.445 169.764 261.004 170.048 262.609 169.56Z" fill="#FCA11D"/>
<path d="M251.673 182.404C253.583 182.697 254.357 181.781 255.158 180.955C255.908 180.182 256.905 179.715 257.97 179.605C259.856 179.41 261.344 178.03 261.757 176.229C262.17 174.428 261.426 172.564 259.804 171.607C258.888 171.067 258.189 170.232 257.848 169.222C257.484 168.143 257.183 166.994 255.326 166.469C253.034 165.822 250.675 167.448 250.139 169.784C249.988 170.442 249.995 171.097 250.136 171.711C250.287 172.375 250.289 173.058 250.144 173.708C249.991 174.357 249.692 174.974 249.264 175.513C248.869 176.01 248.576 176.601 248.425 177.259C247.89 179.595 249.315 182.042 251.673 182.404Z" fill="#FCA11D"/>
<path d="M262.109 178.854C261.447 180.115 262.379 181.894 264.191 182.828C266.002 183.763 268.259 182.899 268.67 182.238C269.421 181.027 267.949 179.009 266.587 178.263C264.8 177.284 262.771 177.593 262.109 178.854Z" fill="#FCA11D"/>
<path d="M256.022 181.996C255.194 182.812 255.468 184.433 256.633 185.616C257.798 186.799 259.663 186.835 260.242 186.28C261.082 185.476 260.447 183.382 259.631 182.661C258.387 181.561 256.85 181.18 256.022 181.996Z" fill="#FCA11D"/>
<path d="M308.098 156.204C308.153 157.618 309.859 158.731 311.904 158.575C313.462 158.456 315.671 157.228 315.514 155.823C315.427 155.054 313.755 153.347 311.707 153.452C309.66 153.557 308.044 154.789 308.098 156.204Z" fill="#FCA11D"/>
<path d="M307.5 151.736C308.552 151.416 310.034 149.776 309.621 148.703C309.336 147.964 307.629 147.232 306.059 147.828C304.49 148.423 303.541 149.781 303.938 150.86C304.336 151.94 305.895 152.224 307.5 151.736Z" fill="#FCA11D"/>
<path d="M296.564 164.576C298.474 164.869 299.248 163.953 300.049 163.127C300.799 162.354 301.796 161.887 302.861 161.777C304.747 161.581 306.235 160.201 306.647 158.401C307.06 156.6 306.317 154.736 304.695 153.779C303.779 153.239 303.08 152.404 302.739 151.394C302.375 150.315 302.074 149.166 300.217 148.641C297.925 147.993 295.566 149.619 295.03 151.956C294.879 152.614 294.886 153.269 295.027 153.883C295.178 154.547 295.18 155.23 295.035 155.88C294.882 156.529 294.582 157.146 294.155 157.685C293.76 158.182 293.467 158.772 293.316 159.431C292.781 161.767 294.206 164.214 296.564 164.576Z" fill="#FCA11D"/>
<path d="M307 161.026C306.338 162.287 307.27 164.066 309.082 165C310.893 165.935 313.15 165.071 313.561 164.409C314.312 163.199 312.84 161.181 311.478 160.435C309.691 159.456 307.662 159.765 307 161.026Z" fill="#FCA11D"/>
<path d="M300.914 164.168C300.086 164.984 300.36 166.604 301.525 167.788C302.69 168.971 304.556 169.007 305.134 168.452C305.974 167.648 305.34 165.554 304.523 164.833C303.279 163.732 301.742 163.352 300.914 164.168Z" fill="#FCA11D"/>
<path d="M308.749 199.784C308.803 201.198 310.51 202.311 312.555 202.155C314.113 202.036 316.322 200.808 316.164 199.403C316.078 198.634 314.406 196.927 312.358 197.032C310.31 197.137 308.695 198.369 308.749 199.784Z" fill="#FCA11D"/>
<path d="M308.15 195.314C309.203 194.994 310.685 193.355 310.272 192.281C309.987 191.542 308.28 190.81 306.71 191.406C305.141 192.001 304.192 193.359 304.589 194.439C304.987 195.518 306.546 195.802 308.15 195.314Z" fill="#FCA11D"/>
<path d="M297.214 208.156C299.124 208.449 299.899 207.533 300.7 206.707C301.449 205.934 302.446 205.467 303.512 205.357C305.398 205.161 306.885 203.782 307.298 201.981C307.711 200.18 306.967 198.316 305.345 197.359C304.429 196.819 303.73 195.984 303.39 194.974C303.025 193.895 302.724 192.746 300.868 192.221C298.576 191.573 296.216 193.2 295.681 195.536C295.53 196.194 295.537 196.849 295.677 197.463C295.829 198.127 295.83 198.81 295.685 199.46C295.533 200.109 295.233 200.726 294.805 201.265C294.411 201.762 294.118 202.353 293.967 203.011C293.431 205.347 294.857 207.794 297.214 208.156Z" fill="#FCA11D"/>
<path d="M307.65 204.606C306.988 205.867 307.92 207.646 309.732 208.58C311.544 209.515 313.8 208.651 314.211 207.99C314.962 206.779 313.49 204.761 312.129 204.015C310.341 203.036 308.312 203.345 307.65 204.606Z" fill="#FCA11D"/>
<path d="M301.565 207.744C300.737 208.56 301.01 210.181 302.176 211.364C303.341 212.547 305.206 212.583 305.785 212.029C306.624 211.224 305.99 209.13 305.174 208.409C303.93 207.309 302.393 206.928 301.565 207.744Z" fill="#FCA11D"/>
<path d="M561.042 230.948C561.87 232.088 563.897 232.036 565.504 230.742C566.728 229.757 567.877 227.483 566.969 226.409C566.473 225.822 564.145 225.362 562.508 226.615C560.871 227.868 560.215 229.808 561.042 230.948Z" fill="#FCA11D"/>
<path d="M558.077 227.591C558.771 226.727 559.091 224.526 558.155 223.873C557.511 223.423 555.693 223.79 554.723 225.176C553.754 226.563 553.719 228.228 554.645 228.895C555.571 229.562 557.018 228.909 558.077 227.591Z" fill="#FCA11D"/>
<path d="M556.125 244.448C557.868 243.603 558.003 242.404 558.209 241.264C558.402 240.197 558.969 239.243 559.789 238.545C561.242 237.309 561.71 235.32 561.056 233.594C560.402 231.868 558.755 230.749 556.884 230.881C555.827 230.956 554.787 230.663 553.947 230.021C553.048 229.336 552.164 228.556 550.337 229.179C548.081 229.948 547.028 232.638 547.877 234.877C548.116 235.507 548.484 236.046 548.939 236.474C549.432 236.937 549.811 237.501 550.051 238.122C550.283 238.746 550.377 239.428 550.32 240.117C550.269 240.753 550.353 241.409 550.592 242.039C551.441 244.278 553.974 245.492 556.125 244.448Z" fill="#FCA11D"/>
<path d="M562.801 235.564C562.951 236.984 564.706 237.926 566.723 237.668C568.739 237.409 570.129 235.409 570.103 234.628C570.055 233.198 567.721 232.366 566.182 232.524C564.16 232.732 562.652 234.144 562.801 235.564Z" fill="#FCA11D"/>
<path d="M559.5 241.631C559.266 242.778 560.388 243.964 562.007 244.28C563.626 244.595 565.19 243.562 565.362 242.774C565.612 241.63 563.929 240.258 562.855 240.126C561.216 239.924 559.734 240.484 559.5 241.631Z" fill="#FCA11D"/>
<path d="M611.788 188.694C612.615 189.834 614.643 189.782 616.249 188.489C617.473 187.503 618.622 185.229 617.715 184.155C617.218 183.568 614.89 183.108 613.253 184.361C611.617 185.615 610.96 187.554 611.788 188.694Z" fill="#FCA11D"/>
<path d="M608.822 185.337C609.516 184.473 609.836 182.272 608.9 181.619C608.256 181.169 606.438 181.536 605.468 182.923C604.499 184.309 604.464 185.974 605.39 186.641C606.316 187.308 607.763 186.655 608.822 185.337Z" fill="#FCA11D"/>
<path d="M606.871 202.194C608.614 201.349 608.748 200.15 608.954 199.01C609.147 197.943 609.714 196.989 610.535 196.291C611.988 195.055 612.456 193.066 611.802 191.34C611.148 189.615 609.501 188.495 607.629 188.627C606.573 188.702 605.533 188.409 604.692 187.767C603.794 187.082 602.909 186.302 601.082 186.925C598.827 187.694 597.773 190.384 598.622 192.623C598.861 193.253 599.23 193.792 599.685 194.22C600.178 194.683 600.557 195.248 600.796 195.868C601.029 196.492 601.122 197.174 601.066 197.863C601.014 198.499 601.099 199.155 601.338 199.785C602.186 202.024 604.72 203.238 606.871 202.194Z" fill="#FCA11D"/>
<path d="M613.547 193.314C613.696 194.734 615.452 195.676 617.468 195.418C619.484 195.159 620.874 193.159 620.848 192.378C620.801 190.948 618.466 190.116 616.927 190.274C614.906 190.482 613.398 191.894 613.547 193.314Z" fill="#FCA11D"/>
<path d="M610.245 199.377C610.011 200.524 611.134 201.71 612.752 202.026C614.371 202.341 615.935 201.308 616.107 200.52C616.357 199.376 614.674 198.004 613.6 197.872C611.961 197.67 610.479 198.23 610.245 199.377Z" fill="#FCA11D"/>
<path d="M606.583 230.288C607.41 231.428 609.438 231.376 611.044 230.082C612.268 229.097 613.417 226.823 612.51 225.749C612.014 225.162 609.685 224.702 608.049 225.955C606.412 227.208 605.756 229.148 606.583 230.288Z" fill="#FCA11D"/>
<path d="M603.615 226.929C604.31 226.065 604.629 223.864 603.694 223.211C603.049 222.761 601.231 223.127 600.262 224.514C599.293 225.901 599.257 227.566 600.183 228.233C601.109 228.9 602.557 228.247 603.615 226.929Z" fill="#FCA11D"/>
<path d="M601.666 243.784C603.409 242.939 603.544 241.74 603.75 240.6C603.943 239.533 604.51 238.579 605.33 237.881C606.783 236.645 607.251 234.656 606.597 232.93C605.943 231.204 604.296 230.085 602.425 230.217C601.368 230.292 600.328 229.999 599.488 229.357C598.589 228.671 597.705 227.892 595.878 228.515C593.623 229.284 592.569 231.974 593.418 234.213C593.657 234.843 594.025 235.382 594.48 235.81C594.973 236.273 595.352 236.837 595.592 237.458C595.824 238.082 595.918 238.763 595.861 239.453C595.81 240.089 595.894 240.745 596.133 241.375C596.982 243.614 599.515 244.828 601.666 243.784Z" fill="#FCA11D"/>
<path d="M608.342 234.904C608.492 236.324 610.247 237.266 612.264 237.007C614.28 236.749 615.67 234.749 615.644 233.967C615.596 232.538 613.262 231.706 611.723 231.864C609.701 232.071 608.193 233.483 608.342 234.904Z" fill="#FCA11D"/>
<path d="M605.04 240.971C604.806 242.118 605.929 243.304 607.548 243.619C609.167 243.935 610.73 242.902 610.903 242.114C611.153 240.97 609.47 239.598 608.395 239.466C606.757 239.264 605.274 239.824 605.04 240.971Z" fill="#FCA11D"/>
<path d="M672.296 198.597C673.123 199.736 675.151 199.685 676.757 198.391C677.981 197.405 679.13 195.131 678.223 194.058C677.727 193.471 675.398 193.01 673.761 194.264C672.125 195.517 671.469 197.457 672.296 198.597Z" fill="#FCA11D"/>
<path d="M669.328 195.238C670.022 194.373 670.342 192.172 669.407 191.519C668.762 191.069 666.944 191.436 665.975 192.823C665.006 194.21 664.97 195.874 665.896 196.541C666.822 197.208 668.27 196.556 669.328 195.238Z" fill="#FCA11D"/>
<path d="M667.379 212.093C669.122 211.247 669.256 210.048 669.462 208.908C669.655 207.842 670.222 206.887 671.043 206.189C672.496 204.954 672.964 202.964 672.31 201.239C671.655 199.513 670.009 198.394 668.137 198.526C667.08 198.6 666.04 198.307 665.2 197.666C664.302 196.98 663.417 196.2 661.59 196.823C659.335 197.593 658.281 200.282 659.13 202.521C659.369 203.152 659.738 203.69 660.193 204.118C660.686 204.582 661.065 205.146 661.304 205.767C661.537 206.39 661.63 207.072 661.574 207.761C661.522 208.398 661.606 209.053 661.846 209.684C662.694 211.922 665.228 213.136 667.379 212.093Z" fill="#FCA11D"/>
<path d="M674.055 203.216C674.205 204.637 675.96 205.579 677.977 205.32C679.993 205.062 681.383 203.062 681.357 202.28C681.309 200.851 678.975 200.019 677.435 200.177C675.414 200.384 673.906 201.796 674.055 203.216Z" fill="#FCA11D"/>
<path d="M670.753 209.28C670.519 210.427 671.642 211.612 673.261 211.928C674.879 212.243 676.443 211.211 676.615 210.422C676.865 209.279 675.183 207.907 674.108 207.775C672.47 207.573 670.987 208.133 670.753 209.28Z" fill="#FCA11D"/>
<path d="M518.105 223.024C518.932 224.164 520.96 224.113 522.566 222.819C523.79 221.833 524.939 219.559 524.032 218.485C523.536 217.899 521.207 217.438 519.57 218.691C517.934 219.945 517.278 221.884 518.105 223.024Z" fill="#FCA11D"/>
<path d="M515.137 219.664C515.832 218.799 516.151 216.598 515.216 215.945C514.571 215.495 512.753 215.862 511.784 217.249C510.815 218.636 510.779 220.3 511.705 220.967C512.631 221.634 514.079 220.981 515.137 219.664Z" fill="#FCA11D"/>
<path d="M513.188 236.522C514.931 235.677 515.065 234.478 515.272 233.338C515.465 232.271 516.032 231.317 516.852 230.619C518.305 229.383 518.773 227.394 518.119 225.668C517.465 223.943 515.818 222.823 513.947 222.955C512.89 223.03 511.85 222.737 511.01 222.095C510.111 221.41 509.227 220.63 507.4 221.253C505.144 222.022 504.091 224.712 504.94 226.951C505.179 227.581 505.547 228.12 506.002 228.548C506.495 229.011 506.874 229.576 507.114 230.196C507.346 230.82 507.44 231.502 507.383 232.191C507.332 232.827 507.416 233.483 507.655 234.114C508.504 236.352 511.037 237.566 513.188 236.522Z" fill="#FCA11D"/>
<path d="M519.862 227.642C520.012 229.062 521.767 230.004 523.784 229.746C525.8 229.487 527.19 227.488 527.164 226.706C527.116 225.276 524.782 224.444 523.243 224.602C521.221 224.81 519.713 226.222 519.862 227.642Z" fill="#FCA11D"/>
<path d="M516.562 233.707C516.328 234.854 517.451 236.04 519.07 236.356C520.689 236.671 522.252 235.638 522.424 234.85C522.675 233.706 520.992 232.335 519.917 232.202C518.279 232 516.796 232.56 516.562 233.707Z" fill="#FCA11D"/>
<path d="M67.7425 192.61C68.9251 193.36 70.7918 192.555 71.8162 190.752C72.5964 189.379 72.8404 186.835 71.6071 186.176C70.9328 185.815 68.6008 186.257 67.5336 188.034C66.4665 189.81 66.56 191.859 67.7425 192.61Z" fill="#FCA11D"/>
<path d="M63.766 190.591C64.098 189.528 63.597 187.362 62.4902 187.105C61.7277 186.927 60.1706 187.947 59.7721 189.599C59.374 191.25 59.9451 192.811 61.0479 193.085C62.1507 193.36 63.2597 192.212 63.766 190.591Z" fill="#FCA11D"/>
<path d="M68.0673 206.994C69.3812 205.557 69.0712 204.392 68.8494 203.255C68.642 202.192 68.8231 201.092 69.3331 200.137C70.2359 198.445 69.9495 196.421 68.7153 195.061C67.4811 193.7 65.5442 193.275 63.8519 194.097C62.8962 194.561 61.8229 194.677 60.8091 194.394C59.7249 194.092 58.6196 193.698 57.1468 194.959C55.3291 196.517 55.325 199.411 56.9261 201.176C57.3773 201.673 57.9151 202.036 58.4936 202.264C59.1198 202.511 59.6772 202.894 60.1247 203.381C60.5669 203.874 60.9013 204.473 61.099 205.135C61.2818 205.746 61.5978 206.324 62.0489 206.821C63.6497 208.586 66.4457 208.768 68.0673 206.994Z" fill="#FCA11D"/>
<path d="M71.0529 196.245C71.707 197.509 73.6808 197.729 75.4619 196.736C77.2427 195.742 77.8098 193.364 77.5021 192.647C76.9394 191.335 74.4672 191.434 73.0933 192.156C71.2892 193.103 70.3988 194.98 71.0529 196.245Z" fill="#FCA11D"/>
<path d="M70.1828 203.116C70.3813 204.27 71.855 204.953 73.4747 204.642C75.0943 204.33 76.1735 202.786 76.0479 201.989C75.8655 200.832 73.8033 200.185 72.7561 200.463C71.1596 200.887 69.9843 201.962 70.1828 203.116Z" fill="#FCA11D"/>
<path d="M135.716 192.09C136.898 192.841 138.765 192.036 139.789 190.232C140.57 188.859 140.814 186.315 139.58 185.656C138.906 185.296 136.574 185.737 135.507 187.514C134.44 189.291 134.533 191.339 135.716 192.09Z" fill="#FCA11D"/>
<path d="M131.739 190.076C132.071 189.013 131.57 186.847 130.464 186.589C129.701 186.412 128.144 187.431 127.746 189.083C127.347 190.735 127.918 192.296 129.021 192.57C130.124 192.844 131.233 191.696 131.739 190.076Z" fill="#FCA11D"/>
<path d="M136.04 206.479C137.354 205.042 137.044 203.877 136.823 202.74C136.615 201.676 136.796 200.577 137.306 199.621C138.209 197.93 137.923 195.905 136.688 194.545C135.454 193.185 133.517 192.759 131.825 193.581C130.869 194.045 129.796 194.161 128.782 193.878C127.698 193.576 126.593 193.182 125.12 194.444C123.302 196.001 123.298 198.896 124.899 200.66C125.35 201.157 125.888 201.52 126.467 201.748C127.093 201.995 127.65 202.378 128.098 202.866C128.54 203.359 128.874 203.958 129.072 204.62C129.255 205.231 129.571 205.809 130.022 206.306C131.623 208.07 134.419 208.253 136.04 206.479Z" fill="#FCA11D"/>
<path d="M139.025 195.727C139.679 196.992 141.653 197.212 143.434 196.218C145.215 195.225 145.782 192.846 145.474 192.129C144.912 190.818 142.439 190.916 141.065 191.638C139.261 192.586 138.371 194.462 139.025 195.727Z" fill="#FCA11D"/>
<path d="M138.156 202.6C138.354 203.754 139.828 204.437 141.448 204.126C143.067 203.815 144.147 202.27 144.021 201.473C143.839 200.316 141.776 199.669 140.729 199.948C139.133 200.372 137.957 201.446 138.156 202.6Z" fill="#FCA11D"/>
<path d="M478.421 58.6278C479.248 59.7674 481.276 59.7161 482.882 58.4222C484.106 57.4366 485.255 55.1627 484.348 54.0889C483.851 53.502 481.523 53.0415 479.886 54.2949C478.25 55.5481 477.593 57.488 478.421 58.6278Z" fill="#FCA11D"/>
<path d="M475.455 55.269C476.149 54.4044 476.469 52.2036 475.533 51.5507C474.888 51.1006 473.071 51.4673 472.101 52.8542C471.132 54.241 471.097 55.9057 472.023 56.5726C472.949 57.2394 474.396 56.5868 475.455 55.269Z" fill="#FCA11D"/>
<path d="M473.505 72.124C475.248 71.2784 475.383 70.0795 475.589 68.9394C475.782 67.873 476.349 66.9186 477.169 66.2207C478.622 64.9849 479.091 62.9956 478.436 61.2699C477.782 59.5442 476.136 58.425 474.264 58.557C473.207 58.6314 472.167 58.3385 471.327 57.697C470.428 57.0113 469.544 56.2316 467.717 56.8547C465.462 57.624 464.408 60.3137 465.257 62.5524C465.496 63.183 465.864 63.7214 466.32 64.1494C466.812 64.6128 467.192 65.1772 467.431 65.7978C467.663 66.4214 467.757 67.1033 467.701 67.7925C467.649 68.4289 467.733 69.0844 467.972 69.7151C468.821 71.9536 471.354 73.1676 473.505 72.124Z" fill="#FCA11D"/>
<path d="M480.179 63.2438C480.329 64.664 482.084 65.6059 484.101 65.3472C486.117 65.0889 487.507 63.0891 487.481 62.3073C487.433 60.8779 485.099 60.046 483.56 60.204C481.539 60.4113 480.03 61.8232 480.179 63.2438Z" fill="#FCA11D"/>
<path d="M476.88 69.309C476.646 70.4559 477.768 71.6415 479.387 71.9573C481.006 72.2726 482.569 71.24 482.742 70.4517C482.992 69.308 481.309 67.9361 480.234 67.8038C478.596 67.6018 477.114 68.1621 476.88 69.309Z" fill="#FCA11D"/>
<path d="M23.6518 230.946C24.4792 232.086 26.5068 232.034 28.1133 230.741C29.3369 229.755 30.4863 227.481 29.5788 226.407C29.0825 225.82 26.7541 225.36 25.1174 226.613C23.4808 227.866 22.8247 229.806 23.6518 230.946Z" fill="#FCA11D"/>
<path d="M20.6848 227.587C21.3791 226.723 21.6988 224.522 20.7632 223.869C20.1187 223.419 18.301 223.786 17.3314 225.173C16.3622 226.559 16.327 228.224 17.253 228.891C18.179 229.558 19.6263 228.905 20.6848 227.587Z" fill="#FCA11D"/>
<path d="M18.7359 244.446C20.4787 243.601 20.6131 242.402 20.8193 241.262C21.0121 240.195 21.5792 239.241 22.3999 238.543C23.853 237.307 24.321 235.318 23.6668 233.592C23.0126 231.866 21.366 230.747 19.4945 230.879C18.4376 230.954 17.3975 230.661 16.5574 230.019C15.6588 229.334 14.7742 228.554 12.9471 229.177C10.6921 229.946 9.63849 232.636 10.4872 234.875C10.7264 235.505 11.0948 236.044 11.5501 236.472C12.0428 236.935 12.422 237.499 12.6613 238.12C12.8937 238.744 12.9872 239.426 12.931 240.115C12.8794 240.751 12.9635 241.407 13.2027 242.037C14.0511 244.276 16.5847 245.49 18.7359 244.446Z" fill="#FCA11D"/>
<path d="M25.4109 235.566C25.5605 236.986 27.3158 237.928 29.3323 237.67C31.3483 237.411 32.7383 235.411 32.7124 234.63C32.6648 233.2 30.3305 232.368 28.7911 232.526C26.77 232.734 25.2616 234.146 25.4109 235.566Z" fill="#FCA11D"/>
<path d="M22.1099 241.629C21.876 242.776 22.9985 243.962 24.6173 244.278C26.2362 244.593 27.7997 243.56 27.9721 242.772C28.2221 241.628 26.5393 240.256 25.4647 240.124C23.8264 239.922 22.3438 240.482 22.1099 241.629Z" fill="#FCA11D"/>
<path d="M18.4482 272.546C19.2756 273.685 21.3032 273.634 22.9097 272.34C24.1333 271.355 25.2827 269.081 24.3752 268.007C23.8789 267.42 21.5505 266.959 19.9138 268.213C18.2772 269.466 17.6211 271.406 18.4482 272.546Z" fill="#FCA11D"/>
<path d="M15.4812 269.187C16.1755 268.322 16.4952 266.122 15.5596 265.469C14.915 265.019 13.0973 265.385 12.1278 266.772C11.1586 268.159 11.1234 269.824 12.0494 270.491C12.9754 271.157 14.4226 270.505 15.4812 269.187Z" fill="#FCA11D"/>
<path d="M13.531 286.042C15.2739 285.196 15.4083 283.997 15.6144 282.857C15.8073 281.791 16.3744 280.837 17.1951 280.139C18.6481 278.903 19.1161 276.914 18.4619 275.188C17.8078 273.462 16.1612 272.343 14.2896 272.475C13.2328 272.549 12.1927 272.256 11.3526 271.615C10.4539 270.929 9.56935 270.15 7.74231 270.773C5.48725 271.542 4.43365 274.232 5.28235 276.47C5.52154 277.101 5.88994 277.639 6.34523 278.067C6.83796 278.531 7.21719 279.095 7.45645 279.716C7.68884 280.339 7.78241 281.021 7.72618 281.71C7.67456 282.347 7.75871 283.002 7.99791 283.633C8.8463 285.872 11.3798 287.086 13.531 286.042Z" fill="#FCA11D"/>
<path d="M20.2061 277.16C20.3556 278.58 22.1109 279.522 24.1275 279.263C26.1435 279.005 27.5335 277.005 27.5075 276.223C27.46 274.794 25.1256 273.962 23.5863 274.12C21.5652 274.327 20.0568 275.739 20.2061 277.16Z" fill="#FCA11D"/>
<path d="M16.9053 283.225C16.6714 284.372 17.7939 285.558 19.4127 285.873C21.0316 286.189 22.5951 285.156 22.7675 284.368C23.0175 283.224 21.3347 281.852 20.2601 281.72C18.6218 281.518 17.1392 282.078 16.9053 283.225Z" fill="#FCA11D"/>
<path d="M84.158 240.852C84.9853 241.992 87.013 241.941 88.6194 240.647C89.843 239.661 90.9924 237.387 90.0849 236.314C89.5886 235.727 87.2602 235.266 85.6235 236.519C83.9869 237.773 83.3308 239.713 84.158 240.852Z" fill="#FCA11D"/>
<path d="M81.1919 237.494C81.8862 236.629 82.2059 234.428 81.2703 233.775C80.6257 233.325 78.808 233.692 77.8385 235.079C76.8693 236.466 76.8341 238.13 77.7601 238.797C78.6861 239.464 80.1333 238.811 81.1919 237.494Z" fill="#FCA11D"/>
<path d="M79.242 254.353C80.9849 253.507 81.1192 252.308 81.3254 251.168C81.5182 250.102 82.0854 249.147 82.906 248.449C84.3591 247.213 84.8271 245.224 84.1729 243.498C83.5187 241.773 81.8721 240.653 80.0006 240.786C78.9437 240.86 77.9036 240.567 77.0635 239.925C76.1649 239.24 75.2803 238.46 73.4533 239.083C71.1982 239.853 70.1446 242.542 70.9933 244.781C71.2325 245.412 71.6009 245.95 72.0562 246.378C72.5489 246.841 72.9281 247.406 73.1674 248.026C73.3998 248.65 73.4933 249.332 73.4371 250.021C73.3855 250.657 73.4696 251.313 73.7088 251.944C74.5572 254.182 77.0908 255.396 79.242 254.353Z" fill="#FCA11D"/>
<path d="M85.917 245.472C86.0666 246.893 87.8219 247.834 89.8384 247.576C91.8545 247.317 93.2444 245.318 93.2185 244.536C93.1709 243.106 90.8366 242.274 89.2973 242.433C87.2761 242.64 85.7677 244.052 85.917 245.472Z" fill="#FCA11D"/>
<path d="M82.616 251.536C82.3821 252.682 83.5046 253.868 85.1234 254.184C86.7423 254.499 88.3058 253.467 88.4782 252.678C88.7282 251.535 87.0454 250.163 85.9708 250.03C84.3325 249.828 82.8499 250.389 82.616 251.536Z" fill="#FCA11D"/>
<path d="M508.344 277.825C509.171 278.965 511.199 278.913 512.805 277.619C514.029 276.634 515.178 274.36 514.271 273.286C513.774 272.699 511.446 272.239 509.809 273.492C508.173 274.745 507.517 276.685 508.344 277.825Z" fill="#FCA11D"/>
<path d="M505.376 274.468C506.07 273.604 506.39 271.403 505.454 270.75C504.81 270.3 502.992 270.666 502.022 272.053C501.053 273.44 501.018 275.105 501.944 275.772C502.87 276.439 504.317 275.786 505.376 274.468Z" fill="#FCA11D"/>
<path d="M503.427 291.325C505.17 290.48 505.304 289.281 505.51 288.141C505.703 287.074 506.27 286.12 507.091 285.422C508.544 284.186 509.012 282.197 508.358 280.471C507.704 278.745 506.057 277.626 504.185 277.758C503.129 277.833 502.088 277.54 501.248 276.898C500.35 276.212 499.465 275.433 497.638 276.056C495.383 276.825 494.329 279.515 495.178 281.754C495.417 282.384 495.786 282.923 496.241 283.351C496.734 283.814 497.113 284.378 497.352 284.999C497.585 285.623 497.678 286.304 497.622 286.994C497.57 287.63 497.654 288.286 497.894 288.916C498.742 291.155 501.276 292.369 503.427 291.325Z" fill="#FCA11D"/>
<path d="M510.103 282.445C510.252 283.865 512.007 284.807 514.024 284.548C516.04 284.29 517.43 282.29 517.404 281.509C517.356 280.079 515.022 279.247 513.483 279.405C511.462 279.613 509.953 281.024 510.103 282.445Z" fill="#FCA11D"/>
<path d="M506.801 288.508C506.567 289.655 507.69 290.841 509.308 291.157C510.927 291.472 512.491 290.439 512.663 289.651C512.913 288.507 511.23 287.135 510.156 287.003C508.518 286.801 507.035 287.361 506.801 288.508Z" fill="#FCA11D"/>
<path d="M1279.89 51.0892C1279.88 52.5047 1281.54 53.6895 1283.59 53.6217C1285.15 53.57 1287.41 52.4388 1287.31 51.0276C1287.26 50.2562 1285.66 48.4785 1283.61 48.4955C1281.56 48.5124 1279.89 49.6736 1279.89 51.0892Z" fill="#FCA11D"/>
<path d="M1279.48 46.6008C1280.54 46.3262 1282.09 44.752 1281.72 43.6619C1281.47 42.9108 1279.8 42.1061 1278.2 42.6338C1276.61 43.1615 1275.6 44.4772 1275.96 45.5727C1276.31 46.6682 1277.85 47.0191 1279.48 46.6008Z" fill="#FCA11D"/>
<path d="M1268.01 58.9578C1269.91 59.3325 1270.72 58.4509 1271.56 57.6599C1272.34 56.9201 1273.35 56.4965 1274.42 56.4322C1276.32 56.3183 1277.86 55.0036 1278.35 53.2221C1278.84 51.4406 1278.17 49.5461 1276.59 48.5206C1275.7 47.9413 1275.03 47.0771 1274.74 46.0539C1274.42 44.9599 1274.16 43.7989 1272.33 43.1946C1270.07 42.4489 1267.64 43.972 1267.01 46.2831C1266.83 46.9342 1266.81 47.5894 1266.93 48.2083C1267.05 48.8785 1267.02 49.5611 1266.85 50.2042C1266.67 50.8454 1266.35 51.4497 1265.9 51.9692C1265.48 52.4491 1265.16 53.0264 1264.99 53.6776C1264.35 55.9883 1265.67 58.4952 1268.01 58.9578Z" fill="#FCA11D"/>
<path d="M1278.59 55.8636C1277.88 57.0946 1278.73 58.9124 1280.5 59.9239C1282.28 60.9355 1284.57 60.1698 1285 59.5263C1285.81 58.3495 1284.42 56.2699 1283.09 55.4661C1281.34 54.4106 1279.3 54.6324 1278.59 55.8636Z" fill="#FCA11D"/>
<path d="M1272.38 58.7402C1271.52 59.5199 1271.72 61.1508 1272.84 62.3832C1273.95 63.6153 1275.81 63.7314 1276.42 63.2025C1277.29 62.4352 1276.74 60.3158 1275.96 59.5598C1274.76 58.4071 1273.24 57.9605 1272.38 58.7402Z" fill="#FCA11D"/>
<path d="M1216.13 84.765C1216.12 86.1805 1217.78 87.3652 1219.83 87.2974C1221.39 87.2458 1223.65 86.1145 1223.55 84.7034C1223.5 83.932 1221.9 82.1542 1219.85 82.1712C1217.8 82.1882 1216.13 83.3494 1216.13 84.765Z" fill="#FCA11D"/>
<path d="M1215.72 80.2746C1216.78 80.0001 1218.33 78.4258 1217.97 77.3358C1217.71 76.5846 1216.04 75.78 1214.44 76.3076C1212.85 76.8354 1211.85 78.1511 1212.2 79.2465C1212.55 80.342 1214.1 80.6929 1215.72 80.2746Z" fill="#FCA11D"/>
<path d="M1204.26 92.6336C1206.15 93.0083 1206.96 92.1266 1207.8 91.3357C1208.58 90.5959 1209.6 90.1723 1210.66 90.108C1212.56 89.9941 1214.1 88.6794 1214.59 86.8979C1215.08 85.1164 1214.41 83.2219 1212.83 82.1963C1211.94 81.6171 1211.27 80.7529 1210.98 79.7297C1210.66 78.6357 1210.4 77.4746 1208.57 76.8704C1206.31 76.1247 1203.88 77.6478 1203.25 79.9589C1203.07 80.61 1203.05 81.2651 1203.17 81.8841C1203.29 82.5543 1203.26 83.2368 1203.09 83.8799C1202.91 84.5212 1202.59 85.1254 1202.14 85.645C1201.72 86.1249 1201.4 86.7022 1201.23 87.3533C1200.59 89.6641 1201.92 92.171 1204.26 92.6336Z" fill="#FCA11D"/>
<path d="M1214.83 89.5394C1214.12 90.7704 1214.97 92.5882 1216.75 93.5997C1218.52 94.6112 1220.81 93.8456 1221.24 93.2021C1222.05 92.0253 1220.66 89.9457 1219.33 89.1419C1217.59 88.0863 1215.55 88.3082 1214.83 89.5394Z" fill="#FCA11D"/>
<path d="M1208.62 92.4121C1207.76 93.1918 1207.96 94.8227 1209.08 96.0551C1210.19 97.2872 1212.06 97.4032 1212.66 96.8744C1213.53 96.1071 1212.98 93.9877 1212.2 93.2317C1211 92.0789 1209.48 91.6324 1208.62 92.4121Z" fill="#FCA11D"/>
<path d="M1348.2 146.826C1348.2 148.241 1349.85 149.426 1351.9 149.358C1353.47 149.306 1355.72 148.175 1355.63 146.764C1355.57 145.993 1353.97 144.215 1351.92 144.232C1349.87 144.249 1348.21 145.41 1348.2 146.826Z" fill="#FCA11D"/>
<path d="M1347.79 142.333C1348.86 142.059 1350.4 140.484 1350.04 139.394C1349.78 138.643 1348.11 137.839 1346.52 138.366C1344.92 138.894 1343.92 140.21 1344.27 141.305C1344.62 142.401 1346.17 142.751 1347.79 142.333Z" fill="#FCA11D"/>
<path d="M1336.33 154.692C1338.22 155.067 1339.04 154.185 1339.87 153.394C1340.65 152.654 1341.67 152.231 1342.74 152.167C1344.63 152.053 1346.17 150.738 1346.66 148.956C1347.15 147.175 1346.48 145.28 1344.9 144.255C1344.01 143.676 1343.35 142.812 1343.05 141.788C1342.73 140.694 1342.48 139.533 1340.64 138.929C1338.38 138.183 1335.96 139.706 1335.32 142.017C1335.14 142.669 1335.12 143.324 1335.24 143.943C1335.36 144.613 1335.34 145.295 1335.16 145.939C1334.98 146.58 1334.66 147.184 1334.21 147.704C1333.79 148.183 1333.48 148.761 1333.3 149.412C1332.67 151.723 1333.99 154.23 1336.33 154.692Z" fill="#FCA11D"/>
<path d="M1346.9 151.596C1346.19 152.827 1347.05 154.645 1348.82 155.656C1350.59 156.668 1352.88 155.902 1353.32 155.259C1354.12 154.082 1352.73 152.002 1351.4 151.199C1349.66 150.143 1347.62 150.365 1346.9 151.596Z" fill="#FCA11D"/>
<path d="M1340.69 154.473C1339.83 155.252 1340.04 156.883 1341.15 158.116C1342.27 159.348 1344.13 159.464 1344.73 158.935C1345.6 158.168 1345.05 156.048 1344.27 155.292C1343.07 154.139 1341.55 153.693 1340.69 154.473Z" fill="#FCA11D"/>
<path d="M1398.3 111.173C1398.29 112.589 1399.95 113.773 1402 113.706C1403.56 113.654 1405.82 112.523 1405.72 111.112C1405.67 110.34 1404.07 108.562 1402.02 108.579C1399.97 108.596 1398.3 109.758 1398.3 111.173Z" fill="#FCA11D"/>
<path d="M1397.89 106.685C1398.95 106.41 1400.5 104.836 1400.13 103.746C1399.88 102.995 1398.21 102.19 1396.61 102.718C1395.02 103.246 1394.01 104.561 1394.37 105.657C1394.72 106.752 1396.26 107.103 1397.89 106.685Z" fill="#FCA11D"/>
<path d="M1386.43 119.044C1388.32 119.418 1389.13 118.537 1389.97 117.746C1390.75 117.006 1391.76 116.582 1392.83 116.518C1394.73 116.404 1396.27 115.09 1396.76 113.308C1397.25 111.527 1396.58 109.632 1395 108.606C1394.11 108.027 1393.44 107.163 1393.15 106.14C1392.83 105.046 1392.57 103.885 1390.74 103.281C1388.48 102.535 1386.05 104.058 1385.42 106.369C1385.24 107.02 1385.22 107.675 1385.34 108.294C1385.46 108.964 1385.43 109.647 1385.26 110.29C1385.08 110.931 1384.76 111.536 1384.31 112.055C1383.89 112.535 1383.57 113.112 1383.4 113.763C1382.76 116.074 1384.08 118.581 1386.43 119.044Z" fill="#FCA11D"/>
<path d="M1397 115.948C1396.29 117.179 1397.14 118.996 1398.91 120.008C1400.69 121.019 1402.98 120.254 1403.41 119.61C1404.22 118.433 1402.83 116.354 1401.5 115.55C1399.76 114.495 1397.71 114.716 1397 115.948Z" fill="#FCA11D"/>
<path d="M1390.79 118.82C1389.93 119.6 1390.13 121.231 1391.25 122.463C1392.36 123.695 1394.22 123.811 1394.83 123.283C1395.7 122.515 1395.15 120.396 1394.37 119.64C1393.17 118.487 1391.65 118.041 1390.79 118.82Z" fill="#FCA11D"/>
<path d="M1416.06 163.687C1415.95 165.098 1417.51 166.411 1419.56 166.506C1421.12 166.578 1423.46 165.629 1423.47 164.215C1423.47 163.442 1422.02 161.542 1419.97 161.397C1417.93 161.251 1416.18 162.276 1416.06 163.687Z" fill="#FCA11D"/>
<path d="M1416 159.179C1417.08 158.99 1418.75 157.543 1418.46 156.427C1418.27 155.658 1416.66 154.723 1415.03 155.123C1413.4 155.523 1412.3 156.755 1412.57 157.875C1412.83 158.995 1414.35 159.467 1416 159.179Z" fill="#FCA11D"/>
<path d="M1403.62 170.592C1405.48 171.116 1406.36 170.301 1407.25 169.579C1408.09 168.903 1409.13 168.561 1410.2 168.582C1412.1 168.619 1413.74 167.43 1414.36 165.693C1414.99 163.956 1414.47 162.014 1412.97 160.866C1412.13 160.218 1411.53 159.304 1411.31 158.26C1411.08 157.144 1410.92 155.967 1409.14 155.219C1406.94 154.296 1404.4 155.622 1403.59 157.876C1403.37 158.511 1403.29 159.162 1403.36 159.789C1403.43 160.467 1403.35 161.145 1403.13 161.772C1402.9 162.397 1402.53 162.974 1402.04 163.456C1401.59 163.902 1401.23 164.452 1401.01 165.087C1400.2 167.341 1401.32 169.945 1403.62 170.592Z" fill="#FCA11D"/>
<path d="M1414.4 168.343C1413.59 169.513 1414.31 171.394 1416 172.542C1417.68 173.691 1420.03 173.11 1420.51 172.503C1421.4 171.393 1420.18 169.21 1418.92 168.303C1417.26 167.113 1415.21 167.172 1414.4 168.343Z" fill="#FCA11D"/>
<path d="M1407.99 170.717C1407.07 171.426 1407.15 173.068 1408.16 174.385C1409.18 175.702 1411.03 175.965 1411.67 175.485C1412.6 174.79 1412.22 172.633 1411.49 171.817C1410.39 170.573 1408.91 170.008 1407.99 170.717Z" fill="#FCA11D"/>
<path d="M1459.48 124.18C1459.8 125.557 1461.69 126.309 1463.66 125.751C1465.17 125.326 1467.1 123.684 1466.67 122.337C1466.44 121.6 1464.47 120.257 1462.49 120.767C1460.5 121.276 1459.15 122.804 1459.48 124.18Z" fill="#FCA11D"/>
<path d="M1458.03 119.916C1459 119.394 1460.14 117.492 1459.53 116.521C1459.1 115.852 1457.29 115.473 1455.86 116.368C1454.44 117.264 1453.77 118.784 1454.37 119.763C1454.97 120.743 1456.55 120.713 1458.03 119.916Z" fill="#FCA11D"/>
<path d="M1449.78 134.678C1451.71 134.586 1452.29 133.535 1452.92 132.566C1453.5 131.659 1454.39 131.004 1455.41 130.685C1457.23 130.119 1458.42 128.471 1458.48 126.623C1458.54 124.775 1457.45 123.094 1455.67 122.477C1454.67 122.129 1453.82 121.449 1453.3 120.526C1452.73 119.54 1452.21 118.473 1450.29 118.326C1447.92 118.145 1445.92 120.207 1445.84 122.605C1445.82 123.28 1445.95 123.922 1446.21 124.496C1446.49 125.117 1446.62 125.787 1446.6 126.453C1446.58 127.119 1446.4 127.784 1446.09 128.397C1445.8 128.963 1445.62 129.6 1445.6 130.276C1445.53 132.673 1447.39 134.791 1449.78 134.678Z" fill="#FCA11D"/>
<path d="M1459.33 129.13C1458.92 130.497 1460.18 132.057 1462.13 132.615C1464.09 133.172 1466.14 131.878 1466.41 131.147C1466.92 129.812 1465.09 128.124 1463.61 127.662C1461.66 127.056 1459.73 127.762 1459.33 129.13Z" fill="#FCA11D"/>
<path d="M1453.96 133.413C1453.31 134.377 1453.89 135.912 1455.26 136.842C1456.63 137.771 1458.47 137.437 1458.93 136.778C1459.59 135.823 1458.57 133.895 1457.63 133.349C1456.2 132.517 1454.62 132.448 1453.96 133.413Z" fill="#FCA11D"/>
<path d="M1486.15 156.534C1486.48 157.91 1488.36 158.663 1490.34 158.105C1491.84 157.679 1493.77 156.038 1493.35 154.69C1493.12 153.954 1491.15 152.611 1489.16 153.12C1487.17 153.629 1485.82 155.157 1486.15 156.534Z" fill="#FCA11D"/>
<path d="M1484.7 152.268C1485.67 151.745 1486.81 149.844 1486.2 148.873C1485.78 148.204 1483.96 147.825 1482.54 148.72C1481.11 149.615 1480.44 151.135 1481.04 152.115C1481.64 153.095 1483.22 153.064 1484.7 152.268Z" fill="#FCA11D"/>
<path d="M1476.45 167.031C1478.38 166.94 1478.96 165.888 1479.59 164.919C1480.18 164.013 1481.06 163.357 1482.09 163.038C1483.9 162.473 1485.09 160.825 1485.15 158.977C1485.21 157.128 1484.12 155.448 1482.35 154.831C1481.34 154.483 1480.5 153.802 1479.97 152.88C1479.4 151.894 1478.89 150.826 1476.97 150.679C1474.59 150.499 1472.59 152.561 1472.52 154.958C1472.5 155.634 1472.63 156.275 1472.88 156.849C1473.16 157.471 1473.29 158.14 1473.28 158.806C1473.25 159.472 1473.08 160.138 1472.76 160.75C1472.47 161.316 1472.3 161.954 1472.28 162.629C1472.2 165.026 1474.07 167.144 1476.45 167.031Z" fill="#FCA11D"/>
<path d="M1486 161.483C1485.6 162.851 1486.85 164.411 1488.81 164.968C1490.77 165.525 1492.81 164.231 1493.09 163.501C1493.59 162.165 1491.76 160.478 1490.28 160.016C1488.34 159.41 1486.41 160.115 1486 161.483Z" fill="#FCA11D"/>
<path d="M1480.64 165.766C1479.98 166.731 1480.56 168.266 1481.93 169.195C1483.3 170.125 1485.14 169.79 1485.6 169.132C1486.27 168.177 1485.24 166.249 1484.3 165.703C1482.87 164.871 1481.29 164.802 1480.64 165.766Z" fill="#FCA11D"/>
<path d="M1513.85 110.729C1514.81 111.76 1516.82 111.462 1518.26 109.982C1519.36 108.854 1520.23 106.457 1519.2 105.501C1518.64 104.979 1516.27 104.805 1514.79 106.249C1513.32 107.693 1512.9 109.698 1513.85 110.729Z" fill="#FCA11D"/>
<path d="M1510.51 107.753C1511.1 106.81 1511.15 104.586 1510.15 104.052C1509.46 103.684 1507.69 104.269 1506.9 105.764C1506.1 107.259 1506.26 108.916 1507.26 109.465C1508.26 110.015 1509.62 109.19 1510.51 107.753Z" fill="#FCA11D"/>
<path d="M1510.57 124.728C1512.2 123.676 1512.19 122.469 1512.26 121.312C1512.32 120.23 1512.77 119.214 1513.51 118.421C1514.8 117.017 1515.03 114.985 1514.18 113.352C1513.33 111.718 1511.56 110.807 1509.72 111.166C1508.68 111.369 1507.61 111.205 1506.7 110.67C1505.73 110.099 1504.76 109.433 1503.01 110.274C1500.87 111.312 1500.14 114.111 1501.25 116.23C1501.56 116.827 1501.99 117.317 1502.49 117.686C1503.03 118.086 1503.48 118.6 1503.79 119.187C1504.09 119.778 1504.27 120.444 1504.29 121.135C1504.32 121.773 1504.48 122.413 1504.79 123.01C1505.9 125.129 1508.56 126.026 1510.57 124.728Z" fill="#FCA11D"/>
<path d="M1516.14 115.1C1516.46 116.492 1518.31 117.213 1520.29 116.711C1522.26 116.209 1523.4 114.054 1523.28 113.281C1523.07 111.868 1520.65 111.326 1519.14 111.671C1517.16 112.123 1515.83 113.708 1516.14 115.1Z" fill="#FCA11D"/>
<path d="M1513.59 121.521C1513.49 122.688 1514.74 123.729 1516.39 123.845C1518.03 123.961 1519.46 122.745 1519.54 121.942C1519.65 120.776 1517.82 119.619 1516.74 119.618C1515.09 119.617 1513.68 120.354 1513.59 121.521Z" fill="#FCA11D"/>
<path d="M1556.81 135.893C1557.77 136.924 1559.78 136.626 1561.22 135.146C1562.32 134.018 1563.19 131.621 1562.16 130.665C1561.6 130.143 1559.23 129.969 1557.76 131.413C1556.28 132.857 1555.86 134.862 1556.81 135.893Z" fill="#FCA11D"/>
<path d="M1553.47 132.917C1554.06 131.974 1554.12 129.75 1553.11 129.216C1552.42 128.848 1550.66 129.433 1549.86 130.928C1549.06 132.423 1549.22 134.08 1550.22 134.629C1551.22 135.179 1552.58 134.354 1553.47 132.917Z" fill="#FCA11D"/>
<path d="M1553.53 149.89C1555.16 148.838 1555.15 147.631 1555.22 146.475C1555.29 145.392 1555.74 144.376 1556.47 143.583C1557.76 142.179 1557.99 140.147 1557.14 138.514C1556.29 136.88 1554.52 135.969 1552.68 136.329C1551.64 136.531 1550.57 136.367 1549.66 135.832C1548.69 135.261 1547.72 134.595 1545.98 135.436C1543.83 136.474 1543.1 139.273 1544.21 141.392C1544.52 141.989 1544.95 142.479 1545.45 142.848C1546 143.248 1546.44 143.762 1546.75 144.349C1547.05 144.94 1547.23 145.606 1547.25 146.297C1547.28 146.935 1547.44 147.575 1547.75 148.172C1548.86 150.291 1551.52 151.188 1553.53 149.89Z" fill="#FCA11D"/>
<path d="M1559.11 140.262C1559.42 141.654 1561.28 142.375 1563.25 141.873C1565.22 141.371 1566.36 139.216 1566.24 138.443C1566.03 137.03 1563.61 136.488 1562.1 136.833C1560.12 137.285 1558.79 138.87 1559.11 140.262Z" fill="#FCA11D"/>
<path d="M1556.55 146.685C1556.45 147.852 1557.71 148.893 1559.35 149.009C1560.99 149.125 1562.42 147.909 1562.5 147.106C1562.62 145.94 1560.78 144.783 1559.7 144.782C1558.05 144.781 1556.64 145.518 1556.55 146.685Z" fill="#FCA11D"/>
<path d="M1560.72 87.696C1561.67 88.7265 1563.68 88.4286 1565.12 86.9484C1566.22 85.8209 1567.09 83.4234 1566.06 82.468C1565.5 81.9457 1563.14 81.7721 1561.66 83.2158C1560.18 84.6594 1559.76 86.6651 1560.72 87.696Z" fill="#FCA11D"/>
<path d="M1557.37 84.7258C1557.96 83.7828 1558.02 81.559 1557.01 81.0248C1556.32 80.6565 1554.56 81.2419 1553.76 82.7369C1552.96 84.2317 1553.12 85.8887 1554.12 86.4379C1555.12 86.9872 1556.48 86.163 1557.37 84.7258Z" fill="#FCA11D"/>
<path d="M1557.43 101.698C1559.06 100.647 1559.05 99.4401 1559.12 98.2831C1559.19 97.201 1559.64 96.1844 1560.37 95.3916C1561.67 93.9877 1561.9 91.9558 1561.04 90.3222C1560.19 88.6887 1558.42 87.7781 1556.58 88.1372C1555.54 88.3398 1554.47 88.1756 1553.56 87.6411C1552.59 87.0698 1551.62 86.4035 1549.88 87.2447C1547.73 88.2831 1547 91.0817 1548.11 93.2008C1548.42 93.7977 1548.85 94.2874 1549.35 94.6568C1549.9 95.0569 1550.34 95.571 1550.65 96.158C1550.96 96.7487 1551.13 97.4143 1551.16 98.1054C1551.18 98.7435 1551.34 99.384 1551.65 99.9809C1552.76 102.1 1555.42 102.997 1557.43 101.698Z" fill="#FCA11D"/>
<path d="M1563.01 92.0689C1563.32 93.4606 1565.18 94.1819 1567.15 93.6794C1569.12 93.1774 1570.26 91.0228 1570.15 90.2498C1569.93 88.8364 1567.51 88.2949 1566 88.6393C1564.02 89.0913 1562.69 90.6768 1563.01 92.0689Z" fill="#FCA11D"/>
<path d="M1560.45 98.49C1560.35 99.6572 1561.61 100.698 1563.25 100.814C1564.9 100.93 1566.33 99.7141 1566.41 98.9105C1566.52 97.7446 1564.69 96.5875 1563.6 96.5872C1561.95 96.5862 1560.55 97.3229 1560.45 98.49Z" fill="#FCA11D"/>
<path d="M1599.1 61.2897C1600.06 62.3203 1602.06 62.0224 1603.51 60.5421C1604.6 59.4147 1605.48 57.0172 1604.45 56.0617C1603.89 55.5395 1601.52 55.3659 1600.04 56.8096C1598.57 58.2531 1598.15 60.2589 1599.1 61.2897Z" fill="#FCA11D"/>
<path d="M1595.76 58.3176C1596.35 57.3746 1596.4 55.1508 1595.4 54.6166C1594.7 54.2483 1592.94 54.8337 1592.15 56.3287C1591.35 57.8235 1591.51 59.4805 1592.51 60.0297C1593.51 60.579 1594.86 59.7548 1595.76 58.3176Z" fill="#FCA11D"/>
<path d="M1595.82 75.2883C1597.45 74.2366 1597.44 73.0299 1597.51 71.873C1597.57 70.7908 1598.02 69.7742 1598.76 68.9814C1600.05 67.5776 1600.28 65.5456 1599.43 63.9121C1598.58 62.2785 1596.81 61.3679 1594.97 61.727C1593.93 61.9296 1592.86 61.7655 1591.95 61.2309C1590.97 60.6597 1590 59.9933 1588.26 60.8345C1586.12 61.8729 1585.39 64.6715 1586.5 66.7906C1586.81 67.3876 1587.24 67.8772 1587.74 68.2466C1588.28 68.6467 1588.73 69.1608 1589.04 69.7478C1589.34 70.3385 1589.52 71.0041 1589.54 71.6952C1589.57 72.3333 1589.73 72.9738 1590.04 73.5708C1591.15 75.6897 1593.81 76.5864 1595.82 75.2883Z" fill="#FCA11D"/>
<path d="M1601.39 65.6587C1601.71 67.0505 1603.56 67.7717 1605.54 67.2693C1607.51 66.7672 1608.65 64.6126 1608.53 63.8396C1608.32 62.4263 1605.9 61.8848 1604.39 62.2291C1602.41 62.6812 1601.08 64.2666 1601.39 65.6587Z" fill="#FCA11D"/>
<path d="M1598.84 72.0818C1598.74 73.249 1599.99 74.2893 1601.64 74.4056C1603.28 74.5215 1604.71 73.3058 1604.79 72.5023C1604.9 71.3364 1603.07 70.1793 1601.99 70.179C1600.34 70.178 1598.93 70.9147 1598.84 72.0818Z" fill="#FCA11D"/>
<path d="M1643.34 77.1354C1644.3 78.166 1646.31 77.8681 1647.75 76.3878C1648.85 75.2604 1649.72 72.8629 1648.69 71.9074C1648.13 71.3852 1645.76 71.2116 1644.29 72.6553C1642.81 74.0988 1642.39 76.1046 1643.34 77.1354Z" fill="#FCA11D"/>
<path d="M1640 74.1633C1640.59 73.2203 1640.65 70.9965 1639.64 70.4623C1638.95 70.094 1637.18 70.6794 1636.39 72.1744C1635.59 73.6692 1635.75 75.3262 1636.75 75.8754C1637.75 76.4247 1639.11 75.6005 1640 74.1633Z" fill="#FCA11D"/>
<path d="M1640.06 91.136C1641.69 90.0842 1641.68 88.8776 1641.75 87.7206C1641.82 86.6385 1642.27 85.6219 1643 84.8291C1644.29 83.4252 1644.52 81.3933 1643.67 79.7597C1642.82 78.1262 1641.05 77.2156 1639.21 77.5747C1638.17 77.7773 1637.1 77.6131 1636.19 77.0786C1635.22 76.5073 1634.25 75.841 1632.51 76.6822C1630.36 77.7206 1629.63 80.5192 1630.74 82.6383C1631.05 83.2352 1631.48 83.7249 1631.98 84.0943C1632.53 84.4944 1632.97 85.0085 1633.28 85.5955C1633.58 86.1862 1633.76 86.8518 1633.78 87.5429C1633.81 88.181 1633.97 88.8215 1634.28 89.4184C1635.39 91.5374 1638.05 92.434 1640.06 91.136Z" fill="#FCA11D"/>
<path d="M1645.63 81.5044C1645.95 82.8962 1647.81 83.6174 1649.78 83.115C1651.75 82.6129 1652.89 80.4583 1652.77 79.6853C1652.56 78.272 1650.14 77.7305 1648.63 78.0748C1646.65 78.5269 1645.32 80.1123 1645.63 81.5044Z" fill="#FCA11D"/>
<path d="M1643.08 87.9275C1642.98 89.0947 1644.23 90.135 1645.88 90.2513C1647.52 90.3672 1648.95 89.1516 1649.03 88.348C1649.14 87.1821 1647.31 86.025 1646.23 86.0247C1644.58 86.0237 1643.17 86.7604 1643.08 87.9275Z" fill="#FCA11D"/>
<path d="M1666.34 30.0139C1667.46 30.8565 1669.38 30.2031 1670.54 28.4874C1671.43 27.1806 1671.87 24.6644 1670.69 23.9085C1670.05 23.4954 1667.69 23.7492 1666.49 25.4352C1665.28 27.121 1665.22 29.1708 1666.34 30.0139Z" fill="#FCA11D"/>
<path d="M1662.53 27.6874C1662.94 26.6539 1662.61 24.4549 1661.53 24.1097C1660.78 23.8716 1659.15 24.7639 1658.63 26.3787C1658.1 27.9931 1658.55 29.5949 1659.63 29.9564C1660.71 30.3178 1661.9 29.2625 1662.53 27.6874Z" fill="#FCA11D"/>
<path d="M1665.55 44.3842C1666.97 43.0564 1666.75 41.8703 1666.62 40.719C1666.49 39.6422 1666.76 38.5608 1667.34 37.6491C1668.37 36.0347 1668.24 33.9936 1667.12 32.539C1665.99 31.0844 1664.1 30.5054 1662.35 31.1895C1661.36 31.5756 1660.28 31.6057 1659.29 31.2428C1658.23 30.8553 1657.16 30.3736 1655.59 31.5139C1653.66 32.9214 1653.43 35.8065 1654.89 37.6935C1655.3 38.225 1655.81 38.6298 1656.37 38.9032C1656.98 39.1993 1657.5 39.6258 1657.91 40.1477C1658.31 40.6745 1658.6 41.2984 1658.74 41.974C1658.88 42.5977 1659.15 43.1993 1659.56 43.7308C1661.02 45.6176 1663.79 46.0229 1665.55 44.3842Z" fill="#FCA11D"/>
<path d="M1669.36 33.9054C1669.91 35.2185 1671.86 35.5956 1673.71 34.7472C1675.57 33.8994 1676.31 31.5735 1676.06 30.8339C1675.6 29.4816 1673.13 29.3823 1671.71 29.9922C1669.83 30.7928 1668.8 32.5921 1669.36 33.9054Z" fill="#FCA11D"/>
<path d="M1667.96 40.6855C1668.06 41.8516 1669.48 42.6503 1671.12 42.4696C1672.76 42.2885 1673.95 40.8354 1673.89 40.0305C1673.8 38.8627 1671.79 38.0529 1670.73 38.2468C1669.1 38.542 1667.85 39.5194 1667.96 40.6855Z" fill="#FCA11D"/>
<path d="M1715.03 9.86152C1716.15 10.7042 1718.07 10.0507 1719.23 8.33507C1720.12 7.02827 1720.56 4.51207 1719.38 3.75616C1718.74 3.34305 1716.38 3.59688 1715.18 5.28284C1713.97 6.96863 1713.91 9.0185 1715.03 9.86152Z" fill="#FCA11D"/>
<path d="M1711.22 7.53699C1711.63 6.50351 1711.3 4.30447 1710.22 3.95927C1709.47 3.7212 1707.84 4.61347 1707.32 6.22826C1706.79 7.84275 1707.24 9.44452 1708.32 9.80596C1709.4 10.1674 1710.59 9.11213 1711.22 7.53699Z" fill="#FCA11D"/>
<path d="M1714.24 24.2338C1715.66 22.906 1715.44 21.7199 1715.3 20.5686C1715.18 19.4918 1715.45 18.4104 1716.03 17.4987C1717.06 15.8843 1716.93 13.8432 1715.81 12.3886C1714.68 10.9341 1712.78 10.355 1711.03 11.0391C1710.04 11.4252 1708.97 11.4553 1707.98 11.0924C1706.92 10.7049 1705.85 10.2232 1704.28 11.3635C1702.35 12.771 1702.12 15.6561 1703.58 17.5431C1703.99 18.0746 1704.5 18.4794 1705.06 18.7528C1705.66 19.049 1706.19 19.4754 1706.6 19.9973C1707 20.5241 1707.29 21.148 1707.43 21.8236C1707.57 22.4474 1707.84 23.0489 1708.25 23.5804C1709.71 25.4672 1712.48 25.8725 1714.24 24.2338Z" fill="#FCA11D"/>
<path d="M1718.05 13.7551C1718.6 15.0681 1720.55 15.4452 1722.4 14.5968C1724.26 13.749 1725 11.4231 1724.75 10.6835C1724.29 9.33124 1721.82 9.23188 1720.4 9.84178C1718.52 10.6424 1717.49 12.4417 1718.05 13.7551Z" fill="#FCA11D"/>
<path d="M1716.65 20.5351C1716.75 21.7012 1718.17 22.4999 1719.81 22.3192C1721.45 22.1381 1722.64 20.685 1722.58 19.8801C1722.49 18.7123 1720.48 17.9025 1719.42 18.0964C1717.79 18.3916 1716.54 19.3691 1716.65 20.5351Z" fill="#FCA11D"/>
<path d="M1344.95 90.7045C1344.94 92.1199 1346.6 93.3047 1348.65 93.2369C1350.21 93.1852 1352.47 92.054 1352.37 90.6429C1352.32 89.8715 1350.72 88.0937 1348.67 88.1107C1346.62 88.1276 1344.95 89.2889 1344.95 90.7045Z" fill="#FCA11D"/>
<path d="M1344.54 86.2141C1345.6 85.9395 1347.15 84.3653 1346.78 83.2752C1346.53 82.5241 1344.86 81.7194 1343.26 82.2471C1341.67 82.7748 1340.66 84.0905 1341.02 85.186C1341.37 86.2814 1342.91 86.6324 1344.54 86.2141Z" fill="#FCA11D"/>
<path d="M1333.07 98.573C1334.97 98.9478 1335.78 98.0661 1336.62 97.2751C1337.4 96.5353 1338.41 96.1117 1339.48 96.0475C1341.38 95.9335 1342.92 94.6188 1343.41 92.8373C1343.9 91.0558 1343.23 89.1613 1341.65 88.1358C1340.76 87.5565 1340.09 86.6924 1339.8 85.6692C1339.48 84.5752 1339.22 83.4141 1337.39 82.8098C1335.13 82.0642 1332.7 83.5872 1332.07 85.8983C1331.89 86.5494 1331.87 87.2046 1331.99 87.8236C1332.11 88.4937 1332.08 89.1763 1331.91 89.8194C1331.73 90.4607 1331.41 91.0649 1330.96 91.5844C1330.54 92.0643 1330.22 92.6417 1330.05 93.2928C1329.41 95.6035 1330.73 98.1104 1333.07 98.573Z" fill="#FCA11D"/>
<path d="M1343.65 95.4769C1342.94 96.7079 1343.79 98.5257 1345.56 99.5372C1347.34 100.549 1349.63 99.7831 1350.06 99.1396C1350.86 97.9628 1349.48 95.8832 1348.15 95.0794C1346.4 94.0238 1344.36 94.2457 1343.65 95.4769Z" fill="#FCA11D"/>
<path d="M1337.44 98.3516C1336.58 99.1312 1336.78 100.762 1337.9 101.995C1339.01 103.227 1340.87 103.343 1341.48 102.814C1342.35 102.047 1341.8 99.9272 1341.02 99.1712C1339.82 98.0184 1338.3 97.5719 1337.44 98.3516Z" fill="#FCA11D"/>
<path d="M1291.6 113.816C1291.59 115.231 1293.25 116.416 1295.3 116.348C1296.86 116.297 1299.12 115.165 1299.02 113.754C1298.97 112.983 1297.37 111.205 1295.32 111.222C1293.27 111.239 1291.6 112.4 1291.6 113.816Z" fill="#FCA11D"/>
<path d="M1291.19 109.325C1292.25 109.051 1293.8 107.477 1293.43 106.387C1293.18 105.635 1291.5 104.831 1289.91 105.358C1288.32 105.886 1287.31 107.202 1287.67 108.297C1288.02 109.393 1289.56 109.744 1291.19 109.325Z" fill="#FCA11D"/>
<path d="M1279.72 121.682C1281.62 122.057 1282.43 121.175 1283.27 120.384C1284.05 119.645 1285.06 119.221 1286.13 119.157C1288.03 119.043 1289.57 117.728 1290.06 115.947C1290.54 114.165 1289.88 112.271 1288.3 111.245C1287.41 110.666 1286.74 109.802 1286.44 108.779C1286.13 107.685 1285.87 106.523 1284.04 105.919C1281.78 105.174 1279.35 106.697 1278.72 109.008C1278.54 109.659 1278.52 110.314 1278.63 110.933C1278.76 111.603 1278.73 112.286 1278.56 112.929C1278.38 113.57 1278.05 114.174 1277.61 114.694C1277.19 115.174 1276.87 115.751 1276.69 116.402C1276.06 118.713 1277.38 121.22 1279.72 121.682Z" fill="#FCA11D"/>
<path d="M1290.3 118.586C1289.59 119.817 1290.44 121.635 1292.21 122.647C1293.98 123.658 1296.27 122.893 1296.71 122.249C1297.51 121.072 1296.13 118.993 1294.8 118.189C1293.05 117.133 1291.01 117.355 1290.3 118.586Z" fill="#FCA11D"/>
<path d="M1284.09 121.463C1283.23 122.243 1283.43 123.873 1284.55 125.106C1285.66 126.338 1287.52 126.454 1288.12 125.925C1289 125.158 1288.45 123.038 1287.67 122.283C1286.47 121.13 1284.95 120.683 1284.09 121.463Z" fill="#FCA11D"/>
<path d="M430.226 243.662C430.48 245.054 432.325 245.907 434.328 245.456C435.853 245.112 437.866 243.577 437.512 242.209C437.319 241.461 435.423 240.014 433.411 240.415C431.399 240.816 429.973 242.27 430.226 243.662Z" fill="#FCA11D"/>
<path d="M429.004 239.324C430.001 238.854 431.236 237.016 430.676 236.014C430.29 235.323 428.497 234.847 427.028 235.664C425.559 236.482 424.81 237.963 425.356 238.974C425.901 239.984 427.484 240.039 429.004 239.324Z" fill="#FCA11D"/>
<path d="M419.99 253.62C421.922 253.633 422.559 252.614 423.235 251.68C423.868 250.806 424.789 250.2 425.828 249.936C427.667 249.469 428.945 247.887 429.1 246.045C429.255 244.203 428.256 242.466 426.516 241.754C425.533 241.352 424.724 240.628 424.245 239.678C423.732 238.663 423.272 237.569 421.361 237.319C419.001 237.01 416.895 238.962 416.694 241.352C416.637 242.025 416.737 242.673 416.962 243.26C417.205 243.895 417.303 244.571 417.251 245.236C417.192 245.899 416.982 246.554 416.635 247.149C416.314 247.699 416.107 248.326 416.051 248.999C415.85 251.389 417.606 253.604 419.99 253.62Z" fill="#FCA11D"/>
<path d="M429.82 248.595C429.343 249.939 430.516 251.564 432.441 252.226C434.366 252.888 436.477 251.706 436.791 250.992C437.364 249.685 435.622 247.901 434.17 247.36C432.263 246.65 430.298 247.251 429.82 248.595Z" fill="#FCA11D"/>
<path d="M424.238 252.585C423.534 253.513 424.033 255.077 425.353 256.079C426.673 257.081 428.524 256.846 429.018 256.213C429.736 255.296 428.813 253.315 427.904 252.719C426.517 251.811 424.943 251.657 424.238 252.585Z" fill="#FCA11D"/>
<path d="M410.01 204.687C410.264 206.079 412.11 206.932 414.112 206.481C415.637 206.138 417.65 204.602 417.296 203.234C417.103 202.486 415.207 201.039 413.195 201.44C411.183 201.841 409.758 203.295 410.01 204.687Z" fill="#FCA11D"/>
<path d="M408.788 200.351C409.785 199.881 411.021 198.044 410.46 197.041C410.074 196.351 408.282 195.874 406.812 196.692C405.343 197.509 404.594 198.991 405.14 200.001C405.686 201.012 407.268 201.067 408.788 200.351Z" fill="#FCA11D"/>
<path d="M399.774 214.647C401.706 214.66 402.343 213.641 403.02 212.707C403.652 211.834 404.574 211.227 405.612 210.963C407.451 210.496 408.729 208.915 408.884 207.072C409.039 205.23 408.04 203.493 406.3 202.782C405.318 202.38 404.508 201.655 404.029 200.705C403.516 199.69 403.056 198.596 401.145 198.346C398.785 198.038 396.679 199.99 396.478 202.38C396.421 203.053 396.521 203.7 396.746 204.287C396.99 204.923 397.088 205.599 397.035 206.263C396.976 206.927 396.766 207.582 396.419 208.177C396.098 208.726 395.892 209.353 395.835 210.026C395.634 212.416 397.39 214.632 399.774 214.647Z" fill="#FCA11D"/>
<path d="M409.602 209.62C409.125 210.964 410.298 212.59 412.223 213.252C414.148 213.914 416.259 212.732 416.573 212.017C417.146 210.71 415.405 208.927 413.952 208.386C412.045 207.676 410.08 208.277 409.602 209.62Z" fill="#FCA11D"/>
<path d="M404.023 213.612C403.318 214.54 403.817 216.104 405.137 217.107C406.457 218.108 408.308 217.873 408.803 217.241C409.52 216.323 408.598 214.342 407.688 213.747C406.302 212.838 404.727 212.685 404.023 213.612Z" fill="#FCA11D"/>
<path d="M364.467 183.562C364.721 184.954 366.566 185.807 368.569 185.356C370.094 185.013 372.107 183.477 371.753 182.109C371.56 181.361 369.664 179.914 367.652 180.315C365.64 180.716 364.214 182.17 364.467 183.562Z" fill="#FCA11D"/>
<path d="M363.245 179.224C364.242 178.754 365.477 176.917 364.917 175.914C364.531 175.224 362.738 174.747 361.269 175.565C359.8 176.382 359.051 177.864 359.597 178.874C360.142 179.885 361.725 179.94 363.245 179.224Z" fill="#FCA11D"/>
<path d="M354.231 193.522C356.163 193.535 356.8 192.516 357.476 191.582C358.109 190.709 359.03 190.102 360.069 189.838C361.908 189.371 363.186 187.79 363.341 185.947C363.496 184.105 362.497 182.368 360.757 181.657C359.774 181.255 358.965 180.53 358.486 179.58C357.973 178.565 357.513 177.471 355.601 177.221C353.242 176.913 351.136 178.865 350.935 181.255C350.878 181.928 350.978 182.575 351.203 183.162C351.446 183.798 351.544 184.474 351.492 185.138C351.433 185.802 351.223 186.457 350.876 187.052C350.555 187.601 350.348 188.228 350.292 188.901C350.091 191.291 351.846 193.507 354.231 193.522Z" fill="#FCA11D"/>
<path d="M364.059 188.495C363.582 189.839 364.755 191.465 366.68 192.127C368.605 192.789 370.716 191.607 371.03 190.892C371.603 189.585 369.861 187.802 368.409 187.261C366.502 186.551 364.537 187.152 364.059 188.495Z" fill="#FCA11D"/>
<path d="M358.479 192.485C357.775 193.413 358.274 194.977 359.594 195.98C360.914 196.981 362.765 196.746 363.259 196.114C363.977 195.196 363.054 193.215 362.145 192.62C360.758 191.711 359.184 191.558 358.479 192.485Z" fill="#FCA11D"/>
<path d="M363.818 223.176C364.071 224.567 365.917 225.421 367.919 224.97C369.444 224.626 371.457 223.091 371.103 221.722C370.91 220.974 369.014 219.527 367.002 219.929C364.99 220.33 363.565 221.783 363.818 223.176Z" fill="#FCA11D"/>
<path d="M362.595 218.841C363.592 218.372 364.827 216.534 364.267 215.532C363.881 214.841 362.089 214.364 360.619 215.182C359.15 215.999 358.401 217.481 358.947 218.491C359.493 219.502 361.075 219.557 362.595 218.841Z" fill="#FCA11D"/>
<path d="M353.581 233.134C355.513 233.146 356.15 232.128 356.827 231.194C357.459 230.32 358.381 229.713 359.419 229.45C361.259 228.983 362.536 227.401 362.691 225.559C362.846 223.717 361.847 221.979 360.107 221.268C359.125 220.866 358.315 220.141 357.836 219.192C357.323 218.176 356.863 217.083 354.952 216.833C352.592 216.524 350.486 218.476 350.285 220.866C350.229 221.539 350.328 222.187 350.553 222.774C350.797 223.409 350.895 224.085 350.843 224.749C350.783 225.413 350.573 226.068 350.226 226.663C349.905 227.212 349.699 227.839 349.642 228.513C349.441 230.902 351.197 233.118 353.581 233.134Z" fill="#FCA11D"/>
<path d="M363.41 228.107C362.932 229.45 364.105 231.076 366.03 231.738C367.955 232.4 370.066 231.218 370.38 230.503C370.953 229.197 369.212 227.413 367.759 226.872C365.852 226.162 363.887 226.763 363.41 228.107Z" fill="#FCA11D"/>
<path d="M357.83 232.099C357.125 233.026 357.624 234.591 358.944 235.593C360.264 236.595 362.115 236.359 362.61 235.727C363.327 234.809 362.405 232.829 361.495 232.233C360.109 231.325 358.534 231.171 357.83 232.099Z" fill="#FCA11D"/>
</svg>
