<svg width="61" height="58" viewBox="0 0 61 58" fill="none" xmlns="http://www.w3.org/2000/svg">
<path d="M16.1307 29.4994C18.4314 31.1398 19.8289 34.6695 18.0607 36.8446C16.2293 39.0976 11.7895 38.9279 9.26069 37.2918C6.75114 35.6682 5.25654 32.0396 6.98692 29.8461C8.7998 27.548 13.5145 27.634 16.1307 29.4994Z" fill="#43BCFF"/>
<path d="M39.7087 17.2374C40.5079 14.4622 43.472 11.4626 46.2194 11.8134C49.0651 12.1767 50.454 15.9782 49.7389 18.9419C49.0292 21.883 46.0023 25.0151 43.2502 24.7055C40.3668 24.3811 38.7999 20.3931 39.7087 17.2374Z" fill="#43BCFF"/>
<path d="M25.4293 15.0327C24.5881 12.0205 25.7781 7.62714 28.7317 6.46504C31.7909 5.26137 35.4258 8.04224 36.4625 11.1841C37.4913 14.3021 36.3168 18.8526 33.3829 20.0555C30.309 21.3157 26.3858 18.4579 25.4293 15.0327Z" fill="#43BCFF"/>
<path d="M12.5183 22.4279C10.8969 19.7592 10.9326 15.3277 13.5628 13.5669C16.2871 11.7431 20.6228 13.5694 22.4722 16.3175C24.3075 19.0446 24.3283 23.6217 21.7282 25.4168C19.0041 27.2975 14.362 25.4626 12.5183 22.4279Z" fill="#43BCFF"/>
<path d="M28.0779 24.6436C25.7149 25.7166 24.5105 27.6226 23.7415 28.8758C22.3961 31.0684 22.7067 31.928 21.5506 36.0109C20.025 41.3984 18.975 41.6995 19.1222 44.143C19.1627 44.8158 19.3669 48.2071 22.2497 50.2238C25.2039 52.2905 29.6943 52.0202 32.6293 50.3623C35.2788 48.8656 35.0759 47.1332 37.9392 45.8548C40.5807 44.6755 41.5145 45.8099 44.1241 44.9295C48.0167 43.6162 51.7313 39.1376 51.3335 35.018C51.087 32.4647 49.3378 30.8464 48.7336 30.2875C46.7892 28.4885 45.5514 28.9858 40.7862 26.9794C36.8667 25.329 36.602 24.5285 33.9527 24.1285C32.4705 23.9047 30.349 23.6124 28.0779 24.6436Z" fill="#43BCFF"/>
</svg>
