<svg width="1157" height="1154" viewBox="0 0 1157 1154" fill="none" xmlns="http://www.w3.org/2000/svg">
<path d="M499.575 338.638C480.606 388.394 423.215 433.495 375.581 415.437C326.244 396.733 308.603 318.316 326.43 264.609C344.121 211.311 402.851 163.936 450.64 181.227C500.708 199.342 521.145 282.062 499.575 338.638Z" fill="#FFD833"/>
<path d="M830.595 677.113C884.571 674.75 952.71 708.818 959.175 758.785C965.872 810.541 903.521 857.086 846.524 862.023C789.96 866.922 719.13 832.538 711.897 782.73C704.32 730.547 769.218 679.8 830.595 677.113Z" fill="#FFD833"/>
<path d="M804.347 415.047C854.971 382.682 940.084 377.629 974.909 422.314C1010.98 468.599 977.581 548.329 925.521 584.866C873.858 621.124 785.972 627.371 750.499 583.268C713.335 537.061 746.783 451.85 804.347 415.047Z" fill="#FFD833"/>
<path d="M610.622 233.622C651.385 189.667 731.802 164.256 775.96 199.785C821.698 236.586 808.857 322.931 767.72 371.33C726.897 419.358 644.107 446.608 599.468 411.806C552.7 375.344 564.269 283.604 610.622 233.622Z" fill="#FFD833"/>
<path d="M642.508 518.477C612.067 483.584 571.948 473.78 545.677 467.732C499.715 457.152 485.603 467.616 406.305 471.435C301.67 476.474 291.323 459.937 247.781 476.849C235.791 481.506 175.356 504.979 152.296 567.074C128.665 630.709 154.498 707.402 198.196 748.831C237.646 786.231 268.059 772.522 304.553 814.931C338.218 854.053 322.038 876.994 350.145 917.316C392.071 977.464 490.462 1015.92 563.177 984.797C608.245 965.507 629.381 925.512 636.68 911.699C660.174 867.239 645.4 848.582 659.496 753.73C671.091 675.713 684.346 666.398 679.231 617.864C676.369 590.712 671.766 552.013 642.508 518.477Z" fill="#FFD833"/>
</svg>
