<svg width="141" height="134" viewBox="0 0 141 134" fill="none" xmlns="http://www.w3.org/2000/svg">
<path d="M31.5486 50.039C35.7216 57.9304 35.061 70.1003 27.5201 74.0402C19.7093 78.1212 7.87763 71.6168 3.08024 63.4292C-1.6805 55.3041 -1.15839 42.7146 6.30307 38.67C14.1204 34.4325 26.8034 41.0657 31.5486 50.039Z" fill="#FBFBFB"/>
<path d="M110.986 46.2538C116.655 39.2548 128.481 34.533 135.493 39.2738C142.755 44.1842 141.728 57.1338 136.05 64.7958C130.414 72.3992 118.251 77.4218 111.175 72.7945C103.761 67.9465 104.54 54.2124 110.986 46.2538Z" fill="#FBFBFB"/>
<path d="M75.0302 20.5015C76.5474 10.5914 85.3178 -0.590325 94.797 0.0242502C104.615 0.660803 110.97 13.6793 109.819 24.2315C108.677 34.7033 99.7509 46.3637 90.2735 45.8945C80.3441 45.4029 73.3048 31.7702 75.0302 20.5015Z" fill="#FBFBFB"/>
<path d="M30.6713 24.5606C29.6385 14.5945 35.3249 1.73883 44.682 0.172385C54.3739 -1.4501 63.8336 9.73725 65.385 20.2432C66.9244 30.6689 61.2073 44.0249 51.8887 45.732C42.1258 47.5206 31.8456 35.8931 30.6713 24.5606Z" fill="#FBFBFB"/>
<path d="M70.0908 52.0714C62.3265 51.9966 56.6546 55.9163 52.9873 58.5245C46.5714 63.0875 46.33 66.0112 38.0431 76.3351C27.1084 89.9576 23.8798 89.4129 21.1969 96.727C20.4581 98.7409 16.7344 108.893 22.0121 118.668C27.4205 128.685 39.9443 133.977 49.9985 133.123C59.075 132.351 60.7098 127.032 70.0908 127.186C78.7449 127.328 79.8475 131.895 88.0382 132.864C100.256 134.31 115.983 126.298 120.1 113.763C122.652 105.995 119.947 98.9141 119.013 96.4688C116.007 88.5982 112.022 88.3706 101.624 76.077C93.0715 65.9652 93.3631 63.2759 86.6796 58.5245C82.9406 55.8663 77.5534 52.1432 70.0908 52.0714Z" fill="#FBFBFB"/>
<path d="M31.5486 50.039C35.7216 57.9304 35.061 70.1003 27.5201 74.0402C19.7093 78.1212 7.87763 71.6168 3.08024 63.4292C-1.6805 55.3041 -1.15839 42.7146 6.30307 38.67C14.1204 34.4325 26.8034 41.0657 31.5486 50.039Z" fill="#FBFBFB"/>
<path d="M110.986 46.2538C116.655 39.2548 128.481 34.533 135.493 39.2738C142.755 44.1842 141.728 57.1338 136.05 64.7958C130.414 72.3992 118.251 77.4218 111.175 72.7945C103.761 67.9465 104.54 54.2124 110.986 46.2538Z" fill="#FBFBFB"/>
<path d="M75.0302 20.5015C76.5474 10.5914 85.3178 -0.590325 94.797 0.0242502C104.615 0.660803 110.97 13.6793 109.819 24.2315C108.677 34.7033 99.7509 46.3637 90.2735 45.8945C80.3441 45.4029 73.3048 31.7702 75.0302 20.5015Z" fill="#FBFBFB"/>
<path d="M30.6713 24.5606C29.6385 14.5945 35.3249 1.73883 44.682 0.172385C54.3739 -1.4501 63.8336 9.73725 65.385 20.2432C66.9244 30.6689 61.2073 44.0249 51.8887 45.732C42.1258 47.5206 31.8456 35.8931 30.6713 24.5606Z" fill="#FBFBFB"/>
<path d="M70.0908 52.0714C62.3265 51.9966 56.6546 55.9163 52.9873 58.5245C46.5714 63.0875 46.33 66.0112 38.0431 76.3351C27.1084 89.9576 23.8798 89.4129 21.1969 96.727C20.4581 98.7409 16.7344 108.893 22.0121 118.668C27.4205 128.685 39.9443 133.977 49.9985 133.123C59.075 132.351 60.7098 127.032 70.0908 127.186C78.7449 127.328 79.8475 131.895 88.0382 132.864C100.256 134.31 115.983 126.298 120.1 113.763C122.652 105.995 119.947 98.9141 119.013 96.4688C116.007 88.5982 112.022 88.3706 101.624 76.077C93.0715 65.9652 93.3631 63.2759 86.6796 58.5245C82.9406 55.8663 77.5534 52.1432 70.0908 52.0714Z" fill="#FBFBFB"/>
<path d="M31.5486 50.039C35.7216 57.9304 35.061 70.1003 27.5201 74.0402C19.7093 78.1212 7.87763 71.6168 3.08024 63.4292C-1.6805 55.3041 -1.15839 42.7146 6.30307 38.67C14.1204 34.4325 26.8034 41.0657 31.5486 50.039Z" fill="#FBFBFB"/>
<path d="M110.986 46.2538C116.655 39.2548 128.481 34.533 135.493 39.2738C142.755 44.1842 141.728 57.1338 136.05 64.7958C130.414 72.3992 118.251 77.4218 111.175 72.7945C103.761 67.9465 104.54 54.2124 110.986 46.2538Z" fill="#FBFBFB"/>
<path d="M75.0302 20.5015C76.5474 10.5914 85.3178 -0.590325 94.797 0.0242502C104.615 0.660803 110.97 13.6793 109.819 24.2315C108.677 34.7033 99.7509 46.3637 90.2735 45.8945C80.3441 45.4029 73.3048 31.7702 75.0302 20.5015Z" fill="#FBFBFB"/>
<path d="M30.6713 24.5606C29.6385 14.5945 35.3249 1.73883 44.682 0.172385C54.3739 -1.4501 63.8336 9.73725 65.385 20.2432C66.9244 30.6689 61.2073 44.0249 51.8887 45.732C42.1258 47.5206 31.8456 35.8931 30.6713 24.5606Z" fill="#FBFBFB"/>
<path d="M70.0908 52.0714C62.3265 51.9966 56.6546 55.9163 52.9873 58.5245C46.5714 63.0875 46.33 66.0112 38.0431 76.3351C27.1084 89.9576 23.8798 89.4129 21.1969 96.727C20.4581 98.7409 16.7344 108.893 22.0121 118.668C27.4205 128.685 39.9443 133.977 49.9985 133.123C59.075 132.351 60.7098 127.032 70.0908 127.186C78.7449 127.328 79.8475 131.895 88.0382 132.864C100.256 134.31 115.983 126.298 120.1 113.763C122.652 105.995 119.947 98.9141 119.013 96.4688C116.007 88.5982 112.022 88.3706 101.624 76.077C93.0715 65.9652 93.3631 63.2759 86.6796 58.5245C82.9406 55.8663 77.5534 52.1432 70.0908 52.0714Z" fill="#FBFBFB"/>
<path d="M102.105 90.7311C101.687 91.5384 100.794 91.7205 100.689 91.7412C99.2031 91.7619 97.7128 91.7826 96.2269 91.8075C96.0352 91.8985 95.643 92.1096 95.338 92.5401C94.9284 93.128 94.9502 93.7282 94.9676 93.9228C94.8892 103.349 94.8151 112.774 94.7367 122.2C94.7367 122.279 94.7061 123.066 94.0264 123.488C93.669 123.711 93.2987 123.724 93.1331 123.72C77.0104 123.794 60.8876 123.869 44.7648 123.943C44.5643 123.885 44.3378 123.786 44.1286 123.616C43.305 122.954 43.4444 121.811 43.4619 121.675C43.8105 106.573 43.9761 95.5497 43.9064 93.7034C43.8933 93.277 43.8279 92.4077 43.1961 91.9399C42.7168 91.588 42.1329 91.6295 41.2134 91.6708C40.4117 91.7081 39.2264 91.7495 37.7274 91.7453C37.0259 91.8985 36.3069 91.5881 35.9714 91.0002C35.6227 90.3834 35.7796 89.601 36.3505 89.1374C40.22 85.7926 44.0938 82.4478 47.9632 79.0989V67.1603C47.9545 67.1065 47.9109 66.7919 48.1375 66.5062C48.3772 66.1999 48.7389 66.1668 48.7955 66.1626C51.044 66.1336 53.2968 66.1047 55.5453 66.0757C55.6019 66.0715 55.9375 66.055 56.2076 66.2951C56.5301 66.5849 56.4778 66.9864 56.4734 67.0237V71.7469C60.4388 68.3193 64.4085 64.8876 68.3738 61.46C68.4566 61.3731 68.7572 61.0916 69.2409 61.0378C69.9469 60.9633 70.4218 61.4642 70.4698 61.5139C80.9234 70.5754 91.3815 79.637 101.835 88.7027C102.332 89.2905 102.436 90.0812 102.105 90.7311Z" fill="#43BCFF"/>
<path d="M76.3238 75.3514C75.8937 74.2161 75.6001 73.2796 75.4102 72.6288C75.1224 71.6424 75.0148 71.1137 74.6996 71.0609C74.2501 70.9855 73.7257 71.9353 73.467 72.4037C73.0921 73.0828 72.616 74.1822 72.4717 75.7355C69.9009 78.8192 69.2404 80.8518 69.1541 82.174C69.1355 82.4596 69.1094 83.2361 68.8224 84.2451C68.3945 85.7493 67.6693 86.7769 67.3531 87.2168C63.556 92.4998 58.8221 98.3378 58.8221 98.3378C54.8421 103.246 53.5798 105.513 52.7809 107.212C52.5728 107.655 51.3269 110.369 51.1691 113.9C51.1043 115.349 51.2536 116.244 51.5967 117.087C52.374 118.998 53.8929 120.02 54.2941 120.275C56.3229 121.563 59.131 121.874 61.5309 120.806C64.3894 119.533 65.3008 116.912 65.544 116.212C65.9254 115.115 65.9309 114.257 65.9388 113.056C65.9452 112.063 65.8393 111.143 65.2809 110.65C65.1827 110.563 64.9359 110.345 64.623 110.368C64.3049 110.393 64.0936 110.653 63.998 110.775C63.6042 111.275 63.7335 111.737 63.5703 112.681C63.5703 112.681 63.5026 113.073 63.2743 113.806C62.8867 115.05 61.3076 116.654 59.1624 116.962C58.9501 116.993 56.3245 117.334 55.0835 115.775C54.6616 115.244 54.5808 114.722 54.4585 113.931C54.1326 111.824 54.8773 110.116 55.2479 109.4C55.6355 108.651 56.0436 108.182 56.8598 107.243C58.32 105.565 59.7542 104.476 60.5769 103.931C61.6021 103.252 61.6432 103.385 62.6492 102.681C64.0191 101.723 65.5326 100.636 66.169 98.8373C66.422 98.122 66.2213 98.1847 66.5309 97.2436C66.774 96.5043 67.2246 95.1889 68.4716 94.0874C68.793 93.8035 69.3185 93.4003 70.0835 93.0561C70.5102 92.2654 70.9869 91.7543 71.3006 91.4624C71.7443 91.0496 72.0652 90.8865 72.3861 90.8061C72.5987 90.7529 72.7838 90.7429 72.9124 90.7436C72.9563 91.6499 73.0001 92.5561 73.044 93.4623C74.7667 93.8118 75.4003 94.4372 75.6593 94.9467C75.937 95.4929 75.7415 95.8219 76.2029 96.7255C76.5351 97.376 76.8244 97.5735 76.8061 98.0613C76.7913 98.4574 76.5845 98.7572 76.3237 99.1354C76.1061 99.451 75.8656 99.7999 75.4177 99.9962C75.2224 100.082 75.1226 100.079 74.5721 100.168C74.0992 100.245 73.7214 100.32 73.4848 100.369C73.4027 100.522 73.2853 100.793 73.2734 101.144C73.2549 101.689 73.5019 102.086 73.6056 102.234C74.0923 103.351 74.7363 105.351 74.1794 107.628C74.0749 108.055 73.939 108.447 73.7868 108.804C73.8576 109.543 73.9721 110.727 74.119 112.189C74.119 112.189 74.2932 114.025 75.5988 119.706C75.6313 119.847 75.7134 120.187 75.9914 120.51C76.8791 121.541 79.0341 121.56 79.4041 120.911C79.6326 120.511 79.1995 119.821 79.1625 119.764C78.9634 119.454 78.7862 119.396 78.5585 119.132C78.1679 118.68 78.0996 118.166 78.0451 117.755C77.9225 116.833 77.8395 111.251 77.9004 103.595C78.7048 101.819 79.3734 100.401 79.8269 99.4511C80.5911 97.8504 80.8559 97.3462 81.0687 96.4683C81.4415 94.9307 81.3056 93.689 81.1859 92.6802C81.0086 91.1853 80.4229 88.2243 80.0081 86.3397C79.9467 86.0609 79.7914 85.3617 80.1893 84.9626C80.3543 84.7971 80.5649 84.7328 80.7027 84.7043C81.8302 84.6469 82.9577 84.5896 84.0852 84.5322C84.6621 84.331 85.8797 83.8085 86.5616 82.61C86.731 82.3122 87.3214 81.2548 86.8636 80.5443C86.6191 80.165 86.219 80.1071 85.126 79.8327C83.1381 79.3337 82.1304 79.0744 81.4577 78.5934C80.5695 77.9581 80.7681 77.524 79.9175 76.7572C78.807 75.7561 77.3899 75.4486 76.3238 75.3514Z" fill="#FBFBFB"/>
</svg>
