<svg width="107" height="102" viewBox="0 0 107 102" fill="none" xmlns="http://www.w3.org/2000/svg">
<path d="M23.9825 38.2695C27.1175 44.2378 26.5927 53.464 20.8887 56.4739C14.9806 59.5915 6.05811 54.6985 2.45216 48.5077C-1.12624 42.3641 -0.705112 32.8203 4.93905 29.7314C10.8524 26.4951 20.4177 31.483 23.9825 38.2695Z" fill="#FFD833"/>
<path d="M83.8426 35.1921C88.1391 29.8696 97.0805 26.2537 102.366 29.825C107.841 33.524 107.037 43.3421 102.732 49.167C98.46 54.9475 89.263 58.7924 83.9284 55.3073C78.3394 51.6561 78.957 41.2443 83.8426 35.1921Z" fill="#FFD833"/>
<path d="M56.7642 15.7347C57.9315 8.21762 64.5804 -0.286222 71.7397 0.150049C79.1552 0.601913 83.9275 10.4508 83.0361 18.4536C82.1514 26.3954 75.3834 35.2626 68.2252 34.9365C60.7255 34.5949 55.437 24.2824 56.7642 15.7347Z" fill="#FFD833"/>
<path d="M23.3139 18.932C22.5549 11.3803 26.8777 1.61717 33.9494 0.400517C41.2741 -0.859679 48.3963 7.59145 49.5459 15.5507C50.6866 23.4492 46.3396 33.5917 39.2967 34.9149C31.9179 36.3012 24.1769 27.519 23.3139 18.932Z" fill="#FFD833"/>
<path d="M53.0276 39.7615C47.1653 39.7292 42.8743 42.7169 40.0997 44.7047C35.2456 48.1822 35.0571 50.3984 28.778 58.2469C20.4927 68.6031 18.0561 68.2004 16.0148 73.7509C15.4527 75.2793 12.6194 82.983 16.5835 90.3732C20.6458 97.9466 30.0908 101.917 37.6841 101.239C44.5391 100.626 45.7848 96.59 52.8677 96.6772C59.4017 96.7576 60.2245 100.215 66.4069 100.924C75.6289 101.981 87.5208 95.8607 90.6563 86.3503C92.5996 80.4558 90.5726 75.0993 89.8725 73.2494C87.6192 67.2951 84.6105 67.1351 76.7858 57.8525C70.3498 50.2173 70.5757 48.1787 65.5394 44.5993C62.7218 42.5968 58.6621 39.7926 53.0276 39.7615Z" fill="#FFD833"/>
</svg>
