<svg width="1145" height="2075" viewBox="0 0 1145 2075" fill="none" xmlns="http://www.w3.org/2000/svg">
<path d="M350.051 1671.39L218.019 1672.29C206.78 1621.82 207.72 1579.46 251.728 1577.65L350.051 1575.85L351.923 1481.21C354.731 1435.25 402.489 1436.15 453.994 1445.16C453.221 1486.93 452.447 1528.7 451.674 1570.46C496.821 1571.03 541.97 1571.6 587.115 1572.18C588.399 1575.55 604.604 1620.42 573.569 1652.67C561.722 1664.98 547.364 1670.91 538.096 1673.79C509.748 1672.99 481.401 1672.19 453.054 1671.39C451.689 1701.92 450.323 1732.45 448.959 1762.98C448.759 1767.45 447.851 1775.76 442.673 1785.03C442.673 1785.03 436.076 1796.84 422.653 1805.66C394.318 1824.28 353.243 1814.42 348.956 1813.33C349.32 1766.02 349.687 1718.7 350.051 1671.39Z" fill="#FCA11D" fill-opacity="0.2"/>
<path d="M527.414 779.442C597.177 902.362 586.131 1091.93 460.066 1153.3C329.488 1216.86 131.694 1115.55 51.4941 988.014C-28.0931 861.453 -19.3664 665.354 105.372 602.353C236.058 536.348 448.086 639.669 527.414 779.442Z" fill="#FCA11D" fill-opacity="0.2"/>
<path d="M512.678 382.525C495.412 227.289 590.478 27.0422 746.905 2.64344C908.93 -22.6287 1067.07 151.63 1093.01 315.274C1118.74 477.67 1023.17 685.709 867.383 712.299C704.17 740.158 532.311 559.046 512.678 382.525Z" fill="#FCA11D" fill-opacity="0.2"/>
<path d="M1171.69 811.117C1041.89 809.953 947.069 871.006 885.761 911.633C778.504 982.708 774.468 1028.25 635.932 1189.06C453.132 1401.25 399.156 1392.76 354.306 1506.69C341.956 1538.06 279.705 1696.19 367.933 1848.45C458.349 2004.48 667.715 2086.91 835.796 2073.61C987.533 2061.59 1014.86 1978.73 1171.69 1981.13C1316.36 1983.34 1334.8 2054.49 1471.73 2069.58C1675.98 2092.1 1938.89 1967.3 2007.72 1772.06C2050.38 1651.05 2005.17 1540.76 1989.56 1502.67C1939.3 1380.07 1872.67 1376.53 1698.84 1185.04C1555.87 1027.53 1560.74 985.643 1449.01 911.632C1386.51 870.226 1296.44 812.236 1171.69 811.117Z" fill="#FCA11D" fill-opacity="0.2"/>
</svg>
