<svg width="132" height="98" viewBox="0 0 132 98" fill="none" xmlns="http://www.w3.org/2000/svg">
<path d="M82.5818 30.4208C83.8762 33.7558 82.9017 38.4621 79.5189 39.5348C76.0149 40.6459 71.4348 37.3806 69.896 33.8916C68.369 30.4293 69.3095 25.5508 72.6651 24.4324C76.1807 23.2606 81.1099 26.6286 82.5818 30.4208Z" fill="#FCA11D"/>
<path d="M116.045 33.8354C118.82 31.4542 124.041 30.3403 126.705 32.621C129.463 34.9834 128.291 39.9714 125.474 42.6105C122.679 45.2294 117.299 46.4399 114.602 44.1995C111.777 41.8521 112.89 36.543 116.045 33.8354Z" fill="#FCA11D"/>
<path d="M102.472 21.5764C103.676 17.8042 107.989 13.9824 111.922 14.8056C115.996 15.6582 117.909 21.1273 116.822 25.1725C115.744 29.1869 111.338 33.1858 107.398 32.4194C103.269 31.6166 101.104 25.8657 102.472 21.5764Z" fill="#FCA11D"/>
<path d="M83.6662 20.4295C83.8054 16.4786 86.9232 11.814 90.9303 11.7789C95.0807 11.7426 98.3993 16.6886 98.4463 20.882C98.4928 25.0434 95.3335 29.9012 91.3345 29.9935C87.1448 30.0903 83.508 24.9222 83.6662 20.4295Z" fill="#FCA11D"/>
<path d="M98.5919 33.5887C95.3457 33.0816 92.7465 34.2614 91.0616 35.0531C88.114 36.438 87.8453 37.5636 83.7841 41.0805C78.4252 45.7211 77.1048 45.3099 75.5622 47.9978C75.1375 48.7379 72.9964 52.4684 74.6452 56.6061C76.3349 60.8463 81.2744 63.6814 85.5324 63.967C89.3764 64.2247 90.3658 62.2505 94.2842 62.8879C97.899 63.4759 98.0987 65.3254 101.472 66.2075C106.504 67.5234 113.547 65.3661 115.99 60.7303C117.504 57.8571 116.777 54.9288 116.527 53.9175C115.719 50.6624 114.064 50.3284 110.416 44.8931C107.416 40.4225 107.692 39.3915 105.167 37.1268C103.754 35.8598 101.712 34.076 98.5919 33.5887Z" fill="#FCA11D"/>
<path d="M27.6323 50.877C31.5833 53.556 34.084 59.4616 31.1842 63.2055C28.1807 67.0834 20.6758 66.9736 16.3397 64.311C12.0367 61.6687 9.36813 55.5999 12.2033 51.8264C15.1736 47.8731 23.1396 47.8308 27.6323 50.877Z" fill="#FFD833"/>
<path d="M66.9615 29.2304C68.2009 24.5116 73.0875 19.3277 77.7415 19.8108C82.5621 20.3112 85.0591 26.6762 83.9692 31.71C82.8877 36.7055 77.9002 42.1157 73.2399 41.7023C68.3573 41.2692 65.5521 34.5962 66.9615 29.2304Z" fill="#FFD833"/>
<path d="M42.7596 26.0711C41.2191 21.0172 43.0541 13.55 47.9961 11.4698C53.1149 9.31521 59.3645 13.8672 61.2404 19.1323C63.102 24.3572 61.2994 32.0893 56.3922 34.2376C51.2509 36.4883 44.5113 31.8178 42.7596 26.0711Z" fill="#FFD833"/>
<path d="M21.2441 39.0774C18.3995 34.6346 18.2835 27.1489 22.6556 24.0705C27.1841 20.8819 34.5793 23.7937 37.8121 28.3614C41.0202 32.8942 41.2374 40.6236 36.9176 43.7587C32.3918 47.0434 24.4787 44.1292 21.2441 39.0774Z" fill="#FFD833"/>
<path d="M47.6066 42.2024C43.6585 44.1085 41.7002 47.3755 40.4512 49.5227C38.2662 53.2792 38.8252 54.7187 37.035 61.6603C34.6729 70.8199 32.9115 71.3702 33.2572 75.491C33.3524 76.6257 33.8322 82.3452 38.7812 85.6365C43.8529 89.0093 51.4259 88.3742 56.3167 85.4574C60.732 82.8241 60.3204 79.9063 65.1054 77.6334C69.5195 75.5365 71.1419 77.4154 75.5141 75.8246C82.0361 73.4517 88.1314 65.7401 87.2957 58.7983C86.7777 54.4958 83.759 51.8322 82.7165 50.9123C79.3609 47.9515 77.2903 48.8406 69.1625 45.6415C62.4772 43.0102 61.9983 41.6688 57.508 41.0986C54.9958 40.7796 51.4012 40.3705 47.6066 42.2024Z" fill="#FFD833"/>
</svg>
