<svg width="67" height="28" viewBox="0 0 67 28" fill="none" xmlns="http://www.w3.org/2000/svg">
<path d="M0.98035 13.4609V3.06688L-0.000221252 0.624367H5.13441C6.20412 0.624367 7.08961 0.772938 7.79086 1.07008C8.49212 1.35534 9.01509 1.84265 9.35978 2.53202C9.70446 3.2214 9.87681 4.16037 9.87681 5.34894C9.87681 6.98917 9.48458 8.1718 8.70012 8.89682C7.91566 9.62185 6.72709 9.98437 5.13441 9.98437H4.45692V13.4609H0.98035ZM4.45692 7.43488C5.02744 7.43488 5.44938 7.28037 5.72275 6.97134C6.00801 6.66231 6.15064 6.10962 6.15064 5.31328C6.15064 4.70711 6.09715 4.24951 5.99018 3.94048C5.89509 3.63145 5.72275 3.42345 5.47315 3.31648C5.23544 3.19762 4.89669 3.13819 4.45692 3.13819V7.43488ZM13.0825 13.6392C12.607 13.6392 12.1613 13.5204 11.7453 13.2827C11.3293 13.0331 10.9906 12.6765 10.7291 12.2129C10.4676 11.7494 10.3369 11.1908 10.3369 10.5371C10.3369 9.51488 10.6934 8.74231 11.4066 8.21934C12.1316 7.69637 13.0646 7.43488 14.2057 7.43488H14.9723V6.45431C14.9723 6.10962 14.8534 5.87785 14.6157 5.759C14.378 5.62825 14.0749 5.56288 13.7065 5.56288C13.2548 5.56288 12.821 5.60448 12.405 5.68768C11.989 5.77088 11.573 5.88974 11.157 6.04425V3.54825C11.6918 3.42939 12.2445 3.32242 12.815 3.22734C13.3974 3.12037 13.9798 3.06688 14.5622 3.06688C15.216 3.06688 15.8162 3.15008 16.3629 3.31648C16.9097 3.471 17.3494 3.75625 17.6822 4.17225C18.015 4.58825 18.1814 5.18254 18.1814 5.95511V13.4609H15.4002L15.1862 12.6943C14.8891 13.0152 14.5563 13.2529 14.1878 13.4075C13.8194 13.562 13.4509 13.6392 13.0825 13.6392ZM14.3305 11.2859C14.5682 11.2859 14.7821 11.1789 14.9723 10.9649V9.19991H14.7405C14.384 9.19991 14.0809 9.28905 13.8313 9.46734C13.5817 9.63374 13.4569 9.88928 13.4569 10.234C13.4569 10.5668 13.546 10.8283 13.7243 11.0184C13.9026 11.1967 14.1046 11.2859 14.3305 11.2859ZM23.7104 3.20951H25.6537V5.61637H23.7104V10.0557C23.7104 10.3885 23.7936 10.6321 23.96 10.7867C24.1383 10.9412 24.4176 11.0184 24.7979 11.0184C24.9881 11.0184 25.1545 11.0125 25.2971 11.0006C25.4398 10.9768 25.5586 10.9531 25.6537 10.9293V13.3005C25.3684 13.3956 25.0654 13.4728 24.7444 13.5323C24.4354 13.6036 24.1204 13.6392 23.7995 13.6392C22.706 13.6392 21.88 13.4075 21.3214 12.9439C20.7746 12.4685 20.5012 11.6246 20.5012 10.4123V5.61637H19.1641V3.20951H20.5012V0.96311H23.7104V3.20951ZM26.8938 3.20951H30.1029V13.4609H26.8938V3.20951ZM26.8046 0.000366616H30.192V2.42505H26.8046V0.000366616ZM34.6628 3.90482C35.3641 3.3462 36.1248 3.06688 36.9449 3.06688C37.765 3.06688 38.4425 3.32242 38.9773 3.83351C39.5241 4.3446 39.7975 5.11122 39.7975 6.1334V13.4609H36.5883V6.65042C36.5883 5.9254 36.2615 5.56288 35.6077 5.56288C35.3463 5.56288 35.1145 5.62825 34.9124 5.759V13.4609H31.7033V3.20951H34.4311L34.6628 3.90482ZM44.5273 3.72654C45.1692 3.28677 45.8466 3.06688 46.5598 3.06688C47.3799 3.06688 48.0574 3.32242 48.5922 3.83351C49.139 4.3446 49.4124 5.11122 49.4124 6.1334V13.4609H46.2032V6.65042C46.2032 5.9254 45.8764 5.56288 45.2226 5.56288C44.9612 5.56288 44.7294 5.62825 44.5273 5.759V13.4609H41.3182V0.46391L44.5273 0.000366616V3.72654ZM53.3221 13.6392C52.8467 13.6392 52.401 13.5204 51.985 13.2827C51.569 13.0331 51.2302 12.6765 50.9687 12.2129C50.7073 11.7494 50.5765 11.1908 50.5765 10.5371C50.5765 9.51488 50.9331 8.74231 51.6462 8.21934C52.3713 7.69637 53.3043 7.43488 54.4453 7.43488H55.2119V6.45431C55.2119 6.10962 55.0931 5.87785 54.8554 5.759C54.6177 5.62825 54.3146 5.56288 53.9461 5.56288C53.4945 5.56288 53.0606 5.60448 52.6446 5.68768C52.2286 5.77088 51.8126 5.88974 51.3966 6.04425V3.54825C51.9315 3.42939 52.4842 3.32242 53.0547 3.22734C53.6371 3.12037 54.2195 3.06688 54.8019 3.06688C55.4556 3.06688 56.0558 3.15008 56.6026 3.31648C57.1493 3.471 57.5891 3.75625 57.9219 4.17225C58.2547 4.58825 58.4211 5.18254 58.4211 5.95511V13.4609H55.6398L55.4259 12.6943C55.1287 13.0152 54.7959 13.2529 54.4275 13.4075C54.059 13.562 53.6906 13.6392 53.3221 13.6392ZM54.5701 11.2859C54.8078 11.2859 55.0218 11.1789 55.2119 10.9649V9.19991H54.9802C54.6236 9.19991 54.3205 9.28905 54.0709 9.46734C53.8213 9.63374 53.6965 9.88928 53.6965 10.234C53.6965 10.5668 53.7857 10.8283 53.9639 11.0184C54.1422 11.1967 54.3443 11.2859 54.5701 11.2859ZM63.2369 10.4657C63.2369 10.2637 63.0883 10.0676 62.7912 9.87739L61.2579 8.879C60.6993 8.51054 60.2952 8.11237 60.0456 7.68448C59.796 7.2566 59.6712 6.69797 59.6712 6.0086C59.6712 5.02208 59.9624 4.29111 60.5448 3.81568C61.1272 3.32837 62.084 3.07877 63.4152 3.06688C63.9144 3.06688 64.372 3.09065 64.788 3.13819C65.2159 3.17385 65.5546 3.21545 65.8042 3.263C66.0657 3.31054 66.1964 3.33431 66.1964 3.33431L65.929 5.70551C65.929 5.70551 65.8399 5.69362 65.6616 5.66985C65.4833 5.64608 65.2515 5.62231 64.9663 5.59854C64.6929 5.56288 64.4076 5.54505 64.1105 5.54505C63.6826 5.54505 63.3736 5.58071 63.1834 5.65202C62.9932 5.72334 62.8981 5.86002 62.8981 6.06208C62.8981 6.18094 62.9338 6.28197 63.0051 6.36517C63.0764 6.43648 63.1893 6.51968 63.3439 6.61477L64.9128 7.63099C65.4833 7.99945 65.8933 8.39762 66.1429 8.82551C66.3925 9.24151 66.5173 9.78231 66.5173 10.4479C66.5173 11.5057 66.2143 12.3021 65.6081 12.8369C65.0019 13.3599 64.0095 13.6273 62.6307 13.6392C62.0245 13.6392 61.4659 13.6036 60.9548 13.5323C60.4556 13.4728 59.998 13.3896 59.582 13.2827L59.8495 10.858C59.8495 10.858 60.0693 10.8936 60.5091 10.9649C60.9489 11.0244 61.5313 11.0541 62.2563 11.0541C62.91 11.0541 63.2369 10.858 63.2369 10.4657ZM21.3656 22.1124C21.4963 21.6251 21.5795 21.1377 21.6152 20.6504C21.6627 20.1631 21.6865 19.7531 21.6865 19.4203H25.0026C25.0026 19.8719 24.961 20.4008 24.8778 21.007C24.7946 21.6013 24.646 22.2075 24.4321 22.8255C24.2182 23.4436 23.921 24.026 23.5407 24.5727L26.0902 27.4431H21.5439L20.9734 26.7835C20.6406 27.0568 20.2127 27.2708 19.6897 27.4253C19.1667 27.5679 18.5903 27.6392 17.9603 27.6392C17.1164 27.6392 16.3855 27.4491 15.7674 27.0687C15.1494 26.6765 14.6739 26.1773 14.3411 25.5711C14.0202 24.9649 13.8598 24.3291 13.8598 23.6635C13.8598 23.2475 13.9192 22.8315 14.038 22.4155C14.1569 21.9876 14.359 21.5953 14.6442 21.2388C14.9414 20.8822 15.3395 20.5969 15.8387 20.383C15.6248 19.9789 15.4584 19.5867 15.3395 19.2063C15.2326 18.826 15.1791 18.4516 15.1791 18.0831C15.1791 17.2392 15.3633 16.5558 15.7318 16.0328C16.1002 15.498 16.5935 15.1117 17.2115 14.874C17.8415 14.6244 18.5487 14.4996 19.3331 14.4996C19.7729 14.4996 20.2246 14.5352 20.6881 14.6065C21.1516 14.666 21.6211 14.7611 22.0966 14.8918L21.847 17.6731C21.5974 17.578 21.3359 17.5007 21.0625 17.4413C20.801 17.3819 20.5455 17.3521 20.2959 17.3521C19.8204 17.3521 19.4401 17.4472 19.1548 17.6374C18.8815 17.8157 18.7448 18.1069 18.7448 18.511C18.7448 18.9151 19.0063 19.4203 19.5292 20.0264L21.3656 22.1124ZM19.1548 25.0184C19.2143 25.0184 19.2737 25.0184 19.3331 25.0184C19.4044 25.0184 19.4758 25.0125 19.5471 25.0006L17.2472 22.2907C17.1878 22.5284 17.158 22.7661 17.158 23.0038C17.158 23.5505 17.3185 24.026 17.6394 24.4301C17.9603 24.8223 18.4655 25.0184 19.1548 25.0184ZM31.5295 21.1318C31.5295 19.444 31.7257 18.1188 32.1179 17.156C32.5101 16.1814 33.0985 15.492 33.8829 15.0879C34.6793 14.6838 35.6658 14.4817 36.8425 14.4817C37.2228 14.4817 37.6566 14.5055 38.1439 14.5531C38.6431 14.5887 39.1245 14.66 39.5881 14.767V19.4737H37.4308L37.1455 17.3165C36.8246 17.3165 36.5453 17.3581 36.3076 17.4413C36.0818 17.5126 35.8916 17.6731 35.7371 17.9227C35.5826 18.1723 35.4637 18.5526 35.3805 19.0637C35.3092 19.5748 35.2735 20.2582 35.2735 21.114C35.2735 22.0411 35.3746 22.772 35.5766 23.3069C35.7787 23.8299 36.0818 24.2043 36.4859 24.4301C36.9019 24.644 37.4308 24.751 38.0726 24.751C38.3579 24.751 38.6313 24.7332 38.8927 24.6975C39.1542 24.6619 39.4335 24.6203 39.7307 24.5727V27.3896C39.386 27.4728 38.97 27.5323 38.4827 27.5679C37.9954 27.6155 37.5615 27.6392 37.1812 27.6392C35.1487 27.6392 33.6987 27.0925 32.831 25.999C31.9634 24.9055 31.5295 23.2831 31.5295 21.1318ZM41.0657 17.2095H44.2749V27.4609H41.0657V17.2095ZM40.9766 14.0004H44.364V16.4251H40.9766V14.0004ZM48.2643 27.6392C47.7889 27.6392 47.3432 27.5204 46.9272 27.2827C46.5112 27.0331 46.1724 26.6765 45.9109 26.2129C45.6494 25.7494 45.5187 25.1908 45.5187 24.5371C45.5187 23.5149 45.8753 22.7423 46.5884 22.2193C47.3134 21.6964 48.2465 21.4349 49.3875 21.4349H50.1541V20.4543C50.1541 20.1096 50.0353 19.8779 49.7976 19.759C49.5598 19.6283 49.2568 19.5629 48.8883 19.5629C48.4366 19.5629 48.0028 19.6045 47.5868 19.6877C47.1708 19.7709 46.7548 19.8897 46.3388 20.0443V17.5483C46.8737 17.4294 47.4264 17.3224 47.9969 17.2273C48.5793 17.1204 49.1617 17.0669 49.7441 17.0669C50.3978 17.0669 50.998 17.1501 51.5448 17.3165C52.0915 17.471 52.5313 17.7563 52.8641 18.1723C53.1969 18.5883 53.3633 19.1825 53.3633 19.9551V27.4609H50.582L50.3681 26.6943C50.0709 27.0152 49.7381 27.2529 49.3697 27.4075C49.0012 27.562 48.6328 27.6392 48.2643 27.6392ZM49.5123 25.2859C49.75 25.2859 49.964 25.1789 50.1541 24.9649V23.1999H49.9224C49.5658 23.1999 49.2627 23.2891 49.0131 23.4673C48.7635 23.6337 48.6387 23.8893 48.6387 24.234C48.6387 24.5668 48.7278 24.8283 48.9061 25.0184C49.0844 25.1967 49.2865 25.2859 49.5123 25.2859Z" fill="#444444"/>
</svg>
