<svg width="1728" height="297" viewBox="0 0 1728 297" fill="none" xmlns="http://www.w3.org/2000/svg">
<path d="M132.976 151.415C133.792 152.563 135.82 152.534 137.44 151.258C138.674 150.286 139.847 148.025 138.951 146.941C138.461 146.349 136.138 145.863 134.488 147.098C132.838 148.333 132.161 150.266 132.976 151.415Z" fill="#FCA11D" fill-opacity="0.59"/>
<path d="M130.046 148.025C130.749 147.168 131.093 144.97 130.164 144.307C129.524 143.85 127.703 144.197 126.718 145.573C125.735 146.949 125.682 148.613 126.6 149.29C127.519 149.967 128.973 149.331 130.046 148.025Z" fill="#FCA11D" fill-opacity="0.59"/>
<path d="M127.916 164.861C129.668 164.034 129.815 162.837 130.033 161.699C130.237 160.635 130.815 159.687 131.643 158.998C133.109 157.778 133.598 155.794 132.962 154.061C132.326 152.328 130.692 151.191 128.819 151.303C127.761 151.366 126.724 151.061 125.891 150.411C125 149.715 124.124 148.926 122.29 149.529C120.027 150.273 118.945 152.951 119.77 155.199C120.002 155.832 120.365 156.375 120.815 156.808C121.303 157.276 121.676 157.845 121.909 158.468C122.135 159.094 122.221 159.777 122.158 160.466C122.099 161.102 122.176 161.758 122.409 162.391C123.233 164.639 125.754 165.881 127.916 164.861Z" fill="#FCA11D" fill-opacity="0.59"/>
<path d="M134.686 156.053C134.82 157.475 136.565 158.436 138.584 158.199C140.603 157.963 142.014 155.979 141.997 155.197C141.964 153.767 139.639 152.909 138.098 153.05C136.075 153.236 134.552 154.631 134.686 156.053Z" fill="#FCA11D" fill-opacity="0.59"/>
<path d="M131.321 162.082C131.074 163.226 132.184 164.424 133.8 164.757C135.415 165.09 136.989 164.075 137.17 163.289C137.432 162.148 135.764 160.757 134.691 160.613C133.055 160.393 131.567 160.937 131.321 162.082Z" fill="#FCA11D" fill-opacity="0.59"/>
<path d="M1095.46 63.2233C1096.08 64.494 1098.08 64.8093 1099.89 63.8259C1101.27 63.0769 1102.8 61.0466 1102.09 59.8262C1101.71 59.1591 1099.5 58.2857 1097.67 59.2238C1095.84 60.1618 1094.85 61.9523 1095.46 63.2233Z" fill="#FCA11D" fill-opacity="0.59"/>
<path d="M1093.13 59.3824C1093.97 58.6569 1094.67 56.5488 1093.86 55.7375C1093.31 55.1783 1091.45 55.2111 1090.26 56.401C1089.06 57.5908 1088.73 59.2226 1089.53 60.046C1090.32 60.8693 1091.86 60.4882 1093.13 59.3824Z" fill="#FCA11D" fill-opacity="0.59"/>
<path d="M1088.26 75.6183C1090.12 75.1007 1090.47 73.9451 1090.87 72.8603C1091.25 71.8458 1091.97 71.0089 1092.9 70.4702C1094.55 69.5163 1095.36 67.6431 1095.02 65.8268C1094.67 64.0106 1093.25 62.6121 1091.38 62.4043C1090.33 62.2868 1089.36 61.8109 1088.65 61.028C1087.88 60.1911 1087.15 59.2642 1085.24 59.5478C1082.89 59.8979 1081.38 62.3546 1081.82 64.7108C1081.95 65.3745 1082.21 65.9708 1082.59 66.4741C1082.99 67.0191 1083.27 67.6429 1083.39 68.2968C1083.51 68.9523 1083.48 69.6403 1083.31 70.3084C1083.15 70.9253 1083.11 71.5856 1083.24 72.2493C1083.68 74.6052 1085.96 76.257 1088.26 75.6183Z" fill="#FCA11D" fill-opacity="0.59"/>
<path d="M1096.38 68.0858C1096.28 69.5104 1097.84 70.754 1099.87 70.8633C1101.9 70.9729 1103.62 69.2558 1103.73 68.4818C1103.94 67.0665 1101.79 65.8267 1100.24 65.7044C1098.22 65.5437 1096.49 66.661 1096.38 68.0858Z" fill="#FCA11D" fill-opacity="0.59"/>
<path d="M1092.07 73.4574C1091.64 74.5439 1092.54 75.9132 1094.08 76.516C1095.62 77.1184 1097.34 76.3843 1097.64 75.6397C1098.09 74.5594 1096.67 72.9057 1095.64 72.5816C1094.06 72.0872 1092.51 72.371 1092.07 73.4574Z" fill="#FCA11D" fill-opacity="0.59"/>
<path d="M1155 28.6332C1154.99 30.0486 1156.65 31.2334 1158.7 31.1656C1160.26 31.1139 1162.52 29.9827 1162.42 28.5716C1162.37 27.8002 1160.77 26.0224 1158.72 26.0394C1156.67 26.0563 1155 27.2176 1155 28.6332Z" fill="#FCA11D" fill-opacity="0.59"/>
<path d="M1154.59 24.1404C1155.65 23.8658 1157.2 22.2915 1156.83 21.2015C1156.58 20.4503 1154.9 19.6457 1153.31 20.1734C1151.72 20.7011 1150.71 22.0168 1151.06 23.1122C1151.42 24.2077 1152.96 24.5586 1154.59 24.1404Z" fill="#FCA11D" fill-opacity="0.59"/>
<path d="M1143.12 36.4998C1145.02 36.8745 1145.83 35.9929 1146.67 35.2019C1147.45 34.4621 1148.46 34.0385 1149.53 33.9742C1151.43 33.8603 1152.97 32.5456 1153.46 30.7641C1153.94 28.9826 1153.28 27.0881 1151.7 26.0625C1150.81 25.4833 1150.14 24.6191 1149.85 23.5959C1149.53 22.5019 1149.27 21.3409 1147.44 20.7366C1145.18 19.9909 1142.75 21.514 1142.12 23.8251C1141.94 24.4762 1141.92 25.1314 1142.04 25.7503C1142.16 26.4205 1142.13 27.103 1141.96 27.7461C1141.78 28.3874 1141.46 28.9917 1141.01 29.5112C1140.59 29.9911 1140.27 30.5684 1140.09 31.2195C1139.46 33.5303 1140.78 36.0372 1143.12 36.4998Z" fill="#FCA11D" fill-opacity="0.59"/>
<path d="M1153.7 33.4051C1152.98 34.6361 1153.84 36.4539 1155.61 37.4654C1157.38 38.477 1159.67 37.7114 1160.11 37.0678C1160.91 35.891 1159.53 33.8114 1158.2 33.0076C1156.45 31.9521 1154.41 32.1739 1153.7 33.4051Z" fill="#FCA11D" fill-opacity="0.59"/>
<path d="M1147.49 36.2783C1146.63 37.058 1146.83 38.6889 1147.95 39.9213C1149.06 41.1534 1150.92 41.2694 1151.52 40.7406C1152.4 39.9733 1151.85 37.8539 1151.06 37.0979C1149.87 35.9451 1148.35 35.4986 1147.49 36.2783Z" fill="#FCA11D" fill-opacity="0.59"/>
<path d="M178.569 123.343C179.133 124.638 181.123 125.035 182.968 124.126C184.373 123.434 185.982 121.468 185.326 120.22C184.967 119.537 182.793 118.574 180.927 119.437C179.061 120.299 178.006 122.048 178.569 123.343Z" fill="#FCA11D" fill-opacity="0.59"/>
<path d="M176.391 119.41C177.254 118.719 178.038 116.641 177.264 115.798C176.731 115.216 174.879 115.173 173.635 116.313C172.392 117.453 172.002 119.07 172.763 119.925C173.524 120.781 175.076 120.463 176.391 119.41Z" fill="#FCA11D" fill-opacity="0.59"/>
<path d="M170.88 135.437C172.762 134.995 173.15 133.855 173.595 132.787C174.012 131.789 174.77 130.982 175.72 130.482C177.403 129.596 178.286 127.758 178.017 125.929C177.748 124.1 176.38 122.645 174.525 122.361C173.477 122.201 172.525 121.685 171.842 120.874C171.112 120.006 170.415 119.05 168.499 119.256C166.133 119.509 164.528 121.902 164.877 124.275C164.976 124.943 165.22 125.55 165.573 126.068C165.955 126.629 166.204 127.263 166.305 127.922C166.398 128.582 166.343 129.268 166.141 129.929C165.954 130.538 165.896 131.197 165.995 131.865C166.343 134.237 168.556 135.981 170.88 135.437Z" fill="#FCA11D" fill-opacity="0.59"/>
<path d="M179.296 128.24C179.138 129.659 180.649 130.966 182.673 131.158C184.696 131.35 186.481 129.705 186.623 128.936C186.883 127.53 184.783 126.203 183.246 126.018C181.229 125.775 179.454 126.82 179.296 128.24Z" fill="#FCA11D" fill-opacity="0.59"/>
<path d="M174.775 133.431C174.301 134.499 175.143 135.903 176.656 136.568C178.168 137.233 179.916 136.57 180.253 135.839C180.742 134.777 179.393 133.067 178.372 132.701C176.816 132.143 175.249 132.363 174.775 133.431Z" fill="#FCA11D" fill-opacity="0.59"/>
<path d="M655.881 150.354C657.064 151.105 658.93 150.3 659.955 148.497C660.735 147.123 660.979 144.58 659.746 143.92C659.072 143.56 656.739 144.001 655.672 145.778C654.605 147.555 654.699 149.603 655.881 150.354Z" fill="#FCA11D" fill-opacity="0.59"/>
<path d="M651.906 148.34C652.238 147.277 651.737 145.111 650.63 144.853C649.868 144.676 648.31 145.696 647.912 147.347C647.514 148.999 648.085 150.56 649.188 150.834C650.291 151.108 651.4 149.961 651.906 148.34Z" fill="#FCA11D" fill-opacity="0.59"/>
<path d="M656.207 164.74C657.521 163.302 657.211 162.137 656.989 161C656.781 159.937 656.963 158.838 657.472 157.882C658.375 156.19 658.089 154.166 656.855 152.806C655.621 151.445 653.684 151.02 651.991 151.842C651.036 152.306 649.962 152.422 648.949 152.139C647.864 151.837 646.759 151.443 645.286 152.704C643.469 154.262 643.464 157.156 645.066 158.921C645.517 159.418 646.054 159.781 646.633 160.009C647.259 160.256 647.817 160.639 648.264 161.127C648.706 161.619 649.041 162.219 649.238 162.88C649.421 163.491 649.737 164.07 650.188 164.567C651.789 166.331 654.585 166.513 656.207 164.74Z" fill="#FCA11D" fill-opacity="0.59"/>
<path d="M659.191 153.99C659.845 155.255 661.818 155.475 663.6 154.481C665.38 153.488 665.947 151.109 665.64 150.392C665.077 149.081 662.605 149.179 661.231 149.901C659.427 150.849 658.536 152.725 659.191 153.99Z" fill="#FCA11D" fill-opacity="0.59"/>
<path d="M658.321 160.861C658.519 162.015 659.993 162.698 661.613 162.387C663.232 162.075 664.312 160.531 664.186 159.734C664.004 158.577 661.941 157.93 660.894 158.208C659.298 158.633 658.122 159.707 658.321 160.861Z" fill="#FCA11D" fill-opacity="0.59"/>
<path d="M723.856 149.838C725.038 150.588 726.905 149.783 727.929 147.98C728.71 146.607 728.954 144.063 727.72 143.404C727.046 143.043 724.714 143.485 723.647 145.262C722.58 147.038 722.673 149.087 723.856 149.838Z" fill="#FCA11D" fill-opacity="0.59"/>
<path d="M719.879 147.823C720.211 146.76 719.71 144.594 718.603 144.337C717.84 144.159 716.283 145.179 715.885 146.831C715.487 148.482 716.058 150.043 717.16 150.317C718.263 150.591 719.372 149.444 719.879 147.823Z" fill="#FCA11D" fill-opacity="0.59"/>
<path d="M724.179 164.223C725.493 162.786 725.183 161.621 724.961 160.484C724.754 159.42 724.935 158.321 725.445 157.366C726.348 155.674 726.062 153.649 724.827 152.289C723.593 150.929 721.656 150.503 719.964 151.325C719.008 151.789 717.935 151.905 716.921 151.622C715.837 151.321 714.732 150.926 713.259 152.188C711.441 153.745 711.437 156.64 713.038 158.404C713.489 158.901 714.027 159.264 714.606 159.492C715.232 159.739 715.789 160.122 716.237 160.61C716.679 161.103 717.013 161.702 717.211 162.364C717.394 162.975 717.71 163.553 718.161 164.05C719.762 165.814 722.558 165.997 724.179 164.223Z" fill="#FCA11D" fill-opacity="0.59"/>
<path d="M727.165 153.474C727.819 154.738 729.793 154.958 731.574 153.965C733.355 152.971 733.922 150.593 733.614 149.876C733.052 148.564 730.58 148.663 729.206 149.385C727.402 150.332 726.511 152.209 727.165 153.474Z" fill="#FCA11D" fill-opacity="0.59"/>
<path d="M726.296 160.344C726.494 161.498 727.968 162.181 729.587 161.87C731.207 161.559 732.286 160.015 732.161 159.217C731.978 158.06 729.916 157.413 728.869 157.692C727.272 158.116 726.097 159.191 726.296 160.344Z" fill="#FCA11D" fill-opacity="0.59"/>
<path d="M721.252 84.4735C722.435 85.224 724.302 84.4189 725.326 82.6158C726.106 81.2424 726.35 78.6988 725.117 78.0394C724.443 77.679 722.111 78.1206 721.043 79.8973C719.976 81.6739 720.07 83.7226 721.252 84.4735Z" fill="#FCA11D" fill-opacity="0.59"/>
<path d="M717.275 82.462C717.607 81.3987 717.106 79.233 715.999 78.9754C715.237 78.7977 713.68 79.8176 713.281 81.4693C712.883 83.1208 713.454 84.6817 714.557 84.9559C715.66 85.2301 716.769 84.0827 717.275 82.462Z" fill="#FCA11D" fill-opacity="0.59"/>
<path d="M721.576 98.8617C722.89 97.4244 722.58 96.2595 722.358 95.1224C722.151 94.0589 722.332 92.9596 722.842 92.0042C723.744 90.3124 723.458 88.2879 722.224 86.9277C720.99 85.5675 719.053 85.1419 717.36 85.9638C716.405 86.4277 715.331 86.5438 714.318 86.2611C713.233 85.9593 712.128 85.5647 710.655 86.8266C708.838 88.3842 708.834 91.2786 710.435 93.0431C710.886 93.5401 711.424 93.9031 712.002 94.1309C712.628 94.3778 713.186 94.7609 713.633 95.2486C714.075 95.7416 714.41 96.3407 714.608 97.0025C714.79 97.6135 715.106 98.1916 715.557 98.6886C717.158 100.453 719.954 100.635 721.576 98.8617Z" fill="#FCA11D" fill-opacity="0.59"/>
<path d="M724.562 88.1133C725.216 89.378 727.19 89.5981 728.971 88.6043C730.751 87.6111 731.319 85.2325 731.011 84.5153C730.448 83.2039 727.976 83.3024 726.602 84.0243C724.798 84.972 723.908 86.8482 724.562 88.1133Z" fill="#FCA11D" fill-opacity="0.59"/>
<path d="M723.692 94.9831C723.891 96.1369 725.364 96.82 726.984 96.5089C728.604 96.1974 729.683 94.6533 729.557 93.8559C729.375 92.6991 727.313 92.0521 726.265 92.3305C724.669 92.7546 723.494 93.8293 723.692 94.9831Z" fill="#FCA11D" fill-opacity="0.59"/>
<path d="M782.524 99.5329C783.139 100.804 785.143 101.119 786.951 100.135C788.328 99.3864 789.857 97.3562 789.152 96.1357C788.767 95.4686 786.556 94.5953 784.726 95.5334C782.896 96.4713 781.91 98.2619 782.524 99.5329Z" fill="#FCA11D" fill-opacity="0.59"/>
<path d="M780.194 95.693C781.028 94.9674 781.729 92.8593 780.922 92.048C780.367 91.4888 778.514 91.5216 777.317 92.7116C776.12 93.9014 775.794 95.5332 776.588 96.3565C777.383 97.1799 778.921 96.7987 780.194 95.693Z" fill="#FCA11D" fill-opacity="0.59"/>
<path d="M775.321 111.93C777.184 111.413 777.526 110.257 777.929 109.172C778.306 108.158 779.031 107.321 779.961 106.782C781.607 105.828 782.416 103.955 782.075 102.139C781.734 100.323 780.309 98.9241 778.444 98.7163C777.391 98.5989 776.419 98.1229 775.705 97.34C774.941 96.5031 774.207 95.5762 772.3 95.8598C769.946 96.2099 768.438 98.6666 768.881 101.023C769.006 101.687 769.274 102.283 769.647 102.786C770.05 103.331 770.325 103.955 770.451 104.609C770.571 105.264 770.543 105.952 770.367 106.62C770.205 107.237 770.173 107.898 770.298 108.561C770.741 110.917 773.021 112.569 775.321 111.93Z" fill="#FCA11D" fill-opacity="0.59"/>
<path d="M783.445 104.394C783.343 105.819 784.905 107.062 786.935 107.171C788.964 107.281 790.682 105.564 790.794 104.79C790.998 103.375 788.846 102.135 787.304 102.013C785.278 101.852 783.547 102.969 783.445 104.394Z" fill="#FCA11D" fill-opacity="0.59"/>
<path d="M779.135 109.767C778.704 110.853 779.601 112.222 781.139 112.825C782.676 113.427 784.396 112.693 784.704 111.949C785.15 110.868 783.735 109.215 782.7 108.891C781.123 108.396 779.566 108.68 779.135 109.767Z" fill="#FCA11D" fill-opacity="0.59"/>
<path d="M805.296 44.0758C805.91 45.3465 807.915 45.6619 809.722 44.6785C811.099 43.9294 812.629 41.8991 811.924 40.6787C811.538 40.0116 809.327 39.1382 807.497 40.0763C805.667 41.0143 804.682 42.8049 805.296 44.0758Z" fill="#FCA11D" fill-opacity="0.59"/>
<path d="M802.965 40.235C803.8 39.5094 804.5 37.4013 803.694 36.59C803.138 36.0308 801.285 36.0636 800.088 37.2536C798.892 38.4434 798.565 40.0752 799.36 40.8985C800.154 41.7218 801.693 41.3407 802.965 40.235Z" fill="#FCA11D" fill-opacity="0.59"/>
<path d="M798.092 56.4703C799.956 55.9527 800.298 54.7971 800.7 53.7124C801.077 52.6978 801.802 51.8609 802.732 51.3223C804.379 50.3683 805.188 48.4951 804.846 46.6789C804.505 44.8626 803.081 43.4641 801.216 43.2564C800.163 43.1389 799.191 42.663 798.476 41.8801C797.712 41.0432 796.978 40.1163 795.071 40.3998C792.717 40.7499 791.209 43.2067 791.652 45.5628C791.777 46.2266 792.045 46.8229 792.418 47.3261C792.822 47.8711 793.096 48.495 793.223 49.1489C793.342 49.8044 793.315 50.4923 793.139 51.1604C792.977 51.7774 792.945 52.4376 793.069 53.1014C793.512 55.4573 795.793 57.1091 798.092 56.4703Z" fill="#FCA11D" fill-opacity="0.59"/>
<path d="M806.216 48.9384C806.115 50.363 807.677 51.6066 809.707 51.7159C811.736 51.8254 813.454 50.1083 813.565 49.3343C813.769 47.919 811.618 46.6792 810.075 46.5569C808.05 46.3963 806.318 47.5135 806.216 48.9384Z" fill="#FCA11D" fill-opacity="0.59"/>
<path d="M801.907 54.3095C801.476 55.3959 802.372 56.7652 803.91 57.368C805.448 57.9705 807.167 57.2364 807.475 56.4918C807.922 55.4114 806.506 53.7577 805.472 53.4337C803.895 52.9393 802.338 53.223 801.907 54.3095Z" fill="#FCA11D" fill-opacity="0.59"/>
<path d="M852.787 83.6911C853.402 84.9618 855.406 85.2771 857.214 84.2937C858.59 83.5446 860.12 81.5144 859.415 80.2939C859.029 79.6268 856.819 78.7535 854.988 79.6916C853.158 80.6295 852.173 82.4201 852.787 83.6911Z" fill="#FCA11D" fill-opacity="0.59"/>
<path d="M850.457 79.8463C851.292 79.1207 851.992 77.0126 851.186 76.2013C850.631 75.6422 848.778 75.675 847.581 76.8649C846.384 78.0547 846.058 79.6865 846.852 80.5098C847.646 81.3332 849.185 80.952 850.457 79.8463Z" fill="#FCA11D" fill-opacity="0.59"/>
<path d="M845.584 96.0851C847.448 95.5675 847.79 94.4119 848.193 93.3271C848.569 92.3126 849.295 91.4757 850.224 90.937C851.871 89.9831 852.68 88.1099 852.339 86.2936C851.997 84.4774 850.573 83.0789 848.708 82.8711C847.655 82.7536 846.683 82.2777 845.968 81.4948C845.204 80.6579 844.47 79.731 842.563 80.0146C840.209 80.3647 838.701 82.8214 839.144 85.1776C839.269 85.8413 839.537 86.4376 839.91 86.9409C840.314 87.4859 840.588 88.1097 840.715 88.7636C840.835 89.4191 840.807 90.1071 840.631 90.7752C840.469 91.3921 840.437 92.0524 840.562 92.7161C841.004 95.072 843.285 96.7238 845.584 96.0851Z" fill="#FCA11D" fill-opacity="0.59"/>
<path d="M853.71 88.5487C853.609 89.9733 855.171 91.2169 857.201 91.3262C859.23 91.4358 860.948 89.7187 861.06 88.9447C861.263 87.5294 859.112 86.2895 857.569 86.1673C855.544 86.0066 853.812 87.1239 853.71 88.5487Z" fill="#FCA11D" fill-opacity="0.59"/>
<path d="M849.398 93.9213C848.967 95.0078 849.864 96.377 851.401 96.9799C852.939 97.5823 854.659 96.8482 854.966 96.1036C855.413 95.0233 853.997 93.3695 852.963 93.0455C851.386 92.5511 849.829 92.8349 849.398 93.9213Z" fill="#FCA11D" fill-opacity="0.59"/>
<path d="M896.38 25.5836C896.994 26.8543 898.999 27.1697 900.806 26.1863C902.183 25.4372 903.713 23.4069 903.008 22.1865C902.622 21.5194 900.411 20.6461 898.581 21.5842C896.751 22.5221 895.766 24.3127 896.38 25.5836Z" fill="#FCA11D" fill-opacity="0.59"/>
<path d="M894.049 21.7457C894.884 21.0201 895.584 18.9121 894.778 18.1007C894.222 17.5416 892.369 17.5744 891.172 18.7643C889.976 19.9541 889.649 21.5859 890.444 22.4093C891.238 23.2326 892.777 22.8515 894.049 21.7457Z" fill="#FCA11D" fill-opacity="0.59"/>
<path d="M889.176 37.9811C891.04 37.4634 891.382 36.3079 891.784 35.2231C892.161 34.2086 892.886 33.3717 893.816 32.833C895.463 31.8791 896.272 30.0059 895.93 28.1896C895.589 26.3734 894.165 24.9749 892.3 24.7671C891.247 24.6496 890.275 24.1737 889.56 23.3908C888.796 22.5539 888.062 21.627 886.155 21.9106C883.801 22.2607 882.293 24.7174 882.736 27.0736C882.861 27.7373 883.129 28.3336 883.502 28.8369C883.906 29.3819 884.18 30.0057 884.307 30.6596C884.426 31.3151 884.399 32.0031 884.223 32.6712C884.061 33.2881 884.029 33.9484 884.153 34.6121C884.596 36.968 886.877 38.6198 889.176 37.9811Z" fill="#FCA11D" fill-opacity="0.59"/>
<path d="M897.3 30.4452C897.199 31.8698 898.761 33.1134 900.791 33.2227C902.82 33.3323 904.538 31.6152 904.649 30.8411C904.853 29.4259 902.702 28.186 901.159 28.0638C899.134 27.9031 897.402 29.0204 897.3 30.4452Z" fill="#FCA11D" fill-opacity="0.59"/>
<path d="M892.991 35.8202C892.56 36.9067 893.456 38.276 894.994 38.8788C896.532 39.4812 898.251 38.7471 898.559 38.0025C899.006 36.9222 897.59 35.2684 896.556 34.9444C894.979 34.45 893.422 34.7338 892.991 35.8202Z" fill="#FCA11D" fill-opacity="0.59"/>
<path d="M946.477 60.5788C947.091 61.8494 949.095 62.1648 950.903 61.1814C952.28 60.4323 953.809 58.4021 953.104 57.1816C952.719 56.5145 950.508 55.6412 948.678 56.5793C946.848 57.5172 945.862 59.3078 946.477 60.5788Z" fill="#FCA11D" fill-opacity="0.59"/>
<path d="M944.144 56.7369C944.979 56.0113 945.679 53.9033 944.873 53.092C944.317 52.5328 942.464 52.5656 941.267 53.7555C940.07 54.9453 939.744 56.5771 940.538 57.4005C941.333 58.2238 942.871 57.8427 944.144 56.7369Z" fill="#FCA11D" fill-opacity="0.59"/>
<path d="M939.274 72.9757C941.137 72.4581 941.479 71.3025 941.882 70.2178C942.259 69.2032 942.984 68.3663 943.914 67.8276C945.56 66.8737 946.369 65.0005 946.028 63.1843C945.687 61.368 944.262 59.9695 942.398 59.7618C941.344 59.6443 940.372 59.1683 939.658 58.3854C938.894 57.5485 938.16 56.6217 936.253 56.9052C933.899 57.2553 932.391 59.712 932.834 62.0682C932.959 62.7319 933.227 63.3282 933.6 63.8315C934.004 64.3765 934.278 65.0003 934.405 65.6542C934.524 66.3097 934.497 66.9977 934.321 67.6658C934.158 68.2828 934.126 68.943 934.251 69.6068C934.694 71.9627 936.974 73.6145 939.274 72.9757Z" fill="#FCA11D" fill-opacity="0.59"/>
<path d="M947.398 65.4403C947.296 66.8649 948.858 68.1085 950.888 68.2178C952.917 68.3274 954.636 66.6103 954.747 65.8363C954.951 64.421 952.799 63.1811 951.257 63.0589C949.232 62.8982 947.5 64.0155 947.398 65.4403Z" fill="#FCA11D" fill-opacity="0.59"/>
<path d="M943.087 70.8124C942.656 71.8989 943.553 73.2681 945.091 73.871C946.629 74.4734 948.348 73.7393 948.656 72.9947C949.102 71.9144 947.687 70.2606 946.652 69.9366C945.076 69.4422 943.518 69.726 943.087 70.8124Z" fill="#FCA11D" fill-opacity="0.59"/>
<path d="M982.259 22.2902C982.873 23.5609 984.878 23.8762 986.685 22.8928C988.062 22.1437 989.591 20.1135 988.887 18.8931C988.501 18.2259 986.29 17.3526 984.46 18.2907C982.63 19.2287 981.645 21.0192 982.259 22.2902Z" fill="#FCA11D" fill-opacity="0.59"/>
<path d="M979.928 18.4503C980.763 17.7247 981.463 15.6166 980.657 14.8053C980.101 14.2462 978.248 14.279 977.051 15.4689C975.855 16.6587 975.528 18.2905 976.323 19.1138C977.117 19.9372 978.656 19.556 979.928 18.4503Z" fill="#FCA11D" fill-opacity="0.59"/>
<path d="M975.056 34.6847C976.919 34.1671 977.262 33.0115 977.664 31.9267C978.041 30.9122 978.766 30.0753 979.696 29.5366C981.343 28.5827 982.152 26.7095 981.81 24.8932C981.469 23.077 980.045 21.6785 978.18 21.4707C977.127 21.3533 976.154 20.8773 975.44 20.0944C974.676 19.2575 973.942 18.3306 972.035 18.6142C969.681 18.9643 968.173 21.421 968.616 23.7772C968.741 24.4409 969.009 25.0372 969.382 25.5405C969.786 26.0855 970.06 26.7093 970.187 27.3632C970.306 28.0187 970.279 28.7067 970.103 29.3748C969.94 29.9917 969.908 30.652 970.033 31.3157C970.476 33.6716 972.756 35.3234 975.056 34.6847Z" fill="#FCA11D" fill-opacity="0.59"/>
<path d="M983.179 27.1523C983.077 28.5768 984.64 29.8204 986.669 29.9297C988.699 30.0393 990.417 28.3222 990.528 27.5482C990.732 26.1329 988.581 24.8931 987.038 24.7708C985.013 24.6102 983.281 25.7274 983.179 27.1523Z" fill="#FCA11D" fill-opacity="0.59"/>
<path d="M978.87 32.5238C978.438 33.6103 979.335 34.9796 980.873 35.5824C982.411 36.1848 984.13 35.4507 984.438 34.7062C984.885 33.6258 983.469 31.9721 982.435 31.648C980.858 31.1536 979.301 31.4374 978.87 32.5238Z" fill="#FCA11D" fill-opacity="0.59"/>
<path d="M1017.39 56.6217C1018 57.8924 1020.01 58.2078 1021.82 57.2244C1023.19 56.4753 1024.72 54.445 1024.02 53.2246C1023.63 52.5575 1021.42 51.6841 1019.59 52.6222C1017.76 53.5602 1016.78 55.3508 1017.39 56.6217Z" fill="#FCA11D" fill-opacity="0.59"/>
<path d="M1015.06 52.7809C1015.89 52.0553 1016.59 49.9472 1015.79 49.1359C1015.23 48.5767 1013.38 48.6095 1012.18 49.7995C1010.98 50.9893 1010.66 52.6211 1011.45 53.4444C1012.25 54.2677 1013.78 53.8866 1015.06 52.7809Z" fill="#FCA11D" fill-opacity="0.59"/>
<path d="M1010.19 69.0167C1012.05 68.4991 1012.39 67.3435 1012.8 66.2588C1013.17 65.2442 1013.9 64.4073 1014.83 63.8686C1016.47 62.9147 1017.28 61.0415 1016.94 59.2253C1016.6 57.409 1015.18 56.0105 1013.31 55.8028C1012.26 55.6853 1011.29 55.2094 1010.57 54.4265C1009.81 53.5896 1009.07 52.6627 1007.17 52.9462C1004.81 53.2963 1003.3 55.7531 1003.75 58.1092C1003.87 58.773 1004.14 59.3693 1004.51 59.8725C1004.92 60.4175 1005.19 61.0413 1005.32 61.6952C1005.44 62.3508 1005.41 63.0387 1005.23 63.7068C1005.07 64.3238 1005.04 64.984 1005.16 65.6478C1005.61 68.0037 1007.89 69.6555 1010.19 69.0167Z" fill="#FCA11D" fill-opacity="0.59"/>
<path d="M1018.31 61.4804C1018.21 62.905 1019.77 64.1486 1021.8 64.2579C1023.83 64.3674 1025.55 62.6503 1025.66 61.8763C1025.86 60.461 1023.71 59.2212 1022.17 59.0989C1020.14 58.9383 1018.41 60.0555 1018.31 61.4804Z" fill="#FCA11D" fill-opacity="0.59"/>
<path d="M1014 66.8569C1013.57 67.9433 1014.47 69.3126 1016 69.9154C1017.54 70.5178 1019.26 69.7838 1019.57 69.0392C1020.02 67.9588 1018.6 66.3051 1017.57 65.981C1015.99 65.4866 1014.43 65.7704 1014 66.8569Z" fill="#FCA11D" fill-opacity="0.59"/>
<path d="M1068.14 20.9665C1068.75 22.2371 1070.76 22.5525 1072.56 21.5691C1073.94 20.82 1075.47 18.7898 1074.76 17.5693C1074.38 16.9022 1072.17 16.0289 1070.34 16.967C1068.51 17.9049 1067.52 19.6955 1068.14 20.9665Z" fill="#FCA11D" fill-opacity="0.59"/>
<path d="M1065.81 17.1266C1066.64 16.401 1067.34 14.2929 1066.53 13.4816C1065.98 12.9224 1064.13 12.9552 1062.93 14.1452C1061.73 15.335 1061.41 16.9668 1062.2 17.7901C1062.99 18.6134 1064.53 18.2323 1065.81 17.1266Z" fill="#FCA11D" fill-opacity="0.59"/>
<path d="M1060.93 33.3609C1062.8 32.8433 1063.14 31.6877 1063.54 30.603C1063.92 29.5884 1064.64 28.7515 1065.57 28.2129C1067.22 27.2589 1068.03 25.3858 1067.69 23.5695C1067.35 21.7533 1065.92 20.3547 1064.06 20.147C1063 20.0295 1062.03 19.5536 1061.32 18.7707C1060.55 17.9338 1059.82 17.0069 1057.91 17.2904C1055.56 17.6406 1054.05 20.0973 1054.49 22.4534C1054.62 23.1172 1054.89 23.7135 1055.26 24.2168C1055.66 24.7618 1055.94 25.3856 1056.06 26.0395C1056.18 26.695 1056.16 27.3829 1055.98 28.0511C1055.82 28.668 1055.79 29.3283 1055.91 29.992C1056.35 32.3479 1058.63 33.9997 1060.93 33.3609Z" fill="#FCA11D" fill-opacity="0.59"/>
<path d="M1069.06 25.829C1068.96 27.2536 1070.52 28.4972 1072.55 28.6065C1074.58 28.716 1076.3 26.999 1076.41 26.2249C1076.61 24.8096 1074.46 23.5698 1072.92 23.4476C1070.89 23.2869 1069.16 24.4041 1069.06 25.829Z" fill="#FCA11D" fill-opacity="0.59"/>
<path d="M1064.75 31.2001C1064.32 32.2866 1065.21 33.6558 1066.75 34.2587C1068.29 34.8611 1070.01 34.127 1070.32 33.3824C1070.76 32.3021 1069.35 30.6483 1068.31 30.3243C1066.74 29.8299 1065.18 30.1137 1064.75 31.2001Z" fill="#FCA11D" fill-opacity="0.59"/>
<path d="M207.035 155.173C207.09 156.587 208.796 157.699 210.841 157.543C212.399 157.424 214.608 156.197 214.451 154.791C214.364 154.023 212.692 152.316 210.644 152.421C208.597 152.526 206.981 153.758 207.035 155.173Z" fill="#FCA11D" fill-opacity="0.59"/>
<path d="M206.436 150.704C207.489 150.384 208.971 148.745 208.557 147.671C208.273 146.932 206.566 146.2 204.996 146.796C203.427 147.392 202.477 148.749 202.875 149.829C203.272 150.908 204.831 151.192 206.436 150.704Z" fill="#FCA11D" fill-opacity="0.59"/>
<path d="M195.5 163.545C197.41 163.837 198.184 162.922 198.985 162.095C199.735 161.323 200.732 160.856 201.797 160.745C203.683 160.55 205.171 159.17 205.584 157.369C205.997 155.568 205.253 153.704 203.631 152.748C202.715 152.207 202.016 151.373 201.676 150.363C201.311 149.284 201.01 148.135 199.153 147.61C196.861 146.962 194.502 148.588 193.966 150.924C193.815 151.583 193.823 152.238 193.963 152.852C194.114 153.516 194.116 154.199 193.971 154.849C193.818 155.497 193.519 156.115 193.091 156.653C192.696 157.151 192.403 157.741 192.253 158.399C191.717 160.735 193.142 163.183 195.5 163.545Z" fill="#FCA11D" fill-opacity="0.59"/>
<path d="M205.936 159.996C205.275 161.256 206.207 163.036 208.019 163.97C209.83 164.904 212.086 164.041 212.497 163.379C213.249 162.169 211.777 160.151 210.415 159.405C208.628 158.426 206.598 158.735 205.936 159.996Z" fill="#FCA11D" fill-opacity="0.59"/>
<path d="M199.849 163.137C199.021 163.953 199.295 165.573 200.46 166.757C201.625 167.94 203.491 167.975 204.069 167.421C204.909 166.617 204.275 164.523 203.458 163.801C202.214 162.701 200.677 162.321 199.849 163.137Z" fill="#FCA11D" fill-opacity="0.59"/>
<path d="M242.386 133.096C242.44 134.511 244.147 135.623 246.192 135.467C247.75 135.348 249.959 134.121 249.801 132.715C249.715 131.947 248.043 130.24 245.995 130.345C243.947 130.45 242.331 131.682 242.386 133.096Z" fill="#FCA11D" fill-opacity="0.59"/>
<path d="M241.789 128.628C242.841 128.308 244.323 126.669 243.91 125.595C243.625 124.856 241.918 124.124 240.349 124.72C238.779 125.315 237.83 126.673 238.227 127.753C238.625 128.832 240.184 129.116 241.789 128.628Z" fill="#FCA11D" fill-opacity="0.59"/>
<path d="M230.852 141.471C232.763 141.764 233.537 140.848 234.338 140.022C235.087 139.249 236.085 138.782 237.15 138.672C239.036 138.477 240.523 137.097 240.936 135.296C241.349 133.495 240.605 131.631 238.983 130.674C238.067 130.134 237.369 129.299 237.028 128.29C236.664 127.211 236.363 126.061 234.506 125.537C232.214 124.889 229.854 126.515 229.319 128.851C229.168 129.509 229.175 130.165 229.315 130.778C229.467 131.443 229.469 132.126 229.323 132.776C229.171 133.424 228.871 134.042 228.443 134.58C228.049 135.078 227.756 135.668 227.605 136.326C227.069 138.662 228.495 141.11 230.852 141.471Z" fill="#FCA11D" fill-opacity="0.59"/>
<path d="M241.288 137.922C240.626 139.182 241.558 140.961 243.37 141.896C245.182 142.83 247.438 141.967 247.849 141.305C248.6 140.095 247.128 138.077 245.767 137.331C243.979 136.351 241.95 136.661 241.288 137.922Z" fill="#FCA11D" fill-opacity="0.59"/>
<path d="M235.202 141.062C234.374 141.878 234.647 143.499 235.813 144.682C236.978 145.865 238.843 145.901 239.422 145.347C240.261 144.543 239.627 142.449 238.811 141.727C237.567 140.627 236.03 140.246 235.202 141.062Z" fill="#FCA11D" fill-opacity="0.59"/>
<path d="M263.205 174.032C263.259 175.447 264.966 176.559 267.011 176.403C268.569 176.284 270.778 175.057 270.621 173.651C270.534 172.883 268.862 171.176 266.814 171.281C264.766 171.386 263.151 172.618 263.205 174.032Z" fill="#FCA11D" fill-opacity="0.59"/>
<path d="M262.608 169.561C263.661 169.241 265.142 167.602 264.729 166.528C264.445 165.789 262.737 165.057 261.168 165.653C259.599 166.249 258.649 167.606 259.047 168.686C259.444 169.765 261.003 170.049 262.608 169.561Z" fill="#FCA11D" fill-opacity="0.59"/>
<path d="M251.672 182.404C253.582 182.697 254.356 181.781 255.157 180.955C255.907 180.182 256.904 179.715 257.969 179.605C259.855 179.41 261.343 178.03 261.756 176.229C262.169 174.428 261.425 172.564 259.803 171.608C258.887 171.067 258.188 170.232 257.847 169.223C257.483 168.144 257.182 166.994 255.325 166.47C253.033 165.822 250.674 167.448 250.138 169.784C249.987 170.443 249.994 171.098 250.135 171.711C250.286 172.376 250.288 173.059 250.143 173.709C249.99 174.357 249.691 174.975 249.263 175.513C248.868 176.011 248.575 176.601 248.424 177.259C247.889 179.595 249.314 182.043 251.672 182.404Z" fill="#FCA11D" fill-opacity="0.59"/>
<path d="M262.107 178.855C261.446 180.116 262.377 181.895 264.189 182.829C266.001 183.764 268.257 182.9 268.668 182.239C269.419 181.028 267.947 179.01 266.586 178.264C264.799 177.285 262.769 177.594 262.107 178.855Z" fill="#FCA11D" fill-opacity="0.59"/>
<path d="M256.021 181.995C255.193 182.812 255.467 184.432 256.632 185.615C257.797 186.798 259.662 186.834 260.241 186.28C261.081 185.476 260.446 183.382 259.63 182.66C258.386 181.56 256.849 181.179 256.021 181.995Z" fill="#FCA11D" fill-opacity="0.59"/>
<path d="M308.097 156.204C308.152 157.619 309.859 158.731 311.904 158.575C313.462 158.456 315.67 157.229 315.513 155.823C315.427 155.055 313.755 153.348 311.707 153.453C309.659 153.558 308.043 154.79 308.097 156.204Z" fill="#FCA11D" fill-opacity="0.59"/>
<path d="M307.499 151.736C308.551 151.416 310.033 149.776 309.62 148.703C309.335 147.964 307.628 147.232 306.059 147.828C304.489 148.423 303.54 149.781 303.937 150.86C304.335 151.94 305.894 152.224 307.499 151.736Z" fill="#FCA11D" fill-opacity="0.59"/>
<path d="M296.562 164.576C298.473 164.869 299.247 163.953 300.048 163.127C300.797 162.354 301.795 161.887 302.86 161.777C304.746 161.581 306.233 160.201 306.646 158.401C307.059 156.6 306.315 154.736 304.693 153.779C303.777 153.239 303.079 152.404 302.738 151.394C302.373 150.315 302.073 149.166 300.216 148.641C297.924 147.993 295.564 149.619 295.029 151.956C294.878 152.614 294.885 153.269 295.025 153.883C295.177 154.547 295.179 155.23 295.033 155.88C294.881 156.529 294.581 157.146 294.153 157.685C293.759 158.182 293.466 158.772 293.315 159.431C292.779 161.767 294.205 164.214 296.562 164.576Z" fill="#FCA11D" fill-opacity="0.59"/>
<path d="M306.999 161.027C306.337 162.287 307.269 164.066 309.081 165.001C310.893 165.935 313.149 165.072 313.56 164.41C314.311 163.2 312.839 161.182 311.478 160.436C309.69 159.456 307.661 159.766 306.999 161.027Z" fill="#FCA11D" fill-opacity="0.59"/>
<path d="M300.914 164.167C300.086 164.983 300.359 166.604 301.524 167.787C302.69 168.97 304.555 169.006 305.134 168.452C305.973 167.648 305.339 165.554 304.523 164.832C303.279 163.732 301.742 163.351 300.914 164.167Z" fill="#FCA11D" fill-opacity="0.59"/>
<path d="M308.748 199.784C308.802 201.199 310.509 202.311 312.554 202.155C314.112 202.036 316.321 200.809 316.164 199.403C316.077 198.635 314.405 196.928 312.357 197.033C310.309 197.138 308.694 198.37 308.748 199.784Z" fill="#FCA11D" fill-opacity="0.59"/>
<path d="M308.15 195.314C309.203 194.994 310.684 193.355 310.271 192.281C309.987 191.542 308.279 190.81 306.71 191.406C305.141 192.001 304.191 193.359 304.589 194.439C304.986 195.518 306.545 195.802 308.15 195.314Z" fill="#FCA11D" fill-opacity="0.59"/>
<path d="M297.214 208.156C299.124 208.449 299.898 207.533 300.699 206.707C301.449 205.934 302.446 205.467 303.511 205.357C305.397 205.162 306.885 203.782 307.298 201.981C307.711 200.18 306.967 198.316 305.345 197.359C304.429 196.819 303.73 195.984 303.389 194.975C303.025 193.896 302.724 192.746 300.867 192.222C298.575 191.574 296.216 193.2 295.68 195.536C295.529 196.194 295.536 196.85 295.677 197.463C295.828 198.128 295.83 198.811 295.685 199.461C295.532 200.109 295.233 200.727 294.805 201.265C294.41 201.763 294.117 202.353 293.966 203.011C293.431 205.347 294.856 207.795 297.214 208.156Z" fill="#FCA11D" fill-opacity="0.59"/>
<path d="M307.649 204.608C306.988 205.869 307.919 207.648 309.731 208.582C311.543 209.517 313.799 208.653 314.21 207.991C314.961 206.781 313.489 204.763 312.128 204.017C310.341 203.038 308.311 203.347 307.649 204.608Z" fill="#FCA11D" fill-opacity="0.59"/>
<path d="M301.564 207.745C300.736 208.561 301.01 210.182 302.175 211.365C303.34 212.548 305.205 212.584 305.784 212.03C306.624 211.225 305.989 209.131 305.173 208.41C303.929 207.31 302.392 206.929 301.564 207.745Z" fill="#FCA11D" fill-opacity="0.59"/>
<path d="M561.044 230.95C561.871 232.089 563.899 232.038 565.505 230.744C566.729 229.758 567.878 227.484 566.971 226.411C566.475 225.824 564.146 225.363 562.509 226.617C560.873 227.87 560.217 229.81 561.044 230.95Z" fill="#FCA11D" fill-opacity="0.59"/>
<path d="M558.078 227.592C558.772 226.727 559.092 224.526 558.156 223.873C557.511 223.423 555.694 223.79 554.724 225.177C553.755 226.564 553.72 228.228 554.646 228.895C555.572 229.562 557.019 228.91 558.078 227.592Z" fill="#FCA11D" fill-opacity="0.59"/>
<path d="M556.127 244.45C557.87 243.605 558.004 242.406 558.21 241.266C558.403 240.199 558.97 239.245 559.791 238.547C561.244 237.311 561.712 235.322 561.058 233.596C560.403 231.87 558.757 230.751 556.885 230.883C555.828 230.958 554.788 230.665 553.948 230.023C553.05 229.337 552.165 228.558 550.338 229.181C548.083 229.95 547.029 232.64 547.878 234.879C548.117 235.509 548.486 236.048 548.941 236.476C549.434 236.939 549.813 237.503 550.052 238.124C550.285 238.748 550.378 239.429 550.322 240.119C550.27 240.755 550.354 241.411 550.594 242.041C551.442 244.28 553.976 245.494 556.127 244.45Z" fill="#FCA11D" fill-opacity="0.59"/>
<path d="M562.803 235.566C562.953 236.986 564.708 237.928 566.725 237.67C568.741 237.411 570.131 235.411 570.105 234.63C570.057 233.2 567.723 232.368 566.183 232.526C564.162 232.734 562.654 234.146 562.803 235.566Z" fill="#FCA11D" fill-opacity="0.59"/>
<path d="M559.501 241.634C559.267 242.781 560.389 243.966 562.008 244.282C563.627 244.597 565.191 243.565 565.363 242.776C565.613 241.633 563.93 240.261 562.856 240.129C561.217 239.927 559.735 240.487 559.501 241.634Z" fill="#FCA11D" fill-opacity="0.59"/>
<path d="M611.789 188.697C612.616 189.836 614.644 189.785 616.251 188.491C617.474 187.505 618.624 185.232 617.716 184.158C617.22 183.571 614.891 183.11 613.255 184.364C611.618 185.617 610.962 187.557 611.789 188.697Z" fill="#FCA11D" fill-opacity="0.59"/>
<path d="M608.823 185.338C609.517 184.473 609.837 182.272 608.901 181.62C608.257 181.169 606.439 181.536 605.469 182.923C604.5 184.31 604.465 185.975 605.391 186.641C606.317 187.308 607.764 186.656 608.823 185.338Z" fill="#FCA11D" fill-opacity="0.59"/>
<path d="M606.872 202.196C608.615 201.351 608.749 200.152 608.955 199.012C609.148 197.945 609.715 196.991 610.536 196.293C611.989 195.057 612.457 193.068 611.803 191.342C611.149 189.616 609.502 188.497 607.63 188.629C606.574 188.704 605.533 188.411 604.693 187.769C603.795 187.084 602.91 186.304 601.083 186.927C598.828 187.696 597.774 190.386 598.623 192.625C598.862 193.255 599.231 193.794 599.686 194.222C600.179 194.685 600.558 195.249 600.797 195.87C601.03 196.494 601.123 197.176 601.067 197.865C601.015 198.501 601.1 199.157 601.339 199.787C602.187 202.026 604.721 203.24 606.872 202.196Z" fill="#FCA11D" fill-opacity="0.59"/>
<path d="M613.548 193.316C613.698 194.736 615.453 195.678 617.47 195.419C619.486 195.161 620.876 193.161 620.85 192.379C620.802 190.95 618.468 190.118 616.929 190.276C614.907 190.483 613.399 191.895 613.548 193.316Z" fill="#FCA11D" fill-opacity="0.59"/>
<path d="M610.246 199.38C610.012 200.527 611.134 201.712 612.753 202.028C614.372 202.343 615.936 201.311 616.108 200.523C616.358 199.379 614.675 198.007 613.601 197.875C611.962 197.673 610.48 198.233 610.246 199.38Z" fill="#FCA11D" fill-opacity="0.59"/>
<path d="M606.584 230.289C607.411 231.429 609.439 231.378 611.045 230.084C612.269 229.098 613.418 226.824 612.511 225.751C612.015 225.164 609.686 224.703 608.05 225.956C606.413 227.21 605.757 229.15 606.584 230.289Z" fill="#FCA11D" fill-opacity="0.59"/>
<path d="M603.616 226.931C604.31 226.067 604.63 223.866 603.694 223.213C603.05 222.763 601.232 223.129 600.262 224.516C599.293 225.903 599.258 227.568 600.184 228.235C601.11 228.902 602.557 228.249 603.616 226.931Z" fill="#FCA11D" fill-opacity="0.59"/>
<path d="M601.667 243.786C603.41 242.941 603.544 241.742 603.75 240.602C603.943 239.535 604.51 238.581 605.331 237.883C606.784 236.647 607.252 234.658 606.598 232.932C605.943 231.206 604.297 230.087 602.425 230.219C601.368 230.294 600.328 230.001 599.488 229.359C598.59 228.673 597.705 227.894 595.878 228.517C593.623 229.286 592.569 231.976 593.418 234.214C593.657 234.845 594.026 235.384 594.481 235.811C594.974 236.275 595.353 236.839 595.592 237.46C595.825 238.083 595.918 238.765 595.862 239.455C595.81 240.091 595.894 240.747 596.134 241.377C596.982 243.616 599.516 244.83 601.667 243.786Z" fill="#FCA11D" fill-opacity="0.59"/>
<path d="M608.343 234.905C608.493 236.326 610.248 237.268 612.265 237.009C614.281 236.751 615.671 234.751 615.645 233.969C615.597 232.539 613.263 231.708 611.724 231.866C609.702 232.073 608.194 233.485 608.343 234.905Z" fill="#FCA11D" fill-opacity="0.59"/>
<path d="M605.041 240.973C604.807 242.119 605.929 243.305 607.548 243.621C609.167 243.936 610.731 242.904 610.903 242.115C611.153 240.972 609.47 239.6 608.396 239.467C606.757 239.265 605.275 239.826 605.041 240.973Z" fill="#FCA11D" fill-opacity="0.59"/>
<path d="M672.297 198.598C673.124 199.737 675.152 199.686 676.758 198.392C677.982 197.406 679.131 195.132 678.224 194.059C677.728 193.472 675.399 193.011 673.762 194.265C672.126 195.518 671.47 197.458 672.297 198.598Z" fill="#FCA11D" fill-opacity="0.59"/>
<path d="M669.329 195.24C670.023 194.376 670.343 192.175 669.407 191.522C668.762 191.072 666.945 191.438 665.975 192.825C665.006 194.212 664.971 195.877 665.897 196.544C666.823 197.211 668.27 196.558 669.329 195.24Z" fill="#FCA11D" fill-opacity="0.59"/>
<path d="M667.38 212.095C669.123 211.25 669.257 210.051 669.463 208.911C669.656 207.844 670.223 206.89 671.044 206.192C672.497 204.956 672.965 202.967 672.311 201.241C671.656 199.515 670.01 198.396 668.138 198.528C667.081 198.603 666.041 198.31 665.201 197.668C664.303 196.982 663.418 196.203 661.591 196.826C659.336 197.595 658.282 200.285 659.131 202.524C659.37 203.154 659.739 203.693 660.194 204.121C660.687 204.584 661.066 205.148 661.305 205.769C661.537 206.393 661.631 207.074 661.575 207.764C661.523 208.4 661.607 209.056 661.847 209.686C662.695 211.925 665.228 213.139 667.38 212.095Z" fill="#FCA11D" fill-opacity="0.59"/>
<path d="M674.056 203.218C674.206 204.639 675.961 205.581 677.978 205.322C679.994 205.064 681.384 203.064 681.358 202.282C681.31 200.852 678.976 200.021 677.436 200.179C675.415 200.386 673.907 201.798 674.056 203.218Z" fill="#FCA11D" fill-opacity="0.59"/>
<path d="M670.754 209.282C670.52 210.429 671.642 211.614 673.261 211.93C674.88 212.245 676.443 211.213 676.616 210.424C676.866 209.281 675.183 207.909 674.108 207.777C672.47 207.574 670.988 208.135 670.754 209.282Z" fill="#FCA11D" fill-opacity="0.59"/>
<path d="M518.106 223.026C518.934 224.165 520.961 224.114 522.568 222.82C523.791 221.835 524.941 219.561 524.033 218.487C523.537 217.9 521.209 217.439 519.572 218.693C517.935 219.946 517.279 221.886 518.106 223.026Z" fill="#FCA11D" fill-opacity="0.59"/>
<path d="M515.138 219.666C515.833 218.801 516.152 216.6 515.217 215.947C514.572 215.497 512.754 215.864 511.785 217.251C510.816 218.637 510.78 220.302 511.706 220.969C512.632 221.636 514.08 220.983 515.138 219.666Z" fill="#FCA11D" fill-opacity="0.59"/>
<path d="M513.189 236.523C514.932 235.678 515.066 234.479 515.273 233.339C515.466 232.272 516.033 231.318 516.853 230.62C518.306 229.384 518.774 227.395 518.12 225.669C517.466 223.944 515.819 222.824 513.948 222.956C512.891 223.031 511.851 222.738 511.011 222.096C510.112 221.411 509.228 220.631 507.401 221.254C505.145 222.023 504.092 224.713 504.941 226.952C505.18 227.582 505.548 228.121 506.003 228.549C506.496 229.012 506.875 229.577 507.115 230.197C507.347 230.821 507.441 231.503 507.384 232.192C507.333 232.828 507.417 233.484 507.656 234.114C508.505 236.353 511.038 237.567 513.189 236.523Z" fill="#FCA11D" fill-opacity="0.59"/>
<path d="M519.863 227.643C520.012 229.063 521.768 230.005 523.784 229.746C525.8 229.488 527.19 227.488 527.164 226.706C527.117 225.277 524.782 224.445 523.243 224.603C521.222 224.81 519.713 226.222 519.863 227.643Z" fill="#FCA11D" fill-opacity="0.59"/>
<path d="M516.563 233.709C516.329 234.856 517.452 236.041 519.071 236.357C520.69 236.673 522.253 235.64 522.425 234.852C522.675 233.708 520.993 232.336 519.918 232.204C518.28 232.002 516.797 232.562 516.563 233.709Z" fill="#FCA11D" fill-opacity="0.59"/>
<path d="M67.7425 192.609C68.9251 193.36 70.7918 192.555 71.8162 190.752C72.5964 189.378 72.8404 186.835 71.6071 186.175C70.9328 185.815 68.6008 186.256 67.5336 188.033C66.4665 189.81 66.56 191.858 67.7425 192.609Z" fill="#FCA11D" fill-opacity="0.59"/>
<path d="M63.7662 190.592C64.0982 189.529 63.5972 187.363 62.4905 187.105C61.7279 186.928 60.1708 187.947 59.7724 189.599C59.3742 191.251 59.9453 192.812 61.0481 193.086C62.151 193.36 63.2599 192.213 63.7662 190.592Z" fill="#FCA11D" fill-opacity="0.59"/>
<path d="M68.0671 206.994C69.3809 205.557 69.071 204.392 68.8492 203.255C68.6417 202.192 68.8229 201.092 69.3328 200.137C70.2356 198.445 69.9492 196.421 68.7151 195.061C67.4809 193.7 65.5439 193.275 63.8517 194.097C62.896 194.561 61.8227 194.677 60.8089 194.394C59.7247 194.092 58.6194 193.698 57.1466 194.959C55.3289 196.517 55.3248 199.411 56.9259 201.176C57.377 201.673 57.9148 202.036 58.4934 202.264C59.1196 202.511 59.6769 202.894 60.1245 203.381C60.5667 203.874 60.901 204.473 61.0987 205.135C61.2816 205.746 61.5976 206.324 62.0487 206.821C63.6494 208.586 66.4454 208.768 68.0671 206.994Z" fill="#FCA11D" fill-opacity="0.59"/>
<path d="M71.0529 196.245C71.707 197.509 73.6808 197.729 75.4619 196.736C77.2427 195.742 77.8098 193.364 77.5021 192.647C76.9394 191.335 74.4672 191.434 73.0933 192.156C71.2892 193.103 70.3988 194.98 71.0529 196.245Z" fill="#FCA11D" fill-opacity="0.59"/>
<path d="M70.1823 203.116C70.3808 204.27 71.8545 204.953 73.4742 204.642C75.0938 204.33 76.173 202.786 76.0474 201.989C75.8651 200.832 73.8028 200.185 72.7556 200.463C71.1591 200.887 69.9838 201.962 70.1823 203.116Z" fill="#FCA11D" fill-opacity="0.59"/>
<path d="M135.716 192.092C136.899 192.842 138.765 192.037 139.79 190.234C140.57 188.861 140.814 186.317 139.581 185.658C138.906 185.297 136.574 185.739 135.507 187.515C134.44 189.292 134.534 191.341 135.716 192.092Z" fill="#FCA11D" fill-opacity="0.59"/>
<path d="M131.74 190.076C132.072 189.013 131.571 186.847 130.464 186.59C129.702 186.412 128.144 187.432 127.746 189.084C127.348 190.735 127.919 192.296 129.022 192.57C130.125 192.844 131.234 191.697 131.74 190.076Z" fill="#FCA11D" fill-opacity="0.59"/>
<path d="M136.041 206.48C137.355 205.043 137.045 203.878 136.823 202.741C136.615 201.677 136.797 200.578 137.306 199.622C138.209 197.931 137.923 195.906 136.689 194.546C135.455 193.186 133.518 192.76 131.825 193.582C130.87 194.046 129.796 194.162 128.783 193.879C127.698 193.577 126.593 193.183 125.12 194.445C123.302 196.002 123.298 198.897 124.899 200.661C125.351 201.158 125.888 201.521 126.467 201.749C127.093 201.996 127.651 202.379 128.098 202.867C128.54 203.36 128.875 203.959 129.072 204.621C129.255 205.232 129.571 205.81 130.022 206.307C131.623 208.071 134.419 208.254 136.041 206.48Z" fill="#FCA11D" fill-opacity="0.59"/>
<path d="M139.026 195.728C139.68 196.992 141.653 197.212 143.435 196.219C145.215 195.225 145.782 192.847 145.475 192.13C144.912 190.818 142.44 190.917 141.066 191.639C139.262 192.586 138.371 194.462 139.026 195.728Z" fill="#FCA11D" fill-opacity="0.59"/>
<path d="M138.156 202.601C138.354 203.755 139.828 204.438 141.448 204.127C143.067 203.816 144.147 202.271 144.021 201.474C143.839 200.317 141.776 199.67 140.729 199.949C139.133 200.373 137.957 201.447 138.156 202.601Z" fill="#FCA11D" fill-opacity="0.59"/>
<path d="M478.42 58.6293C479.247 59.7688 481.275 59.7175 482.881 58.4236C484.105 57.4381 485.254 55.1642 484.347 54.0904C483.851 53.5035 481.522 53.0429 479.885 54.2963C478.249 55.5496 477.593 57.4894 478.42 58.6293Z" fill="#FCA11D" fill-opacity="0.59"/>
<path d="M475.454 55.2705C476.148 54.4059 476.468 52.205 475.532 51.5521C474.887 51.1021 473.07 51.4687 472.1 52.8557C471.131 54.2425 471.096 55.9072 472.022 56.574C472.948 57.2409 474.395 56.5882 475.454 55.2705Z" fill="#FCA11D" fill-opacity="0.59"/>
<path d="M473.505 72.1255C475.248 71.2799 475.382 70.081 475.588 68.9409C475.781 67.8745 476.348 66.9201 477.169 66.2222C478.622 64.9864 479.09 62.9971 478.436 61.2714C477.781 59.5457 476.135 58.4264 474.263 58.5585C473.206 58.6329 472.166 58.34 471.326 57.6984C470.428 57.0127 469.543 56.233 467.716 56.8562C465.461 57.6255 464.407 60.3151 465.256 62.5538C465.495 63.1845 465.864 63.7229 466.319 64.1508C466.812 64.6143 467.191 65.1787 467.43 65.7993C467.662 66.4228 467.756 67.1047 467.7 67.794C467.648 68.4304 467.732 69.0859 467.972 69.7165C468.82 71.955 471.353 73.169 473.505 72.1255Z" fill="#FCA11D" fill-opacity="0.59"/>
<path d="M480.178 63.2448C480.328 64.665 482.083 65.6069 484.1 65.3482C486.116 65.0899 487.506 63.0901 487.48 62.3083C487.432 60.8788 485.098 60.047 483.558 60.205C481.537 60.4123 480.029 61.8242 480.178 63.2448Z" fill="#FCA11D" fill-opacity="0.59"/>
<path d="M476.879 69.3095C476.645 70.4564 477.767 71.642 479.386 71.9578C481.005 72.2731 482.568 71.2405 482.741 70.4522C482.991 69.3085 481.308 67.9366 480.233 67.8043C478.595 67.6023 477.113 68.1625 476.879 69.3095Z" fill="#FCA11D" fill-opacity="0.59"/>
<path d="M23.6514 230.947C24.4787 232.087 26.5064 232.035 28.1128 230.741C29.3364 229.756 30.4858 227.482 29.5783 226.408C29.082 225.821 26.7536 225.361 25.1169 226.614C23.4803 227.867 22.8242 229.807 23.6514 230.947Z" fill="#FCA11D" fill-opacity="0.59"/>
<path d="M20.6841 227.59C21.3784 226.725 21.6981 224.524 20.7625 223.871C20.1179 223.421 18.3002 223.788 17.3307 225.175C16.3615 226.562 16.3263 228.227 17.2523 228.893C18.1783 229.56 19.6255 228.908 20.6841 227.59Z" fill="#FCA11D" fill-opacity="0.59"/>
<path d="M18.7351 244.448C20.478 243.602 20.6124 242.403 20.8185 241.263C21.0114 240.197 21.5785 239.242 22.3992 238.544C23.8522 237.309 24.3202 235.319 23.666 233.594C23.0119 231.868 21.3653 230.749 19.4937 230.881C18.4369 230.955 17.3968 230.662 16.5567 230.021C15.6581 229.335 14.7734 228.555 12.9464 229.178C10.6914 229.948 9.63776 232.637 10.4864 234.876C10.7256 235.507 11.094 236.045 11.5493 236.473C12.0421 236.937 12.4213 237.501 12.6606 238.122C12.8929 238.745 12.9865 239.427 12.9303 240.116C12.8787 240.753 12.9628 241.408 13.202 242.039C14.0504 244.277 16.584 245.491 18.7351 244.448Z" fill="#FCA11D" fill-opacity="0.59"/>
<path d="M25.4107 235.567C25.5602 236.987 27.3155 237.929 29.3321 237.67C31.3481 237.412 32.7381 235.412 32.7121 234.631C32.6646 233.201 30.3302 232.369 28.7909 232.527C26.7698 232.735 25.2613 234.146 25.4107 235.567Z" fill="#FCA11D" fill-opacity="0.59"/>
<path d="M22.1092 241.63C21.8753 242.777 22.9978 243.963 24.6166 244.279C26.2354 244.594 27.799 243.561 27.9714 242.773C28.2214 241.629 26.5386 240.257 25.4639 240.125C23.8257 239.923 22.3431 240.483 22.1092 241.63Z" fill="#FCA11D" fill-opacity="0.59"/>
<path d="M18.4482 272.546C19.2756 273.686 21.3032 273.635 22.9097 272.341C24.1333 271.355 25.2827 269.081 24.3752 268.007C23.8789 267.42 21.5505 266.96 19.9138 268.213C18.2772 269.467 17.6211 271.406 18.4482 272.546Z" fill="#FCA11D" fill-opacity="0.59"/>
<path d="M15.4809 269.187C16.1753 268.323 16.495 266.122 15.5593 265.469C14.9148 265.019 13.0971 265.386 12.1275 266.773C11.1584 268.159 11.1232 269.824 12.0492 270.491C12.9751 271.158 14.4224 270.505 15.4809 269.187Z" fill="#FCA11D" fill-opacity="0.59"/>
<path d="M13.531 286.043C15.2739 285.197 15.4083 283.998 15.6144 282.858C15.8073 281.792 16.3744 280.838 17.1951 280.14C18.6481 278.904 19.1161 276.915 18.4619 275.189C17.8078 273.463 16.1612 272.344 14.2896 272.476C13.2328 272.55 12.1927 272.257 11.3526 271.616C10.4539 270.93 9.56935 270.151 7.74231 270.774C5.48725 271.543 4.43365 274.233 5.28235 276.471C5.52154 277.102 5.88994 277.64 6.34523 278.068C6.83796 278.532 7.21719 279.096 7.45645 279.717C7.68884 280.34 7.78241 281.022 7.72618 281.711C7.67456 282.348 7.75871 283.003 7.99791 283.634C8.8463 285.873 11.3798 287.087 13.531 286.043Z" fill="#FCA11D" fill-opacity="0.59"/>
<path d="M20.2056 277.162C20.3551 278.582 22.1105 279.524 24.127 279.265C26.143 279.007 27.533 277.007 27.5071 276.225C27.4595 274.796 25.1252 273.964 23.5858 274.122C21.5647 274.329 20.0563 275.741 20.2056 277.162Z" fill="#FCA11D" fill-opacity="0.59"/>
<path d="M16.9051 283.225C16.6712 284.372 17.7937 285.558 19.4125 285.874C21.0313 286.189 22.5949 285.156 22.7673 284.368C23.0173 283.225 21.3345 281.853 20.2598 281.72C18.6216 281.518 17.139 282.079 16.9051 283.225Z" fill="#FCA11D" fill-opacity="0.59"/>
<path d="M84.1572 240.852C84.9846 241.992 87.0122 241.941 88.6187 240.647C89.8423 239.661 90.9917 237.387 90.0841 236.314C89.5879 235.727 87.2594 235.266 85.6227 236.519C83.9862 237.773 83.3301 239.713 84.1572 240.852Z" fill="#FCA11D" fill-opacity="0.59"/>
<path d="M81.1919 237.495C81.8862 236.63 82.2059 234.43 81.2703 233.777C80.6257 233.327 78.808 233.693 77.8385 235.08C76.8693 236.467 76.8341 238.132 77.7601 238.799C78.6861 239.466 80.1333 238.813 81.1919 237.495Z" fill="#FCA11D" fill-opacity="0.59"/>
<path d="M79.242 254.353C80.9849 253.507 81.1192 252.309 81.3254 251.168C81.5182 250.102 82.0854 249.148 82.906 248.45C84.3591 247.214 84.8271 245.225 84.1729 243.499C83.5187 241.773 81.8721 240.654 80.0006 240.786C78.9437 240.86 77.9036 240.567 77.0635 239.926C76.1649 239.24 75.2803 238.461 73.4533 239.084C71.1982 239.853 70.1446 242.543 70.9933 244.781C71.2325 245.412 71.6009 245.95 72.0562 246.378C72.5489 246.842 72.9281 247.406 73.1674 248.027C73.3998 248.65 73.4933 249.332 73.4371 250.022C73.3855 250.658 73.4696 251.313 73.7088 251.944C74.5572 254.183 77.0908 255.397 79.242 254.353Z" fill="#FCA11D" fill-opacity="0.59"/>
<path d="M85.9165 245.472C86.0661 246.893 87.8214 247.834 89.8379 247.576C91.854 247.317 93.2439 245.318 93.218 244.536C93.1705 243.106 90.8361 242.274 89.2968 242.433C87.2756 242.64 85.7672 244.052 85.9165 245.472Z" fill="#FCA11D" fill-opacity="0.59"/>
<path d="M82.616 251.537C82.3821 252.683 83.5046 253.869 85.1234 254.185C86.7423 254.5 88.3058 253.468 88.4782 252.679C88.7282 251.536 87.0454 250.164 85.9708 250.031C84.3325 249.829 82.8499 250.39 82.616 251.537Z" fill="#FCA11D" fill-opacity="0.59"/>
<path d="M508.345 277.825C509.172 278.964 511.2 278.913 512.806 277.619C514.03 276.633 515.179 274.359 514.272 273.286C513.775 272.699 511.447 272.238 509.81 273.492C508.174 274.745 507.518 276.685 508.345 277.825Z" fill="#FCA11D" fill-opacity="0.59"/>
<path d="M505.376 274.467C506.071 273.603 506.39 271.402 505.455 270.749C504.81 270.299 502.993 270.665 502.023 272.052C501.054 273.439 501.019 275.104 501.945 275.771C502.871 276.438 504.318 275.785 505.376 274.467Z" fill="#FCA11D" fill-opacity="0.59"/>
<path d="M503.428 291.325C505.17 290.48 505.305 289.281 505.511 288.141C505.704 287.074 506.271 286.12 507.092 285.422C508.545 284.186 509.013 282.197 508.358 280.471C507.704 278.745 506.058 277.626 504.186 277.758C503.129 277.833 502.089 277.54 501.249 276.898C500.35 276.212 499.466 275.433 497.639 276.056C495.384 276.825 494.33 279.515 495.179 281.754C495.418 282.384 495.786 282.923 496.242 283.351C496.734 283.814 497.114 284.378 497.353 284.999C497.585 285.623 497.679 286.304 497.623 286.994C497.571 287.63 497.655 288.286 497.894 288.916C498.743 291.155 501.276 292.369 503.428 291.325Z" fill="#FCA11D" fill-opacity="0.59"/>
<path d="M510.104 282.444C510.254 283.865 512.009 284.807 514.025 284.548C516.041 284.29 517.431 282.29 517.405 281.508C517.358 280.079 515.024 279.247 513.484 279.405C511.463 279.612 509.955 281.024 510.104 282.444Z" fill="#FCA11D" fill-opacity="0.59"/>
<path d="M506.802 288.509C506.568 289.656 507.69 290.842 509.309 291.157C510.928 291.473 512.491 290.44 512.664 289.652C512.914 288.508 511.231 287.136 510.156 287.004C508.518 286.802 507.035 287.362 506.802 288.509Z" fill="#FCA11D" fill-opacity="0.59"/>
<path d="M1279.89 51.0907C1279.88 52.5062 1281.54 53.6909 1283.59 53.6231C1285.15 53.5714 1287.41 52.4402 1287.31 51.0291C1287.26 50.2577 1285.66 48.4799 1283.61 48.4969C1281.56 48.5139 1279.89 49.6751 1279.89 51.0907Z" fill="#FCA11D" fill-opacity="0.59"/>
<path d="M1279.48 46.6028C1280.55 46.3282 1282.09 44.754 1281.73 43.6639C1281.47 42.9127 1279.8 42.1081 1278.2 42.6358C1276.61 43.1635 1275.61 44.4792 1275.96 45.5746C1276.31 46.6701 1277.86 47.021 1279.48 46.6028Z" fill="#FCA11D" fill-opacity="0.59"/>
<path d="M1268.02 58.9587C1269.91 59.3335 1270.72 58.4518 1271.56 57.6609C1272.34 56.9211 1273.36 56.4974 1274.42 56.4332C1276.32 56.3193 1277.86 55.0046 1278.35 53.2231C1278.84 51.4416 1278.17 49.5471 1276.59 48.5215C1275.7 47.9423 1275.03 47.0781 1274.74 46.0549C1274.42 44.9609 1274.17 43.7998 1272.33 43.1956C1270.07 42.4499 1267.64 43.973 1267.01 46.2841C1266.83 46.9352 1266.81 47.5903 1266.93 48.2093C1267.05 48.8795 1267.02 49.562 1266.85 50.2051C1266.67 50.8464 1266.35 51.4506 1265.9 51.9702C1265.48 52.4501 1265.16 53.0274 1264.99 53.6785C1264.35 55.9893 1265.68 58.4962 1268.02 58.9587Z" fill="#FCA11D" fill-opacity="0.59"/>
<path d="M1278.59 55.865C1277.88 57.0961 1278.73 58.9139 1280.51 59.9254C1282.28 60.9369 1284.57 60.1713 1285.01 59.5278C1285.81 58.351 1284.42 56.2714 1283.09 55.4676C1281.35 54.412 1279.31 54.6339 1278.59 55.865Z" fill="#FCA11D" fill-opacity="0.59"/>
<path d="M1272.38 58.7407C1271.52 59.5204 1271.72 61.1513 1272.84 62.3837C1273.95 63.6158 1275.82 63.7318 1276.42 63.203C1277.29 62.4357 1276.74 60.3163 1275.96 59.5603C1274.76 58.4075 1273.24 57.961 1272.38 58.7407Z" fill="#FCA11D" fill-opacity="0.59"/>
<path d="M1216.13 84.765C1216.12 86.1805 1217.78 87.3652 1219.83 87.2974C1221.39 87.2458 1223.65 86.1145 1223.55 84.7034C1223.5 83.932 1221.9 82.1542 1219.85 82.1712C1217.8 82.1882 1216.13 83.3494 1216.13 84.765Z" fill="#FCA11D" fill-opacity="0.59"/>
<path d="M1215.72 80.2741C1216.79 79.9996 1218.33 78.4253 1217.97 77.3353C1217.71 76.5841 1216.04 75.7795 1214.44 76.3072C1212.85 76.8349 1211.85 78.1506 1212.2 79.246C1212.55 80.3415 1214.1 80.6924 1215.72 80.2741Z" fill="#FCA11D" fill-opacity="0.59"/>
<path d="M1204.26 92.6331C1206.15 93.0078 1206.96 92.1262 1207.8 91.3352C1208.58 90.5954 1209.6 90.1718 1210.66 90.1075C1212.56 89.9936 1214.1 88.6789 1214.59 86.8974C1215.08 85.1159 1214.41 83.2214 1212.83 82.1958C1211.94 81.6166 1211.28 80.7524 1210.98 79.7292C1210.66 78.6352 1210.41 77.4742 1208.57 76.8699C1206.31 76.1242 1203.88 77.6473 1203.25 79.9584C1203.07 80.6095 1203.05 81.2647 1203.17 81.8836C1203.29 82.5538 1203.26 83.2363 1203.09 83.8794C1202.91 84.5207 1202.59 85.125 1202.14 85.6445C1201.72 86.1244 1201.4 86.7017 1201.23 87.3528C1200.59 89.6636 1201.92 92.1705 1204.26 92.6331Z" fill="#FCA11D" fill-opacity="0.59"/>
<path d="M1214.83 89.5394C1214.12 90.7704 1214.98 92.5882 1216.75 93.5997C1218.52 94.6112 1220.81 93.8456 1221.25 93.2021C1222.05 92.0253 1220.66 89.9457 1219.33 89.1419C1217.59 88.0863 1215.55 88.3082 1214.83 89.5394Z" fill="#FCA11D" fill-opacity="0.59"/>
<path d="M1208.62 92.4131C1207.76 93.1928 1207.96 94.8237 1209.08 96.0561C1210.19 97.2882 1212.06 97.4042 1212.66 96.8754C1213.53 96.108 1212.98 93.9887 1212.2 93.2327C1211 92.0799 1209.48 91.6334 1208.62 92.4131Z" fill="#FCA11D" fill-opacity="0.59"/>
<path d="M1348.2 146.826C1348.2 148.241 1349.86 149.426 1351.91 149.358C1353.47 149.306 1355.73 148.175 1355.63 146.764C1355.57 145.993 1353.97 144.215 1351.92 144.232C1349.87 144.249 1348.21 145.41 1348.2 146.826Z" fill="#FCA11D" fill-opacity="0.59"/>
<path d="M1347.79 142.334C1348.86 142.059 1350.41 140.485 1350.04 139.395C1349.78 138.644 1348.11 137.839 1346.52 138.367C1344.92 138.894 1343.92 140.21 1344.27 141.306C1344.62 142.401 1346.17 142.752 1347.79 142.334Z" fill="#FCA11D" fill-opacity="0.59"/>
<path d="M1336.33 154.693C1338.22 155.067 1339.04 154.186 1339.87 153.395C1340.65 152.655 1341.67 152.231 1342.74 152.167C1344.63 152.053 1346.17 150.738 1346.66 148.957C1347.15 147.175 1346.48 145.281 1344.9 144.255C1344.01 143.676 1343.35 142.812 1343.05 141.789C1342.73 140.695 1342.48 139.534 1340.64 138.929C1338.38 138.184 1335.96 139.707 1335.32 142.018C1335.15 142.669 1335.13 143.324 1335.24 143.943C1335.36 144.613 1335.34 145.296 1335.16 145.939C1334.98 146.58 1334.66 147.185 1334.21 147.704C1333.79 148.184 1333.48 148.761 1333.3 149.412C1332.67 151.723 1333.99 154.23 1336.33 154.693Z" fill="#FCA11D" fill-opacity="0.59"/>
<path d="M1346.9 151.596C1346.19 152.827 1347.05 154.645 1348.82 155.656C1350.59 156.668 1352.88 155.902 1353.32 155.259C1354.12 154.082 1352.73 152.002 1351.4 151.199C1349.66 150.143 1347.62 150.365 1346.9 151.596Z" fill="#FCA11D" fill-opacity="0.59"/>
<path d="M1340.69 154.473C1339.83 155.252 1340.04 156.883 1341.15 158.116C1342.27 159.348 1344.13 159.464 1344.73 158.935C1345.6 158.168 1345.06 156.048 1344.27 155.292C1343.07 154.139 1341.55 153.693 1340.69 154.473Z" fill="#FCA11D" fill-opacity="0.59"/>
<path d="M1398.3 111.173C1398.29 112.589 1399.95 113.773 1402 113.706C1403.56 113.654 1405.82 112.523 1405.72 111.112C1405.67 110.34 1404.07 108.562 1402.02 108.579C1399.97 108.596 1398.3 109.758 1398.3 111.173Z" fill="#FCA11D" fill-opacity="0.59"/>
<path d="M1397.89 106.686C1398.96 106.411 1400.5 104.837 1400.14 103.747C1399.88 102.996 1398.21 102.191 1396.61 102.719C1395.02 103.247 1394.02 104.562 1394.37 105.658C1394.72 106.753 1396.27 107.104 1397.89 106.686Z" fill="#FCA11D" fill-opacity="0.59"/>
<path d="M1386.43 119.045C1388.32 119.419 1389.13 118.538 1389.97 117.747C1390.75 117.007 1391.77 116.583 1392.83 116.519C1394.73 116.405 1396.27 115.091 1396.76 113.309C1397.25 111.528 1396.58 109.633 1395 108.607C1394.11 108.028 1393.45 107.164 1393.15 106.141C1392.83 105.047 1392.58 103.886 1390.74 103.282C1388.48 102.536 1386.05 104.059 1385.42 106.37C1385.24 107.021 1385.22 107.676 1385.34 108.295C1385.46 108.965 1385.43 109.648 1385.26 110.291C1385.08 110.932 1384.76 111.537 1384.31 112.056C1383.89 112.536 1383.57 113.113 1383.4 113.764C1382.76 116.075 1384.09 118.582 1386.43 119.045Z" fill="#FCA11D" fill-opacity="0.59"/>
<path d="M1397 115.948C1396.29 117.179 1397.14 118.997 1398.92 120.008C1400.69 121.02 1402.98 120.254 1403.42 119.611C1404.22 118.434 1402.83 116.354 1401.5 115.551C1399.76 114.495 1397.72 114.717 1397 115.948Z" fill="#FCA11D" fill-opacity="0.59"/>
<path d="M1390.79 118.821C1389.93 119.601 1390.13 121.232 1391.25 122.464C1392.36 123.696 1394.23 123.812 1394.83 123.284C1395.7 122.516 1395.15 120.397 1394.37 119.641C1393.17 118.488 1391.65 118.042 1390.79 118.821Z" fill="#FCA11D" fill-opacity="0.59"/>
<path d="M1416.06 163.687C1415.95 165.098 1417.51 166.411 1419.56 166.506C1421.12 166.578 1423.46 165.629 1423.47 164.215C1423.48 163.442 1422.02 161.542 1419.97 161.397C1417.93 161.251 1416.18 162.276 1416.06 163.687Z" fill="#FCA11D" fill-opacity="0.59"/>
<path d="M1416 159.179C1417.08 158.99 1418.75 157.543 1418.47 156.427C1418.27 155.658 1416.66 154.723 1415.03 155.123C1413.41 155.523 1412.3 156.755 1412.57 157.875C1412.84 158.995 1414.35 159.467 1416 159.179Z" fill="#FCA11D" fill-opacity="0.59"/>
<path d="M1403.62 170.591C1405.48 171.115 1406.36 170.301 1407.25 169.578C1408.09 168.903 1409.13 168.561 1410.2 168.582C1412.1 168.618 1413.74 167.43 1414.36 165.693C1414.99 163.955 1414.47 162.014 1412.97 160.866C1412.13 160.218 1411.53 159.304 1411.31 158.26C1411.08 157.144 1410.92 155.966 1409.14 155.218C1406.94 154.296 1404.4 155.622 1403.59 157.875C1403.37 158.51 1403.3 159.162 1403.36 159.788C1403.43 160.466 1403.35 161.144 1403.13 161.772C1402.91 162.397 1402.53 162.974 1402.05 163.456C1401.6 163.901 1401.23 164.452 1401.01 165.087C1400.2 167.34 1401.32 169.944 1403.62 170.591Z" fill="#FCA11D" fill-opacity="0.59"/>
<path d="M1414.4 168.343C1413.6 169.513 1414.31 171.394 1416 172.542C1417.69 173.691 1420.03 173.11 1420.52 172.503C1421.4 171.393 1420.18 169.21 1418.92 168.303C1417.26 167.113 1415.21 167.172 1414.4 168.343Z" fill="#FCA11D" fill-opacity="0.59"/>
<path d="M1407.99 170.716C1407.07 171.425 1407.15 173.067 1408.17 174.384C1409.18 175.701 1411.03 175.964 1411.67 175.484C1412.6 174.789 1412.22 172.632 1411.49 171.816C1410.39 170.572 1408.91 170.007 1407.99 170.716Z" fill="#FCA11D" fill-opacity="0.59"/>
<path d="M1459.48 124.182C1459.8 125.558 1461.69 126.311 1463.67 125.753C1465.17 125.327 1467.1 123.686 1466.68 122.338C1466.44 121.602 1464.48 120.259 1462.49 120.768C1460.5 121.277 1459.15 122.805 1459.48 124.182Z" fill="#FCA11D" fill-opacity="0.59"/>
<path d="M1458.03 119.917C1459 119.394 1460.14 117.493 1459.53 116.522C1459.11 115.853 1457.29 115.474 1455.87 116.369C1454.44 117.265 1453.77 118.785 1454.37 119.764C1454.97 120.744 1456.55 120.714 1458.03 119.917Z" fill="#FCA11D" fill-opacity="0.59"/>
<path d="M1449.78 134.678C1451.71 134.587 1452.29 133.535 1452.92 132.566C1453.5 131.66 1454.39 131.004 1455.41 130.685C1457.23 130.12 1458.42 128.472 1458.48 126.624C1458.54 124.775 1457.45 123.095 1455.67 122.478C1454.67 122.13 1453.83 121.449 1453.3 120.527C1452.73 119.541 1452.22 118.473 1450.29 118.326C1447.92 118.146 1445.92 120.208 1445.84 122.605C1445.82 123.281 1445.96 123.922 1446.21 124.496C1446.49 125.117 1446.62 125.787 1446.6 126.453C1446.58 127.119 1446.4 127.785 1446.09 128.397C1445.8 128.963 1445.62 129.601 1445.6 130.276C1445.53 132.673 1447.4 134.791 1449.78 134.678Z" fill="#FCA11D" fill-opacity="0.59"/>
<path d="M1459.33 129.131C1458.92 130.498 1460.18 132.059 1462.14 132.616C1464.09 133.173 1466.14 131.879 1466.41 131.149C1466.92 129.813 1465.09 128.126 1463.61 127.664C1461.67 127.058 1459.74 127.763 1459.33 129.131Z" fill="#FCA11D" fill-opacity="0.59"/>
<path d="M1453.96 133.414C1453.31 134.379 1453.89 135.914 1455.26 136.843C1456.63 137.773 1458.47 137.438 1458.93 136.78C1459.6 135.825 1458.57 133.897 1457.63 133.351C1456.2 132.519 1454.62 132.45 1453.96 133.414Z" fill="#FCA11D" fill-opacity="0.59"/>
<path d="M1486.15 156.535C1486.48 157.912 1488.36 158.664 1490.34 158.106C1491.84 157.681 1493.78 156.039 1493.35 154.692C1493.12 153.955 1491.15 152.612 1489.16 153.122C1487.17 153.631 1485.83 155.159 1486.15 156.535Z" fill="#FCA11D" fill-opacity="0.59"/>
<path d="M1484.7 152.27C1485.68 151.747 1486.81 149.845 1486.2 148.875C1485.78 148.206 1483.96 147.827 1482.54 148.722C1481.12 149.617 1480.45 151.137 1481.04 152.117C1481.64 153.097 1483.22 153.066 1484.7 152.27Z" fill="#FCA11D" fill-opacity="0.59"/>
<path d="M1476.45 167.032C1478.38 166.94 1478.96 165.889 1479.59 164.92C1480.18 164.013 1481.06 163.358 1482.09 163.039C1483.9 162.473 1485.09 160.825 1485.15 158.977C1485.21 157.129 1484.12 155.448 1482.35 154.831C1481.34 154.483 1480.5 153.803 1479.97 152.88C1479.41 151.894 1478.89 150.827 1476.97 150.68C1474.59 150.499 1472.59 152.561 1472.52 154.959C1472.5 155.634 1472.63 156.276 1472.89 156.85C1473.16 157.471 1473.29 158.141 1473.28 158.807C1473.25 159.473 1473.08 160.138 1472.76 160.751C1472.47 161.317 1472.3 161.954 1472.28 162.63C1472.2 165.027 1474.07 167.145 1476.45 167.032Z" fill="#FCA11D" fill-opacity="0.59"/>
<path d="M1486 161.484C1485.6 162.852 1486.85 164.412 1488.81 164.97C1490.77 165.527 1492.81 164.233 1493.09 163.502C1493.59 162.167 1491.76 160.479 1490.28 160.017C1488.34 159.411 1486.41 160.117 1486 161.484Z" fill="#FCA11D" fill-opacity="0.59"/>
<path d="M1480.64 165.768C1479.98 166.732 1480.56 168.267 1481.93 169.197C1483.3 170.126 1485.14 169.792 1485.6 169.133C1486.27 168.178 1485.24 166.25 1484.31 165.704C1482.87 164.872 1481.29 164.803 1480.64 165.768Z" fill="#FCA11D" fill-opacity="0.59"/>
<path d="M1513.85 110.729C1514.81 111.76 1516.82 111.462 1518.26 109.982C1519.36 108.854 1520.23 106.457 1519.2 105.501C1518.64 104.979 1516.27 104.805 1514.8 106.249C1513.32 107.693 1512.9 109.698 1513.85 110.729Z" fill="#FCA11D" fill-opacity="0.59"/>
<path d="M1510.51 107.755C1511.1 106.812 1511.16 104.588 1510.15 104.054C1509.46 103.685 1507.7 104.271 1506.9 105.766C1506.1 107.261 1506.26 108.917 1507.26 109.467C1508.26 110.016 1509.62 109.192 1510.51 107.755Z" fill="#FCA11D" fill-opacity="0.59"/>
<path d="M1510.57 124.728C1512.2 123.676 1512.19 122.469 1512.26 121.312C1512.33 120.23 1512.78 119.214 1513.51 118.421C1514.8 117.017 1515.03 114.985 1514.18 113.352C1513.33 111.718 1511.56 110.807 1509.72 111.166C1508.68 111.369 1507.61 111.205 1506.7 110.67C1505.73 110.099 1504.76 109.433 1503.02 110.274C1500.87 111.312 1500.14 114.111 1501.25 116.23C1501.56 116.827 1501.99 117.317 1502.49 117.686C1503.04 118.086 1503.48 118.6 1503.79 119.187C1504.09 119.778 1504.27 120.444 1504.29 121.135C1504.32 121.773 1504.48 122.413 1504.79 123.01C1505.9 125.129 1508.56 126.026 1510.57 124.728Z" fill="#FCA11D" fill-opacity="0.59"/>
<path d="M1516.14 115.102C1516.46 116.493 1518.32 117.215 1520.29 116.712C1522.26 116.21 1523.4 114.055 1523.28 113.283C1523.07 111.869 1520.65 111.328 1519.14 111.672C1517.16 112.124 1515.83 113.709 1516.14 115.102Z" fill="#FCA11D" fill-opacity="0.59"/>
<path d="M1513.59 121.522C1513.49 122.689 1514.74 123.73 1516.39 123.846C1518.03 123.962 1519.46 122.746 1519.54 121.943C1519.65 120.777 1517.82 119.62 1516.74 119.619C1515.09 119.618 1513.68 120.355 1513.59 121.522Z" fill="#FCA11D" fill-opacity="0.59"/>
<path d="M1556.82 135.893C1557.77 136.923 1559.78 136.625 1561.22 135.145C1562.32 134.018 1563.19 131.62 1562.16 130.665C1561.6 130.143 1559.23 129.969 1557.76 131.413C1556.28 132.856 1555.86 134.862 1556.82 135.893Z" fill="#FCA11D" fill-opacity="0.59"/>
<path d="M1553.47 132.918C1554.06 131.975 1554.12 129.751 1553.11 129.217C1552.42 128.849 1550.66 129.434 1549.86 130.929C1549.06 132.424 1549.22 134.081 1550.22 134.63C1551.22 135.18 1552.58 134.355 1553.47 132.918Z" fill="#FCA11D" fill-opacity="0.59"/>
<path d="M1553.53 149.89C1555.16 148.839 1555.15 147.632 1555.22 146.475C1555.29 145.393 1555.74 144.376 1556.47 143.583C1557.77 142.18 1558 140.148 1557.14 138.514C1556.29 136.881 1554.52 135.97 1552.68 136.329C1551.64 136.532 1550.57 136.368 1549.66 135.833C1548.69 135.262 1547.72 134.595 1545.98 135.437C1543.83 136.475 1543.1 139.274 1544.21 141.393C1544.52 141.99 1544.95 142.479 1545.45 142.849C1546 143.249 1546.44 143.763 1546.75 144.35C1547.06 144.941 1547.23 145.606 1547.26 146.297C1547.28 146.935 1547.44 147.576 1547.75 148.173C1548.86 150.292 1551.52 151.188 1553.53 149.89Z" fill="#FCA11D" fill-opacity="0.59"/>
<path d="M1559.11 140.262C1559.42 141.654 1561.28 142.375 1563.25 141.873C1565.22 141.371 1566.36 139.216 1566.24 138.443C1566.03 137.03 1563.61 136.488 1562.1 136.833C1560.12 137.285 1558.79 138.87 1559.11 140.262Z" fill="#FCA11D" fill-opacity="0.59"/>
<path d="M1556.55 146.686C1556.45 147.853 1557.71 148.893 1559.35 149.01C1561 149.125 1562.43 147.91 1562.5 147.106C1562.62 145.94 1560.78 144.783 1559.7 144.783C1558.05 144.782 1556.64 145.519 1556.55 146.686Z" fill="#FCA11D" fill-opacity="0.59"/>
<path d="M1560.72 87.6975C1561.67 88.728 1563.68 88.4301 1565.12 86.9498C1566.22 85.8224 1567.09 83.4249 1566.06 82.4694C1565.5 81.9472 1563.14 81.7736 1561.66 83.2173C1560.18 84.6608 1559.76 86.6666 1560.72 87.6975Z" fill="#FCA11D" fill-opacity="0.59"/>
<path d="M1557.38 84.7258C1557.96 83.7828 1558.02 81.559 1557.01 81.0248C1556.32 80.6565 1554.56 81.2419 1553.76 82.7369C1552.96 84.2317 1553.12 85.8887 1554.12 86.4379C1555.12 86.9872 1556.48 86.163 1557.38 84.7258Z" fill="#FCA11D" fill-opacity="0.59"/>
<path d="M1557.43 101.699C1559.06 100.648 1559.05 99.4411 1559.12 98.2841C1559.19 97.2019 1559.64 96.1853 1560.37 95.3926C1561.67 93.9887 1561.9 91.9567 1561.04 90.3232C1560.19 88.6896 1558.42 87.7791 1556.58 88.1381C1555.54 88.3407 1554.47 88.1766 1553.56 87.642C1552.59 87.0708 1551.62 86.4045 1549.88 87.2457C1547.73 88.2841 1547 91.0826 1548.11 93.2018C1548.42 93.7987 1548.85 94.2883 1549.36 94.6577C1549.9 95.0578 1550.34 95.572 1550.65 96.1589C1550.96 96.7496 1551.13 97.4152 1551.16 98.1064C1551.18 98.7444 1551.34 99.385 1551.65 99.9819C1552.76 102.101 1555.42 102.997 1557.43 101.699Z" fill="#FCA11D" fill-opacity="0.59"/>
<path d="M1563.01 92.0698C1563.33 93.4616 1565.18 94.1829 1567.15 93.6804C1569.12 93.1784 1570.27 91.0238 1570.15 90.2508C1569.93 88.8374 1567.51 88.2959 1566.01 88.6403C1564.02 89.0923 1562.69 90.6777 1563.01 92.0698Z" fill="#FCA11D" fill-opacity="0.59"/>
<path d="M1560.45 98.4905C1560.35 99.6577 1561.61 100.698 1563.25 100.814C1564.9 100.93 1566.33 99.7145 1566.41 98.911C1566.52 97.7451 1564.69 96.588 1563.6 96.5877C1561.95 96.5867 1560.55 97.3234 1560.45 98.4905Z" fill="#FCA11D" fill-opacity="0.59"/>
<path d="M1599.1 61.2902C1600.06 62.3208 1602.07 62.0228 1603.51 60.5426C1604.61 59.4151 1605.48 57.0177 1604.45 56.0622C1603.89 55.54 1601.52 55.3664 1600.04 56.8101C1598.57 58.2536 1598.15 60.2594 1599.1 61.2902Z" fill="#FCA11D" fill-opacity="0.59"/>
<path d="M1595.76 58.3186C1596.35 57.3756 1596.4 55.1518 1595.4 54.6176C1594.71 54.2493 1592.94 54.8347 1592.15 56.3297C1591.35 57.8245 1591.51 59.4815 1592.51 60.0307C1593.51 60.58 1594.87 59.7557 1595.76 58.3186Z" fill="#FCA11D" fill-opacity="0.59"/>
<path d="M1595.82 75.2883C1597.45 74.2366 1597.44 73.0299 1597.51 71.873C1597.57 70.7908 1598.02 69.7742 1598.76 68.9814C1600.05 67.5776 1600.28 65.5456 1599.43 63.9121C1598.58 62.2785 1596.81 61.3679 1594.97 61.727C1593.93 61.9296 1592.86 61.7655 1591.95 61.2309C1590.98 60.6597 1590.01 59.9933 1588.26 60.8345C1586.12 61.8729 1585.39 64.6715 1586.5 66.7906C1586.81 67.3876 1587.24 67.8772 1587.74 68.2466C1588.28 68.6467 1588.73 69.1608 1589.04 69.7478C1589.34 70.3385 1589.52 71.0041 1589.54 71.6952C1589.57 72.3333 1589.73 72.9738 1590.04 73.5708C1591.15 75.6897 1593.81 76.5864 1595.82 75.2883Z" fill="#FCA11D" fill-opacity="0.59"/>
<path d="M1601.39 65.6597C1601.71 67.0514 1603.56 67.7727 1605.54 67.2703C1607.51 66.7682 1608.65 64.6136 1608.53 63.8406C1608.32 62.4273 1605.9 61.8857 1604.39 62.2301C1602.41 62.6821 1601.08 64.2676 1601.39 65.6597Z" fill="#FCA11D" fill-opacity="0.59"/>
<path d="M1598.84 72.0833C1598.74 73.2504 1599.99 74.2908 1601.64 74.4071C1603.28 74.5229 1604.71 73.3073 1604.79 72.5038C1604.9 71.3379 1603.07 70.1808 1601.99 70.1804C1600.34 70.1794 1598.93 70.9162 1598.84 72.0833Z" fill="#FCA11D" fill-opacity="0.59"/>
<path d="M1643.34 77.1369C1644.3 78.1674 1646.31 77.8695 1647.75 76.3893C1648.85 75.2618 1649.72 72.8644 1648.69 71.9089C1648.13 71.3867 1645.76 71.2131 1644.29 72.6568C1642.81 74.1003 1642.39 76.106 1643.34 77.1369Z" fill="#FCA11D" fill-opacity="0.59"/>
<path d="M1640 74.1653C1640.59 73.2223 1640.65 70.9984 1639.64 70.4642C1638.95 70.096 1637.19 70.6813 1636.39 72.1764C1635.59 73.6712 1635.75 75.3281 1636.75 75.8774C1637.75 76.4267 1639.11 75.6024 1640 74.1653Z" fill="#FCA11D" fill-opacity="0.59"/>
<path d="M1640.06 91.1374C1641.69 90.0857 1641.68 88.8791 1641.75 87.7221C1641.82 86.6399 1642.27 85.6233 1643 84.8305C1644.3 83.4267 1644.53 81.3947 1643.67 79.7612C1642.82 78.1276 1641.05 77.2171 1639.21 77.5761C1638.17 77.7787 1637.1 77.6146 1636.19 77.08C1635.22 76.5088 1634.25 75.8425 1632.51 76.6836C1630.36 77.722 1629.63 80.5206 1630.74 82.6397C1631.05 83.2367 1631.48 83.7263 1631.98 84.0957C1632.53 84.4958 1632.97 85.0099 1633.28 85.5969C1633.59 86.1876 1633.76 86.8532 1633.78 87.5443C1633.81 88.1824 1633.97 88.8229 1634.28 89.4199C1635.39 91.5389 1638.05 92.4355 1640.06 91.1374Z" fill="#FCA11D" fill-opacity="0.59"/>
<path d="M1645.64 81.5064C1645.95 82.8981 1647.81 83.6194 1649.78 83.1169C1651.75 82.6149 1652.89 80.4603 1652.77 79.6873C1652.56 78.2739 1650.14 77.7324 1648.63 78.0768C1646.65 78.5288 1645.32 80.1143 1645.64 81.5064Z" fill="#FCA11D" fill-opacity="0.59"/>
<path d="M1643.08 87.93C1642.98 89.0971 1644.24 90.1374 1645.88 90.2537C1647.52 90.3696 1648.95 89.154 1649.03 88.3504C1649.15 87.1846 1647.31 86.0275 1646.23 86.0271C1644.58 86.0261 1643.17 86.7629 1643.08 87.93Z" fill="#FCA11D" fill-opacity="0.59"/>
<path d="M1666.34 30.0134C1667.46 30.856 1669.38 30.2026 1670.54 28.4869C1671.43 27.1801 1671.87 24.6639 1670.69 23.908C1670.05 23.4949 1667.69 23.7487 1666.49 25.4347C1665.28 27.1205 1665.22 29.1704 1666.34 30.0134Z" fill="#FCA11D" fill-opacity="0.59"/>
<path d="M1662.53 27.6879C1662.95 26.6544 1662.61 24.4554 1661.53 24.1101C1660.78 23.8721 1659.15 24.7644 1658.63 26.3791C1658.1 27.9936 1658.55 29.5954 1659.63 29.9568C1660.71 30.3183 1661.9 29.263 1662.53 27.6879Z" fill="#FCA11D" fill-opacity="0.59"/>
<path d="M1665.55 44.3846C1666.97 43.0569 1666.75 41.8708 1666.62 40.7195C1666.49 39.6427 1666.76 38.5613 1667.34 37.6496C1668.37 36.0352 1668.24 33.9941 1667.12 32.5395C1666 31.0849 1664.1 30.5059 1662.35 31.19C1661.36 31.5761 1660.28 31.6061 1659.29 31.2433C1658.23 30.8557 1657.16 30.3741 1655.6 31.5144C1653.66 32.9219 1653.43 35.807 1654.89 37.694C1655.3 38.2255 1655.81 38.6303 1656.37 38.9037C1656.98 39.1998 1657.5 39.6263 1657.91 40.1482C1658.31 40.675 1658.6 41.2989 1658.75 41.9745C1658.88 42.5982 1659.15 43.1997 1659.56 43.7313C1661.02 45.6181 1663.79 46.0234 1665.55 44.3846Z" fill="#FCA11D" fill-opacity="0.59"/>
<path d="M1669.36 33.9054C1669.91 35.2185 1671.86 35.5956 1673.71 34.7472C1675.57 33.8994 1676.32 31.5735 1676.06 30.8339C1675.61 29.4816 1673.13 29.3823 1671.71 29.9922C1669.84 30.7928 1668.8 32.5921 1669.36 33.9054Z" fill="#FCA11D" fill-opacity="0.59"/>
<path d="M1667.96 40.6855C1668.07 41.8516 1669.48 42.6503 1671.12 42.4696C1672.76 42.2885 1673.96 40.8354 1673.89 40.0305C1673.8 38.8627 1671.79 38.0529 1670.73 38.2468C1669.1 38.542 1667.85 39.5194 1667.96 40.6855Z" fill="#FCA11D" fill-opacity="0.59"/>
<path d="M1715.03 9.86348C1716.15 10.7061 1718.07 10.0527 1719.23 8.33702C1720.12 7.03022 1720.56 4.51402 1719.38 3.75811C1718.74 3.345 1716.38 3.59883 1715.18 5.2848C1713.97 6.97058 1713.91 9.02045 1715.03 9.86348Z" fill="#FCA11D" fill-opacity="0.59"/>
<path d="M1711.22 7.53797C1711.64 6.50449 1711.3 4.30545 1710.22 3.96024C1709.48 3.72218 1707.84 4.61445 1707.32 6.22924C1706.79 7.84373 1707.24 9.44549 1708.32 9.80694C1709.4 10.1684 1710.59 9.11311 1711.22 7.53797Z" fill="#FCA11D" fill-opacity="0.59"/>
<path d="M1714.24 24.2347C1715.66 22.907 1715.44 21.7209 1715.31 20.5696C1715.18 19.4928 1715.45 18.4114 1716.03 17.4997C1717.06 15.8853 1716.93 13.8442 1715.81 12.3896C1714.68 10.935 1712.79 10.356 1711.04 11.0401C1710.05 11.4262 1708.97 11.4562 1707.98 11.0934C1706.92 10.7058 1705.85 10.2242 1704.28 11.3645C1702.35 12.772 1702.12 15.6571 1703.58 17.544C1703.99 18.0756 1704.5 18.4804 1705.06 18.7538C1705.66 19.0499 1706.19 19.4764 1706.6 19.9983C1707 20.525 1707.29 21.149 1707.43 21.8246C1707.57 22.4483 1707.84 23.0498 1708.25 23.5814C1709.71 25.4682 1712.48 25.8735 1714.24 24.2347Z" fill="#FCA11D" fill-opacity="0.59"/>
<path d="M1718.05 13.7555C1718.6 15.0686 1720.55 15.4457 1722.4 14.5973C1724.26 13.7494 1725.01 11.4236 1724.76 10.684C1724.3 9.33173 1721.82 9.23237 1720.4 9.84226C1718.53 10.6429 1717.49 12.4422 1718.05 13.7555Z" fill="#FCA11D" fill-opacity="0.59"/>
<path d="M1716.65 20.5366C1716.76 21.7026 1718.17 22.5014 1719.81 22.3207C1721.45 22.1396 1722.65 20.6864 1722.58 19.8816C1722.49 18.7138 1720.48 17.9039 1719.42 18.0979C1717.79 18.3931 1716.54 19.3705 1716.65 20.5366Z" fill="#FCA11D" fill-opacity="0.59"/>
<path d="M1344.95 90.7049C1344.94 92.1204 1346.6 93.3052 1348.65 93.2374C1350.21 93.1857 1352.47 92.0545 1352.37 90.6434C1352.32 89.8719 1350.72 88.0942 1348.67 88.1112C1346.62 88.1281 1344.95 89.2894 1344.95 90.7049Z" fill="#FCA11D" fill-opacity="0.59"/>
<path d="M1344.54 86.2146C1345.6 85.94 1347.15 84.3658 1346.78 83.2757C1346.53 82.5245 1344.86 81.7199 1343.26 82.2476C1341.67 82.7753 1340.66 84.091 1341.02 85.1865C1341.37 86.2819 1342.91 86.6328 1344.54 86.2146Z" fill="#FCA11D" fill-opacity="0.59"/>
<path d="M1333.07 98.5735C1334.97 98.9482 1335.78 98.0666 1336.62 97.2756C1337.4 96.5358 1338.41 96.1122 1339.48 96.0479C1341.38 95.934 1342.92 94.6193 1343.41 92.8378C1343.9 91.0563 1343.23 89.1618 1341.65 88.1363C1340.76 87.557 1340.09 86.6929 1339.8 85.6697C1339.48 84.5756 1339.22 83.4146 1337.39 82.8103C1335.13 82.0646 1332.7 83.5877 1332.07 85.8988C1331.89 86.5499 1331.87 87.2051 1331.99 87.8241C1332.11 88.4942 1332.08 89.1768 1331.91 89.8199C1331.73 90.4611 1331.41 91.0654 1330.96 91.5849C1330.54 92.0648 1330.22 92.6422 1330.05 93.2933C1329.41 95.604 1330.73 98.1109 1333.07 98.5735Z" fill="#FCA11D" fill-opacity="0.59"/>
<path d="M1343.65 95.4769C1342.94 96.7079 1343.79 98.5257 1345.56 99.5372C1347.34 100.549 1349.63 99.7831 1350.06 99.1396C1350.87 97.9628 1349.48 95.8832 1348.15 95.0794C1346.4 94.0238 1344.36 94.2457 1343.65 95.4769Z" fill="#FCA11D" fill-opacity="0.59"/>
<path d="M1337.44 98.3525C1336.58 99.1322 1336.78 100.763 1337.9 101.996C1339.01 103.228 1340.87 103.344 1341.48 102.815C1342.35 102.047 1341.8 99.9281 1341.02 99.1722C1339.82 98.0194 1338.3 97.5728 1337.44 98.3525Z" fill="#FCA11D" fill-opacity="0.59"/>
<path d="M1291.6 113.815C1291.59 115.23 1293.25 116.415 1295.3 116.347C1296.86 116.296 1299.12 115.164 1299.02 113.753C1298.97 112.982 1297.37 111.204 1295.32 111.221C1293.27 111.238 1291.6 112.399 1291.6 113.815Z" fill="#FCA11D" fill-opacity="0.59"/>
<path d="M1291.19 109.325C1292.25 109.05 1293.8 107.476 1293.43 106.386C1293.18 105.635 1291.51 104.83 1289.91 105.358C1288.32 105.886 1287.32 107.201 1287.67 108.297C1288.02 109.392 1289.56 109.743 1291.19 109.325Z" fill="#FCA11D" fill-opacity="0.59"/>
<path d="M1279.72 121.683C1281.62 122.058 1282.43 121.176 1283.27 120.385C1284.05 119.645 1285.06 119.222 1286.13 119.157C1288.03 119.043 1289.57 117.729 1290.06 115.947C1290.55 114.166 1289.88 112.271 1288.3 111.246C1287.41 110.666 1286.74 109.802 1286.45 108.779C1286.13 107.685 1285.87 106.524 1284.04 105.92C1281.78 105.174 1279.35 106.697 1278.72 109.008C1278.54 109.659 1278.52 110.314 1278.64 110.933C1278.76 111.604 1278.73 112.286 1278.56 112.929C1278.38 113.571 1278.06 114.175 1277.61 114.694C1277.19 115.174 1276.87 115.752 1276.7 116.403C1276.06 118.713 1277.38 121.22 1279.72 121.683Z" fill="#FCA11D" fill-opacity="0.59"/>
<path d="M1290.3 118.586C1289.59 119.817 1290.44 121.635 1292.22 122.647C1293.99 123.658 1296.28 122.893 1296.71 122.249C1297.52 121.072 1296.13 118.993 1294.8 118.189C1293.06 117.133 1291.01 117.355 1290.3 118.586Z" fill="#FCA11D" fill-opacity="0.59"/>
<path d="M1284.09 121.462C1283.23 122.242 1283.43 123.872 1284.55 125.105C1285.66 126.337 1287.53 126.453 1288.13 125.924C1289 125.157 1288.45 123.038 1287.67 122.282C1286.47 121.129 1284.95 120.682 1284.09 121.462Z" fill="#FCA11D" fill-opacity="0.59"/>
<path d="M430.225 243.661C430.478 245.053 432.324 245.907 434.326 245.455C435.851 245.112 437.865 243.577 437.511 242.208C437.317 241.46 435.421 240.013 433.41 240.414C431.398 240.816 429.972 242.269 430.225 243.661Z" fill="#FCA11D" fill-opacity="0.59"/>
<path d="M429.002 239.324C429.999 238.854 431.235 237.016 430.675 236.014C430.289 235.323 428.496 234.847 427.027 235.664C425.558 236.482 424.809 237.963 425.354 238.974C425.9 239.984 427.483 240.039 429.002 239.324Z" fill="#FCA11D" fill-opacity="0.59"/>
<path d="M419.988 253.62C421.92 253.632 422.557 252.613 423.234 251.679C423.867 250.806 424.788 250.199 425.827 249.935C427.666 249.469 428.944 247.887 429.099 246.045C429.253 244.202 428.255 242.465 426.514 241.754C425.532 241.352 424.723 240.627 424.243 239.677C423.73 238.662 423.271 237.568 421.359 237.318C418.999 237.01 416.893 238.962 416.692 241.352C416.636 242.025 416.735 242.673 416.96 243.26C417.204 243.895 417.302 244.571 417.25 245.235C417.19 245.899 416.981 246.554 416.633 247.149C416.313 247.698 416.106 248.325 416.049 248.998C415.848 251.388 417.604 253.604 419.988 253.62Z" fill="#FCA11D" fill-opacity="0.59"/>
<path d="M429.819 248.595C429.342 249.938 430.515 251.564 432.44 252.226C434.365 252.888 436.476 251.706 436.79 250.991C437.363 249.684 435.622 247.901 434.169 247.36C432.262 246.65 430.297 247.251 429.819 248.595Z" fill="#FCA11D" fill-opacity="0.59"/>
<path d="M424.237 252.585C423.532 253.513 424.031 255.077 425.351 256.079C426.671 257.081 428.522 256.846 429.017 256.213C429.735 255.296 428.812 253.315 427.902 252.719C426.516 251.811 424.941 251.657 424.237 252.585Z" fill="#FCA11D" fill-opacity="0.59"/>
<path d="M410.01 204.689C410.264 206.081 412.109 206.934 414.111 206.483C415.636 206.14 417.65 204.604 417.296 203.236C417.102 202.488 415.207 201.041 413.195 201.442C411.183 201.843 409.757 203.297 410.01 204.689Z" fill="#FCA11D" fill-opacity="0.59"/>
<path d="M408.788 200.352C409.785 199.882 411.02 198.045 410.46 197.042C410.074 196.352 408.281 195.875 406.812 196.693C405.343 197.51 404.594 198.991 405.14 200.002C405.685 201.013 407.268 201.068 408.788 200.352Z" fill="#FCA11D" fill-opacity="0.59"/>
<path d="M399.773 214.649C401.705 214.662 402.343 213.643 403.019 212.709C403.652 211.836 404.573 211.229 405.612 210.965C407.451 210.498 408.729 208.917 408.884 207.074C409.039 205.232 408.04 203.495 406.3 202.784C405.317 202.382 404.508 201.657 404.028 200.707C403.516 199.692 403.056 198.598 401.144 198.348C398.785 198.04 396.678 199.992 396.477 202.381C396.421 203.055 396.52 203.702 396.746 204.289C396.989 204.925 397.087 205.601 397.035 206.265C396.975 206.929 396.766 207.584 396.418 208.179C396.098 208.728 395.891 209.355 395.835 210.028C395.633 212.418 397.389 214.634 399.773 214.649Z" fill="#FCA11D" fill-opacity="0.59"/>
<path d="M409.602 209.622C409.124 210.966 410.297 212.591 412.223 213.253C414.147 213.915 416.259 212.733 416.572 212.019C417.145 210.712 415.404 208.928 413.951 208.387C412.044 207.677 410.079 208.278 409.602 209.622Z" fill="#FCA11D" fill-opacity="0.59"/>
<path d="M404.022 213.613C403.318 214.541 403.816 216.105 405.136 217.108C406.457 218.109 408.308 217.874 408.802 217.242C409.52 216.324 408.597 214.343 407.688 213.748C406.301 212.839 404.726 212.686 404.022 213.613Z" fill="#FCA11D" fill-opacity="0.59"/>
<path d="M364.466 183.563C364.72 184.955 366.565 185.808 368.568 185.357C370.093 185.014 372.106 183.478 371.752 182.11C371.559 181.362 369.663 179.915 367.651 180.316C365.639 180.717 364.213 182.171 364.466 183.563Z" fill="#FCA11D" fill-opacity="0.59"/>
<path d="M363.244 179.226C364.241 178.756 365.476 176.919 364.916 175.916C364.53 175.226 362.737 174.749 361.268 175.567C359.799 176.384 359.05 177.866 359.596 178.876C360.141 179.887 361.724 179.942 363.244 179.226Z" fill="#FCA11D" fill-opacity="0.59"/>
<path d="M354.23 193.523C356.161 193.535 356.799 192.517 357.475 191.583C358.108 190.709 359.029 190.102 360.068 189.839C361.907 189.372 363.185 187.79 363.34 185.948C363.495 184.106 362.496 182.369 360.756 181.657C359.773 181.255 358.964 180.53 358.485 179.581C357.972 178.565 357.512 177.472 355.6 177.222C353.241 176.913 351.135 178.865 350.934 181.255C350.877 181.928 350.976 182.576 351.202 183.163C351.445 183.798 351.543 184.474 351.491 185.138C351.431 185.802 351.222 186.457 350.874 187.052C350.554 187.602 350.347 188.228 350.291 188.902C350.09 191.291 351.845 193.507 354.23 193.523Z" fill="#FCA11D" fill-opacity="0.59"/>
<path d="M364.058 188.496C363.58 189.84 364.754 191.465 366.679 192.127C368.603 192.789 370.715 191.607 371.028 190.893C371.601 189.586 369.86 187.802 368.407 187.261C366.5 186.551 364.535 187.152 364.058 188.496Z" fill="#FCA11D" fill-opacity="0.59"/>
<path d="M358.478 192.487C357.774 193.415 358.272 194.979 359.592 195.982C360.913 196.983 362.764 196.748 363.258 196.116C363.976 195.198 363.053 193.217 362.144 192.622C360.757 191.713 359.182 191.56 358.478 192.487Z" fill="#FCA11D" fill-opacity="0.59"/>
<path d="M363.817 223.176C364.07 224.568 365.916 225.421 367.918 224.97C369.443 224.626 371.456 223.091 371.103 221.723C370.909 220.975 369.013 219.528 367.001 219.929C364.99 220.33 363.564 221.784 363.817 223.176Z" fill="#FCA11D" fill-opacity="0.59"/>
<path d="M362.594 218.842C363.591 218.372 364.827 216.534 364.266 215.532C363.881 214.841 362.088 214.365 360.618 215.182C359.149 216 358.401 217.481 358.946 218.492C359.492 219.502 361.075 219.557 362.594 218.842Z" fill="#FCA11D" fill-opacity="0.59"/>
<path d="M353.58 233.136C355.512 233.148 356.149 232.13 356.826 231.196C357.458 230.322 358.38 229.715 359.418 229.452C361.258 228.985 362.535 227.403 362.69 225.561C362.845 223.718 361.846 221.981 360.106 221.27C359.124 220.868 358.314 220.143 357.835 219.194C357.322 218.178 356.862 217.085 354.951 216.835C352.591 216.526 350.485 218.478 350.284 220.868C350.228 221.541 350.327 222.189 350.552 222.776C350.796 223.411 350.894 224.087 350.842 224.751C350.782 225.415 350.572 226.07 350.225 226.665C349.904 227.214 349.698 227.841 349.641 228.515C349.44 230.904 351.196 233.12 353.58 233.136Z" fill="#FCA11D" fill-opacity="0.59"/>
<path d="M363.408 228.109C362.931 229.452 364.104 231.078 366.029 231.74C367.954 232.402 370.065 231.22 370.379 230.505C370.952 229.199 369.21 227.415 367.758 226.874C365.851 226.164 363.886 226.765 363.408 228.109Z" fill="#FCA11D" fill-opacity="0.59"/>
<path d="M357.829 232.1C357.124 233.028 357.623 234.592 358.943 235.594C360.263 236.596 362.114 236.361 362.609 235.728C363.326 234.811 362.404 232.83 361.494 232.235C360.108 231.326 358.533 231.172 357.829 232.1Z" fill="#FCA11D" fill-opacity="0.59"/>
</svg>
