<svg width="279" height="242" viewBox="0 0 279 242" fill="none" xmlns="http://www.w3.org/2000/svg">
<path d="M53.7143 25.8203C-13.2861 77.3203 -15.2854 175.32 44.7143 232.32" stroke="#724747" stroke-width="3"/>
<path d="M256.5 174.495C274 116.496 255.337 51.0216 208.155 25.1821" stroke="#724747" stroke-width="3"/>
<path d="M196.498 176.82C196.498 176.82 186.501 153.321 160 124.821C149.894 113.953 152 96.3205 152 80.3205C152 64.3205 128.846 48.6651 108.5 53.3205C97.8869 55.7489 94.9998 61.8205 86.4998 68.3205C80.4506 72.9464 59.9984 71.3205 59.9984 71.3205C59.9984 71.3205 54.499 66.3205 57.9998 90.8205C61.5007 115.321 106.498 96.8205 99.9984 138.821" stroke="#724747" stroke-width="3"/>
<path d="M120.487 65.8203C82.4847 118.82 157.485 129.82 145.487 75.8203M86 154.32C87 159.82 94.4848 159.82 95.9848 155.32M155.985 211.32C149.999 176.82 144.432 167.643 124.985 148.32C124.448 135.51 118.063 122.426 116.985 121.82C115.906 121.215 108.768 141.665 103.999 139.82C99.2304 137.976 82.4987 141.32 81.4993 153.32C80.5 165.32 65.3658 158.959 69.4997 170.32C73.6336 181.681 71.8545 179.187 76.9849 182.82C98.7157 184.094 104.485 192.82 98.9848 211.32M95.9844 68.3203C96.9844 73.8203 105.484 72.8203 106.984 68.3203" stroke="#724747" stroke-width="3"/>
<path d="M98.0635 2.95821C98.3802 2.95821 99.2781 2.99811 101.747 3.013C104.963 3.0324 105.669 2.83623 106.711 2.71982C107.188 2.70075 107.595 2.6668 107.943 2.60405C108.11 2.57525 108.257 2.55261 108.477 2.5293" stroke="#724747" stroke-width="2" stroke-linecap="round"/>
<path d="M91.4415 4.00684C90.9789 4.00684 90.1915 4.04673 88.9327 4.08435C86.7932 4.14829 86.1401 4.28265 85.4552 4.43582C84.5848 4.63048 83.8455 4.66839 83.3345 4.95261C82.6644 5.32532 83.2528 6.68357 83.3548 7.31949C83.4669 8.01917 83.7221 9.19988 83.8298 10.9478C83.8847 11.84 84.0656 12.5925 84.3227 13.5059C84.6286 14.5924 85.0672 15.4721 85.4252 16.0904C86.354 17.6947 90.1199 16.4819 91.2732 16.2615C92.0167 16.0073 92.635 15.9115 93.106 15.8768C93.3168 15.8566 93.4707 15.8309 93.8692 15.8044" stroke="#724747" stroke-width="2" stroke-linecap="round"/>
<path d="M84.3457 10.8533C85.884 10.6076 89.2569 9.99987 90.0829 9.81859C90.4483 9.76132 90.7996 9.74913 91.1405 9.77711C91.3049 9.79396 91.452 9.81621 91.775 9.83913" stroke="#724747" stroke-width="2" stroke-linecap="round"/>
<path d="M125.533 12.9034C125.533 12.8973 125.533 12.8912 125.533 11.0246C125.533 9.15811 125.533 5.43139 125.524 3.4383C125.514 1.44521 125.495 1.29868 125.471 1.10645" stroke="#724747" stroke-width="2" stroke-linecap="round"/>
<path d="M67.9493 21.305C68.0183 20.7438 68.0888 17.781 68.0109 15.81C67.9833 15.1114 67.7919 14.2774 67.667 13.4664C67.511 12.4538 67.3961 11.7038 67.3147 10.8818C67.2778 10.5092 67.2449 10.1334 67.3128 9.7684C67.4763 8.8896 69.4602 9.02687 70.2956 8.89453C71.0391 8.77676 71.8683 9.08235 72.597 9.24302C73.2795 9.39349 73.711 10.0098 74.0715 10.5745C74.5135 11.2666 74.4784 12.2353 74.2776 12.9304C74.0977 13.5529 73.4218 14.0099 72.8569 14.4555C72.1109 15.0438 71.1727 15.1726 70.5165 15.3025C69.8835 15.4207 69.3989 15.4881 69.0677 15.5329C68.9037 15.5555 68.7479 15.5777 68.4863 15.6344" stroke="#724747" stroke-width="2" stroke-linecap="round"/>
<path d="M126.419 7.53906H134.772" stroke="#724747" stroke-width="2" stroke-linecap="round"/>
<path d="M104.142 3.24609C104.142 3.60932 104.222 4.48094 104.34 5.51967C104.453 6.5149 104.672 7.30932 104.824 8.19661C104.949 8.92218 104.999 9.56065 105.091 10.24C105.207 11.1048 105.249 12.0288 105.414 12.79C105.522 13.1794 105.649 13.521 105.774 13.8188C105.832 13.9712 105.877 14.1261 105.924 14.4892" stroke="#724747" stroke-width="2" stroke-linecap="round"/>
<path d="M134.869 1.04185C134.864 1.04185 134.859 1.04185 133.369 1.04185C131.879 1.04185 128.905 1.04185 127.272 1.03494C125.639 1.02804 125.438 1.01423 125.231 1" stroke="#724747" stroke-width="2" stroke-linecap="round"/>
<path d="M147.937 1.44917C147.269 1.42442 145.609 1.50674 144.676 1.89531C142.806 2.67411 142.303 3.6819 141.874 4.63207C141.132 6.27375 141.691 7.93601 142.037 8.83726C142.326 9.59451 143.049 10.1993 143.566 10.6968C144.144 11.2541 144.837 11.5487 145.514 11.8062C146.437 12.1571 147.129 12.2033 149.483 12.2078C150.38 12.2095 150.851 11.8771 151.145 11.674C152.231 10.9246 152.963 8.76924 153.237 8.08835C153.693 6.95833 153.252 5.31575 152.93 4.52602C152.66 3.8623 152.089 3.43021 151.522 2.87348C150.896 2.25818 150.169 2.08024 149.547 1.90666C148.904 1.81237 148.162 1.53686 147.416 1.34599C147.216 1.31874 147 1.30454 146.747 1.27539" stroke="#724747" stroke-width="2" stroke-linecap="round"/>
<path d="M167.334 2.69727C166.666 2.69727 165.068 2.73064 162.283 3.80603C161.382 4.15391 161.058 4.51829 160.847 4.81142C160.43 5.39031 160.445 8.26119 160.539 10.1882C160.58 11.044 161.226 11.579 162.226 12.5057C163.288 13.4903 164.43 13.8707 165.517 13.9923C167.724 14.2394 169.412 14.0365 169.869 13.8783C170.825 13.5482 171.592 12.2764 172.036 11.5882C172.427 10.9825 172.399 8.06399 172.158 6.21072C172.014 5.11013 171.117 4.58371 170.599 3.97606C170.078 3.5864 168.809 3.0732 167.635 2.84607C167.271 2.83501 166.707 2.83501 165.716 2.78619" stroke="#724747" stroke-width="2" stroke-linecap="round"/>
<path d="M180.682 5.91504C180.682 5.9254 180.673 7.68122 180.62 10.6545C180.571 13.3479 180.34 14.1339 180.274 15.0481C180.26 15.2676 180.246 15.474 180.224 15.6566C180.203 15.8392 180.174 15.9919 179.915 16.0196" stroke="#724747" stroke-width="2" stroke-linecap="round"/>
<path d="M181.424 5.76039C182.577 5.74331 186.324 6.08171 187.501 6.39637C188.148 6.56939 188.638 7.40727 189.551 9.18965C190.082 10.2254 190.267 11.3701 190.395 12.5009C190.509 13.5148 190.279 14.9925 189.883 15.7431C189.29 16.865 186.75 17.6107 185.784 17.8972C184.791 18.1917 182.059 18.1951 179.842 17.8757C179.51 17.7849 179.377 17.7206 179.271 17.6208C179.165 17.5209 179.092 17.3875 179.017 17.1959" stroke="#724747" stroke-width="2" stroke-linecap="round"/>
<path d="M211.591 207.096C215.305 208.142 218.933 211.99 217.939 215.545C216.91 219.228 211.366 221.011 207.374 220.073C203.412 219.143 199.611 215.212 200.548 211.651C201.53 207.92 207.367 205.907 211.591 207.096Z" fill="#724747"/>
<path d="M233.866 181.007C233.344 177.127 235.36 171.988 238.924 171.196C242.616 170.376 246.38 174.574 247.107 178.655C247.828 182.706 245.807 188.041 242.26 188.887C238.543 189.773 234.459 185.419 233.866 181.007Z" fill="#724747"/>
<path d="M215.125 184.604C212.46 181.161 211.542 175.051 214.54 172.248C217.646 169.343 223.618 171.236 226.593 174.755C229.546 178.248 230.568 184.55 227.615 187.397C224.522 190.38 218.155 188.52 215.125 184.604Z" fill="#724747"/>
<path d="M203.29 199.766C199.852 197.11 197.496 191.471 199.773 188.053C202.132 184.513 208.447 184.879 212.207 187.533C215.939 190.167 218.443 195.965 216.222 199.413C213.894 203.025 207.198 202.786 203.29 199.766Z" fill="#724747"/>
<path d="M223.639 195.612C221.319 198.036 220.872 200.995 220.606 202.931C220.142 206.317 220.988 207.267 221.78 212.965C222.823 220.484 221.697 221.338 223.201 224.371C223.615 225.206 225.702 229.415 230.333 230.675C235.079 231.967 240.446 229.604 243.152 226.181C245.595 223.091 244.408 220.985 247.231 218.076C249.836 215.392 251.597 216.411 254.324 214.12C258.393 210.703 260.528 203.352 257.81 198.307C256.125 195.179 253.101 193.914 252.056 193.477C248.695 192.07 247.444 193.258 240.507 192.857C234.801 192.528 234.043 191.631 230.573 192.316C228.632 192.699 225.869 193.283 223.639 195.612Z" fill="#724747"/>
</svg>
