<svg width="75" height="14" viewBox="0 0 75 14" fill="none" xmlns="http://www.w3.org/2000/svg">
<path d="M2.62039 3.22949C2.20253 3.34556 1.81079 3.46454 1.44517 3.58641C1.07954 3.70829 0.757446 3.82726 0.478874 3.94333L7.96402e-05 1.47972C0.621062 1.2882 1.22463 1.1199 1.81079 0.974806C2.40276 0.829717 2.96861 0.70494 3.50834 0.600476C4.04807 0.496011 4.55878 0.408958 5.04048 0.339315C5.52218 0.269672 5.96905 0.211637 6.38111 0.165208C7.33869 0.0607437 8.22374 0.00560976 9.03624 -0.00019381C9.88936 0.0114133 10.6351 0.0955651 11.2735 0.252262C11.9119 0.408958 12.4429 0.629494 12.8666 0.913869C13.2961 1.19824 13.6182 1.54065 13.8329 1.9411C14.0476 2.34155 14.155 2.78842 14.155 3.28173C14.155 3.92592 14.0041 4.50048 13.7023 5.00539C13.4063 5.5103 13.0117 5.95717 12.5184 6.34601C12.0251 6.72905 11.4592 7.05985 10.8208 7.33842C10.1882 7.61699 9.53535 7.85204 8.86213 8.04356C8.18892 8.23507 7.52151 8.38887 6.8599 8.50494C6.19829 8.61521 5.59762 8.69936 5.05789 8.75739L5.0753 11.1427L8.01771 11.1601V13.1623L0.635571 13.6237L0.583339 11.1078L3.18624 11.1253L2.62039 3.22949ZM8.54003 2.1065C8.34271 2.1065 8.11347 2.12101 7.85231 2.15003C7.59695 2.17324 7.31838 2.20806 7.0166 2.25449C6.71481 2.29512 6.39561 2.34735 6.05901 2.41119C5.7224 2.47503 5.37709 2.54467 5.02307 2.62012L5.05789 7.32972C5.47575 7.24266 5.91682 7.1353 6.38111 7.00762C6.85119 6.87414 7.31258 6.72034 7.76526 6.54623C8.22374 6.37213 8.65901 6.17771 9.07106 5.96298C9.48311 5.74244 9.84003 5.50159 10.1418 5.24043C10.4436 4.97927 10.6757 4.7007 10.8382 4.40472C11.0066 4.10293 11.0704 3.78373 11.0298 3.44713C11.0007 3.20338 10.9195 2.99735 10.786 2.82905C10.6525 2.65494 10.4755 2.51565 10.255 2.41119C10.0403 2.30092 9.7849 2.22257 9.48892 2.17615C9.19874 2.12972 8.88244 2.1065 8.54003 2.1065ZM23.7358 10.3069C23.5152 10.8815 23.2076 11.3806 22.813 11.8043C22.4241 12.2221 21.9831 12.5703 21.4898 12.8489C20.9965 13.1217 20.4741 13.3248 19.9228 13.4583C19.3715 13.5918 18.8288 13.6585 18.2949 13.6585C17.5521 13.6585 16.8904 13.5424 16.3101 13.3103C15.7297 13.0782 15.2364 12.7648 14.8302 12.3701C14.4239 11.9755 14.1047 11.5141 13.8726 10.986C13.6462 10.452 13.5157 9.88619 13.4808 9.28842C13.4808 8.37726 13.6317 7.59958 13.9335 6.95539C14.2411 6.30539 14.6561 5.77726 15.1784 5.37101C15.7065 4.96476 16.3217 4.66878 17.0239 4.48306C17.7262 4.29155 18.4719 4.19579 19.2612 4.19579C19.5514 4.19579 19.8503 4.2161 20.1579 4.25673C20.4712 4.29735 20.7759 4.36989 21.0719 4.47436C21.3679 4.57882 21.6494 4.72391 21.9163 4.90963C22.1891 5.08954 22.4329 5.32458 22.6476 5.61476C22.8681 5.89914 23.0538 6.24155 23.2047 6.64199C23.3556 7.04244 23.4601 7.51543 23.5181 8.06097L16.371 9.34065C16.4175 9.7411 16.4987 10.1328 16.6148 10.5159C16.7366 10.8989 16.8991 11.2384 17.1023 11.5344C17.3054 11.8246 17.555 12.0567 17.8509 12.2308C18.1527 12.3991 18.5096 12.4775 18.9217 12.4659C19.3686 12.4136 19.7632 12.2802 20.1056 12.0654C20.2507 11.9726 20.39 11.8594 20.5235 11.7259C20.657 11.5866 20.773 11.4212 20.8717 11.2297C20.9704 11.0382 21.0429 10.8148 21.0893 10.5594C21.1358 10.304 21.1445 10.011 21.1154 9.68016L23.7358 10.3069ZM20.4364 7.50382C20.4132 7.23106 20.3639 6.99311 20.2884 6.78998C20.213 6.58686 20.1172 6.41275 20.0012 6.26766C19.8909 6.12257 19.7661 6.0036 19.6268 5.91074C19.4933 5.81208 19.357 5.73373 19.2177 5.6757C18.8927 5.54222 18.5271 5.48128 18.1208 5.49289C17.7378 5.53931 17.4273 5.64958 17.1893 5.82369C16.9514 5.99199 16.7657 6.20382 16.6322 6.45918C16.5045 6.70873 16.4175 6.98731 16.371 7.29489C16.3246 7.60248 16.3014 7.91588 16.3014 8.23507L20.4364 7.50382ZM27.7712 9.93262C27.7712 10.246 27.8147 10.5188 27.9018 10.7509C27.9946 10.9831 28.1194 11.1775 28.2761 11.3342C28.4328 11.4851 28.6156 11.5982 28.8246 11.6737C29.0393 11.7491 29.2685 11.7869 29.5123 11.7869C29.756 11.7869 30.0114 11.7491 30.2784 11.6737C30.5453 11.5982 30.8094 11.4851 31.0705 11.3342C31.3317 11.1833 31.5871 10.9947 31.8366 10.7683C32.0862 10.542 32.3183 10.2808 32.533 9.98485C32.5911 10.1938 32.652 10.423 32.7159 10.6726C32.7739 10.8873 32.8377 11.1369 32.9074 11.4212C32.9828 11.6998 33.0641 11.9987 33.1511 12.3179C32.8029 12.579 32.4605 12.7938 32.1239 12.9621C31.7873 13.1304 31.4594 13.2639 31.1402 13.3625C30.8268 13.4612 30.525 13.5279 30.2348 13.5628C29.9446 13.6034 29.6748 13.6237 29.4252 13.6237C28.7752 13.6237 28.2239 13.5366 27.7712 13.3625C27.3243 13.1942 26.95 12.9621 26.6482 12.6661C26.3522 12.3643 26.1201 12.0132 25.9518 11.6128C25.7893 11.2065 25.6674 10.7712 25.5862 10.3069C25.5049 9.83686 25.4556 9.34936 25.4382 8.84445C25.4208 8.33373 25.4121 7.82882 25.4121 7.32972C25.4121 7.20204 25.415 7.05695 25.4208 6.89445C25.4266 6.73195 25.4353 6.56074 25.4469 6.38083L23.3663 6.44177L23.5404 4.62235L25.6471 4.45695C25.7051 3.96365 25.7661 3.48195 25.8299 3.01186C25.8996 2.54177 25.9605 2.11811 26.0127 1.74088C26.0766 1.29981 26.1375 0.881949 26.1955 0.487306L29.0161 0.696235C28.9464 1.00963 28.8768 1.35204 28.8071 1.72347C28.7433 2.04266 28.6708 2.41699 28.5895 2.84646C28.5141 3.27012 28.4357 3.7315 28.3545 4.23061L32.1326 3.92592L32.0804 6.1719L28.0498 6.29378C27.9627 6.94378 27.8931 7.57927 27.8409 8.20025C27.7944 8.81543 27.7712 9.39289 27.7712 9.93262ZM44.116 10.9163L44.0638 13.1275L36.5772 13.3538V10.6116L38.3966 10.6813L34.8448 3.29914L32.3551 3.36878V0.626592L39.8939 0.931279L39.8417 3.14244L37.6828 3.21208L39.8417 10.1503L43.9245 3.35137L41.3042 3.569L41.1562 0.81811L48.7038 0.748467L48.7734 2.94222L45.8136 3.19467L42.2792 10.838L44.116 10.9163ZM54.724 11.3081L54.4368 13.5366L47.9426 13.3538L47.664 11.7694L50.3017 11.604L50.2843 6.63329L47.5682 6.54623V5.15338L53.0439 4.79646L52.3823 11.4648L54.724 11.3081ZM53.0439 2.7507C53.0439 2.88998 53.0004 3.02347 52.9133 3.15115C52.8321 3.27302 52.7189 3.38039 52.5738 3.47324C52.4287 3.5661 52.2575 3.64155 52.0602 3.69958C51.8687 3.75181 51.6627 3.77793 51.4421 3.77793C51.2158 3.77793 51.0039 3.75181 50.8066 3.69958C50.6151 3.64155 50.4468 3.5661 50.3017 3.47324C50.1566 3.38039 50.0406 3.27302 49.9535 3.15115C49.8723 3.02347 49.8316 2.88998 49.8316 2.7507C49.8316 2.60561 49.8723 2.46923 49.9535 2.34155C50.0406 2.20806 50.1566 2.0949 50.3017 2.00204C50.4468 1.90918 50.6151 1.83664 50.8066 1.7844C51.0039 1.72637 51.2158 1.69735 51.4421 1.69735C51.6627 1.69735 51.8687 1.72637 52.0602 1.7844C52.2575 1.83664 52.4287 1.90918 52.5738 2.00204C52.7189 2.0949 52.8321 2.20806 52.9133 2.34155C53.0004 2.46923 53.0439 2.60561 53.0439 2.7507ZM58.4461 9.93262C58.4461 10.246 58.4896 10.5188 58.5767 10.7509C58.6695 10.9831 58.7943 11.1775 58.951 11.3342C59.1077 11.4851 59.2905 11.5982 59.4994 11.6737C59.7142 11.7491 59.9434 11.7869 60.1872 11.7869C60.4309 11.7869 60.6863 11.7491 60.9532 11.6737C61.2202 11.5982 61.4843 11.4851 61.7454 11.3342C62.0066 11.1833 62.2619 10.9947 62.5115 10.7683C62.7611 10.542 62.9932 10.2808 63.2079 9.98485C63.266 10.1938 63.3269 10.423 63.3907 10.6726C63.4488 10.8873 63.5126 11.1369 63.5823 11.4212C63.6577 11.6998 63.739 11.9987 63.826 12.3179C63.4778 12.579 63.1354 12.7938 62.7988 12.9621C62.4622 13.1304 62.1343 13.2639 61.8151 13.3625C61.5017 13.4612 61.1999 13.5279 60.9097 13.5628C60.6195 13.6034 60.3497 13.6237 60.1001 13.6237C59.4501 13.6237 58.8988 13.5366 58.4461 13.3625C57.9992 13.1942 57.6249 12.9621 57.3231 12.6661C57.0271 12.3643 56.795 12.0132 56.6267 11.6128C56.4642 11.2065 56.3423 10.7712 56.2611 10.3069C56.1798 9.83686 56.1305 9.34936 56.1131 8.84445C56.0957 8.33373 56.0869 7.82882 56.0869 7.32972C56.0869 7.20204 56.0899 7.05695 56.0957 6.89445C56.1015 6.73195 56.1102 6.56074 56.1218 6.38083L54.0412 6.44177L54.2153 4.62235L56.322 4.45695C56.38 3.96365 56.441 3.48195 56.5048 3.01186C56.5744 2.54177 56.6354 2.11811 56.6876 1.74088C56.7515 1.29981 56.8124 0.881949 56.8704 0.487306L59.691 0.696235C59.6213 1.00963 59.5517 1.35204 59.482 1.72347C59.4182 2.04266 59.3457 2.41699 59.2644 2.84646C59.189 3.27012 59.1106 3.7315 59.0294 4.23061L62.8075 3.92592L62.7553 6.1719L58.7247 6.29378C58.6376 6.94378 58.568 7.57927 58.5157 8.20025C58.4693 8.81543 58.4461 9.39289 58.4461 9.93262ZM74.4688 12.2831L74.0249 13.8936L69.6983 13.5715C69.7099 13.4844 69.7244 13.3886 69.7418 13.2842C69.7592 13.1797 69.7766 13.0811 69.7941 12.9882C69.8173 12.8837 69.8376 12.7793 69.855 12.6748C69.3501 12.9534 68.8394 13.1507 68.3229 13.2668C67.8063 13.3828 67.3014 13.4409 66.8081 13.4409C66.4483 13.4409 66.074 13.409 65.6851 13.3451C65.2963 13.2813 64.9394 13.171 64.6144 13.0143C64.2952 12.8518 64.0311 12.64 63.8222 12.3788C63.6133 12.1119 63.5088 11.7782 63.5088 11.3777C63.5088 10.954 63.6045 10.5884 63.7961 10.2808C63.9876 9.97324 64.24 9.71208 64.5534 9.49735C64.8668 9.27681 65.2208 9.09981 65.6155 8.96632C66.0159 8.83284 66.4193 8.72838 66.8255 8.65293C67.2376 8.57168 67.638 8.51945 68.0269 8.49623C68.4157 8.46722 68.7581 8.45271 69.0541 8.45271C69.3675 8.45271 69.649 8.46141 69.8985 8.47882C70.1481 8.49043 70.3715 8.51074 70.5688 8.53976C70.6385 8.1161 70.6733 7.71275 70.6733 7.32972C70.6733 7.05114 70.6356 6.79869 70.5601 6.57235C70.4905 6.34601 70.3657 6.15739 70.1858 6.0065C70.0117 5.85561 69.7766 5.74244 69.4807 5.66699C69.1905 5.59155 68.8278 5.56253 68.3925 5.57994C68.1023 5.60896 67.8354 5.69021 67.5916 5.82369C67.4871 5.88173 67.3798 5.95427 67.2695 6.04132C67.165 6.12838 67.0635 6.23284 66.9648 6.35472C66.872 6.47659 66.7878 6.62168 66.7124 6.78998C66.6369 6.95248 66.5789 7.1382 66.5383 7.34713L63.7264 7.48641C63.767 7.08597 63.8686 6.73195 64.0311 6.42436C64.1936 6.11097 64.3909 5.8411 64.6231 5.61476C64.861 5.38262 65.1222 5.1853 65.4066 5.0228C65.6909 4.8603 65.9782 4.72391 66.2684 4.61364C66.9532 4.36409 67.7164 4.2103 68.5579 4.15226C69.3124 4.14065 69.9508 4.2132 70.4731 4.36989C71.0012 4.52079 71.4365 4.72681 71.7789 4.98798C72.1213 5.24333 72.3883 5.53351 72.5798 5.85851C72.7713 6.18351 72.9106 6.50851 72.9976 6.83351C73.0847 7.15271 73.134 7.45739 73.1456 7.74757C73.1572 8.03195 73.1601 8.26699 73.1543 8.45271C73.1369 8.67905 73.0963 8.96342 73.0324 9.30583C72.9802 9.60181 72.9019 9.97324 72.7974 10.4201C72.6987 10.867 72.5624 11.4009 72.3883 12.0219L74.4688 12.2831ZM70.3686 9.71498C70.2351 9.70338 70.09 9.69467 69.9333 9.68887C69.7766 9.68306 69.6141 9.68016 69.4458 9.68016C69.3008 9.68016 69.1208 9.68597 68.9061 9.69757C68.6972 9.70918 68.4766 9.73239 68.2445 9.76722C68.0124 9.79623 67.7802 9.83976 67.5481 9.8978C67.3159 9.95583 67.107 10.0313 66.9213 10.1241C66.7414 10.217 66.5934 10.3302 66.4773 10.4636C66.3612 10.5971 66.3032 10.7538 66.3032 10.9337C66.3032 11.073 66.3438 11.2065 66.4251 11.3342C66.5121 11.4561 66.6282 11.5605 66.7733 11.6476C66.9184 11.7346 67.0867 11.7985 67.2782 11.8391C67.4755 11.8739 67.6816 11.8739 67.8963 11.8391C68.3316 11.7578 68.7407 11.6592 69.1237 11.5431C69.5126 11.4212 69.8463 11.3052 70.1249 11.1949C70.1713 10.9511 70.2148 10.7045 70.2554 10.4549C70.2961 10.2054 70.3338 9.95873 70.3686 9.71498Z" fill="black"/>
</svg>
