<svg width="133" height="56" viewBox="0 0 133 56" fill="none" xmlns="http://www.w3.org/2000/svg">
<path d="M12.7283 20.8152C14.4119 24.0983 14.1454 29.1613 11.103 30.8005C7.95174 32.4983 3.17824 29.7922 1.24273 26.3859C-0.677998 23.0056 -0.467355 17.768 2.54298 16.0853C5.69689 14.3224 10.8139 17.082 12.7283 20.8152Z" fill="#333333"/>
<path d="M44.7766 19.2404C47.0638 16.3286 51.8348 14.3642 54.6637 16.3365C57.5938 18.3794 57.1795 23.7668 54.8884 26.9545C52.6149 30.1177 47.7077 32.2073 44.8527 30.2822C41.8616 28.2653 42.1759 22.5514 44.7766 19.2404Z" fill="#333333"/>
<path d="M30.2682 8.52926C30.8804 4.40637 34.4188 -0.245594 38.2432 0.0100888C42.2044 0.274915 44.7681 5.69101 44.3039 10.0811C43.8433 14.4377 40.2419 19.2888 36.4182 19.0936C32.4122 18.8891 29.5721 13.2174 30.2682 8.52926Z" fill="#333333"/>
<path d="M12.3738 10.2158C11.9571 6.06959 14.2513 0.721223 18.0264 0.0695298C21.9366 -0.605474 25.7532 4.04882 26.3791 8.41962C27.0002 12.757 24.6936 18.3136 20.934 19.0238C16.9951 19.7679 12.8476 14.9305 12.3738 10.2158Z" fill="#333333"/>
<path d="M28.2777 21.6655C25.1451 21.6344 22.8568 23.2651 21.3772 24.3502C18.7887 26.2485 18.6913 27.4649 15.348 31.76C10.9364 37.4273 9.63377 37.2007 8.55137 40.2436C8.25331 41.0815 6.75097 45.3049 8.88024 49.3716C11.0623 53.5391 16.115 55.7408 20.1714 55.3853C23.8333 55.0644 24.4929 52.8514 28.2777 52.9154C31.7692 52.9745 32.214 54.8748 35.5186 55.278C40.4478 55.8794 46.793 52.5459 48.4541 47.3312C49.4836 44.0992 48.3924 41.1536 48.0156 40.1362C46.8026 36.8618 45.1947 36.7671 40.9997 31.6526C37.5492 27.4458 37.6669 26.3269 34.9705 24.3502C33.4619 23.2443 31.2885 21.6954 28.2777 21.6655Z" fill="#333333"/>
<path d="M41.1965 37.7471C41.0278 38.083 40.6674 38.1587 40.6252 38.1674C40.0257 38.176 39.4244 38.1846 38.8249 38.1949C38.7476 38.2328 38.5894 38.3206 38.4663 38.4997C38.301 38.7443 38.3098 38.994 38.3169 39.075C38.2852 42.9964 38.2553 46.9179 38.2237 50.8393C38.2237 50.8721 38.2114 51.1993 37.9371 51.3749C37.793 51.4679 37.6435 51.4731 37.5767 51.4714C31.072 51.5024 24.5672 51.5334 18.0625 51.5644C17.9816 51.5403 17.8902 51.499 17.8058 51.4283C17.4735 51.1528 17.5298 50.6774 17.5368 50.6206C17.6775 44.338 17.7443 39.7518 17.7162 38.9837C17.7109 38.8063 17.6845 38.4446 17.4296 38.25C17.2362 38.1036 17.0006 38.1209 16.6297 38.1381C16.3062 38.1536 15.828 38.1708 15.2233 38.1691C14.9402 38.2328 14.6501 38.1036 14.5148 37.8591C14.3741 37.6025 14.4374 37.277 14.6677 37.0841C16.2289 35.6925 17.7918 34.301 19.3529 32.9077V27.9409C19.3494 27.9185 19.3318 27.7876 19.4232 27.6688C19.5199 27.5414 19.6658 27.5276 19.6887 27.5259C20.5958 27.5138 21.5047 27.5017 22.4119 27.4897C22.4347 27.488 22.5701 27.4811 22.6791 27.581C22.8092 27.7015 22.7881 27.8686 22.7864 27.8841V29.8491C24.3862 28.4231 25.9877 26.9954 27.5876 25.5694C27.621 25.5332 27.7423 25.4161 27.9374 25.3938C28.2222 25.3628 28.4138 25.5711 28.4332 25.5918C32.6507 29.3617 36.87 33.1316 41.0876 36.9032C41.288 37.1478 41.3301 37.4767 41.1965 37.7471Z" fill="#FCF9F6"/>
<path d="M30.7933 31.3473C30.6198 30.875 30.5014 30.4854 30.4247 30.2146C30.3086 29.8042 30.2652 29.5843 30.138 29.5623C29.9567 29.5309 29.7451 29.9261 29.6408 30.121C29.4895 30.4035 29.2974 30.8609 29.2392 31.5071C28.202 32.79 27.9355 33.6357 27.9007 34.1857C27.8932 34.3045 27.8827 34.6276 27.7669 35.0474C27.5942 35.6732 27.3017 36.1007 27.1741 36.2837C25.6422 38.4816 23.7323 40.9104 23.7323 40.9104C22.1265 42.9523 21.6173 43.8957 21.2949 44.6024C21.211 44.7865 20.7083 45.9157 20.6446 47.3846C20.6185 47.9874 20.6787 48.3598 20.8172 48.7107C21.1308 49.5056 21.7436 49.9308 21.9054 50.0368C22.7239 50.5727 23.8569 50.7023 24.8251 50.2578C25.9784 49.7284 26.3461 48.6377 26.4442 48.3467C26.5981 47.8904 26.6003 47.5334 26.6035 47.0336C26.6061 46.6206 26.5633 46.2379 26.3381 46.0325C26.2985 45.9964 26.1989 45.9057 26.0726 45.9155C25.9443 45.9255 25.859 46.034 25.8205 46.0845C25.6616 46.2927 25.7138 46.4849 25.6479 46.8776C25.6479 46.8776 25.6206 47.0405 25.5285 47.3456C25.3721 47.8634 24.735 48.5304 23.8696 48.6587C23.7839 48.6714 22.7246 48.8136 22.2239 48.1646C22.0537 47.944 22.0211 47.7267 21.9717 47.3976C21.8403 46.5211 22.1407 45.8105 22.2903 45.5125C22.4466 45.2008 22.6113 45.0057 22.9406 44.6154C23.5297 43.9172 24.1083 43.4639 24.4402 43.2373C24.8538 42.955 24.8704 43.0101 25.2763 42.7173C25.829 42.3185 26.4396 41.8665 26.6964 41.1182C26.7985 40.8206 26.7175 40.8467 26.8424 40.4551C26.9404 40.1476 27.1223 39.6003 27.6254 39.1421C27.755 39.024 27.9671 38.8562 28.2757 38.713C28.4478 38.3841 28.6401 38.1714 28.7667 38.05C28.9457 37.8783 29.0752 37.8104 29.2047 37.777C29.2905 37.7548 29.3651 37.7506 29.417 37.751C29.4347 38.128 29.4524 38.505 29.4701 38.882C30.1651 39.0274 30.4208 39.2876 30.5253 39.4996C30.6373 39.7268 30.5584 39.8637 30.7446 40.2396C30.8786 40.5102 30.9953 40.5924 30.9879 40.7953C30.9819 40.9601 30.8985 41.0849 30.7933 41.2422C30.7055 41.3735 30.6085 41.5187 30.4278 41.6003C30.349 41.6359 30.3087 41.6348 30.0866 41.6719C29.8958 41.7038 29.7434 41.735 29.648 41.7555C29.6148 41.8192 29.5675 41.9317 29.5627 42.0778C29.5552 42.3045 29.6548 42.4696 29.6967 42.5313C29.893 42.996 30.1529 43.8282 29.9282 44.7753C29.886 44.953 29.8312 45.1162 29.7698 45.2647C29.7984 45.5721 29.8445 46.0645 29.9038 46.6731C29.9038 46.6731 29.9741 47.4369 30.5009 49.8003C30.5139 49.859 30.5471 50.0002 30.6593 50.1346C31.0174 50.5636 31.8868 50.5716 32.0361 50.3017C32.1283 50.135 31.9536 49.8482 31.9386 49.8242C31.8583 49.6954 31.7868 49.6714 31.6949 49.5616C31.5374 49.3733 31.5098 49.1595 31.4878 48.9887C31.4384 48.6051 31.4049 46.2826 31.4294 43.0976C31.754 42.3586 32.0237 41.7687 32.2067 41.3735C32.515 40.7076 32.6218 40.4979 32.7077 40.1326C32.8581 39.4929 32.8032 38.9763 32.755 38.5566C32.6834 37.9347 32.4471 36.7028 32.2798 35.9188C32.255 35.8028 32.1924 35.5119 32.3529 35.3459C32.4194 35.277 32.5044 35.2503 32.56 35.2384C33.0149 35.2145 33.4698 35.1907 33.9247 35.1668C34.1575 35.0831 34.6487 34.8657 34.9238 34.3671C34.9921 34.2432 35.2303 33.8033 35.0456 33.5077C34.947 33.3499 34.7856 33.3258 34.3446 33.2117C33.5426 33.0041 33.136 32.8962 32.8646 32.6961C32.5063 32.4318 32.5864 32.2512 32.2432 31.9322C31.7952 31.5157 31.2234 31.3877 30.7933 31.3473Z" fill="#333333"/>
<path d="M57.8895 49.7083C56.9684 49.7083 56.3619 49.2281 56.654 48.2423L61.5736 31.3578C62.4496 30.9786 63.9098 30.8018 64.5612 30.8018C65.5721 30.8018 66.0213 31.1303 66.5829 33.1525L71.0308 48.7983C70.5815 49.1269 69.4133 49.7083 68.3351 49.7083C67.6612 49.7083 67.0322 49.5567 66.7401 48.3181L65.9764 45.2597H60.1134L58.9677 49.5061C58.6307 49.6325 58.2039 49.7083 57.8895 49.7083ZM65.3923 42.8837L63.1909 33.9613L60.7648 42.8837H65.3923Z" fill="#333333"/>
<path d="M72.626 43.0342C72.626 38.1559 75.0746 35.9064 78.0173 35.9064C79.2977 35.9064 80.3535 36.3614 81.1847 37.0944C81.1622 34.4909 81.1173 32.2161 81.0498 30.8512C81.6339 30.4467 82.6223 30.1182 83.476 30.1182C84.5992 30.1182 84.9585 30.6237 84.9585 31.8622C84.9585 33.3535 84.8687 36.3614 84.8687 40.5573V45.8652C84.8687 46.8762 85.1158 47.7862 85.9694 47.963C85.6325 49.1006 84.6216 49.783 83.4984 49.783C82.1506 49.783 81.4767 48.7719 81.3643 47.5081L81.3419 47.3312C80.5332 48.8983 79.1405 49.783 77.4781 49.783C74.6477 49.783 72.626 47.4576 72.626 43.0342ZM78.8709 47.2806C80.2861 47.2806 81.2071 45.9916 81.2071 44.3991V39.0407C80.713 38.6362 79.9492 38.3076 79.118 38.3076C77.6803 38.3076 76.4673 39.2682 76.4673 42.7563C76.4673 45.6882 77.3433 47.2806 78.8709 47.2806Z" fill="#333333"/>
<path d="M87.7227 42.8601C87.7227 38.7907 90.1937 35.9092 94.1024 35.9092C98.0785 35.9092 100.46 38.7907 100.46 42.8601C100.46 46.9296 98.0785 49.7858 94.1024 49.7858C90.1937 49.7858 87.7227 46.9295 87.7227 42.8601ZM96.6408 42.8601C96.6408 39.3973 95.6075 38.1082 94.1024 38.1082C92.6648 38.1082 91.5641 39.3973 91.5641 42.8601C91.5641 46.323 92.6648 47.5868 94.1024 47.5868C95.6075 47.5868 96.6408 46.323 96.6408 42.8601Z" fill="#333333"/>
<path d="M103.267 45.1591V38.4861L102.009 38.5367C101.829 37.4751 101.919 36.9444 102.301 36.7169C102.526 36.5652 102.93 36.641 103.222 36.6158C103.806 35.4531 104.974 33.6584 105.581 32.8496C106.03 32.7738 106.614 32.7991 106.996 32.8496C107.018 33.4056 107.041 34.4926 106.996 36.5652C108.254 36.5905 109.31 36.5652 110.074 36.5147C110.163 36.6663 110.231 36.9444 110.231 37.1466C110.231 38.006 109.804 38.5114 109.04 38.5114L106.951 38.4861V43.7943C106.951 46.4987 107.468 47.2571 108.726 47.2571C109.355 47.2571 109.759 47.1054 110.029 46.8779C109.916 47.9647 108.995 49.7594 106.929 49.7594C103.716 49.7594 103.267 47.0296 103.267 45.1591Z" fill="#333333"/>
<path d="M111.444 43.0623C111.444 38.6136 114.252 35.9092 117.981 35.9092C121.036 35.9092 122.654 37.7796 122.654 40.0039C122.654 43.3151 119.149 44.225 115.376 43.7448C115.668 45.9185 116.791 46.9548 118.565 46.9548C120.048 46.9548 121.014 46.2471 121.8 45.0592C122.204 45.3371 122.384 45.8174 122.384 46.2977C122.384 47.9658 120.362 49.7858 117.397 49.7858C113.893 49.7858 111.444 47.2329 111.444 43.0623ZM119.307 39.7764C119.307 38.7401 118.768 38.1082 117.802 38.1082C116.341 38.1082 115.308 39.5489 115.286 42.4052C118.071 42.2788 119.307 41.2929 119.307 39.7764Z" fill="#333333"/>
<path d="M126.212 44.0586L123.044 44.0839C122.775 42.6684 122.797 41.4805 123.853 41.4299L126.212 41.3793L126.257 38.7253C126.324 37.4364 127.47 37.4615 128.705 37.7143L128.683 41.4046L131.94 41.4299C132.165 43.0476 132.007 44.0839 130.817 44.0839L128.683 44.0586L128.705 46.6115C128.728 47.9006 127.694 48.1028 126.257 47.7995L126.212 44.0586Z" fill="#333333"/>
</svg>
