<svg width="332" height="337" viewBox="0 0 332 337" fill="none" xmlns="http://www.w3.org/2000/svg">
<path d="M52.8099 53.0666L67.3118 2.45898L111.448 34.0887L174.5 25.865L147.388 75.2074L167.564 126.448C159.494 125.435 131.415 118.856 118.384 115.693L52.8099 171.994C41.2083 177.561 51.7589 131.719 58.4844 108.102C58.4844 105.066 21.0737 95.0287 2.3683 90.3897C-4.69352 85.835 33.0536 63.6098 52.8099 53.0666Z" stroke="#FCA11D" stroke-width="3"/>
<path d="M269.718 150.61L279.106 118.459L307.68 138.553L348.5 133.329L330.948 164.676L344.01 197.228C338.785 196.585 320.606 192.406 312.17 190.396L269.718 226.164C262.207 229.7 269.038 200.577 273.392 185.574C273.392 183.645 249.172 177.268 237.062 174.321C232.49 171.427 256.928 157.308 269.718 150.61Z" stroke="#FCA11D" stroke-width="3"/>
<path d="M157.718 258.907L167.106 226.459L195.68 246.739L236.5 241.466L218.948 273.104L232.01 305.958C226.785 305.309 208.606 301.09 200.17 299.062L157.718 335.161C150.207 338.73 157.038 309.338 161.392 294.195C161.392 292.248 137.172 285.813 125.062 282.838C120.49 279.918 144.928 265.667 157.718 258.907Z" stroke="#FCA11D" stroke-width="3"/>
</svg>
