<svg width="22" height="22" viewBox="0 0 22 22" fill="none" xmlns="http://www.w3.org/2000/svg">
<path d="M21.9927 11.0004C21.9927 16.5561 17.8758 21.1491 12.5274 21.8944C12.0274 21.9638 11.5157 22 10.9964 22C10.3969 22 9.8082 21.9522 9.23492 21.8597C3.9991 21.0165 0 16.4751 0 11.0004C0 4.9252 4.92375 0 10.9971 0C17.0705 0 21.9943 4.9252 21.9943 11.0004H21.9927Z" fill="#333333"/>
<path d="M4.45933 4.85742L9.53102 11.6402L4.42773 17.155H5.57661L10.045 12.3269L13.655 17.155H17.5639L12.2071 9.99073L16.9575 4.85742H15.8086L11.6939 9.30398L8.36905 4.85742H4.46009H4.45933ZM6.14835 5.70372H7.94371L15.8733 16.3087H14.078L6.14835 5.70372Z" fill="white"/>
</svg>
