<svg width="22" height="22" viewBox="0 0 22 22" fill="none" xmlns="http://www.w3.org/2000/svg">
<path d="M21.9935 11C21.9935 4.92487 17.0701 0 10.9968 0C4.92342 0 0 4.92487 0 11C0 17.0751 4.92342 22 10.9968 22C17.0701 22 21.9935 17.0751 21.9935 11Z" fill="#333333"/>
<path d="M17.9219 8.72412C17.8353 7.88855 17.6491 6.96486 16.9637 6.47944C16.4328 6.10301 15.735 6.0891 15.0836 6.08987C13.7066 6.08987 12.3288 6.09219 10.9518 6.09296C9.62737 6.09451 8.3029 6.09528 6.97844 6.09683C6.42516 6.09683 5.88734 6.05431 5.37347 6.29393C4.93224 6.49954 4.58683 6.89066 4.37896 7.32584C4.09073 7.93107 4.03046 8.61668 3.99569 9.28606C3.93155 10.505 3.93851 11.7271 4.01501 12.9453C4.07142 13.8342 4.21437 14.8166 4.90133 15.3832C5.51024 15.8848 6.36952 15.9096 7.15925 15.9103C9.666 15.9127 12.1735 15.915 14.681 15.9165C15.0025 15.9173 15.3379 15.9111 15.6655 15.8756C16.31 15.806 16.9243 15.6212 17.3385 15.1436C17.7565 14.662 17.8639 13.9918 17.9273 13.3572C18.0818 11.8175 18.0803 10.2631 17.9219 8.72412ZM9.50218 13.1617V8.8447L13.2391 11.0028L9.50218 13.1617Z" fill="white"/>
</svg>
